<?xml version="1.0" encoding="UTF-8" standalone="no"?>
<!-- Created with Inkscape (http://www.inkscape.org/) -->

<svg
   xmlns:dc="http://purl.org/dc/elements/1.1/"
   xmlns:cc="http://creativecommons.org/ns#"
   xmlns:rdf="http://www.w3.org/1999/02/22-rdf-syntax-ns#"
   xmlns:svg="http://www.w3.org/2000/svg"
   xmlns="http://www.w3.org/2000/svg"
   xmlns:sodipodi="http://sodipodi.sourceforge.net/DTD/sodipodi-0.dtd"
   xmlns:inkscape="http://www.inkscape.org/namespaces/inkscape"
   id="svg2"
   version="1.1"
   inkscape:version="0.48.3.1 r9886"
   width="1620"
   height="1080"
   xml:space="preserve"
   sodipodi:docname="Collar Switch and Backplate Cube Magnet.dxf"><metadata
     id="metadata8"><rdf:RDF><cc:Work
         rdf:about=""><dc:format>image/svg+xml</dc:format><dc:type
           rdf:resource="http://purl.org/dc/dcmitype/StillImage" /><dc:title></dc:title></cc:Work></rdf:RDF></metadata><defs
     id="defs6"><marker
       inkscape:stockid="Arrow1Mstart"
       orient="auto"
       refY="0.0"
       refX="0.0"
       id="Arrow1Mstart"
       style="overflow:visible"><path
         id="path3825"
         d="M 0.0,0.0 L 5.0,-5.0 L -12.5,0.0 L 5.0,5.0 L 0.0,0.0 z "
         style="fill-rule:evenodd;stroke:#000000;stroke-width:1.0pt"
         transform="scale(0.4) translate(10,0)" /></marker><marker
       inkscape:stockid="Arrow2Mend"
       orient="auto"
       refY="0.0"
       refX="0.0"
       id="Arrow2Mend"
       style="overflow:visible;"><path
         id="path3846"
         style="fill-rule:evenodd;stroke-width:0.62500000;stroke-linejoin:round;"
         d="M 8.7185878,4.0337352 L -2.2072895,0.016013256 L 8.7185884,-4.0017078 C 6.9730900,-1.6296469 6.9831476,1.6157441 8.7185878,4.0337352 z "
         transform="scale(0.6) rotate(180) translate(0,0)" /></marker><marker
       inkscape:stockid="Arrow2Lend"
       orient="auto"
       refY="0.0"
       refX="0.0"
       id="Arrow2Lend"
       style="overflow:visible;"><path
         id="path3840"
         style="fill-rule:evenodd;stroke-width:0.62500000;stroke-linejoin:round;"
         d="M 8.7185878,4.0337352 L -2.2072895,0.016013256 L 8.7185884,-4.0017078 C 6.9730900,-1.6296469 6.9831476,1.6157441 8.7185878,4.0337352 z "
         transform="scale(1.1) rotate(180) translate(1,0)" /></marker></defs><sodipodi:namedview
     pagecolor="#ffffff"
     bordercolor="#666666"
     borderopacity="1"
     objecttolerance="10"
     gridtolerance="10"
     guidetolerance="10"
     inkscape:pageopacity="0"
     inkscape:pageshadow="2"
     inkscape:window-width="1920"
     inkscape:window-height="1176"
     id="namedview4"
     showgrid="false"
     inkscape:zoom="3.4962963"
     inkscape:cx="221.38735"
     inkscape:cy="948.80216"
     inkscape:window-x="0"
     inkscape:window-y="24"
     inkscape:window-maximized="1"
     inkscape:current-layer="g10"
     showguides="true"
     inkscape:guide-bbox="true"><sodipodi:guide
       orientation="0,1"
       position="223.95127,944.42797"
       id="guide4629" /><sodipodi:guide
       orientation="0,1"
       position="223.95127,888.36865"
       id="guide4631" /><sodipodi:guide
       orientation="1,0"
       position="305.4661,936.99153"
       id="guide4834" /></sodipodi:namedview><g
     id="g10"
     inkscape:groupmode="layer"
     inkscape:label="Collar Switch and Backplate Cube Magnet"
     transform="matrix(1.25,0,0,-1.25,0,1080)"><path
       d="m 179.29865,758.7978 c 1.69,0 3.06,-1.37 3.06,-3.06 0,-1.69 -1.37,-3.06 -3.06,-3.06 -1.69,0 -3.06,1.37 -3.06,3.06 0,1.69 1.37,3.06 3.06,3.06 z"
       style="fill:none;stroke:#373535;stroke-width:0.21600001;stroke-linecap:butt;stroke-linejoin:miter;stroke-miterlimit:2.61312604;stroke-opacity:1;stroke-dasharray:none"
       id="path12"
       inkscape:connector-curvature="0" /><path
       d="m 179.29865,713.7981 c 1.69,0 3.06,-1.37 3.06,-3.06 0,-1.69 -1.37,-3.06 -3.06,-3.06 -1.69,0 -3.06,1.37 -3.06,3.06 0,1.69 1.37,3.06 3.06,3.06 z"
       style="fill:none;stroke:#373535;stroke-width:0.21600001;stroke-linecap:butt;stroke-linejoin:miter;stroke-miterlimit:2.61312604;stroke-opacity:1;stroke-dasharray:none"
       id="path14"
       inkscape:connector-curvature="0" /><path
       d="m 119.62195,805.1193 c 6.5084,0 11.8639,-4.8186 12.5189,-10.9956 l 26.216,-26.2159 c 6.1112,3.7 13.278,5.8303 20.9418,5.8303 22.3636,0 40.5,-18.1364 40.5,-40.5 0,-22.3637 -18.1364,-40.5 -40.5,-40.5 -22.3637,0 -40.5,18.1363 -40.5,40.5 0,7.6286 2.1115,14.7645 5.7801,20.857 l -26.5816,26.5816 c -6.1829,0.7779 -10.9619,5.931 -10.9619,12.1706 0,6.7765 5.6365,12.272 12.5867,12.272 z"
       style="fill:none;stroke:#373535;stroke-width:0.21600001;stroke-linecap:butt;stroke-linejoin:miter;stroke-miterlimit:2.61312604;stroke-opacity:1;stroke-dasharray:none"
       id="path16"
       inkscape:connector-curvature="0" /><path
       style="fill:none;stroke:#000000;stroke-width:0.80000001px;stroke-linecap:butt;stroke-linejoin:miter;stroke-opacity:1"
       d="m 138.77542,732.88982 0,-54 m 81,0 0,52.28391"
       id="path3028"
       inkscape:connector-curvature="0"
       sodipodi:nodetypes="cccc" /><text
       xml:space="preserve"
       style="font-size:32px;font-style:normal;font-weight:normal;line-height:125%;letter-spacing:0px;word-spacing:0px;fill:#000000;fill-opacity:1;stroke:none;font-family:Sans"
       x="163.71611"
       y="-675.57208"
       id="text3030"
       sodipodi:linespacing="125%"
       transform="scale(1,-1)"><tspan
         sodipodi:role="line"
         id="tspan3032"
         x="163.71611"
         y="-675.57208"
         style="font-size:9.60000038px">1.12 in</tspan></text>
<path
       style="fill:none;stroke:#000000;stroke-width:0.80000001px;stroke-linecap:butt;stroke-linejoin:miter;stroke-opacity:1;marker-end:url(#Arrow2Mend)"
       d="m 162.85805,678.88982 -24.08263,0"
       id="path3043"
       inkscape:connector-curvature="0" /><path
       style="fill:none;stroke:#000000;stroke-width:0.80000001px;stroke-linecap:butt;stroke-linejoin:miter;stroke-opacity:1;marker-end:url(#Arrow2Mend)"
       d="m 197.5233,678.88982 22.25212,0"
       id="path3045"
       inkscape:connector-curvature="0" /><path
       style="fill:none;stroke:#000000;stroke-width:1px;stroke-linecap:butt;stroke-linejoin:miter;stroke-opacity:1;marker-start:url(#Arrow1Mstart)"
       d="M 226.52543,131.28178 272.43114,86.806142"
       id="path4633"
       inkscape:connector-curvature="0"
       transform="matrix(0.8,0,0,-0.8,0,864)"
       sodipodi:nodetypes="cc" /><text
       transform="scale(1,-1)"
       sodipodi:linespacing="125%"
       id="text4826"
       y="-792.95343"
       x="220.23306"
       style="font-size:9.60000038px;font-style:normal;font-variant:normal;font-weight:normal;font-stretch:normal;text-align:start;line-height:125%;letter-spacing:0px;word-spacing:0px;writing-mode:lr-tb;text-anchor:start;fill:#000000;fill-opacity:1;stroke:none;font-family:Sans;-inkscape-font-specification:Sans"
       xml:space="preserve"><tspan
         sodipodi:role="line"
         id="tspan4830"
         x="220.23306"
         y="-792.95343">0.09 in diameter</tspan></text>
<path
       style="fill:none;stroke:#000000;stroke-width:1px;stroke-linecap:butt;stroke-linejoin:miter;stroke-opacity:1"
       d="m 223.80826,135.57203 81.65784,0"
       id="path4836"
       inkscape:connector-curvature="0"
       transform="matrix(0.8,0,0,-0.8,0,864)" /><path
       style="fill:none;stroke:#000000;stroke-width:1px;stroke-linecap:butt;stroke-linejoin:miter;stroke-opacity:1"
       d="m 223.95127,191.63135 81.51483,0"
       id="path4838"
       inkscape:connector-curvature="0"
       transform="matrix(0.8,0,0,-0.8,0,864)" /><text
       transform="scale(1,-1)"
       sodipodi:linespacing="125%"
       id="text4844"
       y="-729.4577"
       x="229.84323"
       style="font-size:32px;font-style:normal;font-weight:normal;line-height:125%;letter-spacing:0px;word-spacing:0px;fill:#000000;fill-opacity:1;stroke:none;font-family:Sans"
       xml:space="preserve"><tspan
         style="font-size:9.60000038px"
         y="-729.4577"
         x="229.84323"
         id="tspan4846"
         sodipodi:role="line">0.63 in</tspan></text>
<path
       style="fill:none;stroke:#000000;stroke-width:1px;stroke-linecap:butt;stroke-linejoin:miter;stroke-opacity:1;marker-end:url(#Arrow2Mend)"
       d="m 305.4661,155.73623 0,-20.1642"
       id="path4848"
       inkscape:connector-curvature="0"
       transform="matrix(0.8,0,0,-0.8,0,864)" /><path
       style="fill:none;stroke:#000000;stroke-width:1px;stroke-linecap:butt;stroke-linejoin:miter;stroke-opacity:1;marker-end:url(#Arrow2Mend)"
       d="m 305.4661,174.18432 0,17.44703"
       id="path4850"
       inkscape:connector-curvature="0"
       transform="matrix(0.8,0,0,-0.8,0,864)" /></g></svg>