  0
SECTION
  2
HEADER
  9
$ACADVER
  1
AC1015
  9
$ACADMAINTVER
 70
     6
  9
$DWGCODEPAGE
  3
ANSI_1252
  9
$INSBASE
 10
0.0
 20
0.0
 30
0.0
  9
$EXTMIN
 10
0.0
 20
0.0
 30
0.0
  9
$EXTMAX
 10
279.4
 20
215.9
 30
0.0
  9
$LIMMIN
 10
0.0
 20
0.0
  9
$LIMMAX
 10
279.4
 20
215.9
  9
$ORTHOMODE
 70
     0
  9
$REGENMODE
 70
     1
  9
$FILLMODE
 70
     1
  9
$QTEXTMODE
 70
     0
  9
$MIRRTEXT
 70
     1
  9
$LTSCALE
 40
1.0
  9
$ATTMODE
 70
     1
  9
$TEXTSIZE
 40
3.175
  9
$TRACEWID
 40
1.0
  9
$TEXTSTYLE
  7
Standard
  9
$CLAYER
  8
0
  9
$CELTYPE
  6
ByLayer
  9
$CECOLOR
 62
   256
  9
$CELTSCALE
 40
1.0
  9
$DISPSILH
 70
     0
  9
$DIMSCALE
 40
1.0
  9
$DIMASZ
 40
3.302
  9
$DIMEXO
 40
1.27
  9
$DIMDLI
 40
3.75
  9
$DIMRND
 40
0.0
  9
$DIMDLE
 40
0.0
  9
$DIMEXE
 40
3.175
  9
$DIMTP
 40
0.0
  9
$DIMTM
 40
0.0
  9
$DIMTXT
 40
3.175
  9
$DIMCEN
 40
2.5
  9
$DIMTSZ
 40
0.0
  9
$DIMTOL
 70
     0
  9
$DIMLIM
 70
     0
  9
$DIMTIH
 70
     1
  9
$DIMTOH
 70
     1
  9
$DIMSE1
 70
     0
  9
$DIMSE2
 70
     0
  9
$DIMTAD
 70
     1
  9
$DIMZIN
 70
     0
  9
$DIMBLK
  1

  9
$DIMASO
 70
     1
  9
$DIMSHO
 70
     1
  9
$DIMPOST
  1

  9
$DIMAPOST
  1

  9
$DIMALT
 70
     0
  9
$DIMALTD
 70
     3
  9
$DIMALTF
 40
0.0393700787
  9
$DIMLFAC
 40
0.2
  9
$DIMTOFL
 70
     1
  9
$DIMTVP
 40
0.0
  9
$DIMTIX
 70
     0
  9
$DIMSOXD
 70
     0
  9
$DIMSAH
 70
     0
  9
$DIMBLK1
  1

  9
$DIMBLK2
  1

  9
$DIMSTYLE
  2
ISO-25
  9
$DIMCLRD
 70
     0
  9
$DIMCLRE
 70
     0
  9
$DIMCLRT
 70
     0
  9
$DIMTFAC
 40
1.0
  9
$DIMGAP
 40
1.524
  9
$DIMJUST
 70
     0
  9
$DIMSD1
 70
     0
  9
$DIMSD2
 70
     0
  9
$DIMTOLJ
 70
     0
  9
$DIMTZIN
 70
     0
  9
$DIMALTZ
 70
     0
  9
$DIMALTTZ
 70
     0
  9
$DIMUPT
 70
     0
  9
$DIMDEC
 70
     2
  9
$DIMTDEC
 70
     2
  9
$DIMALTU
 70
     2
  9
$DIMALTTD
 70
     3
  9
$DIMTXSTY
  7
Standard
  9
$DIMAUNIT
 70
     0
  9
$DIMADEC
 70
     0
  9
$DIMALTRND
 40
0.0
  9
$DIMAZIN
 70
     0
  9
$DIMDSEP
 70
    44
  9
$DIMATFIT
 70
     3
  9
$DIMFRAC
 70
     0
  9
$DIMLDRBLK
  1

  9
$DIMLUNIT
 70
     2
  9
$DIMLWD
 70
    -2
  9
$DIMLWE
 70
    -2
  9
$DIMTMOVE
 70
     0
  9
$LUNITS
 70
     2
  9
$LUPREC
 70
     2
  9
$SKETCHINC
 40
1.0
  9
$FILLETRAD
 40
10.0
  9
$AUNITS
 70
     0
  9
$AUPREC
 70
     0
  9
$MENU
  1
.
  9
$ELEVATION
 40
0.0
  9
$PELEVATION
 40
0.0
  9
$THICKNESS
 40
0.0
  9
$LIMCHECK
 70
     0
  9
$CHAMFERA
 40
10.0
  9
$CHAMFERB
 40
10.0
  9
$CHAMFERC
 40
20.0
  9
$CHAMFERD
 40
0.0
  9
$SKPOLY
 70
     0
  9
$TDCREATE
 40
2455356.599300255
  9
$TDUCREATE
 40
2455356.765966921
  9
$TDUPDATE
 40
2455356.599300266
  9
$TDUUPDATE
 40
2455356.765966933
  9
$TDINDWG
 40
0.0000000116
  9
$TDUSRTIMER
 40
0.0000000116
  9
$USRTIMER
 70
     1
  9
$ANGBASE
 50
0.0
  9
$ANGDIR
 70
     0
  9
$PDMODE
 70
     0
  9
$PDSIZE
 40
-1.0
  9
$PLINEWID
 40
0.0
  9
$SPLFRAME
 70
     0
  9
$SPLINETYPE
 70
     6
  9
$SPLINESEGS
 70
     8
  9
$HANDSEED
  5
159
  9
$SURFTAB1
 70
     6
  9
$SURFTAB2
 70
     6
  9
$SURFTYPE
 70
     6
  9
$SURFU
 70
     6
  9
$SURFV
 70
     6
  9
$UCSBASE
  2

  9
$UCSNAME
  2

  9
$UCSORG
 10
0.0
 20
0.0
 30
0.0
  9
$UCSXDIR
 10
1.0
 20
0.0
 30
0.0
  9
$UCSYDIR
 10
0.0
 20
1.0
 30
0.0
  9
$UCSORTHOREF
  2

  9
$UCSORTHOVIEW
 70
     0
  9
$UCSORGTOP
 10
0.0
 20
0.0
 30
0.0
  9
$UCSORGBOTTOM
 10
0.0
 20
0.0
 30
0.0
  9
$UCSORGLEFT
 10
0.0
 20
0.0
 30
0.0
  9
$UCSORGRIGHT
 10
0.0
 20
0.0
 30
0.0
  9
$UCSORGFRONT
 10
0.0
 20
0.0
 30
0.0
  9
$UCSORGBACK
 10
0.0
 20
0.0
 30
0.0
  9
$PUCSBASE
  2

  9
$PUCSNAME
  2

  9
$PUCSORG
 10
0.0
 20
0.0
 30
0.0
  9
$PUCSXDIR
 10
1.0
 20
0.0
 30
0.0
  9
$PUCSYDIR
 10
0.0
 20
1.0
 30
0.0
  9
$PUCSORTHOREF
  2

  9
$PUCSORTHOVIEW
 70
     0
  9
$PUCSORGTOP
 10
0.0
 20
0.0
 30
0.0
  9
$PUCSORGBOTTOM
 10
0.0
 20
0.0
 30
0.0
  9
$PUCSORGLEFT
 10
0.0
 20
0.0
 30
0.0
  9
$PUCSORGRIGHT
 10
0.0
 20
0.0
 30
0.0
  9
$PUCSORGFRONT
 10
0.0
 20
0.0
 30
0.0
  9
$PUCSORGBACK
 10
0.0
 20
0.0
 30
0.0
  9
$USERI1
 70
     0
  9
$USERI2
 70
     0
  9
$USERI3
 70
     0
  9
$USERI4
 70
     0
  9
$USERI5
 70
     0
  9
$USERR1
 40
0.0
  9
$USERR2
 40
0.0
  9
$USERR3
 40
0.0
  9
$USERR4
 40
0.0
  9
$USERR5
 40
0.0
  9
$WORLDVIEW
 70
     1
  9
$SHADEDGE
 70
     3
  9
$SHADEDIF
 70
    70
  9
$TILEMODE
 70
     1
  9
$MAXACTVP
 70
    64
  9
$PINSBASE
 10
0.0
 20
0.0
 30
0.0
  9
$PLIMCHECK
 70
     0
  9
$PEXTMIN
 10
1.0000000000E+20
 20
1.0000000000E+20
 30
1.0000000000E+20
  9
$PEXTMAX
 10
-1.0000000000E+20
 20
-1.0000000000E+20
 30
-1.0000000000E+20
  9
$PLIMMIN
 10
0.0
 20
0.0
  9
$PLIMMAX
 10
420.0
 20
297.0
  9
$UNITMODE
 70
     0
  9
$VISRETAIN
 70
     1
  9
$PLINEGEN
 70
     0
  9
$PSLTSCALE
 70
     1
  9
$TREEDEPTH
 70
  3020
  9
$CMLSTYLE
  2
Standard
  9
$CMLJUST
 70
     0
  9
$CMLSCALE
 40
20.0
  9
$PROXYGRAPHICS
 70
     1
  9
$MEASUREMENT
 70
     1
  9
$CELWEIGHT
370
    -1
  9
$ENDCAPS
280
     0
  9
$JOINSTYLE
280
     0
  9
$LWDISPLAY
290
     1
  9
$INSUNITS
 70
     4
  9
$HYPERLINKBASE
  1

  9
$STYLESHEET
  1

  9
$XEDIT
290
     1
  9
$CEPSNTYPE
380
     0
  9
$PSTYLEMODE
290
     1
  9
$FINGERPRINTGUID
  2
{45032BC3-44C3-4DD0-9842-F10E647A3804}
  9
$VERSIONGUID
  2
{FAEB1C32-E019-11D5-929B-00C0DF256EC4}
  9
$EXTNAMES
290
     1
  9
$PSVPSCALE
 40
0.0
  9
$OLESTARTUP
290
     0
  0
ENDSEC
  0
SECTION
  2
CLASSES
  0
CLASS
  1
ACDBDICTIONARYWDFLT
  2
AcDbDictionaryWithDefault
  3
ObjectDBX Classes
 90
        0
280
     0
281
     0
  0
CLASS
  1
VISUALSTYLE
  2
AcDbVisualStyle
  3
ObjectDBX Classes
 90
     4095
280
     0
281
     0
  0
CLASS
  1
DICTIONARYVAR
  2
AcDbDictionaryVar
  3
ObjectDBX Classes
 90
        0
280
     0
281
     0
  0
CLASS
  1
ACDBPLACEHOLDER
  2
AcDbPlaceHolder
  3
ObjectDBX Classes
 90
        0
280
     0
281
     0
  0
CLASS
  1
LAYOUT
  2
AcDbLayout
  3
ObjectDBX Classes
 90
        0
280
     0
281
     0
  0
ENDSEC
  0
SECTION
  2
TABLES
  0
TABLE
  2
VPORT
  5
8
330
0
100
AcDbSymbolTable
 70
     1
  0
VPORT
  5
29
330
8
100
AcDbSymbolTableRecord
100
AcDbViewportTableRecord
  2
*Active
 70
     0
 10
0.0
 20
0.0
 11
1.0
 21
1.0
 12
139.7
 22
107.95
 13
0.0
 23
0.0
 14
10.0
 24
10.0
 15
10.0
 25
10.0
 16
0.0
 26
0.0
 36
1.0
 17
0.0
 27
0.0
 37
0.0
 40
215.9
 41
1.2941176471
 42
50.0
 43
0.0
 44
0.0
 50
0.0
 51
0.0
 71
     0
 72
  2000
 73
     1
 74
     3
 75
     0
 76
     0
 77
     0
 78
     0
281
     0
 65
     1
110
0.0
120
0.0
130
0.0
111
1.0
121
0.0
131
0.0
112
0.0
122
1.0
132
0.0
 79
     0
146
0.0
  0
ENDTAB
  0
TABLE
  2
LTYPE
  5
5
330
0
100
AcDbSymbolTable
 70
     6
  0
LTYPE
  5
14
330
5
100
AcDbSymbolTableRecord
100
AcDbLinetypeTableRecord
  2
ByBlock
 70
     0
  3

 72
    65
 73
     0
 40
0.0
  0
LTYPE
  5
15
330
5
100
AcDbSymbolTableRecord
100
AcDbLinetypeTableRecord
  2
ByLayer
 70
     0
  3

 72
    65
 73
     0
 40
0.0
  0
LTYPE
  5
16
330
5
100
AcDbSymbolTableRecord
100
AcDbLinetypeTableRecord
  2
Continuous
 70
     0
  3
Solid line
 72
    65
 73
     0
 40
0.0
  0
LTYPE
  5
3B
330
5
100
AcDbSymbolTableRecord
100
AcDbLinetypeTableRecord
  2
HIDDEN
 70
     0
  3
Hidden __ __ __ __ __ __ __ __ __ __ __ __ __ __
 72
    65
 73
     2
 40
1.905
 49
1.27
 74
     0
 49
-0.635
 74
     0
  0
LTYPE
  5
3C
330
5
100
AcDbSymbolTableRecord
100
AcDbLinetypeTableRecord
  2
PHANTOM
 70
     0
  3
Phantom ______  __  __  ______  __  __  ______
 72
    65
 73
     6
 40
12.7
 49
6.35
 74
     0
 49
-1.27
 74
     0
 49
1.27
 74
     0
 49
-1.27
 74
     0
 49
1.27
 74
     0
 49
-1.27
 74
     0
  0
LTYPE
  5
3D
330
5
100
AcDbSymbolTableRecord
100
AcDbLinetypeTableRecord
  2
CENTER
 70
     0
  3
Center ____ _ ____ _ ____ _ ____ _ ____ _ ____
 72
    65
 73
     4
 40
10.16
 49
6.35
 74
     0
 49
-1.27
 74
     0
 49
1.27
 74
     0
 49
-1.27
 74
     0
  0
LTYPE
  5
3E
330
5
100
AcDbSymbolTableRecord
100
AcDbLinetypeTableRecord
  2
CENTERX2
 70
     0
  3
Center (2x) ________  __  ________  __  _____
 72
    65
 73
     4
 40
20.32
 49
12.7
 74
     0
 49
-2.54
 74
     0
 49
2.54
 74
     0
 49
-2.54
 74
     0
  0
LTYPE
  5
3F
330
5
100
AcDbSymbolTableRecord
100
AcDbLinetypeTableRecord
  2
DOT2
 70
     0
  3
Dot (.5x) ........................................
 72
    65
 73
     2
 40
0.635
 49
0.0
 74
     0
 49
-0.635
 74
     0
  0
ENDTAB
  0
TABLE
  2
LAYER
  5
2
330
0
100
AcDbSymbolTable
 70
     2
  0
LAYER
  5
10
330
2
100
AcDbSymbolTableRecord
100
AcDbLayerTableRecord
  2
0
 70
     0
 62
     7
  6
Continuous
370
    -3
390
F
  0
LAYER
  5
40
330
2
100
AcDbSymbolTableRecord
100
AcDbLayerTableRecord
  2
FORMAT
 70
     0
 62
     7
  6
Continuous
370
    -3
390
F
  0
ENDTAB
  0
TABLE
  2
STYLE
  5
3
330
0
100
AcDbSymbolTable
 70
     1
  0
STYLE
  5
11
330
3
100
AcDbSymbolTableRecord
100
AcDbTextStyleTableRecord
  2
Standard
 70
     0
 40
0.0
 41
1.0
 50
0.0
 71
     0
 42
2.5
  3
txt
  4

  0
ENDTAB
  0
TABLE
  2
VIEW
  5
6
330
0
100
AcDbSymbolTable
 70
     0
  0
ENDTAB
  0
TABLE
  2
UCS
  5
7
330
0
100
AcDbSymbolTable
 70
     0
  0
ENDTAB
  0
TABLE
  2
APPID
  5
9
330
0
100
AcDbSymbolTable
 70
     1
  0
APPID
  5
12
330
9
100
AcDbSymbolTableRecord
100
AcDbRegAppTableRecord
  2
ACAD
 70
     0
  0
ENDTAB
  0
TABLE
  2
DIMSTYLE
  5
A
330
0
100
AcDbSymbolTable
 70
     1
100
AcDbDimStyleTable
  0
DIMSTYLE
105
27
330
A
100
AcDbSymbolTableRecord
100
AcDbDimStyleTableRecord
  2
ISO-25
 70
     0
 41
2.5
 42
0.625
 43
3.75
 44
1.25
 73
     0
 74
     0
 77
     1
 78
     8
140
2.5
141
2.5
143
0.0393700787
147
0.625
171
     3
172
     1
271
     2
272
     2
274
     3
278
    44
283
     0
284
     8
340
11
  0
ENDTAB
  0
TABLE
  2
BLOCK_RECORD
  5
1
330
0
100
AcDbSymbolTable
 70
     1
  0
BLOCK_RECORD
  5
1F
330
1
100
AcDbSymbolTableRecord
100
AcDbBlockTableRecord
  2
*Model_Space
340
22
  0
BLOCK_RECORD
  5
1B
330
1
100
AcDbSymbolTableRecord
100
AcDbBlockTableRecord
  2
*Paper_Space
340
1E
  0
BLOCK_RECORD
  5
23
330
1
100
AcDbSymbolTableRecord
100
AcDbBlockTableRecord
  2
*Paper_Space0
340
26
  0
ENDTAB
  0
ENDSEC
  0
SECTION
  2
BLOCKS
  0
BLOCK
  5
20
330
1F
100
AcDbEntity
  8
0
100
AcDbBlockBegin
  2
*Model_Space
 70
     0
 10
0.0
 20
0.0
 30
0.0
  3
*Model_Space
  1

  0
ENDBLK
  5
21
330
1F
100
AcDbEntity
  8
0
100
AcDbBlockEnd
  0
BLOCK
  5
1C
330
1B
100
AcDbEntity
 67
     1
  8
0
100
AcDbBlockBegin
  2
*Paper_Space
 70
     0
 10
0.0
 20
0.0
 30
0.0
  3
*Paper_Space
  1

  0
ENDBLK
  5
1D
330
1B
100
AcDbEntity
 67
     1
  8
0
100
AcDbBlockEnd
  0
BLOCK
  5
24
330
23
100
AcDbEntity
  8
0
100
AcDbBlockBegin
  2
*Paper_Space0
 70
     0
 10
0.0
 20
0.0
 30
0.0
  3
*Paper_Space0
  1

  0
ENDBLK
  5
25
330
23
100
AcDbEntity
  8
0
100
AcDbBlockEnd
  0
ENDSEC
  0
SECTION
  2
ENTITIES
  0
ARC
  5
41
330
1F
100
AcDbEntity
  8
0
  6
Continuous
 62
     7
370
    15
100
AcDbCircle
 10
154.6115127111
 20
42.1217410714
 30
0.0
 40
5.000000000000028
100
AcDbArc
 50
270.0
 51
0.0
  0
ARC
  5
42
330
1F
100
AcDbEntity
  8
0
  6
Continuous
 62
     7
370
    15
100
AcDbCircle
 10
152.8615127111
 20
43.8717410714
 30
0.0
 40
5.000000000000028
100
AcDbArc
 50
270.0
 51
0.0
  0
LINE
  5
43
330
1F
100
AcDbEntity
  8
0
  6
Continuous
 62
     7
370
    15
100
AcDbLine
 10
157.8615127111
 20
68.8717410714
 30
0.0
 11
157.8615127111
 21
43.8717410714
 31
0.0
  0
ARC
  5
44
330
1F
100
AcDbEntity
  8
0
  6
Continuous
 62
     7
370
    15
100
AcDbCircle
 10
152.8615127111
 20
68.8717410714
 30
0.0
 40
5.000000000000028
100
AcDbArc
 50
0.0
 51
90.0
  0
LINE
  5
45
330
1F
100
AcDbEntity
  8
0
  6
Continuous
 62
     7
370
    15
100
AcDbLine
 10
112.8615127111
 20
73.8717410714
 30
0.0
 11
152.8615127111
 21
73.8717410714
 31
0.0
  0
ARC
  5
46
330
1F
100
AcDbEntity
  8
0
  6
Continuous
 62
     7
370
    15
100
AcDbCircle
 10
154.6115127111
 20
70.6217410714
 30
0.0
 40
5.000000000000028
100
AcDbArc
 50
0.0
 51
90.0
  0
LINE
  5
47
330
1F
100
AcDbEntity
  8
0
  6
Continuous
 62
     7
370
    15
100
AcDbLine
 10
159.6115127111
 20
42.1217410714
 30
0.0
 11
159.6115127111
 21
70.6217410714
 31
0.0
  0
LINE
  5
48
330
1F
100
AcDbEntity
  8
0
  6
Continuous
 62
     7
370
    15
100
AcDbLine
 10
152.8615127111
 20
38.8717410714
 30
0.0
 11
112.8615127111
 21
38.8717410714
 31
0.0
  0
LINE
  5
49
330
1F
100
AcDbEntity
  8
0
  6
Continuous
 62
     7
370
    15
100
AcDbLine
 10
112.8615127111
 20
37.1217410714
 30
0.0
 11
154.6115127111
 21
37.1217410714
 31
0.0
  0
LINE
  5
4A
330
1F
100
AcDbEntity
  8
0
  6
Continuous
 62
     7
370
    15
100
AcDbLine
 10
112.8615127111
 20
38.8717410714
 30
0.0
 11
112.8615127111
 21
37.1217410714
 31
0.0
  0
LINE
  5
4B
330
1F
100
AcDbEntity
  8
0
  6
Continuous
 62
     7
370
    15
100
AcDbLine
 10
112.8615127111
 20
75.6217410714
 30
0.0
 11
112.8615127111
 21
73.8717410714
 31
0.0
  0
LINE
  5
4C
330
1F
100
AcDbEntity
  8
0
  6
Continuous
 62
     7
370
    15
100
AcDbLine
 10
154.6115127111
 20
75.6217410714
 30
0.0
 11
112.8615127111
 21
75.6217410714
 31
0.0
  0
ARC
  5
4D
330
1F
100
AcDbEntity
  8
0
  6
Continuous
 62
     7
370
    15
100
AcDbCircle
 10
114.1115127111
 20
30.1217410714
 30
0.0
 40
5.000000000000014
100
AcDbArc
 50
0.0
 51
90.0
  0
LINE
  5
4E
330
1F
100
AcDbEntity
  8
0
  6
Continuous
 62
     7
370
    15
100
AcDbLine
 10
112.8615127111
 20
35.1217410714
 30
0.0
 11
114.1115127111
 21
35.1217410714
 31
0.0
  0
LINE
  5
4F
330
1F
100
AcDbEntity
  8
0
  6
Continuous
 62
     7
370
    15
100
AcDbLine
 10
156.6115127111
 20
77.6217410714
 30
0.0
 11
112.8615127111
 21
77.6217410714
 31
0.0
  0
ARC
  5
50
330
1F
100
AcDbEntity
  8
0
  6
Continuous
 62
     7
370
    15
100
AcDbCircle
 10
156.6115127111
 20
72.6217410714
 30
0.0
 40
5.0
100
AcDbArc
 50
0.0
 51
90.0
  0
LINE
  5
51
330
1F
100
AcDbEntity
  8
0
  6
Continuous
 62
     7
370
    15
100
AcDbLine
 10
161.6115127111
 20
40.1217410714
 30
0.0
 11
161.6115127111
 21
72.6217410714
 31
0.0
  0
ARC
  5
52
330
1F
100
AcDbEntity
  8
0
  6
Continuous
 62
     7
370
    15
100
AcDbCircle
 10
156.6115127111
 20
40.1217410714
 30
0.0
 40
5.000000000000007
100
AcDbArc
 50
270.0
 51
0.0
  0
LINE
  5
53
330
1F
100
AcDbEntity
  8
0
  6
Continuous
 62
     7
370
    15
100
AcDbLine
 10
144.1115127111
 20
35.1217410714
 30
0.0
 11
156.6115127111
 21
35.1217410714
 31
0.0
  0
ARC
  5
54
330
1F
100
AcDbEntity
  8
0
  6
Continuous
 62
     7
370
    15
100
AcDbCircle
 10
144.1115127111
 20
30.1217410714
 30
0.0
 40
5.0
100
AcDbArc
 50
90.0
 51
180.0
  0
LINE
  5
55
330
1F
100
AcDbEntity
  8
0
  6
Continuous
 62
     7
370
    15
100
AcDbLine
 10
139.1115127111
 20
21.3717410714
 30
0.0
 11
139.1115127111
 21
30.1217410714
 31
0.0
  0
ARC
  5
56
330
1F
100
AcDbEntity
  8
0
  6
Continuous
 62
     7
370
    15
100
AcDbCircle
 10
134.1115127111
 20
21.3717410714
 30
0.0
 40
4.999999999999996
100
AcDbArc
 50
270.0
 51
0.0
  0
LINE
  5
57
330
1F
100
AcDbEntity
  8
0
  6
Continuous
 62
     7
370
    15
100
AcDbLine
 10
134.1115127111
 20
16.3717410714
 30
0.0
 11
124.1115127111
 21
16.3717410714
 31
0.0
  0
ARC
  5
58
330
1F
100
AcDbEntity
  8
0
  6
Continuous
 62
     7
370
    15
100
AcDbCircle
 10
124.1115127111
 20
21.3717410714
 30
0.0
 40
5.0
100
AcDbArc
 50
180.0
 51
270.0
  0
LINE
  5
59
330
1F
100
AcDbEntity
  8
0
  6
Continuous
 62
     7
370
    15
100
AcDbLine
 10
119.1115127111
 20
21.3717410714
 30
0.0
 11
119.1115127111
 21
30.1217410714
 31
0.0
  0
CIRCLE
  5
5A
330
1F
100
AcDbEntity
  8
0
  6
Continuous
 62
     7
370
    15
100
AcDbCircle
 10
129.1115127111
 20
26.3717410714
 30
0.0
 40
2.978149999999946
  0
LINE
  5
5B
330
1F
100
AcDbEntity
  8
0
  6
Continuous
 62
     7
370
    15
100
AcDbLine
 10
112.8615127111
 20
35.1217410714
 30
0.0
 11
112.8615127111
 21
37.1217410714
 31
0.0
  0
LINE
  5
5C
330
1F
100
AcDbEntity
  8
0
  6
Continuous
 62
     7
370
    15
100
AcDbLine
 10
112.8615127111
 20
75.6217410714
 30
0.0
 11
112.8615127111
 21
77.6217410714
 31
0.0
  0
ARC
  5
5D
330
1F
100
AcDbEntity
  8
0
  6
Continuous
 62
     7
370
    15
100
AcDbCircle
 10
117.8615127111
 20
68.8717410714
 30
0.0
 40
5.000000000000014
100
AcDbArc
 50
90.0
 51
180.0
  0
LINE
  5
5E
330
1F
100
AcDbEntity
  8
0
  6
Continuous
 62
     7
370
    15
100
AcDbLine
 10
112.8615127111
 20
43.8717410714
 30
0.0
 11
112.8615127111
 21
68.8717410714
 31
0.0
  0
ARC
  5
5F
330
1F
100
AcDbEntity
  8
0
  6
Continuous
 62
     7
370
    15
100
AcDbCircle
 10
117.8615127111
 20
43.8717410714
 30
0.0
 40
5.000000000000014
100
AcDbArc
 50
180.0
 51
270.0
  0
ARC
  5
60
330
1F
100
AcDbEntity
  8
0
  6
Continuous
 62
     7
370
    15
100
AcDbCircle
 10
110.3615127111
 20
40.1217410714
 30
0.0
 40
5.000000000000007
100
AcDbArc
 50
180.0
 51
270.0
  0
LINE
  5
61
330
1F
100
AcDbEntity
  8
0
  6
Continuous
 62
     7
370
    15
100
AcDbLine
 10
105.3615127111
 20
72.6217410714
 30
0.0
 11
105.3615127111
 21
40.1217410714
 31
0.0
  0
ARC
  5
62
330
1F
100
AcDbEntity
  8
0
  6
Continuous
 62
     7
370
    15
100
AcDbCircle
 10
110.3615127111
 20
72.6217410714
 30
0.0
 40
5.0
100
AcDbArc
 50
90.0
 51
180.0
  0
LINE
  5
63
330
1F
100
AcDbEntity
  8
0
  6
Continuous
 62
     7
370
    15
100
AcDbLine
 10
110.3615127111
 20
35.1217410714
 30
0.0
 11
112.8615127111
 21
35.1217410714
 31
0.0
  0
LINE
  5
64
330
1F
100
AcDbEntity
  8
0
  6
Continuous
 62
     7
370
    15
100
AcDbLine
 10
112.8615127111
 20
77.6217410714
 30
0.0
 11
110.3615127111
 21
77.6217410714
 31
0.0
  0
SPLINE
  5
65
330
1F
100
AcDbEntity
  8
0
  6
Continuous
 62
     7
370
    15
100
AcDbSpline
210
0.0
220
0.0
230
1.0
 70
     8
 71
     3
 72
    12
 73
     8
 74
     0
 42
0.00000001
 43
0.00000001
 40
0.0
 40
0.0
 40
0.0
 40
0.0
 40
0.2499999999999997
 40
0.2499999999999997
 40
0.4999999999999994
 40
0.4999999999999994
 40
1.0
 40
1.0
 40
1.0
 40
1.0
 10
230.9355580837814
 20
35.1217410714286
 30
0.0
 10
230.8068538778881
 20
35.12174107142859
 30
0.0
 10
230.675113446537
 20
35.24910090005123
 30
0.0
 10
230.4183421188388
 20
35.74343191374975
 30
0.0
 10
230.2956685450186
 20
36.10860501950253
 30
0.0
 10
229.9791397659844
 20
37.48367236076884
 30
0.0
 10
229.8423799831617
 20
38.78515654740713
 30
0.0
 10
229.8423799831617
 20
40.12174107142861
 30
0.0
  0
SPLINE
  5
66
330
1F
100
AcDbEntity
  8
0
  6
Continuous
 62
     7
370
    15
100
AcDbSpline
210
0.0
220
0.0
230
1.0
 70
     8
 71
     3
 72
    14
 73
    10
 74
     0
 42
0.00000001
 43
0.00000001
 40
0.0
 40
0.0
 40
0.0
 40
0.0
 40
0.25
 40
0.25
 40
0.5
 40
0.5
 40
0.75
 40
0.75
 40
1.0
 40
1.0
 40
1.0
 40
1.0
 10
232.3207144321429
 20
30.12174107142861
 30
0.0
 10
232.3207144321429
 20
30.78552723136867
 30
0.0
 10
232.3050451921263
 20
31.43708741625111
 30
0.0
 10
232.2423843424227
 20
32.65106251943111
 30
0.0
 10
232.1952541160716
 20
33.20642535113708
 30
0.0
 10
232.072016679442
 20
34.12654354436889
 30
0.0
 10
231.9947702880411
 20
34.49675343605566
 30
0.0
 10
231.8183554716369
 20
34.99127144391998
 30
0.0
 10
231.717515743601
 20
35.12174107142859
 30
0.0
 10
231.6103718476383
 20
35.1217410714286
 30
0.0
  0
LINE
  5
67
330
1F
100
AcDbEntity
  8
0
  6
Continuous
 62
     7
370
    15
100
AcDbLine
 10
232.3207144321
 20
21.3717410714
 30
0.0
 11
232.3207144321
 21
30.1217410714
 31
0.0
  0
SPLINE
  5
68
330
1F
100
AcDbEntity
  8
0
  6
Continuous
 62
     7
370
    15
100
AcDbSpline
210
0.0
220
0.0
230
1.0
 70
     8
 71
     3
 72
    12
 73
     8
 74
     0
 42
0.00000001
 43
0.00000001
 40
0.0
 40
0.0
 40
0.0
 40
0.0
 40
0.2500000000000003
 40
0.2500000000000003
 40
0.5000000000000006
 40
0.5000000000000006
 40
1.0
 40
1.0
 40
1.0
 40
1.0
 10
232.8180568130141
 20
16.37174107142861
 30
0.0
 10
232.7663513871023
 20
16.37174107142859
 30
0.0
 10
232.7100224480929
 20
16.50133372035513
 30
0.0
 10
232.5957880593626
 20
17.00152740940572
 30
0.0
 10
232.5387020835545
 20
17.37145663649964
 30
0.0
 10
232.388952736914
 20
18.75223032077269
 30
0.0
 10
232.3207144321429
 20
20.04793068876397
 30
0.0
 10
232.3207144321429
 20
21.3717410714286
 30
0.0
  0
SPLINE
  5
69
330
1F
100
AcDbEntity
  8
0
  6
Continuous
 62
     7
370
    15
100
AcDbSpline
210
0.0
220
0.0
230
1.0
 70
     8
 71
     3
 72
    14
 73
    10
 74
     0
 42
0.00000001
 43
0.00000001
 40
0.0
 40
0.0
 40
0.0
 40
0.0
 40
0.25
 40
0.25
 40
0.5
 40
0.5
 40
0.75
 40
0.75
 40
1.0
 40
1.0
 40
1.0
 40
1.0
 10
229.8423799831617
 20
72.6217410714286
 30
0.0
 10
229.8423799831617
 20
73.28974623811105
 30
0.0
 10
229.8747973748105
 20
73.94553302237512
 30
0.0
 10
229.9957989346313
 20
75.16146176445513
 30
0.0
 10
230.0843560914603
 20
75.71632271003962
 30
0.0
 10
230.2948828189694
 20
76.63202969453984
 30
0.0
 10
230.4184396838964
 20
76.99967191255422
 30
0.0
 10
230.673306691017
 20
77.49146527653271
 30
0.0
 10
230.806908120013
 20
77.6217410714286
 30
0.0
 10
230.9355580837814
 20
77.6217410714286
 30
0.0
  0
LINE
  5
6A
330
1F
100
AcDbEntity
  8
0
  6
Continuous
 62
     7
370
    15
100
AcDbLine
 10
229.8423799832
 20
72.6217410714
 30
0.0
 11
229.8423799832
 21
40.1217410714
 31
0.0
  0
LINE
  5
6B
330
1F
100
AcDbEntity
  8
0
  6
Continuous
 62
     7
370
    15
100
AcDbLine
 10
229.8423799832
 20
40.1217410714
 30
0.0
 11
234.8423799832
 21
40.1217410714
 31
0.0
  0
LINE
  5
6C
330
1F
100
AcDbEntity
  8
0
  6
Continuous
 62
     7
370
    15
100
AcDbLine
 10
234.8423799832
 20
72.6217410714
 30
0.0
 11
229.8423799832
 21
72.6217410714
 31
0.0
  0
LINE
  5
6D
330
1F
100
AcDbEntity
  8
0
  6
Continuous
 62
     7
370
    15
100
AcDbLine
 10
234.8423799832
 20
72.6217410714
 30
0.0
 11
234.8423799832
 21
40.1217410714
 31
0.0
  0
LINE
  5
6E
330
1F
100
AcDbEntity
  8
0
  6
Continuous
 62
     7
370
    15
100
AcDbLine
 10
230.9355580838
 20
77.6217410714
 30
0.0
 11
234.8423799832
 21
77.6217410714
 31
0.0
  0
LINE
  5
6F
330
1F
100
AcDbEntity
  8
0
  6
Continuous
 62
     7
370
    15
100
AcDbLine
 10
234.8423799832
 20
77.6217410714
 30
0.0
 11
234.8423799832
 21
72.6217410714
 31
0.0
  0
LINE
  5
70
330
1F
100
AcDbEntity
  8
0
  6
Continuous
 62
     7
370
    15
100
AcDbLine
 10
234.8423799832
 20
35.1217410714
 30
0.0
 11
230.9355580838
 21
35.1217410714
 31
0.0
  0
LINE
  5
71
330
1F
100
AcDbEntity
  8
0
  6
Continuous
 62
     7
370
    15
100
AcDbLine
 10
234.8423799832
 20
40.1217410714
 30
0.0
 11
234.8423799832
 21
35.1217410714
 31
0.0
  0
LINE
  5
72
330
1F
100
AcDbEntity
  8
0
  6
Continuous
 62
     7
370
    15
100
AcDbLine
 10
234.8423799832
 20
38.8717410714
 30
0.0
 11
246.0923799832
 21
38.8717410714
 31
0.0
  0
LINE
  5
73
330
1F
100
AcDbEntity
  8
0
  6
Continuous
 62
     7
370
    15
100
AcDbLine
 10
246.0923799832
 20
38.8717410714
 30
0.0
 11
246.0923799832
 21
37.1217410714
 31
0.0
  0
LINE
  5
74
330
1F
100
AcDbEntity
  8
0
  6
Continuous
 62
     7
370
    15
100
AcDbLine
 10
246.0923799832
 20
37.1217410714
 30
0.0
 11
242.3423799832
 21
37.1217410714
 31
0.0
  0
LINE
  5
75
330
1F
100
AcDbEntity
  8
0
  6
Continuous
 62
     7
370
    15
100
AcDbLine
 10
242.3423799832
 20
35.1217410714
 30
0.0
 11
242.3423799832
 21
37.1217410714
 31
0.0
  0
LINE
  5
76
330
1F
100
AcDbEntity
  8
0
  6
Continuous
 62
     7
370
    15
100
AcDbLine
 10
234.8423799832
 20
35.1217410714
 30
0.0
 11
242.3423799832
 21
35.1217410714
 31
0.0
  0
LINE
  5
77
330
1F
100
AcDbEntity
  8
0
  6
Continuous
 62
     7
370
    15
100
AcDbLine
 10
242.3423799832
 20
75.6217410714
 30
0.0
 11
242.3423799832
 21
77.6217410714
 31
0.0
  0
LINE
  5
78
330
1F
100
AcDbEntity
  8
0
  6
Continuous
 62
     7
370
    15
100
AcDbLine
 10
246.0923799832
 20
75.6217410714
 30
0.0
 11
242.3423799832
 21
75.6217410714
 31
0.0
  0
LINE
  5
79
330
1F
100
AcDbEntity
  8
0
  6
Continuous
 62
     7
370
    15
100
AcDbLine
 10
246.0923799832
 20
75.6217410714
 30
0.0
 11
246.0923799832
 21
73.8717410714
 31
0.0
  0
LINE
  5
7A
330
1F
100
AcDbEntity
  8
0
  6
Continuous
 62
     7
370
    15
100
AcDbLine
 10
234.8423799832
 20
73.8717410714
 30
0.0
 11
246.0923799832
 21
73.8717410714
 31
0.0
  0
LINE
  5
7B
330
1F
100
AcDbEntity
  8
0
  6
Continuous
 62
     7
370
    15
100
AcDbLine
 10
234.8423799832
 20
77.6217410714
 30
0.0
 11
242.3423799832
 21
77.6217410714
 31
0.0
  0
LINE
  5
7C
330
1F
100
AcDbEntity
  8
0
  6
Continuous
 62
     7
370
    15
100
AcDbLine
 10
242.3423799832
 20
30.1217410714
 30
0.0
 11
232.3207144321
 21
30.1217410714
 31
0.0
  0
LINE
  5
7D
330
1F
100
AcDbEntity
  8
0
  6
Continuous
 62
     7
370
    15
100
AcDbLine
 10
242.3423799832
 20
35.1217410714
 30
0.0
 11
242.3423799832
 21
30.1217410714
 31
0.0
  0
LINE
  5
7E
330
1F
100
AcDbEntity
  8
0
  6
Continuous
 62
     7
370
    15
100
AcDbLine
 10
242.3423799832
 20
16.3717410714
 30
0.0
 11
232.818056813
 21
16.3717410714
 31
0.0
  0
LINE
  5
7F
330
1F
100
AcDbEntity
  8
0
  6
Continuous
 62
     7
370
    15
100
AcDbLine
 10
232.3207144321
 20
21.3717410714
 30
0.0
 11
242.3423799832
 21
21.3717410714
 31
0.0
  0
LINE
  5
80
330
1F
100
AcDbEntity
  8
0
  6
Continuous
 62
     7
370
    15
100
AcDbLine
 10
242.3423799832
 20
21.3717410714
 30
0.0
 11
242.3423799832
 21
16.3717410714
 31
0.0
  0
LINE
  5
81
330
1F
100
AcDbEntity
  8
0
  6
Continuous
 62
     7
370
    15
100
AcDbLine
 10
242.3423799832
 20
21.3717410714
 30
0.0
 11
242.3423799832
 21
30.1217410714
 31
0.0
  0
LINE
  5
82
330
1F
100
AcDbEntity
  8
0
  6
Continuous
 62
     7
370
    15
100
AcDbLine
 10
246.0923799832
 20
43.8717410714
 30
0.0
 11
246.0923799832
 21
38.8717410714
 31
0.0
  0
LINE
  5
83
330
1F
100
AcDbEntity
  8
0
  6
Continuous
 62
     7
370
    15
100
AcDbLine
 10
246.0923799832
 20
73.8717410714
 30
0.0
 11
246.0923799832
 21
68.8717410714
 31
0.0
  0
LINE
  5
84
330
1F
100
AcDbEntity
  8
0
  6
Continuous
 62
     7
370
    15
100
AcDbLine
 10
246.0923799832
 20
68.8717410714
 30
0.0
 11
246.0923799832
 21
43.8717410714
 31
0.0
  0
LINE
  5
85
330
1F
100
AcDbEntity
  8
0
  6
Continuous
 62
     7
370
    15
100
AcDbLine
 10
234.8423799832
 20
43.8717410714
 30
0.0
 11
246.0923799832
 21
43.8717410714
 31
0.0
  0
LINE
  5
86
330
1F
100
AcDbEntity
  8
0
  6
Continuous
 62
     7
370
    15
100
AcDbLine
 10
246.0923799832
 20
68.8717410714
 30
0.0
 11
234.8423799832
 21
68.8717410714
 31
0.0
  0
LINE
  5
87
330
1F
100
AcDbEntity
  8
0
  6
Continuous
 62
     7
370
    15
100
AcDbLine
 10
134.1115127111
 20
125.1811684011
 30
0.0
 11
134.1115127111
 21
134.3403477435
 31
0.0
  0
ARC
  5
88
330
1F
100
AcDbEntity
  8
0
  6
Continuous
 62
     7
370
    15
100
AcDbCircle
 10
133.4865127111
 20
5.1827960163
 30
0.0
 40
120.0
100
AcDbArc
 50
89.7015831325
 51
94.480798786
  0
LINE
  5
89
330
1F
100
AcDbEntity
  8
0
  6
Continuous
 62
     7
370
    15
100
AcDbLine
 10
124.1115127111
 20
134.3403477435
 30
0.0
 11
124.1115127111
 21
124.8160245734
 31
0.0
  0
LINE
  5
8A
330
1F
100
AcDbEntity
  8
0
  6
Continuous
 62
     7
370
    15
100
AcDbLine
 10
134.1115127111
 20
134.3403477435
 30
0.0
 11
124.1115127111
 21
134.3403477435
 31
0.0
  0
LINE
  5
8B
330
1F
100
AcDbEntity
  8
0
  6
Continuous
 62
     7
370
    15
100
AcDbLine
 10
119.1115127111
 20
124.3186821925
 30
0.0
 11
119.1115127111
 21
134.3403477435
 31
0.0
  0
SPLINE
  5
8C
330
1F
100
AcDbEntity
  8
0
  6
Continuous
 62
     7
370
    15
100
AcDbSpline
210
0.0
220
0.0
230
1.0
 70
     8
 71
     3
 72
    12
 73
     8
 74
     0
 42
0.00000001
 43
0.00000001
 40
0.0
 40
0.0
 40
0.0
 40
0.0
 40
0.2500000000000003
 40
0.2500000000000003
 40
0.5000000000000006
 40
0.5000000000000006
 40
1.0
 40
1.0
 40
1.0
 40
1.0
 10
124.111512711119
 20
124.8160245733941
 30
0.0
 10
123.4517060939725
 20
124.7643191474823
 30
0.0
 10
122.8049041764576
 20
124.7079902084729
 30
0.0
 10
121.5956974999977
 20
124.5937558197426
 30
0.0
 10
121.0419069930626
 20
124.5366698439344
 30
0.0
 10
119.6576174804435
 20
124.3869204972939
 30
0.0
 10
119.111512711119
 20
124.3186821925229
 30
0.0
 10
119.111512711119
 20
124.3186821925229
 30
0.0
  0
LINE
  5
8D
330
1F
100
AcDbEntity
  8
0
  6
Continuous
 62
     7
370
    15
100
AcDbLine
 10
119.1115127111
 20
134.3403477435
 30
0.0
 11
124.1115127111
 21
134.3403477435
 31
0.0
  0
LINE
  5
8E
330
1F
100
AcDbEntity
  8
0
  6
Continuous
 62
     7
370
    15
100
AcDbLine
 10
139.1115127111
 20
134.3403477435
 30
0.0
 11
139.1115127111
 21
125.0508875795
 31
0.0
  0
SPLINE
  5
8F
330
1F
100
AcDbEntity
  8
0
  6
Continuous
 62
     7
370
    15
100
AcDbSpline
210
0.0
220
0.0
230
1.0
 70
     8
 71
     3
 72
    12
 73
     8
 74
     0
 42
0.00000001
 43
0.00000001
 40
0.0
 40
0.0
 40
0.0
 40
0.0
 40
0.2499999999999994
 40
0.2499999999999994
 40
0.4999999999999989
 40
0.4999999999999989
 40
1.0
 40
1.0
 40
1.0
 40
1.0
 10
139.111512711119
 20
125.0508875794591
 30
0.0
 10
139.111512711119
 20
125.0508875794591
 30
0.0
 10
138.9815553825704
 20
125.0571781296026
 30
0.0
 10
138.4801145614344
 20
125.079113397476
 30
0.0
 10
138.1090584759147
 20
125.0946164125554
 30
0.0
 10
136.7266332612477
 20
125.1425893605897
 30
0.0
 10
135.4322568985563
 20
125.174289431791
 30
0.0
 10
134.111512711119
 20
125.1811684010699
 30
0.0
  0
LINE
  5
90
330
1F
100
AcDbEntity
  8
0
  6
Continuous
 62
     7
370
    15
100
AcDbLine
 10
134.1115127111
 20
134.3403477435
 30
0.0
 11
139.1115127111
 21
134.3403477435
 31
0.0
  0
LINE
  5
91
330
1F
100
AcDbEntity
  8
0
  6
Continuous
 62
     7
370
    15
100
AcDbLine
 10
144.1115127111
 20
134.3403477435
 30
0.0
 11
144.1115127111
 21
124.7114928844
 31
0.0
  0
SPLINE
  5
92
330
1F
100
AcDbEntity
  8
0
  6
Continuous
 62
     7
370
    15
100
AcDbSpline
210
0.0
220
0.0
230
1.0
 70
     8
 71
     3
 72
    12
 73
     8
 74
     0
 42
0.00000001
 43
0.00000001
 40
0.0
 40
0.0
 40
0.0
 40
0.0
 40
0.2500000000000001
 40
0.2500000000000001
 40
0.5000000000000001
 40
0.5000000000000001
 40
1.0
 40
1.0
 40
1.0
 40
1.0
 10
144.111512711119
 20
124.7114928844325
 30
0.0
 10
143.4530116009865
 20
124.7700275667179
 30
0.0
 10
142.8063267477696
 20
124.8218736496457
 30
0.0
 10
141.5965489294791
 20
124.9099656277644
 30
0.0
 10
141.0419263570539
 20
124.9456022000537
 30
0.0
 10
139.6564832711039
 20
125.0276438187037
 30
0.0
 10
139.111512711119
 20
125.0508875794591
 30
0.0
 10
139.111512711119
 20
125.0508875794591
 30
0.0
  0
LINE
  5
93
330
1F
100
AcDbEntity
  8
0
  6
Continuous
 62
     7
370
    15
100
AcDbLine
 10
139.1115127111
 20
134.3403477435
 30
0.0
 11
144.1115127111
 21
134.3403477435
 31
0.0
  0
LINE
  5
94
330
1F
100
AcDbEntity
  8
0
  6
Continuous
 62
     7
370
    15
100
AcDbLine
 10
114.1115127111
 20
123.608339608
 30
0.0
 11
114.1115127111
 21
134.3403477435
 31
0.0
  0
SPLINE
  5
95
330
1F
100
AcDbEntity
  8
0
  6
Continuous
 62
     7
370
    15
100
AcDbSpline
210
0.0
220
0.0
230
1.0
 70
     8
 71
     3
 72
    14
 73
    10
 74
     0
 42
0.00000001
 43
0.00000001
 40
0.0
 40
0.0
 40
0.0
 40
0.0
 40
0.25
 40
0.25
 40
0.5
 40
0.5
 40
0.75
 40
0.75
 40
1.0
 40
1.0
 40
1.0
 40
1.0
 10
119.111512711119
 20
124.3186821925229
 30
0.0
 10
119.111512711119
 20
124.3186821925229
 30
0.0
 10
118.9800036587406
 20
124.3030129525063
 30
0.0
 10
118.4744100427767
 20
124.2403521028027
 30
0.0
 10
118.1002783581163
 20
124.1932218764516
 30
0.0
 10
117.1753478314996
 20
124.0699844398221
 30
0.0
 10
116.6174630068494
 20
123.9927380484211
 30
0.0
 10
115.4184916806112
 20
123.8163232320169
 30
0.0
 10
114.766406859347
 20
123.715483503981
 30
0.0
 10
114.111512711119
 20
123.6083396080183
 30
0.0
  0
LINE
  5
96
330
1F
100
AcDbEntity
  8
0
  6
Continuous
 62
     7
370
    15
100
AcDbLine
 10
114.1115127111
 20
134.3403477435
 30
0.0
 11
119.1115127111
 21
134.3403477435
 31
0.0
  0
LINE
  5
97
330
1F
100
AcDbEntity
  8
0
  6
Continuous
 62
     7
370
    15
100
AcDbLine
 10
110.3615127111
 20
126.8403477435
 30
0.0
 11
110.3615127111
 21
122.9335258442
 31
0.0
  0
LINE
  5
98
330
1F
100
AcDbEntity
  8
0
  6
Continuous
 62
     7
370
    15
100
AcDbLine
 10
105.3615127111
 20
121.8403477435
 30
0.0
 11
105.3615127111
 21
126.8403477435
 31
0.0
  0
LINE
  5
99
330
1F
100
AcDbEntity
  8
0
  6
Continuous
 62
     7
370
    15
100
AcDbLine
 10
105.3615127111
 20
126.8403477435
 30
0.0
 11
110.3615127111
 21
126.8403477435
 31
0.0
  0
SPLINE
  5
9A
330
1F
100
AcDbEntity
  8
0
  6
Continuous
 62
     7
370
    15
100
AcDbSpline
210
0.0
220
0.0
230
1.0
 70
     8
 71
     3
 72
    12
 73
     8
 74
     0
 42
0.00000001
 43
0.00000001
 40
0.0
 40
0.0
 40
0.0
 40
0.0
 40
0.2499999999999997
 40
0.2499999999999997
 40
0.4999999999999994
 40
0.4999999999999994
 40
1.0
 40
1.0
 40
1.0
 40
1.0
 10
110.361512711119
 20
122.9335258441614
 30
0.0
 10
109.7061607467574
 20
122.804821638268
 30
0.0
 10
109.0649662213429
 20
122.6730812069169
 30
0.0
 10
107.8607000512709
 20
122.4163098792188
 30
0.0
 10
107.3087177922144
 20
122.2936363053985
 30
0.0
 10
105.9185559669601
 20
121.9771075263643
 30
0.0
 10
105.361512711119
 20
121.8403477435417
 30
0.0
 10
105.361512711119
 20
121.8403477435417
 30
0.0
  0
LINE
  5
9B
330
1F
100
AcDbEntity
  8
0
  6
Continuous
 62
     7
370
    15
100
AcDbLine
 10
161.6115127111
 20
134.3403477435
 30
0.0
 11
161.6115127111
 21
121.8403477435
 31
0.0
  0
LINE
  5
9C
330
1F
100
AcDbEntity
  8
0
  6
Continuous
 62
     7
370
    15
100
AcDbLine
 10
156.6115127111
 20
122.9335258442
 30
0.0
 11
156.6115127111
 21
134.3403477435
 31
0.0
  0
SPLINE
  5
9D
330
1F
100
AcDbEntity
  8
0
  6
Continuous
 62
     7
370
    15
100
AcDbSpline
210
0.0
220
0.0
230
1.0
 70
     8
 71
     3
 72
    14
 73
    10
 74
     0
 42
0.00000001
 43
0.00000001
 40
0.0
 40
0.0
 40
0.0
 40
0.0
 40
0.25
 40
0.25
 40
0.5
 40
0.5
 40
0.75
 40
0.75
 40
1.0
 40
1.0
 40
1.0
 40
1.0
 10
161.611512711119
 20
121.8403477435417
 30
0.0
 10
161.611512711119
 20
121.8403477435417
 30
0.0
 10
161.4779331829842
 20
121.8727651351904
 30
0.0
 10
160.9686094669637
 20
121.9937666950113
 30
0.0
 10
160.592326827772
 20
122.0823238518403
 30
0.0
 10
159.6678015895983
 20
122.2928505793494
 30
0.0
 10
159.1117673947423
 20
122.4164074442764
 30
0.0
 10
157.9166326668634
 20
122.6712744513969
 30
0.0
 10
157.2665884787323
 20
122.804875880393
 30
0.0
 10
156.611512711119
 20
122.9335258441614
 30
0.0
  0
LINE
  5
9E
330
1F
100
AcDbEntity
  8
0
  6
Continuous
 62
     7
370
    15
100
AcDbLine
 10
156.6115127111
 20
134.3403477435
 30
0.0
 11
161.6115127111
 21
134.3403477435
 31
0.0
  0
ARC
  5
9F
330
1F
100
AcDbEntity
  8
0
  6
Continuous
 62
     7
370
    15
100
AcDbCircle
 10
133.4865127111
 20
5.1827960163
 30
0.0
 40
120.0
100
AcDbArc
 50
78.8891182
 51
84.9202842073
  0
LINE
  5
A0
330
1F
100
AcDbEntity
  8
0
  6
Continuous
 62
     7
370
    15
100
AcDbLine
 10
144.1115127111
 20
134.3403477435
 30
0.0
 11
156.6115127111
 21
134.3403477435
 31
0.0
  0
LINE
  5
A1
330
1F
100
AcDbEntity
  8
0
  6
Continuous
 62
     7
370
    15
100
AcDbLine
 10
110.3615127111
 20
126.8403477435
 30
0.0
 11
112.8615127111
 21
126.8403477435
 31
0.0
  0
LINE
  5
A2
330
1F
100
AcDbEntity
  8
0
  6
Continuous
 62
     7
370
    15
100
AcDbLine
 10
112.8615127111
 20
126.8403477435
 30
0.0
 11
112.8615127111
 21
134.3403477435
 31
0.0
  0
ARC
  5
A3
330
1F
100
AcDbEntity
  8
0
  6
Continuous
 62
     7
370
    15
100
AcDbCircle
 10
133.4865127111
 20
5.1827960163
 30
0.0
 40
120.0
100
AcDbArc
 50
99.2915532388
 51
101.1108818
  0
LINE
  5
A4
330
1F
100
AcDbEntity
  8
0
  6
Continuous
 62
     7
370
    15
100
AcDbLine
 10
112.8615127111
 20
134.3403477435
 30
0.0
 11
114.1115127111
 21
134.3403477435
 31
0.0
  0
LINE
  5
A5
330
1F
100
AcDbEntity
  8
0
  6
Continuous
 62
     7
370
    15
100
AcDbLine
 10
112.8615127111
 20
138.0903477435
 30
0.0
 11
154.6115127111
 21
138.0903477435
 31
0.0
  0
LINE
  5
A6
330
1F
100
AcDbEntity
  8
0
  6
Continuous
 62
     7
370
    15
100
AcDbLine
 10
154.6115127111
 20
134.3403477435
 30
0.0
 11
154.6115127111
 21
138.0903477435
 31
0.0
  0
LINE
  5
A7
330
1F
100
AcDbEntity
  8
0
  6
Continuous
 62
     7
370
    15
100
AcDbLine
 10
112.8615127111
 20
138.0903477435
 30
0.0
 11
112.8615127111
 21
134.3403477435
 31
0.0
  0
LINE
  5
A8
330
1F
100
AcDbEntity
  8
0
  6
Continuous
 62
     7
370
    15
100
AcDbLine
 10
159.6115127111
 20
138.0903477435
 30
0.0
 11
159.6115127111
 21
134.3403477435
 31
0.0
  0
LINE
  5
A9
330
1F
100
AcDbEntity
  8
0
  6
Continuous
 62
     7
370
    15
100
AcDbLine
 10
154.6115127111
 20
138.0903477435
 30
0.0
 11
159.6115127111
 21
138.0903477435
 31
0.0
  0
SPLINE
  5
AA
330
1F
100
AcDbEntity
  8
0
  6
Continuous
 62
     7
370
    15
100
AcDbSpline
210
0.0
220
0.0
230
1.0
 70
    24
 71
     1
 72
     4
 73
     2
 74
     0
 42
0.00000001
 43
0.00000001
 40
0.0
 40
0.0
 40
1.0
 40
1.0
 10
243.9100578311303
 20
131.7983917822343
 30
0.0
 10
246.5617082605798
 20
133.3291569919019
 30
0.0
  0
SPLINE
  5
AB
330
1F
100
AcDbEntity
  8
0
  6
Continuous
 62
     7
370
    15
100
AcDbSpline
210
0.0
220
0.0
230
1.0
 70
    24
 71
     1
 72
     4
 73
     2
 74
     0
 42
0.00000001
 43
0.00000001
 40
0.0
 40
0.0
 40
1.0
 40
1.0
 10
247.9759218229529
 20
130.8796672563077
 30
0.0
 10
256.570594721121
 20
135.8412663098148
 30
0.0
  0
SPLINE
  5
AC
330
1F
100
AcDbEntity
  8
0
  6
Continuous
 62
     7
370
    15
100
AcDbSpline
210
0.0
220
0.0
230
1.0
 70
    24
 71
     1
 72
     4
 73
     2
 74
     0
 42
0.00000001
 43
0.00000001
 40
0.0
 40
0.0
 40
1.0
 40
1.0
 10
218.8673124280629
 20
189.9187689058086
 30
0.0
 10
215.575940388794
 20
188.0187002716367
 30
0.0
  0
SPLINE
  5
AD
330
1F
100
AcDbEntity
  8
0
  6
Continuous
 62
     7
370
    15
100
AcDbSpline
210
0.0
220
0.0
230
1.0
 70
    24
 71
     1
 72
     4
 73
     2
 74
     0
 42
0.00000001
 43
0.00000001
 40
0.0
 40
0.0
 40
1.0
 40
1.0
 10
232.0660192462556
 20
124.7541182914554
 30
0.0
 10
238.5923345361149
 20
128.5216799134871
 30
0.0
  0
ARC
  5
AE
330
1F
100
AcDbEntity
  8
0
  6
Continuous
 62
     7
370
    15
100
AcDbCircle
 10
211.9803265157
 20
142.1543340304
 30
0.0
 40
6.982097150549327
100
AcDbArc
 50
1.6235601805
 51
28.5999597289
  0
ARC
  5
AF
330
1F
100
AcDbEntity
  8
0
  6
Continuous
 62
     7
370
    15
100
AcDbCircle
 10
245.1549029247
 20
135.3445689203
 30
0.0
 40
2.457841836666441
100
AcDbArc
 50
304.9159547339
 51
6.3962256594
  0
LINE
  5
B0
330
1F
100
AcDbEntity
  8
0
  6
Continuous
 62
     7
370
    15
100
AcDbLine
 10
247.5974453349
 20
135.6183810242
 30
0.0
 11
247.5974453349
 21
158.889794163
 31
0.0
  0
ARC
  5
B1
330
1F
100
AcDbEntity
  8
0
  6
Continuous
 62
     7
370
    15
100
AcDbCircle
 10
239.9595451316
 20
158.5625333103
 30
0.0
 40
7.644908055775664
100
AcDbArc
 50
2.4534496702
 51
57.5465504754
  0
LINE
  5
B2
330
1F
100
AcDbEntity
  8
0
  6
Continuous
 62
     7
370
    15
100
AcDbLine
 10
244.061911429
 20
165.013518502
 30
0.0
 11
214.5402033145
 21
182.0560378363
 31
0.0
  0
LINE
  5
B3
330
1F
100
AcDbEntity
  8
0
  6
Continuous
 62
     7
370
    15
100
AcDbLine
 10
214.5402033145
 20
182.0560378363
 30
0.0
 11
214.5402033145
 21
183.68911946
 31
0.0
  0
LINE
  5
B4
330
1F
100
AcDbEntity
  8
0
  6
Continuous
 62
     7
370
    15
100
AcDbLine
 10
245.4761249914
 20
165.8301920139
 30
0.0
 11
214.5402033145
 21
183.68911946
 31
0.0
  0
ARC
  5
B5
330
1F
100
AcDbEntity
  8
0
  6
Continuous
 62
     7
370
    15
100
AcDbCircle
 10
241.373758694
 20
159.3792068222
 30
0.0
 40
7.644908055775969
100
AcDbArc
 50
2.4534496702
 51
57.5465504754
  0
LINE
  5
B6
330
1F
100
AcDbEntity
  8
0
  6
Continuous
 62
     7
370
    15
100
AcDbLine
 10
249.0116588973
 20
133.1688912887
 30
0.0
 11
249.0116588973
 21
159.7064676749
 31
0.0
  0
LWPOLYLINE
  5
B7
330
1F
100
AcDbEntity
  8
0
  6
Continuous
 62
     7
370
    15
100
AcDbPolyline
 90
       15
 70
   128
 43
0.0
 10
245.4761249914
 20
131.1272075088
 10
245.8719791929
 20
130.9243569287
 10
246.2628552981
 20
130.7753996847
 10
246.6438378133
 20
130.6822090006
 10
247.0101356622
 20
130.6459568033
 10
247.3571424369
 20
130.6670989853
 10
247.6804943258
 20
130.7453696713
 10
247.9761249914
 20
130.879784562
 10
248.2403167064
 20
131.0686533122
 10
248.4697471067
 20
131.3096007879
 10
248.661530972
 20
131.5995969346
 10
248.8132565089
 20
131.9349948825
 10
248.9230156807
 20
132.311576808
 10
248.9894282022
 20
132.7246069747
 10
249.0116588973
 20
133.1688912887
  0
LINE
  5
B8
330
1F
100
AcDbEntity
  8
0
  6
Continuous
 62
     7
370
    15
100
AcDbLine
 10
244.111765792
 20
131.9148353095
 30
0.0
 11
245.4761249914
 21
131.1272075088
 31
0.0
  0
ARC
  5
B9
330
1F
100
AcDbEntity
  8
0
  6
Continuous
 62
     7
370
    15
100
AcDbCircle
 10
235.6337675875
 20
134.4431917953
 30
0.0
 40
2.544831217817907
100
AcDbArc
 50
131.3986429255
 51
185.753522367
  0
LINE
  5
BA
330
1F
100
AcDbEntity
  8
0
  6
Continuous
 62
     7
370
    15
100
AcDbLine
 10
233.1017563206
 20
127.0433423238
 30
0.0
 11
233.1017563206
 21
134.1880744278
 31
0.0
  0
LWPOLYLINE
  5
BB
330
1F
100
AcDbEntity
  8
0
  6
Continuous
 62
     7
370
    15
100
AcDbPolyline
 90
       15
 70
   128
 43
0.0
 10
229.5662224147
 20
125.0016585439
 10
229.9620766162
 20
124.7988079638
 10
230.3529527214
 20
124.6498507198
 10
230.7339352366
 20
124.5566600357
 10
231.1002330855
 20
124.5204078384
 10
231.4472398602
 20
124.5415500204
 10
231.7705917491
 20
124.6198207064
 10
232.0662224147
 20
124.7542355971
 10
232.3304141297
 20
124.9431043474
 10
232.55984453
 20
125.184051823
 10
232.7516283953
 20
125.4740479697
 10
232.9033539322
 20
125.8094459177
 10
233.013113104
 20
126.1860278431
 10
233.0795256255
 20
126.5990580098
 10
233.1017563206
 20
127.0433423238
  0
LINE
  5
BC
330
1F
100
AcDbEntity
  8
0
  6
Continuous
 62
     7
370
    15
100
AcDbLine
 10
229.5662224147
 20
125.0016585439
 30
0.0
 11
222.4951546028
 21
129.083699103
 31
0.0
  0
ARC
  5
BD
330
1F
100
AcDbEntity
  8
0
  6
Continuous
 62
     7
370
    15
100
AcDbCircle
 10
226.5975209002
 20
135.5346842947
 30
0.0
 40
7.644908055775961
100
AcDbArc
 50
182.4534496702
 51
237.5465504754
  0
LINE
  5
BE
330
1F
100
AcDbEntity
  8
0
  6
Continuous
 62
     7
370
    15
100
AcDbLine
 10
218.9596206969
 20
135.207423442
 30
0.0
 11
218.9596206969
 21
142.352155546
 31
0.0
  0
LWPOLYLINE
  5
BF
330
1F
100
AcDbEntity
  8
0
  6
Continuous
 62
     7
370
    15
100
AcDbPolyline
 90
       46
 70
   128
 43
0.0
 10
226.0306885087
 20
132.7763059234
 10
226.3237689753
 20
132.6307800972
 10
226.6111449639
 20
132.535418617
 10
226.8872230278
 20
132.4920775857
 10
227.1466296217
 20
132.5016005871
 10
227.3843156912
 20
132.5638022668
 10
227.5956549472
 20
132.6774719398
 10
227.7765339117
 20
132.8403971554
 10
227.9234319813
 20
133.0494067595
 10
228.0334899521
 20
133.3004326179
 10
228.104565671
 20
133.5885887977
 10
228.13527573
 20
133.9082666669
 10
228.1250223926
 20
134.2532440591
 10
228.0740052284
 20
134.6168063819
 10
227.9832172285
 20
134.9918773083
 10
227.8544254781
 20
135.3711565093
 10
227.690136762
 20
135.7472617467
 10
227.4935487733
 20
136.1128725597
 10
227.2684878735
 20
136.46087275
 10
227.019334617
 20
136.7844888894
 10
226.7509384886
 20
137.0774221582
 10
226.4685235136
 20
137.3339709433
 10
226.1775865783
 20
137.5491418144
 10
225.8837904392
 20
137.7187467154
 10
225.5928535038
 20
137.8394844798
 10
225.3104385289
 20
137.9090050842
 10
225.0420424005
 20
137.9259553893
 10
224.792889144
 20
137.8900054765
 10
224.5678282442
 20
137.8018550702
 10
224.3712402554
 20
137.6632199176
 10
224.2069515394
 20
137.4767983943
 10
224.0781597889
 20
137.2462189832
 10
223.987371789
 20
136.9759696503
 10
223.9363546249
 20
136.6713104914
 10
223.9261012875
 20
136.3381713505
 10
223.9568113464
 20
135.9830364021
 10
224.0278870653
 20
135.6128179439
 10
224.1379450362
 20
135.2347218572
 10
224.2848431058
 20
134.8561073521
 10
224.4657220702
 20
134.4843437294
 10
224.6770613263
 20
134.1266669451
 10
224.9147473958
 20
133.7900387709
 10
225.1741539896
 20
133.4810112914
 10
225.4502320536
 20
133.2055993749
 10
225.7376080422
 20
132.9691636011
 10
226.0306885087
 20
132.7763059234
  0
LINE
  5
C0
330
1F
100
AcDbEntity
  8
0
  6
Continuous
 62
     7
370
    15
100
AcDbLine
 10
245.4761249914
 20
165.8301920139
 30
0.0
 11
253.5419661082
 21
170.4865029783
 31
0.0
  0
SPLINE
  5
C1
330
1F
100
AcDbEntity
  8
0
  6
Continuous
 62
     7
370
    15
100
AcDbSpline
210
0.0
220
0.0
230
1.0
 70
     8
 71
     3
 72
    12
 73
     8
 74
     0
 42
0.00000001
 43
0.00000001
 40
0.0
 40
0.0
 40
0.0
 40
0.0
 40
0.2499999999999997
 40
0.2499999999999997
 40
0.4999999999999994
 40
0.4999999999999994
 40
1.0
 40
1.0
 40
1.0
 40
1.0
 10
253.5419661082018
 20
170.4865029783122
 30
0.0
 10
254.0963775430202
 20
170.2715232272689
 30
0.0
 10
254.6429250923653
 20
169.9595675019063
 30
0.0
 10
255.6760346146064
 20
169.1691548170286
 30
0.0
 10
256.1530883290006
 20
168.695730526227
 30
0.0
 10
257.3599008286803
 20
167.1346705589642
 30
0.0
 10
257.8504936621273
 20
165.9003941862315
 30
0.0
 10
257.8504936621273
 20
164.8090183738331
 30
0.0
  0
LINE
  5
C2
330
1F
100
AcDbEntity
  8
0
  6
Continuous
 62
     7
370
    15
100
AcDbLine
 10
257.8504936621
 20
164.8090183738
 30
0.0
 11
249.0116588973
 21
159.7064676749
 31
0.0
  0
LINE
  5
C3
330
1F
100
AcDbEntity
  8
0
  6
Continuous
 62
     7
370
    15
100
AcDbLine
 10
241.4102609995
 20
163.4827532923
 30
0.0
 11
244.061911429
 21
165.013518502
 31
0.0
  0
LINE
  5
C4
330
1F
100
AcDbEntity
  8
0
  6
Continuous
 62
     7
370
    15
100
AcDbLine
 10
247.5974453349
 20
158.889794163
 30
0.0
 11
244.9457949055
 21
157.3590289533
 31
0.0
  0
ARC
  5
C5
330
1F
100
AcDbEntity
  8
0
  6
Continuous
 62
     7
370
    15
100
AcDbCircle
 10
237.3078947022
 20
157.0317681006
 30
0.0
 40
7.644908055775945
100
AcDbArc
 50
2.4534496702
 51
57.5465504754
  0
LWPOLYLINE
  5
C6
330
1F
100
AcDbEntity
  8
0
  6
Continuous
 62
     7
370
    15
100
AcDbPolyline
 90
       15
 70
   128
 43
0.0
 10
241.4102609995
 20
132.0459320347
 10
241.8061152011
 20
131.8430814546
 10
242.1969913063
 20
131.6941242106
 10
242.5779738215
 20
131.6009335265
 10
242.9442716704
 20
131.5646813292
 10
243.2912784451
 20
131.5858235112
 10
243.614630334
 20
131.6640941972
 10
243.9102609995
 20
131.7985090879
 10
244.1744527145
 20
131.9873778382
 10
244.4038831149
 20
132.2283253138
 10
244.5956669802
 20
132.5183214605
 10
244.7473925171
 20
132.8537194085
 10
244.8571516889
 20
133.2303013339
 10
244.9235642104
 20
133.6433315006
 10
244.9457949055
 20
134.0876158146
  0
LINE
  5
C7
330
1F
100
AcDbEntity
  8
0
  6
Continuous
 62
     7
370
    15
100
AcDbLine
 10
211.888552885
 20
149.088451369
 30
0.0
 11
241.4102609995
 21
132.0459320347
 31
0.0
  0
LINE
  5
C8
330
1F
100
AcDbEntity
  8
0
  6
Continuous
 62
     7
370
    15
100
AcDbLine
 10
211.888552885
 20
150.5173977898
 30
0.0
 11
211.888552885
 21
149.088451369
 31
0.0
  0
LINE
  5
C9
330
1F
100
AcDbEntity
  8
0
  6
Continuous
 62
     7
370
    15
100
AcDbLine
 10
240.1728241325
 20
134.1892355534
 30
0.0
 11
211.888552885
 21
150.5173977898
 31
0.0
  0
LWPOLYLINE
  5
CA
330
1F
100
AcDbEntity
  8
0
  6
Continuous
 62
     7
370
    15
100
AcDbPolyline
 90
       15
 70
   128
 43
0.0
 10
243.7083580384
 20
136.2309193332
 10
243.6861273433
 20
135.7866350192
 10
243.6197148218
 20
135.3736048525
 10
243.50995565
 20
134.9970229271
 10
243.3582301131
 20
134.6616249791
 10
243.1664462478
 20
134.3716288324
 10
242.9370158475
 20
134.1306813568
 10
242.6728241325
 20
133.9418126066
 10
242.3771934669
 20
133.8073977158
 10
242.053841578
 20
133.7291270298
 10
241.7068348033
 20
133.7079848479
 10
241.3405369544
 20
133.7442370451
 10
240.9595544392
 20
133.8374277292
 10
240.568678334
 20
133.9863849732
 10
240.1728241325
 20
134.1892355534
  0
LINE
  5
CB
330
1F
100
AcDbEntity
  8
0
  6
Continuous
 62
     7
370
    15
100
AcDbLine
 10
243.7083580384
 20
156.6444396304
 30
0.0
 11
243.7083580384
 21
136.2309193332
 31
0.0
  0
ARC
  5
CC
330
1F
100
AcDbEntity
  8
0
  6
Continuous
 62
     7
370
    15
100
AcDbCircle
 10
236.0704578351
 20
156.3171787777
 30
0.0
 40
7.644908055776039
100
AcDbArc
 50
2.4534496702
 51
57.5465504754
  0
LINE
  5
CD
330
1F
100
AcDbEntity
  8
0
  6
Continuous
 62
     7
370
    15
100
AcDbLine
 10
211.888552885
 20
179.0963262058
 30
0.0
 11
240.1728241325
 21
162.7681639694
 31
0.0
  0
LINE
  5
CE
330
1F
100
AcDbEntity
  8
0
  6
Continuous
 62
     7
370
    15
100
AcDbLine
 10
211.888552885
 20
180.5252726266
 30
0.0
 11
211.888552885
 21
179.0963262058
 31
0.0
  0
LINE
  5
CF
330
1F
100
AcDbEntity
  8
0
  6
Continuous
 62
     7
370
    15
100
AcDbLine
 10
241.4102609995
 20
163.4827532923
 30
0.0
 11
211.888552885
 21
180.5252726266
 31
0.0
  0
LINE
  5
D0
330
1F
100
AcDbEntity
  8
0
  6
Continuous
 62
     7
370
    15
100
AcDbLine
 10
244.9457949055
 20
134.0876158146
 30
0.0
 11
244.9457949055
 21
157.3590289533
 31
0.0
  0
LINE
  5
D1
330
1F
100
AcDbEntity
  8
0
  6
Continuous
 62
     7
370
    15
100
AcDbLine
 10
249.0116588973
 20
133.1688912887
 30
0.0
 11
257.8504936621
 21
138.2714419875
 31
0.0
  0
LINE
  5
D2
330
1F
100
AcDbEntity
  8
0
  6
Continuous
 62
     7
370
    15
100
AcDbLine
 10
257.8504936621
 20
138.2714419875
 30
0.0
 11
257.8504936621
 21
164.8090183738
 31
0.0
  0
LINE
  5
D3
330
1F
100
AcDbEntity
  8
0
  6
Continuous
 62
     7
370
    15
100
AcDbLine
 10
219.8435041734
 20
186.7506498794
 30
0.0
 11
214.5402033145
 21
183.68911946
 31
0.0
  0
LINE
  5
D4
330
1F
100
AcDbEntity
  8
0
  6
Continuous
 62
     7
370
    15
100
AcDbLine
 10
219.8435041734
 20
186.7506498794
 30
0.0
 11
218.0757372204
 21
187.7711600192
 31
0.0
  0
LINE
  5
D5
330
1F
100
AcDbEntity
  8
0
  6
Continuous
 62
     7
370
    15
100
AcDbLine
 10
220.8382774783
 20
189.3659405642
 30
0.0
 11
218.0757372204
 21
187.7711600192
 31
0.0
  0
ARC
  5
D6
330
1F
100
AcDbEntity
  8
0
  6
Continuous
 62
     7
370
    15
100
AcDbCircle
 10
292.8028980246
 20
276.2608138076
 30
0.0
 40
112.8256425035918
100
AcDbArc
 50
230.3691158826
 51
249.6362606501
  0
LINE
  5
D7
330
1F
100
AcDbEntity
  8
0
  6
Continuous
 62
     7
370
    15
100
AcDbLine
 10
244.9457949055
 20
134.0876158146
 30
0.0
 11
247.5974453349
 21
135.6183810242
 31
0.0
  0
LINE
  5
D8
330
1F
100
AcDbEntity
  8
0
  6
Continuous
 62
     7
370
    15
100
AcDbLine
 10
211.888552885
 20
180.5252726266
 30
0.0
 11
214.5402033145
 21
182.0560378363
 31
0.0
  0
SPLINE
  5
D9
330
1F
100
AcDbEntity
  8
0
  6
Continuous
 62
     7
370
    15
100
AcDbSpline
210
0.0
220
0.0
230
1.0
 70
     8
 71
     3
 72
    12
 73
     8
 74
     0
 42
0.00000001
 43
0.00000001
 40
0.0
 40
0.0
 40
0.0
 40
0.0
 40
0.2094765773525162
 40
0.4189637442803116
 40
0.6283051937086651
 40
0.8376700950313551
 40
1.0
 40
1.0
 40
1.0
 40
1.0
 10
257.8504936621273
 20
138.2714419875462
 30
0.0
 10
257.8386165423978
 20
138.0506491827453
 30
0.0
 10
257.81486170252
 20
137.6090524115041
 30
0.0
 10
257.6313966761908
 20
137.0175705763975
 30
0.0
 10
257.3401230180988
 20
136.5061329737942
 30
0.0
 10
256.9852209260927
 20
136.1050647789709
 30
0.0
 10
256.6920430470312
 20
135.9289608413267
 30
0.0
 10
256.5640037620012
 20
135.8520511428899
 30
0.0
  0
LINE
  5
DA
330
1F
100
AcDbEntity
  8
0
  6
Continuous
 62
     7
370
    15
100
AcDbLine
 10
219.8435041734
 20
155.1096934188
 30
0.0
 11
211.888552885
 21
150.5173977898
 31
0.0
  0
LINE
  5
DB
330
1F
100
AcDbEntity
  8
0
  6
Continuous
 62
     7
370
    15
100
AcDbLine
 10
223.3790380793
 20
153.0686731393
 30
0.0
 11
219.8435041734
 21
155.1096934188
 31
0.0
  0
LINE
  5
DC
330
1F
100
AcDbEntity
  8
0
  6
Continuous
 62
     7
370
    15
100
AcDbLine
 10
225.2734852999
 20
154.1623142409
 30
0.0
 11
223.3790380793
 21
153.0686731393
 31
0.0
  0
ARC
  5
DD
330
1F
100
AcDbEntity
  8
0
  6
Continuous
 62
     7
370
    15
100
AcDbCircle
 10
290.7155211297
 20
242.2904855069
 30
0.0
 40
109.7690057540918
100
AcDbArc
 50
233.4032351074
 51
244.6442646122
  0
LINE
  5
DE
330
1F
100
AcDbEntity
  8
0
  6
Continuous
 62
     7
370
    15
100
AcDbLine
 10
219.8435041734
 20
159.1923974782
 30
0.0
 11
219.8435041734
 21
174.5040305768
 31
0.0
  0
ARC
  5
DF
330
1F
100
AcDbEntity
  8
0
  6
Continuous
 62
     7
370
    15
100
AcDbCircle
 10
227.4814043766
 20
159.519658331
 30
0.0
 40
7.644908055775852
100
AcDbArc
 50
182.4534496702
 51
237.5465504754
  0
ARC
  5
E0
330
1F
100
AcDbEntity
  8
0
  6
Continuous
 62
     7
370
    15
100
AcDbCircle
 10
222.3644068127
 20
159.5928230854
 30
0.0
 40
7.83446870052865
100
AcDbArc
 50
182.9333510708
 51
229.5521029208
  0
LINE
  5
E1
330
1F
100
AcDbEntity
  8
0
  6
Continuous
 62
     7
370
    15
100
AcDbLine
 10
214.5402033145
 20
185.7294762393
 30
0.0
 11
214.5402033145
 21
183.68911946
 31
0.0
  0
LINE
  5
E2
330
1F
100
AcDbEntity
  8
0
  6
Continuous
 62
     7
370
    15
100
AcDbLine
 10
214.5402033145
 20
177.5655609961
 30
0.0
 11
214.5402033145
 21
159.191899853
 31
0.0
  0
LWPOLYLINE
  5
E3
330
1F
100
AcDbEntity
  8
0
  6
Continuous
 62
     7
370
    15
100
AcDbPolyline
 90
       15
 70
   128
 43
0.0
 10
218.0757372204
 20
187.7711600192
 10
217.6798830189
 20
187.9740105993
 10
217.2890069136
 20
188.1229678433
 10
216.9080243984
 20
188.2161585274
 10
216.5417265495
 20
188.2524107246
 10
216.1947197748
 20
188.2312685427
 10
215.8713678859
 20
188.1529978567
 10
215.5757372204
 20
188.0185829659
 10
215.3115455054
 20
187.8297142157
 10
215.082115105
 20
187.5887667401
 10
214.8903312397
 20
187.2987705934
 10
214.7386057028
 20
186.9633726454
 10
214.628846531
 20
186.58679072
 10
214.5624340096
 20
186.1737605533
 10
214.5402033145
 20
185.7294762393
  0
SPLINE
  5
E4
330
1F
100
AcDbEntity
  8
0
  6
Continuous
 62
     7
370
    15
100
AcDbSpline
210
0.0
220
0.0
230
1.0
 70
     8
 71
     3
 72
    13
 73
     9
 74
     0
 42
0.00000001
 43
0.00000001
 40
0.0
 40
0.0
 40
0.0
 40
0.0
 40
0.0491951708022361
 40
0.2586740422650339
 40
0.4734744258939735
 40
0.6882845425535836
 40
0.8441427693332568
 40
1.0
 40
1.0
 40
1.0
 40
1.0
 10
218.8739033871828
 20
189.9079840727334
 30
0.0
 10
218.8973970264894
 20
189.9258089823319
 30
0.0
 10
219.0209293681373
 20
190.0195344709045
 30
0.0
 10
219.3000276937584
 20
190.0656585484232
 30
0.0
 10
219.7048373175851
 20
190.0332194634238
 30
0.0
 10
220.1111708860707
 20
189.8737277800984
 30
0.0
 10
220.4918089289722
 20
189.6469015631887
 30
0.0
 10
220.7227882079113
 20
189.4595940310188
 30
0.0
 10
220.838277478324
 20
189.3659405642124
 30
0.0
  0
LINE
  5
E5
330
1F
100
AcDbEntity
  8
0
  6
Continuous
 62
     7
370
    15
100
AcDbLine
 10
219.8435041734
 20
159.1923974782
 30
0.0
 11
222.2782847629
 21
160.5979663942
 31
0.0
  0
LINE
  5
E6
330
1F
100
AcDbEntity
  8
0
  6
Continuous
 62
     7
370
    15
100
AcDbLine
 10
222.2782847629
 20
173.0984616608
 30
0.0
 11
222.2782847629
 21
160.5979663942
 31
0.0
  0
LINE
  5
E7
330
1F
100
AcDbEntity
  8
0
  6
Continuous
 62
     7
370
    15
100
AcDbLine
 10
233.1017563206
 20
127.0433423238
 30
0.0
 11
239.6703965962
 21
130.83533764
 31
0.0
  0
LINE
  5
E8
330
1F
100
AcDbEntity
  8
0
  6
Continuous
 62
     7
370
    15
100
AcDbLine
 10
239.6703965962
 20
133.0503343755
 30
0.0
 11
239.6703965962
 21
130.83533764
 31
0.0
  0
SPLINE
  5
E9
330
1F
100
AcDbEntity
  8
0
  6
Continuous
 62
     7
370
    15
100
AcDbSpline
210
0.0
220
0.0
230
1.0
 70
     8
 71
     3
 72
    12
 73
     8
 74
     0
 42
0.00000001
 43
0.00000001
 40
0.0
 40
0.0
 40
0.0
 40
0.0
 40
0.2145778175156008
 40
0.4291562762894217
 40
0.643726952364979
 40
0.8582986193259664
 40
1.0
 40
1.0
 40
1.0
 40
1.0
 10
239.6703965961833
 20
130.8353376400074
 30
0.0
 10
239.6599909265873
 20
130.6114696190552
 30
0.0
 10
239.6391795562983
 20
130.1637329081289
 30
0.0
 10
239.4782531675618
 20
129.5788356057324
 30
0.0
 10
239.2213377052666
 20
129.0876951151459
 30
0.0
 10
238.9223105746864
 20
128.7289801996399
 30
0.0
 10
238.6802567502955
 20
128.5906629284514
 30
0.0
 10
238.5839840702786
 20
128.5356496502128
 30
0.0
  0
SPLINE
  5
EA
330
1F
100
AcDbEntity
  8
0
  6
Continuous
 62
     7
370
    15
100
AcDbSpline
210
0.0
220
0.0
230
1.0
 70
     8
 71
     3
 72
    14
 73
    10
 74
     0
 42
0.00000001
 43
0.00000001
 40
0.0
 40
0.0
 40
0.0
 40
0.0
 40
0.2500000000000003
 40
0.2500000000000003
 40
0.5000000000000006
 40
0.5000000000000006
 40
0.7500000000000002
 40
0.7500000000000002
 40
1.0
 40
1.0
 40
1.0
 40
1.0
 10
222.2782847629089
 20
160.5979663942161
 30
0.0
 10
222.2782847629089
 20
160.0557544312048
 30
0.0
 10
222.3550207605584
 20
159.4603551043297
 30
0.0
 10
222.65108879971
 20
158.2284369637543
 30
0.0
 10
222.8705770388407
 20
157.5973224780564
 30
0.0
 10
223.4175561744129
 20
156.4094049743003
 30
0.0
 10
223.7495646423363
 20
155.8443368802227
 30
0.0
 10
224.471947182122
 20
154.8779518288193
 30
0.0
 10
224.8692026501037
 20
154.466268812666
 30
0.0
 10
225.2734852998543
 20
154.1623142408843
 30
0.0
  0
LINE
  5
EB
330
1F
100
AcDbEntity
  8
0
  6
Continuous
 62
     7
370
    15
100
AcDbLine
 10
240.1728241325
 20
134.1892355534
 30
0.0
 11
243.7083579917
 21
136.230255806
 31
0.0
  0
LINE
  5
EC
330
1F
100
AcDbEntity
  8
0
  6
Continuous
 62
     7
370
    15
100
AcDbLine
 10
235.400657898
 20
135.5152020597
 30
0.0
 11
233.1017563206
 21
134.1880744278
 31
0.0
  0
SPLINE
  5
ED
330
1F
100
AcDbEntity
  8
0
  6
Continuous
 62
     7
370
    15
100
AcDbSpline
210
0.0
220
0.0
230
1.0
 70
    24
 71
     1
 72
     4
 73
     2
 74
     0
 42
0.00000001
 43
0.00000001
 40
0.0
 40
0.0
 40
1.0
 40
1.0
 10
21.396365720209
 20
133.0853644595962
 30
0.0
 10
24.68726816966089
 20
131.1855669138554
 30
0.0
  0
SPLINE
  5
EE
330
1F
100
AcDbEntity
  8
0
  6
Continuous
 62
     7
370
    15
100
AcDbSpline
210
0.0
220
0.0
230
1.0
 70
    24
 71
     1
 72
     4
 73
     2
 74
     0
 42
0.00000001
 43
0.00000001
 40
0.0
 40
0.0
 40
1.0
 40
1.0
 10
68.93128818869451
 20
178.2212841452524
 30
0.0
 10
66.27963775924496
 20
179.7520493549199
 30
0.0
  0
SPLINE
  5
EF
330
1F
100
AcDbEntity
  8
0
  6
Continuous
 62
     7
370
    15
100
AcDbSpline
210
0.0
220
0.0
230
1.0
 70
    24
 71
     1
 72
     4
 73
     2
 74
     0
 42
0.00000001
 43
0.00000001
 40
0.0
 40
0.0
 40
1.0
 40
1.0
 10
67.69385132161806
 20
182.2015390905142
 30
0.0
 10
59.09964801326705
 20
187.1628670555901
 30
0.0
  0
SPLINE
  5
F0
330
1F
100
AcDbEntity
  8
0
  6
Continuous
 62
     7
370
    15
100
AcDbSpline
210
0.0
220
0.0
230
1.0
 70
    24
 71
     1
 72
     4
 73
     2
 74
     0
 42
0.00000001
 43
0.00000001
 40
0.0
 40
0.0
 40
1.0
 40
1.0
 10
32.74604995070246
 20
122.4488025319857
 30
0.0
 10
39.71328726987501
 20
118.4267020404436
 30
0.0
  0
LINE
  5
F1
330
1F
100
AcDbEntity
  8
0
  6
Continuous
 62
     7
370
    15
100
AcDbLine
 10
28.9548319542
 20
167.1566018113
 30
0.0
 11
34.2581328131
 21
164.0950713919
 31
0.0
  0
LINE
  5
F2
330
1F
100
AcDbEntity
  8
0
  6
Continuous
 62
     7
370
    15
100
AcDbLine
 10
34.2581328131
 20
162.4619897681
 30
0.0
 11
34.2581328131
 21
164.0950713919
 31
0.0
  0
LINE
  5
F3
330
1F
100
AcDbEntity
  8
0
  6
Continuous
 62
     7
370
    15
100
AcDbLine
 10
36.9097832426
 20
160.9312245585
 30
0.0
 11
34.2581328131
 21
162.4619897681
 31
0.0
  0
LINE
  5
F4
330
1F
100
AcDbEntity
  8
0
  6
Continuous
 62
     7
370
    15
100
AcDbLine
 10
36.9097832426
 20
160.9312245585
 30
0.0
 11
36.9097832426
 21
159.5022781377
 31
0.0
  0
LINE
  5
F5
330
1F
100
AcDbEntity
  8
0
  6
Continuous
 62
     7
370
    15
100
AcDbLine
 10
28.9548319542
 20
164.0945737667
 30
0.0
 11
36.9097832426
 21
159.5022781377
 31
0.0
  0
LINE
  5
F6
330
1F
100
AcDbEntity
  8
0
  6
Continuous
 62
     7
370
    15
100
AcDbLine
 10
28.9548319542
 20
164.0945737667
 30
0.0
 11
28.9548319542
 21
167.1566018113
 31
0.0
  0
LINE
  5
F7
330
1F
100
AcDbEntity
  8
0
  6
Continuous
 62
     7
370
    15
100
AcDbLine
 10
65.19405449
 20
181.953998838
 30
0.0
 11
57.1282133732
 21
186.6103098024
 31
0.0
  0
LINE
  5
F8
330
1F
100
AcDbEntity
  8
0
  6
Continuous
 62
     7
370
    15
100
AcDbLine
 10
65.19405449
 20
181.953998838
 30
0.0
 11
34.2581328131
 21
164.0950713919
 31
0.0
  0
LINE
  5
F9
330
1F
100
AcDbEntity
  8
0
  6
Continuous
 62
     7
370
    15
100
AcDbLine
 10
28.9548319542
 20
167.1566018113
 30
0.0
 11
27.1870650013
 21
166.1360916715
 31
0.0
  0
LINE
  5
FA
330
1F
100
AcDbEntity
  8
0
  6
Continuous
 62
     7
370
    15
100
AcDbLine
 10
24.4245247433
 20
167.7308722165
 30
0.0
 11
27.1870650013
 21
166.1360916715
 31
0.0
  0
ARC
  5
FB
330
1F
100
AcDbEntity
  8
0
  6
Continuous
 62
     7
370
    15
100
AcDbCircle
 10
-14.6212933389
 20
273.1325545806
 30
0.0
 40
112.4014704302527
100
AcDbArc
 50
290.3270364115
 51
309.6675870558
  0
LINE
  5
FC
330
1F
100
AcDbEntity
  8
0
  6
Continuous
 62
     7
370
    15
100
AcDbLine
 10
63.7798409277
 20
179.5045091024
 30
0.0
 11
34.2581328131
 21
162.4619897681
 31
0.0
  0
LINE
  5
FD
330
1F
100
AcDbEntity
  8
0
  6
Continuous
 62
     7
370
    15
100
AcDbLine
 10
66.4314913571
 20
177.9737438928
 30
0.0
 11
63.7798409277
 21
179.5045091024
 31
0.0
  0
LINE
  5
FE
330
1F
100
AcDbEntity
  8
0
  6
Continuous
 62
     7
370
    15
100
AcDbLine
 10
66.4314913571
 20
177.9737438928
 30
0.0
 11
36.9097832426
 21
160.9312245585
 31
0.0
  0
ARC
  5
FF
330
1F
100
AcDbEntity
  8
0
  6
Continuous
 62
     7
370
    15
100
AcDbCircle
 10
62.3291250597
 20
152.9879078269
 30
0.0
 40
7.644908055775602
100
AcDbArc
 50
302.4534495246
 51
357.5465503298
  0
LINE
  5
100
330
1F
100
AcDbEntity
  8
0
  6
Continuous
 62
     7
370
    15
100
AcDbLine
 10
36.9097832426
 20
129.4944033009
 30
0.0
 11
66.4314913571
 21
146.5369226352
 31
0.0
  0
LINE
  5
101
330
1F
100
AcDbEntity
  8
0
  6
Continuous
 62
     7
370
    15
100
AcDbLine
 10
36.9097832426
 20
130.9233497217
 30
0.0
 11
36.9097832426
 21
129.4944033009
 31
0.0
  0
LINE
  5
102
330
1F
100
AcDbEntity
  8
0
  6
Continuous
 62
     7
370
    15
100
AcDbLine
 10
65.19405449
 20
147.2515119581
 30
0.0
 11
36.9097832426
 21
130.9233497217
 31
0.0
  0
ARC
  5
103
330
1F
100
AcDbEntity
  8
0
  6
Continuous
 62
     7
370
    15
100
AcDbCircle
 10
61.0916881927
 20
153.7024971498
 30
0.0
 40
7.644908055775693
100
AcDbArc
 50
302.4534495246
 51
357.5465503298
  0
LINE
  5
104
330
1F
100
AcDbEntity
  8
0
  6
Continuous
 62
     7
370
    15
100
AcDbLine
 10
68.729588396
 20
173.7887565943
 30
0.0
 11
68.729588396
 21
153.3752362971
 31
0.0
  0
LWPOLYLINE
  5
105
330
1F
100
AcDbEntity
  8
0
  6
Continuous
 62
     7
370
    15
100
AcDbPolyline
 90
       15
 70
   128
 43
0.0
 10
65.19405449
 20
175.8304403741
 10
65.5899086916
 20
176.0332909543
 10
65.9807847968
 20
176.1822481982
 10
66.361767312
 20
176.2754388823
 10
66.7280651609
 20
176.3116910796
 10
67.0750719356
 20
176.2905488977
 10
67.3984238245
 20
176.2122782117
 10
67.69405449
 20
176.0778633209
 10
67.958246205
 20
175.8889945707
 10
68.1876766054
 20
175.6480470951
 10
68.3794604707
 20
175.3580509484
 10
68.5311860076
 20
175.0226530004
 10
68.6409451794
 20
174.6460710749
 10
68.7073577008
 20
174.2330409082
 10
68.729588396
 20
173.7887565943
  0
LINE
  5
106
330
1F
100
AcDbEntity
  8
0
  6
Continuous
 62
     7
370
    15
100
AcDbLine
 10
36.9097832426
 20
159.5022781377
 30
0.0
 11
65.19405449
 21
175.8304403741
 31
0.0
  0
LWPOLYLINE
  5
107
330
1F
100
AcDbEntity
  8
0
  6
Continuous
 62
     7
370
    15
100
AcDbPolyline
 90
       15
 70
   128
 43
0.0
 10
69.967025263
 20
175.9320601129
 10
69.9447945679
 20
176.3763444269
 10
69.8783820465
 20
176.7893745936
 10
69.7686228747
 20
177.165956519
 10
69.6168973378
 20
177.501354467
 10
69.4251134724
 20
177.7913506137
 10
69.1956830721
 20
178.0322980893
 10
68.9314913571
 20
178.2211668396
 10
68.6358606916
 20
178.3555817303
 10
68.3125088027
 20
178.4338524163
 10
67.965502028
 20
178.4549945983
 10
67.5992041791
 20
178.418742401
 10
67.2182216639
 20
178.3255517169
 10
66.8273455586
 20
178.1765944729
 10
66.4314913571
 20
177.9737438928
  0
LINE
  5
108
330
1F
100
AcDbEntity
  8
0
  6
Continuous
 62
     7
370
    15
100
AcDbLine
 10
69.967025263
 20
152.6606469742
 30
0.0
 11
69.967025263
 21
175.9320601129
 31
0.0
  0
LWPOLYLINE
  5
109
330
1F
100
AcDbEntity
  8
0
  6
Continuous
 62
     7
370
    15
100
AcDbPolyline
 90
        3
 70
   128
 43
0.0
 10
35.1420162896
 20
129.9023419567
 10
35.5378704911
 20
130.1051925368
 10
35.7201772453
 20
130.1811482253
  0
ARC
  5
10A
330
1F
100
AcDbEntity
  8
0
  6
Continuous
 62
     7
370
    15
100
AcDbCircle
 10
35.9996220575
 20
128.0585210704
 30
0.0
 40
2.685227892983892
100
AcDbArc
 50
355.7742905779
 51
47.0735441296
  0
LINE
  5
10B
330
1F
100
AcDbEntity
  8
0
  6
Continuous
 62
     7
370
    15
100
AcDbLine
 10
34.2581328131
 20
129.3920868868
 30
0.0
 11
35.1420162896
 21
129.9023419567
 31
0.0
  0
LINE
  5
10C
330
1F
100
AcDbEntity
  8
0
  6
Continuous
 62
     7
370
    15
100
AcDbLine
 10
34.2581328131
 20
129.3920868868
 30
0.0
 11
34.2581328131
 21
131.0251685105
 31
0.0
  0
ARC
  5
10D
330
1F
100
AcDbEntity
  8
0
  6
Continuous
 62
     7
370
    15
100
AcDbCircle
 10
65.2378823815
 20
177.5263370117
 30
0.0
 40
2.457447802464582
100
AcDbArc
 50
64.9178296814
 51
126.3926287477
  0
LWPOLYLINE
  5
10E
330
1F
100
AcDbEntity
  8
0
  6
Continuous
 62
     7
370
    15
100
AcDbPolyline
 90
       15
 70
   128
 43
0.0
 10
68.729588396
 20
179.9123150582
 10
68.7073577008
 20
180.3565993721
 10
68.6409451794
 20
180.7696295389
 10
68.5311860076
 20
181.1462114643
 10
68.3794604707
 20
181.4816094123
 10
68.1876766054
 20
181.771605559
 10
67.958246205
 20
182.0125530346
 10
67.69405449
 20
182.2014217848
 10
67.3984238245
 20
182.3358366756
 10
67.0750719356
 20
182.4141073616
 10
66.7280651609
 20
182.4352495435
 10
66.361767312
 20
182.3989973463
 10
65.9807847968
 20
182.3058066622
 10
65.5899086916
 20
182.1568494182
 10
65.19405449
 20
181.953998838
  0
LINE
  5
10F
330
1F
100
AcDbEntity
  8
0
  6
Continuous
 62
     7
370
    15
100
AcDbLine
 10
68.729588396
 20
178.3377229571
 30
0.0
 11
68.729588396
 21
179.9123150582
 31
0.0
  0
ARC
  5
110
330
1F
100
AcDbEntity
  8
0
  6
Continuous
 62
     7
370
    15
100
AcDbCircle
 10
60.010937725
 20
135.769680522
 30
0.0
 40
7.195773686597288
100
AcDbArc
 50
151.8077909264
 51
177.9686891642
  0
LINE
  5
111
330
1F
100
AcDbEntity
  8
0
  6
Continuous
 62
     7
370
    15
100
AcDbLine
 10
52.8196858193
 20
128.880007191
 30
0.0
 11
52.8196858193
 21
136.024739295
 31
0.0
  0
ARC
  5
112
330
1F
100
AcDbEntity
  8
0
  6
Continuous
 62
     7
370
    15
100
AcDbCircle
 10
45.181785616
 20
129.2072680437
 30
0.0
 40
7.64490805577571
100
AcDbArc
 50
302.4534495246
 51
357.5465503298
  0
LINE
  5
113
330
1F
100
AcDbEntity
  8
0
  6
Continuous
 62
     7
370
    15
100
AcDbLine
 10
49.2841519133
 20
122.756282852
 30
0.0
 11
42.2130841015
 21
118.6742422929
 31
0.0
  0
LWPOLYLINE
  5
114
330
1F
100
AcDbEntity
  8
0
  6
Continuous
 62
     7
370
    15
100
AcDbPolyline
 90
       15
 70
   128
 43
0.0
 10
38.6775501955
 20
120.7159260728
 10
38.6997808906
 20
120.2716417588
 10
38.7661934121
 20
119.8586115921
 10
38.8759525839
 20
119.4820296667
 10
39.0276781208
 20
119.1466317187
 10
39.2194619861
 20
118.856635572
 10
39.4488923865
 20
118.6156880964
 10
39.7130841015
 20
118.4268193461
 10
40.008714767
 20
118.2924044554
 10
40.3320666559
 20
118.2141337694
 10
40.6790734306
 20
118.1929915874
 10
41.0453712795
 20
118.2292437847
 10
41.4263537947
 20
118.3224344688
 10
41.8172298999
 20
118.4713917128
 10
42.2130841015
 20
118.6742422929
  0
LINE
  5
115
330
1F
100
AcDbEntity
  8
0
  6
Continuous
 62
     7
370
    15
100
AcDbLine
 10
38.6775501955
 20
120.7159260728
 30
0.0
 11
38.6775501955
 21
127.8606581768
 31
0.0
  0
LWPOLYLINE
  5
116
330
1F
100
AcDbEntity
  8
0
  6
Continuous
 62
     7
370
    15
100
AcDbPolyline
 90
       46
 70
   128
 43
0.0
 10
45.7486180074
 20
126.4488896724
 10
46.0416984739
 20
126.6417473501
 10
46.3290744625
 20
126.8781831239
 10
46.6051525265
 20
127.1535950404
 10
46.8645591204
 20
127.4626225199
 10
47.1022451898
 20
127.7992506941
 10
47.3135844459
 20
128.1569274784
 10
47.4944634104
 20
128.5286911011
 10
47.64136148
 20
128.9073056062
 10
47.7514194508
 20
129.2854016929
 10
47.8224951697
 20
129.6556201511
 10
47.8532052286
 20
130.0107550995
 10
47.8429518913
 20
130.3438942404
 10
47.7919347271
 20
130.6485533993
 10
47.7011467272
 20
130.9188027322
 10
47.5723549768
 20
131.1493821433
 10
47.4080662607
 20
131.3358036666
 10
47.2114782719
 20
131.4744388192
 10
46.9864173721
 20
131.5625892255
 10
46.7372641157
 20
131.5985391383
 10
46.4688679873
 20
131.5815888332
 10
46.1864530123
 20
131.5120682287
 10
45.895516077
 20
131.3913304644
 10
45.6017199378
 20
131.2217255634
 10
45.3107830025
 20
131.0065546922
 10
45.0283680275
 20
130.7500059072
 10
44.7599718991
 20
130.4570726384
 10
44.5108186427
 20
130.1334564989
 10
44.2857577428
 20
129.7854563087
 10
44.0891697541
 20
129.4198454956
 10
43.924881038
 20
129.0437402583
 10
43.7960892876
 20
128.6644610573
 10
43.7053012877
 20
128.2893901309
 10
43.6542841235
 20
127.9258278081
 10
43.6440307861
 20
127.5808504158
 10
43.6747408451
 20
127.2611725467
 10
43.745816564
 20
126.9730163669
 10
43.8558745348
 20
126.7219905085
 10
44.0027726044
 20
126.5129809044
 10
44.1836515689
 20
126.3500556888
 10
44.394990825
 20
126.2363860157
 10
44.6326768944
 20
126.174184336
 10
44.8920834883
 20
126.1646613347
 10
45.1681615523
 20
126.208002366
 10
45.4555375409
 20
126.3033638462
 10
45.7486180074
 20
126.4488896724
  0
ARC
  5
117
330
1F
100
AcDbEntity
  8
0
  6
Continuous
 62
     7
370
    15
100
AcDbCircle
 10
36.2570201285
 20
159.7381365584
 30
0.0
 40
7.307317015816496
100
AcDbArc
 50
149.0453500467
 51
177.8531895501
  0
LINE
  5
118
330
1F
100
AcDbEntity
  8
0
  6
Continuous
 62
     7
370
    15
100
AcDbLine
 10
28.9548319542
 20
139.5983494101
 30
0.0
 11
28.9548319542
 21
160.0118697073
 31
0.0
  0
LWPOLYLINE
  5
119
330
1F
100
AcDbEntity
  8
0
  6
Continuous
 62
     7
370
    15
100
AcDbPolyline
 90
       15
 70
   128
 43
0.0
 10
32.4903658602
 20
137.5566656302
 10
32.0945116586
 20
137.3538150501
 10
31.7036355534
 20
137.2048578061
 10
31.3226530382
 20
137.111667122
 10
30.9563551893
 20
137.0754149248
 10
30.6093484146
 20
137.0965571067
 10
30.2859965257
 20
137.1748277927
 10
29.9903658602
 20
137.3092426835
 10
29.7261741452
 20
137.4981114337
 10
29.4967437448
 20
137.7390589093
 10
29.3049598795
 20
138.029055056
 10
29.1532343426
 20
138.364453004
 10
29.0434751708
 20
138.7410349294
 10
28.9770626493
 20
139.1540650961
 10
28.9548319542
 20
139.5983494101
  0
LINE
  5
11A
330
1F
100
AcDbEntity
  8
0
  6
Continuous
 62
     7
370
    15
100
AcDbLine
 10
32.4903658602
 20
137.5566656302
 30
0.0
 11
28.9548319542
 21
135.5156453507
 31
0.0
  0
LINE
  5
11B
330
1F
100
AcDbEntity
  8
0
  6
Continuous
 62
     7
370
    15
100
AcDbLine
 10
28.9548319542
 20
132.4536173061
 30
0.0
 11
28.9548319542
 21
135.5156453507
 31
0.0
  0
LINE
  5
11C
330
1F
100
AcDbEntity
  8
0
  6
Continuous
 62
     7
370
    15
100
AcDbLine
 10
27.1870650013
 20
131.4331071663
 30
0.0
 11
28.9548319542
 21
132.4536173061
 31
0.0
  0
LWPOLYLINE
  5
11D
330
1F
100
AcDbEntity
  8
0
  6
Continuous
 62
     7
370
    15
100
AcDbPolyline
 90
       15
 70
   128
 43
0.0
 10
23.6515310953
 20
133.4747909462
 10
23.6737617904
 20
133.0305066322
 10
23.7401743119
 20
132.6174764655
 10
23.8499334837
 20
132.2408945401
 10
24.0016590206
 20
131.9054965921
 10
24.1934428859
 20
131.6155004454
 10
24.4228732863
 20
131.3745529698
 10
24.6870650013
 20
131.1856842195
 10
24.9826956668
 20
131.0512693288
 10
25.3060475557
 20
130.9729986428
 10
25.6530543304
 20
130.9518564608
 10
26.0193521793
 20
130.9881086581
 10
26.4003346945
 20
131.0812993422
 10
26.7912107997
 20
131.2302565862
 10
27.1870650013
 20
131.4331071663
  0
LINE
  5
11E
330
1F
100
AcDbEntity
  8
0
  6
Continuous
 62
     7
370
    15
100
AcDbLine
 10
23.6515310953
 20
160.0123673325
 30
0.0
 11
23.6515310953
 21
133.4747909462
 31
0.0
  0
ARC
  5
11F
330
1F
100
AcDbEntity
  8
0
  6
Continuous
 62
     7
370
    15
100
AcDbCircle
 10
31.2894312986
 20
159.6851064798
 30
0.0
 40
7.644908055775739
100
AcDbArc
 50
122.4534495246
 51
177.5465503298
  0
LINE
  5
120
330
1F
100
AcDbEntity
  8
0
  6
Continuous
 62
     7
370
    15
100
AcDbLine
 10
23.6515310953
 20
160.0123673325
 30
0.0
 11
20.1159971894
 21
162.053387612
 31
0.0
  0
SPLINE
  5
121
330
1F
100
AcDbEntity
  8
0
  6
Continuous
 62
     7
370
    15
100
AcDbSpline
210
0.0
220
0.0
230
1.0
 70
     8
 71
     3
 72
    14
 73
    10
 74
     0
 42
0.00000001
 43
0.00000001
 40
0.0
 40
0.0
 40
0.0
 40
0.0
 40
0.25
 40
0.25
 40
0.5
 40
0.5
 40
0.75
 40
0.75
 40
1.0
 40
1.0
 40
1.0
 40
1.0
 10
20.11599718938556
 20
162.0533876120457
 30
0.0
 10
20.11599718938555
 20
162.5988410931924
 30
0.0
 10
20.23337473702059
 20
163.1756125608576
 30
0.0
 10
20.67908201392127
 20
164.3269826822718
 30
0.0
 10
21.00777338585292
 20
164.8974999981526
 30
0.0
 10
21.81037632778627
 20
165.9366692106937
 30
0.0
 10
22.29091977459259
 20
166.4134030860414
 30
0.0
 10
23.31622583414293
 20
167.1987935360005
 30
0.0
 10
23.87034696406073
 20
167.5159830682589
 30
0.0
 10
24.42452474331113
 20
167.7308722165248
 30
0.0
  0
LINE
  5
122
330
1F
100
AcDbEntity
  8
0
  6
Continuous
 62
     7
370
    15
100
AcDbLine
 10
20.1159971894
 20
135.5158112258
 30
0.0
 11
23.6515310953
 21
133.4747909462
 31
0.0
  0
LINE
  5
123
330
1F
100
AcDbEntity
  8
0
  6
Continuous
 62
     7
370
    15
100
AcDbLine
 10
20.1159971894
 20
162.053387612
 30
0.0
 11
20.1159971894
 21
135.5158112258
 31
0.0
  0
LINE
  5
124
330
1F
100
AcDbEntity
  8
0
  6
Continuous
 62
     7
370
    15
100
AcDbLine
 10
28.9548319542
 20
132.4536173061
 30
0.0
 11
34.2581328131
 21
129.3920868868
 31
0.0
  0
LINE
  5
125
330
1F
100
AcDbEntity
  8
0
  6
Continuous
 62
     7
370
    15
100
AcDbLine
 10
28.9548319542
 20
135.5156453507
 30
0.0
 11
36.9097832426
 21
130.9233497217
 31
0.0
  0
LINE
  5
126
330
1F
100
AcDbEntity
  8
0
  6
Continuous
 62
     7
370
    15
100
AcDbLine
 10
36.9097832426
 20
129.4944033009
 30
0.0
 11
34.2581328131
 21
131.0251685105
 31
0.0
  0
LINE
  5
127
330
1F
100
AcDbEntity
  8
0
  6
Continuous
 62
     7
370
    15
100
AcDbLine
 10
65.19405449
 20
147.2515119581
 30
0.0
 11
54.9537283322
 21
153.1631264168
 31
0.0
  0
LINE
  5
128
330
1F
100
AcDbEntity
  8
0
  6
Continuous
 62
     7
370
    15
100
AcDbLine
 10
30.5959186396
 20
138.6503067319
 30
0.0
 11
32.4903658602
 21
137.5566656302
 31
0.0
  0
ARC
  5
129
330
1F
100
AcDbEntity
  8
0
  6
Continuous
 62
     7
370
    15
100
AcDbCircle
 10
-13.0493271273
 20
239.6000212806
 30
0.0
 40
109.9806907848886
100
AcDbArc
 50
293.3810682335
 51
308.1934194337
  0
SPLINE
  5
12A
330
1F
100
AcDbEntity
  8
0
  6
Continuous
 62
     7
370
    15
100
AcDbSpline
210
0.0
220
0.0
230
1.0
 70
     8
 71
     3
 72
    12
 73
     8
 74
     0
 42
0.00000001
 43
0.00000001
 40
0.0
 40
0.0
 40
0.0
 40
0.0
 40
0.0960048677363965
 40
0.3168565637024206
 40
0.5330431310643661
 40
0.7492066902898458
 40
0.9999999999999999
 40
0.9999999999999999
 40
0.9999999999999999
 40
0.9999999999999999
 10
21.4055102049399
 20
133.1014312184764
 30
0.0
 10
21.32659831848714
 20
133.1422390875104
 30
0.0
 10
21.06615580378728
 20
133.2769222703424
 30
0.0
 10
20.72113470932135
 20
133.6269277062745
 30
0.0
 10
20.39193441902693
 20
134.1358976443849
 30
0.0
 10
20.1631253444266
 20
134.7611950771727
 30
0.0
 10
20.13246451511382
 20
135.2521363607497
 30
0.0
 10
20.11599718938556
 20
135.5158112257588
 30
0.0
  0
SPLINE
  5
12B
330
1F
100
AcDbEntity
  8
0
  6
Continuous
 62
     7
370
    15
100
AcDbSpline
210
0.0
220
0.0
230
1.0
 70
     8
 71
     3
 72
    10
 73
     6
 74
     0
 42
0.00000001
 43
0.00000001
 40
0.0
 40
0.0
 40
0.0
 40
0.0
 40
0.3438721927938233
 40
0.6719370015256213
 40
1.0
 40
1.0
 40
1.0
 40
1.0
 10
29.20034846471298
 20
138.3070736993853
 30
0.0
 10
29.35534412256808
 20
138.3169300249761
 30
0.0
 10
29.65821047748468
 20
138.3361895929271
 30
0.0
 10
30.12995718178866
 20
138.4618808076698
 30
0.0
 10
30.4405984393355
 20
138.5874982059942
 30
0.0
 10
30.59591863957911
 20
138.650306731867
 30
0.0
  0
SPLINE
  5
12C
330
1F
100
AcDbEntity
  8
0
  6
Continuous
 62
     7
370
    15
100
AcDbSpline
210
0.0
220
0.0
230
1.0
 70
     8
 71
     3
 72
    12
 73
     8
 74
     0
 42
0.00000001
 43
0.00000001
 40
0.0
 40
0.0
 40
0.0
 40
0.0
 40
0.2191604822349651
 40
0.4383225361763673
 40
0.6575287375556357
 40
0.8767190690953
 40
1.0
 40
1.0
 40
1.0
 40
1.0
 10
57.12821337318891
 20
186.6103098024249
 30
0.0
 10
57.29043640562465
 20
186.738476639375
 30
0.0
 10
57.6148836338764
 20
186.9948112324217
 30
0.0
 10
58.08234735232681
 20
187.2221520183085
 30
0.0
 10
58.51533095740231
 20
187.3132414393782
 30
0.0
 10
58.85780523199523
 20
187.292649927176
 30
0.0
 10
59.02891012537636
 20
187.1854055431751
 30
0.0
 10
59.09050352853615
 20
187.1468002967098
 30
0.0
  0
LINE
  5
12D
330
1F
100
AcDbEntity
  8
0
  6
Continuous
 62
     7
370
    15
100
AcDbLine
 10
57.8336287029
 20
159.6653399393
 30
0.0
 11
68.729588396
 21
153.3752362971
 31
0.0
  0
LINE
  5
12E
330
1F
100
AcDbEntity
  8
0
  6
Continuous
 62
     7
370
    15
100
AcDbLine
 10
57.8336287029
 20
159.6653399393
 30
0.0
 11
57.8336287029
 21
171.5813570115
 31
0.0
  0
LINE
  5
12F
330
1F
100
AcDbEntity
  8
0
  6
Continuous
 62
     7
370
    15
100
AcDbLine
 10
31.5911625256
 20
124.8068105977
 30
0.0
 11
38.6775501955
 21
120.7159260728
 31
0.0
  0
LINE
  5
130
330
1F
100
AcDbEntity
  8
0
  6
Continuous
 62
     7
370
    15
100
AcDbLine
 10
31.5911625256
 20
124.8068105977
 30
0.0
 11
31.5911625256
 21
130.9316960622
 31
0.0
  0
SPLINE
  5
131
330
1F
100
AcDbEntity
  8
0
  6
Continuous
 62
     7
370
    15
100
AcDbSpline
210
0.0
220
0.0
230
1.0
 70
     8
 71
     3
 72
    13
 73
     9
 74
     0
 42
0.00000001
 43
0.00000001
 40
0.0
 40
0.0
 40
0.0
 40
0.0
 40
0.0778500355374754
 40
0.2938725533000442
 40
0.5090756125264486
 40
0.7242725341235942
 40
0.8621364501930878
 40
1.0
 40
1.0
 40
1.0
 40
1.0
 10
32.75428019271806
 20
122.463507408189
 30
0.0
 10
32.6956391668041
 20
122.4923780321146
 30
0.0
 10
32.47427782901546
 20
122.6013604353957
 30
0.0
 10
32.17145134608842
 20
122.9124878715556
 30
0.0
 10
31.86429130269023
 20
123.3861722813749
 30
0.0
 10
31.69006068863732
 20
123.8906004179223
 30
0.0
 10
31.60475419226398
 20
124.3705556484454
 30
0.0
 10
31.59569307715816
 20
124.6613924100616
 30
0.0
 10
31.59116252562341
 20
124.8068105977032
 30
0.0
  0
SPLINE
  5
132
330
1F
100
AcDbEntity
  8
0
  6
Continuous
 62
     7
370
    15
100
AcDbSpline
210
0.0
220
0.0
230
1.0
 70
     8
 71
     3
 72
    12
 73
     8
 74
     0
 42
0.00000001
 43
0.00000001
 40
0.0
 40
0.0
 40
0.0
 40
0.0
 40
0.2500000000000004
 40
0.2500000000000004
 40
0.5000000000000009
 40
0.5000000000000009
 40
1.0
 40
1.0
 40
1.0
 40
1.0
 10
54.95372833220058
 20
153.1631264167933
 30
0.0
 10
55.34229136002662
 20
153.4751934236524
 30
0.0
 10
55.71862384760573
 20
153.887713069173
 30
0.0
 10
56.41774215747741
 20
154.8740433305246
 30
0.0
 10
56.73463134646142
 20
155.4418366775246
 30
0.0
 10
57.52531254227999
 20
157.2429254068697
 30
0.0
 10
57.83362870285019
 20
158.5776579016998
 30
0.0
 10
57.83362870285019
 20
159.665339939329
 30
0.0
  0
LINE
  5
133
330
1F
100
AcDbEntity
  8
0
  6
Continuous
 62
     7
370
    15
100
AcDbLine
 10
68.729588396
 20
173.7887565943
 30
0.0
 11
65.1934798196
 21
175.830108624
 31
0.0
  0
LINE
  5
134
330
1F
100
AcDbEntity
  8
0
  6
Continuous
 62
     7
370
    15
100
AcDbLine
 10
38.6775501955
 20
127.8606581768
 30
0.0
 11
35.1414416192
 21
129.9020102065
 31
0.0
  0
LINE
  5
135
330
1F
100
AcDbEntity
  8
0
  6
Continuous
 62
     7
370
    15
100
AcDbLine
 10
33.6772504707
 20
40.1217410714
 30
0.0
 11
46.1772504707
 21
40.1217410714
 31
0.0
  0
LINE
  5
136
330
1F
100
AcDbEntity
  8
0
  6
Continuous
 62
     7
370
    15
100
AcDbLine
 10
33.6772504707
 20
40.1217410714
 30
0.0
 11
33.6772504707
 21
72.6217410714
 31
0.0
  0
LINE
  5
137
330
1F
100
AcDbEntity
  8
0
  6
Continuous
 62
     7
370
    15
100
AcDbLine
 10
46.1772504707
 20
72.6217410714
 30
0.0
 11
33.6772504707
 21
72.6217410714
 31
0.0
  0
LINE
  5
138
330
1F
100
AcDbEntity
  8
0
  6
Continuous
 62
     7
370
    15
100
AcDbLine
 10
46.1772504707
 20
40.1217410714
 30
0.0
 11
46.1772504707
 21
72.6217410714
 31
0.0
  0
SPLINE
  5
139
330
1F
100
AcDbEntity
  8
0
  6
Continuous
 62
     7
370
    15
100
AcDbSpline
210
0.0
220
0.0
230
1.0
 70
     8
 71
     3
 72
    14
 73
    10
 74
     0
 42
0.00000001
 43
0.00000001
 40
0.0
 40
0.0
 40
0.0
 40
0.0
 40
0.25
 40
0.25
 40
0.5
 40
0.5
 40
0.75
 40
0.75
 40
1.0
 40
1.0
 40
1.0
 40
1.0
 10
46.17725047074396
 20
40.12174107142861
 30
0.0
 10
46.17725047074396
 20
39.45373590474616
 30
0.0
 10
46.14483307909519
 20
38.79794912048212
 30
0.0
 10
46.02383151927436
 20
37.58202037840211
 30
0.0
 10
45.93527436244535
 20
37.02715943281758
 30
0.0
 10
45.72474763493625
 20
36.11145244831737
 30
0.0
 10
45.60119077000926
 20
35.743810230303
 30
0.0
 10
45.34632376288871
 20
35.2520168663245
 30
0.0
 10
45.21272233389263
 20
35.1217410714286
 30
0.0
 10
45.08407237012425
 20
35.1217410714286
 30
0.0
  0
LINE
  5
13A
330
1F
100
AcDbEntity
  8
0
  6
Continuous
 62
     7
370
    15
100
AcDbLine
 10
45.0840723701
 20
35.1217410714
 30
0.0
 11
33.6772504707
 21
35.1217410714
 31
0.0
  0
LINE
  5
13B
330
1F
100
AcDbEntity
  8
0
  6
Continuous
 62
     7
370
    15
100
AcDbLine
 10
33.6772504707
 20
35.1217410714
 30
0.0
 11
33.6772504707
 21
40.1217410714
 31
0.0
  0
SPLINE
  5
13C
330
1F
100
AcDbEntity
  8
0
  6
Continuous
 62
     7
370
    15
100
AcDbSpline
210
0.0
220
0.0
230
1.0
 70
     8
 71
     3
 72
    14
 73
    10
 74
     0
 42
0.00000001
 43
0.00000001
 40
0.0
 40
0.0
 40
0.0
 40
0.0
 40
0.25
 40
0.25
 40
0.5
 40
0.5
 40
0.75
 40
0.75
 40
1.0
 40
1.0
 40
1.0
 40
1.0
 10
43.69891602176288
 20
30.12174107142861
 30
0.0
 10
43.69891602176288
 20
30.78552723136867
 30
0.0
 10
43.71458526177946
 20
31.43708741625111
 30
0.0
 10
43.77724611148304
 20
32.65106251943111
 30
0.0
 10
43.82437633783419
 20
33.20642535113708
 30
0.0
 10
43.94761377446373
 20
34.12654354436889
 30
0.0
 10
44.02486016586465
 20
34.49675343605566
 30
0.0
 10
44.20127498226891
 20
34.99127144391998
 30
0.0
 10
44.3021147103048
 20
35.12174107142859
 30
0.0
 10
44.40925860626748
 20
35.1217410714286
 30
0.0
  0
LINE
  5
13D
330
1F
100
AcDbEntity
  8
0
  6
Continuous
 62
     7
370
    15
100
AcDbLine
 10
43.6989160218
 20
21.3717410714
 30
0.0
 11
43.6989160218
 21
30.1217410714
 31
0.0
  0
SPLINE
  5
13E
330
1F
100
AcDbEntity
  8
0
  6
Continuous
 62
     7
370
    15
100
AcDbSpline
210
0.0
220
0.0
230
1.0
 70
     8
 71
     3
 72
    12
 73
     8
 74
     0
 42
0.00000001
 43
0.00000001
 40
0.0
 40
0.0
 40
0.0
 40
0.0
 40
0.2500000000000003
 40
0.2500000000000003
 40
0.5000000000000006
 40
0.5000000000000006
 40
1.0
 40
1.0
 40
1.0
 40
1.0
 10
43.20157364089168
 20
16.37174107142861
 30
0.0
 10
43.25327906680347
 20
16.37174107142859
 30
0.0
 10
43.3096080058128
 20
16.50133372035513
 30
0.0
 10
43.42384239454319
 20
17.00152740940572
 30
0.0
 10
43.48092837035131
 20
17.37145663649964
 30
0.0
 10
43.63067771699183
 20
18.75223032077269
 30
0.0
 10
43.6989160217629
 20
20.04793068876397
 30
0.0
 10
43.6989160217629
 20
21.3717410714286
 30
0.0
  0
LINE
  5
13F
330
1F
100
AcDbEntity
  8
0
  6
Continuous
 62
     7
370
    15
100
AcDbLine
 10
43.2015736409
 20
16.3717410714
 30
0.0
 11
42.8364298132
 21
16.3717410714
 31
0.0
  0
SPLINE
  5
140
330
1F
100
AcDbEntity
  8
0
  6
Continuous
 62
     7
370
    15
100
AcDbSpline
210
0.0
220
0.0
230
1.0
 70
     8
 71
     3
 72
    12
 73
     8
 74
     0
 42
0.00000001
 43
0.00000001
 40
0.0
 40
0.0
 40
0.0
 40
0.0
 40
0.2499999999999994
 40
0.2499999999999994
 40
0.4999999999999989
 40
0.4999999999999989
 40
1.0
 40
1.0
 40
1.0
 40
1.0
 10
42.96671063482658
 20
21.37174107142861
 30
0.0
 10
42.96671063482658
 20
20.71135696357403
 30
0.0
 10
42.96042008468304
 20
20.06336704369727
 30
0.0
 10
42.93848481680968
 20
18.85291672431334
 30
0.0
 10
42.92298180173033
 20
18.29853330189689
 30
0.0
 10
42.87500885369597
 20
16.91516648395887
 30
0.0
 10
42.84330878249472
 20
16.37174107142862
 30
0.0
 10
42.83642981321587
 20
16.37174107142861
 30
0.0
  0
LINE
  5
141
330
1F
100
AcDbEntity
  8
0
  6
Continuous
 62
     7
370
    15
100
AcDbLine
 10
42.9667106348
 20
30.1217410714
 30
0.0
 11
42.9667106348
 21
21.3717410714
 31
0.0
  0
SPLINE
  5
142
330
1F
100
AcDbEntity
  8
0
  6
Continuous
 62
     7
370
    15
100
AcDbSpline
210
0.0
220
0.0
230
1.0
 70
     8
 71
     3
 72
    12
 73
     8
 74
     0
 42
0.00000001
 43
0.00000001
 40
0.0
 40
0.0
 40
0.0
 40
0.0
 40
0.2500000000000001
 40
0.2500000000000001
 40
0.5000000000000001
 40
0.5000000000000001
 40
1.0
 40
1.0
 40
1.0
 40
1.0
 10
43.30610532985313
 20
35.1217410714286
 30
0.0
 10
43.24757064756781
 20
35.12174107142861
 30
0.0
 10
43.19572456463997
 20
34.99256241196462
 30
0.0
 10
43.10763258652133
 20
34.49248106682812
 30
0.0
 10
43.07199601423201
 20
34.12213983064688
 30
0.0
 10
42.98995439558199
 20
32.73993036173391
 30
0.0
 10
42.96671063482657
 20
31.44403917857614
 30
0.0
 10
42.96671063482657
 20
30.12174107142861
 30
0.0
  0
SPLINE
  5
143
330
1F
100
AcDbEntity
  8
0
  6
Continuous
 62
     7
370
    15
100
AcDbSpline
210
0.0
220
0.0
230
1.0
 70
     8
 71
     3
 72
    12
 73
     8
 74
     0
 42
0.00000001
 43
0.00000001
 40
0.0
 40
0.0
 40
0.0
 40
0.0
 40
0.2499999999999997
 40
0.2499999999999997
 40
0.4999999999999994
 40
0.4999999999999994
 40
1.0
 40
1.0
 40
1.0
 40
1.0
 10
45.08407237012423
 20
77.6217410714286
 30
0.0
 10
45.21277657601758
 20
77.62174107142862
 30
0.0
 10
45.3445170073687
 20
77.49438124280599
 30
0.0
 10
45.60128833506683
 20
77.00005022910747
 30
0.0
 10
45.7239619088871
 20
76.6348771233547
 30
0.0
 10
46.04049068792126
 20
75.25980978208838
 30
0.0
 10
46.17725047074395
 20
73.95832559545008
 30
0.0
 10
46.17725047074395
 20
72.62174107142862
 30
0.0
  0
SPLINE
  5
144
330
1F
100
AcDbEntity
  8
0
  6
Continuous
 62
     7
370
    15
100
AcDbSpline
210
0.0
220
0.0
230
1.0
 70
     8
 71
     3
 72
    22
 73
    18
 74
     0
 42
0.00000001
 43
0.00000001
 40
0.0
 40
0.0
 40
0.0
 40
0.0
 40
0.0322708144115548
 40
0.1064811287294015
 40
0.1807079454413208
 40
0.254934250591589
 40
0.3290978025715698
 40
0.4032607980298349
 40
0.4773017412472753
 40
0.5513425908393482
 40
0.6253047739060819
 40
0.6992674104124752
 40
0.7732677468971769
 40
0.8472686603687859
 40
0.9213878406982947
 40
0.9955072521024226
 40
1.0
 40
1.0
 40
1.0
 40
1.0
 10
42.96671063482658
 20
23.67810605400253
 30
0.0
 10
42.96981062668189
 20
23.70652681078104
 30
0.0
 10
42.98003939338098
 20
23.80030424764783
 30
0.0
 10
42.99722681428617
 20
24.03862836806571
 30
0.0
 10
43.01688771987943
 20
24.38319506577638
 30
0.0
 10
43.03404349413826
 20
24.78766362558868
 30
0.0
 10
43.0475355037305
 20
25.23686859707993
 30
0.0
 10
43.05675020529875
 20
25.71769222581685
 30
0.0
 10
43.06087422301458
 20
26.217163590105
 30
0.0
 10
43.05993649500016
 20
26.72052600894575
 30
0.0
 10
43.05372057853919
 20
27.21353672915082
 30
0.0
 10
43.04288837213101
 20
27.68323119646611
 30
0.0
 10
43.02787084460083
 20
28.11442722165602
 30
0.0
 10
43.00972291414542
 20
28.49988019945185
 30
0.0
 10
42.98941016373293
 20
28.81521566001193
 30
0.0
 10
42.9746350503899
 20
29.0077553632128
 30
0.0
 10
42.96713903794454
 20
29.06920550227845
 30
0.0
 10
42.96671063482658
 20
29.07271742696727
 30
0.0
  0
LINE
  5
145
330
1F
100
AcDbEntity
  8
0
  6
Continuous
 62
     7
370
    15
100
AcDbLine
 10
33.6772504707
 20
77.6217410714
 30
0.0
 11
45.0840723701
 21
77.6217410714
 31
0.0
  0
LINE
  5
146
330
1F
100
AcDbEntity
  8
0
  6
Continuous
 62
     7
370
    15
100
AcDbLine
 10
33.6772504707
 20
72.6217410714
 30
0.0
 11
33.6772504707
 21
77.6217410714
 31
0.0
  0
LINE
  5
147
330
1F
100
AcDbEntity
  8
0
  6
Continuous
 62
     7
370
    15
100
AcDbLine
 10
29.9272504707
 20
42.1217410714
 30
0.0
 11
33.6772504707
 21
42.1217410714
 31
0.0
  0
LINE
  5
148
330
1F
100
AcDbEntity
  8
0
  6
Continuous
 62
     7
370
    15
100
AcDbLine
 10
29.9272504707
 20
42.1217410714
 30
0.0
 11
29.9272504707
 21
70.6217410714
 31
0.0
  0
LINE
  5
149
330
1F
100
AcDbEntity
  8
0
  6
Continuous
 62
     7
370
    15
100
AcDbLine
 10
33.6772504707
 20
70.6217410714
 30
0.0
 11
29.9272504707
 21
70.6217410714
 31
0.0
  0
LINE
  5
14A
330
1F
100
AcDbEntity
  8
0
  6
Continuous
 62
     7
370
    15
100
AcDbLine
 10
33.6772504707
 20
37.1217410714
 30
0.0
 11
29.9272504707
 21
37.1217410714
 31
0.0
  0
LINE
  5
14B
330
1F
100
AcDbEntity
  8
0
  6
Continuous
 62
     7
370
    15
100
AcDbLine
 10
29.9272504707
 20
37.1217410714
 30
0.0
 11
29.9272504707
 21
42.1217410714
 31
0.0
  0
LINE
  5
14C
330
1F
100
AcDbEntity
  8
0
  6
Continuous
 62
     7
370
    15
100
AcDbLine
 10
29.9272504707
 20
75.6217410714
 30
0.0
 11
33.6772504707
 21
75.6217410714
 31
0.0
  0
LINE
  5
14D
330
1F
100
AcDbEntity
  8
0
  6
Continuous
 62
     7
370
    15
100
AcDbLine
 10
29.9272504707
 20
70.6217410714
 30
0.0
 11
29.9272504707
 21
75.6217410714
 31
0.0
  0
LINE
  5
14E
330
1F
100
AcDbEntity
  8
0
  6
Continuous
 62
     7
370
    15
100
AcDbLine
 10
42.9667106348
 20
30.1217410714
 30
0.0
 11
33.6772504707
 21
30.1217410714
 31
0.0
  0
LINE
  5
14F
330
1F
100
AcDbEntity
  8
0
  6
Continuous
 62
     7
370
    15
100
AcDbLine
 10
33.6772504707
 20
30.1217410714
 30
0.0
 11
33.6772504707
 21
35.1217410714
 31
0.0
  0
LINE
  5
150
330
1F
100
AcDbEntity
  8
0
  6
Continuous
 62
     7
370
    15
100
AcDbLine
 10
42.8364298132
 20
16.3717410714
 30
0.0
 11
33.6772504707
 21
16.3717410714
 31
0.0
  0
LINE
  5
151
330
1F
100
AcDbEntity
  8
0
  6
Continuous
 62
     7
370
    15
100
AcDbLine
 10
33.6772504707
 20
21.3717410714
 30
0.0
 11
42.9667106348
 21
21.3717410714
 31
0.0
  0
LINE
  5
152
330
1F
100
AcDbEntity
  8
0
  6
Continuous
 62
     7
370
    15
100
AcDbLine
 10
33.6772504707
 20
16.3717410714
 30
0.0
 11
33.6772504707
 21
21.3717410714
 31
0.0
  0
LINE
  5
153
330
1F
100
AcDbEntity
  8
0
  6
Continuous
 62
     7
370
    15
100
AcDbLine
 10
33.6772504707
 20
21.3717410714
 30
0.0
 11
33.6772504707
 21
30.1217410714
 31
0.0
  0
ENDSEC
  0
SECTION
  2
OBJECTS
  0
DICTIONARY
  5
C
330
0
100
AcDbDictionary
281
     1
  3
ACAD_GROUP
350
D
  3
ACAD_LAYOUT
350
1A
  3
ACAD_MLEADERSTYLE
350
155
  3
ACAD_MLINESTYLE
350
17
  3
ACAD_PLOTSETTINGS
350
19
  3
ACAD_PLOTSTYLENAME
350
E
  3
ACAD_TABLESTYLE
350
154
  3
ACAD_VISUALSTYLE
350
2A
  3
AcDbVariableDictionary
350
156
  0
DICTIONARY
  5
D
102
{ACAD_REACTORS
330
C
102
}
330
C
100
AcDbDictionary
281
     1
  0
DICTIONARY
  5
1A
102
{ACAD_REACTORS
330
C
102
}
330
C
100
AcDbDictionary
281
     1
  3
Layout1
350
1E
  3
Layout2
350
26
  3
Model
350
22
  0
DICTIONARY
  5
155
102
{ACAD_REACTORS
330
C
102
}
330
C
100
AcDbDictionary
281
     1
  0
DICTIONARY
  5
17
102
{ACAD_REACTORS
330
C
102
}
330
C
100
AcDbDictionary
281
     1
  3
Standard
350
18
  0
DICTIONARY
  5
19
102
{ACAD_REACTORS
330
C
102
}
330
C
100
AcDbDictionary
281
     1
  0
ACDBDICTIONARYWDFLT
  5
E
102
{ACAD_REACTORS
330
C
102
}
330
C
100
AcDbDictionary
281
     1
  3
Normal
350
F
100
AcDbDictionaryWithDefault
340
F
  0
DICTIONARY
  5
154
102
{ACAD_REACTORS
330
C
102
}
330
C
100
AcDbDictionary
281
     1
  0
DICTIONARY
  5
2A
102
{ACAD_REACTORS
330
C
102
}
330
C
100
AcDbDictionary
281
     1
  3
2dWireframe
350
2F
  3
3D Hidden
350
31
  3
3dWireframe
350
30
  3
Basic
350
32
  3
Brighten
350
36
  3
ColorChange
350
3A
  3
Conceptual
350
34
  3
Dim
350
35
  3
Facepattern
350
39
  3
Flat
350
2B
  3
FlatWithEdges
350
2C
  3
Gouraud
350
2D
  3
GouraudWithEdges
350
2E
  3
Linepattern
350
38
  3
Realistic
350
33
  3
Thicken
350
37
  0
DICTIONARY
  5
156
102
{ACAD_REACTORS
330
C
102
}
330
C
100
AcDbDictionary
281
     1
  3
PSOLHEIGHT
350
158
  3
PSOLWIDTH
350
157
  0
LAYOUT
  5
1E
102
{ACAD_REACTORS
330
1A
102
}
330
1A
100
AcDbPlotSettings
  1

  2
none_device
  4

  6

 40
0.0
 41
0.0
 42
0.0
 43
0.0
 44
0.0
 45
0.0
 46
0.0
 47
0.0
 48
0.0
 49
0.0
140
0.0
141
0.0
142
1.0
143
1.0
 70
   688
 72
     0
 73
     0
 74
     5
  7

 75
    16
147
1.0
148
0.0
149
0.0
100
AcDbLayout
  1
Layout1
 70
     1
 71
     1
 10
0.0
 20
0.0
 11
420.0
 21
297.0
 12
0.0
 22
0.0
 32
0.0
 14
1.0000000000E+20
 24
1.0000000000E+20
 34
1.0000000000E+20
 15
-1.0000000000E+20
 25
-1.0000000000E+20
 35
-1.0000000000E+20
146
0.0
 13
0.0
 23
0.0
 33
0.0
 16
1.0
 26
0.0
 36
0.0
 17
0.0
 27
1.0
 37
0.0
 76
     0
330
1B
  0
LAYOUT
  5
26
102
{ACAD_REACTORS
330
1A
102
}
330
1A
100
AcDbPlotSettings
  1

  2
none_device
  4

  6

 40
0.0
 41
0.0
 42
0.0
 43
0.0
 44
0.0
 45
0.0
 46
0.0
 47
0.0
 48
0.0
 49
0.0
140
0.0
141
0.0
142
1.0
143
1.0
 70
   688
 72
     0
 73
     0
 74
     5
  7

 75
    16
147
1.0
148
0.0
149
0.0
100
AcDbLayout
  1
Layout2
 70
     1
 71
     2
 10
0.0
 20
0.0
 11
0.0
 21
0.0
 12
0.0
 22
0.0
 32
0.0
 14
0.0
 24
0.0
 34
0.0
 15
0.0
 25
0.0
 35
0.0
146
0.0
 13
0.0
 23
0.0
 33
0.0
 16
1.0
 26
0.0
 36
0.0
 17
0.0
 27
1.0
 37
0.0
 76
     0
330
23
  0
LAYOUT
  5
22
102
{ACAD_REACTORS
330
1A
102
}
330
1A
100
AcDbPlotSettings
  1

  2
none_device
  4

  6

 40
0.0
 41
0.0
 42
0.0
 43
0.0
 44
0.0
 45
0.0
 46
0.0
 47
0.0
 48
0.0
 49
0.0
140
0.0
141
0.0
142
1.0
143
1.0
 70
  1712
 72
     0
 73
     0
 74
     0
  7

 75
     0
147
1.0
148
0.0
149
0.0
100
AcDbLayout
  1
Model
 70
     1
 71
     0
 10
0.0
 20
0.0
 11
279.4
 21
215.9
 12
0.0
 22
0.0
 32
0.0
 14
0.0
 24
0.0
 34
0.0
 15
279.4
 25
215.9
 35
0.0
146
0.0
 13
0.0
 23
0.0
 33
0.0
 16
1.0
 26
0.0
 36
0.0
 17
0.0
 27
1.0
 37
0.0
 76
     0
330
1F
331
29
  0
MLINESTYLE
  5
18
102
{ACAD_REACTORS
330
17
102
}
330
17
100
AcDbMlineStyle
  2
Standard
 70
     0
  3

 62
   256
 51
90.0
 52
90.0
 71
     2
 49
0.5
 62
   256
  6
BYLAYER
 49
-0.5
 62
   256
  6
BYLAYER
  0
ACDBPLACEHOLDER
  5
F
102
{ACAD_REACTORS
330
E
102
}
330
E
  0
VISUALSTYLE
  5
2F
102
{ACAD_REACTORS
330
2A
102
}
330
2A
100
AcDbVisualStyle
  2
2dWireframe
 70
     4
 71
     0
 72
     2
 73
     0
 90
        0
 40
-0.6
 41
-30.0
 62
     5
 63
     7
 74
     1
 91
        4
 64
     7
 65
   257
 75
     1
175
     1
 42
1.0
 92
        0
 66
   257
 43
1.0
 76
     1
 77
     6
 78
     2
 67
     7
 79
     5
170
     0
171
     0
290
     0
174
     0
 93
        1
 44
0.0
173
     0
291
     0
 45
0.0
1001
ACAD
1000
AcDbSavedByObjectVersion
1070
     0
  0
VISUALSTYLE
  5
31
102
{ACAD_REACTORS
330
2A
102
}
330
2A
100
AcDbVisualStyle
  2
3D Hidden
 70
     6
 71
     1
 72
     2
 73
     2
 90
        0
 40
-0.6
 41
-30.0
 62
     5
 63
     7
 74
     2
 91
        2
 64
     7
 65
   257
 75
     2
175
     1
 42
40.0
 92
        0
 66
   257
 43
1.0
 76
     1
 77
     6
 78
     2
 67
     7
 79
     3
170
     0
171
     0
290
     0
174
     0
 93
        1
 44
0.0
173
     0
291
     0
 45
0.0
1001
ACAD
1000
AcDbSavedByObjectVersion
1070
     0
  0
VISUALSTYLE
  5
30
102
{ACAD_REACTORS
330
2A
102
}
330
2A
100
AcDbVisualStyle
  2
3dWireframe
 70
     5
 71
     0
 72
     2
 73
     0
 90
        0
 40
-0.6
 41
-30.0
 62
     5
 63
     7
 74
     1
 91
        4
 64
     7
 65
   257
 75
     1
175
     1
 42
1.0
 92
        0
 66
   257
 43
1.0
 76
     1
 77
     6
 78
     2
 67
     7
 79
     5
170
     0
171
     0
290
     0
174
     0
 93
        1
 44
0.0
173
     0
291
     0
 45
0.0
1001
ACAD
1000
AcDbSavedByObjectVersion
1070
     0
  0
VISUALSTYLE
  5
32
102
{ACAD_REACTORS
330
2A
102
}
330
2A
100
AcDbVisualStyle
  2
Basic
 70
     7
 71
     1
 72
     0
 73
     1
 90
        0
 40
-0.6
 41
-30.0
 62
     5
 63
     7
 74
     0
 91
        4
 64
     7
 65
   257
 75
     1
175
     1
 42
1.0
 92
        8
 66
     7
 43
1.0
 76
     1
 77
     6
 78
     2
 67
     7
 79
     5
170
     0
171
     0
290
     0
174
     0
 93
        1
 44
0.0
173
     0
291
     1
 45
0.0
1001
ACAD
1000
AcDbSavedByObjectVersion
1070
     0
  0
VISUALSTYLE
  5
36
102
{ACAD_REACTORS
330
2A
102
}
330
2A
100
AcDbVisualStyle
  2
Brighten
 70
    12
 71
     2
 72
     2
 73
     0
 90
        0
 40
-0.6
 41
-30.0
 62
     5
 63
     7
 74
     1
 91
        4
 64
     7
 65
   257
 75
     1
175
     1
 42
1.0
 92
        8
 66
     7
 43
1.0
 76
     1
 77
     6
 78
     2
 67
     7
 79
     5
170
     0
171
     0
290
     0
174
     0
 93
        1
 44
50.0
173
     0
291
     1
 45
0.0
1001
ACAD
1000
AcDbSavedByObjectVersion
1070
     0
  0
VISUALSTYLE
  5
3A
102
{ACAD_REACTORS
330
2A
102
}
330
2A
100
AcDbVisualStyle
  2
ColorChange
 70
    16
 71
     2
 72
     2
 73
     3
 90
        0
 40
-0.6
 41
-30.0
 62
     5
 63
     8
 74
     1
 91
        4
 64
     7
 65
   257
 75
     1
175
     1
 42
1.0
 92
        8
 66
     8
 43
1.0
 76
     1
 77
     6
 78
     2
 67
     7
 79
     5
170
     0
171
     0
290
     0
174
     0
 93
        1
 44
0.0
173
     0
291
     1
 45
0.0
1001
ACAD
1000
AcDbSavedByObjectVersion
1070
     0
  0
VISUALSTYLE
  5
34
102
{ACAD_REACTORS
330
2A
102
}
330
2A
100
AcDbVisualStyle
  2
Conceptual
 70
     9
 71
     3
 72
     2
 73
     0
 90
        0
 40
-0.6
 41
-30.0
 62
     5
 63
     7
 74
     2
 91
        2
 64
     7
 65
   257
 75
     1
175
     1
 42
40.0
 92
        8
 66
     7
 43
1.0
 76
     1
 77
     6
 78
     2
 67
     7
 79
     3
170
     0
171
     0
290
     0
174
     0
 93
        1
 44
0.0
173
     0
291
     0
 45
0.0
1001
ACAD
1000
AcDbSavedByObjectVersion
1070
     0
  0
VISUALSTYLE
  5
35
102
{ACAD_REACTORS
330
2A
102
}
330
2A
100
AcDbVisualStyle
  2
Dim
 70
    11
 71
     2
 72
     2
 73
     0
 90
        0
 40
-0.6
 41
-30.0
 62
     5
 63
     7
 74
     1
 91
        4
 64
     7
 65
   257
 75
     1
175
     1
 42
1.0
 92
        8
 66
     7
 43
1.0
 76
     1
 77
     6
 78
     2
 67
     7
 79
     5
170
     0
171
     0
290
     0
174
     0
 93
        1
 44
-50.0
173
     0
291
     1
 45
0.0
1001
ACAD
1000
AcDbSavedByObjectVersion
1070
     0
  0
VISUALSTYLE
  5
39
102
{ACAD_REACTORS
330
2A
102
}
330
2A
100
AcDbVisualStyle
  2
Facepattern
 70
    15
 71
     2
 72
     2
 73
     0
 90
        0
 40
-0.6
 41
-30.0
 62
     5
 63
     7
 74
     1
 91
        4
 64
     7
 65
   257
 75
     1
175
     1
 42
1.0
 92
        8
 66
     7
 43
1.0
 76
     1
 77
     6
 78
     2
 67
     7
 79
     5
170
     0
171
     0
290
     0
174
     0
 93
        1
 44
0.0
173
     0
291
     1
 45
0.0
1001
ACAD
1000
AcDbSavedByObjectVersion
1070
     0
  0
VISUALSTYLE
  5
2B
102
{ACAD_REACTORS
330
2A
102
}
330
2A
100
AcDbVisualStyle
  2
Flat
 70
     0
 71
     2
 72
     1
 73
     1
 90
        2
 40
-0.6
 41
30.0
 62
     5
 63
     7
 74
     0
 91
        4
 64
     7
 65
   257
 75
     1
175
     1
 42
1.0
 92
        8
 66
     7
 43
1.0
 76
     1
 77
     6
 78
     2
 67
     7
 79
     5
170
     0
171
     0
290
     0
174
     0
 93
       13
 44
0.0
173
     0
291
     1
 45
0.0
1001
ACAD
1000
AcDbSavedByObjectVersion
1070
     0
  0
VISUALSTYLE
  5
2C
102
{ACAD_REACTORS
330
2A
102
}
330
2A
100
AcDbVisualStyle
  2
FlatWithEdges
 70
     1
 71
     2
 72
     1
 73
     1
 90
        2
 40
-0.6
 41
30.0
 62
     5
 63
     7
 74
     1
 91
        4
 64
     7
 65
   257
 75
     1
175
     1
 42
1.0
 92
        0
 66
   257
 43
1.0
 76
     1
 77
     6
 78
     2
 67
     7
 79
     5
170
     0
171
     0
290
     0
174
     0
 93
       13
 44
0.0
173
     0
291
     1
 45
0.0
1001
ACAD
1000
AcDbSavedByObjectVersion
1070
     0
  0
VISUALSTYLE
  5
2D
102
{ACAD_REACTORS
330
2A
102
}
330
2A
100
AcDbVisualStyle
  2
Gouraud
 70
     2
 71
     2
 72
     2
 73
     1
 90
        2
 40
-0.6
 41
30.0
 62
     5
 63
     7
 74
     0
 91
        4
 64
     7
 65
   257
 75
     1
175
     1
 42
1.0
 92
        0
 66
     7
 43
1.0
 76
     1
 77
     6
 78
     2
 67
     7
 79
     5
170
     0
171
     0
290
     0
174
     0
 93
       13
 44
0.0
173
     0
291
     1
 45
0.0
1001
ACAD
1000
AcDbSavedByObjectVersion
1070
     0
  0
VISUALSTYLE
  5
2E
102
{ACAD_REACTORS
330
2A
102
}
330
2A
100
AcDbVisualStyle
  2
GouraudWithEdges
 70
     3
 71
     2
 72
     2
 73
     1
 90
        2
 40
-0.6
 41
30.0
 62
     5
 63
     7
 74
     1
 91
        4
 64
     7
 65
   257
 75
     1
175
     1
 42
1.0
 92
        0
 66
   257
 43
1.0
 76
     1
 77
     6
 78
     2
 67
     7
 79
     5
170
     0
171
     0
290
     0
174
     0
 93
       13
 44
0.0
173
     0
291
     1
 45
0.0
1001
ACAD
1000
AcDbSavedByObjectVersion
1070
     0
  0
VISUALSTYLE
  5
38
102
{ACAD_REACTORS
330
2A
102
}
330
2A
100
AcDbVisualStyle
  2
Linepattern
 70
    14
 71
     2
 72
     2
 73
     0
 90
        0
 40
-0.6
 41
-30.0
 62
     5
 63
     7
 74
     1
 91
        4
 64
     7
 65
   257
 75
     7
175
     7
 42
1.0
 92
        8
 66
     7
 43
1.0
 76
     1
 77
     6
 78
     2
 67
     7
 79
     5
170
     0
171
     0
290
     0
174
     0
 93
        1
 44
0.0
173
     0
291
     1
 45
0.0
1001
ACAD
1000
AcDbSavedByObjectVersion
1070
     0
  0
VISUALSTYLE
  5
33
102
{ACAD_REACTORS
330
2A
102
}
330
2A
100
AcDbVisualStyle
  2
Realistic
 70
     8
 71
     2
 72
     2
 73
     0
 90
        0
 40
-0.6
 41
-30.0
 62
     5
 63
     7
 74
     1
 91
        0
 64
     7
 65
   257
 75
     1
175
     1
 42
1.0
 92
        8
 66
     8
 43
1.0
 76
     1
 77
     6
 78
     2
 67
     7
 79
     5
170
     0
171
     0
290
     0
174
     0
 93
       13
 44
0.0
173
     0
291
     0
 45
0.0
1001
ACAD
1000
AcDbSavedByObjectVersion
1070
     0
  0
VISUALSTYLE
  5
37
102
{ACAD_REACTORS
330
2A
102
}
330
2A
100
AcDbVisualStyle
  2
Thicken
 70
    13
 71
     2
 72
     2
 73
     0
 90
        0
 40
-0.6
 41
-30.0
 62
     5
 63
     7
 74
     1
 91
        4
 64
     7
 65
   257
 75
     1
175
     1
 42
1.0
 92
       12
 66
     7
 43
1.0
 76
     1
 77
     6
 78
     2
 67
     7
 79
     5
170
     0
171
     0
290
     0
174
     0
 93
        1
 44
0.0
173
     0
291
     1
 45
0.0
1001
ACAD
1000
AcDbSavedByObjectVersion
1070
     0
  0
DICTIONARYVAR
  5
158
102
{ACAD_REACTORS
330
156
102
}
330
156
100
DictionaryVariables
280
     0
  1
80.000000
  0
DICTIONARYVAR
  5
157
102
{ACAD_REACTORS
330
156
102
}
330
156
100
DictionaryVariables
280
     0
  1
5.000000
  0
ENDSEC
  0
EOF
