  0
SECTION
  2
HEADER
  9
$ACADVER
  1
AC1015
  9
$ACADMAINTVER
 70
     6
  9
$DWGCODEPAGE
  3
ANSI_1252
  9
$INSBASE
 10
0.0
 20
0.0
 30
0.0
  9
$EXTMIN
 10
0.0
 20
0.0
 30
0.0
  9
$EXTMAX
 10
11.0
 20
8.5
 30
0.0
  9
$LIMMIN
 10
0.0
 20
0.0
  9
$LIMMAX
 10
11.0
 20
8.5
  9
$ORTHOMODE
 70
     0
  9
$REGENMODE
 70
     1
  9
$FILLMODE
 70
     1
  9
$QTEXTMODE
 70
     0
  9
$MIRRTEXT
 70
     1
  9
$LTSCALE
 40
1.0
  9
$ATTMODE
 70
     1
  9
$TEXTSIZE
 40
0.25
  9
$TRACEWID
 40
0.05
  9
$TEXTSTYLE
  7
Standard
  9
$CLAYER
  8
0
  9
$CELTYPE
  6
ByLayer
  9
$CECOLOR
 62
   256
  9
$CELTSCALE
 40
1.0
  9
$DISPSILH
 70
     0
  9
$DIMSCALE
 40
1.0
  9
$DIMASZ
 40
0.236
  9
$DIMEXO
 40
0.039
  9
$DIMDLI
 40
0.38
  9
$DIMRND
 40
0.0
  9
$DIMDLE
 40
0.0
  9
$DIMEXE
 40
0.039
  9
$DIMTP
 40
0.0
  9
$DIMTM
 40
0.0
  9
$DIMTXT
 40
0.25
  9
$DIMCEN
 40
0.09
  9
$DIMTSZ
 40
0.0
  9
$DIMTOL
 70
     0
  9
$DIMLIM
 70
     0
  9
$DIMTIH
 70
     1
  9
$DIMTOH
 70
     1
  9
$DIMSE1
 70
     0
  9
$DIMSE2
 70
     0
  9
$DIMTAD
 70
     1
  9
$DIMZIN
 70
     0
  9
$DIMBLK
  1

  9
$DIMASO
 70
     1
  9
$DIMSHO
 70
     1
  9
$DIMPOST
  1

  9
$DIMAPOST
  1

  9
$DIMALT
 70
     0
  9
$DIMALTD
 70
     2
  9
$DIMALTF
 40
25.4
  9
$DIMLFAC
 40
0.2
  9
$DIMTOFL
 70
     0
  9
$DIMTVP
 40
0.0
  9
$DIMTIX
 70
     0
  9
$DIMSOXD
 70
     0
  9
$DIMSAH
 70
     0
  9
$DIMBLK1
  1

  9
$DIMBLK2
  1

  9
$DIMSTYLE
  2
Standard
  9
$DIMCLRD
 70
     0
  9
$DIMCLRE
 70
     0
  9
$DIMCLRT
 70
     0
  9
$DIMTFAC
 40
1.0
  9
$DIMGAP
 40
0.06
  9
$DIMJUST
 70
     0
  9
$DIMSD1
 70
     0
  9
$DIMSD2
 70
     0
  9
$DIMTOLJ
 70
     1
  9
$DIMTZIN
 70
     0
  9
$DIMALTZ
 70
     0
  9
$DIMALTTZ
 70
     0
  9
$DIMUPT
 70
     0
  9
$DIMDEC
 70
     4
  9
$DIMTDEC
 70
     4
  9
$DIMALTU
 70
     2
  9
$DIMALTTD
 70
     2
  9
$DIMTXSTY
  7
Standard
  9
$DIMAUNIT
 70
     0
  9
$DIMADEC
 70
     0
  9
$DIMALTRND
 40
0.0
  9
$DIMAZIN
 70
     0
  9
$DIMDSEP
 70
    46
  9
$DIMATFIT
 70
     3
  9
$DIMFRAC
 70
     0
  9
$DIMLDRBLK
  1

  9
$DIMLUNIT
 70
     2
  9
$DIMLWD
 70
    -2
  9
$DIMLWE
 70
    -2
  9
$DIMTMOVE
 70
     0
  9
$LUNITS
 70
     2
  9
$LUPREC
 70
     3
  9
$SKETCHINC
 40
0.1
  9
$FILLETRAD
 40
0.5
  9
$AUNITS
 70
     0
  9
$AUPREC
 70
     0
  9
$MENU
  1
.
  9
$ELEVATION
 40
0.0
  9
$PELEVATION
 40
0.0
  9
$THICKNESS
 40
0.0
  9
$LIMCHECK
 70
     0
  9
$CHAMFERA
 40
0.5
  9
$CHAMFERB
 40
0.5
  9
$CHAMFERC
 40
1.0
  9
$CHAMFERD
 40
0.0
  9
$SKPOLY
 70
     0
  9
$TDCREATE
 40
2455182.438239699
  9
$TDUCREATE
 40
2455182.646573032
  9
$TDUPDATE
 40
2455182.438239711
  9
$TDUUPDATE
 40
2455182.646573044
  9
$TDINDWG
 40
0.0000000116
  9
$TDUSRTIMER
 40
0.0000000116
  9
$USRTIMER
 70
     1
  9
$ANGBASE
 50
0.0
  9
$ANGDIR
 70
     0
  9
$PDMODE
 70
     0
  9
$PDSIZE
 40
-1.0
  9
$PLINEWID
 40
0.0
  9
$SPLFRAME
 70
     0
  9
$SPLINETYPE
 70
     6
  9
$SPLINESEGS
 70
     8
  9
$HANDSEED
  5
1B9
  9
$SURFTAB1
 70
     6
  9
$SURFTAB2
 70
     6
  9
$SURFTYPE
 70
     6
  9
$SURFU
 70
     6
  9
$SURFV
 70
     6
  9
$UCSBASE
  2

  9
$UCSNAME
  2

  9
$UCSORG
 10
0.0
 20
0.0
 30
0.0
  9
$UCSXDIR
 10
1.0
 20
0.0
 30
0.0
  9
$UCSYDIR
 10
0.0
 20
1.0
 30
0.0
  9
$UCSORTHOREF
  2

  9
$UCSORTHOVIEW
 70
     0
  9
$UCSORGTOP
 10
0.0
 20
0.0
 30
0.0
  9
$UCSORGBOTTOM
 10
0.0
 20
0.0
 30
0.0
  9
$UCSORGLEFT
 10
0.0
 20
0.0
 30
0.0
  9
$UCSORGRIGHT
 10
0.0
 20
0.0
 30
0.0
  9
$UCSORGFRONT
 10
0.0
 20
0.0
 30
0.0
  9
$UCSORGBACK
 10
0.0
 20
0.0
 30
0.0
  9
$PUCSBASE
  2

  9
$PUCSNAME
  2

  9
$PUCSORG
 10
0.0
 20
0.0
 30
0.0
  9
$PUCSXDIR
 10
1.0
 20
0.0
 30
0.0
  9
$PUCSYDIR
 10
0.0
 20
1.0
 30
0.0
  9
$PUCSORTHOREF
  2

  9
$PUCSORTHOVIEW
 70
     0
  9
$PUCSORGTOP
 10
0.0
 20
0.0
 30
0.0
  9
$PUCSORGBOTTOM
 10
0.0
 20
0.0
 30
0.0
  9
$PUCSORGLEFT
 10
0.0
 20
0.0
 30
0.0
  9
$PUCSORGRIGHT
 10
0.0
 20
0.0
 30
0.0
  9
$PUCSORGFRONT
 10
0.0
 20
0.0
 30
0.0
  9
$PUCSORGBACK
 10
0.0
 20
0.0
 30
0.0
  9
$USERI1
 70
     0
  9
$USERI2
 70
     0
  9
$USERI3
 70
     0
  9
$USERI4
 70
     0
  9
$USERI5
 70
     0
  9
$USERR1
 40
0.0
  9
$USERR2
 40
0.0
  9
$USERR3
 40
0.0
  9
$USERR4
 40
0.0
  9
$USERR5
 40
0.0
  9
$WORLDVIEW
 70
     1
  9
$SHADEDGE
 70
     3
  9
$SHADEDIF
 70
    70
  9
$TILEMODE
 70
     1
  9
$MAXACTVP
 70
    64
  9
$PINSBASE
 10
0.0
 20
0.0
 30
0.0
  9
$PLIMCHECK
 70
     0
  9
$PEXTMIN
 10
1.0000000000E+20
 20
1.0000000000E+20
 30
1.0000000000E+20
  9
$PEXTMAX
 10
-1.0000000000E+20
 20
-1.0000000000E+20
 30
-1.0000000000E+20
  9
$PLIMMIN
 10
0.0
 20
0.0
  9
$PLIMMAX
 10
12.0
 20
9.0
  9
$UNITMODE
 70
     0
  9
$VISRETAIN
 70
     1
  9
$PLINEGEN
 70
     0
  9
$PSLTSCALE
 70
     1
  9
$TREEDEPTH
 70
  3020
  9
$CMLSTYLE
  2
Standard
  9
$CMLJUST
 70
     0
  9
$CMLSCALE
 40
1.0
  9
$PROXYGRAPHICS
 70
     1
  9
$MEASUREMENT
 70
     0
  9
$CELWEIGHT
370
    -1
  9
$ENDCAPS
280
     0
  9
$JOINSTYLE
280
     0
  9
$LWDISPLAY
290
     1
  9
$INSUNITS
 70
     1
  9
$HYPERLINKBASE
  1

  9
$STYLESHEET
  1

  9
$XEDIT
290
     1
  9
$CEPSNTYPE
380
     0
  9
$PSTYLEMODE
290
     1
  9
$FINGERPRINTGUID
  2
{EC954564-92C8-4094-B2C0-58BF660F4EC3}
  9
$VERSIONGUID
  2
{FAEB1C32-E019-11D5-929B-00C0DF256EC4}
  9
$EXTNAMES
290
     1
  9
$PSVPSCALE
 40
0.0
  9
$OLESTARTUP
290
     0
  0
ENDSEC
  0
SECTION
  2
CLASSES
  0
CLASS
  1
ACDBDICTIONARYWDFLT
  2
AcDbDictionaryWithDefault
  3
ObjectDBX Classes
 90
        0
280
     0
281
     0
  0
CLASS
  1
VISUALSTYLE
  2
AcDbVisualStyle
  3
ObjectDBX Classes
 90
     4095
280
     0
281
     0
  0
CLASS
  1
ACDBPLACEHOLDER
  2
AcDbPlaceHolder
  3
ObjectDBX Classes
 90
        0
280
     0
281
     0
  0
CLASS
  1
LAYOUT
  2
AcDbLayout
  3
ObjectDBX Classes
 90
        0
280
     0
281
     0
  0
ENDSEC
  0
SECTION
  2
TABLES
  0
TABLE
  2
VPORT
  5
8
330
0
100
AcDbSymbolTable
 70
     1
  0
VPORT
  5
29
330
8
100
AcDbSymbolTableRecord
100
AcDbViewportTableRecord
  2
*Active
 70
     0
 10
0.0
 20
0.0
 11
1.0
 21
1.0
 12
5.5
 22
4.25
 13
0.0
 23
0.0
 14
0.5
 24
0.5
 15
0.5
 25
0.5
 16
0.0
 26
0.0
 36
1.0
 17
0.0
 27
0.0
 37
0.0
 40
8.5
 41
1.2941176471
 42
50.0
 43
0.0
 44
0.0
 50
0.0
 51
0.0
 71
     0
 72
  2000
 73
     1
 74
     3
 75
     0
 76
     0
 77
     0
 78
     0
281
     0
 65
     1
110
0.0
120
0.0
130
0.0
111
1.0
121
0.0
131
0.0
112
0.0
122
1.0
132
0.0
 79
     0
146
0.0
  0
ENDTAB
  0
TABLE
  2
LTYPE
  5
5
330
0
100
AcDbSymbolTable
 70
     6
  0
LTYPE
  5
14
330
5
100
AcDbSymbolTableRecord
100
AcDbLinetypeTableRecord
  2
ByBlock
 70
     0
  3

 72
    65
 73
     0
 40
0.0
  0
LTYPE
  5
15
330
5
100
AcDbSymbolTableRecord
100
AcDbLinetypeTableRecord
  2
ByLayer
 70
     0
  3

 72
    65
 73
     0
 40
0.0
  0
LTYPE
  5
16
330
5
100
AcDbSymbolTableRecord
100
AcDbLinetypeTableRecord
  2
Continuous
 70
     0
  3
Solid line
 72
    65
 73
     0
 40
0.0
  0
LTYPE
  5
3B
330
5
100
AcDbSymbolTableRecord
100
AcDbLinetypeTableRecord
  2
HIDDEN
 70
     0
  3
Hidden __ __ __ __ __ __ __ __ __ __ __ __ __ __
 72
    65
 73
     2
 40
0.075
 49
0.05
 74
     0
 49
-0.025
 74
     0
  0
LTYPE
  5
3C
330
5
100
AcDbSymbolTableRecord
100
AcDbLinetypeTableRecord
  2
PHANTOM
 70
     0
  3
Phantom ______  __  __  ______  __  __  ______
 72
    65
 73
     6
 40
0.5
 49
0.25
 74
     0
 49
-0.05
 74
     0
 49
0.05
 74
     0
 49
-0.05
 74
     0
 49
0.05
 74
     0
 49
-0.05
 74
     0
  0
LTYPE
  5
3D
330
5
100
AcDbSymbolTableRecord
100
AcDbLinetypeTableRecord
  2
CENTER
 70
     0
  3
Center ____ _ ____ _ ____ _ ____ _ ____ _ ____
 72
    65
 73
     4
 40
0.4
 49
0.25
 74
     0
 49
-0.05
 74
     0
 49
0.05
 74
     0
 49
-0.05
 74
     0
  0
LTYPE
  5
3E
330
5
100
AcDbSymbolTableRecord
100
AcDbLinetypeTableRecord
  2
CENTERX2
 70
     0
  3
Center (2x) ________  __  ________  __  _____
 72
    65
 73
     4
 40
0.8
 49
0.5
 74
     0
 49
-0.1
 74
     0
 49
0.1
 74
     0
 49
-0.1
 74
     0
  0
LTYPE
  5
3F
330
5
100
AcDbSymbolTableRecord
100
AcDbLinetypeTableRecord
  2
DOT2
 70
     0
  3
Dot (.5x) ........................................
 72
    65
 73
     2
 40
0.025
 49
0.0
 74
     0
 49
-0.025
 74
     0
  0
ENDTAB
  0
TABLE
  2
LAYER
  5
2
330
0
100
AcDbSymbolTable
 70
     2
  0
LAYER
  5
10
330
2
100
AcDbSymbolTableRecord
100
AcDbLayerTableRecord
  2
0
 70
     0
 62
     7
  6
Continuous
370
    -3
390
F
  0
LAYER
  5
40
330
2
100
AcDbSymbolTableRecord
100
AcDbLayerTableRecord
  2
FORMAT
 70
     0
 62
     7
  6
Continuous
370
    -3
390
F
  0
ENDTAB
  0
TABLE
  2
STYLE
  5
3
330
0
100
AcDbSymbolTable
 70
     5
  0
STYLE
  5
11
330
3
100
AcDbSymbolTableRecord
100
AcDbTextStyleTableRecord
  2
Standard
 70
     0
 40
0.0
 41
1.0
 50
0.0
 71
     0
 42
0.2
  3
txt
  4

  0
STYLE
  5
67
330
3
100
AcDbSymbolTableRecord
100
AcDbTextStyleTableRecord
  2
SLDTEXTSTYLE0
 70
     0
 40
0.0
 41
0.75
 50
0.0
 71
     0
 42
0.2
  3
TXT
  4

  0
STYLE
  5
6C
330
3
100
AcDbSymbolTableRecord
100
AcDbTextStyleTableRecord
  2
SLDTEXTSTYLE1
 70
     0
 40
0.0
 41
0.6944444444
 50
0.0
 71
     0
 42
0.2
  3
TXT
  4

  0
STYLE
  5
74
330
3
100
AcDbSymbolTableRecord
100
AcDbTextStyleTableRecord
  2
SLDTEXTSTYLE2
 70
     0
 40
0.0
 41
0.6847826087
 50
0.0
 71
     0
 42
0.2
  3
TXT
  4

  0
STYLE
  5
90
330
3
100
AcDbSymbolTableRecord
100
AcDbTextStyleTableRecord
  2
SLDTEXTSTYLE3
 70
     0
 40
0.0
 41
0.6875
 50
0.0
 71
     0
 42
0.2
  3
TXT
  4

  0
ENDTAB
  0
TABLE
  2
VIEW
  5
6
330
0
100
AcDbSymbolTable
 70
     0
  0
ENDTAB
  0
TABLE
  2
UCS
  5
7
330
0
100
AcDbSymbolTable
 70
     0
  0
ENDTAB
  0
TABLE
  2
APPID
  5
9
330
0
100
AcDbSymbolTable
 70
     1
  0
APPID
  5
12
330
9
100
AcDbSymbolTableRecord
100
AcDbRegAppTableRecord
  2
ACAD
 70
     0
  0
ENDTAB
  0
TABLE
  2
DIMSTYLE
  5
A
330
0
100
AcDbSymbolTable
 70
     6
100
AcDbDimStyleTable
  0
DIMSTYLE
105
27
330
A
100
AcDbSymbolTableRecord
100
AcDbDimStyleTableRecord
  2
Standard
 70
     0
340
11
  0
DIMSTYLE
105
B4
102
{ACAD_REACTORS
330
B3
330
C9
330
10D
330
17E
330
18C
330
19A
330
1A8
102
}
330
A
100
AcDbSymbolTableRecord
100
AcDbDimStyleTableRecord
  2
SLDDIMSTYLE0
 70
     0
 41
0.236
 44
0.0
 45
0.000000001
 73
     0
 74
     0
 77
     2
 78
    12
140
0.25
144
0.2
147
0.0625
173
     1
271
     3
272
     2
284
    12
340
67
341
B5
343
B5
344
B5
  0
DIMSTYLE
105
D8
102
{ACAD_REACTORS
330
D7
102
}
330
A
100
AcDbSymbolTableRecord
100
AcDbDimStyleTableRecord
  2
SLDDIMSTYLE1
 70
     0
 41
0.236
 44
0.0
 45
0.000000001
 73
     0
 74
     0
 77
     2
 78
    12
140
0.25
144
0.2
147
0.0625
173
     1
271
     3
272
     2
284
    12
340
67
341
B5
343
B5
344
B5
  0
DIMSTYLE
105
11C
102
{ACAD_REACTORS
330
11B
102
}
330
A
100
AcDbSymbolTableRecord
100
AcDbDimStyleTableRecord
  2
SLDDIMSTYLE2
 70
     0
 41
0.236
 44
0.0
 45
0.000000001
 73
     0
 74
     0
 77
     2
 78
    12
140
0.25
144
0.2
147
0.0625
173
     1
271
     3
272
     2
284
    12
340
67
341
B5
343
B5
344
B5
  0
DIMSTYLE
105
129
102
{ACAD_REACTORS
330
128
102
}
330
A
100
AcDbSymbolTableRecord
100
AcDbDimStyleTableRecord
  2
SLDDIMSTYLE3
 70
     0
  3
<>
 41
0.236
 44
0.0
 45
0.000000001
 78
    12
140
0.25
144
0.2
147
0.0625
173
     1
271
     0
272
     2
284
    12
340
67
341
B5
343
B5
344
B5
  0
DIMSTYLE
105
142
102
{ACAD_REACTORS
330
141
102
}
330
A
100
AcDbSymbolTableRecord
100
AcDbDimStyleTableRecord
  2
SLDDIMSTYLE4
 70
     0
 41
0.236
 44
0.0
 45
0.000000001
 78
     4
140
0.25
144
0.2
147
0.0625
173
     1
271
     3
272
     2
284
    12
340
67
341
B5
343
B5
344
B5
  0
ENDTAB
  0
TABLE
  2
BLOCK_RECORD
  5
1
330
0
100
AcDbSymbolTable
 70
    17
  0
BLOCK_RECORD
  5
1F
330
1
100
AcDbSymbolTableRecord
100
AcDbBlockTableRecord
  2
*Model_Space
340
22
  0
BLOCK_RECORD
  5
1B
330
1
100
AcDbSymbolTableRecord
100
AcDbBlockTableRecord
  2
*Paper_Space
340
1E
  0
BLOCK_RECORD
  5
23
330
1
100
AcDbSymbolTableRecord
100
AcDbBlockTableRecord
  2
*Paper_Space0
340
26
  0
BLOCK_RECORD
  5
79
330
1
100
AcDbSymbolTableRecord
100
AcDbBlockTableRecord
  2
SW_NOTE_0
340
0
102
{BLKREFS
331
88
102
}
  0
BLOCK_RECORD
  5
94
330
1
100
AcDbSymbolTableRecord
100
AcDbBlockTableRecord
  2
SW_NOTE_1
340
0
102
{BLKREFS
331
9E
102
}
  0
BLOCK_RECORD
  5
B5
330
1
100
AcDbSymbolTableRecord
100
AcDbBlockTableRecord
  2
_CLOSED
340
0
102
{BLKREFS
331
C1
331
C2
331
CF
331
D0
331
DE
331
113
331
114
331
122
331
123
331
12E
331
146
331
15E
331
160
331
184
331
185
331
192
331
193
331
1A0
331
1A1
331
1AE
331
1AF
102
}
  0
BLOCK_RECORD
  5
BC
330
1
100
AcDbSymbolTableRecord
100
AcDbBlockTableRecord
  2
*D4
340
0
  0
BLOCK_RECORD
  5
CA
330
1
100
AcDbSymbolTableRecord
100
AcDbBlockTableRecord
  2
*D5
340
0
  0
BLOCK_RECORD
  5
D9
330
1
100
AcDbSymbolTableRecord
100
AcDbBlockTableRecord
  2
*D6
340
0
  0
BLOCK_RECORD
  5
10E
330
1
100
AcDbSymbolTableRecord
100
AcDbBlockTableRecord
  2
*D7
340
0
  0
BLOCK_RECORD
  5
11D
330
1
100
AcDbSymbolTableRecord
100
AcDbBlockTableRecord
  2
*D8
340
0
  0
BLOCK_RECORD
  5
12A
330
1
100
AcDbSymbolTableRecord
100
AcDbBlockTableRecord
  2
*D9
340
0
  0
BLOCK_RECORD
  5
137
330
1
100
AcDbSymbolTableRecord
100
AcDbBlockTableRecord
  2
SW_SYMBOL_HOLE_DEPTH
340
0
102
{BLKREFS
331
13E
331
154
102
}
  0
BLOCK_RECORD
  5
143
330
1
100
AcDbSymbolTableRecord
100
AcDbBlockTableRecord
  2
*D11
340
0
  0
BLOCK_RECORD
  5
149
330
1
100
AcDbSymbolTableRecord
100
AcDbBlockTableRecord
  2
SW_SYMBOL_HOLE_SPOT
340
0
102
{BLKREFS
331
14F
102
}
  0
BLOCK_RECORD
  5
17F
330
1
100
AcDbSymbolTableRecord
100
AcDbBlockTableRecord
  2
*D13
340
0
  0
BLOCK_RECORD
  5
18D
330
1
100
AcDbSymbolTableRecord
100
AcDbBlockTableRecord
  2
*D14
340
0
  0
BLOCK_RECORD
  5
19B
330
1
100
AcDbSymbolTableRecord
100
AcDbBlockTableRecord
  2
*D15
340
0
  0
BLOCK_RECORD
  5
1A9
330
1
100
AcDbSymbolTableRecord
100
AcDbBlockTableRecord
  2
*D16
340
0
  0
ENDTAB
  0
ENDSEC
  0
SECTION
  2
BLOCKS
  0
BLOCK
  5
20
330
1F
100
AcDbEntity
  8
0
100
AcDbBlockBegin
  2
*Model_Space
 70
     0
 10
0.0
 20
0.0
 30
0.0
  3
*Model_Space
  1

  0
ENDBLK
  5
21
330
1F
100
AcDbEntity
  8
0
100
AcDbBlockEnd
  0
BLOCK
  5
1C
330
1B
100
AcDbEntity
 67
     1
  8
0
100
AcDbBlockBegin
  2
*Paper_Space
 70
     0
 10
0.0
 20
0.0
 30
0.0
  3
*Paper_Space
  1

  0
ENDBLK
  5
1D
330
1B
100
AcDbEntity
 67
     1
  8
0
100
AcDbBlockEnd
  0
BLOCK
  5
24
330
23
100
AcDbEntity
  8
0
100
AcDbBlockBegin
  2
*Paper_Space0
 70
     0
 10
0.0
 20
0.0
 30
0.0
  3
*Paper_Space0
  1

  0
ENDBLK
  5
25
330
23
100
AcDbEntity
  8
0
100
AcDbBlockEnd
  0
BLOCK
  5
7A
330
79
100
AcDbEntity
  8
0
100
AcDbBlockBegin
  2
SW_NOTE_0
 70
     0
 10
0.0
 20
0.0
 30
0.0
  3
SW_NOTE_0
  1

  0
MTEXT
  5
7C
330
79
100
AcDbEntity
  8
0
  6
Continuous
 62
     0
370
     0
100
AcDbMText
 10
0.0
 20
0.0805667337
 30
0.0
 40
0.0625
 41
0.0
 71
     1
 72
     1
  1
DIMENSIONS ARE IN INCHES
  7
SLDTEXTSTYLE0
 73
     1
 44
1.0
  0
MTEXT
  5
7D
330
79
100
AcDbEntity
  8
0
  6
Continuous
 62
     0
370
     0
100
AcDbMText
 10
0.0
 20
-0.0213033461
 30
0.0
 40
0.0625
 41
0.0
 71
     1
 72
     1
  1
TOLERANCES:
  7
SLDTEXTSTYLE0
 73
     1
 44
1.0
  0
MTEXT
  5
7E
330
79
100
AcDbEntity
  8
0
  6
Continuous
 62
     0
370
     0
100
AcDbMText
 10
0.0
 20
-0.123173426
 30
0.0
 40
0.0625
 41
0.0
 71
     1
 72
     1
  1
FRACTIONAL
  7
SLDTEXTSTYLE0
 73
     1
 44
1.0
  0
MTEXT
  5
7F
330
79
100
AcDbEntity
  8
0
  6
Continuous
 62
     0
370
     0
100
AcDbMText
 10
0.4976779574
 20
-0.123173426
 30
0.0
 40
0.0625
 41
0.0
 71
     1
 72
     1
  1
%%p
  7
SLDTEXTSTYLE0
 73
     1
 44
1.0
  0
MTEXT
  5
80
330
79
100
AcDbEntity
  8
0
  6
Continuous
 62
     0
370
     0
100
AcDbMText
 10
0.0
 20
-0.2250435058
 30
0.0
 40
0.0625
 41
0.0
 71
     1
 72
     1
  1
ANGULAR: MACH
  7
SLDTEXTSTYLE0
 73
     1
 44
1.0
  0
MTEXT
  5
81
330
79
100
AcDbEntity
  8
0
  6
Continuous
 62
     0
370
     0
100
AcDbMText
 10
0.6955512249
 20
-0.2250435058
 30
0.0
 40
0.0625
 41
0.0
 71
     1
 72
     1
  1
%%p
  7
SLDTEXTSTYLE0
 73
     1
 44
1.0
  0
MTEXT
  5
82
330
79
100
AcDbEntity
  8
0
  6
Continuous
 62
     0
370
     0
100
AcDbMText
 10
0.7550824639
 20
-0.2250435058
 30
0.0
 40
0.0625
 41
0.0
 71
     1
 72
     1
  1
     BEND 
  7
SLDTEXTSTYLE0
 73
     1
 44
1.0
  0
MTEXT
  5
83
330
79
100
AcDbEntity
  8
0
  6
Continuous
 62
     0
370
     0
100
AcDbMText
 10
1.10369359
 20
-0.2250435058
 30
0.0
 40
0.0625
 41
0.0
 71
     1
 72
     1
  1
%%p
  7
SLDTEXTSTYLE0
 73
     1
 44
1.0
  0
MTEXT
  5
84
330
79
100
AcDbEntity
  8
0
  6
Continuous
 62
     0
370
     0
100
AcDbMText
 10
0.0
 20
-0.3269135857
 30
0.0
 40
0.0625
 41
0.0
 71
     1
 72
     1
  1
TWO PLACE DECIMAL    
  7
SLDTEXTSTYLE0
 73
     1
 44
1.0
  0
MTEXT
  5
85
330
79
100
AcDbEntity
  8
0
  6
Continuous
 62
     0
370
     0
100
AcDbMText
 10
0.941764314
 20
-0.3269135857
 30
0.0
 40
0.0625
 41
0.0
 71
     1
 72
     1
  1
%%p
  7
SLDTEXTSTYLE0
 73
     1
 44
1.0
  0
MTEXT
  5
86
330
79
100
AcDbEntity
  8
0
  6
Continuous
 62
     0
370
     0
100
AcDbMText
 10
0.0
 20
-0.4287836655
 30
0.0
 40
0.0625
 41
0.0
 71
     1
 72
     1
  1
THREE PLACE DECIMAL  
  7
SLDTEXTSTYLE0
 73
     1
 44
1.0
  0
MTEXT
  5
87
330
79
100
AcDbEntity
  8
0
  6
Continuous
 62
     0
370
     0
100
AcDbMText
 10
0.9363498099
 20
-0.4287836655
 30
0.0
 40
0.0625
 41
0.0
 71
     1
 72
     1
  1
%%p
  7
SLDTEXTSTYLE0
 73
     1
 44
1.0
  0
ENDBLK
  5
7B
330
79
100
AcDbEntity
  8
0
100
AcDbBlockEnd
  0
BLOCK
  5
95
330
94
100
AcDbEntity
  8
0
100
AcDbBlockBegin
  2
SW_NOTE_1
 70
     0
 10
0.0
 20
0.0
 30
0.0
  3
SW_NOTE_1
  1

  0
MTEXT
  5
97
330
94
100
AcDbEntity
  8
0
  6
Continuous
 62
     0
370
     0
100
AcDbMText
 10
0.0
 20
0.0773440644
 30
0.0
 40
0.06
 41
0.0
 71
     1
 72
     1
  1
THE INFORMATION CONTAINED IN THIS
  7
SLDTEXTSTYLE0
 73
     1
 44
1.0
  0
MTEXT
  5
98
330
94
100
AcDbEntity
  8
0
  6
Continuous
 62
     0
370
     0
100
AcDbMText
 10
0.0
 20
-0.0220260102
 30
0.0
 40
0.06
 41
0.0
 71
     1
 72
     1
  1
DRAWING IS THE SOLE PROPERTY OF
  7
SLDTEXTSTYLE0
 73
     1
 44
1.0
  0
MTEXT
  5
99
330
94
100
AcDbEntity
  8
0
  6
Continuous
 62
     0
370
     0
100
AcDbMText
 10
0.0
 20
-0.1213960848
 30
0.0
 40
0.06
 41
0.0
 71
     1
 72
     1
  1
<INSERT COMPANY NAME HERE>.  ANY 
  7
SLDTEXTSTYLE0
 73
     1
 44
1.0
  0
MTEXT
  5
9A
330
94
100
AcDbEntity
  8
0
  6
Continuous
 62
     0
370
     0
100
AcDbMText
 10
0.0
 20
-0.2207661593
 30
0.0
 40
0.06
 41
0.0
 71
     1
 72
     1
  1
REPRODUCTION IN PART OR AS A WHOLE
  7
SLDTEXTSTYLE0
 73
     1
 44
1.0
  0
MTEXT
  5
9B
330
94
100
AcDbEntity
  8
0
  6
Continuous
 62
     0
370
     0
100
AcDbMText
 10
0.0
 20
-0.3201362339
 30
0.0
 40
0.06
 41
0.0
 71
     1
 72
     1
  1
WITHOUT THE WRITTEN PERMISSION OF
  7
SLDTEXTSTYLE0
 73
     1
 44
1.0
  0
MTEXT
  5
9C
330
94
100
AcDbEntity
  8
0
  6
Continuous
 62
     0
370
     0
100
AcDbMText
 10
0.0
 20
-0.4195063085
 30
0.0
 40
0.06
 41
0.0
 71
     1
 72
     1
  1
<INSERT COMPANY NAME HERE> IS 
  7
SLDTEXTSTYLE0
 73
     1
 44
1.0
  0
MTEXT
  5
9D
330
94
100
AcDbEntity
  8
0
  6
Continuous
 62
     0
370
     0
100
AcDbMText
 10
0.0
 20
-0.518876383
 30
0.0
 40
0.06
 41
0.0
 71
     1
 72
     1
  1
PROHIBITED.
  7
SLDTEXTSTYLE0
 73
     1
 44
1.0
  0
ENDBLK
  5
96
330
94
100
AcDbEntity
  8
0
100
AcDbBlockEnd
  0
BLOCK
  5
B6
330
B5
100
AcDbEntity
  8
0
100
AcDbBlockBegin
  2
_CLOSED
 70
     0
 10
0.0
 20
0.0
 30
0.0
  3
_CLOSED
  1

  0
LINE
  5
B8
330
B5
100
AcDbEntity
  8
0
  6
ByBlock
 62
     0
370
    -2
100
AcDbLine
 10
-1.0
 20
0.166667
 30
0.0
 11
0.0
 21
0.0
 31
0.0
  0
LINE
  5
B9
330
B5
100
AcDbEntity
  8
0
  6
ByBlock
 62
     0
370
    -2
100
AcDbLine
 10
0.0
 20
0.0
 30
0.0
 11
-1.0
 21
-0.166667
 31
0.0
  0
LINE
  5
BA
330
B5
100
AcDbEntity
  8
0
  6
ByBlock
 62
     0
370
    -2
100
AcDbLine
 10
-1.0
 20
0.166667
 30
0.0
 11
-1.0
 21
-0.166667
 31
0.0
  0
LINE
  5
BB
330
B5
100
AcDbEntity
  8
0
  6
ByBlock
 62
     0
370
    -2
100
AcDbLine
 10
0.0
 20
0.0
 30
0.0
 11
-1.0
 21
0.0
 31
0.0
  0
ENDBLK
  5
B7
330
B5
100
AcDbEntity
  8
0
100
AcDbBlockEnd
  0
BLOCK
  5
BD
330
BC
100
AcDbEntity
  8
0
100
AcDbBlockBegin
  2
*D4
 70
     1
 10
0.0
 20
0.0
 30
0.0
  3
*D4
  1

  0
ARC
  5
BF
330
BC
100
AcDbEntity
  8
FORMAT
100
AcDbCircle
 10
8.345085651
 20
6.7143770491
 30
0.0
 40
0.4436740516575851
100
AcDbArc
 50
153.4349488229
 51
206.5650511771
  0
ARC
  5
C0
330
BC
100
AcDbEntity
  8
FORMAT
100
AcDbCircle
 10
8.5076453982
 20
6.7143770491
 30
0.0
 40
0.4436740516575875
100
AcDbArc
 50
333.4349488229
 51
26.5650511771
  0
INSERT
  5
C1
330
BC
100
AcDbEntity
  8
FORMAT
100
AcDbBlockReference
  2
_CLOSED
 10
7.7713650728
 20
6.5159599813
 30
-0.2928149606
 41
0.236
 42
0.236
 50
0.0
  0
INSERT
  5
C2
330
BC
100
AcDbEntity
  8
FORMAT
100
AcDbBlockReference
  2
_CLOSED
 10
9.1296327893
 20
6.5159599813
 30
-0.2928149606
 41
0.236
 42
0.236
 50
180.0
  0
LINE
  5
C3
330
BC
100
AcDbEntity
  8
FORMAT
100
AcDbLine
 10
7.7713650728
 20
5.3909209548
 30
0.0
 11
7.7713650728
 21
6.5549599813
 31
0.0
  0
LINE
  5
C4
330
BC
100
AcDbEntity
  8
FORMAT
100
AcDbLine
 10
9.1296327893
 20
5.3909209548
 30
0.0
 11
9.1296327893
 21
6.5549599813
 31
0.0
  0
LINE
  5
C5
330
BC
100
AcDbEntity
  8
FORMAT
100
AcDbLine
 10
7.7713650728
 20
6.5159599813
 30
0.0
 11
7.2993650728
 21
6.5159599813
 31
0.0
  0
LINE
  5
C6
330
BC
100
AcDbEntity
  8
FORMAT
100
AcDbLine
 10
7.7713650728
 20
6.5159599813
 30
0.0
 11
9.1296327893
 21
6.5159599813
 31
0.0
  0
LINE
  5
C7
330
BC
100
AcDbEntity
  8
FORMAT
100
AcDbLine
 10
9.1296327893
 20
6.5159599813
 30
0.0
 11
9.6016327893
 21
6.5159599813
 31
0.0
  0
MTEXT
  5
C8
330
BC
100
AcDbEntity
  8
FORMAT
100
AcDbMText
 10
8.0107515153
 20
6.8382269437
 30
0.0
 40
0.25
 41
0.0
 71
     1
 72
     1
  1
0.272
  7
SLDTEXTSTYLE0
 73
     1
 44
1.0
  0
ENDBLK
  5
BE
330
BC
100
AcDbEntity
  8
0
100
AcDbBlockEnd
  0
BLOCK
  5
CB
330
CA
100
AcDbEntity
  8
0
100
AcDbBlockBegin
  2
*D5
 70
     1
 10
0.0
 20
0.0
 30
0.0
  3
*D5
  1

  0
ARC
  5
CD
330
CA
100
AcDbEntity
  8
FORMAT
100
AcDbCircle
 10
7.2463402433
 20
4.8294222062
 30
0.0
 40
0.4436740516575839
100
AcDbArc
 50
243.4349488229
 51
296.5650511771
  0
ARC
  5
CE
330
CA
100
AcDbEntity
  8
FORMAT
100
AcDbCircle
 10
7.2463402433
 20
4.9919819534
 30
0.0
 40
0.4436740516575836
100
AcDbArc
 50
63.4349488229
 51
116.5650511771
  0
INSERT
  5
CF
330
CA
100
AcDbEntity
  8
FORMAT
100
AcDbBlockReference
  2
_CLOSED
 10
7.4447573112
 20
5.5487713485
 30
-0.2928149606
 41
0.236
 42
0.236
 50
270.0
  0
INSERT
  5
D0
330
CA
100
AcDbEntity
  8
FORMAT
100
AcDbBlockReference
  2
_CLOSED
 10
7.4447573112
 20
4.1905036319
 30
-0.2928149606
 41
0.236
 42
0.236
 50
90.0
  0
LINE
  5
D1
330
CA
100
AcDbEntity
  8
FORMAT
100
AcDbLine
 10
7.9292154665
 20
5.5487713485
 30
0.0
 11
7.4057573112
 21
5.5487713485
 31
0.0
  0
LINE
  5
D2
330
CA
100
AcDbEntity
  8
FORMAT
100
AcDbLine
 10
7.9292154665
 20
4.1905036319
 30
0.0
 11
7.4057573112
 21
4.1905036319
 31
0.0
  0
LINE
  5
D3
330
CA
100
AcDbEntity
  8
FORMAT
100
AcDbLine
 10
7.4447573112
 20
5.5487713485
 30
0.0
 11
7.4447573112
 21
6.0207713485
 31
0.0
  0
LINE
  5
D4
330
CA
100
AcDbEntity
  8
FORMAT
100
AcDbLine
 10
7.4447573112
 20
5.5487713485
 30
0.0
 11
7.4447573112
 21
4.1905036319
 31
0.0
  0
LINE
  5
D5
330
CA
100
AcDbEntity
  8
FORMAT
100
AcDbLine
 10
7.4447573112
 20
4.1905036319
 30
0.0
 11
7.4447573112
 21
3.7185036319
 31
0.0
  0
MTEXT
  5
D6
330
CA
100
AcDbEntity
  8
FORMAT
100
AcDbMText
 10
7.1224903488
 20
4.4950880705
 30
0.0
 40
0.25
 41
0.0
 71
     1
 72
     1
  1
0.272
  7
SLDTEXTSTYLE0
 11
-7.044195017643634E-15
 21
1.0
 31
0.0
 73
     1
 44
1.0
  0
ENDBLK
  5
CC
330
CA
100
AcDbEntity
  8
0
100
AcDbBlockEnd
  0
BLOCK
  5
DA
330
D9
100
AcDbEntity
  8
0
100
AcDbBlockBegin
  2
*D6
 70
     1
 10
0.0
 20
0.0
 30
0.0
  3
*D6
  1

  0
ARC
  5
DC
330
D9
100
AcDbEntity
  8
FORMAT
100
AcDbCircle
 10
9.9739891758
 20
3.6242347236
 30
0.0
 40
0.4436740516575862
100
AcDbArc
 50
108.4349488199
 51
161.5650511741
  0
ARC
  5
DD
330
D9
100
AcDbEntity
  8
FORMAT
100
AcDbCircle
 10
10.2320355373
 20
3.366188362
 30
0.0
 40
0.4436740516575863
100
AcDbArc
 50
288.4349488199
 51
341.5650511741
  0
INSERT
  5
DE
330
D9
100
AcDbEntity
  8
FORMAT
100
AcDbBlockReference
  2
_CLOSED
 10
9.0719766439
 20
4.2481597774
 30
-0.2928149606
 41
0.236
 42
0.236
 50
134.999999997
  0
LINE
  5
DF
330
D9
100
AcDbEntity
  8
FORMAT
100
AcDbLine
 10
9.0719766439
 20
4.2481597774
 30
0.0
 11
10.4177900804
 21
2.9023463407
 31
0.0
  0
LINE
  5
E0
330
D9
100
AcDbEntity
  8
FORMAT
100
AcDbLine
 10
9.0719766439
 20
4.2481597774
 30
0.0
 11
8.9327823956
 21
4.3873540256
 31
0.0
  0
MTEXT
  5
E1
330
D9
100
AcDbEntity
  8
FORMAT
100
AcDbMText
 10
9.8251543415
 20
3.9482197584
 30
0.0
 40
0.25
 41
0.0
 71
     1
 72
     1
  1
R
  7
SLDTEXTSTYLE0
 11
0.7071067811491918
 21
-0.7071067812239034
 31
0.0
 73
     1
 44
1.0
  0
MTEXT
  5
E2
330
D9
100
AcDbEntity
  8
FORMAT
100
AcDbMText
 10
9.9682536035
 20
3.8051204964
 30
0.0
 40
0.25
 41
0.0
 71
     1
 72
     1
  1
0.039
  7
SLDTEXTSTYLE0
 11
0.7071067811491918
 21
-0.7071067812239034
 31
0.0
 73
     1
 44
1.0
  0
ENDBLK
  5
DB
330
D9
100
AcDbEntity
  8
0
100
AcDbBlockEnd
  0
BLOCK
  5
10F
330
10E
100
AcDbEntity
  8
0
100
AcDbBlockBegin
  2
*D7
 70
     1
 10
0.0
 20
0.0
 30
0.0
  3
*D7
  1

  0
ARC
  5
111
330
10E
100
AcDbEntity
  8
FORMAT
100
AcDbCircle
 10
5.3197473624
 20
6.6743389367
 30
0.0
 40
0.4436740516575843
100
AcDbArc
 50
153.4349488229
 51
206.5650511771
  0
ARC
  5
112
330
10E
100
AcDbEntity
  8
FORMAT
100
AcDbCircle
 10
5.4823071096
 20
6.6743389367
 30
0.0
 40
0.4436740516575835
100
AcDbArc
 50
333.4349488229
 51
26.5650511771
  0
INSERT
  5
113
330
10E
100
AcDbEntity
  8
FORMAT
100
AcDbBlockReference
  2
_CLOSED
 10
4.1233039787
 20
6.4759218689
 30
0.3321850394
 41
0.236
 42
0.236
 50
0.0
  0
INSERT
  5
114
330
10E
100
AcDbEntity
  8
FORMAT
100
AcDbBlockReference
  2
_CLOSED
 10
5.894957522
 20
6.4759218689
 30
0.3321850394
 41
0.236
 42
0.236
 50
180.0
  0
LINE
  5
115
330
10E
100
AcDbEntity
  8
FORMAT
100
AcDbLine
 10
4.1233039787
 20
6.1881650493
 30
0.0
 11
4.1233039787
 21
6.5149218689
 31
0.0
  0
LINE
  5
116
330
10E
100
AcDbEntity
  8
FORMAT
100
AcDbLine
 10
5.894957522
 20
6.1881650493
 30
0.0
 11
5.894957522
 21
6.5149218689
 31
0.0
  0
LINE
  5
117
330
10E
100
AcDbEntity
  8
FORMAT
100
AcDbLine
 10
4.1233039787
 20
6.4759218689
 30
0.0
 11
3.6513039787
 21
6.4759218689
 31
0.0
  0
LINE
  5
118
330
10E
100
AcDbEntity
  8
FORMAT
100
AcDbLine
 10
4.1233039787
 20
6.4759218689
 30
0.0
 11
5.894957522
 21
6.4759218689
 31
0.0
  0
LINE
  5
119
330
10E
100
AcDbEntity
  8
FORMAT
100
AcDbLine
 10
5.894957522
 20
6.4759218689
 30
0.0
 11
6.366957522
 21
6.4759218689
 31
0.0
  0
MTEXT
  5
11A
330
10E
100
AcDbEntity
  8
FORMAT
100
AcDbMText
 10
4.9854132267
 20
6.7981888313
 30
0.0
 40
0.25
 41
0.0
 71
     1
 72
     1
  1
0.354
  7
SLDTEXTSTYLE0
 73
     1
 44
1.0
  0
ENDBLK
  5
110
330
10E
100
AcDbEntity
  8
0
100
AcDbBlockEnd
  0
BLOCK
  5
11E
330
11D
100
AcDbEntity
  8
0
100
AcDbBlockBegin
  2
*D8
 70
     1
 10
0.0
 20
0.0
 30
0.0
  3
*D8
  1

  0
ARC
  5
120
330
11D
100
AcDbEntity
  8
FORMAT
100
AcDbCircle
 10
3.6802703216
 20
5.1355602071
 30
0.0
 40
0.4436740516575849
100
AcDbArc
 50
243.4349488229
 51
296.5650511771
  0
ARC
  5
121
330
11D
100
AcDbEntity
  8
FORMAT
100
AcDbCircle
 10
3.6802703216
 20
5.2981199542
 30
0.0
 40
0.4436740516575855
100
AcDbArc
 50
63.4349488229
 51
116.5650511771
  0
INSERT
  5
122
330
11D
100
AcDbEntity
  8
FORMAT
100
AcDbBlockReference
  2
_CLOSED
 10
3.8786873894
 20
6.346015443
 30
0.3321850394
 41
0.236
 42
0.236
 50
90.0
  0
INSERT
  5
123
330
11D
100
AcDbEntity
  8
FORMAT
100
AcDbBlockReference
  2
_CLOSED
 10
3.8786873894
 20
3.9838107186
 30
0.3321850394
 41
0.236
 42
0.236
 50
270.0
  0
LINE
  5
124
330
11D
100
AcDbEntity
  8
FORMAT
100
AcDbLine
 10
4.2811543724
 20
6.346015443
 30
0.0
 11
3.8396873894
 21
6.346015443
 31
0.0
  0
LINE
  5
125
330
11D
100
AcDbEntity
  8
FORMAT
100
AcDbLine
 10
4.2811543724
 20
3.9838107186
 30
0.0
 11
3.8396873894
 21
3.9838107186
 31
0.0
  0
LINE
  5
126
330
11D
100
AcDbEntity
  8
FORMAT
100
AcDbLine
 10
3.8786873894
 20
6.346015443
 30
0.0
 11
3.8786873894
 21
3.9838107186
 31
0.0
  0
MTEXT
  5
127
330
11D
100
AcDbEntity
  8
FORMAT
100
AcDbMText
 10
3.556420427
 20
4.8012260713
 30
0.0
 40
0.25
 41
0.0
 71
     1
 72
     1
  1
0.472
  7
SLDTEXTSTYLE0
 11
-7.044195017643634E-15
 21
1.0
 31
0.0
 73
     1
 44
1.0
  0
ENDBLK
  5
11F
330
11D
100
AcDbEntity
  8
0
100
AcDbBlockEnd
  0
BLOCK
  5
12B
330
12A
100
AcDbEntity
  8
0
100
AcDbBlockBegin
  2
*D9
 70
     1
 10
0.0
 20
0.0
 30
0.0
  3
*D9
  1

  0
ARC
  5
12D
330
12A
100
AcDbEntity
  8
FORMAT
100
AcDbCircle
 10
4.5170047661
 20
4.377511506
 30
0.0
 40
0.2343750000000001
100
AcDbArc
 50
254.5103658978
 51
293.4235094396
  0
INSERT
  5
12E
330
12A
100
AcDbEntity
  8
FORMAT
100
AcDbBlockReference
  2
_CLOSED
 10
4.4923343234
 20
4.1444385348
 30
0.3321850394
 41
0.236
 42
0.236
 50
83.9578215313
  0
LINE
  5
12F
330
12A
100
AcDbEntity
  8
FORMAT
100
AcDbLine
 10
4.4923343234
 20
4.1444385348
 30
0.0
 11
4.3057778099
 21
2.3819537056
 31
0.0
  0
LINE
  5
130
330
12A
100
AcDbEntity
  8
FORMAT
100
AcDbLine
 10
4.3057778099
 20
2.3819537056
 30
0.0
 11
0.8594290924
 21
2.3819537056
 31
0.0
  0
MTEXT
  5
131
330
12A
100
AcDbEntity
  8
FORMAT
100
AcDbMText
 10
0.8368550969
 20
2.704220668
 30
0.0
 40
0.25
 41
0.0
 71
     1
 72
     1
  1
2
  7
SLDTEXTSTYLE0
 73
     1
 44
1.0
  0
MTEXT
  5
132
330
12A
100
AcDbEntity
  8
FORMAT
100
AcDbMText
 10
1.0363131777
 20
2.7080400806
 30
0.0
 40
0.25
 41
0.0
 71
     1
 72
     1
  1
 x 
  7
SLDTEXTSTYLE0
 73
     1
 44
1.0
  0
MTEXT
  5
133
330
12A
100
AcDbEntity
  8
FORMAT
100
AcDbMText
 10
1.3811048547
 20
2.7042206359
 30
0.0
 40
0.25
 41
0.0
 71
     1
 72
     1
  1
%%c
  7
SLDTEXTSTYLE0
 73
     1
 44
1.0
  0
MTEXT
  5
134
330
12A
100
AcDbEntity
  8
FORMAT
100
AcDbMText
 10
1.7581360592
 20
2.7080400806
 30
0.0
 40
0.25
 41
0.0
 71
     1
 72
     1
  1
 
  7
SLDTEXTSTYLE0
 73
     1
 44
1.0
  0
MTEXT
  5
135
330
12A
100
AcDbEntity
  8
FORMAT
100
AcDbMText
 10
1.850468584
 20
2.704220668
 30
0.0
 40
0.25
 41
0.0
 71
     1
 72
     1
  1
0.094
  7
SLDTEXTSTYLE0
 73
     1
 44
1.0
  0
MTEXT
  5
136
330
12A
100
AcDbEntity
  8
FORMAT
100
AcDbMText
 10
2.7481548693
 20
2.7080400806
 30
0.0
 40
0.25
 41
0.0
 71
     1
 72
     1
  1
 
  7
SLDTEXTSTYLE0
 73
     1
 44
1.0
  0
INSERT
  5
13E
330
12A
100
AcDbEntity
  8
FORMAT
100
AcDbBlockReference
  2
SW_SYMBOL_HOLE_DEPTH
 10
2.8405159807
 20
2.4166216697
 30
0.0
 41
0.0081111328
 42
0.0081111328
 43
0.0081111328
  0
MTEXT
  5
13F
330
12A
100
AcDbEntity
  8
FORMAT
100
AcDbMText
 10
3.1977034694
 20
2.7080400806
 30
0.0
 40
0.25
 41
0.0
 71
     1
 72
     1
  1
 
  7
SLDTEXTSTYLE0
 73
     1
 44
1.0
  0
MTEXT
  5
140
330
12A
100
AcDbEntity
  8
FORMAT
100
AcDbMText
 10
3.2899812884
 20
2.704220668
 30
0.0
 40
0.25
 41
0.0
 71
     1
 72
     1
  1
0.394
  7
SLDTEXTSTYLE0
 73
     1
 44
1.0
  0
ENDBLK
  5
12C
330
12A
100
AcDbEntity
  8
0
100
AcDbBlockEnd
  0
BLOCK
  5
138
330
137
100
AcDbEntity
  8
0
100
AcDbBlockBegin
  2
SW_SYMBOL_HOLE_DEPTH
 70
     0
 10
0.0
 20
0.0
 30
0.0
  3
SW_SYMBOL_HOLE_DEPTH
  1

  0
LINE
  5
13A
330
137
100
AcDbEntity
  8
FORMAT
 62
     0
100
AcDbLine
 10
0.0
 20
34.4488188976
 30
0.0
 11
31.4960629921
 21
34.4488188976
 31
0.0
  0
LINE
  5
13B
330
137
100
AcDbEntity
  8
FORMAT
 62
     0
100
AcDbLine
 10
15.7480314961
 20
34.4488188976
 30
0.0
 11
15.7480314961
 21
2.9527559055
 31
0.0
  0
LINE
  5
13C
330
137
100
AcDbEntity
  8
FORMAT
 62
     0
100
AcDbLine
 10
3.937007874
 20
21.8503937008
 30
0.0
 11
15.7480314961
 21
2.9527559055
 31
0.0
  0
LINE
  5
13D
330
137
100
AcDbEntity
  8
FORMAT
 62
     0
100
AcDbLine
 10
27.5590551181
 20
21.8503937008
 30
0.0
 11
15.7480314961
 21
2.9527559055
 31
0.0
  0
ENDBLK
  5
139
330
137
100
AcDbEntity
  8
0
100
AcDbBlockEnd
  0
BLOCK
  5
144
330
143
100
AcDbEntity
  8
0
100
AcDbBlockBegin
  2
*D11
 70
     1
 10
0.0
 20
0.0
 30
0.0
  3
*D11
  1

  0
INSERT
  5
146
330
143
100
AcDbEntity
  8
FORMAT
100
AcDbBlockReference
  2
_CLOSED
 10
5.0391438223
 20
4.2051043846
 30
0.3321850394
 41
0.236
 42
0.236
 50
99.8752337754
  0
LINE
  5
147
330
143
100
AcDbEntity
  8
FORMAT
100
AcDbLine
 10
5.0391438223
 20
4.2051043846
 30
0.0
 11
5.35194799
 21
2.4082318052
 31
0.0
  0
LINE
  5
148
330
143
100
AcDbEntity
  8
FORMAT
100
AcDbLine
 10
5.35194799
 20
2.4082318052
 30
0.0
 11
8.9435388339
 21
2.4082318052
 31
0.0
  0
INSERT
  5
14F
330
143
100
AcDbEntity
  8
FORMAT
100
AcDbBlockReference
  2
SW_SYMBOL_HOLE_SPOT
 10
5.5950582262
 20
2.4428997694
 30
0.0
 41
0.0081111328
 42
0.0081111328
 43
0.0081111328
  0
MTEXT
  5
150
330
143
100
AcDbEntity
  8
FORMAT
100
AcDbMText
 10
6.2697456988
 20
2.7304987356
 30
0.0
 40
0.25
 41
0.0
 71
     1
 72
     1
  1
%%c
  7
SLDTEXTSTYLE0
 73
     1
 44
1.0
  0
MTEXT
  5
151
330
143
100
AcDbEntity
  8
FORMAT
100
AcDbMText
 10
6.6467769033
 20
2.7343181802
 30
0.0
 40
0.25
 41
0.0
 71
     1
 72
     1
  1
 
  7
SLDTEXTSTYLE0
 73
     1
 44
1.0
  0
MTEXT
  5
152
330
143
100
AcDbEntity
  8
FORMAT
100
AcDbMText
 10
6.7390898154
 20
2.7304987677
 30
0.0
 40
0.25
 41
0.0
 71
     1
 72
     1
  1
0.125
  7
SLDTEXTSTYLE0
 73
     1
 44
1.0
  0
MTEXT
  5
153
330
143
100
AcDbEntity
  8
FORMAT
100
AcDbMText
 10
7.6367761007
 20
2.7343181802
 30
0.0
 40
0.25
 41
0.0
 71
     1
 72
     1
  1
 
  7
SLDTEXTSTYLE0
 73
     1
 44
1.0
  0
INSERT
  5
154
330
143
100
AcDbEntity
  8
FORMAT
100
AcDbBlockReference
  2
SW_SYMBOL_HOLE_DEPTH
 10
7.7291372121
 20
2.4428997694
 30
0.0
 41
0.0081111328
 42
0.0081111328
 43
0.0081111328
  0
MTEXT
  5
155
330
143
100
AcDbEntity
  8
FORMAT
100
AcDbMText
 10
8.0863247008
 20
2.7343181802
 30
0.0
 40
0.25
 41
0.0
 71
     1
 72
     1
  1
 
  7
SLDTEXTSTYLE0
 73
     1
 44
1.0
  0
MTEXT
  5
156
330
143
100
AcDbEntity
  8
FORMAT
100
AcDbMText
 10
8.1786025198
 20
2.7304987677
 30
0.0
 40
0.25
 41
0.0
 71
     1
 72
     1
  1
0.060
  7
SLDTEXTSTYLE0
 73
     1
 44
1.0
  0
MTEXT
  5
157
330
143
100
AcDbEntity
  8
FORMAT
100
AcDbMText
 10
5.8299523878
 20
3.1273328713
 30
0.0
 40
0.25
 41
0.0
 71
     1
 72
     1
  1
%%c
  7
SLDTEXTSTYLE0
 73
     1
 44
1.0
  0
MTEXT
  5
158
330
143
100
AcDbEntity
  8
FORMAT
100
AcDbMText
 10
6.2069836289
 20
3.131152316
 30
0.0
 40
0.25
 41
0.0
 71
     1
 72
     1
  1
 
  7
SLDTEXTSTYLE0
 73
     1
 44
1.0
  0
MTEXT
  5
159
330
143
100
AcDbEntity
  8
FORMAT
100
AcDbMText
 10
6.2993243057
 20
3.1273329034
 30
0.0
 40
0.25
 41
0.0
 71
     1
 72
     1
  1
0.070
  7
SLDTEXTSTYLE0
 73
     1
 44
1.0
  0
MTEXT
  5
15A
330
143
100
AcDbEntity
  8
FORMAT
100
AcDbMText
 10
7.197010591
 20
3.1273329034
 30
0.0
 40
0.25
 41
0.0
 71
     1
 72
     1
  1
 
  7
SLDTEXTSTYLE0
 73
     1
 44
1.0
  0
MTEXT
  5
15B
330
143
100
AcDbEntity
  8
FORMAT
100
AcDbMText
 10
7.2893692597
 20
3.1273329034
 30
0.0
 40
0.25
 41
0.0
 71
     1
 72
     1
  1
THRU ALL
  7
SLDTEXTSTYLE0
 73
     1
 44
1.0
  0
ENDBLK
  5
145
330
143
100
AcDbEntity
  8
0
100
AcDbBlockEnd
  0
BLOCK
  5
14A
330
149
100
AcDbEntity
  8
0
100
AcDbBlockBegin
  2
SW_SYMBOL_HOLE_SPOT
 70
     0
 10
0.0
 20
0.0
 30
0.0
  3
SW_SYMBOL_HOLE_SPOT
  1

  0
LINE
  5
14C
330
149
100
AcDbEntity
  8
FORMAT
 62
     0
100
AcDbLine
 10
0.0
 20
34.4488188976
 30
0.0
 11
0.0
 21
2.9527559055
 31
0.0
  0
LINE
  5
14D
330
149
100
AcDbEntity
  8
FORMAT
 62
     0
100
AcDbLine
 10
0.0
 20
2.9527559055
 30
0.0
 11
62.9921259843
 21
2.9527559055
 31
0.0
  0
LINE
  5
14E
330
149
100
AcDbEntity
  8
FORMAT
 62
     0
100
AcDbLine
 10
62.9921259843
 20
2.9527559055
 30
0.0
 11
62.9921259843
 21
34.4488188976
 31
0.0
  0
ENDBLK
  5
14B
330
149
100
AcDbEntity
  8
0
100
AcDbBlockEnd
  0
BLOCK
  5
180
330
17F
100
AcDbEntity
  8
0
100
AcDbBlockBegin
  2
*D13
 70
     1
 10
0.0
 20
0.0
 30
0.0
  3
*D13
  1

  0
ARC
  5
182
330
17F
100
AcDbEntity
  8
FORMAT
100
AcDbCircle
 10
0.7852754016
 20
6.7754975243
 30
0.0
 40
0.443674051657585
100
AcDbArc
 50
153.4349488229
 51
206.5650511771
  0
ARC
  5
183
330
17F
100
AcDbEntity
  8
FORMAT
100
AcDbCircle
 10
0.9478351488
 20
6.7754975243
 30
0.0
 40
0.4436740516575849
100
AcDbArc
 50
333.4349488229
 51
26.5650511771
  0
INSERT
  5
184
330
17F
100
AcDbEntity
  8
FORMAT
100
AcDbBlockReference
  2
_CLOSED
 10
1.9295474012
 20
6.5770804564
 30
0.4625984252
 41
0.236
 42
0.236
 50
180.0
  0
INSERT
  5
185
330
17F
100
AcDbEntity
  8
FORMAT
100
AcDbBlockReference
  2
_CLOSED
 10
1.7326970075
 20
6.5770804564
 30
0.4625984252
 41
0.236
 42
0.236
 50
360.0
  0
LINE
  5
186
330
17F
100
AcDbEntity
  8
FORMAT
100
AcDbLine
 10
1.9295474012
 20
6.1783225296
 30
0.0
 11
1.9295474012
 21
6.6160804564
 31
0.0
  0
LINE
  5
187
330
17F
100
AcDbEntity
  8
FORMAT
100
AcDbLine
 10
1.7326970075
 20
6.1783225296
 30
0.0
 11
1.7326970075
 21
6.6160804564
 31
0.0
  0
LINE
  5
188
330
17F
100
AcDbEntity
  8
FORMAT
100
AcDbLine
 10
1.9295474012
 20
6.5770804564
 30
0.0
 11
2.4015474012
 21
6.5770804564
 31
0.0
  0
LINE
  5
189
330
17F
100
AcDbEntity
  8
FORMAT
100
AcDbLine
 10
1.9295474012
 20
6.5770804564
 30
0.0
 11
1.7326970075
 21
6.5770804564
 31
0.0
  0
LINE
  5
18A
330
17F
100
AcDbEntity
  8
FORMAT
100
AcDbLine
 10
1.7326970075
 20
6.5770804564
 30
0.0
 11
0.3259412659
 21
6.5770804564
 31
0.0
  0
MTEXT
  5
18B
330
17F
100
AcDbEntity
  8
FORMAT
100
AcDbMText
 10
0.4509412659
 20
6.8993474189
 30
0.0
 40
0.25
 41
0.0
 71
     1
 72
     1
  1
0.039
  7
SLDTEXTSTYLE0
 73
     1
 44
1.0
  0
ENDBLK
  5
181
330
17F
100
AcDbEntity
  8
0
100
AcDbBlockEnd
  0
BLOCK
  5
18E
330
18D
100
AcDbEntity
  8
0
100
AcDbBlockBegin
  2
*D14
 70
     1
 10
0.0
 20
0.0
 30
0.0
  3
*D14
  1

  0
ARC
  5
190
330
18D
100
AcDbEntity
  8
FORMAT
100
AcDbCircle
 10
1.9639171339
 20
7.6379364478
 30
0.0
 40
0.4436740516575853
100
AcDbArc
 50
153.4349488229
 51
206.5650511771
  0
ARC
  5
191
330
18D
100
AcDbEntity
  8
FORMAT
100
AcDbCircle
 10
2.1264768811
 20
7.6379364478
 30
0.0
 40
0.4436740516575851
100
AcDbArc
 50
333.4349488229
 51
26.5650511771
  0
INSERT
  5
192
330
18D
100
AcDbEntity
  8
FORMAT
100
AcDbBlockReference
  2
_CLOSED
 10
1.7326970075
 20
7.43951938
 30
0.4625984252
 41
0.236
 42
0.236
 50
0.0
  0
INSERT
  5
193
330
18D
100
AcDbEntity
  8
FORMAT
100
AcDbBlockReference
  2
_CLOSED
 10
2.3576970075
 20
7.43951938
 30
0.4625984252
 41
0.236
 42
0.236
 50
180.0
  0
LINE
  5
194
330
18D
100
AcDbEntity
  8
FORMAT
100
AcDbLine
 10
1.7326970075
 20
6.1783225296
 30
0.0
 11
1.7326970075
 21
7.47851938
 31
0.0
  0
LINE
  5
195
330
18D
100
AcDbEntity
  8
FORMAT
100
AcDbLine
 10
2.3576970075
 20
6.1881650493
 30
0.0
 11
2.3576970075
 21
7.47851938
 31
0.0
  0
LINE
  5
196
330
18D
100
AcDbEntity
  8
FORMAT
100
AcDbLine
 10
1.7326970075
 20
7.43951938
 30
0.0
 11
1.2606970075
 21
7.43951938
 31
0.0
  0
LINE
  5
197
330
18D
100
AcDbEntity
  8
FORMAT
100
AcDbLine
 10
1.7326970075
 20
7.43951938
 30
0.0
 11
2.3576970075
 21
7.43951938
 31
0.0
  0
LINE
  5
198
330
18D
100
AcDbEntity
  8
FORMAT
100
AcDbLine
 10
2.3576970075
 20
7.43951938
 30
0.0
 11
2.8296970075
 21
7.43951938
 31
0.0
  0
MTEXT
  5
199
330
18D
100
AcDbEntity
  8
FORMAT
100
AcDbMText
 10
1.6295829982
 20
7.7617863424
 30
0.0
 40
0.25
 41
0.0
 71
     1
 72
     1
  1
0.125
  7
SLDTEXTSTYLE0
 73
     1
 44
1.0
  0
ENDBLK
  5
18F
330
18D
100
AcDbEntity
  8
0
100
AcDbBlockEnd
  0
BLOCK
  5
19C
330
19B
100
AcDbEntity
  8
0
100
AcDbBlockBegin
  2
*D15
 70
     1
 10
0.0
 20
0.0
 30
0.0
  3
*D15
  1

  0
ARC
  5
19E
330
19B
100
AcDbEntity
  8
FORMAT
100
AcDbCircle
 10
3.1425588662
 20
7.1743537707
 30
0.0
 40
0.4436740516575835
100
AcDbArc
 50
153.4349488229
 51
206.5650511771
  0
ARC
  5
19F
330
19B
100
AcDbEntity
  8
FORMAT
100
AcDbCircle
 10
3.3051186134
 20
7.1743537707
 30
0.0
 40
0.4436740516575835
100
AcDbArc
 50
333.4349488229
 51
26.5650511771
  0
INSERT
  5
1A0
330
19B
100
AcDbEntity
  8
FORMAT
100
AcDbBlockReference
  2
_CLOSED
 10
1.9295474012
 20
6.9759367028
 30
0.4625984252
 41
0.236
 42
0.236
 50
0.0
  0
INSERT
  5
1A1
330
19B
100
AcDbEntity
  8
FORMAT
100
AcDbBlockReference
  2
_CLOSED
 10
2.3576970075
 20
6.9759367028
 30
0.4625984252
 41
0.236
 42
0.236
 50
180.0
  0
LINE
  5
1A2
330
19B
100
AcDbEntity
  8
FORMAT
100
AcDbLine
 10
1.9295474012
 20
6.385015443
 30
0.0
 11
1.9295474012
 21
7.0149367028
 31
0.0
  0
LINE
  5
1A3
330
19B
100
AcDbEntity
  8
FORMAT
100
AcDbLine
 10
2.3576970075
 20
6.1881650493
 30
0.0
 11
2.3576970075
 21
7.0149367028
 31
0.0
  0
LINE
  5
1A4
330
19B
100
AcDbEntity
  8
FORMAT
100
AcDbLine
 10
1.9295474012
 20
6.9759367028
 30
0.0
 11
1.4575474012
 21
6.9759367028
 31
0.0
  0
LINE
  5
1A5
330
19B
100
AcDbEntity
  8
FORMAT
100
AcDbLine
 10
1.9295474012
 20
6.9759367028
 30
0.0
 11
2.3576970075
 21
6.9759367028
 31
0.0
  0
LINE
  5
1A6
330
19B
100
AcDbEntity
  8
FORMAT
100
AcDbLine
 10
2.3576970075
 20
6.9759367028
 30
0.0
 11
3.7644527491
 21
6.9759367028
 31
0.0
  0
MTEXT
  5
1A7
330
19B
100
AcDbEntity
  8
FORMAT
100
AcDbMText
 10
2.8082247304
 20
7.2982036653
 30
0.0
 40
0.25
 41
0.0
 71
     1
 72
     1
  1
0.086
  7
SLDTEXTSTYLE0
 73
     1
 44
1.0
  0
ENDBLK
  5
19D
330
19B
100
AcDbEntity
  8
0
100
AcDbBlockEnd
  0
BLOCK
  5
1AA
330
1A9
100
AcDbEntity
  8
0
100
AcDbBlockBegin
  2
*D16
 70
     1
 10
0.0
 20
0.0
 30
0.0
  3
*D16
  1

  0
ARC
  5
1AC
330
1A9
100
AcDbEntity
  8
FORMAT
100
AcDbCircle
 10
2.9063383938
 20
3.9605898398
 30
0.0
 40
0.4436740516575846
100
AcDbArc
 50
153.4349488229
 51
206.5650511771
  0
ARC
  5
1AD
330
1A9
100
AcDbEntity
  8
FORMAT
100
AcDbCircle
 10
3.0688981409
 20
3.9605898398
 30
0.0
 40
0.4436740516575853
100
AcDbArc
 50
333.4349488229
 51
26.5650511771
  0
INSERT
  5
1AE
330
1A9
100
AcDbEntity
  8
FORMAT
100
AcDbBlockReference
  2
_CLOSED
 10
1.9295474012
 20
3.7621727719
 30
0.4625984252
 41
0.236
 42
0.236
 50
0.0
  0
INSERT
  5
1AF
330
1A9
100
AcDbEntity
  8
FORMAT
100
AcDbBlockReference
  2
_CLOSED
 10
2.0576970075
 20
3.7621727719
 30
0.4625984252
 41
0.236
 42
0.236
 50
180.0
  0
LINE
  5
1B0
330
1A9
100
AcDbEntity
  8
FORMAT
100
AcDbLine
 10
1.9295474012
 20
4.513511506
 30
0.0
 11
1.9295474012
 21
3.7231727719
 31
0.0
  0
LINE
  5
1B1
330
1A9
100
AcDbEntity
  8
FORMAT
100
AcDbLine
 10
2.0576970075
 20
4.513511506
 30
0.0
 11
2.0576970075
 21
3.7231727719
 31
0.0
  0
LINE
  5
1B2
330
1A9
100
AcDbEntity
  8
FORMAT
100
AcDbLine
 10
1.9295474012
 20
3.7621727719
 30
0.0
 11
1.4575474012
 21
3.7621727719
 31
0.0
  0
LINE
  5
1B3
330
1A9
100
AcDbEntity
  8
FORMAT
100
AcDbLine
 10
1.9295474012
 20
3.7621727719
 30
0.0
 11
2.0576970075
 21
3.7621727719
 31
0.0
  0
LINE
  5
1B4
330
1A9
100
AcDbEntity
  8
FORMAT
100
AcDbLine
 10
2.0576970075
 20
3.7621727719
 30
0.0
 11
3.5282322767
 21
3.7621727719
 31
0.0
  0
MTEXT
  5
1B5
330
1A9
100
AcDbEntity
  8
FORMAT
100
AcDbMText
 10
2.572004258
 20
4.0844397344
 30
0.0
 40
0.25
 41
0.0
 71
     1
 72
     1
  1
0.026
  7
SLDTEXTSTYLE0
 73
     1
 44
1.0
  0
ENDBLK
  5
1AB
330
1A9
100
AcDbEntity
  8
0
100
AcDbBlockEnd
  0
ENDSEC
  0
SECTION
  2
ENTITIES
  0
LINE
  5
41
330
1F
100
AcDbEntity
  8
0
  6
Continuous
 62
     8
370
     0
100
AcDbLine
 10
0.329927
 20
8.1920731707
 30
0.0
 11
10.629927
 21
8.1920731707
 31
0.0
  0
LINE
  5
42
330
1F
100
AcDbEntity
  8
0
  6
Continuous
 62
     8
370
     0
100
AcDbLine
 10
0.329927
 20
8.1920731707
 30
0.0
 11
0.329927
 21
0.3920731707
 31
0.0
  0
LINE
  5
43
330
1F
100
AcDbEntity
  8
0
  6
Continuous
 62
     8
370
     0
100
AcDbLine
 10
10.629927
 20
0.3920731707
 30
0.0
 11
0.329927
 21
0.3920731707
 31
0.0
  0
LINE
  5
44
330
1F
100
AcDbEntity
  8
0
  6
Continuous
 62
     8
370
     0
100
AcDbLine
 10
10.629927
 20
0.3920731707
 30
0.0
 11
10.629927
 21
8.1920731707
 31
0.0
  0
LINE
  5
45
330
1F
100
AcDbEntity
  8
0
  6
Continuous
 62
     8
370
     0
100
AcDbLine
 10
5.629927
 20
0.3920731707
 30
0.0
 11
5.629927
 21
1.8920731707
 31
0.0
  0
LINE
  5
46
330
1F
100
AcDbEntity
  8
0
  6
Continuous
 62
     8
370
     0
100
AcDbLine
 10
5.629927
 20
1.8920731707
 30
0.0
 11
10.629927
 21
1.8920731707
 31
0.0
  0
LINE
  5
47
330
1F
100
AcDbEntity
  8
0
  6
Continuous
 62
     8
370
     0
100
AcDbLine
 10
6.9469156686
 20
1.8920731707
 30
0.0
 11
6.9469156686
 21
0.3920731707
 31
0.0
  0
LINE
  5
48
330
1F
100
AcDbEntity
  8
0
  6
Continuous
 62
     8
370
     0
100
AcDbLine
 10
8.3115759986
 20
1.8920731707
 30
0.0
 11
8.3115759986
 21
0.3920731707
 31
0.0
  0
LINE
  5
49
330
1F
100
AcDbEntity
  8
0
  6
Continuous
 62
     8
370
     0
100
AcDbLine
 10
8.3115759986
 20
0.5170731707
 30
0.0
 11
10.629927
 21
0.5170731707
 31
0.0
  0
LINE
  5
4A
330
1F
100
AcDbEntity
  8
0
  6
Continuous
 62
     8
370
     0
100
AcDbLine
 10
8.3115759986
 20
0.7670731707
 30
0.0
 11
10.629927
 21
0.7670731707
 31
0.0
  0
LINE
  5
4B
330
1F
100
AcDbEntity
  8
0
  6
Continuous
 62
     8
370
     0
100
AcDbLine
 10
6.9469156686
 20
0.9920731707
 30
0.0
 11
8.3115759986
 21
0.9920731707
 31
0.0
  0
LINE
  5
4C
330
1F
100
AcDbEntity
  8
0
  6
Continuous
 62
     8
370
     0
100
AcDbLine
 10
8.5122848799
 20
0.7670731707
 30
0.0
 11
8.5122848799
 21
0.5170731707
 31
0.0
  0
LINE
  5
4D
330
1F
100
AcDbEntity
  8
0
  6
Continuous
 62
     8
370
     0
100
AcDbLine
 10
9.9485758056
 20
0.5170731707
 30
0.0
 11
9.9485758056
 21
0.3920731707
 31
0.0
  0
LINE
  5
4E
330
1F
100
AcDbEntity
  8
0
  6
Continuous
 62
     8
370
     0
100
AcDbLine
 10
10.3767531005
 20
0.7670731707
 30
0.0
 11
10.3767531005
 21
0.5170731707
 31
0.0
  0
LINE
  5
4F
330
1F
100
AcDbEntity
  8
0
  6
Continuous
 62
     8
370
     0
100
AcDbLine
 10
8.7791367441
 20
0.5170731707
 30
0.0
 11
8.7791367441
 21
0.3920731707
 31
0.0
  0
LINE
  5
50
330
1F
100
AcDbEntity
  8
0
  6
Continuous
 62
     8
370
     0
100
AcDbLine
 10
7.849472244
 20
1.8920731707
 30
0.0
 11
7.849472244
 21
0.9920731707
 31
0.0
  0
LINE
  5
51
330
1F
100
AcDbEntity
  8
0
  6
Continuous
 62
     8
370
     0
100
AcDbLine
 10
5.629927
 20
0.6195217014
 30
0.0
 11
6.9469156686
 21
0.6195217014
 31
0.0
  0
LINE
  5
52
330
1F
100
AcDbEntity
  8
0
  6
Continuous
 62
     8
370
     0
100
AcDbLine
 10
6.9469156686
 20
1.7420731707
 30
0.0
 11
8.3115759986
 21
1.7420731707
 31
0.0
  0
LINE
  5
53
330
1F
100
AcDbEntity
  8
0
  6
Continuous
 62
     8
370
     0
100
AcDbLine
 10
7.3734302061
 20
1.8920731707
 30
0.0
 11
7.3734302061
 21
0.9920731707
 31
0.0
  0
LINE
  5
54
330
1F
100
AcDbEntity
  8
0
  6
Continuous
 62
     8
370
     0
100
AcDbLine
 10
5.629927
 20
0.8695217014
 30
0.0
 11
6.9469156686
 21
0.8695217014
 31
0.0
  0
LINE
  5
55
330
1F
100
AcDbEntity
  8
0
  6
Continuous
 62
     8
370
     0
100
AcDbLine
 10
6.9469156686
 20
1.114715582
 30
0.0
 11
5.629927
 21
1.114715582
 31
0.0
  0
LINE
  5
56
330
1F
100
AcDbEntity
  8
0
  6
Continuous
 62
     8
370
     0
100
AcDbLine
 10
4.5974387755
 20
0.3920731707
 30
0.0
 11
4.5974387755
 21
1.8920731707
 31
0.0
  0
LINE
  5
57
330
1F
100
AcDbEntity
  8
0
  6
Continuous
 62
     8
370
     0
100
AcDbLine
 10
4.5974387755
 20
1.8920731707
 30
0.0
 11
5.629927
 21
1.8920731707
 31
0.0
  0
LINE
  5
58
330
1F
100
AcDbEntity
  8
0
  6
Continuous
 62
     8
370
     0
100
AcDbLine
 10
5.629927
 20
0.6195217014
 30
0.0
 11
4.5974387755
 21
0.6195217014
 31
0.0
  0
LINE
  5
59
330
1F
100
AcDbEntity
  8
0
  6
Continuous
 62
     8
370
     0
100
AcDbLine
 10
4.5974387755
 20
1.2920731707
 30
0.0
 11
2.9700721634
 21
1.2920731707
 31
0.0
  0
LINE
  5
5A
330
1F
100
AcDbEntity
  8
0
  6
Continuous
 62
     8
370
     0
100
AcDbLine
 10
2.9700721634
 20
1.2920731707
 30
0.0
 11
2.9700721634
 21
0.3920731707
 31
0.0
  0
LINE
  5
5B
330
1F
100
AcDbEntity
  8
0
  6
Continuous
 62
     8
370
     0
100
AcDbLine
 10
5.1191687755
 20
1.8920731707
 30
0.0
 11
5.1191687755
 21
0.6195217014
 31
0.0
  0
LINE
  5
5C
330
1F
100
AcDbEntity
  8
0
  6
Continuous
 62
     8
370
     0
100
AcDbLine
 10
6.9469156686
 20
1.5920731707
 30
0.0
 11
10.629927
 21
1.5920731707
 31
0.0
  0
LINE
  5
5D
330
1F
100
AcDbEntity
  8
0
  6
Continuous
 62
     8
370
     0
100
AcDbLine
 10
6.9469156686
 20
1.4420731707
 30
0.0
 11
8.3115759986
 21
1.4420731707
 31
0.0
  0
LINE
  5
5E
330
1F
100
AcDbEntity
  8
0
  6
Continuous
 62
     8
370
     0
100
AcDbLine
 10
6.9469156686
 20
1.2920731707
 30
0.0
 11
8.3115759986
 21
1.2920731707
 31
0.0
  0
LINE
  5
5F
330
1F
100
AcDbEntity
  8
0
  6
Continuous
 62
     8
370
     0
100
AcDbLine
 10
6.9469156686
 20
1.1420731707
 30
0.0
 11
8.3115759986
 21
1.1420731707
 31
0.0
  0
LINE
  5
60
330
1F
100
AcDbEntity
  8
0
  6
Continuous
 62
     8
370
     0
100
AcDbLine
 10
4.5974387755
 20
1.7420731707
 30
0.0
 11
5.629927
 21
1.7420731707
 31
0.0
  0
LINE
  5
61
330
1F
100
AcDbEntity
  8
0
  6
Continuous
 62
     8
370
     0
100
AcDbLine
 10
4.5974387755
 20
1.5920731707
 30
0.0
 11
5.629927
 21
1.5920731707
 31
0.0
  0
LINE
  5
62
330
1F
100
AcDbEntity
  8
0
  6
Continuous
 62
     8
370
     0
100
AcDbLine
 10
4.5974387755
 20
1.4420731707
 30
0.0
 11
5.629927
 21
1.4420731707
 31
0.0
  0
LINE
  5
63
330
1F
100
AcDbEntity
  8
0
  6
Continuous
 62
     8
370
     0
100
AcDbLine
 10
4.5974387755
 20
1.2920731707
 30
0.0
 11
5.629927
 21
1.2920731707
 31
0.0
  0
LINE
  5
64
330
1F
100
AcDbEntity
  8
0
  6
Continuous
 62
     8
370
     0
100
AcDbLine
 10
4.5974387755
 20
1.1420731707
 30
0.0
 11
5.629927
 21
1.1420731707
 31
0.0
  0
LINE
  5
65
330
1F
100
AcDbEntity
  8
0
  6
Continuous
 62
     8
370
     0
100
AcDbLine
 10
4.5974387755
 20
0.9920731707
 30
0.0
 11
5.629927
 21
0.9920731707
 31
0.0
  0
LINE
  5
66
330
1F
100
AcDbEntity
  8
0
  6
Continuous
 62
     8
370
     0
100
AcDbLine
 10
4.5974387755
 20
0.8420731707
 30
0.0
 11
5.629927
 21
0.8420731707
 31
0.0
  0
MTEXT
  5
68
330
1F
100
AcDbEntity
  8
FORMAT
100
AcDbMText
 10
6.165593487
 20
7.6983008872
 30
0.0
 40
0.25
 41
0.0
 71
     1
 72
     1
  1
4x 7MM Panel (Ultem)
  7
SLDTEXTSTYLE0
 73
     1
 44
1.0
  0
MTEXT
  5
69
330
1F
100
AcDbEntity
  8
0
  6
Continuous
 62
     8
370
     0
100
AcDbMText
 10
8.4734437265
 20
1.8322354694
 30
0.0
 40
0.15625
 41
0.0
 71
     1
 72
     1
  1
<COMPANY NAME>
  7
SLDTEXTSTYLE0
 73
     1
 44
1.0
  0
MTEXT
  5
6A
330
1F
100
AcDbEntity
  8
0
  6
Continuous
 62
     8
370
     0
100
AcDbMText
 10
8.3377691992
 20
0.483770842
 30
0.0
 40
0.0520833333
 41
0.0
 71
     1
 72
     1
  1
SCALE:5:1
  7
SLDTEXTSTYLE0
 73
     1
 44
1.0
  0
MTEXT
  5
6B
330
1F
100
AcDbEntity
  8
0
  6
Continuous
 62
     8
370
     0
100
AcDbMText
 10
8.3426121904
 20
0.7459768351
 30
0.0
 40
0.0520833333
 41
0.0
 71
     1
 72
     1
  1
SIZE
  7
SLDTEXTSTYLE0
 73
     1
 44
1.0
  0
MTEXT
  5
6D
330
1F
100
AcDbEntity
  8
0
  6
Continuous
 62
     8
370
     0
100
AcDbMText
 10
8.5375471596
 20
0.7418860625
 30
0.0
 40
0.0520833333
 41
0.0
 71
     1
 72
     1
  1
DWG.  NO.
  7
SLDTEXTSTYLE1
 73
     1
 44
1.0
  0
MTEXT
  5
6E
330
1F
100
AcDbEntity
  8
0
  6
Continuous
 62
     8
370
     0
100
AcDbMText
 10
8.3618317006
 20
0.6691337105
 30
0.0
 40
0.1
 41
0.0
 71
     1
 72
     1
  1
A
  7
SLDTEXTSTYLE0
 73
     1
 44
1.0
  0
MTEXT
  5
6F
330
1F
100
AcDbEntity
  8
0
  6
Continuous
 62
     8
370
     0
100
AcDbMText
 10
10.4175030889
 20
0.7387922949
 30
0.0
 40
0.0520833333
 41
0.0
 71
     1
 72
     1
  1
REV.
  7
SLDTEXTSTYLE0
 73
     1
 44
1.0
  0
MTEXT
  5
70
330
1F
100
AcDbEntity
  8
0
  6
Continuous
 62
     8
370
     0
100
AcDbMText
 10
5.6747098319
 20
1.0814663466
 30
0.0
 40
0.0520833333
 41
0.0
 71
     1
 72
     1
  1
MATERIAL
  7
SLDTEXTSTYLE0
 73
     1
 44
1.0
  0
MTEXT
  5
71
330
1F
100
AcDbEntity
  8
0
  6
Continuous
 62
     8
370
     0
100
AcDbMText
 10
5.6735418436
 20
0.8263904146
 30
0.0
 40
0.0520833333
 41
0.0
 71
     1
 72
     1
  1
FINISH
  7
SLDTEXTSTYLE0
 73
     1
 44
1.0
  0
MTEXT
  5
72
330
1F
100
AcDbEntity
  8
0
  6
Continuous
 62
     8
370
     0
100
AcDbMText
 10
6.2399361964
 20
1.0556739725
 30
0.0
 40
0.09375
 41
0.0
 71
     1
 72
     1
  1
--
  7
SLDTEXTSTYLE0
 73
     1
 44
1.0
  0
MTEXT
  5
73
330
1F
100
AcDbEntity
  8
0
  6
Continuous
 62
     8
370
     0
100
AcDbMText
 10
6.2374052601
 20
0.8022525475
 30
0.0
 40
0.09375
 41
0.0
 71
     1
 72
     1
  1
--
  7
SLDTEXTSTYLE0
 73
     1
 44
1.0
  0
MTEXT
  5
75
330
1F
100
AcDbEntity
  8
0
  6
Continuous
 62
     8
370
     0
100
AcDbMText
 10
5.7533116481
 20
0.5375179374
 30
0.0
 40
0.0625
 41
0.0
 71
     1
 72
     1
  1
DO  NOT  SCALE  DRAWING
  7
SLDTEXTSTYLE2
 73
     1
 44
1.0
  0
MTEXT
  5
76
330
1F
100
AcDbEntity
  8
0
  6
Continuous
 62
     8
370
     0
100
AcDbMText
 10
4.8479254944
 20
0.5292270268
 30
0.0
 40
0.0625
 41
0.0
 71
     1
 72
     1
  1
APPLICATION
  7
SLDTEXTSTYLE0
 73
     1
 44
1.0
  0
MTEXT
  5
77
330
1F
100
AcDbEntity
  8
0
  6
Continuous
 62
     8
370
     0
100
AcDbMText
 10
5.1969373565
 20
0.7719582649
 30
0.0
 40
0.0625
 41
0.0
 71
     1
 72
     1
  1
USED ON
  7
SLDTEXTSTYLE0
 73
     1
 44
1.0
  0
MTEXT
  5
78
330
1F
100
AcDbEntity
  8
0
  6
Continuous
 62
     8
370
     0
100
AcDbMText
 10
4.6587677251
 20
0.7698494768
 30
0.0
 40
0.0625
 41
0.0
 71
     1
 72
     1
  1
NEXT ASSY
  7
SLDTEXTSTYLE0
 73
     1
 44
1.0
  0
INSERT
  5
88
330
1F
100
AcDbEntity
  8
0
  6
Continuous
 62
     8
370
     0
100
AcDbBlockReference
  2
SW_NOTE_0
 10
5.681586696
 20
1.7338132915
 30
0.0
  0
MTEXT
  5
89
330
1F
100
AcDbEntity
  8
0
  6
Continuous
 62
     8
370
     0
100
AcDbMText
 10
7.5111431281
 20
1.8468947279
 30
0.0
 40
0.0520833333
 41
0.0
 71
     1
 72
     1
  1
NAME
  7
SLDTEXTSTYLE0
 73
     1
 44
1.0
  0
MTEXT
  5
8A
330
1F
100
AcDbEntity
  8
0
  6
Continuous
 62
     8
370
     0
100
AcDbMText
 10
7.9925732028
 20
1.8448696708
 30
0.0
 40
0.0520833333
 41
0.0
 71
     1
 72
     1
  1
DATE
  7
SLDTEXTSTYLE0
 73
     1
 44
1.0
  0
MTEXT
  5
8B
330
1F
100
AcDbEntity
  8
0
  6
Continuous
 62
     8
370
     0
100
AcDbMText
 10
6.9797019285
 20
1.6994570393
 30
0.0
 40
0.0520833333
 41
0.0
 71
     1
 72
     1
  1
DRAWN
  7
SLDTEXTSTYLE0
 73
     1
 44
1.0
  0
MTEXT
  5
8C
330
1F
100
AcDbEntity
  8
0
  6
Continuous
 62
     8
370
     0
100
AcDbMText
 10
6.9820965014
 20
1.5396959837
 30
0.0
 40
0.0520833333
 41
0.0
 71
     1
 72
     1
  1
CHECKED
  7
SLDTEXTSTYLE0
 73
     1
 44
1.0
  0
MTEXT
  5
8D
330
1F
100
AcDbEntity
  8
0
  6
Continuous
 62
     8
370
     0
100
AcDbMText
 10
6.9826098737
 20
1.3973029218
 30
0.0
 40
0.0520833333
 41
0.0
 71
     1
 72
     1
  1
ENG APPR.
  7
SLDTEXTSTYLE0
 73
     1
 44
1.0
  0
MTEXT
  5
8E
330
1F
100
AcDbEntity
  8
0
  6
Continuous
 62
     8
370
     0
100
AcDbMText
 10
6.9830663238
 20
1.2483757904
 30
0.0
 40
0.0520833333
 41
0.0
 71
     1
 72
     1
  1
MFG APPR.
  7
SLDTEXTSTYLE0
 73
     1
 44
1.0
  0
MTEXT
  5
8F
330
1F
100
AcDbEntity
  8
0
  6
Continuous
 62
     8
370
     0
100
AcDbMText
 10
6.9869425693
 20
1.1010426536
 30
0.0
 40
0.0520833333
 41
0.0
 71
     1
 72
     1
  1
Q.A.
  7
SLDTEXTSTYLE0
 73
     1
 44
1.0
  0
MTEXT
  5
91
330
1F
100
AcDbEntity
  8
0
  6
Continuous
 62
     8
370
     0
100
AcDbMText
 10
9.968783271
 20
0.4839854901
 30
0.0
 40
0.05
 41
0.0
 71
     1
 72
     1
  1
SHEET 1 OF 1
  7
SLDTEXTSTYLE3
 73
     1
 44
1.0
  0
MTEXT
  5
92
330
1F
100
AcDbEntity
  8
0
  6
Continuous
 62
     8
370
     0
100
AcDbMText
 10
8.8089650408
 20
0.4802550712
 30
0.0
 40
0.0520833333
 41
0.0
 71
     1
 72
     1
  1
WEIGHT:
  7
SLDTEXTSTYLE0
 73
     1
 44
1.0
  0
MTEXT
  5
93
330
1F
100
AcDbEntity
  8
0
  6
Continuous
 62
     8
370
     0
100
AcDbMText
 10
6.9893536197
 20
0.9620796232
 30
0.0
 40
0.0520833333
 41
0.0
 71
     1
 72
     1
  1
COMMENTS:
  7
SLDTEXTSTYLE0
 73
     1
 44
1.0
  0
INSERT
  5
9E
330
1F
100
AcDbEntity
  8
0
  6
Continuous
 62
     8
370
     0
100
AcDbBlockReference
  2
SW_NOTE_1
 10
3.0080884308
 20
1.0369608333
 30
0.0
  0
MTEXT
  5
9F
330
1F
100
AcDbEntity
  8
0
  6
Continuous
 62
     8
370
     0
100
AcDbMText
 10
3.1575562164
 20
1.2351156121
 30
0.0
 40
0.06
 41
0.0
 71
     1
 72
     1
  1
PROPRIETARY AND CONFIDENTIAL
  7
SLDTEXTSTYLE0
 73
     1
 44
1.0
  0
ARC
  5
A0
330
1F
100
AcDbEntity
  8
0
  6
Continuous
 62
     7
370
    15
100
AcDbCircle
 10
7.9682154665
 20
5.3519209548
 30
0.0
 40
0.1968503937007879
100
AcDbArc
 50
90.0
 51
180.0
  0
ARC
  5
A1
330
1F
100
AcDbEntity
  8
0
  6
Continuous
 62
     7
370
    15
100
AcDbCircle
 10
8.9327823956
 20
4.3873540256
 30
0.0
 40
0.1968503937007879
100
AcDbArc
 50
270.0
 51
0.0
  0
ARC
  5
A2
330
1F
100
AcDbEntity
  8
0
  6
Continuous
 62
     7
370
    15
100
AcDbCircle
 10
8.9327823956
 20
5.3519209548
 30
0.0
 40
0.1968503937007871
100
AcDbArc
 50
0.0
 51
90.0
  0
LINE
  5
A3
330
1F
100
AcDbEntity
  8
0
  6
Continuous
 62
     7
370
    15
100
AcDbLine
 10
9.1296327815
 20
4.3873540632
 30
0.0
 11
9.1296327815
 21
5.3519209579
 31
0.0
  0
LINE
  5
A4
330
1F
100
AcDbEntity
  8
0
  6
Continuous
 62
     7
370
    15
100
AcDbLine
 10
7.9682154608
 20
4.1905036372
 30
0.0
 11
8.9327824014
 21
4.1905036372
 31
0.0
  0
LINE
  5
A5
330
1F
100
AcDbEntity
  8
0
  6
Continuous
 62
     7
370
    15
100
AcDbLine
 10
7.7713650807
 20
5.3519209579
 30
0.0
 11
7.7713650807
 21
4.3873540632
 31
0.0
  0
LINE
  5
A6
330
1F
100
AcDbEntity
  8
0
  6
Continuous
 62
     7
370
    15
100
AcDbLine
 10
8.9327824014
 20
5.5487713381
 30
0.0
 11
7.9682154608
 21
5.5487713381
 31
0.0
  0
ARC
  5
A7
330
1F
100
AcDbEntity
  8
0
  6
Continuous
 62
     7
370
    15
100
AcDbCircle
 10
7.9682154665
 20
4.3873540256
 30
0.0
 40
0.1968503937007879
100
AcDbArc
 50
180.0
 51
270.0
  0
LINE
  5
A8
330
1F
100
AcDbEntity
  8
0
  6
Continuous
 62
     7
370
    15
100
AcDbLine
 10
7.5646721976
 20
6.1491650273
 30
0.0
 11
7.5646721976
 21
4.1806611343
 31
0.0
  0
ARC
  5
A9
330
1F
100
AcDbEntity
  8
0
  6
Continuous
 62
     7
370
    15
100
AcDbCircle
 10
9.139475309
 20
6.1491650493
 30
0.0
 40
0.1968503937007879
100
AcDbArc
 50
0.0
 51
90.0
  0
LINE
  5
AA
330
1F
100
AcDbEntity
  8
0
  6
Continuous
 62
     7
370
    15
100
AcDbLine
 10
9.3363256646
 20
4.1806611343
 30
0.0
 11
9.3363256646
 21
6.1491650273
 31
0.0
  0
LINE
  5
AB
330
1F
100
AcDbEntity
  8
0
  6
Continuous
 62
     7
370
    15
100
AcDbLine
 10
7.7615225319
 20
3.9838107083
 30
0.0
 11
9.1394753303
 21
3.9838107083
 31
0.0
  0
CIRCLE
  5
AC
330
1F
100
AcDbEntity
  8
0
  6
Continuous
 62
     7
370
    15
100
AcDbCircle
 10
8.4504989311
 20
5.9523146556
 30
0.0
 40
0.1749999999999989
  0
CIRCLE
  5
AD
330
1F
100
AcDbEntity
  8
0
  6
Continuous
 62
     7
370
    15
100
AcDbCircle
 10
7.9583729468
 20
5.9523146556
 30
0.0
 40
0.2343749999999991
  0
ARC
  5
AE
330
1F
100
AcDbEntity
  8
0
  6
Continuous
 62
     7
370
    15
100
AcDbCircle
 10
7.7615225531
 20
4.1806611123
 30
0.0
 40
0.1968503937007875
100
AcDbArc
 50
180.0
 51
270.0
  0
ARC
  5
AF
330
1F
100
AcDbEntity
  8
0
  6
Continuous
 62
     7
370
    15
100
AcDbCircle
 10
9.139475309
 20
4.1806611123
 30
0.0
 40
0.1968503937007875
100
AcDbArc
 50
270.0
 51
0.0
  0
LINE
  5
B0
330
1F
100
AcDbEntity
  8
0
  6
Continuous
 62
     7
370
    15
100
AcDbLine
 10
9.1394753303
 20
6.3460154532
 30
0.0
 11
7.7615225319
 21
6.3460154532
 31
0.0
  0
ARC
  5
B1
330
1F
100
AcDbEntity
  8
0
  6
Continuous
 62
     7
370
    15
100
AcDbCircle
 10
7.7615225531
 20
6.1491650493
 30
0.0
 40
0.1968503937007879
100
AcDbArc
 50
90.0
 51
180.0
  0
CIRCLE
  5
B2
330
1F
100
AcDbEntity
  8
0
  6
Continuous
 62
     7
370
    15
100
AcDbCircle
 10
8.9426249153
 20
5.9523146556
 30
0.0
 40
0.2343749999999991
  0
DIMENSION
  5
B3
330
1F
100
AcDbEntity
  8
FORMAT
100
AcDbDimension
  2
*D4
 10
9.1296327893
 20
6.5159599813
 30
0.0
 11
8.4263655246
 21
6.5159599813
 31
0.0
 70
   160
  1
(<>)
 71
     2
 42
-1.0
  3
SLDDIMSTYLE0
100
AcDbAlignedDimension
 13
7.7713650728
 23
5.3519209548
 33
0.0
 14
9.1296327893
 24
5.3519209548
 34
0.0
100
AcDbRotatedDimension
  0
DIMENSION
  5
C9
330
1F
100
AcDbEntity
  8
FORMAT
100
AcDbDimension
  2
*D5
 10
7.4447573112
 20
4.1905036319
 30
0.0
 11
7.4447573112
 21
4.9107020798
 31
0.0
 70
   160
  1
(<>)
 71
     2
 42
-1.0
  3
SLDDIMSTYLE0
100
AcDbAlignedDimension
 13
7.9682154665
 23
5.5487713485
 33
0.0
 14
7.9682154665
 24
4.1905036319
 34
0.0
 50
90.0
100
AcDbRotatedDimension
  0
DIMENSION
  5
D7
330
1F
100
AcDbEntity
  8
FORMAT
100
AcDbDimension
  2
*D6
 10
8.9327823956
 20
4.3873540256
 30
0.0
 11
9.9733010186
 21
3.34683619
 31
0.0
 70
   164
  1
(<>)
 71
     1
 42
-1.0
  3
SLDDIMSTYLE1
100
AcDbRadialDimension
 15
9.0719766439
 25
4.2481597774
 35
0.0
 40
0.0
  0
ARC
  5
E3
330
1F
100
AcDbEntity
  8
0
  6
Continuous
 62
     7
370
    15
100
AcDbCircle
 10
5.0091307503
 20
4.377511506
 30
0.0
 40
0.3125000000000001
100
AcDbArc
 50
202.1336026359
 51
219.0443134691
  0
LINE
  5
E4
330
1F
100
AcDbEntity
  8
0
  6
Continuous
 62
     7
370
    15
100
AcDbLine
 10
4.6442115472
 20
4.1806611343
 30
0.0
 11
4.7664248103
 21
4.1806611343
 31
0.0
  0
ARC
  5
E5
330
1F
100
AcDbEntity
  8
0
  6
Continuous
 62
     7
370
    15
100
AcDbCircle
 10
4.5170047661
 20
4.377511506
 30
0.0
 40
0.234375
100
AcDbArc
 50
302.8709650731
 51
329.8439537415
  0
ARC
  5
E6
330
1F
100
AcDbEntity
  8
0
  6
Continuous
 62
     7
370
    15
100
AcDbCircle
 10
5.5012567346
 20
4.377511506
 30
0.0
 40
0.2343750000000001
100
AcDbArc
 50
210.1560462585
 51
237.1290349269
  0
LINE
  5
E7
330
1F
100
AcDbEntity
  8
0
  6
Continuous
 62
     7
370
    15
100
AcDbLine
 10
5.2518366903
 20
4.1806611343
 30
0.0
 11
5.3740499535
 21
4.1806611343
 31
0.0
  0
ARC
  5
E8
330
1F
100
AcDbEntity
  8
0
  6
Continuous
 62
     7
370
    15
100
AcDbCircle
 10
5.0091307503
 20
4.377511506
 30
0.0
 40
0.3125000000000008
100
AcDbArc
 50
320.9556865309
 51
337.8663973641
  0
LINE
  5
E9
330
1F
100
AcDbEntity
  8
0
  6
Continuous
 62
     7
370
    15
100
AcDbLine
 10
5.6981071496
 20
4.1806611343
 30
0.0
 11
5.6981071496
 21
4.2503047214
 31
0.0
  0
LINE
  5
EA
330
1F
100
AcDbEntity
  8
0
  6
Continuous
 62
     7
370
    15
100
AcDbLine
 10
5.6284635166
 20
4.1806611343
 30
0.0
 11
5.6981071496
 21
4.1806611343
 31
0.0
  0
ARC
  5
EB
330
1F
100
AcDbEntity
  8
0
  6
Continuous
 62
     7
370
    15
100
AcDbCircle
 10
5.5012567346
 20
4.377511506
 30
0.0
 40
0.2343750000000001
100
AcDbArc
 50
302.8709650731
 51
327.1290349269
  0
ARC
  5
EC
330
1F
100
AcDbEntity
  8
0
  6
Continuous
 62
     7
370
    15
100
AcDbCircle
 10
4.5170047661
 20
4.377511506
 30
0.0
 40
0.2343749999999994
100
AcDbArc
 50
212.8709650731
 51
237.1290349269
  0
LINE
  5
ED
330
1F
100
AcDbEntity
  8
0
  6
Continuous
 62
     7
370
    15
100
AcDbLine
 10
4.3201543511
 20
4.1806611343
 30
0.0
 11
4.3897979841
 21
4.1806611343
 31
0.0
  0
LINE
  5
EE
330
1F
100
AcDbEntity
  8
0
  6
Continuous
 62
     7
370
    15
100
AcDbLine
 10
4.3201543511
 20
4.2503047214
 30
0.0
 11
4.3201543511
 21
4.1806611343
 31
0.0
  0
LINE
  5
EF
330
1F
100
AcDbEntity
  8
0
  6
Continuous
 62
     7
370
    15
100
AcDbLine
 10
5.6981071496
 20
6.1491650273
 30
0.0
 11
4.3201543511
 21
6.1491650273
 31
0.0
  0
LINE
  5
F0
330
1F
100
AcDbEntity
  8
0
  6
Continuous
 62
     7
370
    15
100
AcDbLine
 10
4.3201543511
 20
6.1491650273
 30
0.0
 11
4.3201543511
 21
6.3460154532
 31
0.0
  0
LINE
  5
F1
330
1F
100
AcDbEntity
  8
0
  6
Continuous
 62
     7
370
    15
100
AcDbLine
 10
4.3201543511
 20
6.3460154532
 30
0.0
 11
5.6981071496
 21
6.3460154532
 31
0.0
  0
LINE
  5
F2
330
1F
100
AcDbEntity
  8
0
  6
Continuous
 62
     7
370
    15
100
AcDbLine
 10
5.6981071496
 20
6.3460154532
 30
0.0
 11
5.6981071496
 21
6.1491650273
 31
0.0
  0
LINE
  5
F3
330
1F
100
AcDbEntity
  8
0
  6
Continuous
 62
     7
370
    15
100
AcDbLine
 10
5.8949574839
 20
6.1491650273
 30
0.0
 11
5.6981071496
 21
6.1491650273
 31
0.0
  0
ARC
  5
F4
330
1F
100
AcDbEntity
  8
0
  6
Continuous
 62
     7
370
    15
100
AcDbCircle
 10
5.6981071283
 20
6.1491650493
 30
0.0
 40
0.1968503937007879
100
AcDbArc
 50
0.0
 51
90.0
  0
LINE
  5
F5
330
1F
100
AcDbEntity
  8
0
  6
Continuous
 62
     7
370
    15
100
AcDbLine
 10
4.3201543511
 20
6.1491650273
 30
0.0
 11
4.1233040168
 21
6.1491650273
 31
0.0
  0
ARC
  5
F6
330
1F
100
AcDbEntity
  8
0
  6
Continuous
 62
     7
370
    15
100
AcDbCircle
 10
4.3201543724
 20
6.1491650493
 30
0.0
 40
0.1968503937007879
100
AcDbArc
 50
90.0
 51
180.0
  0
LINE
  5
F7
330
1F
100
AcDbEntity
  8
0
  6
Continuous
 62
     7
370
    15
100
AcDbLine
 10
5.6981071496
 20
4.5047182616
 30
0.0
 11
5.6981071496
 21
6.1491650273
 31
0.0
  0
LINE
  5
F8
330
1F
100
AcDbEntity
  8
0
  6
Continuous
 62
     7
370
    15
100
AcDbLine
 10
5.8949574839
 20
6.1491650273
 30
0.0
 11
5.8949574839
 21
4.1806611343
 31
0.0
  0
LINE
  5
F9
330
1F
100
AcDbEntity
  8
0
  6
Continuous
 62
     7
370
    15
100
AcDbLine
 10
5.8949574839
 20
4.1806611343
 30
0.0
 11
5.6981071496
 21
4.1806611343
 31
0.0
  0
SPLINE
  5
FA
330
1F
100
AcDbEntity
  8
0
  6
Continuous
 62
     7
370
    15
100
AcDbSpline
210
0.0
220
0.0
230
1.0
 70
     8
 71
     3
 72
    14
 73
    10
 74
     0
 42
0.00000001
 43
0.00000001
 40
0.0
 40
0.0
 40
0.0
 40
0.0
 40
0.2500000000000004
 40
0.2500000000000004
 40
0.5000000000000009
 40
0.5000000000000009
 40
0.7500000000000004
 40
0.7500000000000004
 40
1.0
 40
1.0
 40
1.0
 40
1.0
 10
5.698107128285465
 20
4.25030473284804
 30
0.0
 10
5.710385094545797
 20
4.269304684133002
 30
0.0
 10
5.719658348736066
 20
4.289559237173958
 30
0.0
 10
5.732376629685538
 20
4.33258422319251
 30
0.0
 10
5.7356122627013
 20
4.354966974086396
 30
0.0
 10
5.735651030038779
 20
4.399649340870978
 30
0.0
 10
5.7324020060005
 20
4.422235190197156
 30
0.0
 10
5.719829952507703
 20
4.464999178441175
 30
0.0
 10
5.710380358278027
 20
4.485725657078034
 30
0.0
 10
5.698107128285465
 20
4.504718279066356
 30
0.0
  0
ARC
  5
FB
330
1F
100
AcDbEntity
  8
0
  6
Continuous
 62
     7
370
    15
100
AcDbCircle
 10
4.5170047661
 20
4.377511506
 30
0.0
 40
0.234375
100
AcDbArc
 50
30.1560462585
 51
147.1290349269
  0
LINE
  5
FC
330
1F
100
AcDbEntity
  8
0
  6
Continuous
 62
     7
370
    15
100
AcDbLine
 10
4.3201543511
 20
6.1491650273
 30
0.0
 11
4.3201543511
 21
4.5047182616
 31
0.0
  0
ARC
  5
FD
330
1F
100
AcDbEntity
  8
0
  6
Continuous
 62
     7
370
    15
100
AcDbCircle
 10
5.5012567346
 20
4.377511506
 30
0.0
 40
0.2343750000000001
100
AcDbArc
 50
32.8709650731
 51
149.8439537415
  0
ARC
  5
FE
330
1F
100
AcDbEntity
  8
0
  6
Continuous
 62
     7
370
    15
100
AcDbCircle
 10
5.0091307503
 20
4.377511506
 30
0.0
 40
0.3124999999999997
100
AcDbArc
 50
22.1336026359
 51
157.8663973641
  0
SPLINE
  5
FF
330
1F
100
AcDbEntity
  8
0
  6
Continuous
 62
     7
370
    15
100
AcDbSpline
210
0.0
220
0.0
230
1.0
 70
     8
 71
     3
 72
    14
 73
    10
 74
     0
 42
0.00000001
 43
0.00000001
 40
0.0
 40
0.0
 40
0.0
 40
0.0
 40
0.25
 40
0.25
 40
0.5
 40
0.5
 40
0.75
 40
0.75
 40
1.0
 40
1.0
 40
1.0
 40
1.0
 10
4.320154372379953
 20
4.504718279066356
 30
0.0
 10
4.307876406119622
 20
4.485718327781394
 30
0.0
 10
4.298603151929352
 20
4.465463774740438
 30
0.0
 10
4.28588487097988
 20
4.422438788721887
 30
0.0
 10
4.282649237964118
 20
4.400056037828
 30
0.0
 10
4.282610470626639
 20
4.355373671043418
 30
0.0
 10
4.285859494664917
 20
4.33278782171724
 30
0.0
 10
4.298431548157716
 20
4.29002383347322
 30
0.0
 10
4.30788114238739
 20
4.269297354836362
 30
0.0
 10
4.320154372379953
 20
4.25030473284804
 30
0.0
  0
LINE
  5
100
330
1F
100
AcDbEntity
  8
0
  6
Continuous
 62
     7
370
    15
100
AcDbLine
 10
4.3201543511
 20
4.1806611343
 30
0.0
 11
4.1233040168
 21
4.1806611343
 31
0.0
  0
LINE
  5
101
330
1F
100
AcDbEntity
  8
0
  6
Continuous
 62
     7
370
    15
100
AcDbLine
 10
4.1233040168
 20
4.1806611343
 30
0.0
 11
4.1233040168
 21
6.1491650273
 31
0.0
  0
LINE
  5
102
330
1F
100
AcDbEntity
  8
0
  6
Continuous
 62
     7
370
    15
100
AcDbLine
 10
5.6981071496
 20
3.9838107083
 30
0.0
 11
5.6981071496
 21
4.1806611343
 31
0.0
  0
ARC
  5
103
330
1F
100
AcDbEntity
  8
0
  6
Continuous
 62
     7
370
    15
100
AcDbCircle
 10
5.6981071283
 20
4.1806611123
 30
0.0
 40
0.1968503937007871
100
AcDbArc
 50
270.0
 51
0.0
  0
LINE
  5
104
330
1F
100
AcDbEntity
  8
0
  6
Continuous
 62
     7
370
    15
100
AcDbLine
 10
4.3201543511
 20
4.1806611343
 30
0.0
 11
4.3201543511
 21
3.9838107083
 31
0.0
  0
ARC
  5
105
330
1F
100
AcDbEntity
  8
0
  6
Continuous
 62
     7
370
    15
100
AcDbCircle
 10
4.3201543724
 20
4.1806611123
 30
0.0
 40
0.1968503937007871
100
AcDbArc
 50
180.0
 51
270.0
  0
SPLINE
  5
106
330
1F
100
AcDbEntity
  8
0
  6
Continuous
 62
     7
370
    15
100
AcDbSpline
210
0.0
220
0.0
230
1.0
 70
     8
 71
     3
 72
    14
 73
    10
 74
     0
 42
0.00000001
 43
0.00000001
 40
0.0
 40
0.0
 40
0.0
 40
0.0
 40
0.25
 40
0.25
 40
0.5
 40
0.5
 40
0.75
 40
0.75
 40
1.0
 40
1.0
 40
1.0
 40
1.0
 10
5.374049961475519
 20
4.18066111225641
 30
0.0
 10
5.393049912760481
 20
4.16838314599608
 30
0.0
 10
5.413304465801437
 20
4.15910989180581
 30
0.0
 10
5.456329451819988
 20
4.146391610856337
 30
0.0
 10
5.478712202713875
 20
4.143155977840577
 30
0.0
 10
5.523394569498458
 20
4.143117210503096
 30
0.0
 10
5.545980418824636
 20
4.146366234541375
 30
0.0
 10
5.588744407068654
 20
4.158938288034173
 30
0.0
 10
5.609470885705513
 20
4.168387882263848
 30
0.0
 10
5.628463507693835
 20
4.180661112256411
 30
0.0
  0
LINE
  5
107
330
1F
100
AcDbEntity
  8
0
  6
Continuous
 62
     7
370
    15
100
AcDbLine
 10
5.6981071496
 20
3.9838107083
 30
0.0
 11
4.3201543511
 21
3.9838107083
 31
0.0
  0
SPLINE
  5
108
330
1F
100
AcDbEntity
  8
0
  6
Continuous
 62
     7
370
    15
100
AcDbSpline
210
0.0
220
0.0
230
1.0
 70
     8
 71
     3
 72
    14
 73
    10
 74
     0
 42
0.00000001
 43
0.00000001
 40
0.0
 40
0.0
 40
0.0
 40
0.0
 40
0.25
 40
0.25
 40
0.5
 40
0.5
 40
0.75
 40
0.75
 40
1.0
 40
1.0
 40
1.0
 40
1.0
 10
4.389797992971582
 20
4.180661112256411
 30
0.0
 10
4.408797944256544
 20
4.16838314599608
 30
0.0
 10
4.429052497297501
 20
4.15910989180581
 30
0.0
 10
4.472077483316052
 20
4.146391610856337
 30
0.0
 10
4.494460234209938
 20
4.143155977840577
 30
0.0
 10
4.53914260099452
 20
4.143117210503096
 30
0.0
 10
4.561728450320699
 20
4.146366234541375
 30
0.0
 10
4.604492438564718
 20
4.158938288034173
 30
0.0
 10
4.625218917201577
 20
4.168387882263848
 30
0.0
 10
4.644211539189899
 20
4.180661112256411
 30
0.0
  0
SPLINE
  5
109
330
1F
100
AcDbEntity
  8
0
  6
Continuous
 62
     7
370
    15
100
AcDbSpline
210
0.0
220
0.0
230
1.0
 70
     8
 71
     3
 72
    22
 73
    18
 74
     0
 42
0.00000001
 43
0.00000001
 40
0.0
 40
0.0
 40
0.0
 40
0.0
 40
0.1249999999999999
 40
0.1249999999999999
 40
0.2499999999999999
 40
0.2499999999999999
 40
0.3749999999999999
 40
0.3749999999999999
 40
0.4999999999999999
 40
0.4999999999999999
 40
0.6249999999999999
 40
0.6249999999999999
 40
0.7499999999999999
 40
0.7499999999999999
 40
0.8749999999999999
 40
0.8749999999999999
 40
1.0
 40
1.0
 40
1.0
 40
1.0
 10
4.766424812004359
 20
4.18066111225641
 30
0.0
 10
4.781355283705062
 20
4.162252644405886
 30
0.0
 10
4.797888907457921
 20
4.146074344423071
 30
0.0
 10
4.834086033161634
 20
4.117616098320571
 30
0.0
 10
4.853898904442298
 20
4.105328612455585
 30
0.0
 10
4.89522685283476
 20
4.085610228761925
 30
0.0
 10
4.917200231534538
 20
4.077941898223696
 30
0.0
 10
4.962388191117154
 20
4.067659439121933
 30
0.0
 10
4.985465153917588
 20
4.065013297491801
 30
0.0
 10
5.032749009283213
 20
4.065009716215263
 30
0.0
 10
5.055856409796578
 20
4.067657849532718
 30
0.0
 10
5.101020320254516
 20
4.077930327323529
 30
0.0
 10
5.123010636122467
 20
4.085601041949935
 30
0.0
 10
5.164336164454935
 20
4.105313734453512
 30
0.0
 10
5.184145942262509
 20
4.117594775806104
 30
0.0
 10
5.220370439959876
 20
4.146070762904297
 30
0.0
 10
5.236908585110118
 20
4.162255564207058
 30
0.0
 10
5.25183668866106
 20
4.18066111225641
 30
0.0
  0
CIRCLE
  5
10A
330
1F
100
AcDbEntity
  8
0
  6
Continuous
 62
     7
370
    15
100
AcDbCircle
 10
5.0091307503
 20
4.377511506
 30
0.0
 40
0.1749999999999998
  0
ARC
  5
10B
330
1F
100
AcDbEntity
  8
0
  6
Continuous
 62
     7
370
    15
100
AcDbCircle
 10
4.5170047661
 20
4.377511506
 30
0.0
 40
0.234375
100
AcDbArc
 50
329.8439537415
 51
30.1560462585
  0
ARC
  5
10C
330
1F
100
AcDbEntity
  8
0
  6
Continuous
 62
     7
370
    15
100
AcDbCircle
 10
5.5012567346
 20
4.377511506
 30
0.0
 40
0.234375
100
AcDbArc
 50
149.8439537415
 51
210.1560462585
  0
DIMENSION
  5
10D
330
1F
100
AcDbEntity
  8
FORMAT
100
AcDbDimension
  2
*D7
 10
5.894957522
 20
6.4759218689
 30
0.0
 11
5.401027236
 21
6.4759218689
 31
0.0
 70
   160
  1
(<>)
 71
     2
 42
-1.0
  3
SLDDIMSTYLE0
100
AcDbAlignedDimension
 13
4.1233039787
 23
6.1491650493
 33
0.0
 14
5.894957522
 24
6.1491650493
 34
0.0
100
AcDbRotatedDimension
  0
DIMENSION
  5
11B
330
1F
100
AcDbEntity
  8
FORMAT
100
AcDbDimension
  2
*D8
 10
3.8786873894
 20
3.9838107186
 30
0.0
 11
3.8786873894
 21
5.2168400807
 31
0.0
 70
   160
  1
(<>)
 71
     2
 42
-1.0
  3
SLDDIMSTYLE2
100
AcDbAlignedDimension
 13
4.3201543724
 23
6.346015443
 33
0.0
 14
4.3201543724
 24
3.9838107186
 34
0.0
 50
90.0
100
AcDbRotatedDimension
  0
DIMENSION
  5
128
330
1F
100
AcDbEntity
  8
FORMAT
100
AcDbDimension
  2
*D9
 10
4.5170047661
 20
4.377511506
 30
0.0
 11
2.523548333
 21
2.5822862373
 31
0.0
 70
   164
  1
<> x %%c 0.094 {\fGDT;x} 0.394\P
 71
     1
 42
-1.0
  3
SLDDIMSTYLE3
100
AcDbRadialDimension
 15
4.4923343234
 25
4.1444385348
 35
0.0
 40
0.0
  0
DIMENSION
  5
141
330
1F
100
AcDbEntity
  8
FORMAT
100
AcDbDimension
  2
*D11
 10
4.9791176783
 20
4.5499186274
 30
0.0
 11
7.2067985301
 21
2.8088968686
 31
0.0
 70
   163
  1
<> THRU ALL\P{\fGDT;v}%%c 0.125 {\fGDT;x} 0.060\P
 71
     1
 42
-1.0
  3
SLDDIMSTYLE4
100
AcDbDiametricDimension
 15
5.0391438223
 25
4.2051043846
 35
0.0
 40
0.0
  0
LINE
  5
15C
330
1F
100
AcDbEntity
  8
0
  6
HIDDEN
 62
     7
370
     0
100
AcDbLine
 10
5.0091307503
 20
3.0828117674
 30
0.0
 11
5.0091307503
 21
7.2632808106
 31
0.0
  0
LINE
  5
15D
330
1F
100
AcDbEntity
  8
0
  6
Continuous
 62
     7
370
     0
100
AcDbLine
 10
4.5366898055
 20
3.1615519249
 30
0.0
 11
5.0091307503
 21
3.1615519249
 31
0.0
  0
INSERT
  5
15E
330
1F
100
AcDbEntity
  8
0
  6
Continuous
 62
     7
370
     0
100
AcDbBlockReference
  2
_CLOSED
 10
5.0091307503
 20
3.1615519249
 30
0.0
 41
0.2362204724
 42
0.2362204724
 50
360.0
  0
LINE
  5
15F
330
1F
100
AcDbEntity
  8
0
  6
Continuous
 62
     7
370
     0
100
AcDbLine
 10
4.5366898055
 20
7.1845406531
 30
0.0
 11
5.0091307503
 21
7.1845406531
 31
0.0
  0
INSERT
  5
160
330
1F
100
AcDbEntity
  8
0
  6
Continuous
 62
     7
370
     0
100
AcDbBlockReference
  2
_CLOSED
 10
5.0091307503
 20
7.1845406531
 30
0.0
 41
0.2362204724
 42
0.2362204724
 50
360.0
  0
MTEXT
  5
161
330
1F
100
AcDbEntity
  8
0
  6
Continuous
 62
     7
100
AcDbMText
 10
4.5366898055
 20
3.5584693417
 30
0.0
 40
0.25
 41
0.0
 71
     1
 72
     1
  1
A
  7
SLDTEXTSTYLE0
 73
     1
 44
1.0
  0
MTEXT
  5
162
330
1F
100
AcDbEntity
  8
0
  6
Continuous
 62
     7
100
AcDbMText
 10
4.5366898055
 20
7.5814580699
 30
0.0
 40
0.25
 41
0.0
 71
     1
 72
     1
  1
A
  7
SLDTEXTSTYLE0
 73
     1
 44
1.0
  0
LINE
  5
163
330
1F
100
AcDbEntity
  8
0
  6
Continuous
 62
     7
370
    15
100
AcDbLine
 10
1.9295473952
 20
6.1393225243
 30
0.0
 11
1.9295473952
 21
6.3460154532
 31
0.0
  0
LINE
  5
164
330
1F
100
AcDbEntity
  8
0
  6
Continuous
 62
     7
370
    15
100
AcDbLine
 10
2.1608466044
 20
6.3460154532
 30
0.0
 11
1.9295473952
 21
6.3460154532
 31
0.0
  0
ARC
  5
165
330
1F
100
AcDbEntity
  8
0
  6
Continuous
 62
     7
370
    15
100
AcDbCircle
 10
2.1608466138
 20
6.1491650493
 30
0.0
 40
0.1968503937007879
100
AcDbArc
 50
0.0
 51
90.0
  0
LINE
  5
166
330
1F
100
AcDbEntity
  8
0
  6
Continuous
 62
     7
370
    15
100
AcDbLine
 10
2.3576970075
 20
4.6900114877
 30
0.0
 11
2.3576970075
 21
6.1491650273
 31
0.0
  0
LINE
  5
167
330
1F
100
AcDbEntity
  8
0
  6
Continuous
 62
     7
370
    15
100
AcDbLine
 10
2.0576970148
 20
4.6900114877
 30
0.0
 11
2.3576970075
 21
4.6900114877
 31
0.0
  0
LINE
  5
168
330
1F
100
AcDbEntity
  8
0
  6
Continuous
 62
     7
370
    15
100
AcDbLine
 10
2.0576970148
 20
4.5525115178
 30
0.0
 11
2.0576970148
 21
4.6900114877
 31
0.0
  0
LINE
  5
169
330
1F
100
AcDbEntity
  8
0
  6
Continuous
 62
     7
370
    15
100
AcDbLine
 10
1.9295473952
 20
4.5525115178
 30
0.0
 11
2.0576970148
 21
4.5525115178
 31
0.0
  0
LINE
  5
16A
330
1F
100
AcDbEntity
  8
0
  6
Continuous
 62
     7
370
    15
100
AcDbLine
 10
1.9295473952
 20
4.5525115178
 30
0.0
 11
1.9295473952
 21
4.7810548235
 31
0.0
  0
LINE
  5
16B
330
1F
100
AcDbEntity
  8
0
  6
Continuous
 62
     7
370
    15
100
AcDbLine
 10
1.9295473952
 20
6.1393225243
 30
0.0
 11
1.732697015
 21
6.1393225243
 31
0.0
  0
LINE
  5
16C
330
1F
100
AcDbEntity
  8
0
  6
Continuous
 62
     7
370
    15
100
AcDbLine
 10
1.732697015
 20
4.7810548235
 30
0.0
 11
1.9295473952
 21
4.7810548235
 31
0.0
  0
LINE
  5
16D
330
1F
100
AcDbEntity
  8
0
  6
Continuous
 62
     7
370
    15
100
AcDbLine
 10
1.732697015
 20
6.1393225243
 30
0.0
 11
1.732697015
 21
4.7810548235
 31
0.0
  0
LINE
  5
16E
330
1F
100
AcDbEntity
  8
0
  6
Continuous
 62
     7
370
    15
100
AcDbLine
 10
1.9295473952
 20
4.5525115178
 30
0.0
 11
1.9295473952
 21
4.2025114652
 31
0.0
  0
LINE
  5
16F
330
1F
100
AcDbEntity
  8
0
  6
Continuous
 62
     7
370
    15
100
AcDbLine
 10
2.0576970148
 20
4.2025114652
 30
0.0
 11
2.0576970148
 21
4.5525115178
 31
0.0
  0
LINE
  5
170
330
1F
100
AcDbEntity
  8
0
  6
Continuous
 62
     7
370
    15
100
AcDbLine
 10
2.0576970148
 20
4.2025114652
 30
0.0
 11
1.9295473952
 21
4.2025114652
 31
0.0
  0
LINE
  5
171
330
1F
100
AcDbEntity
  8
0
  6
Continuous
 62
     7
370
    15
100
AcDbLine
 10
2.320142708
 20
4.0650114953
 30
0.0
 11
2.0576970148
 21
4.0650114953
 31
0.0
  0
ARC
  5
172
330
1F
100
AcDbEntity
  8
0
  6
Continuous
 62
     7
370
    15
100
AcDbCircle
 10
2.1608466138
 20
4.1806611123
 30
0.0
 40
0.1968503937007875
100
AcDbArc
 50
270.0
 51
324.0201994025
  0
LINE
  5
173
330
1F
100
AcDbEntity
  8
0
  6
Continuous
 62
     7
370
    15
100
AcDbLine
 10
2.0576970148
 20
4.0650114953
 30
0.0
 11
2.0576970148
 21
4.2025114652
 31
0.0
  0
LINE
  5
174
330
1F
100
AcDbEntity
  8
0
  6
Continuous
 62
     7
370
    15
100
AcDbLine
 10
1.9295473952
 20
3.9838107083
 30
0.0
 11
2.1608466044
 21
3.9838107083
 31
0.0
  0
LINE
  5
175
330
1F
100
AcDbEntity
  8
0
  6
Continuous
 62
     7
370
    15
100
AcDbLine
 10
1.9295473952
 20
3.9838107083
 30
0.0
 11
1.9295473952
 21
4.2025114652
 31
0.0
  0
LINE
  5
176
330
1F
100
AcDbEntity
  8
0
  6
Continuous
 62
     7
370
    15
100
AcDbLine
 10
2.3576970075
 20
4.2597716704
 30
0.0
 11
2.0576970148
 21
4.2597716704
 31
0.0
  0
LINE
  5
177
330
1F
100
AcDbEntity
  8
0
  6
Continuous
 62
     7
370
    15
100
AcDbLine
 10
2.3576970075
 20
4.1806611343
 30
0.0
 11
2.3576970075
 21
4.2597716704
 31
0.0
  0
SPLINE
  5
178
330
1F
100
AcDbEntity
  8
0
  6
Continuous
 62
     7
370
    15
100
AcDbSpline
210
0.0
220
0.0
230
1.0
 70
     8
 71
     3
 72
    14
 73
    10
 74
     0
 42
0.00000001
 43
0.00000001
 40
0.0
 40
0.0
 40
0.0
 40
0.0
 40
0.25
 40
0.25
 40
0.5
 40
0.5
 40
0.75
 40
0.75
 40
1.0
 40
1.0
 40
1.0
 40
1.0
 10
2.320142709356598
 20
4.065011505957199
 30
0.0
 10
2.320142709356598
 20
4.065011505957199
 30
0.0
 10
2.322149854120692
 20
4.06766087056299
 30
0.0
 10
2.328879765251496
 20
4.077935020274575
 30
0.0
 10
2.333572261203469
 20
4.08560603820557
 30
0.0
 10
2.343036413535555
 20
4.105318606020728
 30
0.0
 10
2.347900764596854
 20
4.117599196248086
 30
0.0
 10
2.355191038863531
 20
4.146073469556416
 30
0.0
 10
2.357697007490064
 20
4.16225709972946
 30
0.0
 10
2.357697007490064
 20
4.18066111225641
 30
0.0
  0
LINE
  5
179
330
1F
100
AcDbEntity
  8
0
  6
Continuous
 62
     7
370
    15
100
AcDbLine
 10
2.3576970075
 20
4.4952513584
 30
0.0
 11
2.3576970075
 21
4.6900114877
 31
0.0
  0
LINE
  5
17A
330
1F
100
AcDbEntity
  8
0
  6
Continuous
 62
     7
370
    15
100
AcDbLine
 10
2.0576970148
 20
4.4952513584
 30
0.0
 11
2.3576970075
 21
4.4952513584
 31
0.0
  0
SPLINE
  5
17B
330
1F
100
AcDbEntity
  8
0
  6
Continuous
 62
     7
370
    15
100
AcDbSpline
210
0.0
220
0.0
230
1.0
 70
     8
 71
     3
 72
    14
 73
    10
 74
     0
 42
0.00000001
 43
0.00000001
 40
0.0
 40
0.0
 40
0.0
 40
0.0
 40
0.115611717904054
 40
0.2746580550599743
 40
0.4336738595332137
 40
0.5926775209995028
 40
0.7502462932132553
 40
0.9078265898609476
 40
1.0
 40
1.0
 40
1.0
 40
1.0
 10
2.357463786954265
 20
4.259771670364493
 30
0.0
 10
2.357302347555051
 20
4.26805792667236
 30
0.0
 10
2.356918816956231
 20
4.28774353538493
 30
0.0
 10
2.355092414967092
 20
4.322048325849677
 30
0.0
 10
2.354053578559145
 20
4.36097768581616
 30
0.0
 10
2.35407909161397
 20
4.400402101527366
 30
0.0
 10
2.355422777248554
 20
4.438884643354211
 30
0.0
 10
2.357038211576018
 20
4.470859980990434
 30
0.0
 10
2.357363372417405
 20
4.488676166441105
 30
0.0
 10
2.357483375375439
 20
4.495251358416375
 30
0.0
  0
HATCH
  5
17C
330
1F
100
AcDbEntity
  8
0
  6
Continuous
 62
     7
370
     0
100
AcDbHatch
 10
0.0
 20
0.0
 30
0.0
210
0.0
220
0.0
230
1.0
  2
ANSI31
 70
     0
 71
     0
 91
        1
 92
        0
 93
       11
 72
     1
 10
1.732697007490064
 20
6.139322529579245
 11
1.732697007490064
 21
4.781054813043812
 72
     1
 10
1.732697007490064
 20
4.781054813043812
 11
1.929547401190852
 21
4.781054813043812
 72
     1
 10
1.929547401190852
 20
4.781054813043812
 11
1.929547401190852
 21
4.552511505957198
 72
     1
 10
1.929547401190852
 20
4.552511505957198
 11
2.057697007490064
 21
4.552511505957198
 72
     1
 10
2.057697007490064
 20
4.552511505957198
 11
2.057697007490064
 21
4.690011505957198
 72
     1
 10
2.057697007490064
 20
4.690011505957198
 11
2.357697007490064
 21
4.690011505957198
 72
     1
 10
2.357697007490064
 20
4.690011505957198
 11
2.357697007490064
 21
6.149165049264284
 72
     2
 10
2.160846613789277
 20
6.149165049264284
 40
0.1968503937007874
 50
0.0
 51
90.0
 73
     1
 72
     1
 10
2.160846613789277
 20
6.346015442965072
 11
1.929547401190852
 21
6.346015442965072
 72
     1
 10
1.929547401190852
 20
6.346015442965072
 11
1.929547401190852
 21
6.139322529579245
 72
     1
 10
1.929547401190852
 20
6.139322529579245
 11
1.732697007490064
 21
6.139322529579245
 97
        0
 75
     0
 76
     1
 52
0.0
 41
1.0
 77
     0
 78
     1
 53
45.0
 43
0.0
 44
0.0
 45
-0.0883883476483184
 46
0.0883883476483184
 79
     0
 98
        1
 10
0.0
 20
0.0
  0
HATCH
  5
17D
330
1F
100
AcDbEntity
  8
0
  6
Continuous
 62
     7
370
     0
100
AcDbHatch
 10
0.0
 20
0.0
 30
0.0
210
0.0
220
0.0
230
1.0
  2
ANSI31
 70
     0
 71
     0
 91
        1
 92
        0
 93
        6
 72
     1
 10
2.057697007490064
 20
4.065011505957198
 11
2.057697007490064
 21
4.202511505957198
 72
     1
 10
2.057697007490064
 20
4.202511505957198
 11
1.929547401190852
 21
4.202511505957198
 72
     1
 10
1.929547401190852
 20
4.202511505957198
 11
1.929547401190852
 21
3.983810718555624
 72
     1
 10
1.929547401190852
 20
3.983810718555624
 11
2.160846613789277
 21
3.983810718555624
 72
     2
 10
2.160846613789277
 20
4.18066111225641
 40
0.1968503937007874
 50
270.0000000000008
 51
324.0201994025267
 73
     1
 72
     1
 10
2.320142709356595
 20
4.065011505957198
 11
2.057697007490064
 21
4.065011505957198
 97
        0
 75
     0
 76
     1
 52
0.0
 41
1.0
 77
     0
 78
     1
 53
45.0
 43
0.0
 44
0.0
 45
-0.0883883476483184
 46
0.0883883476483184
 79
     0
 98
        1
 10
0.0
 20
0.0
  0
DIMENSION
  5
17E
330
1F
100
AcDbEntity
  8
FORMAT
100
AcDbDimension
  2
*D13
 10
1.7326970075
 20
6.5770804564
 30
0.0
 11
0.8665552752
 21
6.5770804564
 31
0.0
 70
   160
  1
(<>)
 71
     2
 42
-1.0
  3
SLDDIMSTYLE0
100
AcDbAlignedDimension
 13
1.9295474012
 23
6.1393225296
 33
0.0
 14
1.7326970075
 24
6.1393225296
 34
0.0
100
AcDbRotatedDimension
  0
DIMENSION
  5
18C
330
1F
100
AcDbEntity
  8
FORMAT
100
AcDbDimension
  2
*D14
 10
2.3576970075
 20
7.43951938
 30
0.0
 11
2.0451970075
 21
7.43951938
 31
0.0
 70
   160
  1
(<>)
 71
     2
 42
-1.0
  3
SLDDIMSTYLE0
100
AcDbAlignedDimension
 13
1.7326970075
 23
6.1393225296
 33
0.0
 14
2.3576970075
 24
6.1491650493
 34
0.0
100
AcDbRotatedDimension
  0
DIMENSION
  5
19A
330
1F
100
AcDbEntity
  8
FORMAT
100
AcDbDimension
  2
*D15
 10
2.3576970075
 20
6.9759367028
 30
0.0
 11
3.2238387398
 21
6.9759367028
 31
0.0
 70
   160
  1
(<>)
 71
     2
 42
-1.0
  3
SLDDIMSTYLE0
100
AcDbAlignedDimension
 13
1.9295474012
 23
6.346015443
 33
0.0
 14
2.3576970075
 24
6.1491650493
 34
0.0
100
AcDbRotatedDimension
  0
DIMENSION
  5
1A8
330
1F
100
AcDbEntity
  8
FORMAT
100
AcDbDimension
  2
*D16
 10
2.0576970075
 20
3.7621727719
 30
0.0
 11
2.9876182673
 21
3.7621727719
 31
0.0
 70
   160
  1
(<>)
 71
     2
 42
-1.0
  3
SLDDIMSTYLE0
100
AcDbAlignedDimension
 13
1.9295474012
 23
4.552511506
 33
0.0
 14
2.0576970075
 24
4.552511506
 34
0.0
 50
0.0
100
AcDbRotatedDimension
  0
MTEXT
  5
1B6
330
1F
100
AcDbEntity
  8
FORMAT
100
AcDbMText
 10
1.01255805
 20
3.6215932958
 30
0.0
 40
0.25
 41
0.0
 71
     1
 72
     1
  1
SECTION A-A
  7
SLDTEXTSTYLE0
 73
     1
 44
1.0
  0
ENDSEC
  0
SECTION
  2
OBJECTS
  0
DICTIONARY
  5
C
330
0
100
AcDbDictionary
281
     1
  3
ACAD_GROUP
350
D
  3
ACAD_LAYOUT
350
1A
  3
ACAD_MLEADERSTYLE
350
1B8
  3
ACAD_MLINESTYLE
350
17
  3
ACAD_PLOTSETTINGS
350
19
  3
ACAD_PLOTSTYLENAME
350
E
  3
ACAD_TABLESTYLE
350
1B7
  3
ACAD_VISUALSTYLE
350
2A
  0
DICTIONARY
  5
D
102
{ACAD_REACTORS
330
C
102
}
330
C
100
AcDbDictionary
281
     1
  0
DICTIONARY
  5
1A
102
{ACAD_REACTORS
330
C
102
}
330
C
100
AcDbDictionary
281
     1
  3
Layout1
350
1E
  3
Layout2
350
26
  3
Model
350
22
  0
DICTIONARY
  5
1B8
102
{ACAD_REACTORS
330
C
102
}
330
C
100
AcDbDictionary
281
     1
  0
DICTIONARY
  5
17
102
{ACAD_REACTORS
330
C
102
}
330
C
100
AcDbDictionary
281
     1
  3
Standard
350
18
  0
DICTIONARY
  5
19
102
{ACAD_REACTORS
330
C
102
}
330
C
100
AcDbDictionary
281
     1
  0
ACDBDICTIONARYWDFLT
  5
E
102
{ACAD_REACTORS
330
C
102
}
330
C
100
AcDbDictionary
281
     1
  3
Normal
350
F
100
AcDbDictionaryWithDefault
340
F
  0
DICTIONARY
  5
1B7
102
{ACAD_REACTORS
330
C
102
}
330
C
100
AcDbDictionary
281
     1
  0
DICTIONARY
  5
2A
102
{ACAD_REACTORS
330
C
102
}
330
C
100
AcDbDictionary
281
     1
  3
2dWireframe
350
2F
  3
3D Hidden
350
31
  3
3dWireframe
350
30
  3
Basic
350
32
  3
Brighten
350
36
  3
ColorChange
350
3A
  3
Conceptual
350
34
  3
Dim
350
35
  3
Facepattern
350
39
  3
Flat
350
2B
  3
FlatWithEdges
350
2C
  3
Gouraud
350
2D
  3
GouraudWithEdges
350
2E
  3
Linepattern
350
38
  3
Realistic
350
33
  3
Thicken
350
37
  0
LAYOUT
  5
1E
102
{ACAD_REACTORS
330
1A
102
}
330
1A
100
AcDbPlotSettings
  1

  2
none_device
  4

  6

 40
0.0
 41
0.0
 42
0.0
 43
0.0
 44
0.0
 45
0.0
 46
0.0
 47
0.0
 48
0.0
 49
0.0
140
0.0
141
0.0
142
1.0
143
1.0
 70
   688
 72
     0
 73
     0
 74
     5
  7

 75
    16
147
1.0
148
0.0
149
0.0
100
AcDbLayout
  1
Layout1
 70
     1
 71
     1
 10
0.0
 20
0.0
 11
12.0
 21
9.0
 12
0.0
 22
0.0
 32
0.0
 14
1.0000000000E+20
 24
1.0000000000E+20
 34
1.0000000000E+20
 15
-1.0000000000E+20
 25
-1.0000000000E+20
 35
-1.0000000000E+20
146
0.0
 13
0.0
 23
0.0
 33
0.0
 16
1.0
 26
0.0
 36
0.0
 17
0.0
 27
1.0
 37
0.0
 76
     0
330
1B
  0
LAYOUT
  5
26
102
{ACAD_REACTORS
330
1A
102
}
330
1A
100
AcDbPlotSettings
  1

  2
none_device
  4

  6

 40
0.0
 41
0.0
 42
0.0
 43
0.0
 44
0.0
 45
0.0
 46
0.0
 47
0.0
 48
0.0
 49
0.0
140
0.0
141
0.0
142
1.0
143
1.0
 70
   688
 72
     0
 73
     0
 74
     5
  7

 75
    16
147
1.0
148
0.0
149
0.0
100
AcDbLayout
  1
Layout2
 70
     1
 71
     2
 10
0.0
 20
0.0
 11
0.0
 21
0.0
 12
0.0
 22
0.0
 32
0.0
 14
0.0
 24
0.0
 34
0.0
 15
0.0
 25
0.0
 35
0.0
146
0.0
 13
0.0
 23
0.0
 33
0.0
 16
1.0
 26
0.0
 36
0.0
 17
0.0
 27
1.0
 37
0.0
 76
     0
330
23
  0
LAYOUT
  5
22
102
{ACAD_REACTORS
330
1A
102
}
330
1A
100
AcDbPlotSettings
  1

  2
none_device
  4

  6

 40
0.0
 41
0.0
 42
0.0
 43
0.0
 44
0.0
 45
0.0
 46
0.0
 47
0.0
 48
0.0
 49
0.0
140
0.0
141
0.0
142
1.0
143
1.0
 70
  1712
 72
     0
 73
     0
 74
     0
  7

 75
     0
147
1.0
148
0.0
149
0.0
100
AcDbLayout
  1
Model
 70
     1
 71
     0
 10
0.0
 20
0.0
 11
11.0
 21
8.5
 12
0.0
 22
0.0
 32
0.0
 14
0.0
 24
0.0
 34
0.0
 15
11.0
 25
8.5
 35
0.0
146
0.0
 13
0.0
 23
0.0
 33
0.0
 16
1.0
 26
0.0
 36
0.0
 17
0.0
 27
1.0
 37
0.0
 76
     0
330
1F
331
29
  0
MLINESTYLE
  5
18
102
{ACAD_REACTORS
330
17
102
}
330
17
100
AcDbMlineStyle
  2
Standard
 70
     0
  3

 62
   256
 51
90.0
 52
90.0
 71
     2
 49
0.5
 62
   256
  6
BYLAYER
 49
-0.5
 62
   256
  6
BYLAYER
  0
ACDBPLACEHOLDER
  5
F
102
{ACAD_REACTORS
330
E
102
}
330
E
  0
VISUALSTYLE
  5
2F
102
{ACAD_REACTORS
330
2A
102
}
330
2A
100
AcDbVisualStyle
  2
2dWireframe
 70
     4
 71
     0
 72
     2
 73
     0
 90
        0
 40
-0.6
 41
-30.0
 62
     5
 63
     7
 74
     1
 91
        4
 64
     7
 65
   257
 75
     1
175
     1
 42
1.0
 92
        0
 66
   257
 43
1.0
 76
     1
 77
     6
 78
     2
 67
     7
 79
     5
170
     0
171
     0
290
     0
174
     0
 93
        1
 44
0.0
173
     0
291
     0
 45
0.0
1001
ACAD
1000
AcDbSavedByObjectVersion
1070
     0
  0
VISUALSTYLE
  5
31
102
{ACAD_REACTORS
330
2A
102
}
330
2A
100
AcDbVisualStyle
  2
3D Hidden
 70
     6
 71
     1
 72
     2
 73
     2
 90
        0
 40
-0.6
 41
-30.0
 62
     5
 63
     7
 74
     2
 91
        2
 64
     7
 65
   257
 75
     2
175
     1
 42
40.0
 92
        0
 66
   257
 43
1.0
 76
     1
 77
     6
 78
     2
 67
     7
 79
     3
170
     0
171
     0
290
     0
174
     0
 93
        1
 44
0.0
173
     0
291
     0
 45
0.0
1001
ACAD
1000
AcDbSavedByObjectVersion
1070
     0
  0
VISUALSTYLE
  5
30
102
{ACAD_REACTORS
330
2A
102
}
330
2A
100
AcDbVisualStyle
  2
3dWireframe
 70
     5
 71
     0
 72
     2
 73
     0
 90
        0
 40
-0.6
 41
-30.0
 62
     5
 63
     7
 74
     1
 91
        4
 64
     7
 65
   257
 75
     1
175
     1
 42
1.0
 92
        0
 66
   257
 43
1.0
 76
     1
 77
     6
 78
     2
 67
     7
 79
     5
170
     0
171
     0
290
     0
174
     0
 93
        1
 44
0.0
173
     0
291
     0
 45
0.0
1001
ACAD
1000
AcDbSavedByObjectVersion
1070
     0
  0
VISUALSTYLE
  5
32
102
{ACAD_REACTORS
330
2A
102
}
330
2A
100
AcDbVisualStyle
  2
Basic
 70
     7
 71
     1
 72
     0
 73
     1
 90
        0
 40
-0.6
 41
-30.0
 62
     5
 63
     7
 74
     0
 91
        4
 64
     7
 65
   257
 75
     1
175
     1
 42
1.0
 92
        8
 66
     7
 43
1.0
 76
     1
 77
     6
 78
     2
 67
     7
 79
     5
170
     0
171
     0
290
     0
174
     0
 93
        1
 44
0.0
173
     0
291
     1
 45
0.0
1001
ACAD
1000
AcDbSavedByObjectVersion
1070
     0
  0
VISUALSTYLE
  5
36
102
{ACAD_REACTORS
330
2A
102
}
330
2A
100
AcDbVisualStyle
  2
Brighten
 70
    12
 71
     2
 72
     2
 73
     0
 90
        0
 40
-0.6
 41
-30.0
 62
     5
 63
     7
 74
     1
 91
        4
 64
     7
 65
   257
 75
     1
175
     1
 42
1.0
 92
        8
 66
     7
 43
1.0
 76
     1
 77
     6
 78
     2
 67
     7
 79
     5
170
     0
171
     0
290
     0
174
     0
 93
        1
 44
50.0
173
     0
291
     1
 45
0.0
1001
ACAD
1000
AcDbSavedByObjectVersion
1070
     0
  0
VISUALSTYLE
  5
3A
102
{ACAD_REACTORS
330
2A
102
}
330
2A
100
AcDbVisualStyle
  2
ColorChange
 70
    16
 71
     2
 72
     2
 73
     3
 90
        0
 40
-0.6
 41
-30.0
 62
     5
 63
     8
 74
     1
 91
        4
 64
     7
 65
   257
 75
     1
175
     1
 42
1.0
 92
        8
 66
     8
 43
1.0
 76
     1
 77
     6
 78
     2
 67
     7
 79
     5
170
     0
171
     0
290
     0
174
     0
 93
        1
 44
0.0
173
     0
291
     1
 45
0.0
1001
ACAD
1000
AcDbSavedByObjectVersion
1070
     0
  0
VISUALSTYLE
  5
34
102
{ACAD_REACTORS
330
2A
102
}
330
2A
100
AcDbVisualStyle
  2
Conceptual
 70
     9
 71
     3
 72
     2
 73
     0
 90
        0
 40
-0.6
 41
-30.0
 62
     5
 63
     7
 74
     2
 91
        2
 64
     7
 65
   257
 75
     1
175
     1
 42
40.0
 92
        8
 66
     7
 43
1.0
 76
     1
 77
     6
 78
     2
 67
     7
 79
     3
170
     0
171
     0
290
     0
174
     0
 93
        1
 44
0.0
173
     0
291
     0
 45
0.0
1001
ACAD
1000
AcDbSavedByObjectVersion
1070
     0
  0
VISUALSTYLE
  5
35
102
{ACAD_REACTORS
330
2A
102
}
330
2A
100
AcDbVisualStyle
  2
Dim
 70
    11
 71
     2
 72
     2
 73
     0
 90
        0
 40
-0.6
 41
-30.0
 62
     5
 63
     7
 74
     1
 91
        4
 64
     7
 65
   257
 75
     1
175
     1
 42
1.0
 92
        8
 66
     7
 43
1.0
 76
     1
 77
     6
 78
     2
 67
     7
 79
     5
170
     0
171
     0
290
     0
174
     0
 93
        1
 44
-50.0
173
     0
291
     1
 45
0.0
1001
ACAD
1000
AcDbSavedByObjectVersion
1070
     0
  0
VISUALSTYLE
  5
39
102
{ACAD_REACTORS
330
2A
102
}
330
2A
100
AcDbVisualStyle
  2
Facepattern
 70
    15
 71
     2
 72
     2
 73
     0
 90
        0
 40
-0.6
 41
-30.0
 62
     5
 63
     7
 74
     1
 91
        4
 64
     7
 65
   257
 75
     1
175
     1
 42
1.0
 92
        8
 66
     7
 43
1.0
 76
     1
 77
     6
 78
     2
 67
     7
 79
     5
170
     0
171
     0
290
     0
174
     0
 93
        1
 44
0.0
173
     0
291
     1
 45
0.0
1001
ACAD
1000
AcDbSavedByObjectVersion
1070
     0
  0
VISUALSTYLE
  5
2B
102
{ACAD_REACTORS
330
2A
102
}
330
2A
100
AcDbVisualStyle
  2
Flat
 70
     0
 71
     2
 72
     1
 73
     1
 90
        2
 40
-0.6
 41
30.0
 62
     5
 63
     7
 74
     0
 91
        4
 64
     7
 65
   257
 75
     1
175
     1
 42
1.0
 92
        8
 66
     7
 43
1.0
 76
     1
 77
     6
 78
     2
 67
     7
 79
     5
170
     0
171
     0
290
     0
174
     0
 93
       13
 44
0.0
173
     0
291
     1
 45
0.0
1001
ACAD
1000
AcDbSavedByObjectVersion
1070
     0
  0
VISUALSTYLE
  5
2C
102
{ACAD_REACTORS
330
2A
102
}
330
2A
100
AcDbVisualStyle
  2
FlatWithEdges
 70
     1
 71
     2
 72
     1
 73
     1
 90
        2
 40
-0.6
 41
30.0
 62
     5
 63
     7
 74
     1
 91
        4
 64
     7
 65
   257
 75
     1
175
     1
 42
1.0
 92
        0
 66
   257
 43
1.0
 76
     1
 77
     6
 78
     2
 67
     7
 79
     5
170
     0
171
     0
290
     0
174
     0
 93
       13
 44
0.0
173
     0
291
     1
 45
0.0
1001
ACAD
1000
AcDbSavedByObjectVersion
1070
     0
  0
VISUALSTYLE
  5
2D
102
{ACAD_REACTORS
330
2A
102
}
330
2A
100
AcDbVisualStyle
  2
Gouraud
 70
     2
 71
     2
 72
     2
 73
     1
 90
        2
 40
-0.6
 41
30.0
 62
     5
 63
     7
 74
     0
 91
        4
 64
     7
 65
   257
 75
     1
175
     1
 42
1.0
 92
        0
 66
     7
 43
1.0
 76
     1
 77
     6
 78
     2
 67
     7
 79
     5
170
     0
171
     0
290
     0
174
     0
 93
       13
 44
0.0
173
     0
291
     1
 45
0.0
1001
ACAD
1000
AcDbSavedByObjectVersion
1070
     0
  0
VISUALSTYLE
  5
2E
102
{ACAD_REACTORS
330
2A
102
}
330
2A
100
AcDbVisualStyle
  2
GouraudWithEdges
 70
     3
 71
     2
 72
     2
 73
     1
 90
        2
 40
-0.6
 41
30.0
 62
     5
 63
     7
 74
     1
 91
        4
 64
     7
 65
   257
 75
     1
175
     1
 42
1.0
 92
        0
 66
   257
 43
1.0
 76
     1
 77
     6
 78
     2
 67
     7
 79
     5
170
     0
171
     0
290
     0
174
     0
 93
       13
 44
0.0
173
     0
291
     1
 45
0.0
1001
ACAD
1000
AcDbSavedByObjectVersion
1070
     0
  0
VISUALSTYLE
  5
38
102
{ACAD_REACTORS
330
2A
102
}
330
2A
100
AcDbVisualStyle
  2
Linepattern
 70
    14
 71
     2
 72
     2
 73
     0
 90
        0
 40
-0.6
 41
-30.0
 62
     5
 63
     7
 74
     1
 91
        4
 64
     7
 65
   257
 75
     7
175
     7
 42
1.0
 92
        8
 66
     7
 43
1.0
 76
     1
 77
     6
 78
     2
 67
     7
 79
     5
170
     0
171
     0
290
     0
174
     0
 93
        1
 44
0.0
173
     0
291
     1
 45
0.0
1001
ACAD
1000
AcDbSavedByObjectVersion
1070
     0
  0
VISUALSTYLE
  5
33
102
{ACAD_REACTORS
330
2A
102
}
330
2A
100
AcDbVisualStyle
  2
Realistic
 70
     8
 71
     2
 72
     2
 73
     0
 90
        0
 40
-0.6
 41
-30.0
 62
     5
 63
     7
 74
     1
 91
        0
 64
     7
 65
   257
 75
     1
175
     1
 42
1.0
 92
        8
 66
     8
 43
1.0
 76
     1
 77
     6
 78
     2
 67
     7
 79
     5
170
     0
171
     0
290
     0
174
     0
 93
       13
 44
0.0
173
     0
291
     0
 45
0.0
1001
ACAD
1000
AcDbSavedByObjectVersion
1070
     0
  0
VISUALSTYLE
  5
37
102
{ACAD_REACTORS
330
2A
102
}
330
2A
100
AcDbVisualStyle
  2
Thicken
 70
    13
 71
     2
 72
     2
 73
     0
 90
        0
 40
-0.6
 41
-30.0
 62
     5
 63
     7
 74
     1
 91
        4
 64
     7
 65
   257
 75
     1
175
     1
 42
1.0
 92
       12
 66
     7
 43
1.0
 76
     1
 77
     6
 78
     2
 67
     7
 79
     5
170
     0
171
     0
290
     0
174
     0
 93
        1
 44
0.0
173
     0
291
     1
 45
0.0
1001
ACAD
1000
AcDbSavedByObjectVersion
1070
     0
  0
ENDSEC
  0
EOF
