  0
SECTION
  2
HEADER
  9
$ACADVER
  1
AC1015
  9
$ACADMAINTVER
 70
     6
  9
$DWGCODEPAGE
  3
ANSI_1252
  9
$INSBASE
 10
0.0
 20
0.0
 30
0.0
  9
$EXTMIN
 10
0.0
 20
0.0
 30
0.0
  9
$EXTMAX
 10
11.0
 20
8.5
 30
0.0
  9
$LIMMIN
 10
0.0
 20
0.0
  9
$LIMMAX
 10
11.0
 20
8.5
  9
$ORTHOMODE
 70
     0
  9
$REGENMODE
 70
     1
  9
$FILLMODE
 70
     1
  9
$QTEXTMODE
 70
     0
  9
$MIRRTEXT
 70
     1
  9
$LTSCALE
 40
1.0
  9
$ATTMODE
 70
     1
  9
$TEXTSIZE
 40
0.25
  9
$TRACEWID
 40
0.05
  9
$TEXTSTYLE
  7
Standard
  9
$CLAYER
  8
0
  9
$CELTYPE
  6
ByLayer
  9
$CECOLOR
 62
   256
  9
$CELTSCALE
 40
1.0
  9
$DISPSILH
 70
     0
  9
$DIMSCALE
 40
1.0
  9
$DIMASZ
 40
0.236
  9
$DIMEXO
 40
0.039
  9
$DIMDLI
 40
0.38
  9
$DIMRND
 40
0.0
  9
$DIMDLE
 40
0.0
  9
$DIMEXE
 40
0.039
  9
$DIMTP
 40
0.0
  9
$DIMTM
 40
0.0
  9
$DIMTXT
 40
0.25
  9
$DIMCEN
 40
0.09
  9
$DIMTSZ
 40
0.0
  9
$DIMTOL
 70
     0
  9
$DIMLIM
 70
     0
  9
$DIMTIH
 70
     1
  9
$DIMTOH
 70
     1
  9
$DIMSE1
 70
     0
  9
$DIMSE2
 70
     0
  9
$DIMTAD
 70
     1
  9
$DIMZIN
 70
     0
  9
$DIMBLK
  1

  9
$DIMASO
 70
     1
  9
$DIMSHO
 70
     1
  9
$DIMPOST
  1

  9
$DIMAPOST
  1

  9
$DIMALT
 70
     0
  9
$DIMALTD
 70
     2
  9
$DIMALTF
 40
25.4
  9
$DIMLFAC
 40
0.2
  9
$DIMTOFL
 70
     0
  9
$DIMTVP
 40
0.0
  9
$DIMTIX
 70
     0
  9
$DIMSOXD
 70
     0
  9
$DIMSAH
 70
     0
  9
$DIMBLK1
  1

  9
$DIMBLK2
  1

  9
$DIMSTYLE
  2
Standard
  9
$DIMCLRD
 70
     0
  9
$DIMCLRE
 70
     0
  9
$DIMCLRT
 70
     0
  9
$DIMTFAC
 40
1.0
  9
$DIMGAP
 40
0.06
  9
$DIMJUST
 70
     0
  9
$DIMSD1
 70
     0
  9
$DIMSD2
 70
     0
  9
$DIMTOLJ
 70
     1
  9
$DIMTZIN
 70
     0
  9
$DIMALTZ
 70
     0
  9
$DIMALTTZ
 70
     0
  9
$DIMUPT
 70
     0
  9
$DIMDEC
 70
     4
  9
$DIMTDEC
 70
     4
  9
$DIMALTU
 70
     2
  9
$DIMALTTD
 70
     2
  9
$DIMTXSTY
  7
Standard
  9
$DIMAUNIT
 70
     0
  9
$DIMADEC
 70
     0
  9
$DIMALTRND
 40
0.0
  9
$DIMAZIN
 70
     0
  9
$DIMDSEP
 70
    46
  9
$DIMATFIT
 70
     3
  9
$DIMFRAC
 70
     0
  9
$DIMLDRBLK
  1

  9
$DIMLUNIT
 70
     2
  9
$DIMLWD
 70
    -2
  9
$DIMLWE
 70
    -2
  9
$DIMTMOVE
 70
     0
  9
$LUNITS
 70
     2
  9
$LUPREC
 70
     3
  9
$SKETCHINC
 40
0.1
  9
$FILLETRAD
 40
0.5
  9
$AUNITS
 70
     0
  9
$AUPREC
 70
     0
  9
$MENU
  1
.
  9
$ELEVATION
 40
0.0
  9
$PELEVATION
 40
0.0
  9
$THICKNESS
 40
0.0
  9
$LIMCHECK
 70
     0
  9
$CHAMFERA
 40
0.5
  9
$CHAMFERB
 40
0.5
  9
$CHAMFERC
 40
1.0
  9
$CHAMFERD
 40
0.0
  9
$SKPOLY
 70
     0
  9
$TDCREATE
 40
2455182.437111956
  9
$TDUCREATE
 40
2455182.64544529
  9
$TDUPDATE
 40
2455182.437111968
  9
$TDUUPDATE
 40
2455182.645445301
  9
$TDINDWG
 40
0.0000000116
  9
$TDUSRTIMER
 40
0.0000000116
  9
$USRTIMER
 70
     1
  9
$ANGBASE
 50
0.0
  9
$ANGDIR
 70
     0
  9
$PDMODE
 70
     0
  9
$PDSIZE
 40
-1.0
  9
$PLINEWID
 40
0.0
  9
$SPLFRAME
 70
     0
  9
$SPLINETYPE
 70
     6
  9
$SPLINESEGS
 70
     8
  9
$HANDSEED
  5
1AE
  9
$SURFTAB1
 70
     6
  9
$SURFTAB2
 70
     6
  9
$SURFTYPE
 70
     6
  9
$SURFU
 70
     6
  9
$SURFV
 70
     6
  9
$UCSBASE
  2

  9
$UCSNAME
  2

  9
$UCSORG
 10
0.0
 20
0.0
 30
0.0
  9
$UCSXDIR
 10
1.0
 20
0.0
 30
0.0
  9
$UCSYDIR
 10
0.0
 20
1.0
 30
0.0
  9
$UCSORTHOREF
  2

  9
$UCSORTHOVIEW
 70
     0
  9
$UCSORGTOP
 10
0.0
 20
0.0
 30
0.0
  9
$UCSORGBOTTOM
 10
0.0
 20
0.0
 30
0.0
  9
$UCSORGLEFT
 10
0.0
 20
0.0
 30
0.0
  9
$UCSORGRIGHT
 10
0.0
 20
0.0
 30
0.0
  9
$UCSORGFRONT
 10
0.0
 20
0.0
 30
0.0
  9
$UCSORGBACK
 10
0.0
 20
0.0
 30
0.0
  9
$PUCSBASE
  2

  9
$PUCSNAME
  2

  9
$PUCSORG
 10
0.0
 20
0.0
 30
0.0
  9
$PUCSXDIR
 10
1.0
 20
0.0
 30
0.0
  9
$PUCSYDIR
 10
0.0
 20
1.0
 30
0.0
  9
$PUCSORTHOREF
  2

  9
$PUCSORTHOVIEW
 70
     0
  9
$PUCSORGTOP
 10
0.0
 20
0.0
 30
0.0
  9
$PUCSORGBOTTOM
 10
0.0
 20
0.0
 30
0.0
  9
$PUCSORGLEFT
 10
0.0
 20
0.0
 30
0.0
  9
$PUCSORGRIGHT
 10
0.0
 20
0.0
 30
0.0
  9
$PUCSORGFRONT
 10
0.0
 20
0.0
 30
0.0
  9
$PUCSORGBACK
 10
0.0
 20
0.0
 30
0.0
  9
$USERI1
 70
     0
  9
$USERI2
 70
     0
  9
$USERI3
 70
     0
  9
$USERI4
 70
     0
  9
$USERI5
 70
     0
  9
$USERR1
 40
0.0
  9
$USERR2
 40
0.0
  9
$USERR3
 40
0.0
  9
$USERR4
 40
0.0
  9
$USERR5
 40
0.0
  9
$WORLDVIEW
 70
     1
  9
$SHADEDGE
 70
     3
  9
$SHADEDIF
 70
    70
  9
$TILEMODE
 70
     1
  9
$MAXACTVP
 70
    64
  9
$PINSBASE
 10
0.0
 20
0.0
 30
0.0
  9
$PLIMCHECK
 70
     0
  9
$PEXTMIN
 10
1.0000000000E+20
 20
1.0000000000E+20
 30
1.0000000000E+20
  9
$PEXTMAX
 10
-1.0000000000E+20
 20
-1.0000000000E+20
 30
-1.0000000000E+20
  9
$PLIMMIN
 10
0.0
 20
0.0
  9
$PLIMMAX
 10
12.0
 20
9.0
  9
$UNITMODE
 70
     0
  9
$VISRETAIN
 70
     1
  9
$PLINEGEN
 70
     0
  9
$PSLTSCALE
 70
     1
  9
$TREEDEPTH
 70
  3020
  9
$CMLSTYLE
  2
Standard
  9
$CMLJUST
 70
     0
  9
$CMLSCALE
 40
1.0
  9
$PROXYGRAPHICS
 70
     1
  9
$MEASUREMENT
 70
     0
  9
$CELWEIGHT
370
    -1
  9
$ENDCAPS
280
     0
  9
$JOINSTYLE
280
     0
  9
$LWDISPLAY
290
     1
  9
$INSUNITS
 70
     1
  9
$HYPERLINKBASE
  1

  9
$STYLESHEET
  1

  9
$XEDIT
290
     1
  9
$CEPSNTYPE
380
     0
  9
$PSTYLEMODE
290
     1
  9
$FINGERPRINTGUID
  2
{860297C3-E9A9-4599-8CCD-44EE0A28A96C}
  9
$VERSIONGUID
  2
{FAEB1C32-E019-11D5-929B-00C0DF256EC4}
  9
$EXTNAMES
290
     1
  9
$PSVPSCALE
 40
0.0
  9
$OLESTARTUP
290
     0
  0
ENDSEC
  0
SECTION
  2
CLASSES
  0
CLASS
  1
ACDBDICTIONARYWDFLT
  2
AcDbDictionaryWithDefault
  3
ObjectDBX Classes
 90
        0
280
     0
281
     0
  0
CLASS
  1
VISUALSTYLE
  2
AcDbVisualStyle
  3
ObjectDBX Classes
 90
     4095
280
     0
281
     0
  0
CLASS
  1
ACDBPLACEHOLDER
  2
AcDbPlaceHolder
  3
ObjectDBX Classes
 90
        0
280
     0
281
     0
  0
CLASS
  1
LAYOUT
  2
AcDbLayout
  3
ObjectDBX Classes
 90
        0
280
     0
281
     0
  0
ENDSEC
  0
SECTION
  2
TABLES
  0
TABLE
  2
VPORT
  5
8
330
0
100
AcDbSymbolTable
 70
     1
  0
VPORT
  5
29
330
8
100
AcDbSymbolTableRecord
100
AcDbViewportTableRecord
  2
*Active
 70
     0
 10
0.0
 20
0.0
 11
1.0
 21
1.0
 12
5.5
 22
4.25
 13
0.0
 23
0.0
 14
0.5
 24
0.5
 15
0.5
 25
0.5
 16
0.0
 26
0.0
 36
1.0
 17
0.0
 27
0.0
 37
0.0
 40
8.5
 41
1.2941176471
 42
50.0
 43
0.0
 44
0.0
 50
0.0
 51
0.0
 71
     0
 72
  2000
 73
     1
 74
     3
 75
     0
 76
     0
 77
     0
 78
     0
281
     0
 65
     1
110
0.0
120
0.0
130
0.0
111
1.0
121
0.0
131
0.0
112
0.0
122
1.0
132
0.0
 79
     0
146
0.0
  0
ENDTAB
  0
TABLE
  2
LTYPE
  5
5
330
0
100
AcDbSymbolTable
 70
     6
  0
LTYPE
  5
14
330
5
100
AcDbSymbolTableRecord
100
AcDbLinetypeTableRecord
  2
ByBlock
 70
     0
  3

 72
    65
 73
     0
 40
0.0
  0
LTYPE
  5
15
330
5
100
AcDbSymbolTableRecord
100
AcDbLinetypeTableRecord
  2
ByLayer
 70
     0
  3

 72
    65
 73
     0
 40
0.0
  0
LTYPE
  5
16
330
5
100
AcDbSymbolTableRecord
100
AcDbLinetypeTableRecord
  2
Continuous
 70
     0
  3
Solid line
 72
    65
 73
     0
 40
0.0
  0
LTYPE
  5
3B
330
5
100
AcDbSymbolTableRecord
100
AcDbLinetypeTableRecord
  2
HIDDEN
 70
     0
  3
Hidden __ __ __ __ __ __ __ __ __ __ __ __ __ __
 72
    65
 73
     2
 40
0.075
 49
0.05
 74
     0
 49
-0.025
 74
     0
  0
LTYPE
  5
3C
330
5
100
AcDbSymbolTableRecord
100
AcDbLinetypeTableRecord
  2
PHANTOM
 70
     0
  3
Phantom ______  __  __  ______  __  __  ______
 72
    65
 73
     6
 40
0.5
 49
0.25
 74
     0
 49
-0.05
 74
     0
 49
0.05
 74
     0
 49
-0.05
 74
     0
 49
0.05
 74
     0
 49
-0.05
 74
     0
  0
LTYPE
  5
3D
330
5
100
AcDbSymbolTableRecord
100
AcDbLinetypeTableRecord
  2
CENTER
 70
     0
  3
Center ____ _ ____ _ ____ _ ____ _ ____ _ ____
 72
    65
 73
     4
 40
0.4
 49
0.25
 74
     0
 49
-0.05
 74
     0
 49
0.05
 74
     0
 49
-0.05
 74
     0
  0
LTYPE
  5
3E
330
5
100
AcDbSymbolTableRecord
100
AcDbLinetypeTableRecord
  2
CENTERX2
 70
     0
  3
Center (2x) ________  __  ________  __  _____
 72
    65
 73
     4
 40
0.8
 49
0.5
 74
     0
 49
-0.1
 74
     0
 49
0.1
 74
     0
 49
-0.1
 74
     0
  0
LTYPE
  5
3F
330
5
100
AcDbSymbolTableRecord
100
AcDbLinetypeTableRecord
  2
DOT2
 70
     0
  3
Dot (.5x) ........................................
 72
    65
 73
     2
 40
0.025
 49
0.0
 74
     0
 49
-0.025
 74
     0
  0
ENDTAB
  0
TABLE
  2
LAYER
  5
2
330
0
100
AcDbSymbolTable
 70
     2
  0
LAYER
  5
10
330
2
100
AcDbSymbolTableRecord
100
AcDbLayerTableRecord
  2
0
 70
     0
 62
     7
  6
Continuous
370
    -3
390
F
  0
LAYER
  5
40
330
2
100
AcDbSymbolTableRecord
100
AcDbLayerTableRecord
  2
FORMAT
 70
     0
 62
     7
  6
Continuous
370
    -3
390
F
  0
ENDTAB
  0
TABLE
  2
STYLE
  5
3
330
0
100
AcDbSymbolTable
 70
     5
  0
STYLE
  5
11
330
3
100
AcDbSymbolTableRecord
100
AcDbTextStyleTableRecord
  2
Standard
 70
     0
 40
0.0
 41
1.0
 50
0.0
 71
     0
 42
0.2
  3
txt
  4

  0
STYLE
  5
67
330
3
100
AcDbSymbolTableRecord
100
AcDbTextStyleTableRecord
  2
SLDTEXTSTYLE0
 70
     0
 40
0.0
 41
0.75
 50
0.0
 71
     0
 42
0.2
  3
TXT
  4

  0
STYLE
  5
6C
330
3
100
AcDbSymbolTableRecord
100
AcDbTextStyleTableRecord
  2
SLDTEXTSTYLE1
 70
     0
 40
0.0
 41
0.6944444444
 50
0.0
 71
     0
 42
0.2
  3
TXT
  4

  0
STYLE
  5
74
330
3
100
AcDbSymbolTableRecord
100
AcDbTextStyleTableRecord
  2
SLDTEXTSTYLE2
 70
     0
 40
0.0
 41
0.6847826087
 50
0.0
 71
     0
 42
0.2
  3
TXT
  4

  0
STYLE
  5
90
330
3
100
AcDbSymbolTableRecord
100
AcDbTextStyleTableRecord
  2
SLDTEXTSTYLE3
 70
     0
 40
0.0
 41
0.6875
 50
0.0
 71
     0
 42
0.2
  3
TXT
  4

  0
ENDTAB
  0
TABLE
  2
VIEW
  5
6
330
0
100
AcDbSymbolTable
 70
     0
  0
ENDTAB
  0
TABLE
  2
UCS
  5
7
330
0
100
AcDbSymbolTable
 70
     0
  0
ENDTAB
  0
TABLE
  2
APPID
  5
9
330
0
100
AcDbSymbolTable
 70
     1
  0
APPID
  5
12
330
9
100
AcDbSymbolTableRecord
100
AcDbRegAppTableRecord
  2
ACAD
 70
     0
  0
ENDTAB
  0
TABLE
  2
DIMSTYLE
  5
A
330
0
100
AcDbSymbolTable
 70
     6
100
AcDbDimStyleTable
  0
DIMSTYLE
105
27
330
A
100
AcDbSymbolTableRecord
100
AcDbDimStyleTableRecord
  2
Standard
 70
     0
340
11
  0
DIMSTYLE
105
B4
102
{ACAD_REACTORS
330
B3
330
C9
330
107
330
173
330
181
330
18F
330
19D
102
}
330
A
100
AcDbSymbolTableRecord
100
AcDbDimStyleTableRecord
  2
SLDDIMSTYLE0
 70
     0
 41
0.236
 44
0.0
 45
0.000000001
 73
     0
 74
     0
 77
     2
 78
    12
140
0.25
144
0.2
147
0.0625
173
     1
271
     3
272
     2
284
    12
340
67
341
B5
343
B5
344
B5
  0
DIMSTYLE
105
D8
102
{ACAD_REACTORS
330
D7
102
}
330
A
100
AcDbSymbolTableRecord
100
AcDbDimStyleTableRecord
  2
SLDDIMSTYLE1
 70
     0
 41
0.236
 44
0.0
 45
0.000000001
 73
     0
 74
     0
 77
     2
 78
    12
140
0.25
144
0.2
147
0.0625
173
     1
271
     3
272
     2
284
    12
340
67
341
B5
343
B5
344
B5
  0
DIMSTYLE
105
116
102
{ACAD_REACTORS
330
115
102
}
330
A
100
AcDbSymbolTableRecord
100
AcDbDimStyleTableRecord
  2
SLDDIMSTYLE2
 70
     0
 41
0.236
 44
0.0
 45
0.000000001
 73
     0
 74
     0
 77
     2
 78
    12
140
0.25
144
0.2
147
0.0625
173
     1
271
     3
272
     2
284
    12
340
67
341
B5
343
B5
344
B5
  0
DIMSTYLE
105
123
102
{ACAD_REACTORS
330
122
102
}
330
A
100
AcDbSymbolTableRecord
100
AcDbDimStyleTableRecord
  2
SLDDIMSTYLE3
 70
     0
  3
<>
 41
0.236
 44
0.0
 45
0.000000001
 78
    12
140
0.25
144
0.2
147
0.0625
173
     1
271
     0
272
     2
284
    12
340
67
341
B5
343
B5
344
B5
  0
DIMSTYLE
105
13B
102
{ACAD_REACTORS
330
13A
102
}
330
A
100
AcDbSymbolTableRecord
100
AcDbDimStyleTableRecord
  2
SLDDIMSTYLE4
 70
     0
 41
0.236
 44
0.0
 45
0.000000001
 78
     4
140
0.25
144
0.2
147
0.0625
173
     1
271
     3
272
     2
284
    12
340
67
341
B5
343
B5
344
B5
  0
ENDTAB
  0
TABLE
  2
BLOCK_RECORD
  5
1
330
0
100
AcDbSymbolTable
 70
    17
  0
BLOCK_RECORD
  5
1F
330
1
100
AcDbSymbolTableRecord
100
AcDbBlockTableRecord
  2
*Model_Space
340
22
  0
BLOCK_RECORD
  5
1B
330
1
100
AcDbSymbolTableRecord
100
AcDbBlockTableRecord
  2
*Paper_Space
340
1E
  0
BLOCK_RECORD
  5
23
330
1
100
AcDbSymbolTableRecord
100
AcDbBlockTableRecord
  2
*Paper_Space0
340
26
  0
BLOCK_RECORD
  5
79
330
1
100
AcDbSymbolTableRecord
100
AcDbBlockTableRecord
  2
SW_NOTE_0
340
0
102
{BLKREFS
331
88
102
}
  0
BLOCK_RECORD
  5
94
330
1
100
AcDbSymbolTableRecord
100
AcDbBlockTableRecord
  2
SW_NOTE_1
340
0
102
{BLKREFS
331
9E
102
}
  0
BLOCK_RECORD
  5
B5
330
1
100
AcDbSymbolTableRecord
100
AcDbBlockTableRecord
  2
_CLOSED
340
0
102
{BLKREFS
331
C1
331
C2
331
CF
331
D0
331
DE
331
10D
331
10E
331
11C
331
11D
331
127
331
13F
331
157
331
159
331
179
331
17A
331
187
331
188
331
195
331
196
331
1A3
331
1A4
102
}
  0
BLOCK_RECORD
  5
BC
330
1
100
AcDbSymbolTableRecord
100
AcDbBlockTableRecord
  2
*D4
340
0
  0
BLOCK_RECORD
  5
CA
330
1
100
AcDbSymbolTableRecord
100
AcDbBlockTableRecord
  2
*D5
340
0
  0
BLOCK_RECORD
  5
D9
330
1
100
AcDbSymbolTableRecord
100
AcDbBlockTableRecord
  2
*D6
340
0
  0
BLOCK_RECORD
  5
108
330
1
100
AcDbSymbolTableRecord
100
AcDbBlockTableRecord
  2
*D7
340
0
  0
BLOCK_RECORD
  5
117
330
1
100
AcDbSymbolTableRecord
100
AcDbBlockTableRecord
  2
*D8
340
0
  0
BLOCK_RECORD
  5
124
330
1
100
AcDbSymbolTableRecord
100
AcDbBlockTableRecord
  2
*D9
340
0
  0
BLOCK_RECORD
  5
130
330
1
100
AcDbSymbolTableRecord
100
AcDbBlockTableRecord
  2
SW_SYMBOL_HOLE_DEPTH
340
0
102
{BLKREFS
331
137
331
14D
102
}
  0
BLOCK_RECORD
  5
13C
330
1
100
AcDbSymbolTableRecord
100
AcDbBlockTableRecord
  2
*D11
340
0
  0
BLOCK_RECORD
  5
142
330
1
100
AcDbSymbolTableRecord
100
AcDbBlockTableRecord
  2
SW_SYMBOL_HOLE_SPOT
340
0
102
{BLKREFS
331
148
102
}
  0
BLOCK_RECORD
  5
174
330
1
100
AcDbSymbolTableRecord
100
AcDbBlockTableRecord
  2
*D13
340
0
  0
BLOCK_RECORD
  5
182
330
1
100
AcDbSymbolTableRecord
100
AcDbBlockTableRecord
  2
*D14
340
0
  0
BLOCK_RECORD
  5
190
330
1
100
AcDbSymbolTableRecord
100
AcDbBlockTableRecord
  2
*D15
340
0
  0
BLOCK_RECORD
  5
19E
330
1
100
AcDbSymbolTableRecord
100
AcDbBlockTableRecord
  2
*D16
340
0
  0
ENDTAB
  0
ENDSEC
  0
SECTION
  2
BLOCKS
  0
BLOCK
  5
20
330
1F
100
AcDbEntity
  8
0
100
AcDbBlockBegin
  2
*Model_Space
 70
     0
 10
0.0
 20
0.0
 30
0.0
  3
*Model_Space
  1

  0
ENDBLK
  5
21
330
1F
100
AcDbEntity
  8
0
100
AcDbBlockEnd
  0
BLOCK
  5
1C
330
1B
100
AcDbEntity
 67
     1
  8
0
100
AcDbBlockBegin
  2
*Paper_Space
 70
     0
 10
0.0
 20
0.0
 30
0.0
  3
*Paper_Space
  1

  0
ENDBLK
  5
1D
330
1B
100
AcDbEntity
 67
     1
  8
0
100
AcDbBlockEnd
  0
BLOCK
  5
24
330
23
100
AcDbEntity
  8
0
100
AcDbBlockBegin
  2
*Paper_Space0
 70
     0
 10
0.0
 20
0.0
 30
0.0
  3
*Paper_Space0
  1

  0
ENDBLK
  5
25
330
23
100
AcDbEntity
  8
0
100
AcDbBlockEnd
  0
BLOCK
  5
7A
330
79
100
AcDbEntity
  8
0
100
AcDbBlockBegin
  2
SW_NOTE_0
 70
     0
 10
0.0
 20
0.0
 30
0.0
  3
SW_NOTE_0
  1

  0
MTEXT
  5
7C
330
79
100
AcDbEntity
  8
0
  6
Continuous
 62
     0
370
     0
100
AcDbMText
 10
0.0
 20
0.0805667337
 30
0.0
 40
0.0625
 41
0.0
 71
     1
 72
     1
  1
DIMENSIONS ARE IN INCHES
  7
SLDTEXTSTYLE0
 73
     1
 44
1.0
  0
MTEXT
  5
7D
330
79
100
AcDbEntity
  8
0
  6
Continuous
 62
     0
370
     0
100
AcDbMText
 10
0.0
 20
-0.0213033461
 30
0.0
 40
0.0625
 41
0.0
 71
     1
 72
     1
  1
TOLERANCES:
  7
SLDTEXTSTYLE0
 73
     1
 44
1.0
  0
MTEXT
  5
7E
330
79
100
AcDbEntity
  8
0
  6
Continuous
 62
     0
370
     0
100
AcDbMText
 10
0.0
 20
-0.123173426
 30
0.0
 40
0.0625
 41
0.0
 71
     1
 72
     1
  1
FRACTIONAL
  7
SLDTEXTSTYLE0
 73
     1
 44
1.0
  0
MTEXT
  5
7F
330
79
100
AcDbEntity
  8
0
  6
Continuous
 62
     0
370
     0
100
AcDbMText
 10
0.4976779574
 20
-0.123173426
 30
0.0
 40
0.0625
 41
0.0
 71
     1
 72
     1
  1
%%p
  7
SLDTEXTSTYLE0
 73
     1
 44
1.0
  0
MTEXT
  5
80
330
79
100
AcDbEntity
  8
0
  6
Continuous
 62
     0
370
     0
100
AcDbMText
 10
0.0
 20
-0.2250435058
 30
0.0
 40
0.0625
 41
0.0
 71
     1
 72
     1
  1
ANGULAR: MACH
  7
SLDTEXTSTYLE0
 73
     1
 44
1.0
  0
MTEXT
  5
81
330
79
100
AcDbEntity
  8
0
  6
Continuous
 62
     0
370
     0
100
AcDbMText
 10
0.6955512249
 20
-0.2250435058
 30
0.0
 40
0.0625
 41
0.0
 71
     1
 72
     1
  1
%%p
  7
SLDTEXTSTYLE0
 73
     1
 44
1.0
  0
MTEXT
  5
82
330
79
100
AcDbEntity
  8
0
  6
Continuous
 62
     0
370
     0
100
AcDbMText
 10
0.7550824639
 20
-0.2250435058
 30
0.0
 40
0.0625
 41
0.0
 71
     1
 72
     1
  1
     BEND 
  7
SLDTEXTSTYLE0
 73
     1
 44
1.0
  0
MTEXT
  5
83
330
79
100
AcDbEntity
  8
0
  6
Continuous
 62
     0
370
     0
100
AcDbMText
 10
1.10369359
 20
-0.2250435058
 30
0.0
 40
0.0625
 41
0.0
 71
     1
 72
     1
  1
%%p
  7
SLDTEXTSTYLE0
 73
     1
 44
1.0
  0
MTEXT
  5
84
330
79
100
AcDbEntity
  8
0
  6
Continuous
 62
     0
370
     0
100
AcDbMText
 10
0.0
 20
-0.3269135857
 30
0.0
 40
0.0625
 41
0.0
 71
     1
 72
     1
  1
TWO PLACE DECIMAL    
  7
SLDTEXTSTYLE0
 73
     1
 44
1.0
  0
MTEXT
  5
85
330
79
100
AcDbEntity
  8
0
  6
Continuous
 62
     0
370
     0
100
AcDbMText
 10
0.941764314
 20
-0.3269135857
 30
0.0
 40
0.0625
 41
0.0
 71
     1
 72
     1
  1
%%p
  7
SLDTEXTSTYLE0
 73
     1
 44
1.0
  0
MTEXT
  5
86
330
79
100
AcDbEntity
  8
0
  6
Continuous
 62
     0
370
     0
100
AcDbMText
 10
0.0
 20
-0.4287836655
 30
0.0
 40
0.0625
 41
0.0
 71
     1
 72
     1
  1
THREE PLACE DECIMAL  
  7
SLDTEXTSTYLE0
 73
     1
 44
1.0
  0
MTEXT
  5
87
330
79
100
AcDbEntity
  8
0
  6
Continuous
 62
     0
370
     0
100
AcDbMText
 10
0.9363498099
 20
-0.4287836655
 30
0.0
 40
0.0625
 41
0.0
 71
     1
 72
     1
  1
%%p
  7
SLDTEXTSTYLE0
 73
     1
 44
1.0
  0
ENDBLK
  5
7B
330
79
100
AcDbEntity
  8
0
100
AcDbBlockEnd
  0
BLOCK
  5
95
330
94
100
AcDbEntity
  8
0
100
AcDbBlockBegin
  2
SW_NOTE_1
 70
     0
 10
0.0
 20
0.0
 30
0.0
  3
SW_NOTE_1
  1

  0
MTEXT
  5
97
330
94
100
AcDbEntity
  8
0
  6
Continuous
 62
     0
370
     0
100
AcDbMText
 10
0.0
 20
0.0773440644
 30
0.0
 40
0.06
 41
0.0
 71
     1
 72
     1
  1
THE INFORMATION CONTAINED IN THIS
  7
SLDTEXTSTYLE0
 73
     1
 44
1.0
  0
MTEXT
  5
98
330
94
100
AcDbEntity
  8
0
  6
Continuous
 62
     0
370
     0
100
AcDbMText
 10
0.0
 20
-0.0220260102
 30
0.0
 40
0.06
 41
0.0
 71
     1
 72
     1
  1
DRAWING IS THE SOLE PROPERTY OF
  7
SLDTEXTSTYLE0
 73
     1
 44
1.0
  0
MTEXT
  5
99
330
94
100
AcDbEntity
  8
0
  6
Continuous
 62
     0
370
     0
100
AcDbMText
 10
0.0
 20
-0.1213960848
 30
0.0
 40
0.06
 41
0.0
 71
     1
 72
     1
  1
<INSERT COMPANY NAME HERE>.  ANY 
  7
SLDTEXTSTYLE0
 73
     1
 44
1.0
  0
MTEXT
  5
9A
330
94
100
AcDbEntity
  8
0
  6
Continuous
 62
     0
370
     0
100
AcDbMText
 10
0.0
 20
-0.2207661593
 30
0.0
 40
0.06
 41
0.0
 71
     1
 72
     1
  1
REPRODUCTION IN PART OR AS A WHOLE
  7
SLDTEXTSTYLE0
 73
     1
 44
1.0
  0
MTEXT
  5
9B
330
94
100
AcDbEntity
  8
0
  6
Continuous
 62
     0
370
     0
100
AcDbMText
 10
0.0
 20
-0.3201362339
 30
0.0
 40
0.06
 41
0.0
 71
     1
 72
     1
  1
WITHOUT THE WRITTEN PERMISSION OF
  7
SLDTEXTSTYLE0
 73
     1
 44
1.0
  0
MTEXT
  5
9C
330
94
100
AcDbEntity
  8
0
  6
Continuous
 62
     0
370
     0
100
AcDbMText
 10
0.0
 20
-0.4195063085
 30
0.0
 40
0.06
 41
0.0
 71
     1
 72
     1
  1
<INSERT COMPANY NAME HERE> IS 
  7
SLDTEXTSTYLE0
 73
     1
 44
1.0
  0
MTEXT
  5
9D
330
94
100
AcDbEntity
  8
0
  6
Continuous
 62
     0
370
     0
100
AcDbMText
 10
0.0
 20
-0.518876383
 30
0.0
 40
0.06
 41
0.0
 71
     1
 72
     1
  1
PROHIBITED.
  7
SLDTEXTSTYLE0
 73
     1
 44
1.0
  0
ENDBLK
  5
96
330
94
100
AcDbEntity
  8
0
100
AcDbBlockEnd
  0
BLOCK
  5
B6
330
B5
100
AcDbEntity
  8
0
100
AcDbBlockBegin
  2
_CLOSED
 70
     0
 10
0.0
 20
0.0
 30
0.0
  3
_CLOSED
  1

  0
LINE
  5
B8
330
B5
100
AcDbEntity
  8
0
  6
ByBlock
 62
     0
370
    -2
100
AcDbLine
 10
-1.0
 20
0.166667
 30
0.0
 11
0.0
 21
0.0
 31
0.0
  0
LINE
  5
B9
330
B5
100
AcDbEntity
  8
0
  6
ByBlock
 62
     0
370
    -2
100
AcDbLine
 10
0.0
 20
0.0
 30
0.0
 11
-1.0
 21
-0.166667
 31
0.0
  0
LINE
  5
BA
330
B5
100
AcDbEntity
  8
0
  6
ByBlock
 62
     0
370
    -2
100
AcDbLine
 10
-1.0
 20
0.166667
 30
0.0
 11
-1.0
 21
-0.166667
 31
0.0
  0
LINE
  5
BB
330
B5
100
AcDbEntity
  8
0
  6
ByBlock
 62
     0
370
    -2
100
AcDbLine
 10
0.0
 20
0.0
 30
0.0
 11
-1.0
 21
0.0
 31
0.0
  0
ENDBLK
  5
B7
330
B5
100
AcDbEntity
  8
0
100
AcDbBlockEnd
  0
BLOCK
  5
BD
330
BC
100
AcDbEntity
  8
0
100
AcDbBlockBegin
  2
*D4
 70
     1
 10
0.0
 20
0.0
 30
0.0
  3
*D4
  1

  0
ARC
  5
BF
330
BC
100
AcDbEntity
  8
FORMAT
100
AcDbCircle
 10
7.1007158277
 20
4.6646745941
 30
0.0
 40
0.4437085770304133
100
AcDbArc
 50
243.4349488229
 51
296.5650511771
  0
ARC
  5
C0
330
BC
100
AcDbEntity
  8
FORMAT
100
AcDbCircle
 10
7.1007158277
 20
4.8271081502
 30
0.0
 40
0.4437085770304113
100
AcDbArc
 50
63.4349488229
 51
116.5650511771
  0
INSERT
  5
C1
330
BC
100
AcDbEntity
  8
FORMAT
100
AcDbBlockReference
  2
_CLOSED
 10
7.2991483358
 20
5.5049382488
 30
-0.2928149606
 41
0.236
 42
0.236
 50
270.0
  0
INSERT
  5
C2
330
BC
100
AcDbEntity
  8
FORMAT
100
AcDbBlockReference
  2
_CLOSED
 10
7.2991483358
 20
3.9498201386
 30
-0.2928149606
 41
0.236
 42
0.236
 50
90.0
  0
LINE
  5
C3
330
BC
100
AcDbEntity
  8
FORMAT
100
AcDbLine
 10
7.85704556
 20
5.5049382488
 30
0.0
 11
7.2601483358
 21
5.5049382488
 31
0.0
  0
LINE
  5
C4
330
BC
100
AcDbEntity
  8
FORMAT
100
AcDbLine
 10
7.85704556
 20
3.9498201386
 30
0.0
 11
7.2601483358
 21
3.9498201386
 31
0.0
  0
LINE
  5
C5
330
BC
100
AcDbEntity
  8
FORMAT
100
AcDbLine
 10
7.2991483358
 20
5.5049382488
 30
0.0
 11
7.2991483358
 21
5.9769382488
 31
0.0
  0
LINE
  5
C6
330
BC
100
AcDbEntity
  8
FORMAT
100
AcDbLine
 10
7.2991483358
 20
5.5049382488
 30
0.0
 11
7.2991483358
 21
3.9498201386
 31
0.0
  0
LINE
  5
C7
330
BC
100
AcDbEntity
  8
FORMAT
100
AcDbLine
 10
7.2991483358
 20
3.9498201386
 30
0.0
 11
7.2991483358
 21
3.4778201386
 31
0.0
  0
MTEXT
  5
C8
330
BC
100
AcDbEntity
  8
FORMAT
100
AcDbMText
 10
6.9768813734
 20
4.330309578
 30
0.0
 40
0.25
 41
0.0
 71
     1
 72
     1
  1
0.311
  7
SLDTEXTSTYLE0
 11
-7.044195017643634E-15
 21
1.0
 31
0.0
 73
     1
 44
1.0
  0
ENDBLK
  5
BE
330
BC
100
AcDbEntity
  8
0
100
AcDbBlockEnd
  0
BLOCK
  5
CB
330
CA
100
AcDbEntity
  8
0
100
AcDbBlockBegin
  2
*D5
 70
     1
 10
0.0
 20
0.0
 30
0.0
  3
*D5
  1

  0
ARC
  5
CD
330
CA
100
AcDbEntity
  8
FORMAT
100
AcDbCircle
 10
8.379474357
 20
6.8844731191
 30
0.0
 40
0.4437085770304121
100
AcDbArc
 50
153.4349488229
 51
206.5650511771
  0
ARC
  5
CE
330
CA
100
AcDbEntity
  8
FORMAT
100
AcDbCircle
 10
8.5419079131
 20
6.8844731191
 30
0.0
 40
0.4437085770304129
100
AcDbArc
 50
333.4349488229
 51
26.5650511771
  0
INSERT
  5
CF
330
CA
100
AcDbEntity
  8
FORMAT
100
AcDbBlockReference
  2
_CLOSED
 10
7.6991951663
 20
6.686040611
 30
-0.2928149606
 41
0.236
 42
0.236
 50
0.0
  0
INSERT
  5
D0
330
CA
100
AcDbEntity
  8
FORMAT
100
AcDbBlockReference
  2
_CLOSED
 10
9.2543132765
 20
6.686040611
 30
-0.2928149606
 41
0.236
 42
0.236
 50
180.0
  0
LINE
  5
D1
330
CA
100
AcDbEntity
  8
FORMAT
100
AcDbLine
 10
7.6991951663
 20
5.3470878551
 30
0.0
 11
7.6991951663
 21
6.725040611
 31
0.0
  0
LINE
  5
D2
330
CA
100
AcDbEntity
  8
FORMAT
100
AcDbLine
 10
9.2543132765
 20
5.3470878551
 30
0.0
 11
9.2543132765
 21
6.725040611
 31
0.0
  0
LINE
  5
D3
330
CA
100
AcDbEntity
  8
FORMAT
100
AcDbLine
 10
7.6991951663
 20
6.686040611
 30
0.0
 11
7.2271951663
 21
6.686040611
 31
0.0
  0
LINE
  5
D4
330
CA
100
AcDbEntity
  8
FORMAT
100
AcDbLine
 10
7.6991951663
 20
6.686040611
 30
0.0
 11
9.2543132765
 21
6.686040611
 31
0.0
  0
LINE
  5
D5
330
CA
100
AcDbEntity
  8
FORMAT
100
AcDbLine
 10
9.2543132765
 20
6.686040611
 30
0.0
 11
9.7263132765
 21
6.686040611
 31
0.0
  0
MTEXT
  5
D6
330
CA
100
AcDbEntity
  8
FORMAT
100
AcDbMText
 10
8.0451093409
 20
7.0083075735
 30
0.0
 40
0.25
 41
0.0
 71
     1
 72
     1
  1
0.311
  7
SLDTEXTSTYLE0
 73
     1
 44
1.0
  0
ENDBLK
  5
CC
330
CA
100
AcDbEntity
  8
0
100
AcDbBlockEnd
  0
BLOCK
  5
DA
330
D9
100
AcDbEntity
  8
0
100
AcDbBlockBegin
  2
*D6
 70
     1
 10
0.0
 20
0.0
 30
0.0
  3
*D6
  1

  0
ARC
  5
DC
330
D9
100
AcDbEntity
  8
FORMAT
100
AcDbCircle
 10
10.0420249476
 20
3.4383130388
 30
0.0
 40
0.4437085770304096
100
AcDbArc
 50
108.4349488189
 51
161.565051173
  0
ARC
  5
DD
330
D9
100
AcDbEntity
  8
FORMAT
100
AcDbCircle
 10
10.3000143025
 20
3.1803236838
 30
0.0
 40
0.4437085770304104
100
AcDbArc
 50
288.4349488189
 51
341.565051173
  0
INSERT
  5
DE
330
D9
100
AcDbEntity
  8
FORMAT
100
AcDbBlockReference
  2
_CLOSED
 10
9.4033500444
 20
3.8007833706
 30
-0.2928149606
 41
0.236
 42
0.236
 50
134.999999996
  0
LINE
  5
DF
330
D9
100
AcDbEntity
  8
FORMAT
100
AcDbLine
 10
9.4033500444
 20
3.8007833706
 30
0.0
 11
10.4867321348
 21
2.7174012801
 31
0.0
  0
LINE
  5
E0
330
D9
100
AcDbEntity
  8
FORMAT
100
AcDbLine
 10
9.4033500444
 20
3.8007833706
 30
0.0
 11
9.2641557962
 21
3.9399776189
 31
0.0
  0
MTEXT
  5
E1
330
D9
100
AcDbEntity
  8
FORMAT
100
AcDbMText
 10
9.8931573597
 20
3.7623089915
 30
0.0
 40
0.25
 41
0.0
 71
     1
 72
     1
  1
R
  7
SLDTEXTSTYLE0
 11
0.7071067811367786
 21
-0.7071067812363164
 31
0.0
 73
     1
 44
1.0
  0
MTEXT
  5
E2
330
D9
100
AcDbEntity
  8
FORMAT
100
AcDbMText
 10
10.0362888456
 20
3.6191775056
 30
0.0
 40
0.25
 41
0.0
 71
     1
 72
     1
  1
0.039
  7
SLDTEXTSTYLE0
 11
0.7071067811367786
 21
-0.7071067812363164
 31
0.0
 73
     1
 44
1.0
  0
ENDBLK
  5
DB
330
D9
100
AcDbEntity
  8
0
100
AcDbBlockEnd
  0
BLOCK
  5
109
330
108
100
AcDbEntity
  8
0
100
AcDbBlockBegin
  2
*D7
 70
     1
 10
0.0
 20
0.0
 30
0.0
  3
*D7
  1

  0
ARC
  5
10B
330
108
100
AcDbEntity
  8
FORMAT
100
AcDbCircle
 10
5.0934548917
 20
6.8943156388
 30
0.0
 40
0.4437085770304121
100
AcDbArc
 50
153.4349488229
 51
206.5650511771
  0
ARC
  5
10C
330
108
100
AcDbEntity
  8
FORMAT
100
AcDbCircle
 10
5.2558884478
 20
6.8943156388
 30
0.0
 40
0.4437085770304121
100
AcDbArc
 50
333.4349488229
 51
26.5650511771
  0
INSERT
  5
10D
330
108
100
AcDbEntity
  8
FORMAT
100
AcDbBlockReference
  2
_CLOSED
 10
3.6373615399
 20
6.6958831307
 30
0.3321850394
 41
0.236
 42
0.236
 50
0.0
  0
INSERT
  5
10E
330
108
100
AcDbEntity
  8
FORMAT
100
AcDbBlockReference
  2
_CLOSED
 10
5.6058654769
 20
6.6958831307
 30
0.3321850394
 41
0.236
 42
0.236
 50
180.0
  0
LINE
  5
10F
330
108
100
AcDbEntity
  8
FORMAT
100
AcDbLine
 10
3.6373615399
 20
6.1443319496
 30
0.0
 11
3.6373615399
 21
6.7348831307
 31
0.0
  0
LINE
  5
110
330
108
100
AcDbEntity
  8
FORMAT
100
AcDbLine
 10
5.6058654769
 20
6.1443319496
 30
0.0
 11
5.6058654769
 21
6.7348831307
 31
0.0
  0
LINE
  5
111
330
108
100
AcDbEntity
  8
FORMAT
100
AcDbLine
 10
3.6373615399
 20
6.6958831307
 30
0.0
 11
3.1653615399
 21
6.6958831307
 31
0.0
  0
LINE
  5
112
330
108
100
AcDbEntity
  8
FORMAT
100
AcDbLine
 10
3.6373615399
 20
6.6958831307
 30
0.0
 11
5.6058654769
 21
6.6958831307
 31
0.0
  0
LINE
  5
113
330
108
100
AcDbEntity
  8
FORMAT
100
AcDbLine
 10
5.6058654769
 20
6.6958831307
 30
0.0
 11
6.0778654769
 21
6.6958831307
 31
0.0
  0
MTEXT
  5
114
330
108
100
AcDbEntity
  8
FORMAT
100
AcDbMText
 10
4.7590898756
 20
7.0181500931
 30
0.0
 40
0.25
 41
0.0
 71
     1
 72
     1
  1
0.394
  7
SLDTEXTSTYLE0
 73
     1
 44
1.0
  0
ENDBLK
  5
10A
330
108
100
AcDbEntity
  8
0
100
AcDbBlockEnd
  0
BLOCK
  5
118
330
117
100
AcDbEntity
  8
0
100
AcDbBlockBegin
  2
*D8
 70
     1
 10
0.0
 20
0.0
 30
0.0
  3
*D8
  1

  0
ARC
  5
11A
330
117
100
AcDbEntity
  8
FORMAT
100
AcDbCircle
 10
3.2357325951
 20
4.9577044227
 30
0.0
 40
0.4437085770304137
100
AcDbArc
 50
243.4349488229
 51
296.5650511771
  0
ARC
  5
11B
330
117
100
AcDbEntity
  8
FORMAT
100
AcDbCircle
 10
3.2357325951
 20
5.1201379788
 30
0.0
 40
0.4437085770304134
100
AcDbArc
 50
63.4349488229
 51
116.5650511771
  0
INSERT
  5
11C
330
117
100
AcDbEntity
  8
FORMAT
100
AcDbBlockReference
  2
_CLOSED
 10
3.4341651032
 20
6.3021823433
 30
0.3321850394
 41
0.236
 42
0.236
 50
90.0
  0
INSERT
  5
11D
330
117
100
AcDbEntity
  8
FORMAT
100
AcDbBlockReference
  2
_CLOSED
 10
3.4341651032
 20
3.7431272252
 30
0.3321850394
 41
0.236
 42
0.236
 50
270.0
  0
LINE
  5
11E
330
117
100
AcDbEntity
  8
FORMAT
100
AcDbLine
 10
3.7952119336
 20
6.3021823433
 30
0.0
 11
3.3951651032
 21
6.3021823433
 31
0.0
  0
LINE
  5
11F
330
117
100
AcDbEntity
  8
FORMAT
100
AcDbLine
 10
3.7952119336
 20
3.7431272252
 30
0.0
 11
3.3951651032
 21
3.7431272252
 31
0.0
  0
LINE
  5
120
330
117
100
AcDbEntity
  8
FORMAT
100
AcDbLine
 10
3.4341651032
 20
6.3021823433
 30
0.0
 11
3.4341651032
 21
3.7431272252
 31
0.0
  0
MTEXT
  5
121
330
117
100
AcDbEntity
  8
FORMAT
100
AcDbMText
 10
3.1118981407
 20
4.6233394065
 30
0.0
 40
0.25
 41
0.0
 71
     1
 72
     1
  1
0.512
  7
SLDTEXTSTYLE0
 11
-7.044195017643634E-15
 21
1.0
 31
0.0
 73
     1
 44
1.0
  0
ENDBLK
  5
119
330
117
100
AcDbEntity
  8
0
100
AcDbBlockEnd
  0
BLOCK
  5
125
330
124
100
AcDbEntity
  8
0
100
AcDbBlockBegin
  2
*D9
 70
     1
 10
0.0
 20
0.0
 30
0.0
  3
*D9
  1

  0
INSERT
  5
127
330
124
100
AcDbEntity
  8
FORMAT
100
AcDbBlockReference
  2
_CLOSED
 10
4.007761287
 20
3.9036141576
 30
0.3321850394
 41
0.236
 42
0.236
 50
84.2943557922
  0
LINE
  5
128
330
124
100
AcDbEntity
  8
FORMAT
100
AcDbLine
 10
4.007761287
 20
3.9036141576
 30
0.0
 11
3.8387434799
 21
2.2119603201
 31
0.0
  0
LINE
  5
129
330
124
100
AcDbEntity
  8
FORMAT
100
AcDbLine
 10
3.8387434799
 20
2.2119603201
 30
0.0
 11
0.3924646437
 21
2.2119603201
 31
0.0
  0
MTEXT
  5
12A
330
124
100
AcDbEntity
  8
FORMAT
100
AcDbMText
 10
0.3703299718
 20
2.5342272826
 30
0.0
 40
0.25
 41
0.0
 71
     1
 72
     1
  1
2
  7
SLDTEXTSTYLE0
 73
     1
 44
1.0
  0
MTEXT
  5
12B
330
124
100
AcDbEntity
  8
FORMAT
100
AcDbMText
 10
0.5696289974
 20
2.5380466951
 30
0.0
 40
0.25
 41
0.0
 71
     1
 72
     1
  1
 x 
  7
SLDTEXTSTYLE0
 73
     1
 44
1.0
  0
MTEXT
  5
12C
330
124
100
AcDbEntity
  8
FORMAT
100
AcDbMText
 10
0.9144206743
 20
2.5342272505
 30
0.0
 40
0.25
 41
0.0
 71
     1
 72
     1
  1
%%c
  7
SLDTEXTSTYLE0
 73
     1
 44
1.0
  0
MTEXT
  5
12D
330
124
100
AcDbEntity
  8
FORMAT
100
AcDbMText
 10
1.2914518788
 20
2.5380466951
 30
0.0
 40
0.25
 41
0.0
 71
     1
 72
     1
  1
 
  7
SLDTEXTSTYLE0
 73
     1
 44
1.0
  0
MTEXT
  5
12E
330
124
100
AcDbEntity
  8
FORMAT
100
AcDbMText
 10
1.3838088428
 20
2.5342272826
 30
0.0
 40
0.25
 41
0.0
 71
     1
 72
     1
  1
0.094
  7
SLDTEXTSTYLE0
 73
     1
 44
1.0
  0
MTEXT
  5
12F
330
124
100
AcDbEntity
  8
FORMAT
100
AcDbMText
 10
2.2813476719
 20
2.5380466951
 30
0.0
 40
0.25
 41
0.0
 71
     1
 72
     1
  1
 
  7
SLDTEXTSTYLE0
 73
     1
 44
1.0
  0
INSERT
  5
137
330
124
100
AcDbEntity
  8
FORMAT
100
AcDbBlockReference
  2
SW_SYMBOL_HOLE_DEPTH
 10
2.3737087833
 20
2.2466282843
 30
0.0
 41
0.0081111328
 42
0.0081111328
 43
0.0081111328
  0
MTEXT
  5
138
330
124
100
AcDbEntity
  8
FORMAT
100
AcDbMText
 10
2.7308962721
 20
2.5380466951
 30
0.0
 40
0.25
 41
0.0
 71
     1
 72
     1
  1
 
  7
SLDTEXTSTYLE0
 73
     1
 44
1.0
  0
MTEXT
  5
139
330
124
100
AcDbEntity
  8
FORMAT
100
AcDbMText
 10
2.8230944145
 20
2.5342272826
 30
0.0
 40
0.25
 41
0.0
 71
     1
 72
     1
  1
0.394
  7
SLDTEXTSTYLE0
 73
     1
 44
1.0
  0
ENDBLK
  5
126
330
124
100
AcDbEntity
  8
0
100
AcDbBlockEnd
  0
BLOCK
  5
131
330
130
100
AcDbEntity
  8
0
100
AcDbBlockBegin
  2
SW_SYMBOL_HOLE_DEPTH
 70
     0
 10
0.0
 20
0.0
 30
0.0
  3
SW_SYMBOL_HOLE_DEPTH
  1

  0
LINE
  5
133
330
130
100
AcDbEntity
  8
FORMAT
 62
     0
100
AcDbLine
 10
0.0
 20
34.4488188976
 30
0.0
 11
31.4960629921
 21
34.4488188976
 31
0.0
  0
LINE
  5
134
330
130
100
AcDbEntity
  8
FORMAT
 62
     0
100
AcDbLine
 10
15.7480314961
 20
34.4488188976
 30
0.0
 11
15.7480314961
 21
2.9527559055
 31
0.0
  0
LINE
  5
135
330
130
100
AcDbEntity
  8
FORMAT
 62
     0
100
AcDbLine
 10
3.937007874
 20
21.8503937008
 30
0.0
 11
15.7480314961
 21
2.9527559055
 31
0.0
  0
LINE
  5
136
330
130
100
AcDbEntity
  8
FORMAT
 62
     0
100
AcDbLine
 10
27.5590551181
 20
21.8503937008
 30
0.0
 11
15.7480314961
 21
2.9527559055
 31
0.0
  0
ENDBLK
  5
132
330
130
100
AcDbEntity
  8
0
100
AcDbBlockEnd
  0
BLOCK
  5
13D
330
13C
100
AcDbEntity
  8
0
100
AcDbBlockBegin
  2
*D11
 70
     1
 10
0.0
 20
0.0
 30
0.0
  3
*D11
  1

  0
INSERT
  5
13F
330
13C
100
AcDbEntity
  8
FORMAT
100
AcDbBlockReference
  2
_CLOSED
 10
4.6493501185
 20
3.9640400487
 30
0.3321850394
 41
0.236
 42
0.236
 50
99.1195464726
  0
LINE
  5
140
330
13C
100
AcDbEntity
  8
FORMAT
100
AcDbLine
 10
4.6493501185
 20
3.9640400487
 30
0.0
 11
4.8977742575
 21
2.4164572299
 31
0.0
  0
LINE
  5
141
330
13C
100
AcDbEntity
  8
FORMAT
100
AcDbLine
 10
4.8977742575
 20
2.4164572299
 30
0.0
 11
8.4892814272
 21
2.4164572299
 31
0.0
  0
INSERT
  5
148
330
13C
100
AcDbEntity
  8
FORMAT
100
AcDbBlockReference
  2
SW_SYMBOL_HOLE_SPOT
 10
5.1408844937
 20
2.4511251941
 30
0.0
 41
0.0081111328
 42
0.0081111328
 43
0.0081111328
  0
MTEXT
  5
149
330
13C
100
AcDbEntity
  8
FORMAT
100
AcDbMText
 10
5.8155719664
 20
2.7387241603
 30
0.0
 40
0.25
 41
0.0
 71
     1
 72
     1
  1
%%c
  7
SLDTEXTSTYLE0
 73
     1
 44
1.0
  0
MTEXT
  5
14A
330
13C
100
AcDbEntity
  8
FORMAT
100
AcDbMText
 10
6.1926031709
 20
2.7425436049
 30
0.0
 40
0.25
 41
0.0
 71
     1
 72
     1
  1
 
  7
SLDTEXTSTYLE0
 73
     1
 44
1.0
  0
MTEXT
  5
14B
330
13C
100
AcDbEntity
  8
FORMAT
100
AcDbMText
 10
6.2848609006
 20
2.7387241924
 30
0.0
 40
0.25
 41
0.0
 71
     1
 72
     1
  1
0.125
  7
SLDTEXTSTYLE0
 73
     1
 44
1.0
  0
MTEXT
  5
14C
330
13C
100
AcDbEntity
  8
FORMAT
100
AcDbMText
 10
7.1823997298
 20
2.7425436049
 30
0.0
 40
0.25
 41
0.0
 71
     1
 72
     1
  1
 
  7
SLDTEXTSTYLE0
 73
     1
 44
1.0
  0
INSERT
  5
14D
330
13C
100
AcDbEntity
  8
FORMAT
100
AcDbBlockReference
  2
SW_SYMBOL_HOLE_DEPTH
 10
7.2747608412
 20
2.4511251941
 30
0.0
 41
0.0081111328
 42
0.0081111328
 43
0.0081111328
  0
MTEXT
  5
14E
330
13C
100
AcDbEntity
  8
FORMAT
100
AcDbMText
 10
7.6319483299
 20
2.7425436049
 30
0.0
 40
0.25
 41
0.0
 71
     1
 72
     1
  1
 
  7
SLDTEXTSTYLE0
 73
     1
 44
1.0
  0
MTEXT
  5
14F
330
13C
100
AcDbEntity
  8
FORMAT
100
AcDbMText
 10
7.7241464724
 20
2.7387241924
 30
0.0
 40
0.25
 41
0.0
 71
     1
 72
     1
  1
0.060
  7
SLDTEXTSTYLE0
 73
     1
 44
1.0
  0
MTEXT
  5
150
330
13C
100
AcDbEntity
  8
FORMAT
100
AcDbMText
 10
5.3757973887
 20
3.1355891765
 30
0.0
 40
0.25
 41
0.0
 71
     1
 72
     1
  1
%%c
  7
SLDTEXTSTYLE0
 73
     1
 44
1.0
  0
MTEXT
  5
151
330
13C
100
AcDbEntity
  8
FORMAT
100
AcDbMText
 10
5.7528286299
 20
3.1394086211
 30
0.0
 40
0.25
 41
0.0
 71
     1
 72
     1
  1
 
  7
SLDTEXTSTYLE0
 73
     1
 44
1.0
  0
MTEXT
  5
152
330
13C
100
AcDbEntity
  8
FORMAT
100
AcDbMText
 10
5.8451032681
 20
3.1355892086
 30
0.0
 40
0.25
 41
0.0
 71
     1
 72
     1
  1
0.070
  7
SLDTEXTSTYLE0
 73
     1
 44
1.0
  0
MTEXT
  5
153
330
13C
100
AcDbEntity
  8
FORMAT
100
AcDbMText
 10
6.7426420972
 20
3.1355892086
 30
0.0
 40
0.25
 41
0.0
 71
     1
 72
     1
  1
 
  7
SLDTEXTSTYLE0
 73
     1
 44
1.0
  0
MTEXT
  5
154
330
13C
100
AcDbEntity
  8
FORMAT
100
AcDbMText
 10
6.8348395595
 20
3.1355892086
 30
0.0
 40
0.25
 41
0.0
 71
     1
 72
     1
  1
THRU ALL
  7
SLDTEXTSTYLE0
 73
     1
 44
1.0
  0
ENDBLK
  5
13E
330
13C
100
AcDbEntity
  8
0
100
AcDbBlockEnd
  0
BLOCK
  5
143
330
142
100
AcDbEntity
  8
0
100
AcDbBlockBegin
  2
SW_SYMBOL_HOLE_SPOT
 70
     0
 10
0.0
 20
0.0
 30
0.0
  3
SW_SYMBOL_HOLE_SPOT
  1

  0
LINE
  5
145
330
142
100
AcDbEntity
  8
FORMAT
 62
     0
100
AcDbLine
 10
0.0
 20
34.4488188976
 30
0.0
 11
0.0
 21
2.9527559055
 31
0.0
  0
LINE
  5
146
330
142
100
AcDbEntity
  8
FORMAT
 62
     0
100
AcDbLine
 10
0.0
 20
2.9527559055
 30
0.0
 11
62.9921259843
 21
2.9527559055
 31
0.0
  0
LINE
  5
147
330
142
100
AcDbEntity
  8
FORMAT
 62
     0
100
AcDbLine
 10
62.9921259843
 20
2.9527559055
 30
0.0
 11
62.9921259843
 21
34.4488188976
 31
0.0
  0
ENDBLK
  5
144
330
142
100
AcDbEntity
  8
0
100
AcDbBlockEnd
  0
BLOCK
  5
175
330
174
100
AcDbEntity
  8
0
100
AcDbBlockBegin
  2
*D13
 70
     1
 10
0.0
 20
0.0
 30
0.0
  3
*D13
  1

  0
ARC
  5
177
330
174
100
AcDbEntity
  8
FORMAT
100
AcDbCircle
 10
1.6937738411
 20
7.8293550089
 30
0.0
 40
0.4437085770304119
100
AcDbArc
 50
153.4349488229
 51
206.5650511771
  0
ARC
  5
178
330
174
100
AcDbEntity
  8
FORMAT
100
AcDbCircle
 10
1.8562073972
 20
7.8293550089
 30
0.0
 40
0.4437085770304121
100
AcDbArc
 50
333.4349488229
 51
26.5650511771
  0
INSERT
  5
179
330
174
100
AcDbEntity
  8
FORMAT
100
AcDbBlockReference
  2
_CLOSED
 10
1.4624906191
 20
7.6309225008
 30
0.5118110236
 41
0.236
 42
0.236
 50
0.0
  0
INSERT
  5
17A
330
174
100
AcDbEntity
  8
FORMAT
100
AcDbBlockReference
  2
_CLOSED
 10
2.0874906191
 20
7.6309225008
 30
0.5118110236
 41
0.236
 42
0.236
 50
180.0
  0
LINE
  5
17B
330
174
100
AcDbEntity
  8
FORMAT
100
AcDbLine
 10
1.4624906191
 20
6.1344894299
 30
0.0
 11
1.4624906191
 21
7.6699225008
 31
0.0
  0
LINE
  5
17C
330
174
100
AcDbEntity
  8
FORMAT
100
AcDbLine
 10
2.0874906191
 20
6.1443319496
 30
0.0
 11
2.0874906191
 21
7.6699225008
 31
0.0
  0
LINE
  5
17D
330
174
100
AcDbEntity
  8
FORMAT
100
AcDbLine
 10
1.4624906191
 20
7.6309225008
 30
0.0
 11
0.9904906191
 21
7.6309225008
 31
0.0
  0
LINE
  5
17E
330
174
100
AcDbEntity
  8
FORMAT
100
AcDbLine
 10
1.4624906191
 20
7.6309225008
 30
0.0
 11
2.0874906191
 21
7.6309225008
 31
0.0
  0
LINE
  5
17F
330
174
100
AcDbEntity
  8
FORMAT
100
AcDbLine
 10
2.0874906191
 20
7.6309225008
 30
0.0
 11
2.5594906191
 21
7.6309225008
 31
0.0
  0
MTEXT
  5
180
330
174
100
AcDbEntity
  8
FORMAT
100
AcDbMText
 10
1.3594088249
 20
7.9531894632
 30
0.0
 40
0.25
 41
0.0
 71
     1
 72
     1
  1
0.125
  7
SLDTEXTSTYLE0
 73
     1
 44
1.0
  0
ENDBLK
  5
176
330
174
100
AcDbEntity
  8
0
100
AcDbBlockEnd
  0
BLOCK
  5
183
330
182
100
AcDbEntity
  8
0
100
AcDbBlockBegin
  2
*D14
 70
     1
 10
0.0
 20
0.0
 30
0.0
  3
*D14
  1

  0
ARC
  5
185
330
182
100
AcDbEntity
  8
FORMAT
100
AcDbCircle
 10
0.7513525812
 20
6.8844731191
 30
0.0
 40
0.4437085770304118
100
AcDbArc
 50
153.4349488229
 51
206.5650511771
  0
ARC
  5
186
330
182
100
AcDbEntity
  8
FORMAT
100
AcDbCircle
 10
0.9137861373
 20
6.8844731191
 30
0.0
 40
0.4437085770304119
100
AcDbArc
 50
333.4349488229
 51
26.5650511771
  0
INSERT
  5
187
330
182
100
AcDbEntity
  8
FORMAT
100
AcDbBlockReference
  2
_CLOSED
 10
1.6593410128
 20
6.686040611
 30
0.5118110236
 41
0.236
 42
0.236
 50
180.0
  0
INSERT
  5
188
330
182
100
AcDbEntity
  8
FORMAT
100
AcDbBlockReference
  2
_CLOSED
 10
1.4624906191
 20
6.686040611
 30
0.5118110236
 41
0.236
 42
0.236
 50
360.0
  0
LINE
  5
189
330
182
100
AcDbEntity
  8
FORMAT
100
AcDbLine
 10
1.6593410128
 20
6.1344894299
 30
0.0
 11
1.6593410128
 21
6.725040611
 31
0.0
  0
LINE
  5
18A
330
182
100
AcDbEntity
  8
FORMAT
100
AcDbLine
 10
1.4624906191
 20
6.1344894299
 30
0.0
 11
1.4624906191
 21
6.725040611
 31
0.0
  0
LINE
  5
18B
330
182
100
AcDbEntity
  8
FORMAT
100
AcDbLine
 10
1.6593410128
 20
6.686040611
 30
0.0
 11
2.1313410128
 21
6.686040611
 31
0.0
  0
LINE
  5
18C
330
182
100
AcDbEntity
  8
FORMAT
100
AcDbLine
 10
1.6593410128
 20
6.686040611
 30
0.0
 11
1.4624906191
 21
6.686040611
 31
0.0
  0
LINE
  5
18D
330
182
100
AcDbEntity
  8
FORMAT
100
AcDbLine
 10
1.4624906191
 20
6.686040611
 30
0.0
 11
0.2919875651
 21
6.686040611
 31
0.0
  0
MTEXT
  5
18E
330
182
100
AcDbEntity
  8
FORMAT
100
AcDbMText
 10
0.4169875651
 20
7.0083075735
 30
0.0
 40
0.25
 41
0.0
 71
     1
 72
     1
  1
0.039
  7
SLDTEXTSTYLE0
 73
     1
 44
1.0
  0
ENDBLK
  5
184
330
182
100
AcDbEntity
  8
0
100
AcDbBlockEnd
  0
BLOCK
  5
191
330
190
100
AcDbEntity
  8
0
100
AcDbBlockBegin
  2
*D15
 70
     1
 10
0.0
 20
0.0
 30
0.0
  3
*D15
  1

  0
ARC
  5
193
330
190
100
AcDbEntity
  8
FORMAT
100
AcDbCircle
 10
2.6361951009
 20
7.1305361112
 30
0.0
 40
0.4437085770304121
100
AcDbArc
 50
153.4349488229
 51
206.5650511771
  0
ARC
  5
194
330
190
100
AcDbEntity
  8
FORMAT
100
AcDbCircle
 10
2.798628657
 20
7.1305361112
 30
0.0
 40
0.4437085770304121
100
AcDbArc
 50
333.4349488229
 51
26.5650511771
  0
INSERT
  5
195
330
190
100
AcDbEntity
  8
FORMAT
100
AcDbBlockReference
  2
_CLOSED
 10
1.6593410128
 20
6.9321036031
 30
0.5118110236
 41
0.236
 42
0.236
 50
0.0
  0
INSERT
  5
196
330
190
100
AcDbEntity
  8
FORMAT
100
AcDbBlockReference
  2
_CLOSED
 10
2.0874906191
 20
6.9321036031
 30
0.5118110236
 41
0.236
 42
0.236
 50
180.0
  0
LINE
  5
197
330
190
100
AcDbEntity
  8
FORMAT
100
AcDbLine
 10
1.6593410128
 20
6.3411823433
 30
0.0
 11
1.6593410128
 21
6.9711036031
 31
0.0
  0
LINE
  5
198
330
190
100
AcDbEntity
  8
FORMAT
100
AcDbLine
 10
2.0874906191
 20
6.1443319496
 30
0.0
 11
2.0874906191
 21
6.9711036031
 31
0.0
  0
LINE
  5
199
330
190
100
AcDbEntity
  8
FORMAT
100
AcDbLine
 10
1.6593410128
 20
6.9321036031
 30
0.0
 11
1.1873410128
 21
6.9321036031
 31
0.0
  0
LINE
  5
19A
330
190
100
AcDbEntity
  8
FORMAT
100
AcDbLine
 10
1.6593410128
 20
6.9321036031
 30
0.0
 11
2.0874906191
 21
6.9321036031
 31
0.0
  0
LINE
  5
19B
330
190
100
AcDbEntity
  8
FORMAT
100
AcDbLine
 10
2.0874906191
 20
6.9321036031
 30
0.0
 11
3.2579936732
 21
6.9321036031
 31
0.0
  0
MTEXT
  5
19C
330
190
100
AcDbEntity
  8
FORMAT
100
AcDbMText
 10
2.3018300847
 20
7.2543705656
 30
0.0
 40
0.25
 41
0.0
 71
     1
 72
     1
  1
0.086
  7
SLDTEXTSTYLE0
 73
     1
 44
1.0
  0
ENDBLK
  5
192
330
190
100
AcDbEntity
  8
0
100
AcDbBlockEnd
  0
BLOCK
  5
19F
330
19E
100
AcDbEntity
  8
0
100
AcDbBlockBegin
  2
*D16
 70
     1
 10
0.0
 20
0.0
 30
0.0
  3
*D16
  1

  0
ARC
  5
1A1
330
19E
100
AcDbEntity
  8
FORMAT
100
AcDbCircle
 10
2.6361951009
 20
3.7408433899
 30
0.0
 40
0.4437085770304119
100
AcDbArc
 50
153.4349488229
 51
206.5650511771
  0
ARC
  5
1A2
330
19E
100
AcDbEntity
  8
FORMAT
100
AcDbCircle
 10
2.798628657
 20
3.7408433899
 30
0.0
 40
0.4437085770304119
100
AcDbArc
 50
333.4349488229
 51
26.5650511771
  0
INSERT
  5
1A3
330
19E
100
AcDbEntity
  8
FORMAT
100
AcDbBlockReference
  2
_CLOSED
 10
1.7874906191
 20
3.5424108818
 30
0.5118110236
 41
0.236
 42
0.236
 50
180.0
  0
INSERT
  5
1A4
330
19E
100
AcDbEntity
  8
FORMAT
100
AcDbBlockReference
  2
_CLOSED
 10
1.6593410128
 20
3.5424108818
 30
0.5118110236
 41
0.236
 42
0.236
 50
360.0
  0
LINE
  5
1A5
330
19E
100
AcDbEntity
  8
FORMAT
100
AcDbLine
 10
1.7874906191
 20
3.9228280126
 30
0.0
 11
1.7874906191
 21
3.5034108818
 31
0.0
  0
LINE
  5
1A6
330
19E
100
AcDbEntity
  8
FORMAT
100
AcDbLine
 10
1.6593410128
 20
3.9228280126
 30
0.0
 11
1.6593410128
 21
3.5034108818
 31
0.0
  0
LINE
  5
1A7
330
19E
100
AcDbEntity
  8
FORMAT
100
AcDbLine
 10
1.7874906191
 20
3.5424108818
 30
0.0
 11
3.2579936732
 21
3.5424108818
 31
0.0
  0
LINE
  5
1A8
330
19E
100
AcDbEntity
  8
FORMAT
100
AcDbLine
 10
1.7874906191
 20
3.5424108818
 30
0.0
 11
1.6593410128
 21
3.5424108818
 31
0.0
  0
LINE
  5
1A9
330
19E
100
AcDbEntity
  8
FORMAT
100
AcDbLine
 10
1.6593410128
 20
3.5424108818
 30
0.0
 11
1.1873410128
 21
3.5424108818
 31
0.0
  0
MTEXT
  5
1AA
330
19E
100
AcDbEntity
  8
FORMAT
100
AcDbMText
 10
2.3018300847
 20
3.8646778442
 30
0.0
 40
0.25
 41
0.0
 71
     1
 72
     1
  1
0.026
  7
SLDTEXTSTYLE0
 73
     1
 44
1.0
  0
ENDBLK
  5
1A0
330
19E
100
AcDbEntity
  8
0
100
AcDbBlockEnd
  0
ENDSEC
  0
SECTION
  2
ENTITIES
  0
LINE
  5
41
330
1F
100
AcDbEntity
  8
0
  6
Continuous
 62
     8
370
     0
100
AcDbLine
 10
0.329927
 20
8.1920731707
 30
0.0
 11
10.629927
 21
8.1920731707
 31
0.0
  0
LINE
  5
42
330
1F
100
AcDbEntity
  8
0
  6
Continuous
 62
     8
370
     0
100
AcDbLine
 10
0.329927
 20
8.1920731707
 30
0.0
 11
0.329927
 21
0.3920731707
 31
0.0
  0
LINE
  5
43
330
1F
100
AcDbEntity
  8
0
  6
Continuous
 62
     8
370
     0
100
AcDbLine
 10
10.629927
 20
0.3920731707
 30
0.0
 11
0.329927
 21
0.3920731707
 31
0.0
  0
LINE
  5
44
330
1F
100
AcDbEntity
  8
0
  6
Continuous
 62
     8
370
     0
100
AcDbLine
 10
10.629927
 20
0.3920731707
 30
0.0
 11
10.629927
 21
8.1920731707
 31
0.0
  0
LINE
  5
45
330
1F
100
AcDbEntity
  8
0
  6
Continuous
 62
     8
370
     0
100
AcDbLine
 10
5.629927
 20
0.3920731707
 30
0.0
 11
5.629927
 21
1.8920731707
 31
0.0
  0
LINE
  5
46
330
1F
100
AcDbEntity
  8
0
  6
Continuous
 62
     8
370
     0
100
AcDbLine
 10
5.629927
 20
1.8920731707
 30
0.0
 11
10.629927
 21
1.8920731707
 31
0.0
  0
LINE
  5
47
330
1F
100
AcDbEntity
  8
0
  6
Continuous
 62
     8
370
     0
100
AcDbLine
 10
6.9469156686
 20
1.8920731707
 30
0.0
 11
6.9469156686
 21
0.3920731707
 31
0.0
  0
LINE
  5
48
330
1F
100
AcDbEntity
  8
0
  6
Continuous
 62
     8
370
     0
100
AcDbLine
 10
8.3115759986
 20
1.8920731707
 30
0.0
 11
8.3115759986
 21
0.3920731707
 31
0.0
  0
LINE
  5
49
330
1F
100
AcDbEntity
  8
0
  6
Continuous
 62
     8
370
     0
100
AcDbLine
 10
8.3115759986
 20
0.5170731707
 30
0.0
 11
10.629927
 21
0.5170731707
 31
0.0
  0
LINE
  5
4A
330
1F
100
AcDbEntity
  8
0
  6
Continuous
 62
     8
370
     0
100
AcDbLine
 10
8.3115759986
 20
0.7670731707
 30
0.0
 11
10.629927
 21
0.7670731707
 31
0.0
  0
LINE
  5
4B
330
1F
100
AcDbEntity
  8
0
  6
Continuous
 62
     8
370
     0
100
AcDbLine
 10
6.9469156686
 20
0.9920731707
 30
0.0
 11
8.3115759986
 21
0.9920731707
 31
0.0
  0
LINE
  5
4C
330
1F
100
AcDbEntity
  8
0
  6
Continuous
 62
     8
370
     0
100
AcDbLine
 10
8.5122848799
 20
0.7670731707
 30
0.0
 11
8.5122848799
 21
0.5170731707
 31
0.0
  0
LINE
  5
4D
330
1F
100
AcDbEntity
  8
0
  6
Continuous
 62
     8
370
     0
100
AcDbLine
 10
9.9485758056
 20
0.5170731707
 30
0.0
 11
9.9485758056
 21
0.3920731707
 31
0.0
  0
LINE
  5
4E
330
1F
100
AcDbEntity
  8
0
  6
Continuous
 62
     8
370
     0
100
AcDbLine
 10
10.3767531005
 20
0.7670731707
 30
0.0
 11
10.3767531005
 21
0.5170731707
 31
0.0
  0
LINE
  5
4F
330
1F
100
AcDbEntity
  8
0
  6
Continuous
 62
     8
370
     0
100
AcDbLine
 10
8.7791367441
 20
0.5170731707
 30
0.0
 11
8.7791367441
 21
0.3920731707
 31
0.0
  0
LINE
  5
50
330
1F
100
AcDbEntity
  8
0
  6
Continuous
 62
     8
370
     0
100
AcDbLine
 10
7.849472244
 20
1.8920731707
 30
0.0
 11
7.849472244
 21
0.9920731707
 31
0.0
  0
LINE
  5
51
330
1F
100
AcDbEntity
  8
0
  6
Continuous
 62
     8
370
     0
100
AcDbLine
 10
5.629927
 20
0.6195217014
 30
0.0
 11
6.9469156686
 21
0.6195217014
 31
0.0
  0
LINE
  5
52
330
1F
100
AcDbEntity
  8
0
  6
Continuous
 62
     8
370
     0
100
AcDbLine
 10
6.9469156686
 20
1.7420731707
 30
0.0
 11
8.3115759986
 21
1.7420731707
 31
0.0
  0
LINE
  5
53
330
1F
100
AcDbEntity
  8
0
  6
Continuous
 62
     8
370
     0
100
AcDbLine
 10
7.3734302061
 20
1.8920731707
 30
0.0
 11
7.3734302061
 21
0.9920731707
 31
0.0
  0
LINE
  5
54
330
1F
100
AcDbEntity
  8
0
  6
Continuous
 62
     8
370
     0
100
AcDbLine
 10
5.629927
 20
0.8695217014
 30
0.0
 11
6.9469156686
 21
0.8695217014
 31
0.0
  0
LINE
  5
55
330
1F
100
AcDbEntity
  8
0
  6
Continuous
 62
     8
370
     0
100
AcDbLine
 10
6.9469156686
 20
1.114715582
 30
0.0
 11
5.629927
 21
1.114715582
 31
0.0
  0
LINE
  5
56
330
1F
100
AcDbEntity
  8
0
  6
Continuous
 62
     8
370
     0
100
AcDbLine
 10
4.5974387755
 20
0.3920731707
 30
0.0
 11
4.5974387755
 21
1.8920731707
 31
0.0
  0
LINE
  5
57
330
1F
100
AcDbEntity
  8
0
  6
Continuous
 62
     8
370
     0
100
AcDbLine
 10
4.5974387755
 20
1.8920731707
 30
0.0
 11
5.629927
 21
1.8920731707
 31
0.0
  0
LINE
  5
58
330
1F
100
AcDbEntity
  8
0
  6
Continuous
 62
     8
370
     0
100
AcDbLine
 10
5.629927
 20
0.6195217014
 30
0.0
 11
4.5974387755
 21
0.6195217014
 31
0.0
  0
LINE
  5
59
330
1F
100
AcDbEntity
  8
0
  6
Continuous
 62
     8
370
     0
100
AcDbLine
 10
4.5974387755
 20
1.2920731707
 30
0.0
 11
2.9700721634
 21
1.2920731707
 31
0.0
  0
LINE
  5
5A
330
1F
100
AcDbEntity
  8
0
  6
Continuous
 62
     8
370
     0
100
AcDbLine
 10
2.9700721634
 20
1.2920731707
 30
0.0
 11
2.9700721634
 21
0.3920731707
 31
0.0
  0
LINE
  5
5B
330
1F
100
AcDbEntity
  8
0
  6
Continuous
 62
     8
370
     0
100
AcDbLine
 10
5.1191687755
 20
1.8920731707
 30
0.0
 11
5.1191687755
 21
0.6195217014
 31
0.0
  0
LINE
  5
5C
330
1F
100
AcDbEntity
  8
0
  6
Continuous
 62
     8
370
     0
100
AcDbLine
 10
6.9469156686
 20
1.5920731707
 30
0.0
 11
10.629927
 21
1.5920731707
 31
0.0
  0
LINE
  5
5D
330
1F
100
AcDbEntity
  8
0
  6
Continuous
 62
     8
370
     0
100
AcDbLine
 10
6.9469156686
 20
1.4420731707
 30
0.0
 11
8.3115759986
 21
1.4420731707
 31
0.0
  0
LINE
  5
5E
330
1F
100
AcDbEntity
  8
0
  6
Continuous
 62
     8
370
     0
100
AcDbLine
 10
6.9469156686
 20
1.2920731707
 30
0.0
 11
8.3115759986
 21
1.2920731707
 31
0.0
  0
LINE
  5
5F
330
1F
100
AcDbEntity
  8
0
  6
Continuous
 62
     8
370
     0
100
AcDbLine
 10
6.9469156686
 20
1.1420731707
 30
0.0
 11
8.3115759986
 21
1.1420731707
 31
0.0
  0
LINE
  5
60
330
1F
100
AcDbEntity
  8
0
  6
Continuous
 62
     8
370
     0
100
AcDbLine
 10
4.5974387755
 20
1.7420731707
 30
0.0
 11
5.629927
 21
1.7420731707
 31
0.0
  0
LINE
  5
61
330
1F
100
AcDbEntity
  8
0
  6
Continuous
 62
     8
370
     0
100
AcDbLine
 10
4.5974387755
 20
1.5920731707
 30
0.0
 11
5.629927
 21
1.5920731707
 31
0.0
  0
LINE
  5
62
330
1F
100
AcDbEntity
  8
0
  6
Continuous
 62
     8
370
     0
100
AcDbLine
 10
4.5974387755
 20
1.4420731707
 30
0.0
 11
5.629927
 21
1.4420731707
 31
0.0
  0
LINE
  5
63
330
1F
100
AcDbEntity
  8
0
  6
Continuous
 62
     8
370
     0
100
AcDbLine
 10
4.5974387755
 20
1.2920731707
 30
0.0
 11
5.629927
 21
1.2920731707
 31
0.0
  0
LINE
  5
64
330
1F
100
AcDbEntity
  8
0
  6
Continuous
 62
     8
370
     0
100
AcDbLine
 10
4.5974387755
 20
1.1420731707
 30
0.0
 11
5.629927
 21
1.1420731707
 31
0.0
  0
LINE
  5
65
330
1F
100
AcDbEntity
  8
0
  6
Continuous
 62
     8
370
     0
100
AcDbLine
 10
4.5974387755
 20
0.9920731707
 30
0.0
 11
5.629927
 21
0.9920731707
 31
0.0
  0
LINE
  5
66
330
1F
100
AcDbEntity
  8
0
  6
Continuous
 62
     8
370
     0
100
AcDbLine
 10
4.5974387755
 20
0.8420731707
 30
0.0
 11
5.629927
 21
0.8420731707
 31
0.0
  0
MTEXT
  5
68
330
1F
100
AcDbEntity
  8
FORMAT
100
AcDbMText
 10
6.9096496518
 20
7.9008706321
 30
0.0
 40
0.25
 41
0.0
 71
     1
 72
     1
  1
4x 8MM Panel (Ultem)
  7
SLDTEXTSTYLE0
 73
     1
 44
1.0
  0
MTEXT
  5
69
330
1F
100
AcDbEntity
  8
0
  6
Continuous
 62
     8
370
     0
100
AcDbMText
 10
8.4734437265
 20
1.8322354694
 30
0.0
 40
0.15625
 41
0.0
 71
     1
 72
     1
  1
<COMPANY NAME>
  7
SLDTEXTSTYLE0
 73
     1
 44
1.0
  0
MTEXT
  5
6A
330
1F
100
AcDbEntity
  8
0
  6
Continuous
 62
     8
370
     0
100
AcDbMText
 10
8.3377691992
 20
0.483770842
 30
0.0
 40
0.0520833333
 41
0.0
 71
     1
 72
     1
  1
SCALE:5:1
  7
SLDTEXTSTYLE0
 73
     1
 44
1.0
  0
MTEXT
  5
6B
330
1F
100
AcDbEntity
  8
0
  6
Continuous
 62
     8
370
     0
100
AcDbMText
 10
8.3426121904
 20
0.7459768351
 30
0.0
 40
0.0520833333
 41
0.0
 71
     1
 72
     1
  1
SIZE
  7
SLDTEXTSTYLE0
 73
     1
 44
1.0
  0
MTEXT
  5
6D
330
1F
100
AcDbEntity
  8
0
  6
Continuous
 62
     8
370
     0
100
AcDbMText
 10
8.5375471596
 20
0.7418860625
 30
0.0
 40
0.0520833333
 41
0.0
 71
     1
 72
     1
  1
DWG.  NO.
  7
SLDTEXTSTYLE1
 73
     1
 44
1.0
  0
MTEXT
  5
6E
330
1F
100
AcDbEntity
  8
0
  6
Continuous
 62
     8
370
     0
100
AcDbMText
 10
8.3618317006
 20
0.6691337105
 30
0.0
 40
0.1
 41
0.0
 71
     1
 72
     1
  1
A
  7
SLDTEXTSTYLE0
 73
     1
 44
1.0
  0
MTEXT
  5
6F
330
1F
100
AcDbEntity
  8
0
  6
Continuous
 62
     8
370
     0
100
AcDbMText
 10
10.4175030889
 20
0.7387922949
 30
0.0
 40
0.0520833333
 41
0.0
 71
     1
 72
     1
  1
REV.
  7
SLDTEXTSTYLE0
 73
     1
 44
1.0
  0
MTEXT
  5
70
330
1F
100
AcDbEntity
  8
0
  6
Continuous
 62
     8
370
     0
100
AcDbMText
 10
5.6747098319
 20
1.0814663466
 30
0.0
 40
0.0520833333
 41
0.0
 71
     1
 72
     1
  1
MATERIAL
  7
SLDTEXTSTYLE0
 73
     1
 44
1.0
  0
MTEXT
  5
71
330
1F
100
AcDbEntity
  8
0
  6
Continuous
 62
     8
370
     0
100
AcDbMText
 10
5.6735418436
 20
0.8263904146
 30
0.0
 40
0.0520833333
 41
0.0
 71
     1
 72
     1
  1
FINISH
  7
SLDTEXTSTYLE0
 73
     1
 44
1.0
  0
MTEXT
  5
72
330
1F
100
AcDbEntity
  8
0
  6
Continuous
 62
     8
370
     0
100
AcDbMText
 10
6.2399361964
 20
1.0556739725
 30
0.0
 40
0.09375
 41
0.0
 71
     1
 72
     1
  1
--
  7
SLDTEXTSTYLE0
 73
     1
 44
1.0
  0
MTEXT
  5
73
330
1F
100
AcDbEntity
  8
0
  6
Continuous
 62
     8
370
     0
100
AcDbMText
 10
6.2374052601
 20
0.8022525475
 30
0.0
 40
0.09375
 41
0.0
 71
     1
 72
     1
  1
--
  7
SLDTEXTSTYLE0
 73
     1
 44
1.0
  0
MTEXT
  5
75
330
1F
100
AcDbEntity
  8
0
  6
Continuous
 62
     8
370
     0
100
AcDbMText
 10
5.7533116481
 20
0.5375179374
 30
0.0
 40
0.0625
 41
0.0
 71
     1
 72
     1
  1
DO  NOT  SCALE  DRAWING
  7
SLDTEXTSTYLE2
 73
     1
 44
1.0
  0
MTEXT
  5
76
330
1F
100
AcDbEntity
  8
0
  6
Continuous
 62
     8
370
     0
100
AcDbMText
 10
4.8479254944
 20
0.5292270268
 30
0.0
 40
0.0625
 41
0.0
 71
     1
 72
     1
  1
APPLICATION
  7
SLDTEXTSTYLE0
 73
     1
 44
1.0
  0
MTEXT
  5
77
330
1F
100
AcDbEntity
  8
0
  6
Continuous
 62
     8
370
     0
100
AcDbMText
 10
5.1969373565
 20
0.7719582649
 30
0.0
 40
0.0625
 41
0.0
 71
     1
 72
     1
  1
USED ON
  7
SLDTEXTSTYLE0
 73
     1
 44
1.0
  0
MTEXT
  5
78
330
1F
100
AcDbEntity
  8
0
  6
Continuous
 62
     8
370
     0
100
AcDbMText
 10
4.6587677251
 20
0.7698494768
 30
0.0
 40
0.0625
 41
0.0
 71
     1
 72
     1
  1
NEXT ASSY
  7
SLDTEXTSTYLE0
 73
     1
 44
1.0
  0
INSERT
  5
88
330
1F
100
AcDbEntity
  8
0
  6
Continuous
 62
     8
370
     0
100
AcDbBlockReference
  2
SW_NOTE_0
 10
5.681586696
 20
1.7338132915
 30
0.0
  0
MTEXT
  5
89
330
1F
100
AcDbEntity
  8
0
  6
Continuous
 62
     8
370
     0
100
AcDbMText
 10
7.5111431281
 20
1.8468947279
 30
0.0
 40
0.0520833333
 41
0.0
 71
     1
 72
     1
  1
NAME
  7
SLDTEXTSTYLE0
 73
     1
 44
1.0
  0
MTEXT
  5
8A
330
1F
100
AcDbEntity
  8
0
  6
Continuous
 62
     8
370
     0
100
AcDbMText
 10
7.9925732028
 20
1.8448696708
 30
0.0
 40
0.0520833333
 41
0.0
 71
     1
 72
     1
  1
DATE
  7
SLDTEXTSTYLE0
 73
     1
 44
1.0
  0
MTEXT
  5
8B
330
1F
100
AcDbEntity
  8
0
  6
Continuous
 62
     8
370
     0
100
AcDbMText
 10
6.9797019285
 20
1.6994570393
 30
0.0
 40
0.0520833333
 41
0.0
 71
     1
 72
     1
  1
DRAWN
  7
SLDTEXTSTYLE0
 73
     1
 44
1.0
  0
MTEXT
  5
8C
330
1F
100
AcDbEntity
  8
0
  6
Continuous
 62
     8
370
     0
100
AcDbMText
 10
6.9820965014
 20
1.5396959837
 30
0.0
 40
0.0520833333
 41
0.0
 71
     1
 72
     1
  1
CHECKED
  7
SLDTEXTSTYLE0
 73
     1
 44
1.0
  0
MTEXT
  5
8D
330
1F
100
AcDbEntity
  8
0
  6
Continuous
 62
     8
370
     0
100
AcDbMText
 10
6.9826098737
 20
1.3973029218
 30
0.0
 40
0.0520833333
 41
0.0
 71
     1
 72
     1
  1
ENG APPR.
  7
SLDTEXTSTYLE0
 73
     1
 44
1.0
  0
MTEXT
  5
8E
330
1F
100
AcDbEntity
  8
0
  6
Continuous
 62
     8
370
     0
100
AcDbMText
 10
6.9830663238
 20
1.2483757904
 30
0.0
 40
0.0520833333
 41
0.0
 71
     1
 72
     1
  1
MFG APPR.
  7
SLDTEXTSTYLE0
 73
     1
 44
1.0
  0
MTEXT
  5
8F
330
1F
100
AcDbEntity
  8
0
  6
Continuous
 62
     8
370
     0
100
AcDbMText
 10
6.9869425693
 20
1.1010426536
 30
0.0
 40
0.0520833333
 41
0.0
 71
     1
 72
     1
  1
Q.A.
  7
SLDTEXTSTYLE0
 73
     1
 44
1.0
  0
MTEXT
  5
91
330
1F
100
AcDbEntity
  8
0
  6
Continuous
 62
     8
370
     0
100
AcDbMText
 10
9.968783271
 20
0.4839854901
 30
0.0
 40
0.05
 41
0.0
 71
     1
 72
     1
  1
SHEET 1 OF 1
  7
SLDTEXTSTYLE3
 73
     1
 44
1.0
  0
MTEXT
  5
92
330
1F
100
AcDbEntity
  8
0
  6
Continuous
 62
     8
370
     0
100
AcDbMText
 10
8.8089650408
 20
0.4802550712
 30
0.0
 40
0.0520833333
 41
0.0
 71
     1
 72
     1
  1
WEIGHT:
  7
SLDTEXTSTYLE0
 73
     1
 44
1.0
  0
MTEXT
  5
93
330
1F
100
AcDbEntity
  8
0
  6
Continuous
 62
     8
370
     0
100
AcDbMText
 10
6.9893536197
 20
0.9620796232
 30
0.0
 40
0.0520833333
 41
0.0
 71
     1
 72
     1
  1
COMMENTS:
  7
SLDTEXTSTYLE0
 73
     1
 44
1.0
  0
INSERT
  5
9E
330
1F
100
AcDbEntity
  8
0
  6
Continuous
 62
     8
370
     0
100
AcDbBlockReference
  2
SW_NOTE_1
 10
3.0080884308
 20
1.0369608333
 30
0.0
  0
MTEXT
  5
9F
330
1F
100
AcDbEntity
  8
0
  6
Continuous
 62
     8
370
     0
100
AcDbMText
 10
3.1575562164
 20
1.2351156121
 30
0.0
 40
0.06
 41
0.0
 71
     1
 72
     1
  1
PROPRIETARY AND CONFIDENTIAL
  7
SLDTEXTSTYLE0
 73
     1
 44
1.0
  0
ARC
  5
A0
330
1F
100
AcDbEntity
  8
0
  6
Continuous
 62
     7
370
    15
100
AcDbCircle
 10
7.89604556
 20
4.1466705323
 30
0.0
 40
0.1968503937007879
100
AcDbArc
 50
180.0
 51
270.0
  0
ARC
  5
A1
330
1F
100
AcDbEntity
  8
0
  6
Continuous
 62
     7
370
    15
100
AcDbCircle
 10
7.89604556
 20
5.3080878551
 30
0.0
 40
0.1968503937007879
100
AcDbArc
 50
90.0
 51
180.0
  0
ARC
  5
A2
330
1F
100
AcDbEntity
  8
0
  6
Continuous
 62
     7
370
    15
100
AcDbCircle
 10
9.0574628828
 20
5.3080878551
 30
0.0
 40
0.1968503937007871
100
AcDbArc
 50
0.0
 51
90.0
  0
ARC
  5
A3
330
1F
100
AcDbEntity
  8
0
  6
Continuous
 62
     7
370
    15
100
AcDbCircle
 10
9.0574628828
 20
4.1466705323
 30
0.0
 40
0.1968503937007871
100
AcDbArc
 50
270.0
 51
0.0
  0
LINE
  5
A4
330
1F
100
AcDbEntity
  8
0
  6
Continuous
 62
     7
370
    15
100
AcDbLine
 10
9.0574629047
 20
5.5049382545
 30
0.0
 11
7.8960455381
 21
5.5049382545
 31
0.0
  0
LINE
  5
A5
330
1F
100
AcDbEntity
  8
0
  6
Continuous
 62
     7
370
    15
100
AcDbLine
 10
9.254313239
 20
4.1466705537
 30
0.0
 11
9.254313239
 21
5.3080878515
 31
0.0
  0
LINE
  5
A6
330
1F
100
AcDbEntity
  8
0
  6
Continuous
 62
     7
370
    15
100
AcDbLine
 10
7.8960455381
 20
3.9498201277
 30
0.0
 11
9.0574629047
 21
3.9498201277
 31
0.0
  0
LINE
  5
A7
330
1F
100
AcDbEntity
  8
0
  6
Continuous
 62
     7
370
    15
100
AcDbLine
 10
7.6991952038
 20
5.3080878515
 30
0.0
 11
7.6991952038
 21
4.1466705537
 31
0.0
  0
ARC
  5
A8
330
1F
100
AcDbEntity
  8
0
  6
Continuous
 62
     7
370
    15
100
AcDbCircle
 10
7.6893526466
 20
3.9399776189
 30
0.0
 40
0.1968503937007879
100
AcDbArc
 50
180.0
 51
270.0
  0
LINE
  5
A9
330
1F
100
AcDbEntity
  8
0
  6
Continuous
 62
     7
370
    15
100
AcDbLine
 10
7.4925022749
 20
6.1053319437
 30
0.0
 11
7.4925022749
 21
3.9399776248
 31
0.0
  0
ARC
  5
AA
330
1F
100
AcDbEntity
  8
0
  6
Continuous
 62
     7
370
    15
100
AcDbCircle
 10
7.6893526466
 20
6.1053319496
 30
0.0
 40
0.1968503937007879
100
AcDbArc
 50
90.0
 51
180.0
  0
LINE
  5
AB
330
1F
100
AcDbEntity
  8
0
  6
Continuous
 62
     7
370
    15
100
AcDbLine
 10
9.2641558336
 20
6.3021823697
 30
0.0
 11
7.6893526092
 21
6.3021823697
 31
0.0
  0
ARC
  5
AC
330
1F
100
AcDbEntity
  8
0
  6
Continuous
 62
     7
370
    15
100
AcDbCircle
 10
9.2641557962
 20
6.1053319496
 30
0.0
 40
0.1968503937007879
100
AcDbArc
 50
0.0
 51
90.0
  0
LINE
  5
AD
330
1F
100
AcDbEntity
  8
0
  6
Continuous
 62
     7
370
    15
100
AcDbLine
 10
9.4610061679
 20
3.9399776248
 30
0.0
 11
9.4610061679
 21
6.1053319437
 31
0.0
  0
LINE
  5
AE
330
1F
100
AcDbEntity
  8
0
  6
Continuous
 62
     7
370
    15
100
AcDbLine
 10
7.6893526092
 20
3.7431271988
 30
0.0
 11
9.2641558336
 21
3.7431271988
 31
0.0
  0
CIRCLE
  5
AF
330
1F
100
AcDbEntity
  8
0
  6
Continuous
 62
     7
370
    15
100
AcDbCircle
 10
8.4767542214
 20
5.9084815559
 30
0.0
 40
0.1750000000000007
  0
CIRCLE
  5
B0
330
1F
100
AcDbEntity
  8
0
  6
Continuous
 62
     7
370
    15
100
AcDbCircle
 10
9.0673054025
 20
5.9084815559
 30
0.0
 40
0.2343749999999991
  0
CIRCLE
  5
B1
330
1F
100
AcDbEntity
  8
0
  6
Continuous
 62
     7
370
    15
100
AcDbCircle
 10
7.8862030403
 20
5.9084815559
 30
0.0
 40
0.2343749999999991
  0
ARC
  5
B2
330
1F
100
AcDbEntity
  8
0
  6
Continuous
 62
     7
370
    15
100
AcDbCircle
 10
9.2641557962
 20
3.9399776189
 30
0.0
 40
0.1968503937007879
100
AcDbArc
 50
270.0
 51
0.0
  0
DIMENSION
  5
B3
330
1F
100
AcDbEntity
  8
FORMAT
100
AcDbDimension
  2
*D4
 10
7.2991483358
 20
3.9498201386
 30
0.0
 11
7.2991483358
 21
4.7458913722
 31
0.0
 70
   160
  1
(<>)
 71
     2
 42
-1.0
  3
SLDDIMSTYLE0
100
AcDbAlignedDimension
 13
7.89604556
 23
5.5049382488
 33
0.0
 14
7.89604556
 24
3.9498201386
 34
0.0
 50
90.0
100
AcDbRotatedDimension
  0
DIMENSION
  5
C9
330
1F
100
AcDbEntity
  8
FORMAT
100
AcDbDimension
  2
*D5
 10
9.2543132765
 20
6.686040611
 30
0.0
 11
8.4606911351
 21
6.686040611
 31
0.0
 70
   160
  1
(<>)
 71
     2
 42
-1.0
  3
SLDDIMSTYLE0
100
AcDbAlignedDimension
 13
7.6991951663
 23
5.3080878551
 33
0.0
 14
9.2543132765
 24
5.3080878551
 34
0.0
100
AcDbRotatedDimension
  0
DIMENSION
  5
D7
330
1F
100
AcDbEntity
  8
FORMAT
100
AcDbDimension
  2
*D6
 10
9.2641557962
 20
3.9399776189
 30
0.0
 11
10.0452237616
 21
3.1589104408
 31
0.0
 70
   164
  1
(<>)
 71
     1
 42
-1.0
  3
SLDDIMSTYLE1
100
AcDbRadialDimension
 15
9.4033500444
 25
3.8007833706
 35
0.0
 40
0.0
  0
LINE
  5
E3
330
1F
100
AcDbEntity
  8
0
  6
Continuous
 62
     7
370
    15
100
AcDbLine
 10
3.8342118962
 20
6.1053319437
 30
0.0
 11
3.8342118962
 21
4.2640347979
 31
0.0
  0
LINE
  5
E4
330
1F
100
AcDbEntity
  8
0
  6
Continuous
 62
     7
370
    15
100
AcDbLine
 10
5.4090151206
 20
6.1053319437
 30
0.0
 11
3.8342118962
 21
6.1053319437
 31
0.0
  0
LINE
  5
E5
330
1F
100
AcDbEntity
  8
0
  6
Continuous
 62
     7
370
    15
100
AcDbLine
 10
5.4090151206
 20
4.2640347979
 30
0.0
 11
5.4090151206
 21
6.1053319437
 31
0.0
  0
ARC
  5
E6
330
1F
100
AcDbEntity
  8
0
  6
Continuous
 62
     7
370
    15
100
AcDbCircle
 10
5.2121646895
 20
4.1368280126
 30
0.0
 40
0.2343749999999998
100
AcDbArc
 50
32.8709650731
 51
237.1290349269
  0
LINE
  5
E7
330
1F
100
AcDbEntity
  8
0
  6
Continuous
 62
     7
370
    15
100
AcDbLine
 10
4.8643194484
 20
3.9399776248
 30
0.0
 11
5.0849579017
 21
3.9399776248
 31
0.0
  0
ARC
  5
E8
330
1F
100
AcDbEntity
  8
0
  6
Continuous
 62
     7
370
    15
100
AcDbCircle
 10
4.6216135084
 20
4.1368280126
 30
0.0
 40
0.3124999999999999
100
AcDbArc
 50
320.9556865309
 51
219.0443134691
  0
LINE
  5
E9
330
1F
100
AcDbEntity
  8
0
  6
Continuous
 62
     7
370
    15
100
AcDbLine
 10
4.1582691152
 20
3.9399776248
 30
0.0
 11
4.3789075685
 21
3.9399776248
 31
0.0
  0
ARC
  5
EA
330
1F
100
AcDbEntity
  8
0
  6
Continuous
 62
     7
370
    15
100
AcDbCircle
 10
4.0310623273
 20
4.1368280126
 30
0.0
 40
0.2343750000000002
100
AcDbArc
 50
302.8709650731
 51
147.1290349269
  0
LINE
  5
EB
330
1F
100
AcDbEntity
  8
0
  6
Continuous
 62
     7
370
    15
100
AcDbLine
 10
5.4090151206
 20
3.9399776248
 30
0.0
 11
5.4090151206
 21
4.0096212119
 31
0.0
  0
LINE
  5
EC
330
1F
100
AcDbEntity
  8
0
  6
Continuous
 62
     7
370
    15
100
AcDbLine
 10
5.3393714418
 20
3.9399776248
 30
0.0
 11
5.4090151206
 21
3.9399776248
 31
0.0
  0
ARC
  5
ED
330
1F
100
AcDbEntity
  8
0
  6
Continuous
 62
     7
370
    15
100
AcDbCircle
 10
5.2121646895
 20
4.1368280126
 30
0.0
 40
0.2343749999999998
100
AcDbArc
 50
302.8709650731
 51
327.1290349269
  0
LINE
  5
EE
330
1F
100
AcDbEntity
  8
0
  6
Continuous
 62
     7
370
    15
100
AcDbLine
 10
5.4090151206
 20
3.7431271988
 30
0.0
 11
5.4090151206
 21
3.9399776248
 31
0.0
  0
LINE
  5
EF
330
1F
100
AcDbEntity
  8
0
  6
Continuous
 62
     7
370
    15
100
AcDbLine
 10
5.6058654549
 20
3.9399776248
 30
0.0
 11
5.4090151206
 21
3.9399776248
 31
0.0
  0
ARC
  5
F0
330
1F
100
AcDbEntity
  8
0
  6
Continuous
 62
     7
370
    15
100
AcDbCircle
 10
5.4090150832
 20
3.9399776189
 30
0.0
 40
0.1968503937007879
100
AcDbArc
 50
270.0
 51
0.0
  0
LINE
  5
F1
330
1F
100
AcDbEntity
  8
0
  6
Continuous
 62
     7
370
    15
100
AcDbLine
 10
3.8342118962
 20
6.1053319437
 30
0.0
 11
3.8342118962
 21
6.3021823697
 31
0.0
  0
LINE
  5
F2
330
1F
100
AcDbEntity
  8
0
  6
Continuous
 62
     7
370
    15
100
AcDbLine
 10
3.8342118962
 20
6.3021823697
 30
0.0
 11
5.4090151206
 21
6.3021823697
 31
0.0
  0
LINE
  5
F3
330
1F
100
AcDbEntity
  8
0
  6
Continuous
 62
     7
370
    15
100
AcDbLine
 10
5.4090151206
 20
6.3021823697
 30
0.0
 11
5.4090151206
 21
6.1053319437
 31
0.0
  0
LINE
  5
F4
330
1F
100
AcDbEntity
  8
0
  6
Continuous
 62
     7
370
    15
100
AcDbLine
 10
5.6058654549
 20
6.1053319437
 30
0.0
 11
5.4090151206
 21
6.1053319437
 31
0.0
  0
ARC
  5
F5
330
1F
100
AcDbEntity
  8
0
  6
Continuous
 62
     7
370
    15
100
AcDbCircle
 10
5.4090150832
 20
6.1053319496
 30
0.0
 40
0.1968503937007879
100
AcDbArc
 50
0.0
 51
90.0
  0
LINE
  5
F6
330
1F
100
AcDbEntity
  8
0
  6
Continuous
 62
     7
370
    15
100
AcDbLine
 10
3.8342118962
 20
6.1053319437
 30
0.0
 11
3.6373615619
 21
6.1053319437
 31
0.0
  0
ARC
  5
F7
330
1F
100
AcDbEntity
  8
0
  6
Continuous
 62
     7
370
    15
100
AcDbCircle
 10
3.8342119336
 20
6.1053319496
 30
0.0
 40
0.1968503937007879
100
AcDbArc
 50
90.0
 51
180.0
  0
LINE
  5
F8
330
1F
100
AcDbEntity
  8
0
  6
Continuous
 62
     7
370
    15
100
AcDbLine
 10
5.6058654549
 20
6.1053319437
 30
0.0
 11
5.6058654549
 21
3.9399776248
 31
0.0
  0
SPLINE
  5
F9
330
1F
100
AcDbEntity
  8
0
  6
Continuous
 62
     7
370
    15
100
AcDbSpline
210
0.0
220
0.0
230
1.0
 70
     8
 71
     3
 72
    14
 73
    10
 74
     0
 42
0.00000001
 43
0.00000001
 40
0.0
 40
0.0
 40
0.0
 40
0.0
 40
0.25
 40
0.25
 40
0.5
 40
0.5
 40
0.75
 40
0.75
 40
1.0
 40
1.0
 40
1.0
 40
1.0
 10
5.409015083245928
 20
4.00962123947745
 30
0.0
 10
5.421293049506258
 20
4.02862119076241
 30
0.0
 10
5.430566303696529
 20
4.048875743803366
 30
0.0
 10
5.443284584646
 20
4.091900729821918
 30
0.0
 10
5.446520217661762
 20
4.114283480715804
 30
0.0
 10
5.446558984999242
 20
4.158965847500387
 30
0.0
 10
5.443309960960963
 20
4.181551696826565
 30
0.0
 10
5.430737907468164
 20
4.224315685070584
 30
0.0
 10
5.42128831323849
 20
4.245042163707443
 30
0.0
 10
5.409015083245928
 20
4.264034785695764
 30
0.0
  0
ARC
  5
FA
330
1F
100
AcDbEntity
  8
0
  6
Continuous
 62
     7
370
    15
100
AcDbCircle
 10
4.0310623273
 20
4.1368280126
 30
0.0
 40
0.2343749999999995
100
AcDbArc
 50
212.8709650731
 51
237.1290349269
  0
LINE
  5
FB
330
1F
100
AcDbEntity
  8
0
  6
Continuous
 62
     7
370
    15
100
AcDbLine
 10
3.8342118962
 20
3.9399776248
 30
0.0
 11
3.903855575
 21
3.9399776248
 31
0.0
  0
LINE
  5
FC
330
1F
100
AcDbEntity
  8
0
  6
Continuous
 62
     7
370
    15
100
AcDbLine
 10
3.8342118962
 20
4.0096212119
 30
0.0
 11
3.8342118962
 21
3.9399776248
 31
0.0
  0
SPLINE
  5
FD
330
1F
100
AcDbEntity
  8
0
  6
Continuous
 62
     7
370
    15
100
AcDbSpline
210
0.0
220
0.0
230
1.0
 70
     8
 71
     3
 72
    22
 73
    18
 74
     0
 42
0.00000001
 43
0.00000001
 40
0.0
 40
0.0
 40
0.0
 40
0.0
 40
0.1250000000000001
 40
0.1250000000000001
 40
0.2500000000000001
 40
0.2500000000000001
 40
0.3750000000000001
 40
0.3750000000000001
 40
0.5
 40
0.5
 40
0.625
 40
0.625
 40
0.75
 40
0.75
 40
0.8749999999999999
 40
0.8749999999999999
 40
1.0
 40
1.0
 40
1.0
 40
1.0
 10
4.378907570114428
 20
3.939977618885819
 30
0.0
 10
4.39383804181513
 20
3.921569151035295
 30
0.0
 10
4.410371665567989
 20
3.90539085105248
 30
0.0
 10
4.446568791271702
 20
3.876932604949979
 30
0.0
 10
4.466381662552367
 20
3.864645119084993
 30
0.0
 10
4.507709610944829
 20
3.844926735391333
 30
0.0
 10
4.529682989644606
 20
3.837258404853105
 30
0.0
 10
4.574870949227223
 20
3.826975945751342
 30
0.0
 10
4.597947912027657
 20
3.82432980412121
 30
0.0
 10
4.645231767393282
 20
3.824326222844672
 30
0.0
 10
4.668339167906647
 20
3.826974356162125
 30
0.0
 10
4.713503078364585
 20
3.837246833952936
 30
0.0
 10
4.735493394232536
 20
3.844917548579343
 30
0.0
 10
4.776818922565004
 20
3.86463024108292
 30
0.0
 10
4.796628700372577
 20
3.876911282435513
 30
0.0
 10
4.832853198069945
 20
3.905387269533706
 30
0.0
 10
4.849391343220188
 20
3.921572070836467
 30
0.0
 10
4.864319446771128
 20
3.939977618885818
 30
0.0
  0
SPLINE
  5
FE
330
1F
100
AcDbEntity
  8
0
  6
Continuous
 62
     7
370
    15
100
AcDbSpline
210
0.0
220
0.0
230
1.0
 70
     8
 71
     3
 72
    14
 73
    10
 74
     0
 42
0.00000001
 43
0.00000001
 40
0.0
 40
0.0
 40
0.0
 40
0.0
 40
0.25
 40
0.25
 40
0.5
 40
0.5
 40
0.75
 40
0.75
 40
1.0
 40
1.0
 40
1.0
 40
1.0
 10
5.084957916435981
 20
3.939977618885819
 30
0.0
 10
5.103957867720943
 20
3.927699652625487
 30
0.0
 10
5.1242124207619
 20
3.918426398435217
 30
0.0
 10
5.167237406780451
 20
3.905708117485745
 30
0.0
 10
5.189620157674337
 20
3.902472484469985
 30
0.0
 10
5.23430252445892
 20
3.902433717132505
 30
0.0
 10
5.256888373785098
 20
3.905682741170784
 30
0.0
 10
5.299652362029117
 20
3.918254794663581
 30
0.0
 10
5.320378840665976
 20
3.927704388893256
 30
0.0
 10
5.339371462654298
 20
3.939977618885819
 30
0.0
  0
LINE
  5
FF
330
1F
100
AcDbEntity
  8
0
  6
Continuous
 62
     7
370
    15
100
AcDbLine
 10
5.4090151206
 20
3.7431271988
 30
0.0
 11
3.8342118962
 21
3.7431271988
 31
0.0
  0
LINE
  5
100
330
1F
100
AcDbEntity
  8
0
  6
Continuous
 62
     7
370
    15
100
AcDbLine
 10
3.8342118962
 20
3.9399776248
 30
0.0
 11
3.8342118962
 21
3.7431271988
 31
0.0
  0
SPLINE
  5
101
330
1F
100
AcDbEntity
  8
0
  6
Continuous
 62
     7
370
    15
100
AcDbSpline
210
0.0
220
0.0
230
1.0
 70
     8
 71
     3
 72
    14
 73
    10
 74
     0
 42
0.00000001
 43
0.00000001
 40
0.0
 40
0.0
 40
0.0
 40
0.0
 40
0.25
 40
0.25
 40
0.5
 40
0.5
 40
0.75
 40
0.75
 40
1.0
 40
1.0
 40
1.0
 40
1.0
 10
3.903855554231257
 20
3.939977618885819
 30
0.0
 10
3.922855505516218
 20
3.927699652625487
 30
0.0
 10
3.943110058557175
 20
3.918426398435217
 30
0.0
 10
3.986135044575726
 20
3.905708117485745
 30
0.0
 10
4.008517795469612
 20
3.902472484469985
 30
0.0
 10
4.053200162254195
 20
3.902433717132505
 30
0.0
 10
4.075786011580374
 20
3.905682741170784
 30
0.0
 10
4.118549999824393
 20
3.918254794663581
 30
0.0
 10
4.139276478461252
 20
3.927704388893256
 30
0.0
 10
4.158269100449573
 20
3.939977618885819
 30
0.0
  0
SPLINE
  5
102
330
1F
100
AcDbEntity
  8
0
  6
Continuous
 62
     7
370
    15
100
AcDbSpline
210
0.0
220
0.0
230
1.0
 70
     8
 71
     3
 72
    14
 73
    10
 74
     0
 42
0.00000001
 43
0.00000001
 40
0.0
 40
0.0
 40
0.0
 40
0.0
 40
0.25
 40
0.25
 40
0.5
 40
0.5
 40
0.75
 40
0.75
 40
1.0
 40
1.0
 40
1.0
 40
1.0
 10
3.834211933639628
 20
4.264034785695765
 30
0.0
 10
3.821933967379296
 20
4.245034834410803
 30
0.0
 10
3.812660713189026
 20
4.224780281369847
 30
0.0
 10
3.799942432239554
 20
4.181755295351295
 30
0.0
 10
3.796706799223793
 20
4.159372544457409
 30
0.0
 10
3.796668031886314
 20
4.114690177672827
 30
0.0
 10
3.799917055924592
 20
4.092104328346649
 30
0.0
 10
3.81248910941739
 20
4.049340340102629
 30
0.0
 10
3.821938703647064
 20
4.02861386146577
 30
0.0
 10
3.834211933639628
 20
4.009621239477449
 30
0.0
  0
LINE
  5
103
330
1F
100
AcDbEntity
  8
0
  6
Continuous
 62
     7
370
    15
100
AcDbLine
 10
3.8342118962
 20
3.9399776248
 30
0.0
 11
3.6373615619
 21
3.9399776248
 31
0.0
  0
LINE
  5
104
330
1F
100
AcDbEntity
  8
0
  6
Continuous
 62
     7
370
    15
100
AcDbLine
 10
3.6373615619
 20
3.9399776248
 30
0.0
 11
3.6373615619
 21
6.1053319437
 31
0.0
  0
ARC
  5
105
330
1F
100
AcDbEntity
  8
0
  6
Continuous
 62
     7
370
    15
100
AcDbCircle
 10
3.8342119336
 20
3.9399776189
 30
0.0
 40
0.1968503937007879
100
AcDbArc
 50
180.0
 51
270.0
  0
CIRCLE
  5
106
330
1F
100
AcDbEntity
  8
0
  6
Continuous
 62
     7
370
    15
100
AcDbCircle
 10
4.6216135084
 20
4.1368280126
 30
0.0
 40
0.1750000000000003
  0
DIMENSION
  5
107
330
1F
100
AcDbEntity
  8
FORMAT
100
AcDbDimension
  2
*D7
 10
5.6058654769
 20
6.6958831307
 30
0.0
 11
5.1746716698
 21
6.6958831307
 31
0.0
 70
   160
  1
(<>)
 71
     2
 42
-1.0
  3
SLDDIMSTYLE0
100
AcDbAlignedDimension
 13
3.6373615399
 23
6.1053319496
 33
0.0
 14
5.6058654769
 24
6.1053319496
 34
0.0
100
AcDbRotatedDimension
  0
DIMENSION
  5
115
330
1F
100
AcDbEntity
  8
FORMAT
100
AcDbDimension
  2
*D8
 10
3.4341651032
 20
3.7431272252
 30
0.0
 11
3.4341651032
 21
5.0389212008
 31
0.0
 70
   160
  1
(<>)
 71
     2
 42
-1.0
  3
SLDDIMSTYLE2
100
AcDbAlignedDimension
 13
3.8342119336
 23
6.3021823433
 33
0.0
 14
3.8342119336
 24
3.7431272252
 34
0.0
 50
90.0
100
AcDbRotatedDimension
  0
DIMENSION
  5
122
330
1F
100
AcDbEntity
  8
FORMAT
100
AcDbDimension
  2
*D9
 10
4.0310623273
 20
4.1368280126
 30
0.0
 11
2.0565489437
 21
2.4122991667
 31
0.0
 70
   164
  1
<> x %%c 0.094 {\fGDT;x} 0.394\P
 71
     1
 42
-1.0
  3
SLDDIMSTYLE3
100
AcDbRadialDimension
 15
4.007761287
 25
3.9036141576
 35
0.0
 40
0.0
  0
DIMENSION
  5
13A
330
1F
100
AcDbEntity
  8
FORMAT
100
AcDbDimension
  2
*D11
 10
4.5938768984
 20
4.3096159765
 30
0.0
 11
6.7525829605
 21
2.8171349231
 31
0.0
 70
   163
  1
<> THRU ALL\P{\fGDT;v}%%c 0.125 {\fGDT;x} 0.060\P
 71
     1
 42
-1.0
  3
SLDDIMSTYLE4
100
AcDbDiametricDimension
 15
4.6493501185
 25
3.9640400487
 35
0.0
 40
0.0
  0
LINE
  5
155
330
1F
100
AcDbEntity
  8
0
  6
HIDDEN
 62
     7
370
     0
100
AcDbLine
 10
4.6216135084
 20
2.9405534709
 30
0.0
 11
4.6216135084
 21
7.1860881801
 31
0.0
  0
LINE
  5
156
330
1F
100
AcDbEntity
  8
0
  6
Continuous
 62
     7
370
     0
100
AcDbLine
 10
4.1491725636
 20
3.0192936284
 30
0.0
 11
4.6216135084
 21
3.0192936284
 31
0.0
  0
INSERT
  5
157
330
1F
100
AcDbEntity
  8
0
  6
Continuous
 62
     7
370
     0
100
AcDbBlockReference
  2
_CLOSED
 10
4.6216135084
 20
3.0192936284
 30
0.0
 41
0.2362204724
 42
0.2362204724
 50
360.0
  0
LINE
  5
158
330
1F
100
AcDbEntity
  8
0
  6
Continuous
 62
     7
370
     0
100
AcDbLine
 10
4.1491725636
 20
7.1073480226
 30
0.0
 11
4.6216135084
 21
7.1073480226
 31
0.0
  0
INSERT
  5
159
330
1F
100
AcDbEntity
  8
0
  6
Continuous
 62
     7
370
     0
100
AcDbBlockReference
  2
_CLOSED
 10
4.6216135084
 20
7.1073480226
 30
0.0
 41
0.2362204724
 42
0.2362204724
 50
360.0
  0
MTEXT
  5
15A
330
1F
100
AcDbEntity
  8
0
  6
Continuous
 62
     7
100
AcDbMText
 10
4.1491725636
 20
3.4163319481
 30
0.0
 40
0.25
 41
0.0
 71
     1
 72
     1
  1
A
  7
SLDTEXTSTYLE0
 73
     1
 44
1.0
  0
MTEXT
  5
15B
330
1F
100
AcDbEntity
  8
0
  6
Continuous
 62
     7
100
AcDbMText
 10
4.1491725636
 20
7.5043863423
 30
0.0
 40
0.25
 41
0.0
 71
     1
 72
     1
  1
A
  7
SLDTEXTSTYLE0
 73
     1
 44
1.0
  0
LINE
  5
15C
330
1F
100
AcDbEntity
  8
0
  6
Continuous
 62
     7
370
    15
100
AcDbLine
 10
1.6593410068
 20
6.0954894408
 30
0.0
 11
1.4624906267
 21
6.0954894408
 31
0.0
  0
LINE
  5
15D
330
1F
100
AcDbEntity
  8
0
  6
Continuous
 62
     7
370
    15
100
AcDbLine
 10
1.6593410068
 20
6.0954894408
 30
0.0
 11
1.6593410068
 21
6.3021823697
 31
0.0
  0
LINE
  5
15E
330
1F
100
AcDbEntity
  8
0
  6
Continuous
 62
     7
370
    15
100
AcDbLine
 10
1.8906402161
 20
6.3021823697
 30
0.0
 11
1.6593410068
 21
6.3021823697
 31
0.0
  0
ARC
  5
15F
330
1F
100
AcDbEntity
  8
0
  6
Continuous
 62
     7
370
    15
100
AcDbCircle
 10
1.8906402254
 20
6.1053319496
 30
0.0
 40
0.1968503937007879
100
AcDbArc
 50
0.0
 51
90.0
  0
LINE
  5
160
330
1F
100
AcDbEntity
  8
0
  6
Continuous
 62
     7
370
    15
100
AcDbLine
 10
2.0874906191
 20
4.449328024
 30
0.0
 11
2.0874906191
 21
6.1053319437
 31
0.0
  0
LINE
  5
161
330
1F
100
AcDbEntity
  8
0
  6
Continuous
 62
     7
370
    15
100
AcDbLine
 10
1.7874906264
 20
4.449328024
 30
0.0
 11
2.0874906191
 21
4.449328024
 31
0.0
  0
LINE
  5
162
330
1F
100
AcDbEntity
  8
0
  6
Continuous
 62
     7
370
    15
100
AcDbLine
 10
1.7874906264
 20
4.3118280083
 30
0.0
 11
1.7874906264
 21
4.449328024
 31
0.0
  0
LINE
  5
163
330
1F
100
AcDbEntity
  8
0
  6
Continuous
 62
     7
370
    15
100
AcDbLine
 10
1.6593410068
 20
4.3118280083
 30
0.0
 11
1.7874906264
 21
4.3118280083
 31
0.0
  0
LINE
  5
164
330
1F
100
AcDbEntity
  8
0
  6
Continuous
 62
     7
370
    15
100
AcDbLine
 10
1.6593410068
 20
4.3118280083
 30
0.0
 11
1.6593410068
 21
4.540371314
 31
0.0
  0
LINE
  5
165
330
1F
100
AcDbEntity
  8
0
  6
Continuous
 62
     7
370
    15
100
AcDbLine
 10
1.4624906267
 20
4.540371314
 30
0.0
 11
1.6593410068
 21
4.540371314
 31
0.0
  0
LINE
  5
166
330
1F
100
AcDbEntity
  8
0
  6
Continuous
 62
     7
370
    15
100
AcDbLine
 10
1.4624906267
 20
6.0954894408
 30
0.0
 11
1.4624906267
 21
4.540371314
 31
0.0
  0
LINE
  5
167
330
1F
100
AcDbEntity
  8
0
  6
Continuous
 62
     7
370
    15
100
AcDbLine
 10
1.7874906264
 20
3.9618280473
 30
0.0
 11
1.7874906264
 21
4.3118280083
 31
0.0
  0
LINE
  5
168
330
1F
100
AcDbEntity
  8
0
  6
Continuous
 62
     7
370
    15
100
AcDbLine
 10
1.7874906264
 20
3.9618280473
 30
0.0
 11
1.6593410068
 21
3.9618280473
 31
0.0
  0
LINE
  5
169
330
1F
100
AcDbEntity
  8
0
  6
Continuous
 62
     7
370
    15
100
AcDbLine
 10
1.6593410068
 20
4.3118280083
 30
0.0
 11
1.6593410068
 21
3.9618280473
 31
0.0
  0
LINE
  5
16A
330
1F
100
AcDbEntity
  8
0
  6
Continuous
 62
     7
370
    15
100
AcDbLine
 10
1.7874906264
 20
3.8243279857
 30
0.0
 11
1.7874906264
 21
3.9618280473
 31
0.0
  0
LINE
  5
16B
330
1F
100
AcDbEntity
  8
0
  6
Continuous
 62
     7
370
    15
100
AcDbLine
 10
2.0499363196
 20
3.8243279857
 30
0.0
 11
1.7874906264
 21
3.8243279857
 31
0.0
  0
ARC
  5
16C
330
1F
100
AcDbEntity
  8
0
  6
Continuous
 62
     7
370
    15
100
AcDbCircle
 10
1.8906402254
 20
3.9399776189
 30
0.0
 40
0.1968503937007879
100
AcDbArc
 50
270.0
 51
324.0201994025
  0
LINE
  5
16D
330
1F
100
AcDbEntity
  8
0
  6
Continuous
 62
     7
370
    15
100
AcDbLine
 10
1.6593410068
 20
3.7431271988
 30
0.0
 11
1.8906402161
 21
3.7431271988
 31
0.0
  0
LINE
  5
16E
330
1F
100
AcDbEntity
  8
0
  6
Continuous
 62
     7
370
    15
100
AcDbLine
 10
1.6593410068
 20
3.7431271988
 30
0.0
 11
1.6593410068
 21
3.9618280473
 31
0.0
  0
LINE
  5
16F
330
1F
100
AcDbEntity
  8
0
  6
Continuous
 62
     7
370
    15
100
AcDbLine
 10
2.0874906191
 20
3.9399776248
 30
0.0
 11
2.0874906191
 21
4.449328024
 31
0.0
  0
SPLINE
  5
170
330
1F
100
AcDbEntity
  8
0
  6
Continuous
 62
     7
370
    15
100
AcDbSpline
210
0.0
220
0.0
230
1.0
 70
     8
 71
     3
 72
    14
 73
    10
 74
     0
 42
0.00000001
 43
0.00000001
 40
0.0
 40
0.0
 40
0.0
 40
0.0
 40
0.25
 40
0.25
 40
0.5
 40
0.5
 40
0.75
 40
0.75
 40
1.0
 40
1.0
 40
1.0
 40
1.0
 10
2.049936321003496
 20
3.824328012586607
 30
0.0
 10
2.049936321003496
 20
3.824328012586607
 30
0.0
 10
2.051943465767591
 20
3.826977377192398
 30
0.0
 10
2.058673376898395
 20
3.837251526903982
 30
0.0
 10
2.063365872850368
 20
3.844922544834977
 30
0.0
 10
2.072830025182453
 20
3.864635112650136
 30
0.0
 10
2.077694376243753
 20
3.876915702877493
 30
0.0
 10
2.08498465051043
 20
3.905389976185825
 30
0.0
 10
2.087490619136963
 20
3.921573606358868
 30
0.0
 10
2.087490619136963
 20
3.939977618885818
 30
0.0
  0
HATCH
  5
171
330
1F
100
AcDbEntity
  8
0
  6
Continuous
 62
     7
370
     0
100
AcDbHatch
 10
0.0
 20
0.0
 30
0.0
210
0.0
220
0.0
230
1.0
  2
ANSI31
 70
     0
 71
     0
 91
        1
 92
        0
 93
        6
 72
     1
 10
1.65934101283775
 20
3.961828012586607
 11
1.65934101283775
 21
3.743127225185031
 72
     1
 10
1.65934101283775
 20
3.743127225185031
 11
1.890640225436175
 21
3.743127225185031
 72
     2
 10
1.890640225436175
 20
3.939977618885819
 40
0.1968503937007874
 50
270.0000000000008
 51
324.0201994025266
 73
     1
 72
     1
 10
2.049936321003493
 20
3.824328012586607
 11
1.787490619136963
 21
3.824328012586607
 72
     1
 10
1.787490619136963
 20
3.824328012586607
 11
1.787490619136963
 21
3.961828012586607
 72
     1
 10
1.787490619136963
 20
3.961828012586607
 11
1.65934101283775
 21
3.961828012586607
 97
        0
 75
     0
 76
     1
 52
0.0
 41
1.0
 77
     0
 78
     1
 53
45.0
 43
0.0
 44
0.0
 45
-0.0883883476483184
 46
0.0883883476483184
 79
     0
 98
        1
 10
0.0
 20
0.0
  0
HATCH
  5
172
330
1F
100
AcDbEntity
  8
0
  6
Continuous
 62
     7
370
     0
100
AcDbHatch
 10
0.0
 20
0.0
 30
0.0
210
0.0
220
0.0
230
1.0
  2
ANSI31
 70
     0
 71
     0
 91
        1
 92
        0
 93
       11
 72
     1
 10
1.462490619136963
 20
6.095489429909441
 11
1.462490619136963
 21
4.54037131967322
 72
     1
 10
1.462490619136963
 20
4.54037131967322
 11
1.65934101283775
 21
4.54037131967322
 72
     1
 10
1.65934101283775
 20
4.54037131967322
 11
1.65934101283775
 21
4.311828012586607
 72
     1
 10
1.65934101283775
 20
4.311828012586607
 11
1.787490619136963
 21
4.311828012586607
 72
     1
 10
1.787490619136963
 20
4.311828012586607
 11
1.787490619136963
 21
4.449328012586606
 72
     1
 10
1.787490619136963
 20
4.449328012586606
 11
2.087490619136963
 21
4.449328012586606
 72
     1
 10
2.087490619136963
 20
4.449328012586606
 11
2.087490619136963
 21
6.10533194959448
 72
     2
 10
1.890640225436175
 20
6.10533194959448
 40
0.1968503937007874
 50
0.0
 51
90.0
 73
     1
 72
     1
 10
1.890640225436175
 20
6.302182343295268
 11
1.65934101283775
 21
6.302182343295268
 72
     1
 10
1.65934101283775
 20
6.302182343295268
 11
1.65934101283775
 21
6.095489429909441
 72
     1
 10
1.65934101283775
 20
6.095489429909441
 11
1.462490619136963
 21
6.095489429909441
 97
        0
 75
     0
 76
     1
 52
0.0
 41
1.0
 77
     0
 78
     1
 53
45.0
 43
0.0
 44
0.0
 45
-0.0883883476483184
 46
0.0883883476483184
 79
     0
 98
        1
 10
0.0
 20
0.0
  0
DIMENSION
  5
173
330
1F
100
AcDbEntity
  8
FORMAT
100
AcDbDimension
  2
*D13
 10
2.0874906191
 20
7.6309225008
 30
0.0
 11
1.7749906191
 21
7.6309225008
 31
0.0
 70
   160
  1
(<>)
 71
     2
 42
-1.0
  3
SLDDIMSTYLE0
100
AcDbAlignedDimension
 13
1.4624906191
 23
6.0954894299
 33
0.0
 14
2.0874906191
 24
6.1053319496
 34
0.0
100
AcDbRotatedDimension
  0
DIMENSION
  5
181
330
1F
100
AcDbEntity
  8
FORMAT
100
AcDbDimension
  2
*D14
 10
1.4624906191
 20
6.686040611
 30
0.0
 11
0.8325693593
 21
6.686040611
 31
0.0
 70
   160
  1
(<>)
 71
     2
 42
-1.0
  3
SLDDIMSTYLE0
100
AcDbAlignedDimension
 13
1.6593410128
 23
6.0954894299
 33
0.0
 14
1.4624906191
 24
6.0954894299
 34
0.0
100
AcDbRotatedDimension
  0
DIMENSION
  5
18F
330
1F
100
AcDbEntity
  8
FORMAT
100
AcDbDimension
  2
*D15
 10
2.0874906191
 20
6.9321036031
 30
0.0
 11
2.717411879
 21
6.9321036031
 31
0.0
 70
   160
  1
(<>)
 71
     2
 42
-1.0
  3
SLDDIMSTYLE0
100
AcDbAlignedDimension
 13
1.6593410128
 23
6.3021823433
 33
0.0
 14
2.0874906191
 24
6.1053319496
 34
0.0
100
AcDbRotatedDimension
  0
DIMENSION
  5
19D
330
1F
100
AcDbEntity
  8
FORMAT
100
AcDbDimension
  2
*D16
 10
1.6593410128
 20
3.5424108818
 30
0.0
 11
2.717411879
 21
3.5424108818
 31
0.0
 70
   160
  1
(<>)
 71
     2
 42
-1.0
  3
SLDDIMSTYLE0
100
AcDbAlignedDimension
 13
1.7874906191
 23
3.9618280126
 33
0.0
 14
1.6593410128
 24
3.9618280126
 34
0.0
100
AcDbRotatedDimension
  0
MTEXT
  5
1AB
330
1F
100
AcDbEntity
  8
FORMAT
100
AcDbMText
 10
0.7423516616
 20
3.3612247631
 30
0.0
 40
0.25
 41
0.0
 71
     1
 72
     1
  1
SECTION A-A
  7
SLDTEXTSTYLE0
 73
     1
 44
1.0
  0
ENDSEC
  0
SECTION
  2
OBJECTS
  0
DICTIONARY
  5
C
330
0
100
AcDbDictionary
281
     1
  3
ACAD_GROUP
350
D
  3
ACAD_LAYOUT
350
1A
  3
ACAD_MLEADERSTYLE
350
1AD
  3
ACAD_MLINESTYLE
350
17
  3
ACAD_PLOTSETTINGS
350
19
  3
ACAD_PLOTSTYLENAME
350
E
  3
ACAD_TABLESTYLE
350
1AC
  3
ACAD_VISUALSTYLE
350
2A
  0
DICTIONARY
  5
D
102
{ACAD_REACTORS
330
C
102
}
330
C
100
AcDbDictionary
281
     1
  0
DICTIONARY
  5
1A
102
{ACAD_REACTORS
330
C
102
}
330
C
100
AcDbDictionary
281
     1
  3
Layout1
350
1E
  3
Layout2
350
26
  3
Model
350
22
  0
DICTIONARY
  5
1AD
102
{ACAD_REACTORS
330
C
102
}
330
C
100
AcDbDictionary
281
     1
  0
DICTIONARY
  5
17
102
{ACAD_REACTORS
330
C
102
}
330
C
100
AcDbDictionary
281
     1
  3
Standard
350
18
  0
DICTIONARY
  5
19
102
{ACAD_REACTORS
330
C
102
}
330
C
100
AcDbDictionary
281
     1
  0
ACDBDICTIONARYWDFLT
  5
E
102
{ACAD_REACTORS
330
C
102
}
330
C
100
AcDbDictionary
281
     1
  3
Normal
350
F
100
AcDbDictionaryWithDefault
340
F
  0
DICTIONARY
  5
1AC
102
{ACAD_REACTORS
330
C
102
}
330
C
100
AcDbDictionary
281
     1
  0
DICTIONARY
  5
2A
102
{ACAD_REACTORS
330
C
102
}
330
C
100
AcDbDictionary
281
     1
  3
2dWireframe
350
2F
  3
3D Hidden
350
31
  3
3dWireframe
350
30
  3
Basic
350
32
  3
Brighten
350
36
  3
ColorChange
350
3A
  3
Conceptual
350
34
  3
Dim
350
35
  3
Facepattern
350
39
  3
Flat
350
2B
  3
FlatWithEdges
350
2C
  3
Gouraud
350
2D
  3
GouraudWithEdges
350
2E
  3
Linepattern
350
38
  3
Realistic
350
33
  3
Thicken
350
37
  0
LAYOUT
  5
1E
102
{ACAD_REACTORS
330
1A
102
}
330
1A
100
AcDbPlotSettings
  1

  2
none_device
  4

  6

 40
0.0
 41
0.0
 42
0.0
 43
0.0
 44
0.0
 45
0.0
 46
0.0
 47
0.0
 48
0.0
 49
0.0
140
0.0
141
0.0
142
1.0
143
1.0
 70
   688
 72
     0
 73
     0
 74
     5
  7

 75
    16
147
1.0
148
0.0
149
0.0
100
AcDbLayout
  1
Layout1
 70
     1
 71
     1
 10
0.0
 20
0.0
 11
12.0
 21
9.0
 12
0.0
 22
0.0
 32
0.0
 14
1.0000000000E+20
 24
1.0000000000E+20
 34
1.0000000000E+20
 15
-1.0000000000E+20
 25
-1.0000000000E+20
 35
-1.0000000000E+20
146
0.0
 13
0.0
 23
0.0
 33
0.0
 16
1.0
 26
0.0
 36
0.0
 17
0.0
 27
1.0
 37
0.0
 76
     0
330
1B
  0
LAYOUT
  5
26
102
{ACAD_REACTORS
330
1A
102
}
330
1A
100
AcDbPlotSettings
  1

  2
none_device
  4

  6

 40
0.0
 41
0.0
 42
0.0
 43
0.0
 44
0.0
 45
0.0
 46
0.0
 47
0.0
 48
0.0
 49
0.0
140
0.0
141
0.0
142
1.0
143
1.0
 70
   688
 72
     0
 73
     0
 74
     5
  7

 75
    16
147
1.0
148
0.0
149
0.0
100
AcDbLayout
  1
Layout2
 70
     1
 71
     2
 10
0.0
 20
0.0
 11
0.0
 21
0.0
 12
0.0
 22
0.0
 32
0.0
 14
0.0
 24
0.0
 34
0.0
 15
0.0
 25
0.0
 35
0.0
146
0.0
 13
0.0
 23
0.0
 33
0.0
 16
1.0
 26
0.0
 36
0.0
 17
0.0
 27
1.0
 37
0.0
 76
     0
330
23
  0
LAYOUT
  5
22
102
{ACAD_REACTORS
330
1A
102
}
330
1A
100
AcDbPlotSettings
  1

  2
none_device
  4

  6

 40
0.0
 41
0.0
 42
0.0
 43
0.0
 44
0.0
 45
0.0
 46
0.0
 47
0.0
 48
0.0
 49
0.0
140
0.0
141
0.0
142
1.0
143
1.0
 70
  1712
 72
     0
 73
     0
 74
     0
  7

 75
     0
147
1.0
148
0.0
149
0.0
100
AcDbLayout
  1
Model
 70
     1
 71
     0
 10
0.0
 20
0.0
 11
11.0
 21
8.5
 12
0.0
 22
0.0
 32
0.0
 14
0.0
 24
0.0
 34
0.0
 15
11.0
 25
8.5
 35
0.0
146
0.0
 13
0.0
 23
0.0
 33
0.0
 16
1.0
 26
0.0
 36
0.0
 17
0.0
 27
1.0
 37
0.0
 76
     0
330
1F
331
29
  0
MLINESTYLE
  5
18
102
{ACAD_REACTORS
330
17
102
}
330
17
100
AcDbMlineStyle
  2
Standard
 70
     0
  3

 62
   256
 51
90.0
 52
90.0
 71
     2
 49
0.5
 62
   256
  6
BYLAYER
 49
-0.5
 62
   256
  6
BYLAYER
  0
ACDBPLACEHOLDER
  5
F
102
{ACAD_REACTORS
330
E
102
}
330
E
  0
VISUALSTYLE
  5
2F
102
{ACAD_REACTORS
330
2A
102
}
330
2A
100
AcDbVisualStyle
  2
2dWireframe
 70
     4
 71
     0
 72
     2
 73
     0
 90
        0
 40
-0.6
 41
-30.0
 62
     5
 63
     7
 74
     1
 91
        4
 64
     7
 65
   257
 75
     1
175
     1
 42
1.0
 92
        0
 66
   257
 43
1.0
 76
     1
 77
     6
 78
     2
 67
     7
 79
     5
170
     0
171
     0
290
     0
174
     0
 93
        1
 44
0.0
173
     0
291
     0
 45
0.0
1001
ACAD
1000
AcDbSavedByObjectVersion
1070
     0
  0
VISUALSTYLE
  5
31
102
{ACAD_REACTORS
330
2A
102
}
330
2A
100
AcDbVisualStyle
  2
3D Hidden
 70
     6
 71
     1
 72
     2
 73
     2
 90
        0
 40
-0.6
 41
-30.0
 62
     5
 63
     7
 74
     2
 91
        2
 64
     7
 65
   257
 75
     2
175
     1
 42
40.0
 92
        0
 66
   257
 43
1.0
 76
     1
 77
     6
 78
     2
 67
     7
 79
     3
170
     0
171
     0
290
     0
174
     0
 93
        1
 44
0.0
173
     0
291
     0
 45
0.0
1001
ACAD
1000
AcDbSavedByObjectVersion
1070
     0
  0
VISUALSTYLE
  5
30
102
{ACAD_REACTORS
330
2A
102
}
330
2A
100
AcDbVisualStyle
  2
3dWireframe
 70
     5
 71
     0
 72
     2
 73
     0
 90
        0
 40
-0.6
 41
-30.0
 62
     5
 63
     7
 74
     1
 91
        4
 64
     7
 65
   257
 75
     1
175
     1
 42
1.0
 92
        0
 66
   257
 43
1.0
 76
     1
 77
     6
 78
     2
 67
     7
 79
     5
170
     0
171
     0
290
     0
174
     0
 93
        1
 44
0.0
173
     0
291
     0
 45
0.0
1001
ACAD
1000
AcDbSavedByObjectVersion
1070
     0
  0
VISUALSTYLE
  5
32
102
{ACAD_REACTORS
330
2A
102
}
330
2A
100
AcDbVisualStyle
  2
Basic
 70
     7
 71
     1
 72
     0
 73
     1
 90
        0
 40
-0.6
 41
-30.0
 62
     5
 63
     7
 74
     0
 91
        4
 64
     7
 65
   257
 75
     1
175
     1
 42
1.0
 92
        8
 66
     7
 43
1.0
 76
     1
 77
     6
 78
     2
 67
     7
 79
     5
170
     0
171
     0
290
     0
174
     0
 93
        1
 44
0.0
173
     0
291
     1
 45
0.0
1001
ACAD
1000
AcDbSavedByObjectVersion
1070
     0
  0
VISUALSTYLE
  5
36
102
{ACAD_REACTORS
330
2A
102
}
330
2A
100
AcDbVisualStyle
  2
Brighten
 70
    12
 71
     2
 72
     2
 73
     0
 90
        0
 40
-0.6
 41
-30.0
 62
     5
 63
     7
 74
     1
 91
        4
 64
     7
 65
   257
 75
     1
175
     1
 42
1.0
 92
        8
 66
     7
 43
1.0
 76
     1
 77
     6
 78
     2
 67
     7
 79
     5
170
     0
171
     0
290
     0
174
     0
 93
        1
 44
50.0
173
     0
291
     1
 45
0.0
1001
ACAD
1000
AcDbSavedByObjectVersion
1070
     0
  0
VISUALSTYLE
  5
3A
102
{ACAD_REACTORS
330
2A
102
}
330
2A
100
AcDbVisualStyle
  2
ColorChange
 70
    16
 71
     2
 72
     2
 73
     3
 90
        0
 40
-0.6
 41
-30.0
 62
     5
 63
     8
 74
     1
 91
        4
 64
     7
 65
   257
 75
     1
175
     1
 42
1.0
 92
        8
 66
     8
 43
1.0
 76
     1
 77
     6
 78
     2
 67
     7
 79
     5
170
     0
171
     0
290
     0
174
     0
 93
        1
 44
0.0
173
     0
291
     1
 45
0.0
1001
ACAD
1000
AcDbSavedByObjectVersion
1070
     0
  0
VISUALSTYLE
  5
34
102
{ACAD_REACTORS
330
2A
102
}
330
2A
100
AcDbVisualStyle
  2
Conceptual
 70
     9
 71
     3
 72
     2
 73
     0
 90
        0
 40
-0.6
 41
-30.0
 62
     5
 63
     7
 74
     2
 91
        2
 64
     7
 65
   257
 75
     1
175
     1
 42
40.0
 92
        8
 66
     7
 43
1.0
 76
     1
 77
     6
 78
     2
 67
     7
 79
     3
170
     0
171
     0
290
     0
174
     0
 93
        1
 44
0.0
173
     0
291
     0
 45
0.0
1001
ACAD
1000
AcDbSavedByObjectVersion
1070
     0
  0
VISUALSTYLE
  5
35
102
{ACAD_REACTORS
330
2A
102
}
330
2A
100
AcDbVisualStyle
  2
Dim
 70
    11
 71
     2
 72
     2
 73
     0
 90
        0
 40
-0.6
 41
-30.0
 62
     5
 63
     7
 74
     1
 91
        4
 64
     7
 65
   257
 75
     1
175
     1
 42
1.0
 92
        8
 66
     7
 43
1.0
 76
     1
 77
     6
 78
     2
 67
     7
 79
     5
170
     0
171
     0
290
     0
174
     0
 93
        1
 44
-50.0
173
     0
291
     1
 45
0.0
1001
ACAD
1000
AcDbSavedByObjectVersion
1070
     0
  0
VISUALSTYLE
  5
39
102
{ACAD_REACTORS
330
2A
102
}
330
2A
100
AcDbVisualStyle
  2
Facepattern
 70
    15
 71
     2
 72
     2
 73
     0
 90
        0
 40
-0.6
 41
-30.0
 62
     5
 63
     7
 74
     1
 91
        4
 64
     7
 65
   257
 75
     1
175
     1
 42
1.0
 92
        8
 66
     7
 43
1.0
 76
     1
 77
     6
 78
     2
 67
     7
 79
     5
170
     0
171
     0
290
     0
174
     0
 93
        1
 44
0.0
173
     0
291
     1
 45
0.0
1001
ACAD
1000
AcDbSavedByObjectVersion
1070
     0
  0
VISUALSTYLE
  5
2B
102
{ACAD_REACTORS
330
2A
102
}
330
2A
100
AcDbVisualStyle
  2
Flat
 70
     0
 71
     2
 72
     1
 73
     1
 90
        2
 40
-0.6
 41
30.0
 62
     5
 63
     7
 74
     0
 91
        4
 64
     7
 65
   257
 75
     1
175
     1
 42
1.0
 92
        8
 66
     7
 43
1.0
 76
     1
 77
     6
 78
     2
 67
     7
 79
     5
170
     0
171
     0
290
     0
174
     0
 93
       13
 44
0.0
173
     0
291
     1
 45
0.0
1001
ACAD
1000
AcDbSavedByObjectVersion
1070
     0
  0
VISUALSTYLE
  5
2C
102
{ACAD_REACTORS
330
2A
102
}
330
2A
100
AcDbVisualStyle
  2
FlatWithEdges
 70
     1
 71
     2
 72
     1
 73
     1
 90
        2
 40
-0.6
 41
30.0
 62
     5
 63
     7
 74
     1
 91
        4
 64
     7
 65
   257
 75
     1
175
     1
 42
1.0
 92
        0
 66
   257
 43
1.0
 76
     1
 77
     6
 78
     2
 67
     7
 79
     5
170
     0
171
     0
290
     0
174
     0
 93
       13
 44
0.0
173
     0
291
     1
 45
0.0
1001
ACAD
1000
AcDbSavedByObjectVersion
1070
     0
  0
VISUALSTYLE
  5
2D
102
{ACAD_REACTORS
330
2A
102
}
330
2A
100
AcDbVisualStyle
  2
Gouraud
 70
     2
 71
     2
 72
     2
 73
     1
 90
        2
 40
-0.6
 41
30.0
 62
     5
 63
     7
 74
     0
 91
        4
 64
     7
 65
   257
 75
     1
175
     1
 42
1.0
 92
        0
 66
     7
 43
1.0
 76
     1
 77
     6
 78
     2
 67
     7
 79
     5
170
     0
171
     0
290
     0
174
     0
 93
       13
 44
0.0
173
     0
291
     1
 45
0.0
1001
ACAD
1000
AcDbSavedByObjectVersion
1070
     0
  0
VISUALSTYLE
  5
2E
102
{ACAD_REACTORS
330
2A
102
}
330
2A
100
AcDbVisualStyle
  2
GouraudWithEdges
 70
     3
 71
     2
 72
     2
 73
     1
 90
        2
 40
-0.6
 41
30.0
 62
     5
 63
     7
 74
     1
 91
        4
 64
     7
 65
   257
 75
     1
175
     1
 42
1.0
 92
        0
 66
   257
 43
1.0
 76
     1
 77
     6
 78
     2
 67
     7
 79
     5
170
     0
171
     0
290
     0
174
     0
 93
       13
 44
0.0
173
     0
291
     1
 45
0.0
1001
ACAD
1000
AcDbSavedByObjectVersion
1070
     0
  0
VISUALSTYLE
  5
38
102
{ACAD_REACTORS
330
2A
102
}
330
2A
100
AcDbVisualStyle
  2
Linepattern
 70
    14
 71
     2
 72
     2
 73
     0
 90
        0
 40
-0.6
 41
-30.0
 62
     5
 63
     7
 74
     1
 91
        4
 64
     7
 65
   257
 75
     7
175
     7
 42
1.0
 92
        8
 66
     7
 43
1.0
 76
     1
 77
     6
 78
     2
 67
     7
 79
     5
170
     0
171
     0
290
     0
174
     0
 93
        1
 44
0.0
173
     0
291
     1
 45
0.0
1001
ACAD
1000
AcDbSavedByObjectVersion
1070
     0
  0
VISUALSTYLE
  5
33
102
{ACAD_REACTORS
330
2A
102
}
330
2A
100
AcDbVisualStyle
  2
Realistic
 70
     8
 71
     2
 72
     2
 73
     0
 90
        0
 40
-0.6
 41
-30.0
 62
     5
 63
     7
 74
     1
 91
        0
 64
     7
 65
   257
 75
     1
175
     1
 42
1.0
 92
        8
 66
     8
 43
1.0
 76
     1
 77
     6
 78
     2
 67
     7
 79
     5
170
     0
171
     0
290
     0
174
     0
 93
       13
 44
0.0
173
     0
291
     0
 45
0.0
1001
ACAD
1000
AcDbSavedByObjectVersion
1070
     0
  0
VISUALSTYLE
  5
37
102
{ACAD_REACTORS
330
2A
102
}
330
2A
100
AcDbVisualStyle
  2
Thicken
 70
    13
 71
     2
 72
     2
 73
     0
 90
        0
 40
-0.6
 41
-30.0
 62
     5
 63
     7
 74
     1
 91
        4
 64
     7
 65
   257
 75
     1
175
     1
 42
1.0
 92
       12
 66
     7
 43
1.0
 76
     1
 77
     6
 78
     2
 67
     7
 79
     5
170
     0
171
     0
290
     0
174
     0
 93
        1
 44
0.0
173
     0
291
     1
 45
0.0
1001
ACAD
1000
AcDbSavedByObjectVersion
1070
     0
  0
ENDSEC
  0
EOF
