  0
SECTION
  2
HEADER
  9
$ACADVER
  1
AC1015
  9
$ACADMAINTVER
 70
     6
  9
$DWGCODEPAGE
  3
ANSI_1252
  9
$INSBASE
 10
0.0
 20
0.0
 30
0.0
  9
$EXTMIN
 10
0.0
 20
0.0
 30
0.0
  9
$EXTMAX
 10
431.8
 20
279.4
 30
0.0
  9
$LIMMIN
 10
0.0
 20
0.0
  9
$LIMMAX
 10
431.8
 20
279.4
  9
$ORTHOMODE
 70
     0
  9
$REGENMODE
 70
     1
  9
$FILLMODE
 70
     1
  9
$QTEXTMODE
 70
     0
  9
$MIRRTEXT
 70
     1
  9
$LTSCALE
 40
1.0
  9
$ATTMODE
 70
     1
  9
$TEXTSIZE
 40
3.5
  9
$TRACEWID
 40
1.0
  9
$TEXTSTYLE
  7
Standard
  9
$CLAYER
  8
0
  9
$CELTYPE
  6
ByLayer
  9
$CECOLOR
 62
   256
  9
$CELTSCALE
 40
1.0
  9
$DISPSILH
 70
     0
  9
$DIMSCALE
 40
1.0
  9
$DIMASZ
 40
6.0
  9
$DIMEXO
 40
1.0
  9
$DIMDLI
 40
3.75
  9
$DIMRND
 40
0.0
  9
$DIMDLE
 40
0.0
  9
$DIMEXE
 40
1.0
  9
$DIMTP
 40
0.0
  9
$DIMTM
 40
0.0
  9
$DIMTXT
 40
3.5
  9
$DIMCEN
 40
2.5
  9
$DIMTSZ
 40
0.0
  9
$DIMTOL
 70
     0
  9
$DIMLIM
 70
     0
  9
$DIMTIH
 70
     1
  9
$DIMTOH
 70
     1
  9
$DIMSE1
 70
     0
  9
$DIMSE2
 70
     0
  9
$DIMTAD
 70
     1
  9
$DIMZIN
 70
     0
  9
$DIMBLK
  1

  9
$DIMASO
 70
     1
  9
$DIMSHO
 70
     1
  9
$DIMPOST
  1

  9
$DIMAPOST
  1

  9
$DIMALT
 70
     0
  9
$DIMALTD
 70
     3
  9
$DIMALTF
 40
0.0393700787
  9
$DIMLFAC
 40
2.0
  9
$DIMTOFL
 70
     1
  9
$DIMTVP
 40
0.0
  9
$DIMTIX
 70
     0
  9
$DIMSOXD
 70
     0
  9
$DIMSAH
 70
     0
  9
$DIMBLK1
  1

  9
$DIMBLK2
  1

  9
$DIMSTYLE
  2
ISO-25
  9
$DIMCLRD
 70
     0
  9
$DIMCLRE
 70
     0
  9
$DIMCLRT
 70
     0
  9
$DIMTFAC
 40
1.0
  9
$DIMGAP
 40
1.524
  9
$DIMJUST
 70
     0
  9
$DIMSD1
 70
     0
  9
$DIMSD2
 70
     0
  9
$DIMTOLJ
 70
     0
  9
$DIMTZIN
 70
     0
  9
$DIMALTZ
 70
     0
  9
$DIMALTTZ
 70
     0
  9
$DIMUPT
 70
     0
  9
$DIMDEC
 70
     2
  9
$DIMTDEC
 70
     2
  9
$DIMALTU
 70
     2
  9
$DIMALTTD
 70
     3
  9
$DIMTXSTY
  7
Standard
  9
$DIMAUNIT
 70
     0
  9
$DIMADEC
 70
     0
  9
$DIMALTRND
 40
0.0
  9
$DIMAZIN
 70
     0
  9
$DIMDSEP
 70
    44
  9
$DIMATFIT
 70
     3
  9
$DIMFRAC
 70
     0
  9
$DIMLDRBLK
  1

  9
$DIMLUNIT
 70
     2
  9
$DIMLWD
 70
    -2
  9
$DIMLWE
 70
    -2
  9
$DIMTMOVE
 70
     0
  9
$LUNITS
 70
     2
  9
$LUPREC
 70
     2
  9
$SKETCHINC
 40
1.0
  9
$FILLETRAD
 40
10.0
  9
$AUNITS
 70
     0
  9
$AUPREC
 70
     0
  9
$MENU
  1
.
  9
$ELEVATION
 40
0.0
  9
$PELEVATION
 40
0.0
  9
$THICKNESS
 40
0.0
  9
$LIMCHECK
 70
     0
  9
$CHAMFERA
 40
10.0
  9
$CHAMFERB
 40
10.0
  9
$CHAMFERC
 40
20.0
  9
$CHAMFERD
 40
0.0
  9
$SKPOLY
 70
     0
  9
$TDCREATE
 40
2455128.518528901
  9
$TDUCREATE
 40
2455128.685195567
  9
$TDUPDATE
 40
2455128.518528912
  9
$TDUUPDATE
 40
2455128.685195579
  9
$TDINDWG
 40
0.0000000116
  9
$TDUSRTIMER
 40
0.0000000116
  9
$USRTIMER
 70
     1
  9
$ANGBASE
 50
0.0
  9
$ANGDIR
 70
     0
  9
$PDMODE
 70
     0
  9
$PDSIZE
 40
-1.0
  9
$PLINEWID
 40
0.0
  9
$SPLFRAME
 70
     0
  9
$SPLINETYPE
 70
     6
  9
$SPLINESEGS
 70
     8
  9
$HANDSEED
  5
2F3
  9
$SURFTAB1
 70
     6
  9
$SURFTAB2
 70
     6
  9
$SURFTYPE
 70
     6
  9
$SURFU
 70
     6
  9
$SURFV
 70
     6
  9
$UCSBASE
  2

  9
$UCSNAME
  2

  9
$UCSORG
 10
0.0
 20
0.0
 30
0.0
  9
$UCSXDIR
 10
1.0
 20
0.0
 30
0.0
  9
$UCSYDIR
 10
0.0
 20
1.0
 30
0.0
  9
$UCSORTHOREF
  2

  9
$UCSORTHOVIEW
 70
     0
  9
$UCSORGTOP
 10
0.0
 20
0.0
 30
0.0
  9
$UCSORGBOTTOM
 10
0.0
 20
0.0
 30
0.0
  9
$UCSORGLEFT
 10
0.0
 20
0.0
 30
0.0
  9
$UCSORGRIGHT
 10
0.0
 20
0.0
 30
0.0
  9
$UCSORGFRONT
 10
0.0
 20
0.0
 30
0.0
  9
$UCSORGBACK
 10
0.0
 20
0.0
 30
0.0
  9
$PUCSBASE
  2

  9
$PUCSNAME
  2

  9
$PUCSORG
 10
0.0
 20
0.0
 30
0.0
  9
$PUCSXDIR
 10
1.0
 20
0.0
 30
0.0
  9
$PUCSYDIR
 10
0.0
 20
1.0
 30
0.0
  9
$PUCSORTHOREF
  2

  9
$PUCSORTHOVIEW
 70
     0
  9
$PUCSORGTOP
 10
0.0
 20
0.0
 30
0.0
  9
$PUCSORGBOTTOM
 10
0.0
 20
0.0
 30
0.0
  9
$PUCSORGLEFT
 10
0.0
 20
0.0
 30
0.0
  9
$PUCSORGRIGHT
 10
0.0
 20
0.0
 30
0.0
  9
$PUCSORGFRONT
 10
0.0
 20
0.0
 30
0.0
  9
$PUCSORGBACK
 10
0.0
 20
0.0
 30
0.0
  9
$USERI1
 70
     0
  9
$USERI2
 70
     0
  9
$USERI3
 70
     0
  9
$USERI4
 70
     0
  9
$USERI5
 70
     0
  9
$USERR1
 40
0.0
  9
$USERR2
 40
0.0
  9
$USERR3
 40
0.0
  9
$USERR4
 40
0.0
  9
$USERR5
 40
0.0
  9
$WORLDVIEW
 70
     1
  9
$SHADEDGE
 70
     3
  9
$SHADEDIF
 70
    70
  9
$TILEMODE
 70
     1
  9
$MAXACTVP
 70
    64
  9
$PINSBASE
 10
0.0
 20
0.0
 30
0.0
  9
$PLIMCHECK
 70
     0
  9
$PEXTMIN
 10
1.0000000000E+20
 20
1.0000000000E+20
 30
1.0000000000E+20
  9
$PEXTMAX
 10
-1.0000000000E+20
 20
-1.0000000000E+20
 30
-1.0000000000E+20
  9
$PLIMMIN
 10
0.0
 20
0.0
  9
$PLIMMAX
 10
420.0
 20
297.0
  9
$UNITMODE
 70
     0
  9
$VISRETAIN
 70
     1
  9
$PLINEGEN
 70
     0
  9
$PSLTSCALE
 70
     1
  9
$TREEDEPTH
 70
  3020
  9
$CMLSTYLE
  2
Standard
  9
$CMLJUST
 70
     0
  9
$CMLSCALE
 40
20.0
  9
$PROXYGRAPHICS
 70
     1
  9
$MEASUREMENT
 70
     1
  9
$CELWEIGHT
370
    -1
  9
$ENDCAPS
280
     0
  9
$JOINSTYLE
280
     0
  9
$LWDISPLAY
290
     1
  9
$INSUNITS
 70
     4
  9
$HYPERLINKBASE
  1

  9
$STYLESHEET
  1

  9
$XEDIT
290
     1
  9
$CEPSNTYPE
380
     0
  9
$PSTYLEMODE
290
     1
  9
$FINGERPRINTGUID
  2
{28433CFE-EE69-47BA-9967-F3CB9AC6B92B}
  9
$VERSIONGUID
  2
{FAEB1C32-E019-11D5-929B-00C0DF256EC4}
  9
$EXTNAMES
290
     1
  9
$PSVPSCALE
 40
0.0
  9
$OLESTARTUP
290
     0
  0
ENDSEC
  0
SECTION
  2
CLASSES
  0
CLASS
  1
ACDBDICTIONARYWDFLT
  2
AcDbDictionaryWithDefault
  3
ObjectDBX Classes
 90
        0
280
     0
281
     0
  0
CLASS
  1
VISUALSTYLE
  2
AcDbVisualStyle
  3
ObjectDBX Classes
 90
     4095
280
     0
281
     0
  0
CLASS
  1
SCALE
  2
AcDbScale
  3
ObjectDBX Classes
 90
     1153
280
     0
281
     0
  0
CLASS
  1
DICTIONARYVAR
  2
AcDbDictionaryVar
  3
ObjectDBX Classes
 90
        0
280
     0
281
     0
  0
CLASS
  1
ACDBPLACEHOLDER
  2
AcDbPlaceHolder
  3
ObjectDBX Classes
 90
        0
280
     0
281
     0
  0
CLASS
  1
LAYOUT
  2
AcDbLayout
  3
ObjectDBX Classes
 90
        0
280
     0
281
     0
  0
ENDSEC
  0
SECTION
  2
TABLES
  0
TABLE
  2
VPORT
  5
8
330
0
100
AcDbSymbolTable
 70
     1
  0
VPORT
  5
29
330
8
100
AcDbSymbolTableRecord
100
AcDbViewportTableRecord
  2
*Active
 70
     0
 10
0.0
 20
0.0
 11
1.0
 21
1.0
 12
215.9
 22
139.7
 13
0.0
 23
0.0
 14
10.0
 24
10.0
 15
10.0
 25
10.0
 16
0.0
 26
0.0
 36
1.0
 17
0.0
 27
0.0
 37
0.0
 40
279.4
 41
1.5454545455
 42
50.0
 43
0.0
 44
0.0
 50
0.0
 51
0.0
 71
     0
 72
  2000
 73
     1
 74
     3
 75
     0
 76
     0
 77
     0
 78
     0
281
     0
 65
     1
110
0.0
120
0.0
130
0.0
111
1.0
121
0.0
131
0.0
112
0.0
122
1.0
132
0.0
 79
     0
146
0.0
  0
ENDTAB
  0
TABLE
  2
LTYPE
  5
5
330
0
100
AcDbSymbolTable
 70
     6
  0
LTYPE
  5
14
330
5
100
AcDbSymbolTableRecord
100
AcDbLinetypeTableRecord
  2
ByBlock
 70
     0
  3

 72
    65
 73
     0
 40
0.0
  0
LTYPE
  5
15
330
5
100
AcDbSymbolTableRecord
100
AcDbLinetypeTableRecord
  2
ByLayer
 70
     0
  3

 72
    65
 73
     0
 40
0.0
  0
LTYPE
  5
16
330
5
100
AcDbSymbolTableRecord
100
AcDbLinetypeTableRecord
  2
Continuous
 70
     0
  3
Solid line
 72
    65
 73
     0
 40
0.0
  0
LTYPE
  5
5D
330
5
100
AcDbSymbolTableRecord
100
AcDbLinetypeTableRecord
  2
HIDDEN
 70
     0
  3
Hidden __ __ __ __ __ __ __ __ __ __ __ __ __ __
 72
    65
 73
     2
 40
1.905
 49
1.27
 74
     0
 49
-0.635
 74
     0
  0
LTYPE
  5
5E
330
5
100
AcDbSymbolTableRecord
100
AcDbLinetypeTableRecord
  2
PHANTOM
 70
     0
  3
Phantom ______  __  __  ______  __  __  ______
 72
    65
 73
     6
 40
12.7
 49
6.35
 74
     0
 49
-1.27
 74
     0
 49
1.27
 74
     0
 49
-1.27
 74
     0
 49
1.27
 74
     0
 49
-1.27
 74
     0
  0
LTYPE
  5
5F
330
5
100
AcDbSymbolTableRecord
100
AcDbLinetypeTableRecord
  2
CENTER
 70
     0
  3
Center ____ _ ____ _ ____ _ ____ _ ____ _ ____
 72
    65
 73
     4
 40
10.16
 49
6.35
 74
     0
 49
-1.27
 74
     0
 49
1.27
 74
     0
 49
-1.27
 74
     0
  0
LTYPE
  5
60
330
5
100
AcDbSymbolTableRecord
100
AcDbLinetypeTableRecord
  2
CENTERX2
 70
     0
  3
Center (2x) ________  __  ________  __  _____
 72
    65
 73
     4
 40
20.32
 49
12.7
 74
     0
 49
-2.54
 74
     0
 49
2.54
 74
     0
 49
-2.54
 74
     0
  0
LTYPE
  5
61
330
5
100
AcDbSymbolTableRecord
100
AcDbLinetypeTableRecord
  2
DOT2
 70
     0
  3
Dot (.5x) ........................................
 72
    65
 73
     2
 40
0.635
 49
0.0
 74
     0
 49
-0.635
 74
     0
  0
ENDTAB
  0
TABLE
  2
LAYER
  5
2
330
0
100
AcDbSymbolTable
 70
     1
  0
LAYER
  5
10
330
2
100
AcDbSymbolTableRecord
100
AcDbLayerTableRecord
  2
0
 70
     0
 62
     7
  6
Continuous
370
    -3
390
F
  0
ENDTAB
  0
TABLE
  2
STYLE
  5
3
330
0
100
AcDbSymbolTable
 70
     2
  0
STYLE
  5
11
330
3
100
AcDbSymbolTableRecord
100
AcDbTextStyleTableRecord
  2
Standard
 70
     0
 40
0.0
 41
1.0
 50
0.0
 71
     0
 42
2.5
  3
txt
  4

  0
STYLE
  5
85
330
3
100
AcDbSymbolTableRecord
100
AcDbTextStyleTableRecord
  2
SLDTEXTSTYLE0
 70
     0
 40
0.0
 41
0.75
 50
0.0
 71
     0
 42
0.2
  3
TXT
  4

  0
ENDTAB
  0
TABLE
  2
VIEW
  5
6
330
0
100
AcDbSymbolTable
 70
     0
  0
ENDTAB
  0
TABLE
  2
UCS
  5
7
330
0
100
AcDbSymbolTable
 70
     0
  0
ENDTAB
  0
TABLE
  2
APPID
  5
9
330
0
100
AcDbSymbolTable
 70
     1
  0
APPID
  5
12
330
9
100
AcDbSymbolTableRecord
100
AcDbRegAppTableRecord
  2
ACAD
 70
     0
  0
ENDTAB
  0
TABLE
  2
DIMSTYLE
  5
A
330
0
100
AcDbSymbolTable
 70
     9
100
AcDbDimStyleTable
  0
DIMSTYLE
105
27
330
A
100
AcDbSymbolTableRecord
100
AcDbDimStyleTableRecord
  2
ISO-25
 70
     0
 41
2.5
 42
0.625
 43
3.75
 44
1.25
 73
     0
 74
     0
 77
     1
 78
     8
140
2.5
141
2.5
143
0.0393700787
147
0.625
171
     3
172
     1
271
     2
272
     2
274
     3
278
    44
283
     0
284
     8
340
11
  0
DIMSTYLE
105
86
102
{ACAD_REACTORS
330
84
330
A0
330
B3
330
C6
330
100
330
111
330
133
330
144
330
1FB
330
20C
330
27F
102
}
330
A
100
AcDbSymbolTableRecord
100
AcDbDimStyleTableRecord
  2
SLDDIMSTYLE0
 70
     0
 41
6.0
 44
0.0
 45
0.000000001
 73
     0
 77
     1
 78
    12
140
3.5
143
0.0393700787
147
0.875
148
0.000000001
170
     1
173
     1
271
     2
272
     2
284
    12
340
85
341
87
343
87
344
87
  0
DIMSTYLE
105
123
102
{ACAD_REACTORS
330
122
102
}
330
A
100
AcDbSymbolTableRecord
100
AcDbDimStyleTableRecord
  2
SLDDIMSTYLE1
 70
     0
 41
6.0
 44
0.0
 45
0.000000001
 73
     0
 77
     1
 78
    12
140
3.5
143
0.0393700787
147
0.875
148
0.000000001
170
     1
173
     1
271
     2
272
     2
284
    12
340
85
341
87
343
87
344
87
  0
DIMSTYLE
105
158
102
{ACAD_REACTORS
330
157
330
1DA
330
1EB
330
21E
330
26E
330
2B3
330
2C4
102
}
330
A
100
AcDbSymbolTableRecord
100
AcDbDimStyleTableRecord
  2
SLDDIMSTYLE2
 70
     0
 41
6.0
 44
0.0
 45
0.000000001
 73
     0
 77
     1
 78
    12
140
3.5
143
0.0393700787
147
0.875
148
0.000000001
170
     1
173
     1
271
     2
272
     2
284
    12
340
85
341
87
343
87
344
87
  0
DIMSTYLE
105
1A8
102
{ACAD_REACTORS
330
1A7
102
}
330
A
100
AcDbSymbolTableRecord
100
AcDbDimStyleTableRecord
  2
SLDDIMSTYLE3
 70
     0
 41
6.0
 44
0.0
 45
0.000000001
 73
     0
 77
     1
 78
    12
140
3.5
143
0.0393700787
147
0.875
148
0.000000001
170
     1
173
     1
271
     2
272
     2
284
    12
340
85
341
87
343
87
344
87
  0
DIMSTYLE
105
1B9
102
{ACAD_REACTORS
330
1B8
102
}
330
A
100
AcDbSymbolTableRecord
100
AcDbDimStyleTableRecord
  2
SLDDIMSTYLE4
 70
     0
 41
6.0
 44
0.0
 45
0.000000001
 73
     0
 77
     1
 78
     4
140
3.5
143
0.0393700787
147
0.875
148
0.000000001
170
     1
172
     1
173
     1
271
     2
272
     2
284
    12
340
85
341
87
343
87
344
87
  0
DIMSTYLE
105
1CA
102
{ACAD_REACTORS
330
1C9
330
291
102
}
330
A
100
AcDbSymbolTableRecord
100
AcDbDimStyleTableRecord
  2
SLDDIMSTYLE5
 70
     0
 41
6.0
 44
0.0
 45
0.000000001
 73
     0
 77
     1
 78
    12
140
3.5
143
0.0393700787
147
0.875
148
0.000000001
170
     1
172
     1
173
     1
271
     2
272
     2
284
    12
340
85
341
87
343
87
344
87
  0
DIMSTYLE
105
25E
102
{ACAD_REACTORS
330
25D
102
}
330
A
100
AcDbSymbolTableRecord
100
AcDbDimStyleTableRecord
  2
SLDDIMSTYLE6
 70
     0
 41
6.0
 44
0.0
 45
0.000000001
 73
     0
 77
     1
 78
    12
140
3.5
143
0.0393700787
147
0.875
148
0.000000001
170
     1
173
     1
271
     2
272
     2
279
     1
284
    12
340
85
341
87
343
87
344
87
  0
DIMSTYLE
105
2A2
102
{ACAD_REACTORS
330
2A1
102
}
330
A
100
AcDbSymbolTableRecord
100
AcDbDimStyleTableRecord
  2
SLDDIMSTYLE7
 70
     0
 41
6.0
 44
0.0
 45
0.000000001
 73
     0
 77
     1
 78
     4
140
3.5
143
0.0393700787
147
0.875
148
0.000000001
170
     1
173
     1
271
     2
272
     2
284
    12
340
85
341
87
343
87
344
87
  0
ENDTAB
  0
TABLE
  2
BLOCK_RECORD
  5
1
330
0
100
AcDbSymbolTable
 70
    33
  0
BLOCK_RECORD
  5
1F
330
1
100
AcDbSymbolTableRecord
100
AcDbBlockTableRecord
  2
*Model_Space
340
22
  0
BLOCK_RECORD
  5
1B
330
1
100
AcDbSymbolTableRecord
100
AcDbBlockTableRecord
  2
*Paper_Space
340
1E
  0
BLOCK_RECORD
  5
23
330
1
100
AcDbSymbolTableRecord
100
AcDbBlockTableRecord
  2
*Paper_Space0
340
26
  0
BLOCK_RECORD
  5
87
330
1
100
AcDbSymbolTableRecord
100
AcDbBlockTableRecord
  2
_CLOSED
340
0
102
{BLKREFS
331
91
331
92
331
A4
331
A5
331
B7
331
B8
331
CA
331
CB
331
104
331
105
331
115
331
116
331
127
331
137
331
138
331
148
331
149
331
15C
331
15D
331
1AC
331
1BD
331
1CE
331
1DE
331
1DF
331
1EF
331
1F0
331
1FF
331
200
331
210
331
211
331
222
331
223
331
262
331
272
331
273
331
283
331
284
331
295
331
2A6
331
2A7
331
2B7
331
2B8
331
2C8
331
2C9
102
}
  0
BLOCK_RECORD
  5
8E
330
1
100
AcDbSymbolTableRecord
100
AcDbBlockTableRecord
  2
*D2
340
0
  0
BLOCK_RECORD
  5
A1
330
1
100
AcDbSymbolTableRecord
100
AcDbBlockTableRecord
  2
*D3
340
0
  0
BLOCK_RECORD
  5
B4
330
1
100
AcDbSymbolTableRecord
100
AcDbBlockTableRecord
  2
*D4
340
0
  0
BLOCK_RECORD
  5
C7
330
1
100
AcDbSymbolTableRecord
100
AcDbBlockTableRecord
  2
*D5
340
0
  0
BLOCK_RECORD
  5
101
330
1
100
AcDbSymbolTableRecord
100
AcDbBlockTableRecord
  2
*D6
340
0
  0
BLOCK_RECORD
  5
112
330
1
100
AcDbSymbolTableRecord
100
AcDbBlockTableRecord
  2
*D7
340
0
  0
BLOCK_RECORD
  5
124
330
1
100
AcDbSymbolTableRecord
100
AcDbBlockTableRecord
  2
*D8
340
0
  0
BLOCK_RECORD
  5
134
330
1
100
AcDbSymbolTableRecord
100
AcDbBlockTableRecord
  2
*D9
340
0
  0
BLOCK_RECORD
  5
145
330
1
100
AcDbSymbolTableRecord
100
AcDbBlockTableRecord
  2
*D10
340
0
  0
BLOCK_RECORD
  5
159
330
1
100
AcDbSymbolTableRecord
100
AcDbBlockTableRecord
  2
*D11
340
0
  0
BLOCK_RECORD
  5
16B
330
1
100
AcDbSymbolTableRecord
100
AcDbBlockTableRecord
  2
SW_CENTERMARKSYMBOL_0
340
0
102
{BLKREFS
331
176
102
}
  0
BLOCK_RECORD
  5
177
330
1
100
AcDbSymbolTableRecord
100
AcDbBlockTableRecord
  2
SW_CENTERMARKSYMBOL_1
340
0
102
{BLKREFS
331
182
102
}
  0
BLOCK_RECORD
  5
1A9
330
1
100
AcDbSymbolTableRecord
100
AcDbBlockTableRecord
  2
*D14
340
0
  0
BLOCK_RECORD
  5
1BA
330
1
100
AcDbSymbolTableRecord
100
AcDbBlockTableRecord
  2
*D15
340
0
  0
BLOCK_RECORD
  5
1CB
330
1
100
AcDbSymbolTableRecord
100
AcDbBlockTableRecord
  2
*D16
340
0
  0
BLOCK_RECORD
  5
1DB
330
1
100
AcDbSymbolTableRecord
100
AcDbBlockTableRecord
  2
*D17
340
0
  0
BLOCK_RECORD
  5
1EC
330
1
100
AcDbSymbolTableRecord
100
AcDbBlockTableRecord
  2
*D18
340
0
  0
BLOCK_RECORD
  5
1FC
330
1
100
AcDbSymbolTableRecord
100
AcDbBlockTableRecord
  2
*D19
340
0
  0
BLOCK_RECORD
  5
20D
330
1
100
AcDbSymbolTableRecord
100
AcDbBlockTableRecord
  2
*D20
340
0
  0
BLOCK_RECORD
  5
21F
330
1
100
AcDbSymbolTableRecord
100
AcDbBlockTableRecord
  2
*D21
340
0
  0
BLOCK_RECORD
  5
231
330
1
100
AcDbSymbolTableRecord
100
AcDbBlockTableRecord
  2
SW_CENTERMARKSYMBOL_2
340
0
102
{BLKREFS
331
23C
102
}
  0
BLOCK_RECORD
  5
23D
330
1
100
AcDbSymbolTableRecord
100
AcDbBlockTableRecord
  2
SW_CENTERMARKSYMBOL_3
340
0
102
{BLKREFS
331
248
102
}
  0
BLOCK_RECORD
  5
25F
330
1
100
AcDbSymbolTableRecord
100
AcDbBlockTableRecord
  2
*D24
340
0
  0
BLOCK_RECORD
  5
26F
330
1
100
AcDbSymbolTableRecord
100
AcDbBlockTableRecord
  2
*D25
340
0
  0
BLOCK_RECORD
  5
280
330
1
100
AcDbSymbolTableRecord
100
AcDbBlockTableRecord
  2
*D26
340
0
  0
BLOCK_RECORD
  5
292
330
1
100
AcDbSymbolTableRecord
100
AcDbBlockTableRecord
  2
*D27
340
0
  0
BLOCK_RECORD
  5
2A3
330
1
100
AcDbSymbolTableRecord
100
AcDbBlockTableRecord
  2
*D28
340
0
  0
BLOCK_RECORD
  5
2B4
330
1
100
AcDbSymbolTableRecord
100
AcDbBlockTableRecord
  2
*D29
340
0
  0
BLOCK_RECORD
  5
2C5
330
1
100
AcDbSymbolTableRecord
100
AcDbBlockTableRecord
  2
*D30
340
0
  0
BLOCK_RECORD
  5
2D5
330
1
100
AcDbSymbolTableRecord
100
AcDbBlockTableRecord
  2
SW_CENTERMARKSYMBOL_4
340
0
102
{BLKREFS
331
2E0
102
}
  0
BLOCK_RECORD
  5
2E1
330
1
100
AcDbSymbolTableRecord
100
AcDbBlockTableRecord
  2
SW_CENTERMARKSYMBOL_5
340
0
102
{BLKREFS
331
2EC
102
}
  0
ENDTAB
  0
ENDSEC
  0
SECTION
  2
BLOCKS
  0
BLOCK
  5
20
330
1F
100
AcDbEntity
  8
0
100
AcDbBlockBegin
  2
*Model_Space
 70
     0
 10
0.0
 20
0.0
 30
0.0
  3
*Model_Space
  1

  0
ENDBLK
  5
21
330
1F
100
AcDbEntity
  8
0
100
AcDbBlockEnd
  0
BLOCK
  5
1C
330
1B
100
AcDbEntity
 67
     1
  8
0
100
AcDbBlockBegin
  2
*Paper_Space
 70
     0
 10
0.0
 20
0.0
 30
0.0
  3
*Paper_Space
  1

  0
ENDBLK
  5
1D
330
1B
100
AcDbEntity
 67
     1
  8
0
100
AcDbBlockEnd
  0
BLOCK
  5
24
330
23
100
AcDbEntity
  8
0
100
AcDbBlockBegin
  2
*Paper_Space0
 70
     0
 10
0.0
 20
0.0
 30
0.0
  3
*Paper_Space0
  1

  0
ENDBLK
  5
25
330
23
100
AcDbEntity
  8
0
100
AcDbBlockEnd
  0
BLOCK
  5
88
330
87
100
AcDbEntity
  8
0
100
AcDbBlockBegin
  2
_CLOSED
 70
     0
 10
0.0
 20
0.0
 30
0.0
  3
_CLOSED
  1

  0
LINE
  5
8A
330
87
100
AcDbEntity
  8
0
  6
ByBlock
 62
     0
370
    -2
100
AcDbLine
 10
-1.0
 20
0.166667
 30
0.0
 11
0.0
 21
0.0
 31
0.0
  0
LINE
  5
8B
330
87
100
AcDbEntity
  8
0
  6
ByBlock
 62
     0
370
    -2
100
AcDbLine
 10
0.0
 20
0.0
 30
0.0
 11
-1.0
 21
-0.166667
 31
0.0
  0
LINE
  5
8C
330
87
100
AcDbEntity
  8
0
  6
ByBlock
 62
     0
370
    -2
100
AcDbLine
 10
-1.0
 20
0.166667
 30
0.0
 11
-1.0
 21
-0.166667
 31
0.0
  0
LINE
  5
8D
330
87
100
AcDbEntity
  8
0
  6
ByBlock
 62
     0
370
    -2
100
AcDbLine
 10
0.0
 20
0.0
 30
0.0
 11
-1.0
 21
0.0
 31
0.0
  0
ENDBLK
  5
89
330
87
100
AcDbEntity
  8
0
100
AcDbBlockEnd
  0
BLOCK
  5
8F
330
8E
100
AcDbEntity
  8
0
100
AcDbBlockBegin
  2
*D2
 70
     1
 10
0.0
 20
0.0
 30
0.0
  3
*D2
  1

  0
INSERT
  5
91
330
8E
100
AcDbEntity
  8
0
  6
Continuous
 62
     7
370
     0
100
AcDbBlockReference
  2
_CLOSED
 10
395.8267590157
 20
143.6914236132
 30
58.2556184402
 41
6.0
 42
6.0
 50
180.0
  0
INSERT
  5
92
330
8E
100
AcDbEntity
  8
0
  6
Continuous
 62
     7
370
     0
100
AcDbBlockReference
  2
_CLOSED
 10
390.2642590157
 20
143.6914236132
 30
58.2556184402
 41
6.0
 42
6.0
 50
360.0
  0
LINE
  5
93
330
8E
100
AcDbEntity
  8
0
  6
Continuous
 62
     7
370
     0
100
AcDbLine
 10
393.6891069005
 20
148.8245008105
 30
0.0
 11
393.6891069005
 21
144.1076190616
 31
0.0
  0
LINE
  5
94
330
8E
100
AcDbEntity
  8
0
  6
Continuous
 62
     7
370
     0
100
AcDbLine
 10
393.6891069005
 20
144.1076190616
 30
0.0
 11
394.3988975878
 21
144.1076190616
 31
0.0
  0
LINE
  5
95
330
8E
100
AcDbEntity
  8
0
  6
Continuous
 62
     7
370
     0
100
AcDbLine
 10
393.6891069005
 20
148.8245008105
 30
0.0
 11
394.3988975878
 21
148.8245008105
 31
0.0
  0
LINE
  5
96
330
8E
100
AcDbEntity
  8
0
  6
Continuous
 62
     7
370
     0
100
AcDbLine
 10
405.5771519939
 20
148.8245008105
 30
0.0
 11
405.5771519939
 21
144.1076190616
 31
0.0
  0
LINE
  5
97
330
8E
100
AcDbEntity
  8
0
  6
Continuous
 62
     7
370
     0
100
AcDbLine
 10
405.5771519939
 20
144.1076190616
 30
0.0
 11
404.8673613067
 21
144.1076190616
 31
0.0
  0
LINE
  5
98
330
8E
100
AcDbEntity
  8
0
  6
Continuous
 62
     7
370
     0
100
AcDbLine
 10
405.5771519939
 20
148.8245008105
 30
0.0
 11
404.8673613067
 21
148.8245008105
 31
0.0
  0
LINE
  5
99
330
8E
100
AcDbEntity
  8
0
  6
Continuous
 62
     7
370
     0
100
AcDbLine
 10
395.8267590157
 20
133.0598542066
 30
0.0
 11
395.8267590157
 21
144.6914236132
 31
0.0
  0
LINE
  5
9A
330
8E
100
AcDbEntity
  8
0
  6
Continuous
 62
     7
370
     0
100
AcDbLine
 10
390.2642590157
 20
127.4298542066
 30
0.0
 11
390.2642590157
 21
144.6914236132
 31
0.0
  0
LINE
  5
9B
330
8E
100
AcDbEntity
  8
0
  6
Continuous
 62
     7
370
     0
100
AcDbLine
 10
395.8267590157
 20
143.6914236132
 30
0.0
 11
407.8267590157
 21
143.6914236132
 31
0.0
  0
LINE
  5
9C
330
8E
100
AcDbEntity
  8
0
  6
Continuous
 62
     7
370
     0
100
AcDbLine
 10
395.8267590157
 20
143.6914236132
 30
0.0
 11
390.2642590157
 21
143.6914236132
 31
0.0
  0
LINE
  5
9D
330
8E
100
AcDbEntity
  8
0
  6
Continuous
 62
     7
370
     0
100
AcDbLine
 10
390.2642590157
 20
143.6914236132
 30
0.0
 11
378.2642590157
 21
143.6914236132
 31
0.0
  0
MTEXT
  5
9E
330
8E
100
AcDbEntity
  8
0
  6
Continuous
 62
     7
370
     0
100
AcDbMText
 10
383.2206431817
 20
148.2031605278
 30
0.0
 40
3.5
 41
0.0
 71
     1
 72
     1
  1
5.56
  7
SLDTEXTSTYLE0
 73
     1
 44
1.0
  0
MTEXT
  5
9F
330
8E
100
AcDbEntity
  8
0
  6
Continuous
 62
     7
370
     0
100
AcDbMText
 10
395.108688275
 20
148.2031605278
 30
0.0
 40
3.5
 41
0.0
 71
     1
 72
     1
  1
0.22
  7
SLDTEXTSTYLE0
 73
     1
 44
1.0
  0
ENDBLK
  5
90
330
8E
100
AcDbEntity
  8
0
100
AcDbBlockEnd
  0
BLOCK
  5
A2
330
A1
100
AcDbEntity
  8
0
100
AcDbBlockBegin
  2
*D3
 70
     1
 10
0.0
 20
0.0
 30
0.0
  3
*D3
  1

  0
INSERT
  5
A4
330
A1
100
AcDbEntity
  8
0
  6
Continuous
 62
     7
370
     0
100
AcDbBlockReference
  2
_CLOSED
 10
397.8267590157
 20
99.9385187092
 30
58.2556184402
 41
6.0
 42
6.0
 50
0.0
  0
INSERT
  5
A5
330
A1
100
AcDbEntity
  8
0
  6
Continuous
 62
     7
370
     0
100
AcDbBlockReference
  2
_CLOSED
 10
401.0017590157
 20
99.9385187092
 30
58.2556184402
 41
6.0
 42
6.0
 50
180.0
  0
LINE
  5
A6
330
A1
100
AcDbEntity
  8
0
  6
Continuous
 62
     7
370
     0
100
AcDbLine
 10
387.9804951331
 20
105.0715959065
 30
0.0
 11
387.9804951331
 21
100.3547141576
 31
0.0
  0
LINE
  5
A7
330
A1
100
AcDbEntity
  8
0
  6
Continuous
 62
     7
370
     0
100
AcDbLine
 10
387.9804951331
 20
100.3547141576
 30
0.0
 11
388.6902858203
 21
100.3547141576
 31
0.0
  0
LINE
  5
A8
330
A1
100
AcDbEntity
  8
0
  6
Continuous
 62
     7
370
     0
100
AcDbLine
 10
387.9804951331
 20
105.0715959065
 30
0.0
 11
388.6902858203
 21
105.0715959065
 31
0.0
  0
LINE
  5
A9
330
A1
100
AcDbEntity
  8
0
  6
Continuous
 62
     7
370
     0
100
AcDbLine
 10
399.8685402264
 20
105.0715959065
 30
0.0
 11
399.8685402264
 21
100.3547141576
 31
0.0
  0
LINE
  5
AA
330
A1
100
AcDbEntity
  8
0
  6
Continuous
 62
     7
370
     0
100
AcDbLine
 10
399.8685402264
 20
100.3547141576
 30
0.0
 11
399.1587495392
 21
100.3547141576
 31
0.0
  0
LINE
  5
AB
330
A1
100
AcDbEntity
  8
0
  6
Continuous
 62
     7
370
     0
100
AcDbLine
 10
399.8685402264
 20
105.0715959065
 30
0.0
 11
399.1587495392
 21
105.0715959065
 31
0.0
  0
LINE
  5
AC
330
A1
100
AcDbEntity
  8
0
  6
Continuous
 62
     7
370
     0
100
AcDbLine
 10
397.8267590157
 20
113.0598542066
 30
0.0
 11
397.8267590157
 21
98.9385187092
 31
0.0
  0
LINE
  5
AD
330
A1
100
AcDbEntity
  8
0
  6
Continuous
 62
     7
370
     0
100
AcDbLine
 10
401.0017590157
 20
113.0598542066
 30
0.0
 11
401.0017590157
 21
98.9385187092
 31
0.0
  0
LINE
  5
AE
330
A1
100
AcDbEntity
  8
0
  6
Continuous
 62
     7
370
     0
100
AcDbLine
 10
397.8267590157
 20
99.9385187092
 30
0.0
 11
375.9245314142
 21
99.9385187092
 31
0.0
  0
LINE
  5
AF
330
A1
100
AcDbEntity
  8
0
  6
Continuous
 62
     7
370
     0
100
AcDbLine
 10
397.8267590157
 20
99.9385187092
 30
0.0
 11
401.0017590157
 21
99.9385187092
 31
0.0
  0
LINE
  5
B0
330
A1
100
AcDbEntity
  8
0
  6
Continuous
 62
     7
370
     0
100
AcDbLine
 10
401.0017590157
 20
99.9385187092
 30
0.0
 11
413.0017590157
 21
99.9385187092
 31
0.0
  0
MTEXT
  5
B1
330
A1
100
AcDbEntity
  8
0
  6
Continuous
 62
     7
370
     0
100
AcDbMText
 10
377.5120314142
 20
104.4502556238
 30
0.0
 40
3.5
 41
0.0
 71
     1
 72
     1
  1
3.18
  7
SLDTEXTSTYLE0
 73
     1
 44
1.0
  0
MTEXT
  5
B2
330
A1
100
AcDbEntity
  8
0
  6
Continuous
 62
     7
370
     0
100
AcDbMText
 10
389.4000765076
 20
104.4502556238
 30
0.0
 40
3.5
 41
0.0
 71
     1
 72
     1
  1
0.13
  7
SLDTEXTSTYLE0
 73
     1
 44
1.0
  0
ENDBLK
  5
A3
330
A1
100
AcDbEntity
  8
0
100
AcDbBlockEnd
  0
BLOCK
  5
B5
330
B4
100
AcDbEntity
  8
0
100
AcDbBlockBegin
  2
*D4
 70
     1
 10
0.0
 20
0.0
 30
0.0
  3
*D4
  1

  0
INSERT
  5
B7
330
B4
100
AcDbEntity
  8
0
  6
Continuous
 62
     7
370
     0
100
AcDbBlockReference
  2
_CLOSED
 10
397.8267590157
 20
109.5594409358
 30
58.2556184402
 41
6.0
 42
6.0
 50
180.0
  0
INSERT
  5
B8
330
B4
100
AcDbEntity
  8
0
  6
Continuous
 62
     7
370
     0
100
AcDbBlockReference
  2
_CLOSED
 10
385.8267590157
 20
109.5594409358
 30
58.2556184402
 41
6.0
 42
6.0
 50
0.0
  0
LINE
  5
B9
330
B4
100
AcDbEntity
  8
0
  6
Continuous
 62
     7
370
     0
100
AcDbLine
 10
338.8775891857
 20
114.6925181331
 30
0.0
 11
338.8775891857
 21
109.9756363842
 31
0.0
  0
LINE
  5
BA
330
B4
100
AcDbEntity
  8
0
  6
Continuous
 62
     7
370
     0
100
AcDbLine
 10
338.8775891857
 20
109.9756363842
 30
0.0
 11
339.5873798729
 21
109.9756363842
 31
0.0
  0
LINE
  5
BB
330
B4
100
AcDbEntity
  8
0
  6
Continuous
 62
     7
370
     0
100
AcDbLine
 10
338.8775891857
 20
114.6925181331
 30
0.0
 11
339.5873798729
 21
114.6925181331
 31
0.0
  0
LINE
  5
BC
330
B4
100
AcDbEntity
  8
0
  6
Continuous
 62
     7
370
     0
100
AcDbLine
 10
350.765634279
 20
114.6925181331
 30
0.0
 11
350.765634279
 21
109.9756363842
 31
0.0
  0
LINE
  5
BD
330
B4
100
AcDbEntity
  8
0
  6
Continuous
 62
     7
370
     0
100
AcDbLine
 10
350.765634279
 20
109.9756363842
 30
0.0
 11
350.0558435918
 21
109.9756363842
 31
0.0
  0
LINE
  5
BE
330
B4
100
AcDbEntity
  8
0
  6
Continuous
 62
     7
370
     0
100
AcDbLine
 10
350.765634279
 20
114.6925181331
 30
0.0
 11
350.0558435918
 21
114.6925181331
 31
0.0
  0
LINE
  5
BF
330
B4
100
AcDbEntity
  8
0
  6
Continuous
 62
     7
370
     0
100
AcDbLine
 10
397.8267590157
 20
113.0598542066
 30
0.0
 11
397.8267590157
 21
108.5594409358
 31
0.0
  0
LINE
  5
C0
330
B4
100
AcDbEntity
  8
0
  6
Continuous
 62
     7
370
     0
100
AcDbLine
 10
385.8267590157
 20
113.0598542066
 30
0.0
 11
385.8267590157
 21
108.5594409358
 31
0.0
  0
LINE
  5
C1
330
B4
100
AcDbEntity
  8
0
  6
Continuous
 62
     7
370
     0
100
AcDbLine
 10
397.8267590157
 20
109.5594409358
 30
0.0
 11
409.8267590157
 21
109.5594409358
 31
0.0
  0
LINE
  5
C2
330
B4
100
AcDbEntity
  8
0
  6
Continuous
 62
     7
370
     0
100
AcDbLine
 10
397.8267590157
 20
109.5594409358
 30
0.0
 11
385.8267590157
 21
109.5594409358
 31
0.0
  0
LINE
  5
C3
330
B4
100
AcDbEntity
  8
0
  6
Continuous
 62
     7
370
     0
100
AcDbLine
 10
385.8267590157
 20
109.5594409358
 30
0.0
 11
330.7008023778
 21
109.5594409358
 31
0.0
  0
MTEXT
  5
C4
330
B4
100
AcDbEntity
  8
0
  6
Continuous
 62
     7
370
     0
100
AcDbMText
 10
332.2883023778
 20
114.0711778504
 30
0.0
 40
3.5
 41
0.0
 71
     1
 72
     1
  1
12
  7
SLDTEXTSTYLE0
 73
     1
 44
1.0
  0
MTEXT
  5
C5
330
B4
100
AcDbEntity
  8
0
  6
Continuous
 62
     7
370
     0
100
AcDbMText
 10
340.2971705601
 20
114.0711778504
 30
0.0
 40
3.5
 41
0.0
 71
     1
 72
     1
  1
0.47
  7
SLDTEXTSTYLE0
 73
     1
 44
1.0
  0
ENDBLK
  5
B6
330
B4
100
AcDbEntity
  8
0
100
AcDbBlockEnd
  0
BLOCK
  5
C8
330
C7
100
AcDbEntity
  8
0
100
AcDbBlockBegin
  2
*D5
 70
     1
 10
0.0
 20
0.0
 30
0.0
  3
*D5
  1

  0
INSERT
  5
CA
330
C7
100
AcDbEntity
  8
0
  6
Continuous
 62
     7
370
     0
100
AcDbBlockReference
  2
_CLOSED
 10
423.0886353043
 20
114.0598542066
 30
58.2556184402
 41
6.0
 42
6.0
 50
90.0
  0
INSERT
  5
CB
330
C7
100
AcDbEntity
  8
0
  6
Continuous
 62
     7
370
     0
100
AcDbBlockReference
  2
_CLOSED
 10
423.0886353043
 20
124.0598542066
 30
58.2556184402
 41
6.0
 42
6.0
 50
270.0
  0
LINE
  5
CC
330
C7
100
AcDbEntity
  8
0
  6
Continuous
 62
     7
370
     0
100
AcDbLine
 10
417.955558107
 20
82.7006843766
 30
0.0
 11
422.6724398559
 21
82.7006843766
 31
0.0
  0
LINE
  5
CD
330
C7
100
AcDbEntity
  8
0
  6
Continuous
 62
     7
370
     0
100
AcDbLine
 10
422.6724398559
 20
82.7006843766
 30
0.0
 11
422.6724398559
 21
83.4104750639
 31
0.0
  0
LINE
  5
CE
330
C7
100
AcDbEntity
  8
0
  6
Continuous
 62
     7
370
     0
100
AcDbLine
 10
417.955558107
 20
82.7006843766
 30
0.0
 11
417.955558107
 21
83.4104750639
 31
0.0
  0
LINE
  5
CF
330
C7
100
AcDbEntity
  8
0
  6
Continuous
 62
     7
370
     0
100
AcDbLine
 10
417.955558107
 20
94.58872947
 30
0.0
 11
422.6724398559
 21
94.58872947
 31
0.0
  0
LINE
  5
D0
330
C7
100
AcDbEntity
  8
0
  6
Continuous
 62
     7
370
     0
100
AcDbLine
 10
422.6724398559
 20
94.58872947
 30
0.0
 11
422.6724398559
 21
93.8789387827
 31
0.0
  0
LINE
  5
D1
330
C7
100
AcDbEntity
  8
0
  6
Continuous
 62
     7
370
     0
100
AcDbLine
 10
417.955558107
 20
94.58872947
 30
0.0
 11
417.955558107
 21
93.8789387827
 31
0.0
  0
LINE
  5
D2
330
C7
100
AcDbEntity
  8
0
  6
Continuous
 62
     7
370
     0
100
AcDbLine
 10
420.4167590157
 20
114.0598542066
 30
0.0
 11
424.0886353043
 21
114.0598542066
 31
0.0
  0
LINE
  5
D3
330
C7
100
AcDbEntity
  8
0
  6
Continuous
 62
     7
370
     0
100
AcDbLine
 10
417.8767590157
 20
124.0598542066
 30
0.0
 11
424.0886353043
 21
124.0598542066
 31
0.0
  0
LINE
  5
D4
330
C7
100
AcDbEntity
  8
0
  6
Continuous
 62
     7
370
     0
100
AcDbLine
 10
423.0886353043
 20
114.0598542066
 30
0.0
 11
423.0886353043
 21
74.5238975688
 31
0.0
  0
LINE
  5
D5
330
C7
100
AcDbEntity
  8
0
  6
Continuous
 62
     7
370
     0
100
AcDbLine
 10
423.0886353043
 20
114.0598542066
 30
0.0
 11
423.0886353043
 21
124.0598542066
 31
0.0
  0
LINE
  5
D6
330
C7
100
AcDbEntity
  8
0
  6
Continuous
 62
     7
370
     0
100
AcDbLine
 10
423.0886353043
 20
124.0598542066
 30
0.0
 11
423.0886353043
 21
136.0598542066
 31
0.0
  0
MTEXT
  5
D7
330
C7
100
AcDbEntity
  8
0
  6
Continuous
 62
     7
370
     0
100
AcDbMText
 10
418.5768983897
 20
76.1113975688
 30
0.0
 40
3.5
 41
0.0
 71
     1
 72
     1
  1
10
  7
SLDTEXTSTYLE0
 11
6.123233995736766E-17
 21
1.0
 31
0.0
 73
     1
 44
1.0
  0
MTEXT
  5
D8
330
C7
100
AcDbEntity
  8
0
  6
Continuous
 62
     7
370
     0
100
AcDbMText
 10
418.5768983897
 20
84.1202657511
 30
0.0
 40
3.5
 41
0.0
 71
     1
 72
     1
  1
0.39
  7
SLDTEXTSTYLE0
 11
6.123233995736766E-17
 21
1.0
 31
0.0
 73
     1
 44
1.0
  0
ENDBLK
  5
C9
330
C7
100
AcDbEntity
  8
0
100
AcDbBlockEnd
  0
BLOCK
  5
102
330
101
100
AcDbEntity
  8
0
100
AcDbBlockBegin
  2
*D6
 70
     1
 10
0.0
 20
0.0
 30
0.0
  3
*D6
  1

  0
INSERT
  5
104
330
101
100
AcDbEntity
  8
0
  6
Continuous
 62
     7
370
     0
100
AcDbBlockReference
  2
_CLOSED
 10
184.8754317466
 20
145.6616633348
 30
-8.9
 41
6.0
 42
6.0
 50
90.0
  0
INSERT
  5
105
330
101
100
AcDbEntity
  8
0
  6
Continuous
 62
     7
370
     0
100
AcDbBlockReference
  2
_CLOSED
 10
184.8754317466
 20
157.6616633348
 30
-8.9
 41
6.0
 42
6.0
 50
270.0
  0
LINE
  5
106
330
101
100
AcDbEntity
  8
0
  6
Continuous
 62
     7
370
     0
100
AcDbLine
 10
179.7423545492
 20
175.7011552956
 30
0.0
 11
184.4592362981
 21
175.7011552956
 31
0.0
  0
LINE
  5
107
330
101
100
AcDbEntity
  8
0
  6
Continuous
 62
     7
370
     0
100
AcDbLine
 10
184.4592362981
 20
175.7011552956
 30
0.0
 11
184.4592362981
 21
176.4109459829
 31
0.0
  0
LINE
  5
108
330
101
100
AcDbEntity
  8
0
  6
Continuous
 62
     7
370
     0
100
AcDbLine
 10
179.7423545492
 20
175.7011552956
 30
0.0
 11
179.7423545492
 21
176.4109459829
 31
0.0
  0
LINE
  5
109
330
101
100
AcDbEntity
  8
0
  6
Continuous
 62
     7
370
     0
100
AcDbLine
 10
179.7423545492
 20
187.589200389
 30
0.0
 11
184.4592362981
 21
187.589200389
 31
0.0
  0
LINE
  5
10A
330
101
100
AcDbEntity
  8
0
  6
Continuous
 62
     7
370
     0
100
AcDbLine
 10
184.4592362981
 20
187.589200389
 30
0.0
 11
184.4592362981
 21
186.8794097017
 31
0.0
  0
LINE
  5
10B
330
101
100
AcDbEntity
  8
0
  6
Continuous
 62
     7
370
     0
100
AcDbLine
 10
179.7423545492
 20
187.589200389
 30
0.0
 11
179.7423545492
 21
186.8794097017
 31
0.0
  0
LINE
  5
10C
330
101
100
AcDbEntity
  8
0
  6
Continuous
 62
     7
370
     0
100
AcDbLine
 10
184.8754317466
 20
145.6616633348
 30
0.0
 11
184.8754317466
 21
133.6616633348
 31
0.0
  0
LINE
  5
10D
330
101
100
AcDbEntity
  8
0
  6
Continuous
 62
     7
370
     0
100
AcDbLine
 10
184.8754317466
 20
145.6616633348
 30
0.0
 11
184.8754317466
 21
157.6616633348
 31
0.0
  0
LINE
  5
10E
330
101
100
AcDbEntity
  8
0
  6
Continuous
 62
     7
370
     0
100
AcDbLine
 10
184.8754317466
 20
157.6616633348
 30
0.0
 11
184.8754317466
 21
190.5962817635
 31
0.0
  0
MTEXT
  5
10F
330
101
100
AcDbEntity
  8
0
  6
Continuous
 62
     7
370
     0
100
AcDbMText
 10
180.363694832
 20
169.1118684878
 30
0.0
 40
3.5
 41
0.0
 71
     1
 72
     1
  1
12
  7
SLDTEXTSTYLE0
 11
6.123233995736766E-17
 21
1.0
 31
0.0
 73
     1
 44
1.0
  0
MTEXT
  5
110
330
101
100
AcDbEntity
  8
0
  6
Continuous
 62
     7
370
     0
100
AcDbMText
 10
180.363694832
 20
177.1207366701
 30
0.0
 40
3.5
 41
0.0
 71
     1
 72
     1
  1
0.47
  7
SLDTEXTSTYLE0
 11
6.123233995736766E-17
 21
1.0
 31
0.0
 73
     1
 44
1.0
  0
ENDBLK
  5
103
330
101
100
AcDbEntity
  8
0
100
AcDbBlockEnd
  0
BLOCK
  5
113
330
112
100
AcDbEntity
  8
0
100
AcDbBlockBegin
  2
*D7
 70
     1
 10
0.0
 20
0.0
 30
0.0
  3
*D7
  1

  0
INSERT
  5
115
330
112
100
AcDbEntity
  8
0
  6
Continuous
 62
     7
370
     0
100
AcDbBlockReference
  2
_CLOSED
 10
193.984179001
 20
145.6616633348
 30
-8.9
 41
6.0
 42
6.0
 50
90.0
  0
INSERT
  5
116
330
112
100
AcDbEntity
  8
0
  6
Continuous
 62
     7
370
     0
100
AcDbBlockReference
  2
_CLOSED
 10
193.984179001
 20
147.6616633348
 30
-8.9
 41
6.0
 42
6.0
 50
270.0
  0
LINE
  5
117
330
112
100
AcDbEntity
  8
0
  6
Continuous
 62
     7
370
     0
100
AcDbLine
 10
188.8511018037
 20
174.4068311012
 30
0.0
 11
193.5679835526
 21
174.4068311012
 31
0.0
  0
LINE
  5
118
330
112
100
AcDbEntity
  8
0
  6
Continuous
 62
     7
370
     0
100
AcDbLine
 10
193.5679835526
 20
174.4068311012
 30
0.0
 11
193.5679835526
 21
175.1166217885
 31
0.0
  0
LINE
  5
119
330
112
100
AcDbEntity
  8
0
  6
Continuous
 62
     7
370
     0
100
AcDbLine
 10
188.8511018037
 20
174.4068311012
 30
0.0
 11
188.8511018037
 21
175.1166217885
 31
0.0
  0
LINE
  5
11A
330
112
100
AcDbEntity
  8
0
  6
Continuous
 62
     7
370
     0
100
AcDbLine
 10
188.8511018037
 20
186.2948761946
 30
0.0
 11
193.5679835526
 21
186.2948761946
 31
0.0
  0
LINE
  5
11B
330
112
100
AcDbEntity
  8
0
  6
Continuous
 62
     7
370
     0
100
AcDbLine
 10
193.5679835526
 20
186.2948761946
 30
0.0
 11
193.5679835526
 21
185.5850855073
 31
0.0
  0
LINE
  5
11C
330
112
100
AcDbEntity
  8
0
  6
Continuous
 62
     7
370
     0
100
AcDbLine
 10
188.8511018037
 20
186.2948761946
 30
0.0
 11
188.8511018037
 21
185.5850855073
 31
0.0
  0
LINE
  5
11D
330
112
100
AcDbEntity
  8
0
  6
Continuous
 62
     7
370
     0
100
AcDbLine
 10
193.984179001
 20
145.6616633348
 30
0.0
 11
193.984179001
 21
133.6616633348
 31
0.0
  0
LINE
  5
11E
330
112
100
AcDbEntity
  8
0
  6
Continuous
 62
     7
370
     0
100
AcDbLine
 10
193.984179001
 20
145.6616633348
 30
0.0
 11
193.984179001
 21
147.6616633348
 31
0.0
  0
LINE
  5
11F
330
112
100
AcDbEntity
  8
0
  6
Continuous
 62
     7
370
     0
100
AcDbLine
 10
193.984179001
 20
147.6616633348
 30
0.0
 11
193.984179001
 21
189.3019575691
 31
0.0
  0
MTEXT
  5
120
330
112
100
AcDbEntity
  8
0
  6
Continuous
 62
     7
370
     0
100
AcDbMText
 10
189.4724420864
 20
170.4061926822
 30
0.0
 40
3.5
 41
0.0
 71
     1
 72
     1
  1
2
  7
SLDTEXTSTYLE0
 11
6.123233995736766E-17
 21
1.0
 31
0.0
 73
     1
 44
1.0
  0
MTEXT
  5
121
330
112
100
AcDbEntity
  8
0
  6
Continuous
 62
     7
370
     0
100
AcDbMText
 10
189.4724420864
 20
175.8264124757
 30
0.0
 40
3.5
 41
0.0
 71
     1
 72
     1
  1
0.08
  7
SLDTEXTSTYLE0
 11
6.123233995736766E-17
 21
1.0
 31
0.0
 73
     1
 44
1.0
  0
ENDBLK
  5
114
330
112
100
AcDbEntity
  8
0
100
AcDbBlockEnd
  0
BLOCK
  5
125
330
124
100
AcDbEntity
  8
0
100
AcDbBlockBegin
  2
*D8
 70
     1
 10
0.0
 20
0.0
 30
0.0
  3
*D8
  1

  0
INSERT
  5
127
330
124
100
AcDbEntity
  8
0
  6
Continuous
 62
     7
370
     0
100
AcDbBlockReference
  2
_CLOSED
 10
208.5558798934
 20
157.1966953499
 30
-8.9
 41
6.0
 42
6.0
 50
225.0
  0
LINE
  5
128
330
124
100
AcDbEntity
  8
0
  6
Continuous
 62
     7
370
     0
100
AcDbLine
 10
217.9885400474
 20
173.8522144743
 30
0.0
 11
221.3238791181
 21
170.5168754036
 31
0.0
  0
LINE
  5
129
330
124
100
AcDbEntity
  8
0
  6
Continuous
 62
     7
370
     0
100
AcDbLine
 10
221.3238791181
 20
170.5168754036
 30
0.0
 11
221.8257769262
 21
171.0187732118
 31
0.0
  0
LINE
  5
12A
330
124
100
AcDbEntity
  8
0
  6
Continuous
 62
     7
370
     0
100
AcDbLine
 10
217.9885400474
 20
173.8522144743
 30
0.0
 11
218.4904378555
 21
174.3541122825
 31
0.0
  0
LINE
  5
12B
330
124
100
AcDbEntity
  8
0
  6
Continuous
 62
     7
370
     0
100
AcDbLine
 10
226.3946573479
 20
182.2583317749
 30
0.0
 11
229.7299964186
 21
178.9229927042
 31
0.0
  0
LINE
  5
12C
330
124
100
AcDbEntity
  8
0
  6
Continuous
 62
     7
370
     0
100
AcDbLine
 10
229.7299964186
 20
178.9229927042
 30
0.0
 11
229.2280986105
 21
178.421094896
 31
0.0
  0
LINE
  5
12D
330
124
100
AcDbEntity
  8
0
  6
Continuous
 62
     7
370
     0
100
AcDbLine
 10
226.3946573479
 20
182.2583317749
 30
0.0
 11
225.8927595398
 21
181.7564339667
 31
0.0
  0
LINE
  5
12E
330
124
100
AcDbEntity
  8
0
  6
Continuous
 62
     7
370
     0
100
AcDbLine
 10
208.5558798934
 20
157.1966953499
 30
0.0
 11
232.1324144647
 21
180.7732299211
 31
0.0
  0
LINE
  5
12F
330
124
100
AcDbEntity
  8
0
  6
Continuous
 62
     7
370
     0
100
AcDbLine
 10
208.5558798934
 20
157.1966953499
 30
0.0
 11
207.4333478783
 21
156.0741633348
 31
0.0
  0
MTEXT
  5
130
330
124
100
AcDbEntity
  8
0
  6
Continuous
 62
     7
370
     0
100
AcDbMText
 10
209.0233489488
 20
164.008315521
 30
0.0
 40
3.5
 41
0.0
 71
     1
 72
     1
  1
R
  7
SLDTEXTSTYLE0
 11
0.707106781186547
 21
0.707106781186548
 31
0.0
 73
     1
 44
1.0
  0
MTEXT
  5
131
330
124
100
AcDbEntity
  8
0
  6
Continuous
 62
     7
370
     0
100
AcDbMText
 10
211.0255722905
 20
166.0105388627
 30
0.0
 40
3.5
 41
0.0
 71
     1
 72
     1
  1
1.59
  7
SLDTEXTSTYLE0
 11
0.707106781186547
 21
0.707106781186548
 31
0.0
 73
     1
 44
1.0
  0
MTEXT
  5
132
330
124
100
AcDbEntity
  8
0
  6
Continuous
 62
     7
370
     0
100
AcDbMText
 10
219.4316895911
 20
174.4166561633
 30
0.0
 40
3.5
 41
0.0
 71
     1
 72
     1
  1
0.06
  7
SLDTEXTSTYLE0
 11
0.707106781186547
 21
0.707106781186548
 31
0.0
 73
     1
 44
1.0
  0
ENDBLK
  5
126
330
124
100
AcDbEntity
  8
0
100
AcDbBlockEnd
  0
BLOCK
  5
135
330
134
100
AcDbEntity
  8
0
100
AcDbBlockBegin
  2
*D9
 70
     1
 10
0.0
 20
0.0
 30
0.0
  3
*D9
  1

  0
INSERT
  5
137
330
134
100
AcDbEntity
  8
0
  6
Continuous
 62
     7
370
     0
100
AcDbBlockReference
  2
_CLOSED
 10
273.4869950206
 20
157.6616633348
 30
-8.9
 41
6.0
 42
6.0
 50
270.0
  0
INSERT
  5
138
330
134
100
AcDbEntity
  8
0
  6
Continuous
 62
     7
370
     0
100
AcDbBlockReference
  2
_CLOSED
 10
273.4869950206
 20
147.6616633348
 30
-8.9
 41
6.0
 42
6.0
 50
90.0
  0
LINE
  5
139
330
134
100
AcDbEntity
  8
0
  6
Continuous
 62
     7
370
     0
100
AcDbLine
 10
268.3539178232
 20
125.3487112043
 30
0.0
 11
273.0707995721
 21
125.3487112043
 31
0.0
  0
LINE
  5
13A
330
134
100
AcDbEntity
  8
0
  6
Continuous
 62
     7
370
     0
100
AcDbLine
 10
273.0707995721
 20
125.3487112043
 30
0.0
 11
273.0707995721
 21
126.0585018915
 31
0.0
  0
LINE
  5
13B
330
134
100
AcDbEntity
  8
0
  6
Continuous
 62
     7
370
     0
100
AcDbLine
 10
268.3539178232
 20
125.3487112043
 30
0.0
 11
268.3539178232
 21
126.0585018915
 31
0.0
  0
LINE
  5
13C
330
134
100
AcDbEntity
  8
0
  6
Continuous
 62
     7
370
     0
100
AcDbLine
 10
268.3539178232
 20
137.2367562976
 30
0.0
 11
273.0707995721
 21
137.2367562976
 31
0.0
  0
LINE
  5
13D
330
134
100
AcDbEntity
  8
0
  6
Continuous
 62
     7
370
     0
100
AcDbLine
 10
273.0707995721
 20
137.2367562976
 30
0.0
 11
273.0707995721
 21
136.5269656104
 31
0.0
  0
LINE
  5
13E
330
134
100
AcDbEntity
  8
0
  6
Continuous
 62
     7
370
     0
100
AcDbLine
 10
268.3539178232
 20
137.2367562976
 30
0.0
 11
268.3539178232
 21
136.5269656104
 31
0.0
  0
LINE
  5
13F
330
134
100
AcDbEntity
  8
0
  6
Continuous
 62
     7
370
     0
100
AcDbLine
 10
273.4869950206
 20
157.6616633348
 30
0.0
 11
273.4869950206
 21
169.6616633348
 31
0.0
  0
LINE
  5
140
330
134
100
AcDbEntity
  8
0
  6
Continuous
 62
     7
370
     0
100
AcDbLine
 10
273.4869950206
 20
157.6616633348
 30
0.0
 11
273.4869950206
 21
147.6616633348
 31
0.0
  0
LINE
  5
141
330
134
100
AcDbEntity
  8
0
  6
Continuous
 62
     7
370
     0
100
AcDbLine
 10
273.4869950206
 20
147.6616633348
 30
0.0
 11
273.4869950206
 21
117.1719243964
 31
0.0
  0
MTEXT
  5
142
330
134
100
AcDbEntity
  8
0
  6
Continuous
 62
     7
370
     0
100
AcDbMText
 10
268.975258106
 20
118.7594243964
 30
0.0
 40
3.5
 41
0.0
 71
     1
 72
     1
  1
10
  7
SLDTEXTSTYLE0
 11
-7.044195017643634E-15
 21
1.0
 31
0.0
 73
     1
 44
1.0
  0
MTEXT
  5
143
330
134
100
AcDbEntity
  8
0
  6
Continuous
 62
     7
370
     0
100
AcDbMText
 10
268.975258106
 20
126.7682925787
 30
0.0
 40
3.5
 41
0.0
 71
     1
 72
     1
  1
0.39
  7
SLDTEXTSTYLE0
 11
-7.044195017643634E-15
 21
1.0
 31
0.0
 73
     1
 44
1.0
  0
ENDBLK
  5
136
330
134
100
AcDbEntity
  8
0
100
AcDbBlockEnd
  0
BLOCK
  5
146
330
145
100
AcDbEntity
  8
0
100
AcDbBlockBegin
  2
*D10
 70
     1
 10
0.0
 20
0.0
 30
0.0
  3
*D10
  1

  0
INSERT
  5
148
330
145
100
AcDbEntity
  8
0
  6
Continuous
 62
     7
370
     0
100
AcDbBlockReference
  2
_CLOSED
 10
281.3108478783
 20
126.4291562083
 30
-8.9
 41
6.0
 42
6.0
 50
180.0
  0
INSERT
  5
149
330
145
100
AcDbEntity
  8
0
  6
Continuous
 62
     7
370
     0
100
AcDbBlockReference
  2
_CLOSED
 10
243.3108478783
 20
126.4291562083
 30
-8.9
 41
6.0
 42
6.0
 50
360.0
  0
LINE
  5
14A
330
145
100
AcDbEntity
  8
0
  6
Continuous
 62
     7
370
     0
100
AcDbLine
 10
252.4677077894
 20
131.5622334056
 30
0.0
 11
252.4677077894
 21
126.8453516568
 31
0.0
  0
LINE
  5
14B
330
145
100
AcDbEntity
  8
0
  6
Continuous
 62
     7
370
     0
100
AcDbLine
 10
252.4677077894
 20
126.8453516568
 30
0.0
 11
253.1774984767
 21
126.8453516568
 31
0.0
  0
LINE
  5
14C
330
145
100
AcDbEntity
  8
0
  6
Continuous
 62
     7
370
     0
100
AcDbLine
 10
252.4677077894
 20
131.5622334056
 30
0.0
 11
253.1774984767
 21
131.5622334056
 31
0.0
  0
LINE
  5
14D
330
145
100
AcDbEntity
  8
0
  6
Continuous
 62
     7
370
     0
100
AcDbLine
 10
264.3557528828
 20
131.5622334056
 30
0.0
 11
264.3557528828
 21
126.8453516568
 31
0.0
  0
LINE
  5
14E
330
145
100
AcDbEntity
  8
0
  6
Continuous
 62
     7
370
     0
100
AcDbLine
 10
264.3557528828
 20
126.8453516568
 30
0.0
 11
263.6459621955
 21
126.8453516568
 31
0.0
  0
LINE
  5
14F
330
145
100
AcDbEntity
  8
0
  6
Continuous
 62
     7
370
     0
100
AcDbLine
 10
264.3557528828
 20
131.5622334056
 30
0.0
 11
263.6459621955
 21
131.5622334056
 31
0.0
  0
LINE
  5
150
330
145
100
AcDbEntity
  8
0
  6
Continuous
 62
     7
370
     0
100
AcDbLine
 10
281.3108478783
 20
148.2491633348
 30
0.0
 11
281.3108478783
 21
125.4291562083
 31
0.0
  0
LINE
  5
151
330
145
100
AcDbEntity
  8
0
  6
Continuous
 62
     7
370
     0
100
AcDbLine
 10
243.3108478783
 20
148.2491633348
 30
0.0
 11
243.3108478783
 21
125.4291562083
 31
0.0
  0
LINE
  5
152
330
145
100
AcDbEntity
  8
0
  6
Continuous
 62
     7
370
     0
100
AcDbLine
 10
281.3108478783
 20
126.4291562083
 30
0.0
 11
293.3108478783
 21
126.4291562083
 31
0.0
  0
LINE
  5
153
330
145
100
AcDbEntity
  8
0
  6
Continuous
 62
     7
370
     0
100
AcDbLine
 10
281.3108478783
 20
126.4291562083
 30
0.0
 11
243.3108478783
 21
126.4291562083
 31
0.0
  0
LINE
  5
154
330
145
100
AcDbEntity
  8
0
  6
Continuous
 62
     7
370
     0
100
AcDbLine
 10
243.3108478783
 20
126.4291562083
 30
0.0
 11
231.3108478783
 21
126.4291562083
 31
0.0
  0
MTEXT
  5
155
330
145
100
AcDbEntity
  8
0
  6
Continuous
 62
     7
370
     0
100
AcDbMText
 10
245.8784209816
 20
130.9408931229
 30
0.0
 40
3.5
 41
0.0
 71
     1
 72
     1
  1
38
  7
SLDTEXTSTYLE0
 73
     1
 44
1.0
  0
MTEXT
  5
156
330
145
100
AcDbEntity
  8
0
  6
Continuous
 62
     7
370
     0
100
AcDbMText
 10
253.8872891639
 20
130.9408931229
 30
0.0
 40
3.5
 41
0.0
 71
     1
 72
     1
  1
1.50
  7
SLDTEXTSTYLE0
 73
     1
 44
1.0
  0
ENDBLK
  5
147
330
145
100
AcDbEntity
  8
0
100
AcDbBlockEnd
  0
BLOCK
  5
15A
330
159
100
AcDbEntity
  8
0
100
AcDbBlockBegin
  2
*D11
 70
     1
 10
0.0
 20
0.0
 30
0.0
  3
*D11
  1

  0
INSERT
  5
15C
330
159
100
AcDbEntity
  8
0
  6
Continuous
 62
     7
370
     0
100
AcDbBlockReference
  2
_CLOSED
 10
226.1658478783
 20
133.1137367186
 30
-8.9
 41
6.0
 42
6.0
 50
180.0
  0
INSERT
  5
15D
330
159
100
AcDbEntity
  8
0
  6
Continuous
 62
     7
370
     0
100
AcDbBlockReference
  2
_CLOSED
 10
243.3108478783
 20
133.1137367186
 30
-8.9
 41
6.0
 42
6.0
 50
0.0
  0
LINE
  5
15E
330
159
100
AcDbEntity
  8
0
  6
Continuous
 62
     7
370
     0
100
AcDbLine
 10
218.5261260438
 20
138.2468139159
 30
0.0
 11
218.5261260438
 21
133.5299321671
 31
0.0
  0
LINE
  5
15F
330
159
100
AcDbEntity
  8
0
  6
Continuous
 62
     7
370
     0
100
AcDbLine
 10
218.5261260438
 20
133.5299321671
 30
0.0
 11
219.2359167311
 21
133.5299321671
 31
0.0
  0
LINE
  5
160
330
159
100
AcDbEntity
  8
0
  6
Continuous
 62
     7
370
     0
100
AcDbLine
 10
218.5261260438
 20
138.2468139159
 30
0.0
 11
219.2359167311
 21
138.2468139159
 31
0.0
  0
LINE
  5
161
330
159
100
AcDbEntity
  8
0
  6
Continuous
 62
     7
370
     0
100
AcDbLine
 10
230.4141711372
 20
138.2468139159
 30
0.0
 11
230.4141711372
 21
133.5299321671
 31
0.0
  0
LINE
  5
162
330
159
100
AcDbEntity
  8
0
  6
Continuous
 62
     7
370
     0
100
AcDbLine
 10
230.4141711372
 20
133.5299321671
 30
0.0
 11
229.70438045
 21
133.5299321671
 31
0.0
  0
LINE
  5
163
330
159
100
AcDbEntity
  8
0
  6
Continuous
 62
     7
370
     0
100
AcDbLine
 10
230.4141711372
 20
138.2468139159
 30
0.0
 11
229.70438045
 21
138.2468139159
 31
0.0
  0
LINE
  5
164
330
159
100
AcDbEntity
  8
0
  6
Continuous
 62
     7
370
     0
100
AcDbLine
 10
226.1658478783
 20
144.6616633348
 30
0.0
 11
226.1658478783
 21
132.1137367186
 31
0.0
  0
LINE
  5
165
330
159
100
AcDbEntity
  8
0
  6
Continuous
 62
     7
370
     0
100
AcDbLine
 10
243.3108478783
 20
148.2491633348
 30
0.0
 11
243.3108478783
 21
132.1137367186
 31
0.0
  0
LINE
  5
166
330
159
100
AcDbEntity
  8
0
  6
Continuous
 62
     7
370
     0
100
AcDbLine
 10
226.1658478783
 20
133.1137367186
 30
0.0
 11
203.8891052804
 21
133.1137367186
 31
0.0
  0
LINE
  5
167
330
159
100
AcDbEntity
  8
0
  6
Continuous
 62
     7
370
     0
100
AcDbLine
 10
226.1658478783
 20
133.1137367186
 30
0.0
 11
243.3108478783
 21
133.1137367186
 31
0.0
  0
MTEXT
  5
168
330
159
100
AcDbEntity
  8
0
  6
Continuous
 62
     7
370
     0
100
AcDbMText
 10
205.4766052804
 20
137.6254736332
 30
0.0
 40
3.5
 41
0.0
 71
     1
 72
     1
  1
17.15
  7
SLDTEXTSTYLE0
 73
     1
 44
1.0
  0
MTEXT
  5
169
330
159
100
AcDbEntity
  8
0
  6
Continuous
 62
     7
370
     0
100
AcDbMText
 10
219.9457074183
 20
137.6254736332
 30
0.0
 40
3.5
 41
0.0
 71
     1
 72
     1
  1
0.68
  7
SLDTEXTSTYLE0
 73
     1
 44
1.0
  0
ENDBLK
  5
15B
330
159
100
AcDbEntity
  8
0
100
AcDbBlockEnd
  0
BLOCK
  5
16C
330
16B
100
AcDbEntity
  8
0
100
AcDbBlockBegin
  2
SW_CENTERMARKSYMBOL_0
 70
     0
 10
0.0
 20
0.0
 30
0.0
  3
SW_CENTERMARKSYMBOL_0
  1

  0
LINE
  5
16E
330
16B
100
AcDbEntity
  8
0
  6
Continuous
 62
     0
370
     0
100
AcDbLine
 10
0.0
 20
0.0
 30
0.0
 11
0.0
 21
2.5
 31
0.0
  0
LINE
  5
16F
330
16B
100
AcDbEntity
  8
0
  6
Continuous
 62
     0
370
     0
100
AcDbLine
 10
0.0
 20
0.0
 30
0.0
 11
-2.5
 21
0.0
 31
0.0
  0
LINE
  5
170
330
16B
100
AcDbEntity
  8
0
  6
Continuous
 62
     0
370
     0
100
AcDbLine
 10
0.0
 20
0.0
 30
0.0
 11
0.0
 21
-2.5
 31
0.0
  0
LINE
  5
171
330
16B
100
AcDbEntity
  8
0
  6
Continuous
 62
     0
370
     0
100
AcDbLine
 10
0.0
 20
0.0
 30
0.0
 11
2.5
 21
0.0
 31
0.0
  0
LINE
  5
172
330
16B
100
AcDbEntity
  8
0
  6
Continuous
 62
     0
370
     0
100
AcDbLine
 10
0.0
 20
5.0
 30
0.0
 11
0.0
 21
5.5
 31
0.0
  0
LINE
  5
173
330
16B
100
AcDbEntity
  8
0
  6
Continuous
 62
     0
370
     0
100
AcDbLine
 10
-5.0
 20
0.0
 30
0.0
 11
-5.5
 21
0.0
 31
0.0
  0
LINE
  5
174
330
16B
100
AcDbEntity
  8
0
  6
Continuous
 62
     0
370
     0
100
AcDbLine
 10
0.0
 20
-5.0
 30
0.0
 11
0.0
 21
-5.5
 31
0.0
  0
LINE
  5
175
330
16B
100
AcDbEntity
  8
0
  6
Continuous
 62
     0
370
     0
100
AcDbLine
 10
5.0
 20
0.0
 30
0.0
 11
5.5
 21
0.0
 31
0.0
  0
ENDBLK
  5
16D
330
16B
100
AcDbEntity
  8
0
100
AcDbBlockEnd
  0
BLOCK
  5
178
330
177
100
AcDbEntity
  8
0
100
AcDbBlockBegin
  2
SW_CENTERMARKSYMBOL_1
 70
     0
 10
0.0
 20
0.0
 30
0.0
  3
SW_CENTERMARKSYMBOL_1
  1

  0
LINE
  5
17A
330
177
100
AcDbEntity
  8
0
  6
Continuous
 62
     0
370
     0
100
AcDbLine
 10
0.0
 20
0.0
 30
0.0
 11
0.0
 21
2.5
 31
0.0
  0
LINE
  5
17B
330
177
100
AcDbEntity
  8
0
  6
Continuous
 62
     0
370
     0
100
AcDbLine
 10
0.0
 20
0.0
 30
0.0
 11
-2.5
 21
0.0
 31
0.0
  0
LINE
  5
17C
330
177
100
AcDbEntity
  8
0
  6
Continuous
 62
     0
370
     0
100
AcDbLine
 10
0.0
 20
0.0
 30
0.0
 11
0.0
 21
-2.5
 31
0.0
  0
LINE
  5
17D
330
177
100
AcDbEntity
  8
0
  6
Continuous
 62
     0
370
     0
100
AcDbLine
 10
0.0
 20
0.0
 30
0.0
 11
2.5
 21
0.0
 31
0.0
  0
LINE
  5
17E
330
177
100
AcDbEntity
  8
0
  6
Continuous
 62
     0
370
     0
100
AcDbLine
 10
0.0
 20
5.0
 30
0.0
 11
0.0
 21
5.5
 31
0.0
  0
LINE
  5
17F
330
177
100
AcDbEntity
  8
0
  6
Continuous
 62
     0
370
     0
100
AcDbLine
 10
-5.0
 20
0.0
 30
0.0
 11
-5.5
 21
0.0
 31
0.0
  0
LINE
  5
180
330
177
100
AcDbEntity
  8
0
  6
Continuous
 62
     0
370
     0
100
AcDbLine
 10
0.0
 20
-5.0
 30
0.0
 11
0.0
 21
-5.5
 31
0.0
  0
LINE
  5
181
330
177
100
AcDbEntity
  8
0
  6
Continuous
 62
     0
370
     0
100
AcDbLine
 10
5.0
 20
0.0
 30
0.0
 11
5.5
 21
0.0
 31
0.0
  0
ENDBLK
  5
179
330
177
100
AcDbEntity
  8
0
100
AcDbBlockEnd
  0
BLOCK
  5
1AA
330
1A9
100
AcDbEntity
  8
0
100
AcDbBlockBegin
  2
*D14
 70
     1
 10
0.0
 20
0.0
 30
0.0
  3
*D14
  1

  0
INSERT
  5
1AC
330
1A9
100
AcDbEntity
  8
0
  6
Continuous
 62
     7
370
     0
100
AcDbBlockReference
  2
_CLOSED
 10
335.726535747
 20
230.68507806
 30
9.1
 41
6.0
 42
6.0
 50
179.9999999964
  0
LINE
  5
1AD
330
1A9
100
AcDbEntity
  8
0
  6
Continuous
 62
     7
370
     0
100
AcDbLine
 10
370.1887470902
 20
235.8146101348
 30
0.0
 11
370.1887470899
 21
231.097728386
 31
0.0
  0
LINE
  5
1AE
330
1A9
100
AcDbEntity
  8
0
  6
Continuous
 62
     7
370
     0
100
AcDbLine
 10
370.1887470899
 20
231.097728386
 30
0.0
 11
370.8985377771
 21
231.0977283859
 31
0.0
  0
LINE
  5
1AF
330
1A9
100
AcDbEntity
  8
0
  6
Continuous
 62
     7
370
     0
100
AcDbLine
 10
370.1887470902
 20
235.8146101348
 30
0.0
 11
370.8985377774
 21
235.8146101348
 31
0.0
  0
LINE
  5
1B0
330
1A9
100
AcDbEntity
  8
0
  6
Continuous
 62
     7
370
     0
100
AcDbLine
 10
382.0767921835
 20
235.8146101341
 30
0.0
 11
382.0767921832
 21
231.0977283852
 31
0.0
  0
LINE
  5
1B1
330
1A9
100
AcDbEntity
  8
0
  6
Continuous
 62
     7
370
     0
100
AcDbLine
 10
382.0767921832
 20
231.0977283852
 30
0.0
 11
381.367001496
 21
231.0977283852
 31
0.0
  0
LINE
  5
1B2
330
1A9
100
AcDbEntity
  8
0
  6
Continuous
 62
     7
370
     0
100
AcDbLine
 10
382.0767921835
 20
235.8146101341
 30
0.0
 11
381.3670014963
 21
235.8146101341
 31
0.0
  0
LINE
  5
1B3
330
1A9
100
AcDbEntity
  8
0
  6
Continuous
 62
     7
370
     0
100
AcDbLine
 10
335.726535747
 20
230.68507806
 30
0.0
 11
385.0838735577
 21
230.6850780569
 31
0.0
  0
LINE
  5
1B4
330
1A9
100
AcDbEntity
  8
0
  6
Continuous
 62
     7
370
     0
100
AcDbLine
 10
335.726535747
 20
230.68507806
 30
0.0
 11
314.136535747
 21
230.6850780614
 31
0.0
  0
MTEXT
  5
1B5
330
1A9
100
AcDbEntity
  8
0
  6
Continuous
 62
     7
370
     0
100
AcDbMText
 10
354.307654922
 20
235.1932698531
 30
0.0
 40
3.5
 41
0.0
 71
     1
 72
     1
  1
R
  7
SLDTEXTSTYLE0
 73
     1
 44
1.0
  0
MTEXT
  5
1B6
330
1A9
100
AcDbEntity
  8
0
  6
Continuous
 62
     7
370
     0
100
AcDbMText
 10
357.1392263267
 20
235.1932698529
 30
0.0
 40
3.5
 41
0.0
 71
     1
 72
     1
  1
21.59
  7
SLDTEXTSTYLE0
 73
     1
 44
1.0
  0
MTEXT
  5
1B7
330
1A9
100
AcDbEntity
  8
0
  6
Continuous
 62
     7
370
     0
100
AcDbMText
 10
371.6083284646
 20
235.193269852
 30
0.0
 40
3.5
 41
0.0
 71
     1
 72
     1
  1
0.85
  7
SLDTEXTSTYLE0
 73
     1
 44
1.0
  0
ENDBLK
  5
1AB
330
1A9
100
AcDbEntity
  8
0
100
AcDbBlockEnd
  0
BLOCK
  5
1BB
330
1BA
100
AcDbEntity
  8
0
100
AcDbBlockBegin
  2
*D15
 70
     1
 10
0.0
 20
0.0
 30
0.0
  3
*D15
  1

  0
INSERT
  5
1BD
330
1BA
100
AcDbEntity
  8
0
  6
Continuous
 62
     7
370
     0
100
AcDbBlockReference
  2
_CLOSED
 10
330.6343196898
 20
240.2100780602
 30
9.1
 41
6.0
 42
6.0
 50
209.9999999959
  0
LINE
  5
1BE
330
1BA
100
AcDbEntity
  8
0
  6
Continuous
 62
     7
370
     0
100
AcDbLine
 10
350.2589580948
 20
257.4606496119
 30
0.0
 11
352.617398969
 21
253.3757101906
 31
0.0
  0
LINE
  5
1BF
330
1BA
100
AcDbEntity
  8
0
  6
Continuous
 62
     7
370
     0
100
AcDbLine
 10
352.617398969
 20
253.3757101906
 30
0.0
 11
353.2320957355
 21
253.7306055341
 31
0.0
  0
LINE
  5
1C0
330
1BA
100
AcDbEntity
  8
0
  6
Continuous
 62
     7
370
     0
100
AcDbLine
 10
350.2589580948
 20
257.4606496119
 30
0.0
 11
350.8736548614
 21
257.8155449555
 31
0.0
  0
LINE
  5
1C1
330
1BA
100
AcDbEntity
  8
0
  6
Continuous
 62
     7
370
     0
100
AcDbLine
 10
360.5543071474
 20
263.4046721579
 30
0.0
 11
362.9127480216
 21
259.3197327365
 31
0.0
  0
LINE
  5
1C2
330
1BA
100
AcDbEntity
  8
0
  6
Continuous
 62
     7
370
     0
100
AcDbLine
 10
362.9127480216
 20
259.3197327365
 30
0.0
 11
362.298051255
 21
258.9648373929
 31
0.0
  0
LINE
  5
1C3
330
1BA
100
AcDbEntity
  8
0
  6
Continuous
 62
     7
370
     0
100
AcDbLine
 10
360.5543071474
 20
263.4046721579
 30
0.0
 11
359.9396103809
 21
263.0497768143
 31
0.0
  0
LINE
  5
1C4
330
1BA
100
AcDbEntity
  8
0
  6
Continuous
 62
     7
370
     0
100
AcDbLine
 10
330.6343196898
 20
240.2100780602
 30
0.0
 11
365.7220730052
 21
260.4680018788
 31
0.0
  0
LINE
  5
1C5
330
1BA
100
AcDbEntity
  8
0
  6
Continuous
 62
     7
370
     0
100
AcDbLine
 10
330.6343196898
 20
240.2100780602
 30
0.0
 11
297.6387518042
 21
221.1600780626
 31
0.0
  0
MTEXT
  5
1C6
330
1BA
100
AcDbEntity
  8
0
  6
Continuous
 62
     7
370
     0
100
AcDbMText
 10
334.699275267
 20
247.7598007869
 30
0.0
 40
3.5
 41
0.0
 71
     1
 72
     1
  1
%%c
  7
SLDTEXTSTYLE0
 11
0.8660254038202113
 21
0.4999999999380399
 31
0.0
 73
     1
 44
1.0
  0
MTEXT
  5
1C7
330
1BA
100
AcDbEntity
  8
0
  6
Continuous
 62
     7
370
     0
100
AcDbMText
 10
339.2684117474
 20
250.3977927617
 30
0.0
 40
3.5
 41
0.0
 71
     1
 72
     1
  1
38.10
  7
SLDTEXTSTYLE0
 11
0.8660254038202113
 21
0.4999999999380399
 31
0.0
 73
     1
 44
1.0
  0
MTEXT
  5
1C8
330
1BA
100
AcDbEntity
  8
0
  6
Continuous
 62
     7
370
     0
100
AcDbMText
 10
351.7990217693
 20
257.6323438298
 30
0.0
 40
3.5
 41
0.0
 71
     1
 72
     1
  1
1.50
  7
SLDTEXTSTYLE0
 11
0.8660254038202113
 21
0.4999999999380399
 31
0.0
 73
     1
 44
1.0
  0
ENDBLK
  5
1BC
330
1BA
100
AcDbEntity
  8
0
100
AcDbBlockEnd
  0
BLOCK
  5
1CC
330
1CB
100
AcDbEntity
  8
0
100
AcDbBlockBegin
  2
*D16
 70
     1
 10
0.0
 20
0.0
 30
0.0
  3
*D16
  1

  0
INSERT
  5
1CE
330
1CB
100
AcDbEntity
  8
0
  6
Continuous
 62
     7
370
     0
100
AcDbBlockReference
  2
_CLOSED
 10
316.7346119583
 20
229.1850780612
 30
9.1
 41
6.0
 42
6.0
 50
149.9999999956
  0
LINE
  5
1CF
330
1CB
100
AcDbEntity
  8
0
  6
Continuous
 62
     7
370
     0
100
AcDbLine
 10
349.1852029376
 20
216.3690612276
 30
0.0
 11
346.8267620628
 21
212.2841218066
 31
0.0
  0
LINE
  5
1D0
330
1CB
100
AcDbEntity
  8
0
  6
Continuous
 62
     7
370
     0
100
AcDbLine
 10
346.8267620628
 20
212.2841218066
 30
0.0
 11
347.4414588293
 21
211.929226463
 31
0.0
  0
LINE
  5
1D1
330
1CB
100
AcDbEntity
  8
0
  6
Continuous
 62
     7
370
     0
100
AcDbLine
 10
349.1852029376
 20
216.3690612276
 30
0.0
 11
349.7998997041
 21
216.014165884
 31
0.0
  0
LINE
  5
1D2
330
1CB
100
AcDbEntity
  8
0
  6
Continuous
 62
     7
370
     0
100
AcDbLine
 10
359.4805519893
 20
210.4250386802
 30
0.0
 11
357.1221111146
 21
206.3400992592
 31
0.0
  0
LINE
  5
1D3
330
1CB
100
AcDbEntity
  8
0
  6
Continuous
 62
     7
370
     0
100
AcDbLine
 10
357.1221111146
 20
206.3400992592
 30
0.0
 11
356.5074143481
 21
206.6949946028
 31
0.0
  0
LINE
  5
1D4
330
1CB
100
AcDbEntity
  8
0
  6
Continuous
 62
     7
370
     0
100
AcDbLine
 10
359.4805519893
 20
210.4250386802
 30
0.0
 11
358.8658552228
 21
210.7799340238
 31
0.0
  0
LINE
  5
1D5
330
1CB
100
AcDbEntity
  8
0
  6
Continuous
 62
     7
370
     0
100
AcDbLine
 10
316.7346119583
 20
229.1850780612
 30
0.0
 11
359.5216111809
 21
204.4819925378
 31
0.0
  0
LINE
  5
1D6
330
1CB
100
AcDbEntity
  8
0
  6
Continuous
 62
     7
370
     0
100
AcDbLine
 10
316.7346119583
 20
229.1850780612
 30
0.0
 11
311.5384595358
 21
232.1850780616
 31
0.0
  0
MTEXT
  5
1D7
330
1CB
100
AcDbEntity
  8
0
  6
Continuous
 62
     7
370
     0
100
AcDbMText
 10
340.8407419887
 20
220.4692762462
 30
0.0
 40
3.5
 41
0.0
 71
     1
 72
     1
  1
%%c
  7
SLDTEXTSTYLE0
 11
0.8660254037462978
 21
-0.5000000000660619
 31
0.0
 73
     1
 44
1.0
  0
MTEXT
  5
1D8
330
1CB
100
AcDbEntity
  8
0
  6
Continuous
 62
     7
370
     0
100
AcDbMText
 10
345.4098782941
 20
217.8312839682
 30
0.0
 40
3.5
 41
0.0
 71
     1
 72
     1
  1
6
  7
SLDTEXTSTYLE0
 11
0.8660254037462978
 21
-0.5000000000660619
 31
0.0
 73
     1
 44
1.0
  0
MTEXT
  5
1D9
330
1CB
100
AcDbEntity
  8
0
  6
Continuous
 62
     7
370
     0
100
AcDbMText
 10
350.1039263292
 20
215.1211740711
 30
0.0
 40
3.5
 41
0.0
 71
     1
 72
     1
  1
0.24
  7
SLDTEXTSTYLE0
 11
0.8660254037462978
 21
-0.5000000000660619
 31
0.0
 73
     1
 44
1.0
  0
ENDBLK
  5
1CD
330
1CB
100
AcDbEntity
  8
0
100
AcDbBlockEnd
  0
BLOCK
  5
1DC
330
1DB
100
AcDbEntity
  8
0
100
AcDbBlockBegin
  2
*D17
 70
     1
 10
0.0
 20
0.0
 30
0.0
  3
*D17
  1

  0
INSERT
  5
1DE
330
1DB
100
AcDbEntity
  8
0
  6
Continuous
 62
     7
370
     0
100
AcDbBlockReference
  2
_CLOSED
 10
139.136535747
 20
199.0950780614
 30
9.1
 41
6.0
 42
6.0
 50
180.0
  0
INSERT
  5
1DF
330
1DB
100
AcDbEntity
  8
0
  6
Continuous
 62
     7
370
     0
100
AcDbBlockReference
  2
_CLOSED
 10
314.136535747
 20
199.0950780614
 30
9.1
 41
6.0
 42
6.0
 50
0.0
  0
LINE
  5
1E0
330
1DB
100
AcDbEntity
  8
0
  6
Continuous
 62
     7
370
     0
100
AcDbLine
 10
201.1070405337
 20
204.2281552587
 30
0.0
 11
201.1070405337
 21
199.5112735098
 31
0.0
  0
LINE
  5
1E1
330
1DB
100
AcDbEntity
  8
0
  6
Continuous
 62
     7
370
     0
100
AcDbLine
 10
201.1070405337
 20
199.5112735098
 30
0.0
 11
201.816831221
 21
199.5112735098
 31
0.0
  0
LINE
  5
1E2
330
1DB
100
AcDbEntity
  8
0
  6
Continuous
 62
     7
370
     0
100
AcDbLine
 10
201.1070405337
 20
204.2281552587
 30
0.0
 11
201.816831221
 21
204.2281552587
 31
0.0
  0
LINE
  5
1E3
330
1DB
100
AcDbEntity
  8
0
  6
Continuous
 62
     7
370
     0
100
AcDbLine
 10
212.9950856271
 20
204.2281552587
 30
0.0
 11
212.9950856271
 21
199.5112735098
 31
0.0
  0
LINE
  5
1E4
330
1DB
100
AcDbEntity
  8
0
  6
Continuous
 62
     7
370
     0
100
AcDbLine
 10
212.9950856271
 20
199.5112735098
 30
0.0
 11
212.2852949398
 21
199.5112735098
 31
0.0
  0
LINE
  5
1E5
330
1DB
100
AcDbEntity
  8
0
  6
Continuous
 62
     7
370
     0
100
AcDbLine
 10
212.9950856271
 20
204.2281552587
 30
0.0
 11
212.2852949398
 21
204.2281552587
 31
0.0
  0
LINE
  5
1E6
330
1DB
100
AcDbEntity
  8
0
  6
Continuous
 62
     7
370
     0
100
AcDbLine
 10
139.136535747
 20
229.6850780614
 30
0.0
 11
139.136535747
 21
198.0950780614
 31
0.0
  0
LINE
  5
1E7
330
1DB
100
AcDbEntity
  8
0
  6
Continuous
 62
     7
370
     0
100
AcDbLine
 10
314.136535747
 20
229.6850780614
 30
0.0
 11
314.136535747
 21
198.0950780614
 31
0.0
  0
LINE
  5
1E8
330
1DB
100
AcDbEntity
  8
0
  6
Continuous
 62
     7
370
     0
100
AcDbLine
 10
139.136535747
 20
199.0950780614
 30
0.0
 11
314.136535747
 21
199.0950780614
 31
0.0
  0
MTEXT
  5
1E9
330
1DB
100
AcDbEntity
  8
0
  6
Continuous
 62
     7
370
     0
100
AcDbMText
 10
191.9366966814
 20
203.606814976
 30
0.0
 40
3.5
 41
0.0
 71
     1
 72
     1
  1
175
  7
SLDTEXTSTYLE0
 73
     1
 44
1.0
  0
MTEXT
  5
1EA
330
1DB
100
AcDbEntity
  8
0
  6
Continuous
 62
     7
370
     0
100
AcDbMText
 10
202.5266219082
 20
203.606814976
 30
0.0
 40
3.5
 41
0.0
 71
     1
 72
     1
  1
6.89
  7
SLDTEXTSTYLE0
 73
     1
 44
1.0
  0
ENDBLK
  5
1DD
330
1DB
100
AcDbEntity
  8
0
100
AcDbBlockEnd
  0
BLOCK
  5
1ED
330
1EC
100
AcDbEntity
  8
0
100
AcDbBlockBegin
  2
*D18
 70
     1
 10
0.0
 20
0.0
 30
0.0
  3
*D18
  1

  0
INSERT
  5
1EF
330
1EC
100
AcDbEntity
  8
0
  6
Continuous
 62
     7
370
     0
100
AcDbBlockReference
  2
_CLOSED
 10
176.0490924513
 20
230.6850780614
 30
9.1
 41
6.0
 42
6.0
 50
90.0
  0
INSERT
  5
1F0
330
1EC
100
AcDbEntity
  8
0
  6
Continuous
 62
     7
370
     0
100
AcDbBlockReference
  2
_CLOSED
 10
176.0490924513
 20
215.6850780614
 30
9.1
 41
6.0
 42
6.0
 50
270.0
  0
LINE
  5
1F1
330
1EC
100
AcDbEntity
  8
0
  6
Continuous
 62
     7
370
     0
100
AcDbLine
 10
170.9160152539
 20
187.8384082314
 30
0.0
 11
175.6328970028
 21
187.8384082314
 31
0.0
  0
LINE
  5
1F2
330
1EC
100
AcDbEntity
  8
0
  6
Continuous
 62
     7
370
     0
100
AcDbLine
 10
175.6328970028
 20
187.8384082314
 30
0.0
 11
175.6328970028
 21
188.5481989186
 31
0.0
  0
LINE
  5
1F3
330
1EC
100
AcDbEntity
  8
0
  6
Continuous
 62
     7
370
     0
100
AcDbLine
 10
170.9160152539
 20
187.8384082314
 30
0.0
 11
170.9160152539
 21
188.5481989186
 31
0.0
  0
LINE
  5
1F4
330
1EC
100
AcDbEntity
  8
0
  6
Continuous
 62
     7
370
     0
100
AcDbLine
 10
170.9160152539
 20
199.7264533247
 30
0.0
 11
175.6328970028
 21
199.7264533247
 31
0.0
  0
LINE
  5
1F5
330
1EC
100
AcDbEntity
  8
0
  6
Continuous
 62
     7
370
     0
100
AcDbLine
 10
175.6328970028
 20
199.7264533247
 30
0.0
 11
175.6328970028
 21
199.0166626375
 31
0.0
  0
LINE
  5
1F6
330
1EC
100
AcDbEntity
  8
0
  6
Continuous
 62
     7
370
     0
100
AcDbLine
 10
170.9160152539
 20
199.7264533247
 30
0.0
 11
170.9160152539
 21
199.0166626375
 31
0.0
  0
LINE
  5
1F7
330
1EC
100
AcDbEntity
  8
0
  6
Continuous
 62
     7
370
     0
100
AcDbLine
 10
176.0490924513
 20
230.6850780614
 30
0.0
 11
176.0490924513
 21
215.6850780614
 31
0.0
  0
LINE
  5
1F8
330
1EC
100
AcDbEntity
  8
0
  6
Continuous
 62
     7
370
     0
100
AcDbLine
 10
176.0490924513
 20
215.6850780614
 30
0.0
 11
176.0490924513
 21
179.6616214236
 31
0.0
  0
MTEXT
  5
1F9
330
1EC
100
AcDbEntity
  8
0
  6
Continuous
 62
     7
370
     0
100
AcDbMText
 10
171.5373555367
 20
181.2491214236
 30
0.0
 40
3.5
 41
0.0
 71
     1
 72
     1
  1
15
  7
SLDTEXTSTYLE0
 11
-7.044195017643634E-15
 21
1.0
 31
0.0
 73
     1
 44
1.0
  0
MTEXT
  5
1FA
330
1EC
100
AcDbEntity
  8
0
  6
Continuous
 62
     7
370
     0
100
AcDbMText
 10
171.5373555367
 20
189.2579896059
 30
0.0
 40
3.5
 41
0.0
 71
     1
 72
     1
  1
0.59
  7
SLDTEXTSTYLE0
 11
-7.044195017643634E-15
 21
1.0
 31
0.0
 73
     1
 44
1.0
  0
ENDBLK
  5
1EE
330
1EC
100
AcDbEntity
  8
0
100
AcDbBlockEnd
  0
BLOCK
  5
1FD
330
1FC
100
AcDbEntity
  8
0
100
AcDbBlockBegin
  2
*D19
 70
     1
 10
0.0
 20
0.0
 30
0.0
  3
*D19
  1

  0
INSERT
  5
1FF
330
1FC
100
AcDbEntity
  8
0
  6
Continuous
 62
     7
370
     0
100
AcDbBlockReference
  2
_CLOSED
 10
187.7415878781
 20
230.6850780614
 30
9.1
 41
6.0
 42
6.0
 50
90.0
  0
INSERT
  5
200
330
1FC
100
AcDbEntity
  8
0
  6
Continuous
 62
     7
370
     0
100
AcDbBlockReference
  2
_CLOSED
 10
187.7415878781
 20
231.6850780614
 30
9.1
 41
6.0
 42
6.0
 50
270.0
  0
LINE
  5
201
330
1FC
100
AcDbEntity
  8
0
  6
Continuous
 62
     7
370
     0
100
AcDbLine
 10
182.6085106808
 20
231.3131578486
 30
0.0
 11
187.3253924296
 21
231.3131578486
 31
0.0
  0
LINE
  5
202
330
1FC
100
AcDbEntity
  8
0
  6
Continuous
 62
     7
370
     0
100
AcDbLine
 10
187.3253924296
 20
231.3131578486
 30
0.0
 11
187.3253924296
 21
232.0229485359
 31
0.0
  0
LINE
  5
203
330
1FC
100
AcDbEntity
  8
0
  6
Continuous
 62
     7
370
     0
100
AcDbLine
 10
182.6085106808
 20
231.3131578486
 30
0.0
 11
182.6085106808
 21
232.0229485359
 31
0.0
  0
LINE
  5
204
330
1FC
100
AcDbEntity
  8
0
  6
Continuous
 62
     7
370
     0
100
AcDbLine
 10
182.6085106808
 20
243.201202942
 30
0.0
 11
187.3253924296
 21
243.201202942
 31
0.0
  0
LINE
  5
205
330
1FC
100
AcDbEntity
  8
0
  6
Continuous
 62
     7
370
     0
100
AcDbLine
 10
187.3253924296
 20
243.201202942
 30
0.0
 11
187.3253924296
 21
242.4914122548
 31
0.0
  0
LINE
  5
206
330
1FC
100
AcDbEntity
  8
0
  6
Continuous
 62
     7
370
     0
100
AcDbLine
 10
182.6085106808
 20
243.201202942
 30
0.0
 11
182.6085106808
 21
242.4914122548
 31
0.0
  0
LINE
  5
207
330
1FC
100
AcDbEntity
  8
0
  6
Continuous
 62
     7
370
     0
100
AcDbLine
 10
187.7415878781
 20
230.6850780614
 30
0.0
 11
187.7415878781
 21
218.6850780614
 31
0.0
  0
LINE
  5
208
330
1FC
100
AcDbEntity
  8
0
  6
Continuous
 62
     7
370
     0
100
AcDbLine
 10
187.7415878781
 20
230.6850780614
 30
0.0
 11
187.7415878781
 21
231.6850780614
 31
0.0
  0
LINE
  5
209
330
1FC
100
AcDbEntity
  8
0
  6
Continuous
 62
     7
370
     0
100
AcDbLine
 10
187.7415878781
 20
231.6850780614
 30
0.0
 11
187.7415878781
 21
246.2082843165
 31
0.0
  0
MTEXT
  5
20A
330
1FC
100
AcDbEntity
  8
0
  6
Continuous
 62
     7
370
     0
100
AcDbMText
 10
183.2298509635
 20
227.3125194296
 30
0.0
 40
3.5
 41
0.0
 71
     1
 72
     1
  1
1
  7
SLDTEXTSTYLE0
 11
6.123233995736766E-17
 21
1.0
 31
0.0
 73
     1
 44
1.0
  0
MTEXT
  5
20B
330
1FC
100
AcDbEntity
  8
0
  6
Continuous
 62
     7
370
     0
100
AcDbMText
 10
183.2298509635
 20
232.7327392231
 30
0.0
 40
3.5
 41
0.0
 71
     1
 72
     1
  1
0.04
  7
SLDTEXTSTYLE0
 11
6.123233995736766E-17
 21
1.0
 31
0.0
 73
     1
 44
1.0
  0
ENDBLK
  5
1FE
330
1FC
100
AcDbEntity
  8
0
100
AcDbBlockEnd
  0
BLOCK
  5
20E
330
20D
100
AcDbEntity
  8
0
100
AcDbBlockBegin
  2
*D20
 70
     1
 10
0.0
 20
0.0
 30
0.0
  3
*D20
  1

  0
INSERT
  5
210
330
20D
100
AcDbEntity
  8
0
  6
Continuous
 62
     7
370
     0
100
AcDbBlockReference
  2
_CLOSED
 10
215.8028596509
 20
230.6850780614
 30
9.1
 41
6.0
 42
6.0
 50
90.0
  0
INSERT
  5
211
330
20D
100
AcDbEntity
  8
0
  6
Continuous
 62
     7
370
     0
100
AcDbBlockReference
  2
_CLOSED
 10
215.8028596509
 20
233.8600780614
 30
9.1
 41
6.0
 42
6.0
 50
270.0
  0
LINE
  5
212
330
20D
100
AcDbEntity
  8
0
  6
Continuous
 62
     7
370
     0
100
AcDbLine
 10
210.6697824536
 20
250.3917919335
 30
0.0
 11
215.3866642025
 21
250.3917919335
 31
0.0
  0
LINE
  5
213
330
20D
100
AcDbEntity
  8
0
  6
Continuous
 62
     7
370
     0
100
AcDbLine
 10
215.3866642025
 20
250.3917919335
 30
0.0
 11
215.3866642025
 21
251.1015826208
 31
0.0
  0
LINE
  5
214
330
20D
100
AcDbEntity
  8
0
  6
Continuous
 62
     7
370
     0
100
AcDbLine
 10
210.6697824536
 20
250.3917919335
 30
0.0
 11
210.6697824536
 21
251.1015826208
 31
0.0
  0
LINE
  5
215
330
20D
100
AcDbEntity
  8
0
  6
Continuous
 62
     7
370
     0
100
AcDbLine
 10
210.6697824536
 20
262.2798370269
 30
0.0
 11
215.3866642025
 21
262.2798370269
 31
0.0
  0
LINE
  5
216
330
20D
100
AcDbEntity
  8
0
  6
Continuous
 62
     7
370
     0
100
AcDbLine
 10
215.3866642025
 20
262.2798370269
 30
0.0
 11
215.3866642025
 21
261.5700463396
 31
0.0
  0
LINE
  5
217
330
20D
100
AcDbEntity
  8
0
  6
Continuous
 62
     7
370
     0
100
AcDbLine
 10
210.6697824536
 20
262.2798370269
 30
0.0
 11
210.6697824536
 21
261.5700463396
 31
0.0
  0
LINE
  5
218
330
20D
100
AcDbEntity
  8
0
  6
Continuous
 62
     7
370
     0
100
AcDbLine
 10
223.255285747
 20
233.8600780614
 30
0.0
 11
214.8028596509
 21
233.8600780614
 31
0.0
  0
LINE
  5
219
330
20D
100
AcDbEntity
  8
0
  6
Continuous
 62
     7
370
     0
100
AcDbLine
 10
215.8028596509
 20
230.6850780614
 30
0.0
 11
215.8028596509
 21
218.6850780614
 31
0.0
  0
LINE
  5
21A
330
20D
100
AcDbEntity
  8
0
  6
Continuous
 62
     7
370
     0
100
AcDbLine
 10
215.8028596509
 20
230.6850780614
 30
0.0
 11
215.8028596509
 21
233.8600780614
 31
0.0
  0
LINE
  5
21B
330
20D
100
AcDbEntity
  8
0
  6
Continuous
 62
     7
370
     0
100
AcDbLine
 10
215.8028596509
 20
233.8600780614
 30
0.0
 11
215.8028596509
 21
265.2869184014
 31
0.0
  0
MTEXT
  5
21C
330
20D
100
AcDbEntity
  8
0
  6
Continuous
 62
     7
370
     0
100
AcDbMText
 10
211.2911227364
 20
239.9233282147
 30
0.0
 40
3.5
 41
0.0
 71
     1
 72
     1
  1
3.18
  7
SLDTEXTSTYLE0
 11
6.123233995736766E-17
 21
1.0
 31
0.0
 73
     1
 44
1.0
  0
MTEXT
  5
21D
330
20D
100
AcDbEntity
  8
0
  6
Continuous
 62
     7
370
     0
100
AcDbMText
 10
211.2911227364
 20
251.811373308
 30
0.0
 40
3.5
 41
0.0
 71
     1
 72
     1
  1
0.13
  7
SLDTEXTSTYLE0
 11
6.123233995736766E-17
 21
1.0
 31
0.0
 73
     1
 44
1.0
  0
ENDBLK
  5
20F
330
20D
100
AcDbEntity
  8
0
100
AcDbBlockEnd
  0
BLOCK
  5
220
330
21F
100
AcDbEntity
  8
0
100
AcDbBlockBegin
  2
*D21
 70
     1
 10
0.0
 20
0.0
 30
0.0
  3
*D21
  1

  0
INSERT
  5
222
330
21F
100
AcDbEntity
  8
0
  6
Continuous
 62
     7
370
     0
100
AcDbBlockReference
  2
_CLOSED
 10
212.031535747
 20
207.780574444
 30
9.1
 41
6.0
 42
6.0
 50
180.0
  0
INSERT
  5
223
330
21F
100
AcDbEntity
  8
0
  6
Continuous
 62
     7
370
     0
100
AcDbBlockReference
  2
_CLOSED
 10
241.241535747
 20
207.780574444
 30
9.1
 41
6.0
 42
6.0
 50
0.0
  0
LINE
  5
224
330
21F
100
AcDbEntity
  8
0
  6
Continuous
 62
     7
370
     0
100
AcDbLine
 10
267.032902842
 20
212.9136516414
 30
0.0
 11
267.032902842
 21
208.1967698925
 31
0.0
  0
LINE
  5
225
330
21F
100
AcDbEntity
  8
0
  6
Continuous
 62
     7
370
     0
100
AcDbLine
 10
267.032902842
 20
208.1967698925
 30
0.0
 11
267.7426935293
 21
208.1967698925
 31
0.0
  0
LINE
  5
226
330
21F
100
AcDbEntity
  8
0
  6
Continuous
 62
     7
370
     0
100
AcDbLine
 10
267.032902842
 20
212.9136516414
 30
0.0
 11
267.7426935293
 21
212.9136516414
 31
0.0
  0
LINE
  5
227
330
21F
100
AcDbEntity
  8
0
  6
Continuous
 62
     7
370
     0
100
AcDbLine
 10
278.9209479354
 20
212.9136516414
 30
0.0
 11
278.9209479354
 21
208.1967698925
 31
0.0
  0
LINE
  5
228
330
21F
100
AcDbEntity
  8
0
  6
Continuous
 62
     7
370
     0
100
AcDbLine
 10
278.9209479354
 20
208.1967698925
 30
0.0
 11
278.2111572482
 21
208.1967698925
 31
0.0
  0
LINE
  5
229
330
21F
100
AcDbEntity
  8
0
  6
Continuous
 62
     7
370
     0
100
AcDbLine
 10
278.9209479354
 20
212.9136516414
 30
0.0
 11
278.2111572482
 21
212.9136516414
 31
0.0
  0
LINE
  5
22A
330
21F
100
AcDbEntity
  8
0
  6
Continuous
 62
     7
370
     0
100
AcDbLine
 10
212.031535747
 20
217.2850780614
 30
0.0
 11
212.031535747
 21
206.780574444
 31
0.0
  0
LINE
  5
22B
330
21F
100
AcDbEntity
  8
0
  6
Continuous
 62
     7
370
     0
100
AcDbLine
 10
241.241535747
 20
217.2850780614
 30
0.0
 11
241.241535747
 21
206.780574444
 31
0.0
  0
LINE
  5
22C
330
21F
100
AcDbEntity
  8
0
  6
Continuous
 62
     7
370
     0
100
AcDbLine
 10
212.031535747
 20
207.780574444
 30
0.0
 11
241.241535747
 21
207.780574444
 31
0.0
  0
LINE
  5
22D
330
21F
100
AcDbEntity
  8
0
  6
Continuous
 62
     7
370
     0
100
AcDbLine
 10
241.241535747
 20
207.780574444
 30
0.0
 11
281.9280293099
 21
207.780574444
 31
0.0
  0
MTEXT
  5
22E
330
21F
100
AcDbEntity
  8
0
  6
Continuous
 62
     7
370
     0
100
AcDbMText
 10
253.9833820786
 20
212.2923113586
 30
0.0
 40
3.5
 41
0.0
 71
     1
 72
     1
  1
29.21
  7
SLDTEXTSTYLE0
 73
     1
 44
1.0
  0
MTEXT
  5
22F
330
21F
100
AcDbEntity
  8
0
  6
Continuous
 62
     7
370
     0
100
AcDbMText
 10
268.4524842165
 20
212.2923113586
 30
0.0
 40
3.5
 41
0.0
 71
     1
 72
     1
  1
1.15
  7
SLDTEXTSTYLE0
 73
     1
 44
1.0
  0
ENDBLK
  5
221
330
21F
100
AcDbEntity
  8
0
100
AcDbBlockEnd
  0
BLOCK
  5
232
330
231
100
AcDbEntity
  8
0
100
AcDbBlockBegin
  2
SW_CENTERMARKSYMBOL_2
 70
     0
 10
0.0
 20
0.0
 30
0.0
  3
SW_CENTERMARKSYMBOL_2
  1

  0
LINE
  5
234
330
231
100
AcDbEntity
  8
0
  6
Continuous
 62
     0
370
     0
100
AcDbLine
 10
0.0
 20
0.0
 30
0.0
 11
0.0
 21
2.5
 31
0.0
  0
LINE
  5
235
330
231
100
AcDbEntity
  8
0
  6
Continuous
 62
     0
370
     0
100
AcDbLine
 10
0.0
 20
0.0
 30
0.0
 11
-2.5
 21
0.0
 31
0.0
  0
LINE
  5
236
330
231
100
AcDbEntity
  8
0
  6
Continuous
 62
     0
370
     0
100
AcDbLine
 10
0.0
 20
0.0
 30
0.0
 11
0.0
 21
-2.5
 31
0.0
  0
LINE
  5
237
330
231
100
AcDbEntity
  8
0
  6
Continuous
 62
     0
370
     0
100
AcDbLine
 10
0.0
 20
0.0
 30
0.0
 11
2.5
 21
0.0
 31
0.0
  0
LINE
  5
238
330
231
100
AcDbEntity
  8
0
  6
Continuous
 62
     0
370
     0
100
AcDbLine
 10
0.0
 20
5.0
 30
0.0
 11
0.0
 21
21.55
 31
0.0
  0
LINE
  5
239
330
231
100
AcDbEntity
  8
0
  6
Continuous
 62
     0
370
     0
100
AcDbLine
 10
-5.0
 20
0.0
 30
0.0
 11
-21.55
 21
0.0
 31
0.0
  0
LINE
  5
23A
330
231
100
AcDbEntity
  8
0
  6
Continuous
 62
     0
370
     0
100
AcDbLine
 10
0.0
 20
-5.0
 30
0.0
 11
0.0
 21
-21.55
 31
0.0
  0
LINE
  5
23B
330
231
100
AcDbEntity
  8
0
  6
Continuous
 62
     0
370
     0
100
AcDbLine
 10
5.0
 20
0.0
 30
0.0
 11
21.55
 21
0.0
 31
0.0
  0
ENDBLK
  5
233
330
231
100
AcDbEntity
  8
0
100
AcDbBlockEnd
  0
BLOCK
  5
23E
330
23D
100
AcDbEntity
  8
0
100
AcDbBlockBegin
  2
SW_CENTERMARKSYMBOL_3
 70
     0
 10
0.0
 20
0.0
 30
0.0
  3
SW_CENTERMARKSYMBOL_3
  1

  0
LINE
  5
240
330
23D
100
AcDbEntity
  8
0
  6
Continuous
 62
     0
370
     0
100
AcDbLine
 10
0.0
 20
0.0
 30
0.0
 11
0.0
 21
2.5
 31
0.0
  0
LINE
  5
241
330
23D
100
AcDbEntity
  8
0
  6
Continuous
 62
     0
370
     0
100
AcDbLine
 10
0.0
 20
0.0
 30
0.0
 11
-2.5
 21
0.0
 31
0.0
  0
LINE
  5
242
330
23D
100
AcDbEntity
  8
0
  6
Continuous
 62
     0
370
     0
100
AcDbLine
 10
0.0
 20
0.0
 30
0.0
 11
0.0
 21
-2.5
 31
0.0
  0
LINE
  5
243
330
23D
100
AcDbEntity
  8
0
  6
Continuous
 62
     0
370
     0
100
AcDbLine
 10
0.0
 20
0.0
 30
0.0
 11
2.5
 21
0.0
 31
0.0
  0
LINE
  5
244
330
23D
100
AcDbEntity
  8
0
  6
Continuous
 62
     0
370
     0
100
AcDbLine
 10
0.0
 20
5.0
 30
0.0
 11
0.0
 21
21.55
 31
0.0
  0
LINE
  5
245
330
23D
100
AcDbEntity
  8
0
  6
Continuous
 62
     0
370
     0
100
AcDbLine
 10
-5.0
 20
0.0
 30
0.0
 11
-21.55
 21
0.0
 31
0.0
  0
LINE
  5
246
330
23D
100
AcDbEntity
  8
0
  6
Continuous
 62
     0
370
     0
100
AcDbLine
 10
0.0
 20
-5.0
 30
0.0
 11
0.0
 21
-21.55
 31
0.0
  0
LINE
  5
247
330
23D
100
AcDbEntity
  8
0
  6
Continuous
 62
     0
370
     0
100
AcDbLine
 10
5.0
 20
0.0
 30
0.0
 11
21.55
 21
0.0
 31
0.0
  0
ENDBLK
  5
23F
330
23D
100
AcDbEntity
  8
0
100
AcDbBlockEnd
  0
BLOCK
  5
260
330
25F
100
AcDbEntity
  8
0
100
AcDbBlockBegin
  2
*D24
 70
     1
 10
0.0
 20
0.0
 30
0.0
  3
*D24
  1

  0
INSERT
  5
262
330
25F
100
AcDbEntity
  8
0
  6
Continuous
 62
     7
370
     0
100
AcDbBlockReference
  2
_CLOSED
 10
308.3547587618
 20
52.4541012142
 30
-6.0341362583
 41
6.0
 42
6.0
 50
135.018173419
  0
LINE
  5
263
330
25F
100
AcDbEntity
  8
0
  6
Continuous
 62
     7
370
     0
100
AcDbLine
 10
287.7159540087
 20
80.3289496398
 30
0.0
 11
284.380614938
 21
76.9936105691
 31
0.0
  0
LINE
  5
264
330
25F
100
AcDbEntity
  8
0
  6
Continuous
 62
     7
370
     0
100
AcDbLine
 10
284.380614938
 20
76.9936105691
 30
0.0
 11
284.8825127462
 21
76.4917127609
 31
0.0
  0
LINE
  5
265
330
25F
100
AcDbEntity
  8
0
  6
Continuous
 62
     7
370
     0
100
AcDbLine
 10
287.7159540087
 20
80.3289496398
 30
0.0
 11
288.2178518169
 21
79.8270518316
 31
0.0
  0
LINE
  5
266
330
25F
100
AcDbEntity
  8
0
  6
Continuous
 62
     7
370
     0
100
AcDbLine
 10
296.1220713093
 20
71.9228323392
 30
0.0
 11
292.7867322386
 21
68.5874932685
 31
0.0
  0
LINE
  5
267
330
25F
100
AcDbEntity
  8
0
  6
Continuous
 62
     7
370
     0
100
AcDbLine
 10
292.7867322386
 20
68.5874932685
 30
0.0
 11
292.2848344304
 21
69.0893910767
 31
0.0
  0
LINE
  5
268
330
25F
100
AcDbEntity
  8
0
  6
Continuous
 62
     7
370
     0
100
AcDbLine
 10
296.1220713093
 20
71.9228323392
 30
0.0
 11
295.6201735011
 21
72.4247301474
 31
0.0
  0
LINE
  5
269
330
25F
100
AcDbEntity
  8
0
  6
Continuous
 62
     7
370
     0
100
AcDbLine
 10
308.3547587618
 20
52.4541012142
 30
0.0
 11
271.7341603343
 21
89.0514759251
 31
0.0
  0
LINE
  5
26A
330
25F
100
AcDbEntity
  8
0
  6
Continuous
 62
     7
370
     0
100
AcDbLine
 10
308.3547587618
 20
52.4541012142
 30
0.0
 11
316.8427311216
 21
43.9715116792
 31
0.0
  0
MTEXT
  5
26B
330
25F
100
AcDbEntity
  8
0
  6
Continuous
 62
     7
370
     0
100
AcDbMText
 10
276.0469721166
 20
91.1192236772
 30
0.0
 40
3.5
 41
0.0
 71
     1
 72
     1
  1
R
  7
SLDTEXTSTYLE0
 11
0.7071067811865462
 21
-0.7071067811865488
 31
0.0
 73
     1
 44
1.0
  0
MTEXT
  5
26C
330
25F
100
AcDbEntity
  8
0
  6
Continuous
 62
     7
370
     0
100
AcDbMText
 10
278.0491954583
 20
89.1170003355
 30
0.0
 40
3.5
 41
0.0
 71
     1
 72
     1
  1
10.35
  7
SLDTEXTSTYLE0
 11
0.7071067811865462
 21
-0.7071067811865488
 31
0.0
 73
     1
 44
1.0
  0
MTEXT
  5
26D
330
25F
100
AcDbEntity
  8
0
  6
Continuous
 62
     7
370
     0
100
AcDbMText
 10
288.2803956977
 20
78.8858000961
 30
0.0
 40
3.5
 41
0.0
 71
     1
 72
     1
  1
0.41
  7
SLDTEXTSTYLE0
 11
0.7071067811865462
 21
-0.7071067811865488
 31
0.0
 73
     1
 44
1.0
  0
ENDBLK
  5
261
330
25F
100
AcDbEntity
  8
0
100
AcDbBlockEnd
  0
BLOCK
  5
270
330
26F
100
AcDbEntity
  8
0
100
AcDbBlockBegin
  2
*D25
 70
     1
 10
0.0
 20
0.0
 30
0.0
  3
*D25
  1

  0
INSERT
  5
272
330
26F
100
AcDbEntity
  8
0
  6
Continuous
 62
     7
370
     0
100
AcDbBlockReference
  2
_CLOSED
 10
300.6914732104
 20
41.6639873795
 30
-6.0341362583
 41
6.0
 42
6.0
 50
270.0
  0
INSERT
  5
273
330
26F
100
AcDbEntity
  8
0
  6
Continuous
 62
     7
370
     0
100
AcDbBlockReference
  2
_CLOSED
 10
300.6914732104
 20
59.774070613
 30
-6.0341362583
 41
6.0
 42
6.0
 50
90.0
  0
LINE
  5
274
330
26F
100
AcDbEntity
  8
0
  6
Continuous
 62
     7
370
     0
100
AcDbLine
 10
295.5583960131
 20
87.5349345273
 30
0.0
 11
300.2752777619
 21
87.5349345273
 31
0.0
  0
LINE
  5
275
330
26F
100
AcDbEntity
  8
0
  6
Continuous
 62
     7
370
     0
100
AcDbLine
 10
300.2752777619
 20
87.5349345273
 30
0.0
 11
300.2752777619
 21
88.2447252146
 31
0.0
  0
LINE
  5
276
330
26F
100
AcDbEntity
  8
0
  6
Continuous
 62
     7
370
     0
100
AcDbLine
 10
295.5583960131
 20
87.5349345273
 30
0.0
 11
295.5583960131
 21
88.2447252146
 31
0.0
  0
LINE
  5
277
330
26F
100
AcDbEntity
  8
0
  6
Continuous
 62
     7
370
     0
100
AcDbLine
 10
295.5583960131
 20
99.4229796207
 30
0.0
 11
300.2752777619
 21
99.4229796207
 31
0.0
  0
LINE
  5
278
330
26F
100
AcDbEntity
  8
0
  6
Continuous
 62
     7
370
     0
100
AcDbLine
 10
300.2752777619
 20
99.4229796207
 30
0.0
 11
300.2752777619
 21
98.7131889334
 31
0.0
  0
LINE
  5
279
330
26F
100
AcDbEntity
  8
0
  6
Continuous
 62
     7
370
     0
100
AcDbLine
 10
295.5583960131
 20
99.4229796207
 30
0.0
 11
295.5583960131
 21
98.7131889334
 31
0.0
  0
LINE
  5
27A
330
26F
100
AcDbEntity
  8
0
  6
Continuous
 62
     7
370
     0
100
AcDbLine
 10
300.0347893629
 20
59.774070613
 30
0.0
 11
299.6914732104
 21
59.774070613
 31
0.0
  0
LINE
  5
27B
330
26F
100
AcDbEntity
  8
0
  6
Continuous
 62
     7
370
     0
100
AcDbLine
 10
300.6914732104
 20
41.6639873795
 30
0.0
 11
300.6914732104
 21
59.774070613
 31
0.0
  0
LINE
  5
27C
330
26F
100
AcDbEntity
  8
0
  6
Continuous
 62
     7
370
     0
100
AcDbLine
 10
300.6914732104
 20
59.774070613
 30
0.0
 11
300.6914732104
 21
102.4300609952
 31
0.0
  0
MTEXT
  5
27D
330
26F
100
AcDbEntity
  8
0
  6
Continuous
 62
     7
370
     0
100
AcDbMText
 10
296.1797362958
 20
74.4854137639
 30
0.0
 40
3.5
 41
0.0
 71
     1
 72
     1
  1
18.11
  7
SLDTEXTSTYLE0
 11
6.123233995736766E-17
 21
1.0
 31
0.0
 73
     1
 44
1.0
  0
MTEXT
  5
27E
330
26F
100
AcDbEntity
  8
0
  6
Continuous
 62
     7
370
     0
100
AcDbMText
 10
296.1797362958
 20
88.9545159018
 30
0.0
 40
3.5
 41
0.0
 71
     1
 72
     1
  1
0.71
  7
SLDTEXTSTYLE0
 11
6.123233995736766E-17
 21
1.0
 31
0.0
 73
     1
 44
1.0
  0
ENDBLK
  5
271
330
26F
100
AcDbEntity
  8
0
100
AcDbBlockEnd
  0
BLOCK
  5
281
330
280
100
AcDbEntity
  8
0
100
AcDbBlockBegin
  2
*D26
 70
     1
 10
0.0
 20
0.0
 30
0.0
  3
*D26
  1

  0
INSERT
  5
283
330
280
100
AcDbEntity
  8
0
  6
Continuous
 62
     7
370
     0
100
AcDbBlockReference
  2
_CLOSED
 10
330.7669223459
 20
52.6239873795
 30
-6.0341362583
 41
6.0
 42
6.0
 50
270.0
  0
INSERT
  5
284
330
280
100
AcDbEntity
  8
0
  6
Continuous
 62
     7
370
     0
100
AcDbBlockReference
  2
_CLOSED
 10
330.7669223459
 20
41.6639873795
 30
-6.0341362583
 41
6.0
 42
6.0
 50
90.0
  0
LINE
  5
285
330
280
100
AcDbEntity
  8
0
  6
Continuous
 62
     7
370
     0
100
AcDbLine
 10
325.6338451486
 20
75.5349345273
 30
0.0
 11
330.3507268975
 21
75.5349345273
 31
0.0
  0
LINE
  5
286
330
280
100
AcDbEntity
  8
0
  6
Continuous
 62
     7
370
     0
100
AcDbLine
 10
330.3507268975
 20
75.5349345273
 30
0.0
 11
330.3507268975
 21
76.2447252146
 31
0.0
  0
LINE
  5
287
330
280
100
AcDbEntity
  8
0
  6
Continuous
 62
     7
370
     0
100
AcDbLine
 10
325.6338451486
 20
75.5349345273
 30
0.0
 11
325.6338451486
 21
76.2447252146
 31
0.0
  0
LINE
  5
288
330
280
100
AcDbEntity
  8
0
  6
Continuous
 62
     7
370
     0
100
AcDbLine
 10
325.6338451486
 20
87.4229796207
 30
0.0
 11
330.3507268975
 21
87.4229796207
 31
0.0
  0
LINE
  5
289
330
280
100
AcDbEntity
  8
0
  6
Continuous
 62
     7
370
     0
100
AcDbLine
 10
330.3507268975
 20
87.4229796207
 30
0.0
 11
330.3507268975
 21
86.7131889334
 31
0.0
  0
LINE
  5
28A
330
280
100
AcDbEntity
  8
0
  6
Continuous
 62
     7
370
     0
100
AcDbLine
 10
325.6338451486
 20
87.4229796207
 30
0.0
 11
325.6338451486
 21
86.7131889334
 31
0.0
  0
LINE
  5
28B
330
280
100
AcDbEntity
  8
0
  6
Continuous
 62
     7
370
     0
100
AcDbLine
 10
316.5206810803
 20
52.6239873795
 30
0.0
 11
331.7669223459
 21
52.6239873795
 31
0.0
  0
LINE
  5
28C
330
280
100
AcDbEntity
  8
0
  6
Continuous
 62
     7
370
     0
100
AcDbLine
 10
330.7669223459
 20
52.6239873795
 30
0.0
 11
330.7669223459
 21
90.4300609952
 31
0.0
  0
LINE
  5
28D
330
280
100
AcDbEntity
  8
0
  6
Continuous
 62
     7
370
     0
100
AcDbLine
 10
330.7669223459
 20
52.6239873795
 30
0.0
 11
330.7669223459
 21
41.6639873795
 31
0.0
  0
LINE
  5
28E
330
280
100
AcDbEntity
  8
0
  6
Continuous
 62
     7
370
     0
100
AcDbLine
 10
330.7669223459
 20
41.6639873795
 30
0.0
 11
330.7669223459
 21
29.6639873795
 31
0.0
  0
MTEXT
  5
28F
330
280
100
AcDbEntity
  8
0
  6
Continuous
 62
     7
370
     0
100
AcDbMText
 10
326.2551854313
 20
62.4854137639
 30
0.0
 40
3.5
 41
0.0
 71
     1
 72
     1
  1
10.96
  7
SLDTEXTSTYLE0
 11
-7.044195017643634E-15
 21
1.0
 31
0.0
 73
     1
 44
1.0
  0
MTEXT
  5
290
330
280
100
AcDbEntity
  8
0
  6
Continuous
 62
     7
370
     0
100
AcDbMText
 10
326.2551854313
 20
76.9545159018
 30
0.0
 40
3.5
 41
0.0
 71
     1
 72
     1
  1
0.43
  7
SLDTEXTSTYLE0
 11
-7.044195017643634E-15
 21
1.0
 31
0.0
 73
     1
 44
1.0
  0
ENDBLK
  5
282
330
280
100
AcDbEntity
  8
0
100
AcDbBlockEnd
  0
BLOCK
  5
293
330
292
100
AcDbEntity
  8
0
100
AcDbBlockBegin
  2
*D27
 70
     1
 10
0.0
 20
0.0
 30
0.0
  3
*D27
  1

  0
INSERT
  5
295
330
292
100
AcDbEntity
  8
0
  6
Continuous
 62
     7
370
     0
100
AcDbBlockReference
  2
_CLOSED
 10
289.4940953382
 20
51.5491850721
 30
-6.0341362583
 41
6.0
 42
6.0
 50
45.0
  0
LINE
  5
296
330
292
100
AcDbEntity
  8
0
  6
Continuous
 62
     7
370
     0
100
AcDbLine
 10
264.7154814364
 20
34.015852042
 30
0.0
 11
268.0508205071
 21
30.6805129713
 31
0.0
  0
LINE
  5
297
330
292
100
AcDbEntity
  8
0
  6
Continuous
 62
     7
370
     0
100
AcDbLine
 10
268.0508205071
 20
30.6805129713
 30
0.0
 11
268.5527183153
 21
31.1824107795
 31
0.0
  0
LINE
  5
298
330
292
100
AcDbEntity
  8
0
  6
Continuous
 62
     7
370
     0
100
AcDbLine
 10
264.7154814364
 20
34.015852042
 30
0.0
 11
265.2173792446
 21
34.5177498502
 31
0.0
  0
LINE
  5
299
330
292
100
AcDbEntity
  8
0
  6
Continuous
 62
     7
370
     0
100
AcDbLine
 10
273.121598737
 20
42.4219693426
 30
0.0
 11
276.4569378077
 21
39.0866302719
 31
0.0
  0
LINE
  5
29A
330
292
100
AcDbEntity
  8
0
  6
Continuous
 62
     7
370
     0
100
AcDbLine
 10
276.4569378077
 20
39.0866302719
 30
0.0
 11
275.9550399995
 21
38.5847324637
 31
0.0
  0
LINE
  5
29B
330
292
100
AcDbEntity
  8
0
  6
Continuous
 62
     7
370
     0
100
AcDbLine
 10
273.121598737
 20
42.4219693426
 30
0.0
 11
272.6197009288
 21
41.9200715344
 31
0.0
  0
LINE
  5
29C
330
292
100
AcDbEntity
  8
0
  6
Continuous
 62
     7
370
     0
100
AcDbLine
 10
289.4940953382
 20
51.5491850721
 30
0.0
 11
256.0825839303
 21
18.1376736642
 31
0.0
  0
LINE
  5
29D
330
292
100
AcDbEntity
  8
0
  6
Continuous
 62
     7
370
     0
100
AcDbLine
 10
289.4940953382
 20
51.5491850721
 30
0.0
 11
291.643699953
 21
53.6987896869
 31
0.0
  0
MTEXT
  5
29E
330
292
100
AcDbEntity
  8
0
  6
Continuous
 62
     7
370
     0
100
AcDbMText
 10
254.0218293135
 20
22.4434923113
 30
0.0
 40
3.5
 41
0.0
 71
     1
 72
     1
  1
%%c
  7
SLDTEXTSTYLE0
 11
0.7071067811865532
 21
0.7071067811865418
 31
0.0
 73
     1
 44
1.0
  0
MTEXT
  5
29F
330
292
100
AcDbEntity
  8
0
  6
Continuous
 62
     7
370
     0
100
AcDbMText
 10
257.7525136796
 20
26.1741764304
 30
0.0
 40
3.5
 41
0.0
 71
     1
 72
     1
  1
3.04
  7
SLDTEXTSTYLE0
 11
0.7071067811865532
 21
0.7071067811865418
 31
0.0
 73
     1
 44
1.0
  0
MTEXT
  5
2A0
330
292
100
AcDbEntity
  8
0
  6
Continuous
 62
     7
370
     0
100
AcDbMText
 10
266.1586309801
 20
34.580293731
 30
0.0
 40
3.5
 41
0.0
 71
     1
 72
     1
  1
0.12
  7
SLDTEXTSTYLE0
 11
0.7071067811865532
 21
0.7071067811865418
 31
0.0
 73
     1
 44
1.0
  0
ENDBLK
  5
294
330
292
100
AcDbEntity
  8
0
100
AcDbBlockEnd
  0
BLOCK
  5
2A4
330
2A3
100
AcDbEntity
  8
0
100
AcDbBlockBegin
  2
*D28
 70
     1
 10
0.0
 20
0.0
 30
0.0
  3
*D28
  1

  0
INSERT
  5
2A6
330
2A3
100
AcDbEntity
  8
0
  6
Continuous
 62
     7
370
     0
100
AcDbBlockReference
  2
_CLOSED
 10
410.2038976456
 20
35.2257406306
 30
-6.0341362583
 41
6.0
 42
6.0
 50
360.0
  0
INSERT
  5
2A7
330
2A3
100
AcDbEntity
  8
0
  6
Continuous
 62
     7
370
     0
100
AcDbBlockReference
  2
_CLOSED
 10
311.5006810803
 20
35.2257406306
 30
-6.0341362583
 41
6.0
 42
6.0
 50
180.0
  0
LINE
  5
2A8
330
2A3
100
AcDbEntity
  8
0
  6
Continuous
 62
     7
370
     0
100
AcDbLine
 10
353.2007521609
 20
40.3588178279
 30
0.0
 11
353.2007521609
 21
35.641936079
 31
0.0
  0
LINE
  5
2A9
330
2A3
100
AcDbEntity
  8
0
  6
Continuous
 62
     7
370
     0
100
AcDbLine
 10
353.2007521609
 20
35.641936079
 30
0.0
 11
353.9105428482
 21
35.641936079
 31
0.0
  0
LINE
  5
2AA
330
2A3
100
AcDbEntity
  8
0
  6
Continuous
 62
     7
370
     0
100
AcDbLine
 10
353.2007521609
 20
40.3588178279
 30
0.0
 11
353.9105428482
 21
40.3588178279
 31
0.0
  0
LINE
  5
2AB
330
2A3
100
AcDbEntity
  8
0
  6
Continuous
 62
     7
370
     0
100
AcDbLine
 10
365.0887972543
 20
40.3588178279
 30
0.0
 11
365.0887972543
 21
35.641936079
 31
0.0
  0
LINE
  5
2AC
330
2A3
100
AcDbEntity
  8
0
  6
Continuous
 62
     7
370
     0
100
AcDbLine
 10
365.0887972543
 20
35.641936079
 30
0.0
 11
364.379006567
 21
35.641936079
 31
0.0
  0
LINE
  5
2AD
330
2A3
100
AcDbEntity
  8
0
  6
Continuous
 62
     7
370
     0
100
AcDbLine
 10
365.0887972543
 20
40.3588178279
 30
0.0
 11
364.379006567
 21
40.3588178279
 31
0.0
  0
LINE
  5
2AE
330
2A3
100
AcDbEntity
  8
0
  6
Continuous
 62
     7
370
     0
100
AcDbLine
 10
410.2038976456
 20
40.6639873795
 30
0.0
 11
410.2038976456
 21
34.2257406306
 31
0.0
  0
LINE
  5
2AF
330
2A3
100
AcDbEntity
  8
0
  6
Continuous
 62
     7
370
     0
100
AcDbLine
 10
311.5006810803
 20
47.6039873795
 30
0.0
 11
311.5006810803
 21
34.2257406306
 31
0.0
  0
LINE
  5
2B0
330
2A3
100
AcDbEntity
  8
0
  6
Continuous
 62
     7
370
     0
100
AcDbLine
 10
410.2038976456
 20
35.2257406306
 30
0.0
 11
311.5006810803
 21
35.2257406306
 31
0.0
  0
MTEXT
  5
2B1
330
2A3
100
AcDbEntity
  8
0
  6
Continuous
 62
     7
370
     0
100
AcDbMText
 10
340.1512313975
 20
39.7374775451
 30
0.0
 40
3.5
 41
0.0
 71
     1
 72
     1
  1
98.70
  7
SLDTEXTSTYLE0
 73
     1
 44
1.0
  0
MTEXT
  5
2B2
330
2A3
100
AcDbEntity
  8
0
  6
Continuous
 62
     7
370
     0
100
AcDbMText
 10
354.6203335354
 20
39.7374775451
 30
0.0
 40
3.5
 41
0.0
 71
     1
 72
     1
  1
3.89
  7
SLDTEXTSTYLE0
 73
     1
 44
1.0
  0
ENDBLK
  5
2A5
330
2A3
100
AcDbEntity
  8
0
100
AcDbBlockEnd
  0
BLOCK
  5
2B5
330
2B4
100
AcDbEntity
  8
0
100
AcDbBlockBegin
  2
*D29
 70
     1
 10
0.0
 20
0.0
 30
0.0
  3
*D29
  1

  0
INSERT
  5
2B7
330
2B4
100
AcDbEntity
  8
0
  6
Continuous
 62
     7
370
     0
100
AcDbBlockReference
  2
_CLOSED
 10
410.2038976456
 20
27.9136508917
 30
-6.0341362583
 41
6.0
 42
6.0
 50
360.0
  0
INSERT
  5
2B8
330
2B4
100
AcDbEntity
  8
0
  6
Continuous
 62
     7
370
     0
100
AcDbBlockReference
  2
_CLOSED
 10
290.5688976456
 20
27.9136508917
 30
-6.0341362583
 41
6.0
 42
6.0
 50
180.0
  0
LINE
  5
2B9
330
2B4
100
AcDbEntity
  8
0
  6
Continuous
 62
     7
370
     0
100
AcDbLine
 10
354.4950763553
 20
33.046728089
 30
0.0
 11
354.4950763553
 21
28.3298463402
 31
0.0
  0
LINE
  5
2BA
330
2B4
100
AcDbEntity
  8
0
  6
Continuous
 62
     7
370
     0
100
AcDbLine
 10
354.4950763553
 20
28.3298463402
 30
0.0
 11
355.2048670426
 21
28.3298463402
 31
0.0
  0
LINE
  5
2BB
330
2B4
100
AcDbEntity
  8
0
  6
Continuous
 62
     7
370
     0
100
AcDbLine
 10
354.4950763553
 20
33.046728089
 30
0.0
 11
355.2048670426
 21
33.046728089
 31
0.0
  0
LINE
  5
2BC
330
2B4
100
AcDbEntity
  8
0
  6
Continuous
 62
     7
370
     0
100
AcDbLine
 10
366.3831214487
 20
33.046728089
 30
0.0
 11
366.3831214487
 21
28.3298463402
 31
0.0
  0
LINE
  5
2BD
330
2B4
100
AcDbEntity
  8
0
  6
Continuous
 62
     7
370
     0
100
AcDbLine
 10
366.3831214487
 20
28.3298463402
 30
0.0
 11
365.6733307614
 21
28.3298463402
 31
0.0
  0
LINE
  5
2BE
330
2B4
100
AcDbEntity
  8
0
  6
Continuous
 62
     7
370
     0
100
AcDbLine
 10
366.3831214487
 20
33.046728089
 30
0.0
 11
365.6733307614
 21
33.046728089
 31
0.0
  0
LINE
  5
2BF
330
2B4
100
AcDbEntity
  8
0
  6
Continuous
 62
     7
370
     0
100
AcDbLine
 10
410.2038976456
 20
40.6639873795
 30
0.0
 11
410.2038976456
 21
26.9136508917
 31
0.0
  0
LINE
  5
2C0
330
2B4
100
AcDbEntity
  8
0
  6
Continuous
 62
     7
370
     0
100
AcDbLine
 10
290.5688976456
 20
47.6039873795
 30
0.0
 11
290.5688976456
 21
26.9136508917
 31
0.0
  0
LINE
  5
2C1
330
2B4
100
AcDbEntity
  8
0
  6
Continuous
 62
     7
370
     0
100
AcDbLine
 10
410.2038976456
 20
27.9136508917
 30
0.0
 11
290.5688976456
 21
27.9136508917
 31
0.0
  0
MTEXT
  5
2C2
330
2B4
100
AcDbEntity
  8
0
  6
Continuous
 62
     7
370
     0
100
AcDbMText
 10
338.8569072031
 20
32.4253878063
 30
0.0
 40
3.5
 41
0.0
 71
     1
 72
     1
  1
119.64
  7
SLDTEXTSTYLE0
 73
     1
 44
1.0
  0
MTEXT
  5
2C3
330
2B4
100
AcDbEntity
  8
0
  6
Continuous
 62
     7
370
     0
100
AcDbMText
 10
355.9146577298
 20
32.4253878063
 30
0.0
 40
3.5
 41
0.0
 71
     1
 72
     1
  1
4.71
  7
SLDTEXTSTYLE0
 73
     1
 44
1.0
  0
ENDBLK
  5
2B6
330
2B4
100
AcDbEntity
  8
0
100
AcDbBlockEnd
  0
BLOCK
  5
2C6
330
2C5
100
AcDbEntity
  8
0
100
AcDbBlockBegin
  2
*D30
 70
     1
 10
0.0
 20
0.0
 30
0.0
  3
*D30
  1

  0
INSERT
  5
2C8
330
2C5
100
AcDbEntity
  8
0
  6
Continuous
 62
     7
370
     0
100
AcDbBlockReference
  2
_CLOSED
 10
410.2038976456
 20
19.6639873795
 30
-6.0341362583
 41
6.0
 42
6.0
 50
360.0
  0
INSERT
  5
2C9
330
2C5
100
AcDbEntity
  8
0
  6
Continuous
 62
     7
370
     0
100
AcDbBlockReference
  2
_CLOSED
 10
301.0347893629
 20
19.6639873795
 30
-6.0341362583
 41
6.0
 42
6.0
 50
180.0
  0
LINE
  5
2CA
330
2C5
100
AcDbEntity
  8
0
  6
Continuous
 62
     7
370
     0
100
AcDbLine
 10
354.4950763553
 20
24.7970645769
 30
0.0
 11
354.4950763553
 21
20.080182828
 31
0.0
  0
LINE
  5
2CB
330
2C5
100
AcDbEntity
  8
0
  6
Continuous
 62
     7
370
     0
100
AcDbLine
 10
354.4950763553
 20
20.080182828
 30
0.0
 11
355.2048670426
 21
20.080182828
 31
0.0
  0
LINE
  5
2CC
330
2C5
100
AcDbEntity
  8
0
  6
Continuous
 62
     7
370
     0
100
AcDbLine
 10
354.4950763553
 20
24.7970645769
 30
0.0
 11
355.2048670426
 21
24.7970645769
 31
0.0
  0
LINE
  5
2CD
330
2C5
100
AcDbEntity
  8
0
  6
Continuous
 62
     7
370
     0
100
AcDbLine
 10
366.3831214487
 20
24.7970645769
 30
0.0
 11
366.3831214487
 21
20.080182828
 31
0.0
  0
LINE
  5
2CE
330
2C5
100
AcDbEntity
  8
0
  6
Continuous
 62
     7
370
     0
100
AcDbLine
 10
366.3831214487
 20
20.080182828
 30
0.0
 11
365.6733307614
 21
20.080182828
 31
0.0
  0
LINE
  5
2CF
330
2C5
100
AcDbEntity
  8
0
  6
Continuous
 62
     7
370
     0
100
AcDbLine
 10
366.3831214487
 20
24.7970645769
 30
0.0
 11
365.6733307614
 21
24.7970645769
 31
0.0
  0
LINE
  5
2D0
330
2C5
100
AcDbEntity
  8
0
  6
Continuous
 62
     7
370
     0
100
AcDbLine
 10
410.2038976456
 20
40.6639873795
 30
0.0
 11
410.2038976456
 21
18.6639873795
 31
0.0
  0
LINE
  5
2D1
330
2C5
100
AcDbEntity
  8
0
  6
Continuous
 62
     7
370
     0
100
AcDbLine
 10
301.0347893629
 20
58.774070613
 30
0.0
 11
301.0347893629
 21
18.6639873795
 31
0.0
  0
LINE
  5
2D2
330
2C5
100
AcDbEntity
  8
0
  6
Continuous
 62
     7
370
     0
100
AcDbLine
 10
410.2038976456
 20
19.6639873795
 30
0.0
 11
301.0347893629
 21
19.6639873795
 31
0.0
  0
MTEXT
  5
2D3
330
2C5
100
AcDbEntity
  8
0
  6
Continuous
 62
     7
370
     0
100
AcDbMText
 10
338.8569072031
 20
24.1757242941
 30
0.0
 40
3.5
 41
0.0
 71
     1
 72
     1
  1
109.17
  7
SLDTEXTSTYLE0
 73
     1
 44
1.0
  0
MTEXT
  5
2D4
330
2C5
100
AcDbEntity
  8
0
  6
Continuous
 62
     7
370
     0
100
AcDbMText
 10
355.9146577298
 20
24.1757242941
 30
0.0
 40
3.5
 41
0.0
 71
     1
 72
     1
  1
4.30
  7
SLDTEXTSTYLE0
 73
     1
 44
1.0
  0
ENDBLK
  5
2C7
330
2C5
100
AcDbEntity
  8
0
100
AcDbBlockEnd
  0
BLOCK
  5
2D6
330
2D5
100
AcDbEntity
  8
0
100
AcDbBlockBegin
  2
SW_CENTERMARKSYMBOL_4
 70
     0
 10
0.0
 20
0.0
 30
0.0
  3
SW_CENTERMARKSYMBOL_4
  1

  0
LINE
  5
2D8
330
2D5
100
AcDbEntity
  8
0
  6
Continuous
 62
     0
370
     0
100
AcDbLine
 10
0.0
 20
0.0
 30
0.0
 11
0.0
 21
2.5
 31
0.0
  0
LINE
  5
2D9
330
2D5
100
AcDbEntity
  8
0
  6
Continuous
 62
     0
370
     0
100
AcDbLine
 10
0.0
 20
0.0
 30
0.0
 11
-2.5
 21
0.0
 31
0.0
  0
LINE
  5
2DA
330
2D5
100
AcDbEntity
  8
0
  6
Continuous
 62
     0
370
     0
100
AcDbLine
 10
0.0
 20
0.0
 30
0.0
 11
0.0
 21
-2.5
 31
0.0
  0
LINE
  5
2DB
330
2D5
100
AcDbEntity
  8
0
  6
Continuous
 62
     0
370
     0
100
AcDbLine
 10
0.0
 20
0.0
 30
0.0
 11
2.5
 21
0.0
 31
0.0
  0
LINE
  5
2DC
330
2D5
100
AcDbEntity
  8
0
  6
Continuous
 62
     0
370
     0
100
AcDbLine
 10
0.0
 20
2.5
 30
0.0
 11
0.0
 21
4.02
 31
0.0
  0
LINE
  5
2DD
330
2D5
100
AcDbEntity
  8
0
  6
Continuous
 62
     0
370
     0
100
AcDbLine
 10
-2.5
 20
0.0
 30
0.0
 11
-4.02
 21
0.0
 31
0.0
  0
LINE
  5
2DE
330
2D5
100
AcDbEntity
  8
0
  6
Continuous
 62
     0
370
     0
100
AcDbLine
 10
0.0
 20
-2.5
 30
0.0
 11
0.0
 21
-4.02
 31
0.0
  0
LINE
  5
2DF
330
2D5
100
AcDbEntity
  8
0
  6
Continuous
 62
     0
370
     0
100
AcDbLine
 10
2.5
 20
0.0
 30
0.0
 11
4.02
 21
0.0
 31
0.0
  0
ENDBLK
  5
2D7
330
2D5
100
AcDbEntity
  8
0
100
AcDbBlockEnd
  0
BLOCK
  5
2E2
330
2E1
100
AcDbEntity
  8
0
100
AcDbBlockBegin
  2
SW_CENTERMARKSYMBOL_5
 70
     0
 10
0.0
 20
0.0
 30
0.0
  3
SW_CENTERMARKSYMBOL_5
  1

  0
LINE
  5
2E4
330
2E1
100
AcDbEntity
  8
0
  6
Continuous
 62
     0
370
     0
100
AcDbLine
 10
0.0
 20
0.0
 30
0.0
 11
0.0
 21
2.5
 31
0.0
  0
LINE
  5
2E5
330
2E1
100
AcDbEntity
  8
0
  6
Continuous
 62
     0
370
     0
100
AcDbLine
 10
0.0
 20
0.0
 30
0.0
 11
-2.5
 21
0.0
 31
0.0
  0
LINE
  5
2E6
330
2E1
100
AcDbEntity
  8
0
  6
Continuous
 62
     0
370
     0
100
AcDbLine
 10
0.0
 20
0.0
 30
0.0
 11
0.0
 21
-2.5
 31
0.0
  0
LINE
  5
2E7
330
2E1
100
AcDbEntity
  8
0
  6
Continuous
 62
     0
370
     0
100
AcDbLine
 10
0.0
 20
0.0
 30
0.0
 11
2.5
 21
0.0
 31
0.0
  0
LINE
  5
2E8
330
2E1
100
AcDbEntity
  8
0
  6
Continuous
 62
     0
370
     0
100
AcDbLine
 10
0.0
 20
2.5
 30
0.0
 11
0.0
 21
4.02
 31
0.0
  0
LINE
  5
2E9
330
2E1
100
AcDbEntity
  8
0
  6
Continuous
 62
     0
370
     0
100
AcDbLine
 10
-2.5
 20
0.0
 30
0.0
 11
-4.02
 21
0.0
 31
0.0
  0
LINE
  5
2EA
330
2E1
100
AcDbEntity
  8
0
  6
Continuous
 62
     0
370
     0
100
AcDbLine
 10
0.0
 20
-2.5
 30
0.0
 11
0.0
 21
-4.02
 31
0.0
  0
LINE
  5
2EB
330
2E1
100
AcDbEntity
  8
0
  6
Continuous
 62
     0
370
     0
100
AcDbLine
 10
2.5
 20
0.0
 30
0.0
 11
4.02
 21
0.0
 31
0.0
  0
ENDBLK
  5
2E3
330
2E1
100
AcDbEntity
  8
0
100
AcDbBlockEnd
  0
ENDSEC
  0
SECTION
  2
ENTITIES
  0
SPLINE
  5
62
330
1F
100
AcDbEntity
  8
0
  6
Continuous
 62
     7
370
    15
100
AcDbSpline
210
0.0
220
0.0
230
1.0
 70
    24
 71
     1
 72
     4
 73
     2
 74
     0
 42
0.00000001
 43
0.00000001
 40
0.0
 40
0.0
 40
1.0
 40
1.0
 10
419.4167590156764
 20
114.0598542066302
 30
0.0
 10
419.4167590156764
 20
132.0598542066301
 30
0.0
  0
SPLINE
  5
63
330
1F
100
AcDbEntity
  8
0
  6
Continuous
 62
     7
370
    15
100
AcDbSpline
210
0.0
220
0.0
230
1.0
 70
    24
 71
     1
 72
     4
 73
     2
 74
     0
 42
0.00000001
 43
0.00000001
 40
0.0
 40
0.0
 40
1.0
 40
1.0
 10
376.2367590156764
 20
132.0598542066301
 30
0.0
 10
376.2367590156764
 20
114.0598542066302
 30
0.0
  0
LINE
  5
64
330
1F
100
AcDbEntity
  8
0
  6
Continuous
 62
     7
370
    15
100
AcDbLine
 10
376.2367590157
 20
114.0598542066
 30
0.0
 11
419.4167590157
 21
114.0598542066
 31
0.0
  0
LINE
  5
65
330
1F
100
AcDbEntity
  8
0
  6
Continuous
 62
     7
370
    15
100
AcDbLine
 10
376.2367590157
 20
132.0598542066
 30
0.0
 11
419.4167590157
 21
132.0598542066
 31
0.0
  0
LINE
  5
66
330
1F
100
AcDbEntity
  8
0
  6
HIDDEN
 62
     7
370
     0
100
AcDbLine
 10
380.7406558185
 20
132.0598542066
 30
0.0
 11
380.7406558185
 21
114.0598542066
 31
0.0
  0
LINE
  5
67
330
1F
100
AcDbEntity
  8
0
  6
HIDDEN
 62
     7
370
     0
100
AcDbLine
 10
405.3446444225
 20
132.0598542066
 30
0.0
 11
405.3446444225
 21
114.0598542066
 31
0.0
  0
LINE
  5
68
330
1F
100
AcDbEntity
  8
0
  6
HIDDEN
 62
     7
370
     0
100
AcDbLine
 10
378.7767590157
 20
124.0598542066
 30
0.0
 11
416.8767590157
 21
124.0598542066
 31
0.0
  0
LINE
  5
69
330
1F
100
AcDbEntity
  8
0
  6
HIDDEN
 62
     7
370
     0
100
AcDbLine
 10
382.8267590157
 20
132.0598542066
 30
0.0
 11
382.8267590157
 21
114.0598542066
 31
0.0
  0
LINE
  5
6A
330
1F
100
AcDbEntity
  8
0
  6
HIDDEN
 62
     7
370
     0
100
AcDbLine
 10
398.8267590157
 20
132.0598542066
 30
0.0
 11
398.8267590157
 21
114.0598542066
 31
0.0
  0
LINE
  5
6B
330
1F
100
AcDbEntity
  8
0
  6
HIDDEN
 62
     7
370
     0
100
AcDbLine
 10
387.4142590157
 20
122.0598542066
 30
0.0
 11
394.2392590157
 21
122.0598542066
 31
0.0
  0
LINE
  5
6C
330
1F
100
AcDbEntity
  8
0
  6
HIDDEN
 62
     7
370
     0
100
AcDbLine
 10
395.8267590157
 20
122.0598542066
 30
0.0
 11
395.8267590157
 21
132.0598542066
 31
0.0
  0
LINE
  5
6D
330
1F
100
AcDbEntity
  8
0
  6
HIDDEN
 62
     7
370
     0
100
AcDbLine
 10
394.2392590157
 20
122.0598542066
 30
0.0
 11
394.2392590157
 21
132.0598542066
 31
0.0
  0
LINE
  5
6E
330
1F
100
AcDbEntity
  8
0
  6
HIDDEN
 62
     7
370
     0
100
AcDbLine
 10
394.2392590157
 20
122.0598542066
 30
0.0
 11
395.8267590157
 21
122.0598542066
 31
0.0
  0
LINE
  5
6F
330
1F
100
AcDbEntity
  8
0
  6
HIDDEN
 62
     7
370
     0
100
AcDbLine
 10
385.8267590157
 20
122.0598542066
 30
0.0
 11
385.8267590157
 21
132.0598542066
 31
0.0
  0
LINE
  5
70
330
1F
100
AcDbEntity
  8
0
  6
HIDDEN
 62
     7
370
     0
100
AcDbLine
 10
387.4142590157
 20
122.0598542066
 30
0.0
 11
387.4142590157
 21
132.0598542066
 31
0.0
  0
LINE
  5
71
330
1F
100
AcDbEntity
  8
0
  6
HIDDEN
 62
     7
370
     0
100
AcDbLine
 10
385.8267590157
 20
122.0598542066
 30
0.0
 11
387.4142590157
 21
122.0598542066
 31
0.0
  0
LINE
  5
72
330
1F
100
AcDbEntity
  8
0
  6
HIDDEN
 62
     7
370
     0
100
AcDbLine
 10
387.4142590157
 20
122.0598542066
 30
0.0
 11
387.4142590157
 21
132.0598542066
 31
0.0
  0
LINE
  5
73
330
1F
100
AcDbEntity
  8
0
  6
HIDDEN
 62
     7
370
     0
100
AcDbLine
 10
394.2392590157
 20
122.0598542066
 30
0.0
 11
394.2392590157
 21
132.0598542066
 31
0.0
  0
CIRCLE
  5
74
330
1F
100
AcDbEntity
  8
0
  6
HIDDEN
 62
     7
370
     0
100
AcDbCircle
 10
390.2642590157
 20
126.4298542066
 30
0.0
 40
1.53000000000003
  0
LINE
  5
75
330
1F
100
AcDbEntity
  8
0
  6
HIDDEN
 62
     7
370
     0
100
AcDbLine
 10
398.8267590157
 20
129.0598542066
 30
0.0
 11
385.4267590157
 21
129.0598542066
 31
0.0
  0
LINE
  5
76
330
1F
100
AcDbEntity
  8
0
  6
HIDDEN
 62
     7
370
     0
100
AcDbLine
 10
385.4267590157
 20
114.0598542066
 30
0.0
 11
385.4267590157
 21
129.0598542066
 31
0.0
  0
LINE
  5
77
330
1F
100
AcDbEntity
  8
0
  6
HIDDEN
 62
     7
370
     0
100
AcDbLine
 10
394.2392590157
 20
122.0598542066
 30
0.0
 11
394.2392590157
 21
132.0598542066
 31
0.0
  0
LINE
  5
78
330
1F
100
AcDbEntity
  8
0
  6
HIDDEN
 62
     7
370
     0
100
AcDbLine
 10
387.4142590157
 20
122.0598542066
 30
0.0
 11
387.4142590157
 21
132.0598542066
 31
0.0
  0
LINE
  5
79
330
1F
100
AcDbEntity
  8
0
  6
HIDDEN
 62
     7
370
     0
100
AcDbLine
 10
394.2392590157
 20
122.0598542066
 30
0.0
 11
394.2392590157
 21
132.0598542066
 31
0.0
  0
LINE
  5
7A
330
1F
100
AcDbEntity
  8
0
  6
HIDDEN
 62
     7
370
     0
100
AcDbLine
 10
387.4142590157
 20
122.0598542066
 30
0.0
 11
387.4142590157
 21
132.0598542066
 31
0.0
  0
LINE
  5
7B
330
1F
100
AcDbEntity
  8
0
  6
HIDDEN
 62
     7
370
     0
100
AcDbLine
 10
405.3446444225
 20
132.0598542066
 30
0.0
 11
405.3446444225
 21
114.0598542066
 31
0.0
  0
LINE
  5
7C
330
1F
100
AcDbEntity
  8
0
  6
HIDDEN
 62
     7
370
     0
100
AcDbLine
 10
380.7406558185
 20
132.0598542066
 30
0.0
 11
380.7406558185
 21
114.0598542066
 31
0.0
  0
SPLINE
  5
7D
330
1F
100
AcDbEntity
  8
0
  6
HIDDEN
 62
     7
370
     0
100
AcDbSpline
210
0.0
220
0.0
230
1.0
 70
    24
 71
     1
 72
     4
 73
     2
 74
     0
 42
0.00000001
 43
0.00000001
 40
0.0
 40
0.0
 40
1.0
 40
1.0
 10
416.8767590156764
 20
114.0598542066302
 30
0.0
 10
416.8767590156764
 20
124.0598542066301
 30
0.0
  0
SPLINE
  5
7E
330
1F
100
AcDbEntity
  8
0
  6
HIDDEN
 62
     7
370
     0
100
AcDbSpline
210
0.0
220
0.0
230
1.0
 70
    24
 71
     1
 72
     4
 73
     2
 74
     0
 42
0.00000001
 43
0.00000001
 40
0.0
 40
0.0
 40
1.0
 40
1.0
 10
378.7767590156764
 20
124.0598542066301
 30
0.0
 10
378.7767590156764
 20
114.0598542066302
 30
0.0
  0
SPLINE
  5
7F
330
1F
100
AcDbEntity
  8
0
  6
HIDDEN
 62
     7
370
     0
100
AcDbSpline
210
0.0
220
0.0
230
1.0
 70
    24
 71
     1
 72
     4
 73
     2
 74
     0
 42
0.00000001
 43
0.00000001
 40
0.0
 40
0.0
 40
1.0
 40
1.0
 10
400.8267590156764
 20
124.0598542066301
 30
0.0
 10
400.8267590156764
 20
132.0598542066301
 30
0.0
  0
SPLINE
  5
80
330
1F
100
AcDbEntity
  8
0
  6
HIDDEN
 62
     7
370
     0
100
AcDbSpline
210
0.0
220
0.0
230
1.0
 70
    24
 71
     1
 72
     4
 73
     2
 74
     0
 42
0.00000001
 43
0.00000001
 40
0.0
 40
0.0
 40
1.0
 40
1.0
 10
394.8267590156764
 20
132.0598542066301
 30
0.0
 10
394.8267590156764
 20
124.0598542066301
 30
0.0
  0
SPLINE
  5
81
330
1F
100
AcDbEntity
  8
0
  6
HIDDEN
 62
     7
370
     0
100
AcDbSpline
210
0.0
220
0.0
230
1.0
 70
    24
 71
     1
 72
     4
 73
     2
 74
     0
 42
0.00000001
 43
0.00000001
 40
0.0
 40
0.0
 40
1.0
 40
1.0
 10
382.8267590156764
 20
119.5798542066302
 30
0.0
 10
385.4267590156763
 20
119.5798542066302
 30
0.0
  0
SPLINE
  5
82
330
1F
100
AcDbEntity
  8
0
  6
HIDDEN
 62
     7
370
     0
100
AcDbSpline
210
0.0
220
0.0
230
1.0
 70
    24
 71
     1
 72
     4
 73
     2
 74
     0
 42
0.00000001
 43
0.00000001
 40
0.0
 40
0.0
 40
1.0
 40
1.0
 10
385.4267590156763
 20
122.6198542066301
 30
0.0
 10
382.8267590156764
 20
122.6198542066301
 30
0.0
  0
SPLINE
  5
83
330
1F
100
AcDbEntity
  8
0
  6
HIDDEN
 62
     7
370
     0
100
AcDbSpline
210
0.0
220
0.0
230
1.0
 70
    24
 71
     1
 72
     4
 73
     2
 74
     0
 42
0.00000001
 43
0.00000001
 40
0.0
 40
0.0
 40
1.0
 40
1.0
 10
385.4267590156763
 20
124.3017709731264
 30
0.0
 10
382.8267590156764
 20
124.3017709731264
 30
0.0
  0
DIMENSION
  5
84
330
1F
100
AcDbEntity
  8
0
  6
Continuous
 62
     7
370
     0
100
AcDbDimension
  2
*D2
 10
390.2642590157
 20
143.6914236132
 30
0.0
 11
395.108688275
 21
143.6914236132
 31
0.0
 70
   160
 71
     2
 42
-1.0
  3
SLDDIMSTYLE0
100
AcDbAlignedDimension
 13
395.8267590157
 23
132.0598542066
 33
0.0
 14
390.2642590157
 24
126.4298542066
 34
0.0
100
AcDbRotatedDimension
  0
DIMENSION
  5
A0
330
1F
100
AcDbEntity
  8
0
  6
Continuous
 62
     7
370
     0
100
AcDbDimension
  2
*D3
 10
401.0017590157
 20
99.9385187092
 30
0.0
 11
389.4000765076
 21
99.9385187092
 31
0.0
 70
   160
 71
     2
 42
-1.0
  3
SLDDIMSTYLE0
100
AcDbAlignedDimension
 13
397.8267590157
 23
114.0598542066
 33
0.0
 14
401.0017590157
 24
114.0598542066
 34
0.0
100
AcDbRotatedDimension
  0
DIMENSION
  5
B3
330
1F
100
AcDbEntity
  8
0
  6
Continuous
 62
     7
370
     0
100
AcDbDimension
  2
*D4
 10
385.8267590157
 20
109.5594409358
 30
0.0
 11
342.2367590157
 21
109.5594409358
 31
0.0
 70
   160
 71
     2
 42
-1.0
  3
SLDDIMSTYLE0
100
AcDbAlignedDimension
 13
397.8267590157
 23
114.0598542066
 33
0.0
 14
385.8267590157
 24
114.0598542066
 34
0.0
100
AcDbRotatedDimension
  0
DIMENSION
  5
C6
330
1F
100
AcDbEntity
  8
0
  6
Continuous
 62
     7
370
     0
100
AcDbDimension
  2
*D5
 10
423.0886353043
 20
124.0598542066
 30
0.0
 11
423.0886353043
 21
86.0598542066
 31
0.0
 70
   160
 71
     2
 42
-1.0
  3
SLDDIMSTYLE0
100
AcDbAlignedDimension
 13
419.4167590157
 23
114.0598542066
 33
0.0
 14
416.8767590157
 24
124.0598542066
 34
0.0
 50
90.0
100
AcDbRotatedDimension
  0
CIRCLE
  5
D9
330
1F
100
AcDbEntity
  8
0
  6
Continuous
 62
     7
100
AcDbCircle
 10
138.6658478783
 20
145.6616633348
 30
0.0
 40
19.05
  0
CIRCLE
  5
DA
330
1F
100
AcDbEntity
  8
0
  6
Continuous
 62
     7
100
AcDbCircle
 10
313.6658478783
 20
145.6616633348
 30
0.0
 40
19.04999999999997
  0
ARC
  5
DB
330
1F
100
AcDbEntity
  8
0
  6
Continuous
 62
     7
100
AcDbCircle
 10
138.6658478783
 20
145.6616633348
 30
0.0
 40
21.59000000000002
100
AcDbArc
 50
52.3155695709
 51
339.622041065
  0
ARC
  5
DC
330
1F
100
AcDbEntity
  8
0
  6
Continuous
 62
     7
100
AcDbCircle
 10
313.6658478783
 20
145.6616633348
 30
0.0
 40
21.59000000000005
100
AcDbArc
 50
200.377958935
 51
127.6844304291
  0
CIRCLE
  5
DD
330
1F
100
AcDbEntity
  8
0
  6
Continuous
 62
     7
100
AcDbCircle
 10
138.6658478783
 20
145.6616633348
 30
0.0
 40
2.999999999999993
  0
CIRCLE
  5
DE
330
1F
100
AcDbEntity
  8
0
  6
Continuous
 62
     7
100
AcDbCircle
 10
313.6658478783
 20
145.6616633348
 30
0.0
 40
2.999999999999966
  0
ARC
  5
DF
330
1F
100
AcDbEntity
  8
0
  6
Continuous
 62
     7
100
AcDbCircle
 10
157.977194284
 20
170.6616633348
 30
0.0
 40
9.99999999999999
100
AcDbArc
 50
232.3155695709
 51
270.0
  0
ARC
  5
E0
330
1F
100
AcDbEntity
  8
0
  6
Continuous
 62
     7
100
AcDbCircle
 10
168.2788196981
 20
134.6616633348
 30
0.0
 40
10.00000000000002
100
AcDbArc
 50
90.0
 51
159.622041065
  0
ARC
  5
E1
330
1F
100
AcDbEntity
  8
0
  6
Continuous
 62
     7
100
AcDbCircle
 10
284.0528760585
 20
134.6616633348
 30
0.0
 40
10.0
100
AcDbArc
 50
20.377958935
 51
90.0
  0
ARC
  5
E2
330
1F
100
AcDbEntity
  8
0
  6
Continuous
 62
     7
100
AcDbCircle
 10
294.3545014726
 20
170.6616633348
 30
0.0
 40
9.999999999999972
100
AcDbArc
 50
270.0
 51
307.6844304291
  0
LINE
  5
E3
330
1F
100
AcDbEntity
  8
0
  6
Continuous
 62
     7
100
AcDbLine
 10
157.977194284
 20
160.6616633348
 30
0.0
 11
294.3545014726
 21
160.6616633348
 31
0.0
  0
LINE
  5
E4
330
1F
100
AcDbEntity
  8
0
  6
CENTERX2
 62
     7
100
AcDbLine
 10
138.6658478783
 20
145.6616633348
 30
0.0
 11
313.6658478783
 21
145.6616633348
 31
0.0
  0
LINE
  5
E5
330
1F
100
AcDbEntity
  8
0
  6
Continuous
 62
     7
100
AcDbLine
 10
168.2788196981
 20
144.6616633348
 30
0.0
 11
284.0528760585
 21
144.6616633348
 31
0.0
  0
LINE
  5
E6
330
1F
100
AcDbEntity
  8
0
  6
Continuous
 62
     7
370
    15
100
AcDbLine
 10
209.0208478783
 20
149.2491633348
 30
0.0
 11
209.0208478783
 21
156.0741633348
 31
0.0
  0
ARC
  5
E7
330
1F
100
AcDbEntity
  8
0
  6
Continuous
 62
     7
370
    15
100
AcDbCircle
 10
207.4333478783
 20
156.0741633348
 30
0.0
 40
1.587500000000034
100
AcDbArc
 50
0.0
 51
90.0
  0
LINE
  5
E8
330
1F
100
AcDbEntity
  8
0
  6
Continuous
 62
     7
370
    15
100
AcDbLine
 10
207.4333478783
 20
157.6616633348
 30
0.0
 11
172.6083478783
 21
157.6616633348
 31
0.0
  0
ARC
  5
E9
330
1F
100
AcDbEntity
  8
0
  6
Continuous
 62
     7
370
    15
100
AcDbCircle
 10
172.6083478783
 20
156.0741633348
 30
0.0
 40
1.587500000000006
100
AcDbArc
 50
90.0
 51
180.0
  0
LINE
  5
EA
330
1F
100
AcDbEntity
  8
0
  6
Continuous
 62
     7
370
    15
100
AcDbLine
 10
171.0208478783
 20
156.0741633348
 30
0.0
 11
171.0208478783
 21
149.2491633348
 31
0.0
  0
LINE
  5
EB
330
1F
100
AcDbEntity
  8
0
  6
Continuous
 62
     7
370
    15
100
AcDbLine
 10
244.8983478783
 20
147.6616633348
 30
0.0
 11
279.7233478783
 21
147.6616633348
 31
0.0
  0
ARC
  5
EC
330
1F
100
AcDbEntity
  8
0
  6
Continuous
 62
     7
370
    15
100
AcDbCircle
 10
279.7233478783
 20
149.2491633348
 30
0.0
 40
1.587500000000034
100
AcDbArc
 50
270.0
 51
0.0
  0
LINE
  5
ED
330
1F
100
AcDbEntity
  8
0
  6
Continuous
 62
     7
370
    15
100
AcDbLine
 10
281.3108478783
 20
149.2491633348
 30
0.0
 11
281.3108478783
 21
156.0741633348
 31
0.0
  0
ARC
  5
EE
330
1F
100
AcDbEntity
  8
0
  6
Continuous
 62
     7
370
    15
100
AcDbCircle
 10
279.7233478783
 20
156.0741633348
 30
0.0
 40
1.587500000000006
100
AcDbArc
 50
0.0
 51
90.0
  0
LINE
  5
EF
330
1F
100
AcDbEntity
  8
0
  6
Continuous
 62
     7
370
    15
100
AcDbLine
 10
279.7233478783
 20
157.6616633348
 30
0.0
 11
244.8983478783
 21
157.6616633348
 31
0.0
  0
ARC
  5
F0
330
1F
100
AcDbEntity
  8
0
  6
Continuous
 62
     7
370
    15
100
AcDbCircle
 10
244.8983478783
 20
156.0741633348
 30
0.0
 40
1.587500000000034
100
AcDbArc
 50
90.0
 51
180.0
  0
ARC
  5
F1
330
1F
100
AcDbEntity
  8
0
  6
Continuous
 62
     7
370
    15
100
AcDbCircle
 10
244.8983478783
 20
149.2491633348
 30
0.0
 40
1.587500000000006
100
AcDbArc
 50
180.0
 51
270.0
  0
CIRCLE
  5
F2
330
1F
100
AcDbEntity
  8
0
  6
Continuous
 62
     7
370
    15
100
AcDbCircle
 10
313.6658478783
 20
145.6616633348
 30
0.0
 40
3.0
  0
CIRCLE
  5
F3
330
1F
100
AcDbEntity
  8
0
  6
Continuous
 62
     7
370
    15
100
AcDbCircle
 10
138.6658478783
 20
145.6616633348
 30
0.0
 40
3.0
  0
LINE
  5
F4
330
1F
100
AcDbEntity
  8
0
  6
Continuous
 62
     7
370
    15
100
AcDbLine
 10
243.3108478783
 20
156.0741633348
 30
0.0
 11
243.3108478783
 21
149.2491633348
 31
0.0
  0
LINE
  5
F5
330
1F
100
AcDbEntity
  8
0
  6
Continuous
 62
     7
370
    15
100
AcDbLine
 10
168.2788196981
 20
144.6616633348
 30
0.0
 11
284.0528760585
 21
144.6616633348
 31
0.0
  0
ARC
  5
F6
330
1F
100
AcDbEntity
  8
0
  6
Continuous
 62
     7
370
    15
100
AcDbCircle
 10
168.2788196981
 20
134.6616633348
 30
0.0
 40
10.0
100
AcDbArc
 50
90.0
 51
159.622041065
  0
ARC
  5
F7
330
1F
100
AcDbEntity
  8
0
  6
Continuous
 62
     7
370
    15
100
AcDbCircle
 10
138.6658478783
 20
145.6616633348
 30
0.0
 40
21.59000000000002
100
AcDbArc
 50
52.3155695709
 51
339.622041065
  0
ARC
  5
F8
330
1F
100
AcDbEntity
  8
0
  6
Continuous
 62
     7
370
    15
100
AcDbCircle
 10
157.977194284
 20
170.6616633348
 30
0.0
 40
9.99999999999999
100
AcDbArc
 50
232.3155695709
 51
270.0
  0
LINE
  5
F9
330
1F
100
AcDbEntity
  8
0
  6
Continuous
 62
     7
370
    15
100
AcDbLine
 10
157.977194284
 20
160.6616633348
 30
0.0
 11
294.3545014726
 21
160.6616633348
 31
0.0
  0
ARC
  5
FA
330
1F
100
AcDbEntity
  8
0
  6
Continuous
 62
     7
370
    15
100
AcDbCircle
 10
294.3545014726
 20
170.6616633348
 30
0.0
 40
10.00000000000001
100
AcDbArc
 50
270.0
 51
307.6844304291
  0
ARC
  5
FB
330
1F
100
AcDbEntity
  8
0
  6
Continuous
 62
     7
370
    15
100
AcDbCircle
 10
313.6658478783
 20
145.6616633348
 30
0.0
 40
21.59000000000002
100
AcDbArc
 50
200.377958935
 51
127.6844304291
  0
ARC
  5
FC
330
1F
100
AcDbEntity
  8
0
  6
Continuous
 62
     7
370
    15
100
AcDbCircle
 10
172.6083478783
 20
149.2491633348
 30
0.0
 40
1.587500000000006
100
AcDbArc
 50
180.0
 51
270.0
  0
LINE
  5
FD
330
1F
100
AcDbEntity
  8
0
  6
Continuous
 62
     7
370
    15
100
AcDbLine
 10
172.6083478783
 20
147.6616633348
 30
0.0
 11
207.4333478783
 21
147.6616633348
 31
0.0
  0
ARC
  5
FE
330
1F
100
AcDbEntity
  8
0
  6
Continuous
 62
     7
370
    15
100
AcDbCircle
 10
207.4333478783
 20
149.2491633348
 30
0.0
 40
1.587500000000006
100
AcDbArc
 50
270.0
 51
0.0
  0
ARC
  5
FF
330
1F
100
AcDbEntity
  8
0
  6
Continuous
 62
     7
370
    15
100
AcDbCircle
 10
284.0528760585
 20
134.6616633348
 30
0.0
 40
10.0
100
AcDbArc
 50
20.377958935
 51
90.0
  0
DIMENSION
  5
100
330
1F
100
AcDbEntity
  8
0
  6
Continuous
 62
     7
370
     0
100
AcDbDimension
  2
*D6
 10
184.8754317466
 20
157.6616633348
 30
0.0
 11
184.8754317466
 21
179.0603251256
 31
0.0
 70
   160
 71
     2
 42
-1.0
  3
SLDDIMSTYLE0
100
AcDbAlignedDimension
 13
138.6658478783
 23
145.6616633348
 33
0.0
 14
172.6083478783
 24
157.6616633348
 34
0.0
 50
90.0
100
AcDbRotatedDimension
  0
DIMENSION
  5
111
330
1F
100
AcDbEntity
  8
0
  6
Continuous
 62
     7
370
     0
100
AcDbDimension
  2
*D7
 10
193.984179001
 20
147.6616633348
 30
0.0
 11
193.984179001
 21
179.0603251256
 31
0.0
 70
   160
 71
     2
 42
-1.0
  3
SLDDIMSTYLE0
100
AcDbAlignedDimension
 13
138.6658478783
 23
145.6616633348
 33
0.0
 14
207.4333478783
 24
147.6616633348
 34
0.0
 50
90.0
100
AcDbRotatedDimension
  0
DIMENSION
  5
122
330
1F
100
AcDbEntity
  8
0
  6
Continuous
 62
     7
370
     0
100
AcDbDimension
  2
*D8
 10
207.4333478783
 20
156.0741633348
 30
0.0
 11
221.7353655668
 21
170.3761810233
 31
0.0
 70
   164
  1
<>
 71
     1
 42
-1.0
  3
SLDDIMSTYLE1
100
AcDbRadialDimension
 15
208.5558798934
 25
157.1966953499
 35
0.0
 40
0.0
  0
DIMENSION
  5
133
330
1F
100
AcDbEntity
  8
0
  6
Continuous
 62
     7
370
     0
100
AcDbDimension
  2
*D9
 10
273.4869950206
 20
147.6616633348
 30
0.0
 11
273.4869950206
 21
128.7078810343
 31
0.0
 70
   160
 71
     2
 42
-1.0
  3
SLDDIMSTYLE0
100
AcDbAlignedDimension
 13
279.7233478783
 23
157.6616633348
 33
0.0
 14
279.7233478783
 24
147.6616633348
 34
0.0
 50
90.0
100
AcDbRotatedDimension
  0
DIMENSION
  5
144
330
1F
100
AcDbEntity
  8
0
  6
Continuous
 62
     7
370
     0
100
AcDbDimension
  2
*D10
 10
243.3108478783
 20
126.4291562083
 30
0.0
 11
255.8268776194
 21
126.4291562083
 31
0.0
 70
   160
 71
     2
 42
-1.0
  3
SLDDIMSTYLE0
100
AcDbAlignedDimension
 13
281.3108478783
 23
149.2491633348
 33
0.0
 14
243.3108478783
 24
149.2491633348
 34
0.0
100
AcDbRotatedDimension
  0
DIMENSION
  5
157
330
1F
100
AcDbEntity
  8
0
  6
Continuous
 62
     7
370
     0
100
AcDbDimension
  2
*D11
 10
243.3108478783
 20
133.1137367186
 30
0.0
 11
218.6551788961
 21
133.1137367186
 31
0.0
 70
   160
 71
     2
 42
-1.0
  3
SLDDIMSTYLE2
100
AcDbAlignedDimension
 13
226.1658478783
 23
145.6616633348
 33
0.0
 14
243.3108478783
 24
149.2491633348
 34
0.0
100
AcDbRotatedDimension
  0
MTEXT
  5
16A
330
1F
100
AcDbEntity
  8
0
  6
Continuous
 62
     7
370
     0
100
AcDbMText
 10
292.7682356454
 20
177.926404413
 30
0.0
 40
3.5
 41
0.0
 71
     1
 72
     1
  1
Top View
  7
SLDTEXTSTYLE0
 73
     1
 44
1.0
  0
INSERT
  5
176
330
1F
100
AcDbEntity
  8
0
  6
Continuous
 62
     7
370
     0
100
AcDbBlockReference
  2
SW_CENTERMARKSYMBOL_0
 10
313.6658478783
 20
145.6616633348
 30
0.0
  0
INSERT
  5
182
330
1F
100
AcDbEntity
  8
0
  6
Continuous
 62
     7
370
     0
100
AcDbBlockReference
  2
SW_CENTERMARKSYMBOL_1
 10
138.6658478783
 20
145.6616633348
 30
0.0
  0
CIRCLE
  5
183
330
1F
100
AcDbEntity
  8
0
  6
Continuous
 62
     7
100
AcDbCircle
 10
139.136535747
 20
230.6850780614
 30
0.0
 40
19.05000000000003
  0
CIRCLE
  5
184
330
1F
100
AcDbEntity
  8
0
  6
Continuous
 62
     7
100
AcDbCircle
 10
314.136535747
 20
230.6850780614
 30
0.0
 40
19.05000000000003
  0
ARC
  5
185
330
1F
100
AcDbEntity
  8
0
  6
Continuous
 62
     7
100
AcDbCircle
 10
139.136535747
 20
230.6850780614
 30
0.0
 40
21.59000000000002
100
AcDbArc
 50
20.377958935
 51
307.6844304291
  0
ARC
  5
186
330
1F
100
AcDbEntity
  8
0
  6
Continuous
 62
     7
100
AcDbCircle
 10
314.136535747
 20
230.6850780614
 30
0.0
 40
21.59000000000002
100
AcDbArc
 50
232.3155695709
 51
159.622041065
  0
CIRCLE
  5
187
330
1F
100
AcDbEntity
  8
0
  6
Continuous
 62
     7
100
AcDbCircle
 10
139.136535747
 20
230.6850780614
 30
0.0
 40
3.00000000000002
  0
CIRCLE
  5
188
330
1F
100
AcDbEntity
  8
0
  6
Continuous
 62
     7
100
AcDbCircle
 10
314.136535747
 20
230.6850780614
 30
0.0
 40
3.00000000000002
  0
ARC
  5
189
330
1F
100
AcDbEntity
  8
0
  6
Continuous
 62
     7
100
AcDbCircle
 10
158.4478821527
 20
205.6850780614
 30
0.0
 40
10.00000000000001
100
AcDbArc
 50
90.0
 51
127.6844304291
  0
ARC
  5
18A
330
1F
100
AcDbEntity
  8
0
  6
Continuous
 62
     7
100
AcDbCircle
 10
168.7495075668
 20
241.6850780614
 30
0.0
 40
10.00000000000002
100
AcDbArc
 50
200.377958935
 51
270.0
  0
ARC
  5
18B
330
1F
100
AcDbEntity
  8
0
  6
Continuous
 62
     7
100
AcDbCircle
 10
284.5235639272
 20
241.6850780614
 30
0.0
 40
10.0
100
AcDbArc
 50
270.0
 51
339.622041065
  0
ARC
  5
18C
330
1F
100
AcDbEntity
  8
0
  6
Continuous
 62
     7
100
AcDbCircle
 10
294.8251893413
 20
205.6850780614
 30
0.0
 40
10.0
100
AcDbArc
 50
52.3155695709
 51
90.0
  0
LINE
  5
18D
330
1F
100
AcDbEntity
  8
0
  6
Continuous
 62
     7
100
AcDbLine
 10
158.4478821527
 20
215.6850780614
 30
0.0
 11
294.8251893413
 21
215.6850780614
 31
0.0
  0
LINE
  5
18E
330
1F
100
AcDbEntity
  8
0
  6
CENTERX2
 62
     7
100
AcDbLine
 10
139.136535747
 20
230.6850780614
 30
0.0
 11
314.136535747
 21
230.6850780614
 31
0.0
  0
LINE
  5
18F
330
1F
100
AcDbEntity
  8
0
  6
Continuous
 62
     7
100
AcDbLine
 10
168.7495075668
 20
231.6850780614
 30
0.0
 11
284.5235639272
 21
231.6850780614
 31
0.0
  0
LINE
  5
190
330
1F
100
AcDbEntity
  8
0
  6
Continuous
 62
     7
370
    15
100
AcDbLine
 10
241.241535747
 20
231.6850780614
 30
0.0
 11
241.241535747
 21
218.2850780614
 31
0.0
  0
LINE
  5
191
330
1F
100
AcDbEntity
  8
0
  6
Continuous
 62
     7
370
    15
100
AcDbLine
 10
241.241535747
 20
231.6850780614
 30
0.0
 11
284.5235639272
 21
231.6850780614
 31
0.0
  0
ARC
  5
192
330
1F
100
AcDbEntity
  8
0
  6
Continuous
 62
     7
370
    15
100
AcDbCircle
 10
284.5235639272
 20
241.6850780614
 30
0.0
 40
10.0
100
AcDbArc
 50
270.0
 51
339.622041065
  0
ARC
  5
193
330
1F
100
AcDbEntity
  8
0
  6
Continuous
 62
     7
370
    15
100
AcDbCircle
 10
314.136535747
 20
230.6850780614
 30
0.0
 40
21.59000000000002
100
AcDbArc
 50
232.3155695709
 51
159.622041065
  0
ARC
  5
194
330
1F
100
AcDbEntity
  8
0
  6
Continuous
 62
     7
370
    15
100
AcDbCircle
 10
294.8251893413
 20
205.6850780614
 30
0.0
 40
10.0
100
AcDbArc
 50
52.3155695709
 51
90.0
  0
LINE
  5
195
330
1F
100
AcDbEntity
  8
0
  6
Continuous
 62
     7
370
    15
100
AcDbLine
 10
236.9088421349
 20
215.6850780614
 30
0.0
 11
294.8251893413
 21
215.6850780614
 31
0.0
  0
LINE
  5
196
330
1F
100
AcDbEntity
  8
0
  6
Continuous
 62
     7
370
    15
100
AcDbLine
 10
236.9088421349
 20
218.2850780614
 30
0.0
 11
236.9088421349
 21
215.6850780614
 31
0.0
  0
LINE
  5
197
330
1F
100
AcDbEntity
  8
0
  6
Continuous
 62
     7
370
    15
100
AcDbLine
 10
241.241535747
 20
218.2850780614
 30
0.0
 11
236.9088421349
 21
218.2850780614
 31
0.0
  0
CIRCLE
  5
198
330
1F
100
AcDbEntity
  8
0
  6
Continuous
 62
     7
370
    15
100
AcDbCircle
 10
314.136535747
 20
230.6850780614
 30
0.0
 40
19.05000000000001
  0
CIRCLE
  5
199
330
1F
100
AcDbEntity
  8
0
  6
Continuous
 62
     7
370
    15
100
AcDbCircle
 10
139.136535747
 20
230.6850780614
 30
0.0
 40
19.05000000000001
  0
ARC
  5
19A
330
1F
100
AcDbEntity
  8
0
  6
Continuous
 62
     7
370
    15
100
AcDbCircle
 10
139.136535747
 20
230.6850780614
 30
0.0
 40
21.58999999999999
100
AcDbArc
 50
20.377958935
 51
307.6844304291
  0
ARC
  5
19B
330
1F
100
AcDbEntity
  8
0
  6
Continuous
 62
     7
370
    15
100
AcDbCircle
 10
168.7495075668
 20
241.6850780614
 30
0.0
 40
10.00000000000003
100
AcDbArc
 50
200.377958935
 51
270.0
  0
LINE
  5
19C
330
1F
100
AcDbEntity
  8
0
  6
Continuous
 62
     7
370
    15
100
AcDbLine
 10
168.7495075668
 20
231.6850780614
 30
0.0
 11
212.031535747
 21
231.6850780614
 31
0.0
  0
LINE
  5
19D
330
1F
100
AcDbEntity
  8
0
  6
Continuous
 62
     7
370
    15
100
AcDbLine
 10
212.031535747
 20
231.6850780614
 30
0.0
 11
212.031535747
 21
218.2850780614
 31
0.0
  0
LINE
  5
19E
330
1F
100
AcDbEntity
  8
0
  6
Continuous
 62
     7
370
    15
100
AcDbLine
 10
216.2060127938
 20
218.2850780614
 30
0.0
 11
212.031535747
 21
218.2850780614
 31
0.0
  0
LINE
  5
19F
330
1F
100
AcDbEntity
  8
0
  6
Continuous
 62
     7
370
    15
100
AcDbLine
 10
216.2060127938
 20
218.2850780614
 30
0.0
 11
216.2060127938
 21
215.6850780614
 31
0.0
  0
ARC
  5
1A0
330
1F
100
AcDbEntity
  8
0
  6
Continuous
 62
     7
370
    15
100
AcDbCircle
 10
158.4478821527
 20
205.6850780614
 30
0.0
 40
10.00000000000001
100
AcDbArc
 50
90.0
 51
127.6844304291
  0
LINE
  5
1A1
330
1F
100
AcDbEntity
  8
0
  6
Continuous
 62
     7
370
    15
100
AcDbLine
 10
158.4478821527
 20
215.6850780614
 30
0.0
 11
216.2060127938
 21
215.6850780614
 31
0.0
  0
LINE
  5
1A2
330
1F
100
AcDbEntity
  8
0
  6
Continuous
 62
     7
370
    15
100
AcDbLine
 10
236.9088421349
 20
218.2850780614
 30
0.0
 11
216.2060127938
 21
218.2850780614
 31
0.0
  0
LINE
  5
1A3
330
1F
100
AcDbEntity
  8
0
  6
Continuous
 62
     7
370
    15
100
AcDbLine
 10
216.2060127938
 20
215.6850780614
 30
0.0
 11
236.9088421349
 21
215.6850780614
 31
0.0
  0
CIRCLE
  5
1A4
330
1F
100
AcDbEntity
  8
0
  6
Continuous
 62
     7
370
    15
100
AcDbCircle
 10
314.136535747
 20
230.6850780614
 30
0.0
 40
3.0
  0
CIRCLE
  5
1A5
330
1F
100
AcDbEntity
  8
0
  6
Continuous
 62
     7
370
    15
100
AcDbCircle
 10
139.136535747
 20
230.6850780614
 30
0.0
 40
3.0
  0
LINE
  5
1A6
330
1F
100
AcDbEntity
  8
0
  6
Continuous
 62
     7
370
    15
100
AcDbLine
 10
212.031535747
 20
231.6850780614
 30
0.0
 11
241.241535747
 21
231.6850780614
 31
0.0
  0
DIMENSION
  5
1A7
330
1F
100
AcDbEntity
  8
0
  6
Continuous
 62
     7
370
     0
100
AcDbDimension
  2
*D14
 10
314.136535747
 20
230.6850780614
 30
0.0
 11
368.9720869679
 21
230.6850880579
 31
0.0
 70
   164
  1
<>
 71
     1
 42
-1.0
  3
SLDDIMSTYLE3
100
AcDbRadialDimension
 15
335.726535747
 25
230.68507806
 35
0.0
 40
0.0
  0
DIMENSION
  5
1B8
330
1F
100
AcDbEntity
  8
0
  6
Continuous
 62
     7
370
     0
100
AcDbDimension
  2
*D15
 10
297.6387518042
 20
221.1600780626
 30
0.0
 11
350.7283624959
 21
251.811383308
 31
0.0
 70
   163
  1
<>
 71
     1
 42
-1.0
  3
SLDDIMSTYLE4
100
AcDbDiametricDimension
 15
330.6343196898
 25
240.2100780602
 35
0.0
 40
0.0
  0
DIMENSION
  5
1C9
330
1F
100
AcDbEntity
  8
0
  6
Continuous
 62
     7
370
     0
100
AcDbDimension
  2
*D16
 10
311.5384595358
 20
232.1850780616
 30
0.0
 11
348.4513630591
 21
210.8734190456
 31
0.0
 70
   163
  1
<>
 71
     1
 42
-1.0
  3
SLDDIMSTYLE5
100
AcDbDiametricDimension
 15
316.7346119583
 25
229.1850780612
 35
0.0
 40
0.0
  0
DIMENSION
  5
1DA
330
1F
100
AcDbEntity
  8
0
  6
Continuous
 62
     7
370
     0
100
AcDbDimension
  2
*D17
 10
314.136535747
 20
199.0950780614
 30
0.0
 11
203.1756818415
 21
199.0950780614
 31
0.0
 70
   160
 71
     2
 42
-1.0
  3
SLDDIMSTYLE2
100
AcDbAlignedDimension
 13
139.136535747
 23
230.6850780614
 33
0.0
 14
314.136535747
 24
230.6850780614
 34
0.0
100
AcDbRotatedDimension
  0
DIMENSION
  5
1EB
330
1F
100
AcDbEntity
  8
0
  6
Continuous
 62
     7
370
     0
100
AcDbDimension
  2
*D18
 10
176.0490924513
 20
215.6850780614
 30
0.0
 11
176.0490924513
 21
191.1975780614
 31
0.0
 70
   160
 71
     2
 42
-1.0
  3
SLDDIMSTYLE2
100
AcDbAlignedDimension
 13
139.136535747
 23
230.6850780614
 33
0.0
 14
158.4478821527
 24
215.6850780614
 34
0.0
 50
90.0
100
AcDbRotatedDimension
  0
DIMENSION
  5
1FB
330
1F
100
AcDbEntity
  8
0
  6
Continuous
 62
     7
370
     0
100
AcDbDimension
  2
*D19
 10
187.7415878781
 20
231.6850780614
 30
0.0
 11
187.7415878781
 21
235.9666518731
 31
0.0
 70
   160
 71
     2
 42
-1.0
  3
SLDDIMSTYLE0
100
AcDbAlignedDimension
 13
139.136535747
 23
230.6850780614
 33
0.0
 14
168.7495075668
 24
231.6850780614
 34
0.0
 50
90.0
100
AcDbRotatedDimension
  0
DIMENSION
  5
20C
330
1F
100
AcDbEntity
  8
0
  6
Continuous
 62
     7
370
     0
100
AcDbDimension
  2
*D20
 10
215.8028596509
 20
233.8600780614
 30
0.0
 11
215.8028596509
 21
251.811373308
 31
0.0
 70
   160
 71
     2
 42
-1.0
  3
SLDDIMSTYLE0
100
AcDbAlignedDimension
 13
139.136535747
 23
230.6850780614
 33
0.0
 14
224.255285747
 24
233.8600780614
 34
0.0
 50
90.0
100
AcDbRotatedDimension
  0
DIMENSION
  5
21E
330
1F
100
AcDbEntity
  8
0
  6
Continuous
 62
     7
370
     0
100
AcDbDimension
  2
*D21
 10
241.241535747
 20
207.780574444
 30
0.0
 11
267.1619556943
 21
207.780574444
 31
0.0
 70
   160
 71
     2
 42
-1.0
  3
SLDDIMSTYLE2
100
AcDbAlignedDimension
 13
212.031535747
 23
218.2850780614
 33
0.0
 14
241.241535747
 24
218.2850780614
 34
0.0
100
AcDbRotatedDimension
  0
MTEXT
  5
230
330
1F
100
AcDbEntity
  8
0
  6
Continuous
 62
     7
370
     0
100
AcDbMText
 10
285.1478515132
 20
266.6814666592
 30
0.0
 40
3.5
 41
0.0
 71
     1
 72
     1
  1
Bottom View
  7
SLDTEXTSTYLE0
 73
     1
 44
1.0
  0
INSERT
  5
23C
330
1F
100
AcDbEntity
  8
0
  6
Continuous
 62
     7
370
     0
100
AcDbBlockReference
  2
SW_CENTERMARKSYMBOL_2
 10
314.136535747
 20
230.6850780614
 30
0.0
  0
INSERT
  5
248
330
1F
100
AcDbEntity
  8
0
  6
Continuous
 62
     7
370
     0
100
AcDbBlockReference
  2
SW_CENTERMARKSYMBOL_3
 10
139.136535747
 20
230.6850780614
 30
0.0
  0
SPLINE
  5
249
330
1F
100
AcDbEntity
  8
0
  6
Continuous
 62
     7
370
    15
100
AcDbSpline
210
0.0
220
0.0
230
1.0
 70
    24
 71
     1
 72
     4
 73
     2
 74
     0
 42
0.00000001
 43
0.00000001
 40
0.0
 40
0.0
 40
1.0
 40
1.0
 10
410.2038976456055
 20
41.66398737953399
 30
0.0
 10
410.2038976456055
 20
59.663987379534
 30
0.0
  0
SPLINE
  5
24A
330
1F
100
AcDbEntity
  8
0
  6
Continuous
 62
     7
370
    15
100
AcDbSpline
210
0.0
220
0.0
230
1.0
 70
    24
 71
     1
 72
     4
 73
     2
 74
     0
 42
0.00000001
 43
0.00000001
 40
0.0
 40
0.0
 40
1.0
 40
1.0
 10
192.0238976456055
 20
59.663987379534
 30
0.0
 10
192.0238976456055
 20
41.66398737953399
 30
0.0
  0
LINE
  5
24B
330
1F
100
AcDbEntity
  8
0
  6
Continuous
 62
     7
370
    15
100
AcDbLine
 10
410.2038976456
 20
41.6639873795
 30
0.0
 11
375.415671343
 21
41.6639873795
 31
0.0
  0
LINE
  5
24C
330
1F
100
AcDbEntity
  8
0
  6
Continuous
 62
     7
370
    15
100
AcDbLine
 10
375.415671343
 20
41.6639873795
 30
0.0
 11
375.415671343
 21
59.6639873795
 31
0.0
  0
LINE
  5
24D
330
1F
100
AcDbEntity
  8
0
  6
Continuous
 62
     7
370
    15
100
AcDbLine
 10
410.2038976456
 20
59.6639873795
 30
0.0
 11
375.415671343
 21
59.6639873795
 31
0.0
  0
LINE
  5
24E
330
1F
100
AcDbEntity
  8
0
  6
Continuous
 62
     7
370
    15
100
AcDbLine
 10
226.8121239482
 20
41.6639873795
 30
0.0
 11
226.8121239482
 21
59.6639873795
 31
0.0
  0
LINE
  5
24F
330
1F
100
AcDbEntity
  8
0
  6
Continuous
 62
     7
370
    15
100
AcDbLine
 10
226.8121239482
 20
41.6639873795
 30
0.0
 11
192.0238976456
 21
41.6639873795
 31
0.0
  0
LINE
  5
250
330
1F
100
AcDbEntity
  8
0
  6
Continuous
 62
     7
370
    15
100
AcDbLine
 10
226.8121239482
 20
59.6639873795
 30
0.0
 11
192.0238976456
 21
59.6639873795
 31
0.0
  0
LINE
  5
251
330
1F
100
AcDbEntity
  8
0
  6
Continuous
 62
     7
370
    15
100
AcDbLine
 10
369.3025512399
 20
41.6639873795
 30
0.0
 11
369.3025512399
 21
59.6639873795
 31
0.0
  0
LINE
  5
252
330
1F
100
AcDbEntity
  8
0
  6
Continuous
 62
     7
370
    15
100
AcDbLine
 10
375.415671343
 20
41.6639873795
 30
0.0
 11
369.3025512399
 21
41.6639873795
 31
0.0
  0
LINE
  5
253
330
1F
100
AcDbEntity
  8
0
  6
Continuous
 62
     7
370
    15
100
AcDbLine
 10
375.415671343
 20
59.6639873795
 30
0.0
 11
369.3025512399
 21
59.6639873795
 31
0.0
  0
LINE
  5
254
330
1F
100
AcDbEntity
  8
0
  6
Continuous
 62
     7
370
    15
100
AcDbLine
 10
232.9252440513
 20
41.6639873795
 30
0.0
 11
232.9252440513
 21
59.6639873795
 31
0.0
  0
LINE
  5
255
330
1F
100
AcDbEntity
  8
0
  6
Continuous
 62
     7
370
    15
100
AcDbLine
 10
226.8121239482
 20
41.6639873795
 30
0.0
 11
232.9252440513
 21
41.6639873795
 31
0.0
  0
LINE
  5
256
330
1F
100
AcDbEntity
  8
0
  6
Continuous
 62
     7
370
    15
100
AcDbLine
 10
226.8121239482
 20
59.6639873795
 30
0.0
 11
232.9252440513
 21
59.6639873795
 31
0.0
  0
CIRCLE
  5
257
330
1F
100
AcDbEntity
  8
0
  6
Continuous
 62
     7
370
    15
100
AcDbCircle
 10
311.5006810803
 20
52.6239873795
 30
0.0
 40
1.519999999999982
  0
CIRCLE
  5
258
330
1F
100
AcDbEntity
  8
0
  6
Continuous
 62
     7
370
    15
100
AcDbCircle
 10
290.5688976456
 20
52.6239873795
 30
0.0
 40
1.519999999999982
  0
ARC
  5
259
330
1F
100
AcDbEntity
  8
0
  6
Continuous
 62
     7
370
    15
100
AcDbCircle
 10
301.0347893629
 20
59.774070613
 30
0.0
 40
10.35200000000007
100
AcDbArc
 50
180.6092951657
 51
359.3907048343
  0
LINE
  5
25A
330
1F
100
AcDbEntity
  8
0
  6
Continuous
 62
     7
370
    15
100
AcDbLine
 10
232.9252440513
 20
41.6639873795
 30
0.0
 11
369.3025512399
 21
41.6639873795
 31
0.0
  0
LINE
  5
25B
330
1F
100
AcDbEntity
  8
0
  6
Continuous
 62
     7
370
    15
100
AcDbLine
 10
232.9252440513
 20
59.6639873795
 30
0.0
 11
290.6833746924
 21
59.6639873795
 31
0.0
  0
LINE
  5
25C
330
1F
100
AcDbEntity
  8
0
  6
Continuous
 62
     7
370
    15
100
AcDbLine
 10
311.3862040335
 20
59.6639873795
 30
0.0
 11
369.3025512399
 21
59.6639873795
 31
0.0
  0
DIMENSION
  5
25D
330
1F
100
AcDbEntity
  8
0
  6
Continuous
 62
     7
370
     0
100
AcDbDimension
  2
*D24
 10
301.0347893629
 20
59.774070613
 30
0.0
 11
283.0818302438
 21
77.7270497322
 31
0.0
 70
   164
  1
<>
 71
     1
 42
-1.0
  3
SLDDIMSTYLE6
100
AcDbRadialDimension
 15
308.3547587618
 25
52.4541012142
 35
0.0
 40
0.0
  0
DIMENSION
  5
26E
330
1F
100
AcDbEntity
  8
0
  6
Continuous
 62
     7
370
     0
100
AcDbDimension
  2
*D25
 10
300.6914732104
 20
59.774070613
 30
0.0
 11
300.6914732104
 21
87.6639873795
 31
0.0
 70
   160
 71
     2
 42
-1.0
  3
SLDDIMSTYLE2
100
AcDbAlignedDimension
 13
226.8121239482
 23
41.6639873795
 33
0.0
 14
301.0347893629
 24
59.774070613
 34
0.0
 50
90.0
100
AcDbRotatedDimension
  0
DIMENSION
  5
27F
330
1F
100
AcDbEntity
  8
0
  6
Continuous
 62
     7
370
     0
100
AcDbDimension
  2
*D26
 10
330.7669223459
 20
41.6639873795
 30
0.0
 11
330.7669223459
 21
75.6639873795
 31
0.0
 70
   160
 71
     2
 42
-1.0
  3
SLDDIMSTYLE0
100
AcDbAlignedDimension
 13
315.5206810803
 23
52.6239873795
 33
0.0
 14
375.415671343
 24
41.6639873795
 34
0.0
 50
90.0
100
AcDbRotatedDimension
  0
DIMENSION
  5
291
330
1F
100
AcDbEntity
  8
0
  6
Continuous
 62
     7
370
     0
100
AcDbDimension
  2
*D27
 10
291.643699953
 20
53.6987896869
 30
0.0
 11
267.3939802579
 21
29.4490699918
 31
0.0
 70
   163
  1
<>
 71
     1
 42
-1.0
  3
SLDDIMSTYLE5
100
AcDbDiametricDimension
 15
289.4940953382
 25
51.5491850721
 35
0.0
 40
0.0
  0
DIMENSION
  5
2A1
330
1F
100
AcDbEntity
  8
0
  6
Continuous
 62
     7
370
     0
100
AcDbDimension
  2
*D28
 10
311.5006810803
 20
35.2257406306
 30
0.0
 11
353.3298050132
 21
35.2257406306
 31
0.0
 70
   160
 71
     2
 42
-1.0
  3
SLDDIMSTYLE7
100
AcDbAlignedDimension
 13
410.2038976456
 23
41.6639873795
 33
0.0
 14
311.5006810803
 24
48.6039873795
 34
0.0
 50
0.0
100
AcDbRotatedDimension
  0
DIMENSION
  5
2B3
330
1F
100
AcDbEntity
  8
0
  6
Continuous
 62
     7
370
     0
100
AcDbDimension
  2
*D29
 10
290.5688976456
 20
27.9136508917
 30
0.0
 11
353.3298050132
 21
27.9136508917
 31
0.0
 70
   160
 71
     2
 42
-1.0
  3
SLDDIMSTYLE2
100
AcDbAlignedDimension
 13
410.2038976456
 23
41.6639873795
 33
0.0
 14
290.5688976456
 24
48.6039873795
 34
0.0
 50
0.0
100
AcDbRotatedDimension
  0
DIMENSION
  5
2C4
330
1F
100
AcDbEntity
  8
0
  6
Continuous
 62
     7
370
     0
100
AcDbDimension
  2
*D30
 10
301.0347893629
 20
19.6639873795
 30
0.0
 11
353.3298050132
 21
19.6639873795
 31
0.0
 70
   160
 71
     2
 42
-1.0
  3
SLDDIMSTYLE2
100
AcDbAlignedDimension
 13
410.2038976456
 23
41.6639873795
 33
0.0
 14
301.0347893629
 24
59.774070613
 34
0.0
100
AcDbRotatedDimension
  0
INSERT
  5
2E0
330
1F
100
AcDbEntity
  8
0
  6
Continuous
 62
     7
370
     0
100
AcDbBlockReference
  2
SW_CENTERMARKSYMBOL_4
 10
311.5006810803
 20
52.6239873795
 30
0.0
  0
INSERT
  5
2EC
330
1F
100
AcDbEntity
  8
0
  6
Continuous
 62
     7
370
     0
100
AcDbBlockReference
  2
SW_CENTERMARKSYMBOL_5
 10
290.5688976456
 20
52.6239873795
 30
0.0
  0
ENDSEC
  0
SECTION
  2
OBJECTS
  0
DICTIONARY
  5
C
330
0
100
AcDbDictionary
281
     1
  3
ACAD_GROUP
350
D
  3
ACAD_LAYOUT
350
1A
  3
ACAD_MLEADERSTYLE
350
2F0
  3
ACAD_MLINESTYLE
350
17
  3
ACAD_PLOTSETTINGS
350
19
  3
ACAD_PLOTSTYLENAME
350
E
  3
ACAD_SCALELIST
350
3B
  3
ACAD_TABLESTYLE
350
2EF
  3
ACAD_VISUALSTYLE
350
2A
  3
AcDbVariableDictionary
350
2ED
  0
DICTIONARY
  5
D
102
{ACAD_REACTORS
330
C
102
}
330
C
100
AcDbDictionary
281
     1
  0
DICTIONARY
  5
1A
102
{ACAD_REACTORS
330
C
102
}
330
C
100
AcDbDictionary
281
     1
  3
Layout1
350
1E
  3
Layout2
350
26
  3
Model
350
22
  0
DICTIONARY
  5
2F0
102
{ACAD_REACTORS
330
C
102
}
330
C
100
AcDbDictionary
281
     1
  0
DICTIONARY
  5
17
102
{ACAD_REACTORS
330
C
102
}
330
C
100
AcDbDictionary
281
     1
  3
Standard
350
18
  0
DICTIONARY
  5
19
102
{ACAD_REACTORS
330
C
102
}
330
C
100
AcDbDictionary
281
     1
  0
ACDBDICTIONARYWDFLT
  5
E
102
{ACAD_REACTORS
330
C
102
}
330
C
100
AcDbDictionary
281
     1
  3
Normal
350
F
100
AcDbDictionaryWithDefault
340
F
  0
DICTIONARY
  5
3B
102
{ACAD_REACTORS
330
C
102
}
330
C
100
AcDbDictionary
281
     1
  3
A0
350
3C
  3
A1
350
3D
  3
A2
350
3E
  3
A3
350
3F
  3
A4
350
40
  3
A5
350
41
  3
A6
350
42
  3
A7
350
43
  3
A8
350
44
  3
A9
350
45
  3
B0
350
46
  3
B1
350
47
  3
B2
350
48
  3
B3
350
49
  3
B4
350
4A
  3
B5
350
4B
  3
B6
350
4C
  3
B7
350
4D
  3
B8
350
4E
  3
B9
350
4F
  3
C0
350
50
  3
C1
350
51
  3
C2
350
52
  3
C3
350
53
  3
C4
350
54
  3
C5
350
55
  3
C6
350
56
  3
C7
350
57
  3
C8
350
58
  3
C9
350
59
  3
D0
350
5A
  3
D1
350
5B
  3
D2
350
5C
  0
DICTIONARY
  5
2EF
102
{ACAD_REACTORS
330
C
102
}
330
C
100
AcDbDictionary
281
     1
  0
DICTIONARY
  5
2A
102
{ACAD_REACTORS
330
C
102
}
330
C
100
AcDbDictionary
281
     1
  3
2dWireframe
350
2F
  3
3D Hidden
350
31
  3
3dWireframe
350
30
  3
Basic
350
32
  3
Brighten
350
36
  3
ColorChange
350
3A
  3
Conceptual
350
34
  3
Dim
350
35
  3
Facepattern
350
39
  3
Flat
350
2B
  3
FlatWithEdges
350
2C
  3
Gouraud
350
2D
  3
GouraudWithEdges
350
2E
  3
Linepattern
350
38
  3
Realistic
350
33
  3
Thicken
350
37
  0
DICTIONARY
  5
2ED
102
{ACAD_REACTORS
330
C
102
}
330
C
100
AcDbDictionary
281
     1
  3
CANNOSCALE
350
2EE
  3
PSOLHEIGHT
350
2F2
  3
PSOLWIDTH
350
2F1
  0
LAYOUT
  5
1E
102
{ACAD_REACTORS
330
1A
102
}
330
1A
100
AcDbPlotSettings
  1

  2
none_device
  4

  6

 40
0.0
 41
0.0
 42
0.0
 43
0.0
 44
0.0
 45
0.0
 46
0.0
 47
0.0
 48
0.0
 49
0.0
140
0.0
141
0.0
142
1.0
143
1.0
 70
   688
 72
     0
 73
     0
 74
     5
  7

 75
    16
147
1.0
148
0.0
149
0.0
100
AcDbLayout
  1
Layout1
 70
     1
 71
     1
 10
0.0
 20
0.0
 11
420.0
 21
297.0
 12
0.0
 22
0.0
 32
0.0
 14
1.0000000000E+20
 24
1.0000000000E+20
 34
1.0000000000E+20
 15
-1.0000000000E+20
 25
-1.0000000000E+20
 35
-1.0000000000E+20
146
0.0
 13
0.0
 23
0.0
 33
0.0
 16
1.0
 26
0.0
 36
0.0
 17
0.0
 27
1.0
 37
0.0
 76
     0
330
1B
  0
LAYOUT
  5
26
102
{ACAD_REACTORS
330
1A
102
}
330
1A
100
AcDbPlotSettings
  1

  2
none_device
  4

  6

 40
0.0
 41
0.0
 42
0.0
 43
0.0
 44
0.0
 45
0.0
 46
0.0
 47
0.0
 48
0.0
 49
0.0
140
0.0
141
0.0
142
1.0
143
1.0
 70
   688
 72
     0
 73
     0
 74
     5
  7

 75
    16
147
1.0
148
0.0
149
0.0
100
AcDbLayout
  1
Layout2
 70
     1
 71
     2
 10
0.0
 20
0.0
 11
0.0
 21
0.0
 12
0.0
 22
0.0
 32
0.0
 14
0.0
 24
0.0
 34
0.0
 15
0.0
 25
0.0
 35
0.0
146
0.0
 13
0.0
 23
0.0
 33
0.0
 16
1.0
 26
0.0
 36
0.0
 17
0.0
 27
1.0
 37
0.0
 76
     0
330
23
  0
LAYOUT
  5
22
102
{ACAD_REACTORS
330
1A
102
}
330
1A
100
AcDbPlotSettings
  1

  2
none_device
  4

  6

 40
0.0
 41
0.0
 42
0.0
 43
0.0
 44
0.0
 45
0.0
 46
0.0
 47
0.0
 48
0.0
 49
0.0
140
0.0
141
0.0
142
1.0
143
1.0
 70
  1712
 72
     0
 73
     0
 74
     0
  7

 75
     0
147
1.0
148
0.0
149
0.0
100
AcDbLayout
  1
Model
 70
     1
 71
     0
 10
0.0
 20
0.0
 11
431.8
 21
279.4
 12
0.0
 22
0.0
 32
0.0
 14
0.0
 24
0.0
 34
0.0
 15
431.8
 25
279.4
 35
0.0
146
0.0
 13
0.0
 23
0.0
 33
0.0
 16
1.0
 26
0.0
 36
0.0
 17
0.0
 27
1.0
 37
0.0
 76
     0
330
1F
331
29
  0
MLINESTYLE
  5
18
102
{ACAD_REACTORS
330
17
102
}
330
17
100
AcDbMlineStyle
  2
Standard
 70
     0
  3

 62
   256
 51
90.0
 52
90.0
 71
     2
 49
0.5
 62
   256
  6
BYLAYER
 49
-0.5
 62
   256
  6
BYLAYER
  0
ACDBPLACEHOLDER
  5
F
102
{ACAD_REACTORS
330
E
102
}
330
E
  0
SCALE
  5
3C
102
{ACAD_REACTORS
330
3B
102
}
330
3B
100
AcDbScale
 70
     0
300
1:1
140
1.0
141
1.0
290
     1
  0
SCALE
  5
3D
102
{ACAD_REACTORS
330
3B
102
}
330
3B
100
AcDbScale
 70
     0
300
1:2
140
1.0
141
2.0
290
     0
  0
SCALE
  5
3E
102
{ACAD_REACTORS
330
3B
102
}
330
3B
100
AcDbScale
 70
     0
300
1:4
140
1.0
141
4.0
290
     0
  0
SCALE
  5
3F
102
{ACAD_REACTORS
330
3B
102
}
330
3B
100
AcDbScale
 70
     0
300
1:5
140
1.0
141
5.0
290
     0
  0
SCALE
  5
40
102
{ACAD_REACTORS
330
3B
102
}
330
3B
100
AcDbScale
 70
     0
300
1:8
140
1.0
141
8.0
290
     0
  0
SCALE
  5
41
102
{ACAD_REACTORS
330
3B
102
}
330
3B
100
AcDbScale
 70
     0
300
1:10
140
1.0
141
10.0
290
     0
  0
SCALE
  5
42
102
{ACAD_REACTORS
330
3B
102
}
330
3B
100
AcDbScale
 70
     0
300
1:16
140
1.0
141
16.0
290
     0
  0
SCALE
  5
43
102
{ACAD_REACTORS
330
3B
102
}
330
3B
100
AcDbScale
 70
     0
300
1:20
140
1.0
141
20.0
290
     0
  0
SCALE
  5
44
102
{ACAD_REACTORS
330
3B
102
}
330
3B
100
AcDbScale
 70
     0
300
1:30
140
1.0
141
30.0
290
     0
  0
SCALE
  5
45
102
{ACAD_REACTORS
330
3B
102
}
330
3B
100
AcDbScale
 70
     0
300
1:40
140
1.0
141
40.0
290
     0
  0
SCALE
  5
46
102
{ACAD_REACTORS
330
3B
102
}
330
3B
100
AcDbScale
 70
     0
300
1:50
140
1.0
141
50.0
290
     0
  0
SCALE
  5
47
102
{ACAD_REACTORS
330
3B
102
}
330
3B
100
AcDbScale
 70
     0
300
1:100
140
1.0
141
100.0
290
     0
  0
SCALE
  5
48
102
{ACAD_REACTORS
330
3B
102
}
330
3B
100
AcDbScale
 70
     0
300
2:1
140
2.0
141
1.0
290
     0
  0
SCALE
  5
49
102
{ACAD_REACTORS
330
3B
102
}
330
3B
100
AcDbScale
 70
     0
300
4:1
140
4.0
141
1.0
290
     0
  0
SCALE
  5
4A
102
{ACAD_REACTORS
330
3B
102
}
330
3B
100
AcDbScale
 70
     0
300
8:1
140
8.0
141
1.0
290
     0
  0
SCALE
  5
4B
102
{ACAD_REACTORS
330
3B
102
}
330
3B
100
AcDbScale
 70
     0
300
10:1
140
10.0
141
1.0
290
     0
  0
SCALE
  5
4C
102
{ACAD_REACTORS
330
3B
102
}
330
3B
100
AcDbScale
 70
     0
300
100:1
140
100.0
141
1.0
290
     0
  0
SCALE
  5
4D
102
{ACAD_REACTORS
330
3B
102
}
330
3B
100
AcDbScale
 70
     0
300
1/128" = 1'-0"
140
0.0078125
141
12.0
290
     0
  0
SCALE
  5
4E
102
{ACAD_REACTORS
330
3B
102
}
330
3B
100
AcDbScale
 70
     0
300
1/64" = 1'-0"
140
0.015625
141
12.0
290
     0
  0
SCALE
  5
4F
102
{ACAD_REACTORS
330
3B
102
}
330
3B
100
AcDbScale
 70
     0
300
1/32" = 1'-0"
140
0.03125
141
12.0
290
     0
  0
SCALE
  5
50
102
{ACAD_REACTORS
330
3B
102
}
330
3B
100
AcDbScale
 70
     0
300
1/16" = 1'-0"
140
0.0625
141
12.0
290
     0
  0
SCALE
  5
51
102
{ACAD_REACTORS
330
3B
102
}
330
3B
100
AcDbScale
 70
     0
300
3/32" = 1'-0"
140
0.09375
141
12.0
290
     0
  0
SCALE
  5
52
102
{ACAD_REACTORS
330
3B
102
}
330
3B
100
AcDbScale
 70
     0
300
1/8" = 1'-0"
140
0.125
141
12.0
290
     0
  0
SCALE
  5
53
102
{ACAD_REACTORS
330
3B
102
}
330
3B
100
AcDbScale
 70
     0
300
3/16" = 1'-0"
140
0.1875
141
12.0
290
     0
  0
SCALE
  5
54
102
{ACAD_REACTORS
330
3B
102
}
330
3B
100
AcDbScale
 70
     0
300
1/4" = 1'-0"
140
0.25
141
12.0
290
     0
  0
SCALE
  5
55
102
{ACAD_REACTORS
330
3B
102
}
330
3B
100
AcDbScale
 70
     0
300
3/8" = 1'-0"
140
0.375
141
12.0
290
     0
  0
SCALE
  5
56
102
{ACAD_REACTORS
330
3B
102
}
330
3B
100
AcDbScale
 70
     0
300
1/2" = 1'-0"
140
0.5
141
12.0
290
     0
  0
SCALE
  5
57
102
{ACAD_REACTORS
330
3B
102
}
330
3B
100
AcDbScale
 70
     0
300
3/4" = 1'-0"
140
0.75
141
12.0
290
     0
  0
SCALE
  5
58
102
{ACAD_REACTORS
330
3B
102
}
330
3B
100
AcDbScale
 70
     0
300
1" = 1'-0"
140
1.0
141
12.0
290
     0
  0
SCALE
  5
59
102
{ACAD_REACTORS
330
3B
102
}
330
3B
100
AcDbScale
 70
     0
300
1-1/2" = 1'-0"
140
1.5
141
12.0
290
     0
  0
SCALE
  5
5A
102
{ACAD_REACTORS
330
3B
102
}
330
3B
100
AcDbScale
 70
     0
300
3" = 1'-0"
140
3.0
141
12.0
290
     0
  0
SCALE
  5
5B
102
{ACAD_REACTORS
330
3B
102
}
330
3B
100
AcDbScale
 70
     0
300
6" = 1'-0"
140
6.0
141
12.0
290
     0
  0
SCALE
  5
5C
102
{ACAD_REACTORS
330
3B
102
}
330
3B
100
AcDbScale
 70
     0
300
1'-0" = 1'-0"
140
12.0
141
12.0
290
     0
  0
VISUALSTYLE
  5
2F
102
{ACAD_REACTORS
330
2A
102
}
330
2A
100
AcDbVisualStyle
  2
2dWireframe
 70
     4
 71
     0
 72
     2
 73
     0
 90
        0
 40
-0.6
 41
-30.0
 62
     5
 63
     7
 74
     1
 91
        4
 64
     7
 65
   257
 75
     1
175
     1
 42
1.0
 92
        0
 66
   257
 43
1.0
 76
     1
 77
     6
 78
     2
 67
     7
 79
     5
170
     0
171
     0
290
     0
174
     0
 93
        1
 44
0.0
173
     0
291
     0
 45
0.0
1001
ACAD
1000
AcDbSavedByObjectVersion
1070
     0
  0
VISUALSTYLE
  5
31
102
{ACAD_REACTORS
330
2A
102
}
330
2A
100
AcDbVisualStyle
  2
3D Hidden
 70
     6
 71
     1
 72
     2
 73
     2
 90
        0
 40
-0.6
 41
-30.0
 62
     5
 63
     7
 74
     2
 91
        2
 64
     7
 65
   257
 75
     2
175
     1
 42
40.0
 92
        0
 66
   257
 43
1.0
 76
     1
 77
     6
 78
     2
 67
     7
 79
     3
170
     0
171
     0
290
     0
174
     0
 93
        1
 44
0.0
173
     0
291
     0
 45
0.0
1001
ACAD
1000
AcDbSavedByObjectVersion
1070
     0
  0
VISUALSTYLE
  5
30
102
{ACAD_REACTORS
330
2A
102
}
330
2A
100
AcDbVisualStyle
  2
3dWireframe
 70
     5
 71
     0
 72
     2
 73
     0
 90
        0
 40
-0.6
 41
-30.0
 62
     5
 63
     7
 74
     1
 91
        4
 64
     7
 65
   257
 75
     1
175
     1
 42
1.0
 92
        0
 66
   257
 43
1.0
 76
     1
 77
     6
 78
     2
 67
     7
 79
     5
170
     0
171
     0
290
     0
174
     0
 93
        1
 44
0.0
173
     0
291
     0
 45
0.0
1001
ACAD
1000
AcDbSavedByObjectVersion
1070
     0
  0
VISUALSTYLE
  5
32
102
{ACAD_REACTORS
330
2A
102
}
330
2A
100
AcDbVisualStyle
  2
Basic
 70
     7
 71
     1
 72
     0
 73
     1
 90
        0
 40
-0.6
 41
-30.0
 62
     5
 63
     7
 74
     0
 91
        4
 64
     7
 65
   257
 75
     1
175
     1
 42
1.0
 92
        8
 66
     7
 43
1.0
 76
     1
 77
     6
 78
     2
 67
     7
 79
     5
170
     0
171
     0
290
     0
174
     0
 93
        1
 44
0.0
173
     0
291
     1
 45
0.0
1001
ACAD
1000
AcDbSavedByObjectVersion
1070
     0
  0
VISUALSTYLE
  5
36
102
{ACAD_REACTORS
330
2A
102
}
330
2A
100
AcDbVisualStyle
  2
Brighten
 70
    12
 71
     2
 72
     2
 73
     0
 90
        0
 40
-0.6
 41
-30.0
 62
     5
 63
     7
 74
     1
 91
        4
 64
     7
 65
   257
 75
     1
175
     1
 42
1.0
 92
        8
 66
     7
 43
1.0
 76
     1
 77
     6
 78
     2
 67
     7
 79
     5
170
     0
171
     0
290
     0
174
     0
 93
        1
 44
50.0
173
     0
291
     1
 45
0.0
1001
ACAD
1000
AcDbSavedByObjectVersion
1070
     0
  0
VISUALSTYLE
  5
3A
102
{ACAD_REACTORS
330
2A
102
}
330
2A
100
AcDbVisualStyle
  2
ColorChange
 70
    16
 71
     2
 72
     2
 73
     3
 90
        0
 40
-0.6
 41
-30.0
 62
     5
 63
     8
 74
     1
 91
        4
 64
     7
 65
   257
 75
     1
175
     1
 42
1.0
 92
        8
 66
     8
 43
1.0
 76
     1
 77
     6
 78
     2
 67
     7
 79
     5
170
     0
171
     0
290
     0
174
     0
 93
        1
 44
0.0
173
     0
291
     1
 45
0.0
1001
ACAD
1000
AcDbSavedByObjectVersion
1070
     0
  0
VISUALSTYLE
  5
34
102
{ACAD_REACTORS
330
2A
102
}
330
2A
100
AcDbVisualStyle
  2
Conceptual
 70
     9
 71
     3
 72
     2
 73
     0
 90
        0
 40
-0.6
 41
-30.0
 62
     5
 63
     7
 74
     2
 91
        2
 64
     7
 65
   257
 75
     1
175
     1
 42
40.0
 92
        8
 66
     7
 43
1.0
 76
     1
 77
     6
 78
     2
 67
     7
 79
     3
170
     0
171
     0
290
     0
174
     0
 93
        1
 44
0.0
173
     0
291
     0
 45
0.0
1001
ACAD
1000
AcDbSavedByObjectVersion
1070
     0
  0
VISUALSTYLE
  5
35
102
{ACAD_REACTORS
330
2A
102
}
330
2A
100
AcDbVisualStyle
  2
Dim
 70
    11
 71
     2
 72
     2
 73
     0
 90
        0
 40
-0.6
 41
-30.0
 62
     5
 63
     7
 74
     1
 91
        4
 64
     7
 65
   257
 75
     1
175
     1
 42
1.0
 92
        8
 66
     7
 43
1.0
 76
     1
 77
     6
 78
     2
 67
     7
 79
     5
170
     0
171
     0
290
     0
174
     0
 93
        1
 44
-50.0
173
     0
291
     1
 45
0.0
1001
ACAD
1000
AcDbSavedByObjectVersion
1070
     0
  0
VISUALSTYLE
  5
39
102
{ACAD_REACTORS
330
2A
102
}
330
2A
100
AcDbVisualStyle
  2
Facepattern
 70
    15
 71
     2
 72
     2
 73
     0
 90
        0
 40
-0.6
 41
-30.0
 62
     5
 63
     7
 74
     1
 91
        4
 64
     7
 65
   257
 75
     1
175
     1
 42
1.0
 92
        8
 66
     7
 43
1.0
 76
     1
 77
     6
 78
     2
 67
     7
 79
     5
170
     0
171
     0
290
     0
174
     0
 93
        1
 44
0.0
173
     0
291
     1
 45
0.0
1001
ACAD
1000
AcDbSavedByObjectVersion
1070
     0
  0
VISUALSTYLE
  5
2B
102
{ACAD_REACTORS
330
2A
102
}
330
2A
100
AcDbVisualStyle
  2
Flat
 70
     0
 71
     2
 72
     1
 73
     1
 90
        2
 40
-0.6
 41
30.0
 62
     5
 63
     7
 74
     0
 91
        4
 64
     7
 65
   257
 75
     1
175
     1
 42
1.0
 92
        8
 66
     7
 43
1.0
 76
     1
 77
     6
 78
     2
 67
     7
 79
     5
170
     0
171
     0
290
     0
174
     0
 93
       13
 44
0.0
173
     0
291
     1
 45
0.0
1001
ACAD
1000
AcDbSavedByObjectVersion
1070
     0
  0
VISUALSTYLE
  5
2C
102
{ACAD_REACTORS
330
2A
102
}
330
2A
100
AcDbVisualStyle
  2
FlatWithEdges
 70
     1
 71
     2
 72
     1
 73
     1
 90
        2
 40
-0.6
 41
30.0
 62
     5
 63
     7
 74
     1
 91
        4
 64
     7
 65
   257
 75
     1
175
     1
 42
1.0
 92
        0
 66
   257
 43
1.0
 76
     1
 77
     6
 78
     2
 67
     7
 79
     5
170
     0
171
     0
290
     0
174
     0
 93
       13
 44
0.0
173
     0
291
     1
 45
0.0
1001
ACAD
1000
AcDbSavedByObjectVersion
1070
     0
  0
VISUALSTYLE
  5
2D
102
{ACAD_REACTORS
330
2A
102
}
330
2A
100
AcDbVisualStyle
  2
Gouraud
 70
     2
 71
     2
 72
     2
 73
     1
 90
        2
 40
-0.6
 41
30.0
 62
     5
 63
     7
 74
     0
 91
        4
 64
     7
 65
   257
 75
     1
175
     1
 42
1.0
 92
        0
 66
     7
 43
1.0
 76
     1
 77
     6
 78
     2
 67
     7
 79
     5
170
     0
171
     0
290
     0
174
     0
 93
       13
 44
0.0
173
     0
291
     1
 45
0.0
1001
ACAD
1000
AcDbSavedByObjectVersion
1070
     0
  0
VISUALSTYLE
  5
2E
102
{ACAD_REACTORS
330
2A
102
}
330
2A
100
AcDbVisualStyle
  2
GouraudWithEdges
 70
     3
 71
     2
 72
     2
 73
     1
 90
        2
 40
-0.6
 41
30.0
 62
     5
 63
     7
 74
     1
 91
        4
 64
     7
 65
   257
 75
     1
175
     1
 42
1.0
 92
        0
 66
   257
 43
1.0
 76
     1
 77
     6
 78
     2
 67
     7
 79
     5
170
     0
171
     0
290
     0
174
     0
 93
       13
 44
0.0
173
     0
291
     1
 45
0.0
1001
ACAD
1000
AcDbSavedByObjectVersion
1070
     0
  0
VISUALSTYLE
  5
38
102
{ACAD_REACTORS
330
2A
102
}
330
2A
100
AcDbVisualStyle
  2
Linepattern
 70
    14
 71
     2
 72
     2
 73
     0
 90
        0
 40
-0.6
 41
-30.0
 62
     5
 63
     7
 74
     1
 91
        4
 64
     7
 65
   257
 75
     7
175
     7
 42
1.0
 92
        8
 66
     7
 43
1.0
 76
     1
 77
     6
 78
     2
 67
     7
 79
     5
170
     0
171
     0
290
     0
174
     0
 93
        1
 44
0.0
173
     0
291
     1
 45
0.0
1001
ACAD
1000
AcDbSavedByObjectVersion
1070
     0
  0
VISUALSTYLE
  5
33
102
{ACAD_REACTORS
330
2A
102
}
330
2A
100
AcDbVisualStyle
  2
Realistic
 70
     8
 71
     2
 72
     2
 73
     0
 90
        0
 40
-0.6
 41
-30.0
 62
     5
 63
     7
 74
     1
 91
        0
 64
     7
 65
   257
 75
     1
175
     1
 42
1.0
 92
        8
 66
     8
 43
1.0
 76
     1
 77
     6
 78
     2
 67
     7
 79
     5
170
     0
171
     0
290
     0
174
     0
 93
       13
 44
0.0
173
     0
291
     0
 45
0.0
1001
ACAD
1000
AcDbSavedByObjectVersion
1070
     0
  0
VISUALSTYLE
  5
37
102
{ACAD_REACTORS
330
2A
102
}
330
2A
100
AcDbVisualStyle
  2
Thicken
 70
    13
 71
     2
 72
     2
 73
     0
 90
        0
 40
-0.6
 41
-30.0
 62
     5
 63
     7
 74
     1
 91
        4
 64
     7
 65
   257
 75
     1
175
     1
 42
1.0
 92
       12
 66
     7
 43
1.0
 76
     1
 77
     6
 78
     2
 67
     7
 79
     5
170
     0
171
     0
290
     0
174
     0
 93
        1
 44
0.0
173
     0
291
     1
 45
0.0
1001
ACAD
1000
AcDbSavedByObjectVersion
1070
     0
  0
DICTIONARYVAR
  5
2EE
102
{ACAD_REACTORS
330
2ED
102
}
330
2ED
100
DictionaryVariables
280
     0
  1
1:1
  0
DICTIONARYVAR
  5
2F2
102
{ACAD_REACTORS
330
2ED
102
}
330
2ED
100
DictionaryVariables
280
     0
  1
80.000000
  0
DICTIONARYVAR
  5
2F1
102
{ACAD_REACTORS
330
2ED
102
}
330
2ED
100
DictionaryVariables
280
     0
  1
5.000000
  0
ENDSEC
  0
EOF
