**ABCDEFGHIJKLMNOPQRSTUVWXYZabcdefghijklmnopqrstuvwxyz**************************
**PARASOLID !"#$%&'()*+,-./:;<=>?@[\]^_`{|}~0123456789**************************
**PART1;
MC=unknown;
MC_MODEL=unknown;
MC_ID=unknown;
OS=unknown;
OS_RELEASE=unknown;
FRU=sdl_parasolid_customer_support;
APPL=Example Application;
SITE=unknown;
USER=unknown;
FORMAT=text;
GUISE=transmit;
KEY=unicode filename;
FILE=unicode filename;
DATE=unknown;
**PART2;
SCH=SCH_2200149_20000;
USFLD_SIZE=0;
**PART3;
**END_OF_HEADER*****************************************************************
T51 : TRANSMIT FILE created by modeller version 220014917 SCH_1900000_190080 12
 1 165 2 3 0 0 0 0 1e3 1e-8 0 0 0 1 0 1 1 4 5 6 7 8 9 10 0 0 0 0 81 1 2 165 11 1
 0 0 0 0 12 70 3 0 4 T1 0 0 3 20 1 13 13 13 4 4 0 1 0 14 0 0 15 0 50 5 90 0 16 1
7 0 0 +.254 .0381 .254 -1 0 0 0 0 1 30 6 120 0 18 19 0 0 +.254 .1143 0 0 0 -1 29
 7 140 0 20 21 0 .254 .0762 .254 19 8 2 0 1 15 0 22 V16 9 12 0 ?23 0 24 25 0 0 1
 18 10 8 0 26 0 27 21 ?1 17 26 0 28 29 30 10 31 32 0 33 -18 27 11 0 29 10 34 35
 ?1 29 21 139 0 10 36 7 154216917014338e-30 .0381 -1762479051592435e-31 29 36 13
8 0 37 38 21 -3110602869834275e-32 .1143 -.254 18 37 33 0 39 40 41 36 ?1 29 38 1
37 0 42 43 36 311060286983428e-31 .0381 .254 18 42 9 0 31 34 44 38 ?1 29 43 136
 0 45 46 38 -.254 .1524 -.254 18 45 58 0 47 48 49 43 ?1 29 46 135 0 41 50 43 .25
4 0 .254 18 41 40 0 51 37 52 46 ?1 29 50 134 0 53 54 46 .254 .1143 0 18 53 22 0
 55 56 57 50 ?1 29 54 133 0 49 58 50 -3110602869834275e-32 .1524 -.254 18 49 63
 0 59 45 0 54 ?1 29 58 132 0 60 61 54 .254 0 -.254 18 60 41 0 62 63 20 58 ?1 29
 61 131 0 63 64 58 -.254 0 -.254 18 63 45 0 65 52 60 61 ?1 29 64 130 0 48 66 61
 311060286983428e-31 .0762 .254 18 48 52 0 67 20 45 64 ?1 29 66 129 0 34 68 64 -
.254 .0381 .254 18 34 13 0 69 27 42 66 ?1 29 68 128 0 40 70 66 .254 .1143 -.254
 18 40 35 0 71 72 37 68 ?1 29 70 127 0 52 73 68 -.254 0 .254 18 52 43 0 74 41 63
 70 ?1 29 73 126 0 56 75 70 .254 .0762 0 18 56 20 0 76 44 53 73 ?1 29 75 125 0 5
7 77 73 0 .1143 -323898689786704e-32 18 57 24 0 78 53 79 75 ?1 29 77 124 0 44 80
 75 154216917014338e-30 .0762 -1762479051592435e-31 18 44 18 0 81 42 56 77 ?1 29
 80 123 0 72 82 77 -.254 .1524 -647797379573408e-32 18 72 28 0 83 79 40 80 ?1 29
 82 122 0 79 35 80 0 .1524 0 18 79 26 0 84 57 72 82 ?1 29 35 121 0 27 0 82 -.254
 .0381 0 17 84 0 85 86 87 79 83 88 0 89 +15 85 73 0 86 90 0 17 86 0 85 91 84 49
 92 93 0 0 +17 87 0 85 84 91 72 47 94 0 0 +17 83 0 95 96 89 72 84 88 0 97 -16 88
 27 0 ?84 94 98 99 0 0 1 17 89 0 95 83 100 79 78 101 0 92 -15 95 16 0 81 102 0 1
7 100 0 95 89 55 57 103 104 0 105 -17 78 0 106 39 92 57 89 101 0 100 +16 101 25
 0 ?78 107 93 108 0 0 1 17 92 0 106 78 109 79 86 93 0 0 -15 106 70 0 39 110 0 17
 109 0 106 92 39 49 111 112 0 86 -16 93 71 0 ?86 101 113 114 0 0 1 16 113 62 0 ?
91 93 94 19 0 0 1 30 114 114 0 93 115 108 0 +0 .1524 0 -1224646799147354e-31 0 -
1 30 115 113 0 112 116 114 0 +-3110602869834275e-32 .1524 -.254 0 -1 0 30 108 11
5 0 101 114 117 0 +0 .1524 0 0 -1 0 30 117 116 0 94 108 118 0 +-.254 .1524 -6477
97379573408e-32 0 0 1 16 94 57 0 ?87 113 88 117 0 0 1 30 118 117 0 104 117 119 0
 +-.254 .1143 -647797379573408e-32 1 0 1275191692073638e-32 16 104 23 0 ?103 120
 18 118 0 0 1 30 119 118 0 24 118 19 0 +-.254 .0381 .254 1 0 0 16 24 14 0 ?30 9
 121 119 0 0 1 30 19 119 0 113 119 6 0 +-3110602869834275e-32 .1524 -.254 -1 0 0
 17 30 0 28 26 23 42 69 24 0 122 +16 121 29 0 ?96 24 120 116 0 0 1 17 96 0 95 33
 83 27 97 121 0 0 +16 120 10 0 ?33 121 104 123 0 0 1 30 116 112 0 121 124 115 0
 +-.254 .1143 -647797379573408e-32 0 -1 0 30 124 111 0 32 125 116 0 +15421691701
4338e-30 .0381 -1762479051592435e-31 -484688536677147e-30 0 1 16 32 7 0 ?31 126
 127 124 0 0 1 30 125 110 0 128 123 124 0 +-.254 0 -.254 -1 0 0 16 128 46 0 ?65
 129 112 125 0 0 1 30 123 109 0 120 130 125 0 +-.254 .0381 -647797379573408e-32
 1 0 1275191692073638e-32 30 130 108 0 127 131 123 0 +154216917014338e-30 .0762
 -1762479051592435e-31 0 -1 0 16 127 17 0 ?132 32 0 130 0 0 1 30 131 107 0 133 1
34 130 0 +.254 .0381 .254 0 -1 0 16 133 49 0 ?135 136 107 131 0 0 1 30 134 106 0
 137 138 131 0 +.254 .0762 0 0 0 -1 16 137 68 0 ?139 140 126 134 0 0 1 30 138 10
5 0 141 142 134 0 +-.254 .1143 -.254 -1 0 0 16 141 36 0 ?143 18 144 138 0 0 1 30
 142 104 0 145 146 138 0 +-.254 0 .254 0 0 1 16 145 44 0 ?74 147 129 142 0 0 1 3
0 146 103 0 144 148 142 0 +-.254 0 .254 1 0 0 16 144 42 0 ?149 141 150 146 0 0 1
 30 148 102 0 129 151 146 0 +-.254 .0381 -.254 0 -1 0 16 129 59 0 ?152 145 128 1
48 0 0 1 30 151 101 0 140 25 148 0 +311060286983428e-31 .0762 .254 1 0 0 16 140
 51 0 ?153 98 137 151 0 0 1 30 25 100 0 9 154 151 0 +-.254 .0381 .254 0 0 1 30 1
54 99 0 98 99 25 0 +154216917014338e-30 .0762 -1762479051592435e-31 -48468853667
7147e-30 0 1 16 98 76 0 ?155 88 140 154 0 0 1 30 99 98 0 88 156 154 0 +0 .1524 0
 1 0 255038338414728e-31 30 156 97 0 107 157 99 0 +0 .1143 0 -1224646799147354e-
31 0 -1 16 107 32 0 ?39 133 101 156 0 0 1 30 157 96 0 158 159 156 0 +.254 0 .254
 0 0 -1 16 158 39 0 ?62 160 136 157 0 0 1 30 159 95 0 150 161 157 0 +31106028698
3428e-31 .0762 .254 0 -1 0 16 150 53 0 ?122 144 147 159 0 0 1 30 161 94 0 126 16
2 159 0 +154216917014338e-30 .0762 -1762479051592435e-31 -1 0 -693889390390723e-
30 16 126 19 0 ?163 137 32 161 0 0 1 30 162 93 0 147 164 161 0 +-.254 .0381 .254
 0 -1 0 16 147 54 0 ?165 150 145 162 0 0 1 30 164 92 0 160 166 162 0 +.254 .0381
 -.254 0 -1 0 16 160 65 0 ?167 112 158 164 0 0 1 30 166 91 0 136 0 164 0 +.254 .
1143 0 0 -1 0 16 136 21 0 ?168 158 133 166 0 0 1 17 168 0 169 170 171 56 55 136
 0 139 +15 169 67 0 62 16 0 17 170 0 169 135 168 20 139 137 0 0 -17 171 0 169 16
8 172 53 173 18 0 0 -17 55 0 95 100 76 53 168 136 0 103 -17 139 0 174 163 153 56
 170 137 0 0 +15 174 75 0 155 175 0 17 163 0 174 155 139 44 76 126 0 176 +17 153
 0 174 139 155 20 67 140 0 177 +17 155 0 174 153 163 48 176 98 0 0 +18 20 50 0 1
53 60 48 7 ?1 17 67 0 178 122 177 48 153 140 0 179 -17 177 0 178 67 149 20 135 1
33 0 170 -15 178 48 0 149 180 0 17 149 0 178 177 165 41 181 144 0 135 +17 135 0
 169 62 170 41 177 133 0 0 +17 62 0 169 172 135 60 51 158 0 182 +17 172 0 169 17
1 62 40 167 160 0 0 -17 51 0 183 181 182 41 62 158 0 149 -17 182 0 183 51 184 60
 65 128 0 167 -15 183 38 0 51 185 0 17 184 0 183 182 181 63 74 145 0 152 -17 65
 0 186 187 167 63 182 128 0 184 +17 167 0 186 65 71 60 172 160 0 0 +15 186 61 0
 65 188 0 17 71 0 186 167 111 40 143 141 0 173 -17 111 0 186 71 59 37 109 112 0
 0 +17 143 0 189 105 173 37 71 141 0 111 +17 173 0 189 143 103 40 171 18 0 172 +
15 189 31 0 105 190 0 17 103 0 189 173 105 53 100 104 0 171 +16 18 34 0 ?173 104
 141 6 0 0 1 17 105 0 189 103 143 57 39 107 0 0 -17 39 0 106 109 78 37 105 107 0
 143 +14 190 30 191 ?185 102 189 4 17 -0 0 185 102 22 81 1 191 162 192 190 193 0
 194 195 196 14 185 37 197 ?180 190 183 4 198 +0 0 180 190 22 14 102 15 199 ?190
 14 95 4 200 -0 0 190 14 22 50 17 89 0 190 201 5 0 +-.254 .1143 -.254 0 -1 0 0 0
 -1 13 22 3 0 0 0 0 0 0 8 14 14 14 5 202 ?102 0 28 4 203 -0 0 102 0 22 81 1 202
 152 192 14 204 0 205 206 207 15 28 6 0 26 14 0 50 203 84 0 14 208 209 0 +.254 .
0381 -.254 0 -1 0 0 0 -1 50 208 83 0 175 210 203 0 +311060286983428e-31 .0762 .2
54 0 1 0 0 0 1 50 209 85 0 188 203 198 0 +-.254 .0381 -.254 0 0 1 1 0 0 14 188 6
0 206 ?16 211 186 4 209 -0 0 16 211 22 50 198 86 0 185 209 212 0 +.254 0 -.254 0
 -1 0 0 0 -1 50 212 87 0 90 198 201 0 +-3110602869834275e-32 .1524 -.254 0 1 0 0
 0 1 14 90 72 213 ?175 110 85 4 212 +0 0 175 110 22 50 201 88 0 180 212 17 0 +-.
254 .0381 .254 0 0 -1 -1 0 0 14 180 47 194 ?211 185 178 4 201 -0 0 211 185 22 81
 1 194 160 192 180 214 0 213 191 215 14 211 55 216 ?188 180 217 4 218 -0 0 188 1
80 22 81 1 216 142 192 211 219 0 0 220 221 15 217 56 0 74 211 0 50 218 79 0 211
 0 222 0 +-.254 .0381 .254 1 0 0 0 0 -1 50 222 80 0 110 218 200 0 +0 .1524 0 -1
 0 1224646799147352e-31 1224646799147352e-31 0 1 14 110 69 220 ?90 16 106 4 222
 -0 0 90 16 22 50 200 81 0 102 222 210 0 +-.254 .1143 -647797379573408e-32 12751
91692073638e-32 0 -1 -1 0 -1275191692073638e-32 50 210 82 0 223 200 208 0 +15421
6917014338e-30 .0762 -1762479051592435e-31 1 0 484688536677147e-30 4846885366771
47e-30 0 -1 14 223 77 224 ?0 175 225 4 210 -0 0 0 175 22 81 1 224 148 192 223 22
6 0 199 205 227 14 175 74 205 ?223 90 174 4 208 +0 0 223 90 22 15 225 78 0 31 22
3 0 17 31 0 225 179 132 42 26 32 0 30 +17 179 0 225 176 31 48 122 150 0 155 -17
 132 0 225 31 176 10 81 127 0 0 +17 176 0 225 132 179 44 155 98 0 0 -17 81 0 95
 76 33 44 132 127 0 163 -17 76 0 95 55 81 56 163 126 0 168 -17 33 0 95 81 96 10
 29 120 0 132 +17 29 0 28 23 26 27 33 120 0 228 -17 23 0 28 30 29 34 228 9 0 229
 +17 228 0 217 97 229 27 23 9 0 96 -17 97 0 217 47 228 72 96 121 0 87 -17 229 0
 217 228 74 34 165 147 0 0 -17 74 0 217 229 152 52 184 145 0 181 +17 165 0 178 1
49 69 52 229 147 0 0 +17 69 0 178 165 122 34 30 24 0 23 -17 122 0 178 69 67 42 1
79 150 0 0 +17 152 0 217 74 47 63 187 129 0 0 +17 181 0 183 184 51 52 149 144 0
 165 -17 47 0 217 152 97 45 87 94 0 187 -17 187 0 186 59 65 45 152 129 0 91 -17
 59 0 186 111 187 49 91 113 0 109 -17 91 0 85 87 86 45 59 113 0 0 +81 1 205 150
 192 175 230 0 224 202 231 80 1 192 232 233 9000 0 0 0 0 3 6 0 0 0 TTTFTFTTFFFFF
F3 81 1 230 149 234 175 0 205 226 204 235 84 1 231 880 1 234 0 236 8001 0 0 0 0
 3 5 0 0 0 FFFFTFTFFFFFFF2 81 1 226 147 234 223 0 224 237 230 238 81 1 204 151 2
34 14 0 202 230 239 240 83 3 235 .796078443527222 .823529422283173 .937254905700
684 81 1 239 153 234 188 0 206 204 241 242 83 3 240 .796078443527222 .8235294222
83173 .937254905700684 81 1 206 154 192 188 239 0 202 197 243 81 1 241 155 234 1
85 0 197 239 244 245 83 3 242 .796078443527222 .823529422283173 .937254905700684
 81 1 197 156 192 185 241 0 206 213 246 81 1 244 157 234 90 0 213 241 214 247 83
 3 245 .796078443527222 .823529422283173 .937254905700684 81 1 213 158 192 90 24
4 0 197 194 248 81 1 214 159 234 180 0 194 244 193 249 83 3 247 .796078443527222
 .823529422283173 .937254905700684 81 1 193 161 234 190 0 191 214 250 251 83 3 2
49 .796078443527222 .823529422283173 .937254905700684 81 1 250 163 234 16 0 195
 193 0 252 83 3 251 .796078443527222 .823529422283173 .937254905700684 14 16 66
 195 ?110 188 169 4 5 -0 0 110 188 22 81 1 195 164 192 16 250 0 191 0 253 83 3 2
52 .796078443527222 .823529422283173 .937254905700684 84 1 253 584 1 248 384 1 2
46 084 1 243 281 1 237 145 234 102 0 199 254 226 255 83 3 238 .796078443527222 .
823529422283173 .937254905700684 81 1 199 146 192 102 237 0 220 224 256 81 1 254
 143 234 110 0 220 219 237 257 83 3 255 .796078443527222 .823529422283173 .93725
4905700684 81 1 220 144 192 110 254 0 216 199 258 81 1 219 141 234 211 0 216 0 2
54 259 83 3 257 .796078443527222 .823529422283173 .937254905700684 83 3 259 .796
078443527222 .823529422283173 .937254905700684 84 1 258 784 1 256 479 15 236 SDL
/TYSA_COLOUR79 20 233 ATTRIB_XPARASOLID_ID84 1 227 984 2 221 1184 1 215 684 1 20
7 184 2 196 1016 112 64 0 ?111 128 160 115 0 0 1 19 15 1 0 1 0 8 4 S74 20 13 3 0
 0 250 195 2 0 0 0 0 0 0 0 0 0 0 0 0 0 0 0 0 0 80 1 11 260 261 8017 0 0 0 0 0 0
 0 0 0 TTTTTTTTTTTTTF3 84 36 12 structured_light_registration_object79 13 261 SD
L/TYSA_NAME1 0 
