  0
SECTION
  2
HEADER
  9
$ACADVER
  1
AC1015
  9
$ACADMAINTVER
 70
     6
  9
$DWGCODEPAGE
  3
ANSI_1252
  9
$INSBASE
 10
0.0
 20
0.0
 30
0.0
  9
$EXTMIN
 10
0.0
 20
0.0
 30
0.0
  9
$EXTMAX
 10
279.4
 20
215.9
 30
0.0
  9
$LIMMIN
 10
0.0
 20
0.0
  9
$LIMMAX
 10
279.4
 20
215.9
  9
$ORTHOMODE
 70
     0
  9
$REGENMODE
 70
     1
  9
$FILLMODE
 70
     1
  9
$QTEXTMODE
 70
     0
  9
$MIRRTEXT
 70
     1
  9
$LTSCALE
 40
1.0
  9
$ATTMODE
 70
     1
  9
$TEXTSIZE
 40
3.175
  9
$TRACEWID
 40
1.0
  9
$TEXTSTYLE
  7
Standard
  9
$CLAYER
  8
0
  9
$CELTYPE
  6
ByLayer
  9
$CECOLOR
 62
   256
  9
$CELTSCALE
 40
1.0
  9
$DISPSILH
 70
     0
  9
$DIMSCALE
 40
1.0
  9
$DIMASZ
 40
3.302
  9
$DIMEXO
 40
1.27
  9
$DIMDLI
 40
3.75
  9
$DIMRND
 40
0.0
  9
$DIMDLE
 40
0.0
  9
$DIMEXE
 40
3.175
  9
$DIMTP
 40
0.0
  9
$DIMTM
 40
0.0
  9
$DIMTXT
 40
3.175
  9
$DIMCEN
 40
2.5
  9
$DIMTSZ
 40
0.0
  9
$DIMTOL
 70
     0
  9
$DIMLIM
 70
     0
  9
$DIMTIH
 70
     1
  9
$DIMTOH
 70
     1
  9
$DIMSE1
 70
     0
  9
$DIMSE2
 70
     0
  9
$DIMTAD
 70
     1
  9
$DIMZIN
 70
     0
  9
$DIMBLK
  1

  9
$DIMASO
 70
     1
  9
$DIMSHO
 70
     1
  9
$DIMPOST
  1

  9
$DIMAPOST
  1

  9
$DIMALT
 70
     0
  9
$DIMALTD
 70
     3
  9
$DIMALTF
 40
0.0393700787
  9
$DIMLFAC
 40
0.5
  9
$DIMTOFL
 70
     1
  9
$DIMTVP
 40
0.0
  9
$DIMTIX
 70
     0
  9
$DIMSOXD
 70
     0
  9
$DIMSAH
 70
     0
  9
$DIMBLK1
  1

  9
$DIMBLK2
  1

  9
$DIMSTYLE
  2
ISO-25
  9
$DIMCLRD
 70
     0
  9
$DIMCLRE
 70
     0
  9
$DIMCLRT
 70
     0
  9
$DIMTFAC
 40
1.0
  9
$DIMGAP
 40
1.524
  9
$DIMJUST
 70
     0
  9
$DIMSD1
 70
     0
  9
$DIMSD2
 70
     0
  9
$DIMTOLJ
 70
     0
  9
$DIMTZIN
 70
     0
  9
$DIMALTZ
 70
     0
  9
$DIMALTTZ
 70
     0
  9
$DIMUPT
 70
     0
  9
$DIMDEC
 70
     2
  9
$DIMTDEC
 70
     2
  9
$DIMALTU
 70
     2
  9
$DIMALTTD
 70
     3
  9
$DIMTXSTY
  7
Standard
  9
$DIMAUNIT
 70
     0
  9
$DIMADEC
 70
     0
  9
$DIMALTRND
 40
0.0
  9
$DIMAZIN
 70
     0
  9
$DIMDSEP
 70
    44
  9
$DIMATFIT
 70
     3
  9
$DIMFRAC
 70
     0
  9
$DIMLDRBLK
  1

  9
$DIMLUNIT
 70
     2
  9
$DIMLWD
 70
    -2
  9
$DIMLWE
 70
    -2
  9
$DIMTMOVE
 70
     0
  9
$LUNITS
 70
     2
  9
$LUPREC
 70
     2
  9
$SKETCHINC
 40
1.0
  9
$FILLETRAD
 40
10.0
  9
$AUNITS
 70
     0
  9
$AUPREC
 70
     0
  9
$MENU
  1
.
  9
$ELEVATION
 40
0.0
  9
$PELEVATION
 40
0.0
  9
$THICKNESS
 40
0.0
  9
$LIMCHECK
 70
     0
  9
$CHAMFERA
 40
10.0
  9
$CHAMFERB
 40
10.0
  9
$CHAMFERC
 40
20.0
  9
$CHAMFERD
 40
0.0
  9
$SKPOLY
 70
     0
  9
$TDCREATE
 40
2455362.377589826
  9
$TDUCREATE
 40
2455362.544256493
  9
$TDUPDATE
 40
2455362.377589838
  9
$TDUUPDATE
 40
2455362.544256505
  9
$TDINDWG
 40
0.0000000116
  9
$TDUSRTIMER
 40
0.0000000116
  9
$USRTIMER
 70
     1
  9
$ANGBASE
 50
0.0
  9
$ANGDIR
 70
     0
  9
$PDMODE
 70
     0
  9
$PDSIZE
 40
-1.0
  9
$PLINEWID
 40
0.0
  9
$SPLFRAME
 70
     0
  9
$SPLINETYPE
 70
     6
  9
$SPLINESEGS
 70
     8
  9
$HANDSEED
  5
14E
  9
$SURFTAB1
 70
     6
  9
$SURFTAB2
 70
     6
  9
$SURFTYPE
 70
     6
  9
$SURFU
 70
     6
  9
$SURFV
 70
     6
  9
$UCSBASE
  2

  9
$UCSNAME
  2

  9
$UCSORG
 10
0.0
 20
0.0
 30
0.0
  9
$UCSXDIR
 10
1.0
 20
0.0
 30
0.0
  9
$UCSYDIR
 10
0.0
 20
1.0
 30
0.0
  9
$UCSORTHOREF
  2

  9
$UCSORTHOVIEW
 70
     0
  9
$UCSORGTOP
 10
0.0
 20
0.0
 30
0.0
  9
$UCSORGBOTTOM
 10
0.0
 20
0.0
 30
0.0
  9
$UCSORGLEFT
 10
0.0
 20
0.0
 30
0.0
  9
$UCSORGRIGHT
 10
0.0
 20
0.0
 30
0.0
  9
$UCSORGFRONT
 10
0.0
 20
0.0
 30
0.0
  9
$UCSORGBACK
 10
0.0
 20
0.0
 30
0.0
  9
$PUCSBASE
  2

  9
$PUCSNAME
  2

  9
$PUCSORG
 10
0.0
 20
0.0
 30
0.0
  9
$PUCSXDIR
 10
1.0
 20
0.0
 30
0.0
  9
$PUCSYDIR
 10
0.0
 20
1.0
 30
0.0
  9
$PUCSORTHOREF
  2

  9
$PUCSORTHOVIEW
 70
     0
  9
$PUCSORGTOP
 10
0.0
 20
0.0
 30
0.0
  9
$PUCSORGBOTTOM
 10
0.0
 20
0.0
 30
0.0
  9
$PUCSORGLEFT
 10
0.0
 20
0.0
 30
0.0
  9
$PUCSORGRIGHT
 10
0.0
 20
0.0
 30
0.0
  9
$PUCSORGFRONT
 10
0.0
 20
0.0
 30
0.0
  9
$PUCSORGBACK
 10
0.0
 20
0.0
 30
0.0
  9
$USERI1
 70
     0
  9
$USERI2
 70
     0
  9
$USERI3
 70
     0
  9
$USERI4
 70
     0
  9
$USERI5
 70
     0
  9
$USERR1
 40
0.0
  9
$USERR2
 40
0.0
  9
$USERR3
 40
0.0
  9
$USERR4
 40
0.0
  9
$USERR5
 40
0.0
  9
$WORLDVIEW
 70
     1
  9
$SHADEDGE
 70
     3
  9
$SHADEDIF
 70
    70
  9
$TILEMODE
 70
     1
  9
$MAXACTVP
 70
    64
  9
$PINSBASE
 10
0.0
 20
0.0
 30
0.0
  9
$PLIMCHECK
 70
     0
  9
$PEXTMIN
 10
1.0000000000E+20
 20
1.0000000000E+20
 30
1.0000000000E+20
  9
$PEXTMAX
 10
-1.0000000000E+20
 20
-1.0000000000E+20
 30
-1.0000000000E+20
  9
$PLIMMIN
 10
0.0
 20
0.0
  9
$PLIMMAX
 10
420.0
 20
297.0
  9
$UNITMODE
 70
     0
  9
$VISRETAIN
 70
     1
  9
$PLINEGEN
 70
     0
  9
$PSLTSCALE
 70
     1
  9
$TREEDEPTH
 70
  3020
  9
$CMLSTYLE
  2
Standard
  9
$CMLJUST
 70
     0
  9
$CMLSCALE
 40
20.0
  9
$PROXYGRAPHICS
 70
     1
  9
$MEASUREMENT
 70
     1
  9
$CELWEIGHT
370
    -1
  9
$ENDCAPS
280
     0
  9
$JOINSTYLE
280
     0
  9
$LWDISPLAY
290
     1
  9
$INSUNITS
 70
     4
  9
$HYPERLINKBASE
  1

  9
$STYLESHEET
  1

  9
$XEDIT
290
     1
  9
$CEPSNTYPE
380
     0
  9
$PSTYLEMODE
290
     1
  9
$FINGERPRINTGUID
  2
{C6FE60D0-8AD8-4729-8308-65CE9017EB7B}
  9
$VERSIONGUID
  2
{FAEB1C32-E019-11D5-929B-00C0DF256EC4}
  9
$EXTNAMES
290
     1
  9
$PSVPSCALE
 40
0.0
  9
$OLESTARTUP
290
     0
  0
ENDSEC
  0
SECTION
  2
CLASSES
  0
CLASS
  1
ACDBDICTIONARYWDFLT
  2
AcDbDictionaryWithDefault
  3
ObjectDBX Classes
 90
        0
280
     0
281
     0
  0
CLASS
  1
VISUALSTYLE
  2
AcDbVisualStyle
  3
ObjectDBX Classes
 90
     4095
280
     0
281
     0
  0
CLASS
  1
DICTIONARYVAR
  2
AcDbDictionaryVar
  3
ObjectDBX Classes
 90
        0
280
     0
281
     0
  0
CLASS
  1
ACDBPLACEHOLDER
  2
AcDbPlaceHolder
  3
ObjectDBX Classes
 90
        0
280
     0
281
     0
  0
CLASS
  1
LAYOUT
  2
AcDbLayout
  3
ObjectDBX Classes
 90
        0
280
     0
281
     0
  0
ENDSEC
  0
SECTION
  2
TABLES
  0
TABLE
  2
VPORT
  5
8
330
0
100
AcDbSymbolTable
 70
     1
  0
VPORT
  5
29
330
8
100
AcDbSymbolTableRecord
100
AcDbViewportTableRecord
  2
*Active
 70
     0
 10
0.0
 20
0.0
 11
1.0
 21
1.0
 12
139.7
 22
107.95
 13
0.0
 23
0.0
 14
10.0
 24
10.0
 15
10.0
 25
10.0
 16
0.0
 26
0.0
 36
1.0
 17
0.0
 27
0.0
 37
0.0
 40
215.9
 41
1.2941176471
 42
50.0
 43
0.0
 44
0.0
 50
0.0
 51
0.0
 71
     0
 72
  2000
 73
     1
 74
     3
 75
     0
 76
     0
 77
     0
 78
     0
281
     0
 65
     1
110
0.0
120
0.0
130
0.0
111
1.0
121
0.0
131
0.0
112
0.0
122
1.0
132
0.0
 79
     0
146
0.0
  0
ENDTAB
  0
TABLE
  2
LTYPE
  5
5
330
0
100
AcDbSymbolTable
 70
     6
  0
LTYPE
  5
14
330
5
100
AcDbSymbolTableRecord
100
AcDbLinetypeTableRecord
  2
ByBlock
 70
     0
  3

 72
    65
 73
     0
 40
0.0
  0
LTYPE
  5
15
330
5
100
AcDbSymbolTableRecord
100
AcDbLinetypeTableRecord
  2
ByLayer
 70
     0
  3

 72
    65
 73
     0
 40
0.0
  0
LTYPE
  5
16
330
5
100
AcDbSymbolTableRecord
100
AcDbLinetypeTableRecord
  2
Continuous
 70
     0
  3
Solid line
 72
    65
 73
     0
 40
0.0
  0
LTYPE
  5
3B
330
5
100
AcDbSymbolTableRecord
100
AcDbLinetypeTableRecord
  2
HIDDEN
 70
     0
  3
Hidden __ __ __ __ __ __ __ __ __ __ __ __ __ __
 72
    65
 73
     2
 40
1.905
 49
1.27
 74
     0
 49
-0.635
 74
     0
  0
LTYPE
  5
3C
330
5
100
AcDbSymbolTableRecord
100
AcDbLinetypeTableRecord
  2
PHANTOM
 70
     0
  3
Phantom ______  __  __  ______  __  __  ______
 72
    65
 73
     6
 40
12.7
 49
6.35
 74
     0
 49
-1.27
 74
     0
 49
1.27
 74
     0
 49
-1.27
 74
     0
 49
1.27
 74
     0
 49
-1.27
 74
     0
  0
LTYPE
  5
3D
330
5
100
AcDbSymbolTableRecord
100
AcDbLinetypeTableRecord
  2
CENTER
 70
     0
  3
Center ____ _ ____ _ ____ _ ____ _ ____ _ ____
 72
    65
 73
     4
 40
10.16
 49
6.35
 74
     0
 49
-1.27
 74
     0
 49
1.27
 74
     0
 49
-1.27
 74
     0
  0
LTYPE
  5
3E
330
5
100
AcDbSymbolTableRecord
100
AcDbLinetypeTableRecord
  2
CENTERX2
 70
     0
  3
Center (2x) ________  __  ________  __  _____
 72
    65
 73
     4
 40
20.32
 49
12.7
 74
     0
 49
-2.54
 74
     0
 49
2.54
 74
     0
 49
-2.54
 74
     0
  0
LTYPE
  5
3F
330
5
100
AcDbSymbolTableRecord
100
AcDbLinetypeTableRecord
  2
DOT2
 70
     0
  3
Dot (.5x) ........................................
 72
    65
 73
     2
 40
0.635
 49
0.0
 74
     0
 49
-0.635
 74
     0
  0
ENDTAB
  0
TABLE
  2
LAYER
  5
2
330
0
100
AcDbSymbolTable
 70
     2
  0
LAYER
  5
10
330
2
100
AcDbSymbolTableRecord
100
AcDbLayerTableRecord
  2
0
 70
     0
 62
     7
  6
Continuous
370
    -3
390
F
  0
LAYER
  5
40
330
2
100
AcDbSymbolTableRecord
100
AcDbLayerTableRecord
  2
FORMAT
 70
     0
 62
     7
  6
Continuous
370
    -3
390
F
  0
ENDTAB
  0
TABLE
  2
STYLE
  5
3
330
0
100
AcDbSymbolTable
 70
     2
  0
STYLE
  5
11
330
3
100
AcDbSymbolTableRecord
100
AcDbTextStyleTableRecord
  2
Standard
 70
     0
 40
0.0
 41
1.0
 50
0.0
 71
     0
 42
2.5
  3
txt
  4

  0
STYLE
  5
44
330
3
100
AcDbSymbolTableRecord
100
AcDbTextStyleTableRecord
  2
SLDTEXTSTYLE0
 70
     0
 40
0.0
 41
0.75
 50
0.0
 71
     0
 42
0.2
  3
TXT
  4

  0
ENDTAB
  0
TABLE
  2
VIEW
  5
6
330
0
100
AcDbSymbolTable
 70
     0
  0
ENDTAB
  0
TABLE
  2
UCS
  5
7
330
0
100
AcDbSymbolTable
 70
     0
  0
ENDTAB
  0
TABLE
  2
APPID
  5
9
330
0
100
AcDbSymbolTable
 70
     1
  0
APPID
  5
12
330
9
100
AcDbSymbolTableRecord
100
AcDbRegAppTableRecord
  2
ACAD
 70
     0
  0
ENDTAB
  0
TABLE
  2
DIMSTYLE
  5
A
330
0
100
AcDbSymbolTable
 70
     3
100
AcDbDimStyleTable
  0
DIMSTYLE
105
27
330
A
100
AcDbSymbolTableRecord
100
AcDbDimStyleTableRecord
  2
ISO-25
 70
     0
 41
2.5
 42
0.625
 43
3.75
 44
1.25
 73
     0
 74
     0
 77
     1
 78
     8
140
2.5
141
2.5
143
0.0393700787
147
0.625
171
     3
172
     1
271
     2
272
     2
274
     3
278
    44
283
     0
284
     8
340
11
  0
DIMSTYLE
105
61
102
{ACAD_REACTORS
330
60
330
75
330
89
330
9D
330
B2
330
C6
330
ED
330
101
330
115
330
134
102
}
330
A
100
AcDbSymbolTableRecord
100
AcDbDimStyleTableRecord
  2
SLDDIMSTYLE0
 70
     0
 41
3.302
 44
0.0
 45
0.000000001
 78
    12
140
3.175
143
0.0393700787
144
0.5
147
0.79375
148
0.000000001
170
     1
173
     1
271
     2
272
     2
284
    12
340
44
  0
DIMSTYLE
105
E3
330
A
100
AcDbSymbolTableRecord
100
AcDbDimStyleTableRecord
  2
SLDDIMSTYLE1
 70
     0
 41
3.302
 44
0.0
 45
0.000000001
140
0.0
146
3.302
147
0.0
173
     1
271
     0
272
     0
340
11
  0
ENDTAB
  0
TABLE
  2
BLOCK_RECORD
  5
1
330
0
100
AcDbSymbolTable
 70
    13
  0
BLOCK_RECORD
  5
1F
330
1
100
AcDbSymbolTableRecord
100
AcDbBlockTableRecord
  2
*Model_Space
340
22
  0
BLOCK_RECORD
  5
1B
330
1
100
AcDbSymbolTableRecord
100
AcDbBlockTableRecord
  2
*Paper_Space
340
1E
  0
BLOCK_RECORD
  5
23
330
1
100
AcDbSymbolTableRecord
100
AcDbBlockTableRecord
  2
*Paper_Space0
340
26
  0
BLOCK_RECORD
  5
41
330
1
100
AcDbSymbolTableRecord
100
AcDbBlockTableRecord
  2
SW_NOTE_0
340
0
102
{BLKREFS
331
4B
102
}
  0
BLOCK_RECORD
  5
62
330
1
100
AcDbSymbolTableRecord
100
AcDbBlockTableRecord
  2
*D2
340
0
  0
BLOCK_RECORD
  5
76
330
1
100
AcDbSymbolTableRecord
100
AcDbBlockTableRecord
  2
*D3
340
0
  0
BLOCK_RECORD
  5
8A
330
1
100
AcDbSymbolTableRecord
100
AcDbBlockTableRecord
  2
*D4
340
0
  0
BLOCK_RECORD
  5
9E
330
1
100
AcDbSymbolTableRecord
100
AcDbBlockTableRecord
  2
*D5
340
0
  0
BLOCK_RECORD
  5
B3
330
1
100
AcDbSymbolTableRecord
100
AcDbBlockTableRecord
  2
*D6
340
0
  0
BLOCK_RECORD
  5
C7
330
1
100
AcDbSymbolTableRecord
100
AcDbBlockTableRecord
  2
*D7
340
0
  0
BLOCK_RECORD
  5
DB
330
1
100
AcDbSymbolTableRecord
100
AcDbBlockTableRecord
  2
SW_NOTE_1
340
0
102
{BLKREFS
331
E2
102
}
  0
BLOCK_RECORD
  5
EE
330
1
100
AcDbSymbolTableRecord
100
AcDbBlockTableRecord
  2
*D9
340
0
  0
BLOCK_RECORD
  5
102
330
1
100
AcDbSymbolTableRecord
100
AcDbBlockTableRecord
  2
*D10
340
0
  0
BLOCK_RECORD
  5
116
330
1
100
AcDbSymbolTableRecord
100
AcDbBlockTableRecord
  2
*D11
340
0
  0
BLOCK_RECORD
  5
135
330
1
100
AcDbSymbolTableRecord
100
AcDbBlockTableRecord
  2
*D12
340
0
  0
ENDTAB
  0
ENDSEC
  0
SECTION
  2
BLOCKS
  0
BLOCK
  5
20
330
1F
100
AcDbEntity
  8
0
100
AcDbBlockBegin
  2
*Model_Space
 70
     0
 10
0.0
 20
0.0
 30
0.0
  3
*Model_Space
  1

  0
ENDBLK
  5
21
330
1F
100
AcDbEntity
  8
0
100
AcDbBlockEnd
  0
BLOCK
  5
1C
330
1B
100
AcDbEntity
 67
     1
  8
0
100
AcDbBlockBegin
  2
*Paper_Space
 70
     0
 10
0.0
 20
0.0
 30
0.0
  3
*Paper_Space
  1

  0
ENDBLK
  5
1D
330
1B
100
AcDbEntity
 67
     1
  8
0
100
AcDbBlockEnd
  0
BLOCK
  5
24
330
23
100
AcDbEntity
  8
0
100
AcDbBlockBegin
  2
*Paper_Space0
 70
     0
 10
0.0
 20
0.0
 30
0.0
  3
*Paper_Space0
  1

  0
ENDBLK
  5
25
330
23
100
AcDbEntity
  8
0
100
AcDbBlockEnd
  0
BLOCK
  5
42
330
41
100
AcDbEntity
  8
0
100
AcDbBlockBegin
  2
SW_NOTE_0
 70
     0
 10
0.0
 20
0.0
 30
0.0
  3
SW_NOTE_0
  1

  0
MTEXT
  5
45
330
41
100
AcDbEntity
  8
0
  6
Continuous
 62
     0
370
     0
100
AcDbMText
 10
0.0
 20
6.1391851107
 30
0.0
 40
4.7625
 41
0.0
 71
     1
 72
     1
  1
Number: 1x
  7
SLDTEXTSTYLE0
 73
     1
 44
1.0
  0
MTEXT
  5
46
330
41
100
AcDbEntity
  8
0
  6
Continuous
 62
     0
370
     0
100
AcDbMText
 10
0.0
 20
-0.2108148126
 30
0.0
 40
4.7625
 41
0.0
 71
     1
 72
     1
  1
Material: Domino
  7
SLDTEXTSTYLE0
 73
     1
 44
1.0
  0
MTEXT
  5
47
330
41
100
AcDbEntity
  8
0
  6
Continuous
 62
     0
370
     0
100
AcDbMText
 10
0.0
 20
-6.5608147359
 30
0.0
 40
4.7625
 41
0.0
 71
     1
 72
     1
  1
Scale 2:1
  7
SLDTEXTSTYLE0
 73
     1
 44
1.0
  0
MTEXT
  5
48
330
41
100
AcDbEntity
  8
0
  6
Continuous
 62
     0
370
     0
100
AcDbMText
 10
0.0
 20
-19.2608145824
 30
0.0
 40
4.7625
 41
0.0
 71
     1
 72
     1
  1
Brett Graham
  7
SLDTEXTSTYLE0
 73
     1
 44
1.0
  0
MTEXT
  5
49
330
41
100
AcDbEntity
  8
0
  6
Continuous
 62
     0
370
     0
100
AcDbMText
 10
0.0
 20
-25.6108145056
 30
0.0
 40
4.7625
 41
0.0
 71
     1
 72
     1
  1
SLRef rev.B
  7
SLDTEXTSTYLE0
 73
     1
 44
1.0
  0
MTEXT
  5
4A
330
41
100
AcDbEntity
  8
0
  6
Continuous
 62
     0
370
     0
100
AcDbMText
 10
0.0
 20
-31.9608144289
 30
0.0
 40
4.7625
 41
0.0
 71
     1
 72
     1
  1
Date: 6-14-10
  7
SLDTEXTSTYLE0
 73
     1
 44
1.0
  0
ENDBLK
  5
43
330
41
100
AcDbEntity
  8
0
100
AcDbBlockEnd
  0
BLOCK
  5
63
330
62
100
AcDbEntity
  8
0
100
AcDbBlockBegin
  2
*D2
 70
     1
 10
0.0
 20
0.0
 30
0.0
  3
*D2
  1

  0
ARC
  5
65
330
62
100
AcDbEntity
  8
0
  6
Continuous
 62
     7
370
     0
100
AcDbCircle
 10
122.7614190709
 20
35.2029185345
 30
0.0
 40
11.26950064424398
100
AcDbArc
 50
153.4349488229
 51
206.5650511771
  0
ARC
  5
66
330
62
100
AcDbEntity
  8
0
  6
Continuous
 62
     7
370
     0
100
AcDbCircle
 10
119.144517998
 20
35.2029185345
 30
0.0
 40
11.26950064424394
100
AcDbArc
 50
333.4349488229
 51
26.5650511771
  0
SOLID
  5
67
330
62
100
AcDbEntity
  8
0
  6
Continuous
 62
     7
370
     0
100
AcDbTrace
 10
101.9022340517
 20
35.2029185345
 30
0.0
 11
105.2042340517
 21
34.6949185345
 31
0.0
 12
105.2042340517
 22
35.7109185345
 32
0.0
 13
105.2042340517
 23
35.7109185345
 33
0.0
  0
SOLID
  5
68
330
62
100
AcDbEntity
  8
0
  6
Continuous
 62
     7
370
     0
100
AcDbTrace
 10
141.9022340517
 20
35.2029185345
 30
0.0
 11
138.6002340517
 21
35.7109185345
 31
0.0
 12
138.6002340517
 22
34.6949185345
 32
0.0
 13
138.6002340517
 23
34.6949185345
 33
0.0
  0
LINE
  5
69
330
62
100
AcDbEntity
  8
0
  6
Continuous
 62
     7
370
     0
100
AcDbLine
 10
115.5589614804
 20
39.8648018944
 30
0.0
 11
115.5589614804
 21
35.5809090772
 31
0.0
  0
LINE
  5
6A
330
62
100
AcDbEntity
  8
0
  6
Continuous
 62
     7
370
     0
100
AcDbLine
 10
115.5589614804
 20
35.5809090772
 30
0.0
 11
116.2038565878
 21
35.5809090772
 31
0.0
  0
LINE
  5
6B
330
62
100
AcDbEntity
  8
0
  6
Continuous
 62
     7
370
     0
100
AcDbLine
 10
115.5589614804
 20
39.8648018944
 30
0.0
 11
116.2038565878
 21
39.8648018944
 31
0.0
  0
LINE
  5
6C
330
62
100
AcDbEntity
  8
0
  6
Continuous
 62
     7
370
     0
100
AcDbLine
 10
126.3469755885
 20
39.8648018944
 30
0.0
 11
126.3469755885
 21
35.5809090772
 31
0.0
  0
LINE
  5
6D
330
62
100
AcDbEntity
  8
0
  6
Continuous
 62
     7
370
     0
100
AcDbLine
 10
126.3469755885
 20
35.5809090772
 30
0.0
 11
125.7020804812
 21
35.5809090772
 31
0.0
  0
LINE
  5
6E
330
62
100
AcDbEntity
  8
0
  6
Continuous
 62
     7
370
     0
100
AcDbLine
 10
126.3469755885
 20
39.8648018944
 30
0.0
 11
125.7020804812
 21
39.8648018944
 31
0.0
  0
LINE
  5
6F
330
62
100
AcDbEntity
  8
0
  6
Continuous
 62
     7
370
     0
100
AcDbLine
 10
101.9022340517
 20
67.9329685345
 30
0.0
 11
101.9022340517
 21
32.0279185345
 31
0.0
  0
LINE
  5
70
330
62
100
AcDbEntity
  8
0
  6
Continuous
 62
     7
370
     0
100
AcDbLine
 10
141.9022340517
 20
67.9329685345
 30
0.0
 11
141.9022340517
 21
32.0279185345
 31
0.0
  0
LINE
  5
71
330
62
100
AcDbEntity
  8
0
  6
Continuous
 62
     7
370
     0
100
AcDbLine
 10
101.9022340517
 20
35.2029185345
 30
0.0
 11
107.2285283389
 21
35.2029185345
 31
0.0
  0
LINE
  5
72
330
62
100
AcDbEntity
  8
0
  6
Continuous
 62
     7
370
     0
100
AcDbLine
 10
141.9022340517
 20
35.2029185345
 30
0.0
 11
134.67740873
 21
35.2029185345
 31
0.0
  0
MTEXT
  5
73
330
62
100
AcDbEntity
  8
0
  6
Continuous
 62
     7
370
     0
100
AcDbMText
 10
118.6082343002
 20
34.2558350549
 30
0.0
 40
3.175
 41
0.0
 71
     1
 72
     1
  1
20
  7
SLDTEXTSTYLE0
 73
     1
 44
1.0
  0
MTEXT
  5
74
330
62
100
AcDbEntity
  8
0
  6
Continuous
 62
     7
370
     0
100
AcDbMText
 10
116.8487516952
 20
39.2957089575
 30
0.0
 40
3.175
 41
0.0
 71
     1
 72
     1
  1
.787
  7
SLDTEXTSTYLE0
 73
     1
 44
1.0
  0
ENDBLK
  5
64
330
62
100
AcDbEntity
  8
0
100
AcDbBlockEnd
  0
BLOCK
  5
77
330
76
100
AcDbEntity
  8
0
100
AcDbBlockBegin
  2
*D3
 70
     1
 10
0.0
 20
0.0
 30
0.0
  3
*D3
  1

  0
ARC
  5
79
330
76
100
AcDbEntity
  8
0
  6
Continuous
 62
     7
370
     0
100
AcDbCircle
 10
78.1482897606
 20
47.2029185345
 30
0.0
 40
11.26950064424398
100
AcDbArc
 50
153.4349488229
 51
206.5650511771
  0
ARC
  5
7A
330
76
100
AcDbEntity
  8
0
  6
Continuous
 62
     7
370
     0
100
AcDbCircle
 10
74.5313886877
 20
47.2029185345
 30
0.0
 40
11.26950064424398
100
AcDbArc
 50
333.4349488229
 51
26.5650511771
  0
SOLID
  5
7B
330
76
100
AcDbEntity
  8
0
  6
Continuous
 62
     7
370
     0
100
AcDbTrace
 10
121.9022340517
 20
47.2029185345
 30
0.0
 11
118.6002340517
 21
47.7109185345
 31
0.0
 12
118.6002340517
 22
46.6949185345
 32
0.0
 13
118.6002340517
 23
46.6949185345
 33
0.0
  0
SOLID
  5
7C
330
76
100
AcDbEntity
  8
0
  6
Continuous
 62
     7
370
     0
100
AcDbTrace
 10
101.9022340517
 20
47.2029185345
 30
0.0
 11
105.2042340517
 21
46.6949185345
 31
0.0
 12
105.2042340517
 22
47.7109185345
 32
0.0
 13
105.2042340517
 23
47.7109185345
 33
0.0
  0
LINE
  5
7D
330
76
100
AcDbEntity
  8
0
  6
Continuous
 62
     7
370
     0
100
AcDbLine
 10
70.9458321701
 20
51.8648018944
 30
0.0
 11
70.9458321701
 21
47.5809090772
 31
0.0
  0
LINE
  5
7E
330
76
100
AcDbEntity
  8
0
  6
Continuous
 62
     7
370
     0
100
AcDbLine
 10
70.9458321701
 20
47.5809090772
 30
0.0
 11
71.5907272775
 21
47.5809090772
 31
0.0
  0
LINE
  5
7F
330
76
100
AcDbEntity
  8
0
  6
Continuous
 62
     7
370
     0
100
AcDbLine
 10
70.9458321701
 20
51.8648018944
 30
0.0
 11
71.5907272775
 21
51.8648018944
 31
0.0
  0
LINE
  5
80
330
76
100
AcDbEntity
  8
0
  6
Continuous
 62
     7
370
     0
100
AcDbLine
 10
81.7338462782
 20
51.8648018944
 30
0.0
 11
81.7338462782
 21
47.5809090772
 31
0.0
  0
LINE
  5
81
330
76
100
AcDbEntity
  8
0
  6
Continuous
 62
     7
370
     0
100
AcDbLine
 10
81.7338462782
 20
47.5809090772
 30
0.0
 11
81.0889511708
 21
47.5809090772
 31
0.0
  0
LINE
  5
82
330
76
100
AcDbEntity
  8
0
  6
Continuous
 62
     7
370
     0
100
AcDbLine
 10
81.7338462782
 20
51.8648018944
 30
0.0
 11
81.0889511708
 21
51.8648018944
 31
0.0
  0
LINE
  5
83
330
76
100
AcDbEntity
  8
0
  6
Continuous
 62
     7
370
     0
100
AcDbLine
 10
121.9022340517
 20
67.9329685345
 30
0.0
 11
121.9022340517
 21
44.0279185345
 31
0.0
  0
LINE
  5
84
330
76
100
AcDbEntity
  8
0
  6
Continuous
 62
     7
370
     0
100
AcDbLine
 10
101.9022340517
 20
67.9329685345
 30
0.0
 11
101.9022340517
 21
44.0279185345
 31
0.0
  0
LINE
  5
85
330
76
100
AcDbEntity
  8
0
  6
Continuous
 62
     7
370
     0
100
AcDbLine
 10
121.9022340517
 20
47.2029185345
 30
0.0
 11
101.9022340517
 21
47.2029185345
 31
0.0
  0
LINE
  5
86
330
76
100
AcDbEntity
  8
0
  6
Continuous
 62
     7
370
     0
100
AcDbLine
 10
101.9022340517
 20
47.2029185345
 30
0.0
 11
90.0642794197
 21
47.2029185345
 31
0.0
  0
MTEXT
  5
87
330
76
100
AcDbEntity
  8
0
  6
Continuous
 62
     7
370
     0
100
AcDbMText
 10
73.9951049899
 20
46.2558350549
 30
0.0
 40
3.175
 41
0.0
 71
     1
 72
     1
  1
10
  7
SLDTEXTSTYLE0
 73
     1
 44
1.0
  0
MTEXT
  5
88
330
76
100
AcDbEntity
  8
0
  6
Continuous
 62
     7
370
     0
100
AcDbMText
 10
72.2356223848
 20
51.2957089575
 30
0.0
 40
3.175
 41
0.0
 71
     1
 72
     1
  1
.394
  7
SLDTEXTSTYLE0
 73
     1
 44
1.0
  0
ENDBLK
  5
78
330
76
100
AcDbEntity
  8
0
100
AcDbBlockEnd
  0
BLOCK
  5
8B
330
8A
100
AcDbEntity
  8
0
100
AcDbBlockBegin
  2
*D4
 70
     1
 10
0.0
 20
0.0
 30
0.0
  3
*D4
  1

  0
ARC
  5
8D
330
8A
100
AcDbEntity
  8
0
  6
Continuous
 62
     7
370
     0
100
AcDbCircle
 10
57.7105845882
 20
88.2538030172
 30
0.0
 40
11.26950064424396
100
AcDbArc
 50
153.4349488229
 51
206.5650511771
  0
ARC
  5
8E
330
8A
100
AcDbEntity
  8
0
  6
Continuous
 62
     7
370
     0
100
AcDbCircle
 10
54.0936835153
 20
88.2538030172
 30
0.0
 40
11.26950064424397
100
AcDbArc
 50
333.4349488229
 51
26.5650511771
  0
SOLID
  5
8F
330
8A
100
AcDbEntity
  8
0
  6
Continuous
 62
     7
370
     0
100
AcDbTrace
 10
55.9021340517
 20
109.2029685345
 30
0.0
 11
55.3941340517
 21
105.9009685345
 31
0.0
 12
56.4101340517
 22
105.9009685345
 32
0.0
 13
56.4101340517
 23
105.9009685345
 33
0.0
  0
SOLID
  5
90
330
8A
100
AcDbEntity
  8
0
  6
Continuous
 62
     7
370
     0
100
AcDbTrace
 10
55.9021340517
 20
69.2029685345
 30
0.0
 11
56.4101340517
 21
72.5049685345
 31
0.0
 12
55.3941340517
 22
72.5049685345
 32
0.0
 13
55.3941340517
 23
72.5049685345
 33
0.0
  0
LINE
  5
91
330
8A
100
AcDbEntity
  8
0
  6
Continuous
 62
     7
370
     0
100
AcDbLine
 10
50.5081269977
 20
92.9156863771
 30
0.0
 11
50.5081269977
 21
88.6317935599
 31
0.0
  0
LINE
  5
92
330
8A
100
AcDbEntity
  8
0
  6
Continuous
 62
     7
370
     0
100
AcDbLine
 10
50.5081269977
 20
88.6317935599
 30
0.0
 11
51.153022105
 21
88.6317935599
 31
0.0
  0
LINE
  5
93
330
8A
100
AcDbEntity
  8
0
  6
Continuous
 62
     7
370
     0
100
AcDbLine
 10
50.5081269977
 20
92.9156863771
 30
0.0
 11
51.153022105
 21
92.9156863771
 31
0.0
  0
LINE
  5
94
330
8A
100
AcDbEntity
  8
0
  6
Continuous
 62
     7
370
     0
100
AcDbLine
 10
61.2961411058
 20
92.9156863771
 30
0.0
 11
61.2961411058
 21
88.6317935599
 31
0.0
  0
LINE
  5
95
330
8A
100
AcDbEntity
  8
0
  6
Continuous
 62
     7
370
     0
100
AcDbLine
 10
61.2961411058
 20
88.6317935599
 30
0.0
 11
60.6512459984
 21
88.6317935599
 31
0.0
  0
LINE
  5
96
330
8A
100
AcDbEntity
  8
0
  6
Continuous
 62
     7
370
     0
100
AcDbLine
 10
61.2961411058
 20
92.9156863771
 30
0.0
 11
60.6512459984
 21
92.9156863771
 31
0.0
  0
LINE
  5
97
330
8A
100
AcDbEntity
  8
0
  6
Continuous
 62
     7
370
     0
100
AcDbLine
 10
100.6322340517
 20
109.2029685345
 30
0.0
 11
52.7271340517
 21
109.2029685345
 31
0.0
  0
LINE
  5
98
330
8A
100
AcDbEntity
  8
0
  6
Continuous
 62
     7
370
     0
100
AcDbLine
 10
100.6322340517
 20
69.2029685345
 30
0.0
 11
52.7271340517
 21
69.2029685345
 31
0.0
  0
LINE
  5
99
330
8A
100
AcDbEntity
  8
0
  6
Continuous
 62
     7
370
     0
100
AcDbLine
 10
55.9021340517
 20
109.2029685345
 30
0.0
 11
55.9021340517
 21
93.2936769198
 31
0.0
  0
LINE
  5
9A
330
8A
100
AcDbEntity
  8
0
  6
Continuous
 62
     7
370
     0
100
AcDbLine
 10
55.9021340517
 20
69.2029685345
 30
0.0
 11
55.9021340517
 21
83.2139291146
 31
0.0
  0
MTEXT
  5
9B
330
8A
100
AcDbEntity
  8
0
  6
Continuous
 62
     7
370
     0
100
AcDbMText
 10
53.5573998175
 20
87.3067195377
 30
0.0
 40
3.175
 41
0.0
 71
     1
 72
     1
  1
20
  7
SLDTEXTSTYLE0
 73
     1
 44
1.0
  0
MTEXT
  5
9C
330
8A
100
AcDbEntity
  8
0
  6
Continuous
 62
     7
370
     0
100
AcDbMText
 10
51.7979172124
 20
92.3465934403
 30
0.0
 40
3.175
 41
0.0
 71
     1
 72
     1
  1
.787
  7
SLDTEXTSTYLE0
 73
     1
 44
1.0
  0
ENDBLK
  5
8C
330
8A
100
AcDbEntity
  8
0
100
AcDbBlockEnd
  0
BLOCK
  5
9F
330
9E
100
AcDbEntity
  8
0
100
AcDbBlockBegin
  2
*D5
 70
     1
 10
0.0
 20
0.0
 30
0.0
  3
*D5
  1

  0
ARC
  5
A1
330
9E
100
AcDbEntity
  8
0
  6
Continuous
 62
     7
370
     0
100
AcDbCircle
 10
55.6361443926
 20
25.2028685345
 30
0.0
 40
11.26950064424395
100
AcDbArc
 50
153.4349488229
 51
206.5650511771
  0
ARC
  5
A2
330
9E
100
AcDbEntity
  8
0
  6
Continuous
 62
     7
370
     0
100
AcDbCircle
 10
52.0192433197
 20
25.2028685345
 30
0.0
 40
11.26950064424396
100
AcDbArc
 50
333.4349488229
 51
26.5650511771
  0
SOLID
  5
A3
330
9E
100
AcDbEntity
  8
0
  6
Continuous
 62
     7
370
     0
100
AcDbTrace
 10
73.9021340517
 20
89.2029685345
 30
0.0
 11
73.3941340517
 21
85.9009685345
 31
0.0
 12
74.4101340517
 22
85.9009685345
 32
0.0
 13
74.4101340517
 23
85.9009685345
 33
0.0
  0
SOLID
  5
A4
330
9E
100
AcDbEntity
  8
0
  6
Continuous
 62
     7
370
     0
100
AcDbTrace
 10
73.9021340517
 20
69.2029685345
 30
0.0
 11
74.4101340517
 21
72.5049685345
 31
0.0
 12
73.3941340517
 22
72.5049685345
 32
0.0
 13
73.3941340517
 23
72.5049685345
 33
0.0
  0
LINE
  5
A5
330
9E
100
AcDbEntity
  8
0
  6
Continuous
 62
     7
370
     0
100
AcDbLine
 10
48.4336868021
 20
29.8647518944
 30
0.0
 11
48.4336868021
 21
25.5808590772
 31
0.0
  0
LINE
  5
A6
330
9E
100
AcDbEntity
  8
0
  6
Continuous
 62
     7
370
     0
100
AcDbLine
 10
48.4336868021
 20
25.5808590772
 30
0.0
 11
49.0785819095
 21
25.5808590772
 31
0.0
  0
LINE
  5
A7
330
9E
100
AcDbEntity
  8
0
  6
Continuous
 62
     7
370
     0
100
AcDbLine
 10
48.4336868021
 20
29.8647518944
 30
0.0
 11
49.0785819095
 21
29.8647518944
 31
0.0
  0
LINE
  5
A8
330
9E
100
AcDbEntity
  8
0
  6
Continuous
 62
     7
370
     0
100
AcDbLine
 10
59.2217009102
 20
29.8647518944
 30
0.0
 11
59.2217009102
 21
25.5808590772
 31
0.0
  0
LINE
  5
A9
330
9E
100
AcDbEntity
  8
0
  6
Continuous
 62
     7
370
     0
100
AcDbLine
 10
59.2217009102
 20
25.5808590772
 30
0.0
 11
58.5768058029
 21
25.5808590772
 31
0.0
  0
LINE
  5
AA
330
9E
100
AcDbEntity
  8
0
  6
Continuous
 62
     7
370
     0
100
AcDbLine
 10
59.2217009102
 20
29.8647518944
 30
0.0
 11
58.5768058029
 21
29.8647518944
 31
0.0
  0
LINE
  5
AB
330
9E
100
AcDbEntity
  8
0
  6
Continuous
 62
     7
370
     0
100
AcDbLine
 10
100.6322340517
 20
89.2029685345
 30
0.0
 11
70.7271340517
 21
89.2029685345
 31
0.0
  0
LINE
  5
AC
330
9E
100
AcDbEntity
  8
0
  6
Continuous
 62
     7
370
     0
100
AcDbLine
 10
100.6322340517
 20
69.2029685345
 30
0.0
 11
70.7271340517
 21
69.2029685345
 31
0.0
  0
LINE
  5
AD
330
9E
100
AcDbEntity
  8
0
  6
Continuous
 62
     7
370
     0
100
AcDbLine
 10
67.5521340517
 20
25.2028685345
 30
0.0
 11
73.9021340517
 21
25.2028685345
 31
0.0
  0
LINE
  5
AE
330
9E
100
AcDbEntity
  8
0
  6
Continuous
 62
     7
370
     0
100
AcDbLine
 10
73.9021340517
 20
25.2028685345
 30
0.0
 11
73.9021340517
 21
69.2029685345
 31
0.0
  0
LINE
  5
AF
330
9E
100
AcDbEntity
  8
0
  6
Continuous
 62
     7
370
     0
100
AcDbLine
 10
73.9021340517
 20
89.2029685345
 30
0.0
 11
73.9021340517
 21
69.2029685345
 31
0.0
  0
MTEXT
  5
B0
330
9E
100
AcDbEntity
  8
0
  6
Continuous
 62
     7
370
     0
100
AcDbMText
 10
51.4829596219
 20
24.2557850549
 30
0.0
 40
3.175
 41
0.0
 71
     1
 72
     1
  1
10
  7
SLDTEXTSTYLE0
 73
     1
 44
1.0
  0
MTEXT
  5
B1
330
9E
100
AcDbEntity
  8
0
  6
Continuous
 62
     7
370
     0
100
AcDbMText
 10
49.7234770169
 20
29.2956589575
 30
0.0
 40
3.175
 41
0.0
 71
     1
 72
     1
  1
.394
  7
SLDTEXTSTYLE0
 73
     1
 44
1.0
  0
ENDBLK
  5
A0
330
9E
100
AcDbEntity
  8
0
100
AcDbBlockEnd
  0
BLOCK
  5
B4
330
B3
100
AcDbEntity
  8
0
100
AcDbBlockBegin
  2
*D6
 70
     1
 10
0.0
 20
0.0
 30
0.0
  3
*D6
  1

  0
ARC
  5
B6
330
B3
100
AcDbEntity
  8
0
  6
Continuous
 62
     7
370
     0
100
AcDbCircle
 10
165.7107345882
 20
59.2029185345
 30
0.0
 40
11.26950064424395
100
AcDbArc
 50
153.4349488229
 51
206.5650511771
  0
ARC
  5
B7
330
B3
100
AcDbEntity
  8
0
  6
Continuous
 62
     7
370
     0
100
AcDbCircle
 10
162.0938335153
 20
59.2029185345
 30
0.0
 40
11.26950064424398
100
AcDbArc
 50
333.4349488229
 51
26.5650511771
  0
SOLID
  5
B8
330
B3
100
AcDbEntity
  8
0
  6
Continuous
 62
     7
370
     0
100
AcDbTrace
 10
131.9022340517
 20
59.2029185345
 30
0.0
 11
135.2042340517
 21
58.6949185345
 31
0.0
 12
135.2042340517
 22
59.7109185345
 32
0.0
 13
135.2042340517
 23
59.7109185345
 33
0.0
  0
SOLID
  5
B9
330
B3
100
AcDbEntity
  8
0
  6
Continuous
 62
     7
370
     0
100
AcDbTrace
 10
141.9022340517
 20
59.2029185345
 30
0.0
 11
138.6002340517
 21
59.7109185345
 31
0.0
 12
138.6002340517
 22
58.6949185345
 32
0.0
 13
138.6002340517
 23
58.6949185345
 33
0.0
  0
LINE
  5
BA
330
B3
100
AcDbEntity
  8
0
  6
Continuous
 62
     7
370
     0
100
AcDbLine
 10
158.5082769977
 20
63.8648018944
 30
0.0
 11
158.5082769977
 21
59.5809090772
 31
0.0
  0
LINE
  5
BB
330
B3
100
AcDbEntity
  8
0
  6
Continuous
 62
     7
370
     0
100
AcDbLine
 10
158.5082769977
 20
59.5809090772
 30
0.0
 11
159.153172105
 21
59.5809090772
 31
0.0
  0
LINE
  5
BC
330
B3
100
AcDbEntity
  8
0
  6
Continuous
 62
     7
370
     0
100
AcDbLine
 10
158.5082769977
 20
63.8648018944
 30
0.0
 11
159.153172105
 21
63.8648018944
 31
0.0
  0
LINE
  5
BD
330
B3
100
AcDbEntity
  8
0
  6
Continuous
 62
     7
370
     0
100
AcDbLine
 10
169.2962911058
 20
63.8648018944
 30
0.0
 11
169.2962911058
 21
59.5809090772
 31
0.0
  0
LINE
  5
BE
330
B3
100
AcDbEntity
  8
0
  6
Continuous
 62
     7
370
     0
100
AcDbLine
 10
169.2962911058
 20
59.5809090772
 30
0.0
 11
168.6513959984
 21
59.5809090772
 31
0.0
  0
LINE
  5
BF
330
B3
100
AcDbEntity
  8
0
  6
Continuous
 62
     7
370
     0
100
AcDbLine
 10
169.2962911058
 20
63.8648018944
 30
0.0
 11
168.6513959984
 21
63.8648018944
 31
0.0
  0
LINE
  5
C0
330
B3
100
AcDbEntity
  8
0
  6
Continuous
 62
     7
370
     0
100
AcDbLine
 10
131.9022340517
 20
67.9329685345
 30
0.0
 11
131.9022340517
 21
56.0279185345
 31
0.0
  0
LINE
  5
C1
330
B3
100
AcDbEntity
  8
0
  6
Continuous
 62
     7
370
     0
100
AcDbLine
 10
141.9022340517
 20
67.9329685345
 30
0.0
 11
141.9022340517
 21
56.0279185345
 31
0.0
  0
LINE
  5
C2
330
B3
100
AcDbEntity
  8
0
  6
Continuous
 62
     7
370
     0
100
AcDbLine
 10
131.9022340517
 20
59.2029185345
 30
0.0
 11
141.9022340517
 21
59.2029185345
 31
0.0
  0
LINE
  5
C3
330
B3
100
AcDbEntity
  8
0
  6
Continuous
 62
     7
370
     0
100
AcDbLine
 10
141.9022340517
 20
59.2029185345
 30
0.0
 11
150.1778438562
 21
59.2029185345
 31
0.0
  0
MTEXT
  5
C4
330
B3
100
AcDbEntity
  8
0
  6
Continuous
 62
     7
370
     0
100
AcDbMText
 10
162.7305382208
 20
58.2558350549
 30
0.0
 40
3.175
 41
0.0
 71
     1
 72
     1
  1
5
  7
SLDTEXTSTYLE0
 73
     1
 44
1.0
  0
MTEXT
  5
C5
330
B3
100
AcDbEntity
  8
0
  6
Continuous
 62
     7
370
     0
100
AcDbMText
 10
159.7980672124
 20
63.2957089575
 30
0.0
 40
3.175
 41
0.0
 71
     1
 72
     1
  1
.197
  7
SLDTEXTSTYLE0
 73
     1
 44
1.0
  0
ENDBLK
  5
B5
330
B3
100
AcDbEntity
  8
0
100
AcDbBlockEnd
  0
BLOCK
  5
C8
330
C7
100
AcDbEntity
  8
0
100
AcDbBlockBegin
  2
*D7
 70
     1
 10
0.0
 20
0.0
 30
0.0
  3
*D7
  1

  0
ARC
  5
CA
330
C7
100
AcDbEntity
  8
0
  6
Continuous
 62
     7
370
     0
100
AcDbCircle
 10
72.3042507103
 20
124.8940280387
 30
0.0
 40
11.26950064424395
100
AcDbArc
 50
153.4349488229
 51
206.5650511771
  0
ARC
  5
CB
330
C7
100
AcDbEntity
  8
0
  6
Continuous
 62
     7
370
     0
100
AcDbCircle
 10
68.6873496374
 20
124.8940280387
 30
0.0
 40
11.26950064424397
100
AcDbArc
 50
333.4349488229
 51
26.5650511771
  0
SOLID
  5
CC
330
C7
100
AcDbEntity
  8
0
  6
Continuous
 62
     7
370
     0
100
AcDbTrace
 10
90.5702403694
 20
99.2029685345
 30
0.0
 11
91.0782403694
 21
102.5049685345
 31
0.0
 12
90.0622403694
 22
102.5049685345
 32
0.0
 13
90.0622403694
 23
102.5049685345
 33
0.0
  0
SOLID
  5
CD
330
C7
100
AcDbEntity
  8
0
  6
Continuous
 62
     7
370
     0
100
AcDbTrace
 10
90.5702403694
 20
109.2029685345
 30
0.0
 11
90.0622403694
 21
105.9009685345
 31
0.0
 12
91.0782403694
 22
105.9009685345
 32
0.0
 13
91.0782403694
 23
105.9009685345
 33
0.0
  0
LINE
  5
CE
330
C7
100
AcDbEntity
  8
0
  6
Continuous
 62
     7
370
     0
100
AcDbLine
 10
65.1017931198
 20
129.5559113986
 30
0.0
 11
65.1017931198
 21
125.2720185814
 31
0.0
  0
LINE
  5
CF
330
C7
100
AcDbEntity
  8
0
  6
Continuous
 62
     7
370
     0
100
AcDbLine
 10
65.1017931198
 20
125.2720185814
 30
0.0
 11
65.7466882272
 21
125.2720185814
 31
0.0
  0
LINE
  5
D0
330
C7
100
AcDbEntity
  8
0
  6
Continuous
 62
     7
370
     0
100
AcDbLine
 10
65.1017931198
 20
129.5559113986
 30
0.0
 11
65.7466882272
 21
129.5559113986
 31
0.0
  0
LINE
  5
D1
330
C7
100
AcDbEntity
  8
0
  6
Continuous
 62
     7
370
     0
100
AcDbLine
 10
75.8898072279
 20
129.5559113986
 30
0.0
 11
75.8898072279
 21
125.2720185814
 31
0.0
  0
LINE
  5
D2
330
C7
100
AcDbEntity
  8
0
  6
Continuous
 62
     7
370
     0
100
AcDbLine
 10
75.8898072279
 20
125.2720185814
 30
0.0
 11
75.2449121206
 21
125.2720185814
 31
0.0
  0
LINE
  5
D3
330
C7
100
AcDbEntity
  8
0
  6
Continuous
 62
     7
370
     0
100
AcDbLine
 10
75.8898072279
 20
129.5559113986
 30
0.0
 11
75.2449121206
 21
129.5559113986
 31
0.0
  0
LINE
  5
D4
330
C7
100
AcDbEntity
  8
0
  6
Continuous
 62
     7
370
     0
100
AcDbLine
 10
100.6322340517
 20
99.2029685345
 30
0.0
 11
87.3952403694
 21
99.2029685345
 31
0.0
  0
LINE
  5
D5
330
C7
100
AcDbEntity
  8
0
  6
Continuous
 62
     7
370
     0
100
AcDbLine
 10
100.6322340517
 20
109.2029685345
 30
0.0
 11
87.3952403694
 21
109.2029685345
 31
0.0
  0
LINE
  5
D6
330
C7
100
AcDbEntity
  8
0
  6
Continuous
 62
     7
370
     0
100
AcDbLine
 10
84.2202403694
 20
124.8940280387
 30
0.0
 11
90.5702403694
 21
124.8940280387
 31
0.0
  0
LINE
  5
D7
330
C7
100
AcDbEntity
  8
0
  6
Continuous
 62
     7
370
     0
100
AcDbLine
 10
90.5702403694
 20
124.8940280387
 30
0.0
 11
90.5702403694
 21
109.2029685345
 31
0.0
  0
LINE
  5
D8
330
C7
100
AcDbEntity
  8
0
  6
Continuous
 62
     7
370
     0
100
AcDbLine
 10
90.5702403694
 20
99.2029685345
 30
0.0
 11
90.5702403694
 21
109.2029685345
 31
0.0
  0
MTEXT
  5
D9
330
C7
100
AcDbEntity
  8
0
  6
Continuous
 62
     7
370
     0
100
AcDbMText
 10
69.324054343
 20
123.9469445591
 30
0.0
 40
3.175
 41
0.0
 71
     1
 72
     1
  1
5
  7
SLDTEXTSTYLE0
 73
     1
 44
1.0
  0
MTEXT
  5
DA
330
C7
100
AcDbEntity
  8
0
  6
Continuous
 62
     7
370
     0
100
AcDbMText
 10
66.3915833346
 20
128.9868184617
 30
0.0
 40
3.175
 41
0.0
 71
     1
 72
     1
  1
.197
  7
SLDTEXTSTYLE0
 73
     1
 44
1.0
  0
ENDBLK
  5
C9
330
C7
100
AcDbEntity
  8
0
100
AcDbBlockEnd
  0
BLOCK
  5
DC
330
DB
100
AcDbEntity
  8
0
100
AcDbBlockBegin
  2
SW_NOTE_1
 70
     0
 10
0.0
 20
0.0
 30
0.0
  3
SW_NOTE_1
  1

  0
MTEXT
  5
DE
330
DB
100
AcDbEntity
  8
0
  6
Continuous
 62
     0
370
     0
100
AcDbMText
 10
0.5015734338
 20
1.5740112345
 30
0.0
 40
3.175
 41
0.0
 71
     1
 72
     1
  1
Cross-hairs scratched
  7
SLDTEXTSTYLE0
 73
     1
 44
1.0
  0
MTEXT
  5
DF
330
DB
100
AcDbEntity
  8
0
  6
Continuous
 62
     0
370
     0
100
AcDbMText
 10
0.5015734338
 20
-2.5314402823
 30
0.0
 40
3.175
 41
0.0
 71
     1
 72
     1
  1
into the surface
  7
SLDTEXTSTYLE0
 73
     1
 44
1.0
  0
MTEXT
  5
E0
330
DB
100
AcDbEntity
  8
0
  6
Continuous
 62
     0
370
     0
100
AcDbMText
 10
0.5015734338
 20
-6.6368917991
 30
0.0
 40
3.175
 41
0.0
 71
     1
 72
     1
  1
centered on each
  7
SLDTEXTSTYLE0
 73
     1
 44
1.0
  0
MTEXT
  5
E1
330
DB
100
AcDbEntity
  8
0
  6
Continuous
 62
     0
370
     0
100
AcDbMText
 10
0.5015734338
 20
-10.7423433159
 30
0.0
 40
3.175
 41
0.0
 71
     1
 72
     1
  1
terrace
  7
SLDTEXTSTYLE0
 73
     1
 44
1.0
  0
ENDBLK
  5
DD
330
DB
100
AcDbEntity
  8
0
100
AcDbBlockEnd
  0
BLOCK
  5
EF
330
EE
100
AcDbEntity
  8
0
100
AcDbBlockBegin
  2
*D9
 70
     1
 10
0.0
 20
0.0
 30
0.0
  3
*D9
  1

  0
ARC
  5
F1
330
EE
100
AcDbEntity
  8
0
  6
Continuous
 62
     7
370
     0
100
AcDbCircle
 10
213.1059151916
 20
125.2030685345
 30
0.0
 40
11.26950064424398
100
AcDbArc
 50
153.4349488229
 51
206.5650511771
  0
ARC
  5
F2
330
EE
100
AcDbEntity
  8
0
  6
Continuous
 62
     7
370
     0
100
AcDbCircle
 10
209.4890141187
 20
125.2030685345
 30
0.0
 40
11.26950064424398
100
AcDbArc
 50
333.4349488229
 51
26.5650511771
  0
SOLID
  5
F3
330
EE
100
AcDbEntity
  8
0
  6
Continuous
 62
     7
370
     0
100
AcDbTrace
 10
195.2974146552
 20
125.2030685345
 30
0.0
 11
191.9954146552
 21
125.7110685345
 31
0.0
 12
191.9954146552
 22
124.6950685345
 32
0.0
 13
191.9954146552
 23
124.6950685345
 33
0.0
  0
SOLID
  5
F4
330
EE
100
AcDbEntity
  8
0
  6
Continuous
 62
     7
370
     0
100
AcDbTrace
 10
183.2974146552
 20
125.2030685345
 30
0.0
 11
186.5994146552
 21
124.6950685345
 31
0.0
 12
186.5994146552
 22
125.7110685345
 32
0.0
 13
186.5994146552
 23
125.7110685345
 33
0.0
  0
LINE
  5
F5
330
EE
100
AcDbEntity
  8
0
  6
Continuous
 62
     7
370
     0
100
AcDbLine
 10
205.9034576011
 20
129.8649518944
 30
0.0
 11
205.9034576011
 21
125.5810590772
 31
0.0
  0
LINE
  5
F6
330
EE
100
AcDbEntity
  8
0
  6
Continuous
 62
     7
370
     0
100
AcDbLine
 10
205.9034576011
 20
125.5810590772
 30
0.0
 11
206.5483527085
 21
125.5810590772
 31
0.0
  0
LINE
  5
F7
330
EE
100
AcDbEntity
  8
0
  6
Continuous
 62
     7
370
     0
100
AcDbLine
 10
205.9034576011
 20
129.8649518944
 30
0.0
 11
206.5483527085
 21
129.8649518944
 31
0.0
  0
LINE
  5
F8
330
EE
100
AcDbEntity
  8
0
  6
Continuous
 62
     7
370
     0
100
AcDbLine
 10
216.6914717092
 20
129.8649518944
 30
0.0
 11
216.6914717092
 21
125.5810590772
 31
0.0
  0
LINE
  5
F9
330
EE
100
AcDbEntity
  8
0
  6
Continuous
 62
     7
370
     0
100
AcDbLine
 10
216.6914717092
 20
125.5810590772
 30
0.0
 11
216.0465766019
 21
125.5810590772
 31
0.0
  0
LINE
  5
FA
330
EE
100
AcDbEntity
  8
0
  6
Continuous
 62
     7
370
     0
100
AcDbLine
 10
216.6914717092
 20
129.8649518944
 30
0.0
 11
216.0465766019
 21
129.8649518944
 31
0.0
  0
LINE
  5
FB
330
EE
100
AcDbEntity
  8
0
  6
Continuous
 62
     7
370
     0
100
AcDbLine
 10
195.2974146552
 20
110.4729685345
 30
0.0
 11
195.2974146552
 21
128.3780685345
 31
0.0
  0
LINE
  5
FC
330
EE
100
AcDbEntity
  8
0
  6
Continuous
 62
     7
370
     0
100
AcDbLine
 10
183.2974146552
 20
110.4729685345
 30
0.0
 11
183.2974146552
 21
128.3780685345
 31
0.0
  0
LINE
  5
FD
330
EE
100
AcDbEntity
  8
0
  6
Continuous
 62
     7
370
     0
100
AcDbLine
 10
195.2974146552
 20
125.2030685345
 30
0.0
 11
197.5730244596
 21
125.2030685345
 31
0.0
  0
LINE
  5
FE
330
EE
100
AcDbEntity
  8
0
  6
Continuous
 62
     7
370
     0
100
AcDbLine
 10
183.2974146552
 20
125.2030685345
 30
0.0
 11
195.2974146552
 21
125.2030685345
 31
0.0
  0
MTEXT
  5
FF
330
EE
100
AcDbEntity
  8
0
  6
Continuous
 62
     7
370
     0
100
AcDbMText
 10
210.1257188243
 20
124.2559850549
 30
0.0
 40
3.175
 41
0.0
 71
     1
 72
     1
  1
6
  7
SLDTEXTSTYLE0
 73
     1
 44
1.0
  0
MTEXT
  5
100
330
EE
100
AcDbEntity
  8
0
  6
Continuous
 62
     7
370
     0
100
AcDbMText
 10
207.1932478158
 20
129.2958589575
 30
0.0
 40
3.175
 41
0.0
 71
     1
 72
     1
  1
.236
  7
SLDTEXTSTYLE0
 73
     1
 44
1.0
  0
ENDBLK
  5
F0
330
EE
100
AcDbEntity
  8
0
100
AcDbBlockEnd
  0
BLOCK
  5
103
330
102
100
AcDbEntity
  8
0
100
AcDbBlockBegin
  2
*D10
 70
     1
 10
0.0
 20
0.0
 30
0.0
  3
*D10
  1

  0
ARC
  5
105
330
102
100
AcDbEntity
  8
0
  6
Continuous
 62
     7
370
     0
100
AcDbCircle
 10
210.0510742912
 20
35.2029185345
 30
0.0
 40
11.26950064424398
100
AcDbArc
 50
153.4349488229
 51
206.5650511771
  0
ARC
  5
106
330
102
100
AcDbEntity
  8
0
  6
Continuous
 62
     7
370
     0
100
AcDbCircle
 10
206.4341732183
 20
35.2029185345
 30
0.0
 40
11.26950064424395
100
AcDbArc
 50
333.4349488229
 51
26.5650511771
  0
SOLID
  5
107
330
102
100
AcDbEntity
  8
0
  6
Continuous
 62
     7
370
     0
100
AcDbTrace
 10
189.2974146552
 20
35.2029185345
 30
0.0
 11
185.9954146552
 21
35.7109185345
 31
0.0
 12
185.9954146552
 22
34.6949185345
 32
0.0
 13
185.9954146552
 23
34.6949185345
 33
0.0
  0
SOLID
  5
108
330
102
100
AcDbEntity
  8
0
  6
Continuous
 62
     7
370
     0
100
AcDbTrace
 10
183.2974146552
 20
35.2029185345
 30
0.0
 11
186.5994146552
 21
34.6949185345
 31
0.0
 12
186.5994146552
 22
35.7109185345
 32
0.0
 13
186.5994146552
 23
35.7109185345
 33
0.0
  0
LINE
  5
109
330
102
100
AcDbEntity
  8
0
  6
Continuous
 62
     7
370
     0
100
AcDbLine
 10
202.8486167007
 20
39.8648018944
 30
0.0
 11
202.8486167007
 21
35.5809090772
 31
0.0
  0
LINE
  5
10A
330
102
100
AcDbEntity
  8
0
  6
Continuous
 62
     7
370
     0
100
AcDbLine
 10
202.8486167007
 20
35.5809090772
 30
0.0
 11
203.493511808
 21
35.5809090772
 31
0.0
  0
LINE
  5
10B
330
102
100
AcDbEntity
  8
0
  6
Continuous
 62
     7
370
     0
100
AcDbLine
 10
202.8486167007
 20
39.8648018944
 30
0.0
 11
203.493511808
 21
39.8648018944
 31
0.0
  0
LINE
  5
10C
330
102
100
AcDbEntity
  8
0
  6
Continuous
 62
     7
370
     0
100
AcDbLine
 10
213.6366308087
 20
39.8648018944
 30
0.0
 11
213.6366308087
 21
35.5809090772
 31
0.0
  0
LINE
  5
10D
330
102
100
AcDbEntity
  8
0
  6
Continuous
 62
     7
370
     0
100
AcDbLine
 10
213.6366308087
 20
35.5809090772
 30
0.0
 11
212.9917357014
 21
35.5809090772
 31
0.0
  0
LINE
  5
10E
330
102
100
AcDbEntity
  8
0
  6
Continuous
 62
     7
370
     0
100
AcDbLine
 10
213.6366308087
 20
39.8648018944
 30
0.0
 11
212.9917357014
 21
39.8648018944
 31
0.0
  0
LINE
  5
10F
330
102
100
AcDbEntity
  8
0
  6
Continuous
 62
     7
370
     0
100
AcDbLine
 10
189.2974146552
 20
67.9329685345
 30
0.0
 11
189.2974146552
 21
32.0279185345
 31
0.0
  0
LINE
  5
110
330
102
100
AcDbEntity
  8
0
  6
Continuous
 62
     7
370
     0
100
AcDbLine
 10
183.2974146552
 20
67.9329685345
 30
0.0
 11
183.2974146552
 21
32.0279185345
 31
0.0
  0
LINE
  5
111
330
102
100
AcDbEntity
  8
0
  6
Continuous
 62
     7
370
     0
100
AcDbLine
 10
189.2974146552
 20
35.2029185345
 30
0.0
 11
194.5181835592
 21
35.2029185345
 31
0.0
  0
LINE
  5
112
330
102
100
AcDbEntity
  8
0
  6
Continuous
 62
     7
370
     0
100
AcDbLine
 10
183.2974146552
 20
35.2029185345
 30
0.0
 11
189.2974146552
 21
35.2029185345
 31
0.0
  0
MTEXT
  5
113
330
102
100
AcDbEntity
  8
0
  6
Continuous
 62
     7
370
     0
100
AcDbMText
 10
207.0708779238
 20
34.2558350549
 30
0.0
 40
3.175
 41
0.0
 71
     1
 72
     1
  1
3
  7
SLDTEXTSTYLE0
 73
     1
 44
1.0
  0
MTEXT
  5
114
330
102
100
AcDbEntity
  8
0
  6
Continuous
 62
     7
370
     0
100
AcDbMText
 10
204.1384069154
 20
39.2957089575
 30
0.0
 40
3.175
 41
0.0
 71
     1
 72
     1
  1
.118
  7
SLDTEXTSTYLE0
 73
     1
 44
1.0
  0
ENDBLK
  5
104
330
102
100
AcDbEntity
  8
0
100
AcDbBlockEnd
  0
BLOCK
  5
117
330
116
100
AcDbEntity
  8
0
100
AcDbBlockBegin
  2
*D11
 70
     1
 10
0.0
 20
0.0
 30
0.0
  3
*D11
  1

  0
ARC
  5
119
330
116
100
AcDbEntity
  8
0
  6
Continuous
 62
     7
370
     0
100
AcDbCircle
 10
166.4712047625
 20
43.9722301354
 30
0.0
 40
11.26950064424395
100
AcDbArc
 50
153.4349488229
 51
206.5650511771
  0
ARC
  5
11A
330
116
100
AcDbEntity
  8
0
  6
Continuous
 62
     7
370
     0
100
AcDbCircle
 10
162.8543036897
 20
43.9722301354
 30
0.0
 40
11.26950064424398
100
AcDbArc
 50
333.4349488229
 51
26.5650511771
  0
SOLID
  5
11B
330
116
100
AcDbEntity
  8
0
  6
Continuous
 62
     7
370
     0
100
AcDbTrace
 10
186.2974146552
 20
43.9722301354
 30
0.0
 11
182.9954146552
 21
44.4802301354
 31
0.0
 12
182.9954146552
 22
43.4642301354
 32
0.0
 13
182.9954146552
 23
43.4642301354
 33
0.0
  0
SOLID
  5
11C
330
116
100
AcDbEntity
  8
0
  6
Continuous
 62
     7
370
     0
100
AcDbTrace
 10
183.2974146552
 20
43.9722301354
 30
0.0
 11
186.5994146552
 21
43.4642301354
 31
0.0
 12
186.5994146552
 22
44.4802301354
 32
0.0
 13
186.5994146552
 23
44.4802301354
 33
0.0
  0
LINE
  5
11D
330
116
100
AcDbEntity
  8
0
  6
Continuous
 62
     7
370
     0
100
AcDbLine
 10
159.2687471721
 20
48.6341134953
 30
0.0
 11
159.2687471721
 21
44.3502206781
 31
0.0
  0
LINE
  5
11E
330
116
100
AcDbEntity
  8
0
  6
Continuous
 62
     7
370
     0
100
AcDbLine
 10
159.2687471721
 20
44.3502206781
 30
0.0
 11
159.9136422794
 21
44.3502206781
 31
0.0
  0
LINE
  5
11F
330
116
100
AcDbEntity
  8
0
  6
Continuous
 62
     7
370
     0
100
AcDbLine
 10
159.2687471721
 20
48.6341134953
 30
0.0
 11
159.9136422794
 21
48.6341134953
 31
0.0
  0
LINE
  5
120
330
116
100
AcDbEntity
  8
0
  6
Continuous
 62
     7
370
     0
100
AcDbLine
 10
170.0567612801
 20
48.6341134953
 30
0.0
 11
170.0567612801
 21
44.3502206781
 31
0.0
  0
LINE
  5
121
330
116
100
AcDbEntity
  8
0
  6
Continuous
 62
     7
370
     0
100
AcDbLine
 10
170.0567612801
 20
44.3502206781
 30
0.0
 11
169.4118661728
 21
44.3502206781
 31
0.0
  0
LINE
  5
122
330
116
100
AcDbEntity
  8
0
  6
Continuous
 62
     7
370
     0
100
AcDbLine
 10
170.0567612801
 20
48.6341134953
 30
0.0
 11
169.4118661728
 21
48.6341134953
 31
0.0
  0
LINE
  5
123
330
116
100
AcDbEntity
  8
0
  6
Continuous
 62
     7
370
     0
100
AcDbLine
 10
186.2974146552
 20
67.9329685345
 30
0.0
 11
186.2974146552
 21
40.7972301354
 31
0.0
  0
LINE
  5
124
330
116
100
AcDbEntity
  8
0
  6
Continuous
 62
     7
370
     0
100
AcDbLine
 10
183.2974146552
 20
67.9329685345
 30
0.0
 11
183.2974146552
 21
40.7972301354
 31
0.0
  0
LINE
  5
125
330
116
100
AcDbEntity
  8
0
  6
Continuous
 62
     7
370
     0
100
AcDbLine
 10
186.2974146552
 20
43.9722301354
 30
0.0
 11
183.2974146552
 21
43.9722301354
 31
0.0
  0
LINE
  5
126
330
116
100
AcDbEntity
  8
0
  6
Continuous
 62
     7
370
     0
100
AcDbLine
 10
183.2974146552
 20
43.9722301354
 30
0.0
 11
178.3871944216
 21
43.9722301354
 31
0.0
  0
MTEXT
  5
127
330
116
100
AcDbEntity
  8
0
  6
Continuous
 62
     7
370
     0
100
AcDbMText
 10
161.7315257902
 20
43.0251466558
 30
0.0
 40
3.175
 41
0.0
 71
     1
 72
     1
  1
1.5
  7
SLDTEXTSTYLE0
 73
     1
 44
1.0
  0
MTEXT
  5
128
330
116
100
AcDbEntity
  8
0
  6
Continuous
 62
     7
370
     0
100
AcDbMText
 10
160.5585373868
 20
48.0650205584
 30
0.0
 40
3.175
 41
0.0
 71
     1
 72
     1
  1
.059
  7
SLDTEXTSTYLE0
 73
     1
 44
1.0
  0
ENDBLK
  5
118
330
116
100
AcDbEntity
  8
0
100
AcDbBlockEnd
  0
BLOCK
  5
136
330
135
100
AcDbEntity
  8
0
100
AcDbBlockBegin
  2
*D12
 70
     1
 10
0.0
 20
0.0
 30
0.0
  3
*D12
  1

  0
ARC
  5
138
330
135
100
AcDbEntity
  8
0
  6
Continuous
 62
     7
370
     0
100
AcDbCircle
 10
179.7851747837
 20
163.0442035421
 30
0.0
 40
11.269500644244
100
AcDbArc
 50
153.4349488229
 51
206.5650511771
  0
ARC
  5
139
330
135
100
AcDbEntity
  8
0
  6
Continuous
 62
     7
370
     0
100
AcDbCircle
 10
176.1682737108
 20
163.0442035421
 30
0.0
 40
11.26950064424398
100
AcDbArc
 50
333.4349488229
 51
26.5650511771
  0
SOLID
  5
13A
330
135
100
AcDbEntity
  8
0
  6
Continuous
 62
     7
370
     0
100
AcDbTrace
 10
157.9022840517
 20
152.9256262679
 30
0.0
 11
157.3942840517
 21
149.6236262679
 31
0.0
 12
158.4102840517
 22
149.6236262679
 32
0.0
 13
158.4102840517
 23
149.6236262679
 33
0.0
  0
SOLID
  5
13B
330
135
100
AcDbEntity
  8
0
  6
Continuous
 62
     7
370
     0
100
AcDbTrace
 10
157.9022840517
 20
143.9256262679
 30
0.0
 11
158.4102840517
 21
147.2276262679
 31
0.0
 12
157.3942840517
 22
147.2276262679
 32
0.0
 13
157.3942840517
 23
147.2276262679
 33
0.0
  0
LINE
  5
13C
330
135
100
AcDbEntity
  8
0
  6
Continuous
 62
     7
370
     0
100
AcDbLine
 10
172.5827171932
 20
167.706086902
 30
0.0
 11
172.5827171932
 21
163.4221940848
 31
0.0
  0
LINE
  5
13D
330
135
100
AcDbEntity
  8
0
  6
Continuous
 62
     7
370
     0
100
AcDbLine
 10
172.5827171932
 20
163.4221940848
 30
0.0
 11
173.2276123006
 21
163.4221940848
 31
0.0
  0
LINE
  5
13E
330
135
100
AcDbEntity
  8
0
  6
Continuous
 62
     7
370
     0
100
AcDbLine
 10
172.5827171932
 20
167.706086902
 30
0.0
 11
173.2276123006
 21
167.706086902
 31
0.0
  0
LINE
  5
13F
330
135
100
AcDbEntity
  8
0
  6
Continuous
 62
     7
370
     0
100
AcDbLine
 10
183.3707313013
 20
167.706086902
 30
0.0
 11
183.3707313013
 21
163.4221940848
 31
0.0
  0
LINE
  5
140
330
135
100
AcDbEntity
  8
0
  6
Continuous
 62
     7
370
     0
100
AcDbLine
 10
183.3707313013
 20
163.4221940848
 30
0.0
 11
182.7258361939
 21
163.4221940848
 31
0.0
  0
LINE
  5
141
330
135
100
AcDbEntity
  8
0
  6
Continuous
 62
     7
370
     0
100
AcDbLine
 10
183.3707313013
 20
167.706086902
 30
0.0
 11
182.7258361939
 21
167.706086902
 31
0.0
  0
LINE
  5
142
330
135
100
AcDbEntity
  8
0
  6
Continuous
 62
     7
370
     0
100
AcDbLine
 10
143.1722340517
 20
152.9256262679
 30
0.0
 11
161.0772840517
 21
152.9256262679
 31
0.0
  0
LINE
  5
143
330
135
100
AcDbEntity
  8
0
  6
Continuous
 62
     7
370
     0
100
AcDbLine
 10
143.1722340517
 20
143.9256262679
 30
0.0
 11
161.0772840517
 21
143.9256262679
 31
0.0
  0
LINE
  5
144
330
135
100
AcDbEntity
  8
0
  6
Continuous
 62
     7
370
     0
100
AcDbLine
 10
164.2522840517
 20
163.0442035421
 30
0.0
 11
157.9022840517
 21
163.0442035421
 31
0.0
  0
LINE
  5
145
330
135
100
AcDbEntity
  8
0
  6
Continuous
 62
     7
370
     0
100
AcDbLine
 10
157.9022840517
 20
163.0442035421
 30
0.0
 11
157.9022840517
 21
152.9256262679
 31
0.0
  0
LINE
  5
146
330
135
100
AcDbEntity
  8
0
  6
Continuous
 62
     7
370
     0
100
AcDbLine
 10
157.9022840517
 20
152.9256262679
 30
0.0
 11
157.9022840517
 21
143.9256262679
 31
0.0
  0
MTEXT
  5
147
330
135
100
AcDbEntity
  8
0
  6
Continuous
 62
     7
370
     0
100
AcDbMText
 10
175.0454958113
 20
162.0971200626
 30
0.0
 40
3.175
 41
0.0
 71
     1
 72
     1
  1
4.5
  7
SLDTEXTSTYLE0
 73
     1
 44
1.0
  0
MTEXT
  5
148
330
135
100
AcDbEntity
  8
0
  6
Continuous
 62
     7
370
     0
100
AcDbMText
 10
173.8725074079
 20
167.1369939652
 30
0.0
 40
3.175
 41
0.0
 71
     1
 72
     1
  1
.177
  7
SLDTEXTSTYLE0
 73
     1
 44
1.0
  0
ENDBLK
  5
137
330
135
100
AcDbEntity
  8
0
100
AcDbBlockEnd
  0
ENDSEC
  0
SECTION
  2
ENTITIES
  0
INSERT
  5
4B
330
1F
100
AcDbEntity
  8
0
  6
Continuous
 62
     7
370
     0
100
AcDbBlockReference
  2
SW_NOTE_0
 10
23.4210991379
 20
195.5723360508
 30
0.0
  0
LINE
  5
4C
330
1F
100
AcDbEntity
  8
0
  6
Continuous
 62
     7
100
AcDbLine
 10
141.9022340517
 20
79.2029685345
 30
0.0
 11
121.9022340517
 21
79.2029685345
 31
0.0
  0
LINE
  5
4D
330
1F
100
AcDbEntity
  8
0
  6
Continuous
 62
     7
100
AcDbLine
 10
131.9022340517
 20
89.2029685345
 30
0.0
 11
131.9022340517
 21
69.2029685345
 31
0.0
  0
LINE
  5
4E
330
1F
100
AcDbEntity
  8
0
  6
Continuous
 62
     7
100
AcDbLine
 10
111.9022340517
 20
89.2029685345
 30
0.0
 11
111.9022340517
 21
69.2029685345
 31
0.0
  0
LINE
  5
4F
330
1F
100
AcDbEntity
  8
0
  6
Continuous
 62
     7
100
AcDbLine
 10
101.9022340517
 20
79.2029685345
 30
0.0
 11
121.9022340517
 21
79.2029685345
 31
0.0
  0
LINE
  5
50
330
1F
100
AcDbEntity
  8
0
  6
Continuous
 62
     7
100
AcDbLine
 10
131.9022340517
 20
109.2029685345
 30
0.0
 11
131.9022340517
 21
89.2029685345
 31
0.0
  0
LINE
  5
51
330
1F
100
AcDbEntity
  8
0
  6
Continuous
 62
     7
100
AcDbLine
 10
121.9022340517
 20
99.2029685345
 30
0.0
 11
141.9022340517
 21
99.2029685345
 31
0.0
  0
LINE
  5
52
330
1F
100
AcDbEntity
  8
0
  6
Continuous
 62
     7
100
AcDbLine
 10
111.9022340517
 20
109.2029685345
 30
0.0
 11
111.9022340517
 21
89.2029685345
 31
0.0
  0
LINE
  5
53
330
1F
100
AcDbEntity
  8
0
  6
Continuous
 62
     7
100
AcDbLine
 10
101.9022340517
 20
99.2029685345
 30
0.0
 11
121.9022340517
 21
99.2029685345
 31
0.0
  0
LINE
  5
54
330
1F
100
AcDbEntity
  8
0
  6
Continuous
 62
     7
370
    15
100
AcDbLine
 10
101.9022340517
 20
109.2029685345
 30
0.0
 11
101.9022340517
 21
89.2029685345
 31
0.0
  0
LINE
  5
55
330
1F
100
AcDbEntity
  8
0
  6
Continuous
 62
     7
370
    15
100
AcDbLine
 10
121.9022340517
 20
89.2029685345
 30
0.0
 11
121.9022340517
 21
109.2029685345
 31
0.0
  0
LINE
  5
56
330
1F
100
AcDbEntity
  8
0
  6
Continuous
 62
     7
370
    15
100
AcDbLine
 10
101.9022340517
 20
89.2029685345
 30
0.0
 11
121.9022340517
 21
89.2029685345
 31
0.0
  0
LINE
  5
57
330
1F
100
AcDbEntity
  8
0
  6
Continuous
 62
     7
370
    15
100
AcDbLine
 10
121.9022340517
 20
109.2029685345
 30
0.0
 11
101.9022340517
 21
109.2029685345
 31
0.0
  0
LINE
  5
58
330
1F
100
AcDbEntity
  8
0
  6
Continuous
 62
     7
370
    15
100
AcDbLine
 10
141.9022340517
 20
89.2029685345
 30
0.0
 11
141.9022340517
 21
109.2029685345
 31
0.0
  0
LINE
  5
59
330
1F
100
AcDbEntity
  8
0
  6
Continuous
 62
     7
370
    15
100
AcDbLine
 10
121.9022340517
 20
89.2029685345
 30
0.0
 11
141.9022340517
 21
89.2029685345
 31
0.0
  0
LINE
  5
5A
330
1F
100
AcDbEntity
  8
0
  6
Continuous
 62
     7
370
    15
100
AcDbLine
 10
141.9022340517
 20
109.2029685345
 30
0.0
 11
121.9022340517
 21
109.2029685345
 31
0.0
  0
LINE
  5
5B
330
1F
100
AcDbEntity
  8
0
  6
Continuous
 62
     7
370
    15
100
AcDbLine
 10
121.9022340517
 20
89.2029685345
 30
0.0
 11
121.9022340517
 21
69.2029685345
 31
0.0
  0
LINE
  5
5C
330
1F
100
AcDbEntity
  8
0
  6
Continuous
 62
     7
370
    15
100
AcDbLine
 10
121.9022340517
 20
69.2029685345
 30
0.0
 11
141.9022340517
 21
69.2029685345
 31
0.0
  0
LINE
  5
5D
330
1F
100
AcDbEntity
  8
0
  6
Continuous
 62
     7
370
    15
100
AcDbLine
 10
141.9022340517
 20
69.2029685345
 30
0.0
 11
141.9022340517
 21
89.2029685345
 31
0.0
  0
LINE
  5
5E
330
1F
100
AcDbEntity
  8
0
  6
Continuous
 62
     7
370
    15
100
AcDbLine
 10
101.9022340517
 20
69.2029685345
 30
0.0
 11
121.9022340517
 21
69.2029685345
 31
0.0
  0
LINE
  5
5F
330
1F
100
AcDbEntity
  8
0
  6
Continuous
 62
     7
370
    15
100
AcDbLine
 10
101.9022340517
 20
89.2029685345
 30
0.0
 11
101.9022340517
 21
69.2029685345
 31
0.0
  0
DIMENSION
  5
60
330
1F
100
AcDbEntity
  8
0
  6
Continuous
 62
     7
370
     0
100
AcDbDimension
  2
*D2
 10
141.9022340517
 20
35.2029185345
 30
0.0
 11
120.9529685345
 21
35.2029185345
 31
0.0
 70
   160
  1
(<>)
 71
     2
 42
-1.0
  3
SLDDIMSTYLE0
100
AcDbAlignedDimension
 13
101.9022340517
 23
69.2029685345
 33
0.0
 14
141.9022340517
 24
69.2029685345
 34
0.0
100
AcDbRotatedDimension
  0
DIMENSION
  5
75
330
1F
100
AcDbEntity
  8
0
  6
Continuous
 62
     7
370
     0
100
AcDbDimension
  2
*D3
 10
101.9022340517
 20
47.2029185345
 30
0.0
 11
76.3398392241
 21
47.2029185345
 31
0.0
 70
   160
  1
(<>)
 71
     2
 42
-1.0
  3
SLDDIMSTYLE0
100
AcDbAlignedDimension
 13
121.9022340517
 23
69.2029685345
 33
0.0
 14
101.9022340517
 24
69.2029685345
 34
0.0
100
AcDbRotatedDimension
  0
DIMENSION
  5
89
330
1F
100
AcDbEntity
  8
0
  6
Continuous
 62
     7
370
     0
100
AcDbDimension
  2
*D4
 10
55.9021340517
 20
69.2029685345
 30
0.0
 11
55.9021340517
 21
88.2538030172
 31
0.0
 70
   160
  1
(<>)
 71
     2
 42
-1.0
  3
SLDDIMSTYLE0
100
AcDbAlignedDimension
 13
101.9022340517
 23
109.2029685345
 33
0.0
 14
101.9022340517
 24
69.2029685345
 34
0.0
 50
90.0
100
AcDbRotatedDimension
  0
DIMENSION
  5
9D
330
1F
100
AcDbEntity
  8
0
  6
Continuous
 62
     7
370
     0
100
AcDbDimension
  2
*D5
 10
73.9021340517
 20
69.2029685345
 30
0.0
 11
73.9021340517
 21
25.2028685345
 31
0.0
 70
   160
  1
(<>)
 71
     2
 42
-1.0
  3
SLDDIMSTYLE0
100
AcDbAlignedDimension
 13
101.9022340517
 23
89.2029685345
 33
0.0
 14
101.9022340517
 24
69.2029685345
 34
0.0
 50
90.0
100
AcDbRotatedDimension
  0
DIMENSION
  5
B2
330
1F
100
AcDbEntity
  8
0
  6
Continuous
 62
     7
370
     0
100
AcDbDimension
  2
*D6
 10
141.9022340517
 20
59.2029185345
 30
0.0
 11
163.9022840517
 21
59.2029185345
 31
0.0
 70
   160
  1
(<>)
 71
     2
 42
-1.0
  3
SLDDIMSTYLE0
100
AcDbAlignedDimension
 13
131.9022340517
 23
69.2029685345
 33
0.0
 14
141.9022340517
 24
69.2029685345
 34
0.0
100
AcDbRotatedDimension
  0
DIMENSION
  5
C6
330
1F
100
AcDbEntity
  8
0
  6
Continuous
 62
     7
370
     0
100
AcDbDimension
  2
*D7
 10
90.5702403694
 20
109.2029685345
 30
0.0
 11
90.5702403694
 21
124.8940280387
 31
0.0
 70
   160
  1
(<>)
 71
     2
 42
-1.0
  3
SLDDIMSTYLE0
100
AcDbAlignedDimension
 13
101.9022340517
 23
99.2029685345
 33
0.0
 14
101.9022340517
 24
109.2029685345
 34
0.0
 50
90.0
100
AcDbRotatedDimension
  0
INSERT
  5
E2
102
{ACAD_REACTORS
330
E4
102
}
330
1F
100
AcDbEntity
  8
0
  6
Continuous
 62
     7
370
     0
100
AcDbBlockReference
  2
SW_NOTE_1
 10
123.3396691492
 20
126.395478674
 30
0.0
  0
LEADER
  5
E4
330
1F
100
AcDbEntity
  8
0
  6
Continuous
 62
     7
370
     0
100
AcDbLeader
  3
SLDDIMSTYLE1
 73
     2
 76
     3
 10
111.9022340517
 20
100.0875657566
 30
0.0
 10
117.0896691492
 20
126.395478674
 30
0.0
 10
123.3396691492
 20
126.395478674
 30
0.0
340
E2
  0
LINE
  5
E5
330
1F
100
AcDbEntity
  8
0
  6
Continuous
 62
     7
370
    15
100
AcDbLine
 10
195.2974146552
 20
109.2029685345
 30
0.0
 11
183.2974146552
 21
109.2029685345
 31
0.0
  0
LINE
  5
E6
330
1F
100
AcDbEntity
  8
0
  6
Continuous
 62
     7
370
    15
100
AcDbLine
 10
195.2974146552
 20
109.2029685345
 30
0.0
 11
195.2974146552
 21
89.2029685345
 31
0.0
  0
LINE
  5
E7
330
1F
100
AcDbEntity
  8
0
  6
Continuous
 62
     7
370
    15
100
AcDbLine
 10
195.2974146552
 20
89.2029685345
 30
0.0
 11
186.2974146552
 21
89.2029685345
 31
0.0
  0
LINE
  5
E8
330
1F
100
AcDbEntity
  8
0
  6
Continuous
 62
     7
370
    15
100
AcDbLine
 10
186.2974146552
 20
89.2029685345
 30
0.0
 11
186.2974146552
 21
69.2029685345
 31
0.0
  0
LINE
  5
E9
330
1F
100
AcDbEntity
  8
0
  6
Continuous
 62
     7
370
    15
100
AcDbLine
 10
186.2974146552
 20
69.2029685345
 30
0.0
 11
183.2974146552
 21
69.2029685345
 31
0.0
  0
LINE
  5
EA
330
1F
100
AcDbEntity
  8
0
  6
Continuous
 62
     7
370
    15
100
AcDbLine
 10
183.2974146552
 20
109.2029685345
 30
0.0
 11
183.2974146552
 21
69.2029685345
 31
0.0
  0
LINE
  5
EB
330
1F
100
AcDbEntity
  8
0
  6
Continuous
 62
     7
370
    15
100
AcDbLine
 10
189.2974146552
 20
89.2029685345
 30
0.0
 11
189.2974146552
 21
69.2029685345
 31
0.0
  0
LINE
  5
EC
330
1F
100
AcDbEntity
  8
0
  6
Continuous
 62
     7
370
    15
100
AcDbLine
 10
189.2974146552
 20
69.2029685345
 30
0.0
 11
186.2974146552
 21
69.2029685345
 31
0.0
  0
DIMENSION
  5
ED
330
1F
100
AcDbEntity
  8
0
  6
Continuous
 62
     7
370
     0
100
AcDbDimension
  2
*D9
 10
183.2974146552
 20
125.2030685345
 30
0.0
 11
211.2974646552
 21
125.2030685345
 31
0.0
 70
   160
  1
(<>)
 71
     2
 42
-1.0
  3
SLDDIMSTYLE0
100
AcDbAlignedDimension
 13
195.2974146552
 23
109.2029685345
 33
0.0
 14
183.2974146552
 24
109.2029685345
 34
0.0
100
AcDbRotatedDimension
  0
DIMENSION
  5
101
330
1F
100
AcDbEntity
  8
0
  6
Continuous
 62
     7
370
     0
100
AcDbDimension
  2
*D10
 10
183.2974146552
 20
35.2029185345
 30
0.0
 11
208.2426237547
 21
35.2029185345
 31
0.0
 70
   160
  1
(<>)
 71
     2
 42
-1.0
  3
SLDDIMSTYLE0
100
AcDbAlignedDimension
 13
189.2974146552
 23
69.2029685345
 33
0.0
 14
183.2974146552
 24
69.2029685345
 34
0.0
100
AcDbRotatedDimension
  0
DIMENSION
  5
115
330
1F
100
AcDbEntity
  8
0
  6
Continuous
 62
     7
370
     0
100
AcDbDimension
  2
*D11
 10
183.2974146552
 20
43.9722301354
 30
0.0
 11
164.6627542261
 21
43.9722301354
 31
0.0
 70
   160
  1
(<>)
 71
     2
 42
-1.0
  3
SLDDIMSTYLE0
100
AcDbAlignedDimension
 13
186.2974146552
 23
69.2029685345
 33
0.0
 14
183.2974146552
 24
69.2029685345
 34
0.0
100
AcDbRotatedDimension
  0
LINE
  5
129
330
1F
100
AcDbEntity
  8
0
  6
Continuous
 62
     7
370
    15
100
AcDbLine
 10
121.9022340517
 20
149.9256262679
 30
0.0
 11
121.9022340517
 21
146.9256262679
 31
0.0
  0
LINE
  5
12A
330
1F
100
AcDbEntity
  8
0
  6
Continuous
 62
     7
370
    15
100
AcDbLine
 10
121.9022340517
 20
149.9256262679
 30
0.0
 11
141.9022340517
 21
149.9256262679
 31
0.0
  0
LINE
  5
12B
330
1F
100
AcDbEntity
  8
0
  6
Continuous
 62
     7
370
    15
100
AcDbLine
 10
141.9022340517
 20
149.9256262679
 30
0.0
 11
141.9022340517
 21
143.9256262679
 31
0.0
  0
LINE
  5
12C
330
1F
100
AcDbEntity
  8
0
  6
Continuous
 62
     7
370
    15
100
AcDbLine
 10
101.9022340517
 20
143.9256262679
 30
0.0
 11
141.9022340517
 21
143.9256262679
 31
0.0
  0
LINE
  5
12D
330
1F
100
AcDbEntity
  8
0
  6
Continuous
 62
     7
370
    15
100
AcDbLine
 10
101.9022340517
 20
146.9256262679
 30
0.0
 11
101.9022340517
 21
143.9256262679
 31
0.0
  0
LINE
  5
12E
330
1F
100
AcDbEntity
  8
0
  6
Continuous
 62
     7
370
    15
100
AcDbLine
 10
101.9022340517
 20
146.9256262679
 30
0.0
 11
121.9022340517
 21
146.9256262679
 31
0.0
  0
LINE
  5
12F
330
1F
100
AcDbEntity
  8
0
  6
Continuous
 62
     7
370
    15
100
AcDbLine
 10
101.9022340517
 20
155.9256262679
 30
0.0
 11
121.9022340517
 21
155.9256262679
 31
0.0
  0
LINE
  5
130
330
1F
100
AcDbEntity
  8
0
  6
Continuous
 62
     7
370
    15
100
AcDbLine
 10
121.9022340517
 20
155.9256262679
 30
0.0
 11
121.9022340517
 21
152.9256262679
 31
0.0
  0
LINE
  5
131
330
1F
100
AcDbEntity
  8
0
  6
Continuous
 62
     7
370
    15
100
AcDbLine
 10
121.9022340517
 20
152.9256262679
 30
0.0
 11
141.9022340517
 21
152.9256262679
 31
0.0
  0
LINE
  5
132
330
1F
100
AcDbEntity
  8
0
  6
Continuous
 62
     7
370
    15
100
AcDbLine
 10
141.9022340517
 20
152.9256262679
 30
0.0
 11
141.9022340517
 21
149.9256262679
 31
0.0
  0
LINE
  5
133
330
1F
100
AcDbEntity
  8
0
  6
Continuous
 62
     7
370
    15
100
AcDbLine
 10
101.9022340517
 20
155.9256262679
 30
0.0
 11
101.9022340517
 21
146.9256262679
 31
0.0
  0
DIMENSION
  5
134
330
1F
100
AcDbEntity
  8
0
  6
Continuous
 62
     7
370
     0
100
AcDbDimension
  2
*D12
 10
157.9022840517
 20
143.9256262679
 30
0.0
 11
157.9022840517
 21
163.0442035421
 31
0.0
 70
   160
  1
(<>)
 71
     2
 42
-1.0
  3
SLDDIMSTYLE0
100
AcDbAlignedDimension
 13
141.9022340517
 23
152.9256262679
 33
0.0
 14
141.9022340517
 24
143.9256262679
 34
0.0
 50
90.0
100
AcDbRotatedDimension
  0
ENDSEC
  0
SECTION
  2
OBJECTS
  0
DICTIONARY
  5
C
330
0
100
AcDbDictionary
281
     1
  3
ACAD_GROUP
350
D
  3
ACAD_LAYOUT
350
1A
  3
ACAD_MLEADERSTYLE
350
14A
  3
ACAD_MLINESTYLE
350
17
  3
ACAD_PLOTSETTINGS
350
19
  3
ACAD_PLOTSTYLENAME
350
E
  3
ACAD_TABLESTYLE
350
149
  3
ACAD_VISUALSTYLE
350
2A
  3
AcDbVariableDictionary
350
14B
  0
DICTIONARY
  5
D
102
{ACAD_REACTORS
330
C
102
}
330
C
100
AcDbDictionary
281
     1
  0
DICTIONARY
  5
1A
102
{ACAD_REACTORS
330
C
102
}
330
C
100
AcDbDictionary
281
     1
  3
Layout1
350
1E
  3
Layout2
350
26
  3
Model
350
22
  0
DICTIONARY
  5
14A
102
{ACAD_REACTORS
330
C
102
}
330
C
100
AcDbDictionary
281
     1
  0
DICTIONARY
  5
17
102
{ACAD_REACTORS
330
C
102
}
330
C
100
AcDbDictionary
281
     1
  3
Standard
350
18
  0
DICTIONARY
  5
19
102
{ACAD_REACTORS
330
C
102
}
330
C
100
AcDbDictionary
281
     1
  0
ACDBDICTIONARYWDFLT
  5
E
102
{ACAD_REACTORS
330
C
102
}
330
C
100
AcDbDictionary
281
     1
  3
Normal
350
F
100
AcDbDictionaryWithDefault
340
F
  0
DICTIONARY
  5
149
102
{ACAD_REACTORS
330
C
102
}
330
C
100
AcDbDictionary
281
     1
  0
DICTIONARY
  5
2A
102
{ACAD_REACTORS
330
C
102
}
330
C
100
AcDbDictionary
281
     1
  3
2dWireframe
350
2F
  3
3D Hidden
350
31
  3
3dWireframe
350
30
  3
Basic
350
32
  3
Brighten
350
36
  3
ColorChange
350
3A
  3
Conceptual
350
34
  3
Dim
350
35
  3
Facepattern
350
39
  3
Flat
350
2B
  3
FlatWithEdges
350
2C
  3
Gouraud
350
2D
  3
GouraudWithEdges
350
2E
  3
Linepattern
350
38
  3
Realistic
350
33
  3
Thicken
350
37
  0
DICTIONARY
  5
14B
102
{ACAD_REACTORS
330
C
102
}
330
C
100
AcDbDictionary
281
     1
  3
PSOLHEIGHT
350
14D
  3
PSOLWIDTH
350
14C
  0
LAYOUT
  5
1E
102
{ACAD_REACTORS
330
1A
102
}
330
1A
100
AcDbPlotSettings
  1

  2
none_device
  4

  6

 40
0.0
 41
0.0
 42
0.0
 43
0.0
 44
0.0
 45
0.0
 46
0.0
 47
0.0
 48
0.0
 49
0.0
140
0.0
141
0.0
142
1.0
143
1.0
 70
   688
 72
     0
 73
     0
 74
     5
  7

 75
    16
147
1.0
148
0.0
149
0.0
100
AcDbLayout
  1
Layout1
 70
     1
 71
     1
 10
0.0
 20
0.0
 11
420.0
 21
297.0
 12
0.0
 22
0.0
 32
0.0
 14
1.0000000000E+20
 24
1.0000000000E+20
 34
1.0000000000E+20
 15
-1.0000000000E+20
 25
-1.0000000000E+20
 35
-1.0000000000E+20
146
0.0
 13
0.0
 23
0.0
 33
0.0
 16
1.0
 26
0.0
 36
0.0
 17
0.0
 27
1.0
 37
0.0
 76
     0
330
1B
  0
LAYOUT
  5
26
102
{ACAD_REACTORS
330
1A
102
}
330
1A
100
AcDbPlotSettings
  1

  2
none_device
  4

  6

 40
0.0
 41
0.0
 42
0.0
 43
0.0
 44
0.0
 45
0.0
 46
0.0
 47
0.0
 48
0.0
 49
0.0
140
0.0
141
0.0
142
1.0
143
1.0
 70
   688
 72
     0
 73
     0
 74
     5
  7

 75
    16
147
1.0
148
0.0
149
0.0
100
AcDbLayout
  1
Layout2
 70
     1
 71
     2
 10
0.0
 20
0.0
 11
0.0
 21
0.0
 12
0.0
 22
0.0
 32
0.0
 14
0.0
 24
0.0
 34
0.0
 15
0.0
 25
0.0
 35
0.0
146
0.0
 13
0.0
 23
0.0
 33
0.0
 16
1.0
 26
0.0
 36
0.0
 17
0.0
 27
1.0
 37
0.0
 76
     0
330
23
  0
LAYOUT
  5
22
102
{ACAD_REACTORS
330
1A
102
}
330
1A
100
AcDbPlotSettings
  1

  2
none_device
  4

  6

 40
0.0
 41
0.0
 42
0.0
 43
0.0
 44
0.0
 45
0.0
 46
0.0
 47
0.0
 48
0.0
 49
0.0
140
0.0
141
0.0
142
1.0
143
1.0
 70
  1712
 72
     0
 73
     0
 74
     0
  7

 75
     0
147
1.0
148
0.0
149
0.0
100
AcDbLayout
  1
Model
 70
     1
 71
     0
 10
0.0
 20
0.0
 11
279.4
 21
215.9
 12
0.0
 22
0.0
 32
0.0
 14
0.0
 24
0.0
 34
0.0
 15
279.4
 25
215.9
 35
0.0
146
0.0
 13
0.0
 23
0.0
 33
0.0
 16
1.0
 26
0.0
 36
0.0
 17
0.0
 27
1.0
 37
0.0
 76
     0
330
1F
331
29
  0
MLINESTYLE
  5
18
102
{ACAD_REACTORS
330
17
102
}
330
17
100
AcDbMlineStyle
  2
Standard
 70
     0
  3

 62
   256
 51
90.0
 52
90.0
 71
     2
 49
0.5
 62
   256
  6
BYLAYER
 49
-0.5
 62
   256
  6
BYLAYER
  0
ACDBPLACEHOLDER
  5
F
102
{ACAD_REACTORS
330
E
102
}
330
E
  0
VISUALSTYLE
  5
2F
102
{ACAD_REACTORS
330
2A
102
}
330
2A
100
AcDbVisualStyle
  2
2dWireframe
 70
     4
 71
     0
 72
     2
 73
     0
 90
        0
 40
-0.6
 41
-30.0
 62
     5
 63
     7
 74
     1
 91
        4
 64
     7
 65
   257
 75
     1
175
     1
 42
1.0
 92
        0
 66
   257
 43
1.0
 76
     1
 77
     6
 78
     2
 67
     7
 79
     5
170
     0
171
     0
290
     0
174
     0
 93
        1
 44
0.0
173
     0
291
     0
 45
0.0
1001
ACAD
1000
AcDbSavedByObjectVersion
1070
     0
  0
VISUALSTYLE
  5
31
102
{ACAD_REACTORS
330
2A
102
}
330
2A
100
AcDbVisualStyle
  2
3D Hidden
 70
     6
 71
     1
 72
     2
 73
     2
 90
        0
 40
-0.6
 41
-30.0
 62
     5
 63
     7
 74
     2
 91
        2
 64
     7
 65
   257
 75
     2
175
     1
 42
40.0
 92
        0
 66
   257
 43
1.0
 76
     1
 77
     6
 78
     2
 67
     7
 79
     3
170
     0
171
     0
290
     0
174
     0
 93
        1
 44
0.0
173
     0
291
     0
 45
0.0
1001
ACAD
1000
AcDbSavedByObjectVersion
1070
     0
  0
VISUALSTYLE
  5
30
102
{ACAD_REACTORS
330
2A
102
}
330
2A
100
AcDbVisualStyle
  2
3dWireframe
 70
     5
 71
     0
 72
     2
 73
     0
 90
        0
 40
-0.6
 41
-30.0
 62
     5
 63
     7
 74
     1
 91
        4
 64
     7
 65
   257
 75
     1
175
     1
 42
1.0
 92
        0
 66
   257
 43
1.0
 76
     1
 77
     6
 78
     2
 67
     7
 79
     5
170
     0
171
     0
290
     0
174
     0
 93
        1
 44
0.0
173
     0
291
     0
 45
0.0
1001
ACAD
1000
AcDbSavedByObjectVersion
1070
     0
  0
VISUALSTYLE
  5
32
102
{ACAD_REACTORS
330
2A
102
}
330
2A
100
AcDbVisualStyle
  2
Basic
 70
     7
 71
     1
 72
     0
 73
     1
 90
        0
 40
-0.6
 41
-30.0
 62
     5
 63
     7
 74
     0
 91
        4
 64
     7
 65
   257
 75
     1
175
     1
 42
1.0
 92
        8
 66
     7
 43
1.0
 76
     1
 77
     6
 78
     2
 67
     7
 79
     5
170
     0
171
     0
290
     0
174
     0
 93
        1
 44
0.0
173
     0
291
     1
 45
0.0
1001
ACAD
1000
AcDbSavedByObjectVersion
1070
     0
  0
VISUALSTYLE
  5
36
102
{ACAD_REACTORS
330
2A
102
}
330
2A
100
AcDbVisualStyle
  2
Brighten
 70
    12
 71
     2
 72
     2
 73
     0
 90
        0
 40
-0.6
 41
-30.0
 62
     5
 63
     7
 74
     1
 91
        4
 64
     7
 65
   257
 75
     1
175
     1
 42
1.0
 92
        8
 66
     7
 43
1.0
 76
     1
 77
     6
 78
     2
 67
     7
 79
     5
170
     0
171
     0
290
     0
174
     0
 93
        1
 44
50.0
173
     0
291
     1
 45
0.0
1001
ACAD
1000
AcDbSavedByObjectVersion
1070
     0
  0
VISUALSTYLE
  5
3A
102
{ACAD_REACTORS
330
2A
102
}
330
2A
100
AcDbVisualStyle
  2
ColorChange
 70
    16
 71
     2
 72
     2
 73
     3
 90
        0
 40
-0.6
 41
-30.0
 62
     5
 63
     8
 74
     1
 91
        4
 64
     7
 65
   257
 75
     1
175
     1
 42
1.0
 92
        8
 66
     8
 43
1.0
 76
     1
 77
     6
 78
     2
 67
     7
 79
     5
170
     0
171
     0
290
     0
174
     0
 93
        1
 44
0.0
173
     0
291
     1
 45
0.0
1001
ACAD
1000
AcDbSavedByObjectVersion
1070
     0
  0
VISUALSTYLE
  5
34
102
{ACAD_REACTORS
330
2A
102
}
330
2A
100
AcDbVisualStyle
  2
Conceptual
 70
     9
 71
     3
 72
     2
 73
     0
 90
        0
 40
-0.6
 41
-30.0
 62
     5
 63
     7
 74
     2
 91
        2
 64
     7
 65
   257
 75
     1
175
     1
 42
40.0
 92
        8
 66
     7
 43
1.0
 76
     1
 77
     6
 78
     2
 67
     7
 79
     3
170
     0
171
     0
290
     0
174
     0
 93
        1
 44
0.0
173
     0
291
     0
 45
0.0
1001
ACAD
1000
AcDbSavedByObjectVersion
1070
     0
  0
VISUALSTYLE
  5
35
102
{ACAD_REACTORS
330
2A
102
}
330
2A
100
AcDbVisualStyle
  2
Dim
 70
    11
 71
     2
 72
     2
 73
     0
 90
        0
 40
-0.6
 41
-30.0
 62
     5
 63
     7
 74
     1
 91
        4
 64
     7
 65
   257
 75
     1
175
     1
 42
1.0
 92
        8
 66
     7
 43
1.0
 76
     1
 77
     6
 78
     2
 67
     7
 79
     5
170
     0
171
     0
290
     0
174
     0
 93
        1
 44
-50.0
173
     0
291
     1
 45
0.0
1001
ACAD
1000
AcDbSavedByObjectVersion
1070
     0
  0
VISUALSTYLE
  5
39
102
{ACAD_REACTORS
330
2A
102
}
330
2A
100
AcDbVisualStyle
  2
Facepattern
 70
    15
 71
     2
 72
     2
 73
     0
 90
        0
 40
-0.6
 41
-30.0
 62
     5
 63
     7
 74
     1
 91
        4
 64
     7
 65
   257
 75
     1
175
     1
 42
1.0
 92
        8
 66
     7
 43
1.0
 76
     1
 77
     6
 78
     2
 67
     7
 79
     5
170
     0
171
     0
290
     0
174
     0
 93
        1
 44
0.0
173
     0
291
     1
 45
0.0
1001
ACAD
1000
AcDbSavedByObjectVersion
1070
     0
  0
VISUALSTYLE
  5
2B
102
{ACAD_REACTORS
330
2A
102
}
330
2A
100
AcDbVisualStyle
  2
Flat
 70
     0
 71
     2
 72
     1
 73
     1
 90
        2
 40
-0.6
 41
30.0
 62
     5
 63
     7
 74
     0
 91
        4
 64
     7
 65
   257
 75
     1
175
     1
 42
1.0
 92
        8
 66
     7
 43
1.0
 76
     1
 77
     6
 78
     2
 67
     7
 79
     5
170
     0
171
     0
290
     0
174
     0
 93
       13
 44
0.0
173
     0
291
     1
 45
0.0
1001
ACAD
1000
AcDbSavedByObjectVersion
1070
     0
  0
VISUALSTYLE
  5
2C
102
{ACAD_REACTORS
330
2A
102
}
330
2A
100
AcDbVisualStyle
  2
FlatWithEdges
 70
     1
 71
     2
 72
     1
 73
     1
 90
        2
 40
-0.6
 41
30.0
 62
     5
 63
     7
 74
     1
 91
        4
 64
     7
 65
   257
 75
     1
175
     1
 42
1.0
 92
        0
 66
   257
 43
1.0
 76
     1
 77
     6
 78
     2
 67
     7
 79
     5
170
     0
171
     0
290
     0
174
     0
 93
       13
 44
0.0
173
     0
291
     1
 45
0.0
1001
ACAD
1000
AcDbSavedByObjectVersion
1070
     0
  0
VISUALSTYLE
  5
2D
102
{ACAD_REACTORS
330
2A
102
}
330
2A
100
AcDbVisualStyle
  2
Gouraud
 70
     2
 71
     2
 72
     2
 73
     1
 90
        2
 40
-0.6
 41
30.0
 62
     5
 63
     7
 74
     0
 91
        4
 64
     7
 65
   257
 75
     1
175
     1
 42
1.0
 92
        0
 66
     7
 43
1.0
 76
     1
 77
     6
 78
     2
 67
     7
 79
     5
170
     0
171
     0
290
     0
174
     0
 93
       13
 44
0.0
173
     0
291
     1
 45
0.0
1001
ACAD
1000
AcDbSavedByObjectVersion
1070
     0
  0
VISUALSTYLE
  5
2E
102
{ACAD_REACTORS
330
2A
102
}
330
2A
100
AcDbVisualStyle
  2
GouraudWithEdges
 70
     3
 71
     2
 72
     2
 73
     1
 90
        2
 40
-0.6
 41
30.0
 62
     5
 63
     7
 74
     1
 91
        4
 64
     7
 65
   257
 75
     1
175
     1
 42
1.0
 92
        0
 66
   257
 43
1.0
 76
     1
 77
     6
 78
     2
 67
     7
 79
     5
170
     0
171
     0
290
     0
174
     0
 93
       13
 44
0.0
173
     0
291
     1
 45
0.0
1001
ACAD
1000
AcDbSavedByObjectVersion
1070
     0
  0
VISUALSTYLE
  5
38
102
{ACAD_REACTORS
330
2A
102
}
330
2A
100
AcDbVisualStyle
  2
Linepattern
 70
    14
 71
     2
 72
     2
 73
     0
 90
        0
 40
-0.6
 41
-30.0
 62
     5
 63
     7
 74
     1
 91
        4
 64
     7
 65
   257
 75
     7
175
     7
 42
1.0
 92
        8
 66
     7
 43
1.0
 76
     1
 77
     6
 78
     2
 67
     7
 79
     5
170
     0
171
     0
290
     0
174
     0
 93
        1
 44
0.0
173
     0
291
     1
 45
0.0
1001
ACAD
1000
AcDbSavedByObjectVersion
1070
     0
  0
VISUALSTYLE
  5
33
102
{ACAD_REACTORS
330
2A
102
}
330
2A
100
AcDbVisualStyle
  2
Realistic
 70
     8
 71
     2
 72
     2
 73
     0
 90
        0
 40
-0.6
 41
-30.0
 62
     5
 63
     7
 74
     1
 91
        0
 64
     7
 65
   257
 75
     1
175
     1
 42
1.0
 92
        8
 66
     8
 43
1.0
 76
     1
 77
     6
 78
     2
 67
     7
 79
     5
170
     0
171
     0
290
     0
174
     0
 93
       13
 44
0.0
173
     0
291
     0
 45
0.0
1001
ACAD
1000
AcDbSavedByObjectVersion
1070
     0
  0
VISUALSTYLE
  5
37
102
{ACAD_REACTORS
330
2A
102
}
330
2A
100
AcDbVisualStyle
  2
Thicken
 70
    13
 71
     2
 72
     2
 73
     0
 90
        0
 40
-0.6
 41
-30.0
 62
     5
 63
     7
 74
     1
 91
        4
 64
     7
 65
   257
 75
     1
175
     1
 42
1.0
 92
       12
 66
     7
 43
1.0
 76
     1
 77
     6
 78
     2
 67
     7
 79
     5
170
     0
171
     0
290
     0
174
     0
 93
        1
 44
0.0
173
     0
291
     1
 45
0.0
1001
ACAD
1000
AcDbSavedByObjectVersion
1070
     0
  0
DICTIONARYVAR
  5
14D
102
{ACAD_REACTORS
330
14B
102
}
330
14B
100
DictionaryVariables
280
     0
  1
80.000000
  0
DICTIONARYVAR
  5
14C
102
{ACAD_REACTORS
330
14B
102
}
330
14B
100
DictionaryVariables
280
     0
  1
5.000000
  0
ENDSEC
  0
EOF
