  0
SECTION
  2
HEADER
  9
$ACADVER
  1
AC1015
  9
$ACADMAINTVER
 70
     6
  9
$DWGCODEPAGE
  3
ANSI_1252
  9
$INSBASE
 10
0.0
 20
0.0
 30
0.0
  9
$EXTMIN
 10
0.0
 20
0.0
 30
0.0
  9
$EXTMAX
 10
279.4
 20
215.9
 30
0.0
  9
$LIMMIN
 10
0.0
 20
0.0
  9
$LIMMAX
 10
279.4
 20
215.9
  9
$ORTHOMODE
 70
     0
  9
$REGENMODE
 70
     1
  9
$FILLMODE
 70
     1
  9
$QTEXTMODE
 70
     0
  9
$MIRRTEXT
 70
     1
  9
$LTSCALE
 40
1.0
  9
$ATTMODE
 70
     1
  9
$TEXTSIZE
 40
6.35
  9
$TRACEWID
 40
1.0
  9
$TEXTSTYLE
  7
Standard
  9
$CLAYER
  8
0
  9
$CELTYPE
  6
ByLayer
  9
$CECOLOR
 62
   256
  9
$CELTSCALE
 40
1.0
  9
$DISPSILH
 70
     0
  9
$DIMSCALE
 40
1.0
  9
$DIMASZ
 40
5.9944
  9
$DIMEXO
 40
0.9906
  9
$DIMDLI
 40
3.75
  9
$DIMRND
 40
0.0
  9
$DIMDLE
 40
0.0
  9
$DIMEXE
 40
0.9906
  9
$DIMTP
 40
0.0
  9
$DIMTM
 40
0.0
  9
$DIMTXT
 40
6.35
  9
$DIMCEN
 40
2.5
  9
$DIMTSZ
 40
0.0
  9
$DIMTOL
 70
     0
  9
$DIMLIM
 70
     0
  9
$DIMTIH
 70
     1
  9
$DIMTOH
 70
     1
  9
$DIMSE1
 70
     0
  9
$DIMSE2
 70
     0
  9
$DIMTAD
 70
     1
  9
$DIMZIN
 70
     0
  9
$DIMBLK
  1

  9
$DIMASO
 70
     1
  9
$DIMSHO
 70
     1
  9
$DIMPOST
  1

  9
$DIMAPOST
  1

  9
$DIMALT
 70
     0
  9
$DIMALTD
 70
     3
  9
$DIMALTF
 40
0.0393700787
  9
$DIMLFAC
 40
0.2
  9
$DIMTOFL
 70
     1
  9
$DIMTVP
 40
0.0
  9
$DIMTIX
 70
     0
  9
$DIMSOXD
 70
     0
  9
$DIMSAH
 70
     0
  9
$DIMBLK1
  1

  9
$DIMBLK2
  1

  9
$DIMSTYLE
  2
ISO-25
  9
$DIMCLRD
 70
     0
  9
$DIMCLRE
 70
     0
  9
$DIMCLRT
 70
     0
  9
$DIMTFAC
 40
1.0
  9
$DIMGAP
 40
1.524
  9
$DIMJUST
 70
     0
  9
$DIMSD1
 70
     0
  9
$DIMSD2
 70
     0
  9
$DIMTOLJ
 70
     0
  9
$DIMTZIN
 70
     0
  9
$DIMALTZ
 70
     0
  9
$DIMALTTZ
 70
     0
  9
$DIMUPT
 70
     0
  9
$DIMDEC
 70
     2
  9
$DIMTDEC
 70
     2
  9
$DIMALTU
 70
     2
  9
$DIMALTTD
 70
     3
  9
$DIMTXSTY
  7
Standard
  9
$DIMAUNIT
 70
     0
  9
$DIMADEC
 70
     0
  9
$DIMALTRND
 40
0.0
  9
$DIMAZIN
 70
     0
  9
$DIMDSEP
 70
    44
  9
$DIMATFIT
 70
     3
  9
$DIMFRAC
 70
     0
  9
$DIMLDRBLK
  1

  9
$DIMLUNIT
 70
     2
  9
$DIMLWD
 70
    -2
  9
$DIMLWE
 70
    -2
  9
$DIMTMOVE
 70
     0
  9
$LUNITS
 70
     2
  9
$LUPREC
 70
     2
  9
$SKETCHINC
 40
1.0
  9
$FILLETRAD
 40
10.0
  9
$AUNITS
 70
     0
  9
$AUPREC
 70
     0
  9
$MENU
  1
.
  9
$ELEVATION
 40
0.0
  9
$PELEVATION
 40
0.0
  9
$THICKNESS
 40
0.0
  9
$LIMCHECK
 70
     0
  9
$CHAMFERA
 40
10.0
  9
$CHAMFERB
 40
10.0
  9
$CHAMFERC
 40
20.0
  9
$CHAMFERD
 40
0.0
  9
$SKPOLY
 70
     0
  9
$TDCREATE
 40
2455182.407254907
  9
$TDUCREATE
 40
2455182.615588241
  9
$TDUPDATE
 40
2455182.407254919
  9
$TDUUPDATE
 40
2455182.615588252
  9
$TDINDWG
 40
0.0000000116
  9
$TDUSRTIMER
 40
0.0000000116
  9
$USRTIMER
 70
     1
  9
$ANGBASE
 50
0.0
  9
$ANGDIR
 70
     0
  9
$PDMODE
 70
     0
  9
$PDSIZE
 40
-1.0
  9
$PLINEWID
 40
0.0
  9
$SPLFRAME
 70
     0
  9
$SPLINETYPE
 70
     6
  9
$SPLINESEGS
 70
     8
  9
$HANDSEED
  5
1BA
  9
$SURFTAB1
 70
     6
  9
$SURFTAB2
 70
     6
  9
$SURFTYPE
 70
     6
  9
$SURFU
 70
     6
  9
$SURFV
 70
     6
  9
$UCSBASE
  2

  9
$UCSNAME
  2

  9
$UCSORG
 10
0.0
 20
0.0
 30
0.0
  9
$UCSXDIR
 10
1.0
 20
0.0
 30
0.0
  9
$UCSYDIR
 10
0.0
 20
1.0
 30
0.0
  9
$UCSORTHOREF
  2

  9
$UCSORTHOVIEW
 70
     0
  9
$UCSORGTOP
 10
0.0
 20
0.0
 30
0.0
  9
$UCSORGBOTTOM
 10
0.0
 20
0.0
 30
0.0
  9
$UCSORGLEFT
 10
0.0
 20
0.0
 30
0.0
  9
$UCSORGRIGHT
 10
0.0
 20
0.0
 30
0.0
  9
$UCSORGFRONT
 10
0.0
 20
0.0
 30
0.0
  9
$UCSORGBACK
 10
0.0
 20
0.0
 30
0.0
  9
$PUCSBASE
  2

  9
$PUCSNAME
  2

  9
$PUCSORG
 10
0.0
 20
0.0
 30
0.0
  9
$PUCSXDIR
 10
1.0
 20
0.0
 30
0.0
  9
$PUCSYDIR
 10
0.0
 20
1.0
 30
0.0
  9
$PUCSORTHOREF
  2

  9
$PUCSORTHOVIEW
 70
     0
  9
$PUCSORGTOP
 10
0.0
 20
0.0
 30
0.0
  9
$PUCSORGBOTTOM
 10
0.0
 20
0.0
 30
0.0
  9
$PUCSORGLEFT
 10
0.0
 20
0.0
 30
0.0
  9
$PUCSORGRIGHT
 10
0.0
 20
0.0
 30
0.0
  9
$PUCSORGFRONT
 10
0.0
 20
0.0
 30
0.0
  9
$PUCSORGBACK
 10
0.0
 20
0.0
 30
0.0
  9
$USERI1
 70
     0
  9
$USERI2
 70
     0
  9
$USERI3
 70
     0
  9
$USERI4
 70
     0
  9
$USERI5
 70
     0
  9
$USERR1
 40
0.0
  9
$USERR2
 40
0.0
  9
$USERR3
 40
0.0
  9
$USERR4
 40
0.0
  9
$USERR5
 40
0.0
  9
$WORLDVIEW
 70
     1
  9
$SHADEDGE
 70
     3
  9
$SHADEDIF
 70
    70
  9
$TILEMODE
 70
     1
  9
$MAXACTVP
 70
    64
  9
$PINSBASE
 10
0.0
 20
0.0
 30
0.0
  9
$PLIMCHECK
 70
     0
  9
$PEXTMIN
 10
1.0000000000E+20
 20
1.0000000000E+20
 30
1.0000000000E+20
  9
$PEXTMAX
 10
-1.0000000000E+20
 20
-1.0000000000E+20
 30
-1.0000000000E+20
  9
$PLIMMIN
 10
0.0
 20
0.0
  9
$PLIMMAX
 10
420.0
 20
297.0
  9
$UNITMODE
 70
     0
  9
$VISRETAIN
 70
     1
  9
$PLINEGEN
 70
     0
  9
$PSLTSCALE
 70
     1
  9
$TREEDEPTH
 70
  3020
  9
$CMLSTYLE
  2
Standard
  9
$CMLJUST
 70
     0
  9
$CMLSCALE
 40
20.0
  9
$PROXYGRAPHICS
 70
     1
  9
$MEASUREMENT
 70
     1
  9
$CELWEIGHT
370
    -1
  9
$ENDCAPS
280
     0
  9
$JOINSTYLE
280
     0
  9
$LWDISPLAY
290
     1
  9
$INSUNITS
 70
     4
  9
$HYPERLINKBASE
  1

  9
$STYLESHEET
  1

  9
$XEDIT
290
     1
  9
$CEPSNTYPE
380
     0
  9
$PSTYLEMODE
290
     1
  9
$FINGERPRINTGUID
  2
{C08E086B-377C-4B1C-BCB1-16947BD6B142}
  9
$VERSIONGUID
  2
{FAEB1C32-E019-11D5-929B-00C0DF256EC4}
  9
$EXTNAMES
290
     1
  9
$PSVPSCALE
 40
0.0
  9
$OLESTARTUP
290
     0
  0
ENDSEC
  0
SECTION
  2
CLASSES
  0
CLASS
  1
ACDBDICTIONARYWDFLT
  2
AcDbDictionaryWithDefault
  3
ObjectDBX Classes
 90
        0
280
     0
281
     0
  0
CLASS
  1
VISUALSTYLE
  2
AcDbVisualStyle
  3
ObjectDBX Classes
 90
     4095
280
     0
281
     0
  0
CLASS
  1
DICTIONARYVAR
  2
AcDbDictionaryVar
  3
ObjectDBX Classes
 90
        0
280
     0
281
     0
  0
CLASS
  1
ACDBPLACEHOLDER
  2
AcDbPlaceHolder
  3
ObjectDBX Classes
 90
        0
280
     0
281
     0
  0
CLASS
  1
LAYOUT
  2
AcDbLayout
  3
ObjectDBX Classes
 90
        0
280
     0
281
     0
  0
ENDSEC
  0
SECTION
  2
TABLES
  0
TABLE
  2
VPORT
  5
8
330
0
100
AcDbSymbolTable
 70
     1
  0
VPORT
  5
29
330
8
100
AcDbSymbolTableRecord
100
AcDbViewportTableRecord
  2
*Active
 70
     0
 10
0.0
 20
0.0
 11
1.0
 21
1.0
 12
139.7
 22
107.95
 13
0.0
 23
0.0
 14
10.0
 24
10.0
 15
10.0
 25
10.0
 16
0.0
 26
0.0
 36
1.0
 17
0.0
 27
0.0
 37
0.0
 40
215.9
 41
1.2941176471
 42
50.0
 43
0.0
 44
0.0
 50
0.0
 51
0.0
 71
     0
 72
  2000
 73
     1
 74
     3
 75
     0
 76
     0
 77
     0
 78
     0
281
     0
 65
     1
110
0.0
120
0.0
130
0.0
111
1.0
121
0.0
131
0.0
112
0.0
122
1.0
132
0.0
 79
     0
146
0.0
  0
ENDTAB
  0
TABLE
  2
LTYPE
  5
5
330
0
100
AcDbSymbolTable
 70
     6
  0
LTYPE
  5
14
330
5
100
AcDbSymbolTableRecord
100
AcDbLinetypeTableRecord
  2
ByBlock
 70
     0
  3

 72
    65
 73
     0
 40
0.0
  0
LTYPE
  5
15
330
5
100
AcDbSymbolTableRecord
100
AcDbLinetypeTableRecord
  2
ByLayer
 70
     0
  3

 72
    65
 73
     0
 40
0.0
  0
LTYPE
  5
16
330
5
100
AcDbSymbolTableRecord
100
AcDbLinetypeTableRecord
  2
Continuous
 70
     0
  3
Solid line
 72
    65
 73
     0
 40
0.0
  0
LTYPE
  5
3B
330
5
100
AcDbSymbolTableRecord
100
AcDbLinetypeTableRecord
  2
HIDDEN
 70
     0
  3
Hidden __ __ __ __ __ __ __ __ __ __ __ __ __ __
 72
    65
 73
     2
 40
1.905
 49
1.27
 74
     0
 49
-0.635
 74
     0
  0
LTYPE
  5
3C
330
5
100
AcDbSymbolTableRecord
100
AcDbLinetypeTableRecord
  2
PHANTOM
 70
     0
  3
Phantom ______  __  __  ______  __  __  ______
 72
    65
 73
     6
 40
12.7
 49
6.35
 74
     0
 49
-1.27
 74
     0
 49
1.27
 74
     0
 49
-1.27
 74
     0
 49
1.27
 74
     0
 49
-1.27
 74
     0
  0
LTYPE
  5
3D
330
5
100
AcDbSymbolTableRecord
100
AcDbLinetypeTableRecord
  2
CENTER
 70
     0
  3
Center ____ _ ____ _ ____ _ ____ _ ____ _ ____
 72
    65
 73
     4
 40
10.16
 49
6.35
 74
     0
 49
-1.27
 74
     0
 49
1.27
 74
     0
 49
-1.27
 74
     0
  0
LTYPE
  5
3E
330
5
100
AcDbSymbolTableRecord
100
AcDbLinetypeTableRecord
  2
CENTERX2
 70
     0
  3
Center (2x) ________  __  ________  __  _____
 72
    65
 73
     4
 40
20.32
 49
12.7
 74
     0
 49
-2.54
 74
     0
 49
2.54
 74
     0
 49
-2.54
 74
     0
  0
LTYPE
  5
3F
330
5
100
AcDbSymbolTableRecord
100
AcDbLinetypeTableRecord
  2
DOT2
 70
     0
  3
Dot (.5x) ........................................
 72
    65
 73
     2
 40
0.635
 49
0.0
 74
     0
 49
-0.635
 74
     0
  0
ENDTAB
  0
TABLE
  2
LAYER
  5
2
330
0
100
AcDbSymbolTable
 70
     2
  0
LAYER
  5
10
330
2
100
AcDbSymbolTableRecord
100
AcDbLayerTableRecord
  2
0
 70
     0
 62
     7
  6
Continuous
370
    -3
390
F
  0
LAYER
  5
40
330
2
100
AcDbSymbolTableRecord
100
AcDbLayerTableRecord
  2
FORMAT
 70
     0
 62
     7
  6
Continuous
370
    -3
390
F
  0
ENDTAB
  0
TABLE
  2
STYLE
  5
3
330
0
100
AcDbSymbolTable
 70
     5
  0
STYLE
  5
11
330
3
100
AcDbSymbolTableRecord
100
AcDbTextStyleTableRecord
  2
Standard
 70
     0
 40
0.0
 41
1.0
 50
0.0
 71
     0
 42
2.5
  3
txt
  4

  0
STYLE
  5
67
330
3
100
AcDbSymbolTableRecord
100
AcDbTextStyleTableRecord
  2
SLDTEXTSTYLE0
 70
     0
 40
0.0
 41
0.75
 50
0.0
 71
     0
 42
0.2
  3
TXT
  4

  0
STYLE
  5
6B
330
3
100
AcDbSymbolTableRecord
100
AcDbTextStyleTableRecord
  2
SLDTEXTSTYLE1
 70
     0
 40
0.0
 41
0.6944444444
 50
0.0
 71
     0
 42
0.2
  3
TXT
  4

  0
STYLE
  5
73
330
3
100
AcDbSymbolTableRecord
100
AcDbTextStyleTableRecord
  2
SLDTEXTSTYLE2
 70
     0
 40
0.0
 41
0.6847826087
 50
0.0
 71
     0
 42
0.2
  3
TXT
  4

  0
STYLE
  5
8F
330
3
100
AcDbSymbolTableRecord
100
AcDbTextStyleTableRecord
  2
SLDTEXTSTYLE3
 70
     0
 40
0.0
 41
0.6875
 50
0.0
 71
     0
 42
0.2
  3
TXT
  4

  0
ENDTAB
  0
TABLE
  2
VIEW
  5
6
330
0
100
AcDbSymbolTable
 70
     0
  0
ENDTAB
  0
TABLE
  2
UCS
  5
7
330
0
100
AcDbSymbolTable
 70
     0
  0
ENDTAB
  0
TABLE
  2
APPID
  5
9
330
0
100
AcDbSymbolTable
 70
     1
  0
APPID
  5
12
330
9
100
AcDbSymbolTableRecord
100
AcDbRegAppTableRecord
  2
ACAD
 70
     0
  0
ENDTAB
  0
TABLE
  2
DIMSTYLE
  5
A
330
0
100
AcDbSymbolTable
 70
     7
100
AcDbDimStyleTable
  0
DIMSTYLE
105
27
330
A
100
AcDbSymbolTableRecord
100
AcDbDimStyleTableRecord
  2
ISO-25
 70
     0
 41
2.5
 42
0.625
 43
3.75
 44
1.25
 73
     0
 74
     0
 77
     1
 78
     8
140
2.5
141
2.5
143
0.0393700787
147
0.625
171
     3
172
     1
271
     2
272
     2
274
     3
278
    44
283
     0
284
     8
340
11
  0
DIMSTYLE
105
B3
102
{ACAD_REACTORS
330
B2
330
C8
102
}
330
A
100
AcDbSymbolTableRecord
100
AcDbDimStyleTableRecord
  2
SLDDIMSTYLE0
 70
     0
 41
5.9944
 44
0.0
 45
0.000000001
 73
     0
 77
     1
 78
     4
140
6.35
144
0.2
147
1.5875
173
     1
271
     2
272
     2
284
    12
340
67
341
B4
343
B4
344
B4
  0
DIMSTYLE
105
D7
102
{ACAD_REACTORS
330
D6
102
}
330
A
100
AcDbSymbolTableRecord
100
AcDbDimStyleTableRecord
  2
SLDDIMSTYLE1
 70
     0
 41
5.9944
 44
0.0
 45
0.000000001
 73
     0
 77
     1
 78
    12
140
6.35
144
0.2
147
1.5875
173
     1
271
     2
272
     2
284
    12
340
67
341
B4
343
B4
344
B4
  0
DIMSTYLE
105
10D
102
{ACAD_REACTORS
330
10C
330
119
102
}
330
A
100
AcDbSymbolTableRecord
100
AcDbDimStyleTableRecord
  2
SLDDIMSTYLE2
 70
     0
 41
5.9944
 44
0.0
 45
0.000000001
 73
     0
 77
     1
 78
    12
140
6.35
144
0.2
147
1.5875
173
     1
271
     2
272
     2
284
    12
340
67
341
B4
343
B4
344
B4
  0
DIMSTYLE
105
126
102
{ACAD_REACTORS
330
125
102
}
330
A
100
AcDbSymbolTableRecord
100
AcDbDimStyleTableRecord
  2
SLDDIMSTYLE3
 70
     0
  3
<>
 41
5.9944
 44
0.0
 45
0.000000001
 78
    12
140
6.35
144
0.2
147
1.5875
173
     1
271
     0
272
     2
284
    12
340
67
341
B4
343
B4
344
B4
  0
DIMSTYLE
105
13F
102
{ACAD_REACTORS
330
13E
102
}
330
A
100
AcDbSymbolTableRecord
100
AcDbDimStyleTableRecord
  2
SLDDIMSTYLE4
 70
     0
 41
5.9944
 44
0.0
 45
0.000000001
 78
    12
140
6.35
144
0.2
147
1.5875
173
     1
271
     2
272
     2
284
    12
340
67
341
B4
343
B4
344
B4
  0
DIMSTYLE
105
17C
102
{ACAD_REACTORS
330
17B
330
18A
330
198
330
1A6
102
}
330
A
100
AcDbSymbolTableRecord
100
AcDbDimStyleTableRecord
  2
SLDDIMSTYLE5
 70
     0
 41
5.9944
 44
0.0
 45
0.000000001
 73
     0
 77
     1
 78
    12
140
6.35
144
0.2
147
1.5875
173
     1
271
     2
272
     2
284
    12
340
67
341
B4
343
B4
344
B4
  0
ENDTAB
  0
TABLE
  2
BLOCK_RECORD
  5
1
330
0
100
AcDbSymbolTable
 70
    17
  0
BLOCK_RECORD
  5
1F
330
1
100
AcDbSymbolTableRecord
100
AcDbBlockTableRecord
  2
*Model_Space
340
22
  0
BLOCK_RECORD
  5
1B
330
1
100
AcDbSymbolTableRecord
100
AcDbBlockTableRecord
  2
*Paper_Space
340
1E
  0
BLOCK_RECORD
  5
23
330
1
100
AcDbSymbolTableRecord
100
AcDbBlockTableRecord
  2
*Paper_Space0
340
26
  0
BLOCK_RECORD
  5
78
330
1
100
AcDbSymbolTableRecord
100
AcDbBlockTableRecord
  2
SW_NOTE_0
340
0
102
{BLKREFS
331
87
102
}
  0
BLOCK_RECORD
  5
93
330
1
100
AcDbSymbolTableRecord
100
AcDbBlockTableRecord
  2
SW_NOTE_1
340
0
102
{BLKREFS
331
9D
102
}
  0
BLOCK_RECORD
  5
B4
330
1
100
AcDbSymbolTableRecord
100
AcDbBlockTableRecord
  2
_CLOSED
340
0
102
{BLKREFS
331
C0
331
C1
331
CE
331
CF
331
DD
331
113
331
114
331
11F
331
120
331
12B
331
143
331
15B
331
15D
331
182
331
183
331
190
331
191
331
19E
331
19F
331
1AC
331
1AD
102
}
  0
BLOCK_RECORD
  5
BB
330
1
100
AcDbSymbolTableRecord
100
AcDbBlockTableRecord
  2
*D4
340
0
  0
BLOCK_RECORD
  5
C9
330
1
100
AcDbSymbolTableRecord
100
AcDbBlockTableRecord
  2
*D5
340
0
  0
BLOCK_RECORD
  5
D8
330
1
100
AcDbSymbolTableRecord
100
AcDbBlockTableRecord
  2
*D6
340
0
  0
BLOCK_RECORD
  5
10E
330
1
100
AcDbSymbolTableRecord
100
AcDbBlockTableRecord
  2
*D7
340
0
  0
BLOCK_RECORD
  5
11A
330
1
100
AcDbSymbolTableRecord
100
AcDbBlockTableRecord
  2
*D8
340
0
  0
BLOCK_RECORD
  5
127
330
1
100
AcDbSymbolTableRecord
100
AcDbBlockTableRecord
  2
*D9
340
0
  0
BLOCK_RECORD
  5
134
330
1
100
AcDbSymbolTableRecord
100
AcDbBlockTableRecord
  2
SW_SYMBOL_HOLE_DEPTH
340
0
102
{BLKREFS
331
13B
331
151
102
}
  0
BLOCK_RECORD
  5
140
330
1
100
AcDbSymbolTableRecord
100
AcDbBlockTableRecord
  2
*D11
340
0
  0
BLOCK_RECORD
  5
146
330
1
100
AcDbSymbolTableRecord
100
AcDbBlockTableRecord
  2
SW_SYMBOL_HOLE_SPOT
340
0
102
{BLKREFS
331
14C
102
}
  0
BLOCK_RECORD
  5
17D
330
1
100
AcDbSymbolTableRecord
100
AcDbBlockTableRecord
  2
*D13
340
0
  0
BLOCK_RECORD
  5
18B
330
1
100
AcDbSymbolTableRecord
100
AcDbBlockTableRecord
  2
*D14
340
0
  0
BLOCK_RECORD
  5
199
330
1
100
AcDbSymbolTableRecord
100
AcDbBlockTableRecord
  2
*D15
340
0
  0
BLOCK_RECORD
  5
1A7
330
1
100
AcDbSymbolTableRecord
100
AcDbBlockTableRecord
  2
*D16
340
0
  0
ENDTAB
  0
ENDSEC
  0
SECTION
  2
BLOCKS
  0
BLOCK
  5
20
330
1F
100
AcDbEntity
  8
0
100
AcDbBlockBegin
  2
*Model_Space
 70
     0
 10
0.0
 20
0.0
 30
0.0
  3
*Model_Space
  1

  0
ENDBLK
  5
21
330
1F
100
AcDbEntity
  8
0
100
AcDbBlockEnd
  0
BLOCK
  5
1C
330
1B
100
AcDbEntity
 67
     1
  8
0
100
AcDbBlockBegin
  2
*Paper_Space
 70
     0
 10
0.0
 20
0.0
 30
0.0
  3
*Paper_Space
  1

  0
ENDBLK
  5
1D
330
1B
100
AcDbEntity
 67
     1
  8
0
100
AcDbBlockEnd
  0
BLOCK
  5
24
330
23
100
AcDbEntity
  8
0
100
AcDbBlockBegin
  2
*Paper_Space0
 70
     0
 10
0.0
 20
0.0
 30
0.0
  3
*Paper_Space0
  1

  0
ENDBLK
  5
25
330
23
100
AcDbEntity
  8
0
100
AcDbBlockEnd
  0
BLOCK
  5
79
330
78
100
AcDbEntity
  8
0
100
AcDbBlockBegin
  2
SW_NOTE_0
 70
     0
 10
0.0
 20
0.0
 30
0.0
  3
SW_NOTE_0
  1

  0
MTEXT
  5
7B
330
78
100
AcDbEntity
  8
0
  6
Continuous
 62
     0
370
     0
100
AcDbMText
 10
0.0
 20
2.0463950369
 30
0.0
 40
1.5875
 41
0.0
 71
     1
 72
     1
  1
DIMENSIONS ARE IN MM
  7
SLDTEXTSTYLE0
 73
     1
 44
1.0
  0
MTEXT
  5
7C
330
78
100
AcDbEntity
  8
0
  6
Continuous
 62
     0
370
     0
100
AcDbMText
 10
0.0
 20
-0.5411049914
 30
0.0
 40
1.5875
 41
0.0
 71
     1
 72
     1
  1
TOLERANCES:
  7
SLDTEXTSTYLE0
 73
     1
 44
1.0
  0
MTEXT
  5
7D
330
78
100
AcDbEntity
  8
0
  6
Continuous
 62
     0
370
     0
100
AcDbMText
 10
0.0
 20
-3.1286050197
 30
0.0
 40
1.5875
 41
0.0
 71
     1
 72
     1
  1
FRACTIONAL
  7
SLDTEXTSTYLE0
 73
     1
 44
1.0
  0
MTEXT
  5
7E
330
78
100
AcDbEntity
  8
0
  6
Continuous
 62
     0
370
     0
100
AcDbMText
 10
12.6410201192
 20
-3.1286050197
 30
0.0
 40
1.5875
 41
0.0
 71
     1
 72
     1
  1
%%p
  7
SLDTEXTSTYLE0
 73
     1
 44
1.0
  0
MTEXT
  5
7F
330
78
100
AcDbEntity
  8
0
  6
Continuous
 62
     0
370
     0
100
AcDbMText
 10
0.0
 20
-5.716105048
 30
0.0
 40
1.5875
 41
0.0
 71
     1
 72
     1
  1
ANGULAR: MACH
  7
SLDTEXTSTYLE0
 73
     1
 44
1.0
  0
MTEXT
  5
80
330
78
100
AcDbEntity
  8
0
  6
Continuous
 62
     0
370
     0
100
AcDbMText
 10
17.6670011133
 20
-5.716105048
 30
0.0
 40
1.5875
 41
0.0
 71
     1
 72
     1
  1
%%p
  7
SLDTEXTSTYLE0
 73
     1
 44
1.0
  0
MTEXT
  5
81
330
78
100
AcDbEntity
  8
0
  6
Continuous
 62
     0
370
     0
100
AcDbMText
 10
19.1790945828
 20
-5.716105048
 30
0.0
 40
1.5875
 41
0.0
 71
     1
 72
     1
  1
     BEND 
  7
SLDTEXTSTYLE0
 73
     1
 44
1.0
  0
MTEXT
  5
82
330
78
100
AcDbEntity
  8
0
  6
Continuous
 62
     0
370
     0
100
AcDbMText
 10
28.033817187
 20
-5.716105048
 30
0.0
 40
1.5875
 41
0.0
 71
     1
 72
     1
  1
%%p
  7
SLDTEXTSTYLE0
 73
     1
 44
1.0
  0
MTEXT
  5
83
330
78
100
AcDbEntity
  8
0
  6
Continuous
 62
     0
370
     0
100
AcDbMText
 10
0.0
 20
-8.3036050764
 30
0.0
 40
1.5875
 41
0.0
 71
     1
 72
     1
  1
TWO PLACE DECIMAL    
  7
SLDTEXTSTYLE0
 73
     1
 44
1.0
  0
MTEXT
  5
84
330
78
100
AcDbEntity
  8
0
  6
Continuous
 62
     0
370
     0
100
AcDbMText
 10
23.9208135754
 20
-8.3036050764
 30
0.0
 40
1.5875
 41
0.0
 71
     1
 72
     1
  1
%%p
  7
SLDTEXTSTYLE0
 73
     1
 44
1.0
  0
MTEXT
  5
85
330
78
100
AcDbEntity
  8
0
  6
Continuous
 62
     0
370
     0
100
AcDbMText
 10
0.0
 20
-10.8911051047
 30
0.0
 40
1.5875
 41
0.0
 71
     1
 72
     1
  1
THREE PLACE DECIMAL  
  7
SLDTEXTSTYLE0
 73
     1
 44
1.0
  0
MTEXT
  5
86
330
78
100
AcDbEntity
  8
0
  6
Continuous
 62
     0
370
     0
100
AcDbMText
 10
23.7832851708
 20
-10.8911051047
 30
0.0
 40
1.5875
 41
0.0
 71
     1
 72
     1
  1
%%p
  7
SLDTEXTSTYLE0
 73
     1
 44
1.0
  0
ENDBLK
  5
7A
330
78
100
AcDbEntity
  8
0
100
AcDbBlockEnd
  0
BLOCK
  5
94
330
93
100
AcDbEntity
  8
0
100
AcDbBlockBegin
  2
SW_NOTE_1
 70
     0
 10
0.0
 20
0.0
 30
0.0
  3
SW_NOTE_1
  1

  0
MTEXT
  5
96
330
93
100
AcDbEntity
  8
0
  6
Continuous
 62
     0
370
     0
100
AcDbMText
 10
0.0
 20
1.9645392354
 30
0.0
 40
1.524
 41
0.0
 71
     1
 72
     1
  1
THE INFORMATION CONTAINED IN THIS
  7
SLDTEXTSTYLE0
 73
     1
 44
1.0
  0
MTEXT
  5
97
330
93
100
AcDbEntity
  8
0
  6
Continuous
 62
     0
370
     0
100
AcDbMText
 10
0.0
 20
-0.5594606586
 30
0.0
 40
1.524
 41
0.0
 71
     1
 72
     1
  1
DRAWING IS THE SOLE PROPERTY OF
  7
SLDTEXTSTYLE0
 73
     1
 44
1.0
  0
MTEXT
  5
98
330
93
100
AcDbEntity
  8
0
  6
Continuous
 62
     0
370
     0
100
AcDbMText
 10
0.0
 20
-3.0834605527
 30
0.0
 40
1.524
 41
0.0
 71
     1
 72
     1
  1
<INSERT COMPANY NAME HERE>.  ANY 
  7
SLDTEXTSTYLE0
 73
     1
 44
1.0
  0
MTEXT
  5
99
330
93
100
AcDbEntity
  8
0
  6
Continuous
 62
     0
370
     0
100
AcDbMText
 10
0.0
 20
-5.6074604467
 30
0.0
 40
1.524
 41
0.0
 71
     1
 72
     1
  1
REPRODUCTION IN PART OR AS A WHOLE
  7
SLDTEXTSTYLE0
 73
     1
 44
1.0
  0
MTEXT
  5
9A
330
93
100
AcDbEntity
  8
0
  6
Continuous
 62
     0
370
     0
100
AcDbMText
 10
0.0
 20
-8.1314603407
 30
0.0
 40
1.524
 41
0.0
 71
     1
 72
     1
  1
WITHOUT THE WRITTEN PERMISSION OF
  7
SLDTEXTSTYLE0
 73
     1
 44
1.0
  0
MTEXT
  5
9B
330
93
100
AcDbEntity
  8
0
  6
Continuous
 62
     0
370
     0
100
AcDbMText
 10
0.0
 20
-10.6554602348
 30
0.0
 40
1.524
 41
0.0
 71
     1
 72
     1
  1
<INSERT COMPANY NAME HERE> IS 
  7
SLDTEXTSTYLE0
 73
     1
 44
1.0
  0
MTEXT
  5
9C
330
93
100
AcDbEntity
  8
0
  6
Continuous
 62
     0
370
     0
100
AcDbMText
 10
0.0
 20
-13.1794601288
 30
0.0
 40
1.524
 41
0.0
 71
     1
 72
     1
  1
PROHIBITED.
  7
SLDTEXTSTYLE0
 73
     1
 44
1.0
  0
ENDBLK
  5
95
330
93
100
AcDbEntity
  8
0
100
AcDbBlockEnd
  0
BLOCK
  5
B5
330
B4
100
AcDbEntity
  8
0
100
AcDbBlockBegin
  2
_CLOSED
 70
     0
 10
0.0
 20
0.0
 30
0.0
  3
_CLOSED
  1

  0
LINE
  5
B7
330
B4
100
AcDbEntity
  8
0
  6
ByBlock
 62
     0
370
    -2
100
AcDbLine
 10
-1.0
 20
0.166667
 30
0.0
 11
0.0
 21
0.0
 31
0.0
  0
LINE
  5
B8
330
B4
100
AcDbEntity
  8
0
  6
ByBlock
 62
     0
370
    -2
100
AcDbLine
 10
0.0
 20
0.0
 30
0.0
 11
-1.0
 21
-0.166667
 31
0.0
  0
LINE
  5
B9
330
B4
100
AcDbEntity
  8
0
  6
ByBlock
 62
     0
370
    -2
100
AcDbLine
 10
-1.0
 20
0.166667
 30
0.0
 11
-1.0
 21
-0.166667
 31
0.0
  0
LINE
  5
BA
330
B4
100
AcDbEntity
  8
0
  6
ByBlock
 62
     0
370
    -2
100
AcDbLine
 10
0.0
 20
0.0
 30
0.0
 11
-1.0
 21
0.0
 31
0.0
  0
ENDBLK
  5
B6
330
B4
100
AcDbEntity
  8
0
100
AcDbBlockEnd
  0
BLOCK
  5
BC
330
BB
100
AcDbEntity
  8
0
100
AcDbBlockBegin
  2
*D4
 70
     1
 10
0.0
 20
0.0
 30
0.0
  3
*D4
  1

  0
ARC
  5
BE
330
BB
100
AcDbEntity
  8
FORMAT
100
AcDbCircle
 10
214.3087223367
 20
170.5440161916
 30
0.0
 40
11.26672515830312
100
AcDbArc
 50
153.4349488229
 51
206.5650511771
  0
ARC
  5
BF
330
BB
100
AcDbEntity
  8
FORMAT
100
AcDbCircle
 10
213.7506463118
 20
170.5440161916
 30
0.0
 40
11.26672515830315
100
AcDbArc
 50
333.4349488229
 51
26.5650511771
  0
INSERT
  5
C0
330
BB
100
AcDbEntity
  8
FORMAT
100
AcDbBlockReference
  2
_CLOSED
 10
197.3926728493
 20
165.5053835241
 30
-7.4375
 41
5.9944
 42
5.9944
 50
0.0
  0
INSERT
  5
C1
330
BB
100
AcDbEntity
  8
FORMAT
100
AcDbBlockReference
  2
_CLOSED
 10
231.8926728493
 20
165.5053835241
 30
-7.4375
 41
5.9944
 42
5.9944
 50
180.0
  0
LINE
  5
C2
330
BB
100
AcDbEntity
  8
FORMAT
100
AcDbLine
 10
197.3926728493
 20
136.9293922513
 30
0.0
 11
197.3926728493
 21
166.4959835241
 31
0.0
  0
LINE
  5
C3
330
BB
100
AcDbEntity
  8
FORMAT
100
AcDbLine
 10
231.8926728493
 20
136.9293922513
 30
0.0
 11
231.8926728493
 21
166.4959835241
 31
0.0
  0
LINE
  5
C4
330
BB
100
AcDbEntity
  8
FORMAT
100
AcDbLine
 10
197.3926728493
 20
165.5053835241
 30
0.0
 11
185.4038728493
 21
165.5053835241
 31
0.0
  0
LINE
  5
C5
330
BB
100
AcDbEntity
  8
FORMAT
100
AcDbLine
 10
197.3926728493
 20
165.5053835241
 30
0.0
 11
231.8926728493
 21
165.5053835241
 31
0.0
  0
LINE
  5
C6
330
BB
100
AcDbEntity
  8
FORMAT
100
AcDbLine
 10
231.8926728493
 20
165.5053835241
 30
0.0
 11
243.8814728493
 21
165.5053835241
 31
0.0
  0
MTEXT
  5
C7
330
BB
100
AcDbEntity
  8
FORMAT
100
AcDbMText
 10
205.8189570016
 20
173.6909643701
 30
0.0
 40
6.35
 41
0.0
 71
     1
 72
     1
  1
6.90
  7
SLDTEXTSTYLE0
 73
     1
 44
1.0
  0
ENDBLK
  5
BD
330
BB
100
AcDbEntity
  8
0
100
AcDbBlockEnd
  0
BLOCK
  5
CA
330
C9
100
AcDbEntity
  8
0
100
AcDbBlockBegin
  2
*D5
 70
     1
 10
0.0
 20
0.0
 30
0.0
  3
*D5
  1

  0
ARC
  5
CC
330
C9
100
AcDbEntity
  8
FORMAT
100
AcDbCircle
 10
184.0582030372
 20
125.0108708392
 30
0.0
 40
11.2667251583032
100
AcDbArc
 50
243.4349488229
 51
296.5650511771
  0
ARC
  5
CD
330
C9
100
AcDbEntity
  8
FORMAT
100
AcDbCircle
 10
184.0582030372
 20
124.4527948142
 30
0.0
 40
11.26672515830317
100
AcDbArc
 50
63.4349488229
 51
116.5650511771
  0
INSERT
  5
CE
330
C9
100
AcDbEntity
  8
FORMAT
100
AcDbBlockReference
  2
_CLOSED
 10
189.0968357047
 20
140.9387922513
 30
-7.4375
 41
5.9944
 42
5.9944
 50
270.0
  0
INSERT
  5
CF
330
C9
100
AcDbEntity
  8
FORMAT
100
AcDbBlockReference
  2
_CLOSED
 10
189.0968357047
 20
106.4387922513
 30
-7.4375
 41
5.9944
 42
5.9944
 50
90.0
  0
LINE
  5
D0
330
C9
100
AcDbEntity
  8
FORMAT
100
AcDbLine
 10
201.4020728493
 20
140.9387922513
 30
0.0
 11
188.1062357047
 21
140.9387922513
 31
0.0
  0
LINE
  5
D1
330
C9
100
AcDbEntity
  8
FORMAT
100
AcDbLine
 10
201.4020728493
 20
106.4387922513
 30
0.0
 11
188.1062357047
 21
106.4387922513
 31
0.0
  0
LINE
  5
D2
330
C9
100
AcDbEntity
  8
FORMAT
100
AcDbLine
 10
189.0968357047
 20
140.9387922513
 30
0.0
 11
189.0968357047
 21
152.9275922513
 31
0.0
  0
LINE
  5
D3
330
C9
100
AcDbEntity
  8
FORMAT
100
AcDbLine
 10
189.0968357047
 20
140.9387922513
 30
0.0
 11
189.0968357047
 21
106.4387922513
 31
0.0
  0
LINE
  5
D4
330
C9
100
AcDbEntity
  8
FORMAT
100
AcDbLine
 10
189.0968357047
 20
106.4387922513
 30
0.0
 11
189.0968357047
 21
94.4499922513
 31
0.0
  0
MTEXT
  5
D5
330
C9
100
AcDbEntity
  8
FORMAT
100
AcDbMText
 10
180.9112548587
 20
116.5211055041
 30
0.0
 40
6.35
 41
0.0
 71
     1
 72
     1
  1
6.90
  7
SLDTEXTSTYLE0
 11
-7.044195017643634E-15
 21
1.0
 31
0.0
 73
     1
 44
1.0
  0
ENDBLK
  5
CB
330
C9
100
AcDbEntity
  8
0
100
AcDbBlockEnd
  0
BLOCK
  5
D9
330
D8
100
AcDbEntity
  8
0
100
AcDbBlockBegin
  2
*D6
 70
     1
 10
0.0
 20
0.0
 30
0.0
  3
*D6
  1

  0
ARC
  5
DB
330
D8
100
AcDbEntity
  8
FORMAT
100
AcDbCircle
 10
259.1426889171
 20
86.2506001933
 30
0.0
 40
11.26672515830314
100
AcDbArc
 50
108.4349488199
 51
161.5650511741
  0
ARC
  5
DC
330
D8
100
AcDbEntity
  8
FORMAT
100
AcDbCircle
 10
254.0889563018
 20
91.3043328092
 30
0.0
 40
11.26672515830315
100
AcDbArc
 50
288.4349488199
 51
341.5650511741
  0
INSERT
  5
DD
330
D8
100
AcDbEntity
  8
FORMAT
100
AcDbBlockReference
  2
_CLOSED
 10
230.4282067551
 20
107.9032583452
 30
-7.4375
 41
5.9944
 42
5.9944
 50
134.999999997
  0
LINE
  5
DE
330
D8
100
AcDbEntity
  8
FORMAT
100
AcDbLine
 10
230.4282067551
 20
107.9032583452
 30
0.0
 11
258.8062789641
 21
79.5251861331
 31
0.0
  0
LINE
  5
DF
330
D8
100
AcDbEntity
  8
FORMAT
100
AcDbLine
 10
230.4282067551
 20
107.9032583452
 30
0.0
 11
226.8926728493
 21
111.4387922513
 31
0.0
  0
MTEXT
  5
E0
330
D8
100
AcDbEntity
  8
FORMAT
100
AcDbMText
 10
255.3647466755
 20
94.4789992297
 30
0.0
 40
6.35
 41
0.0
 71
     1
 72
     1
  1
R
  7
SLDTEXTSTYLE0
 11
0.7071067811491918
 21
-0.7071067812239034
 31
0.0
 73
     1
 44
1.0
  0
MTEXT
  5
E1
330
D8
100
AcDbEntity
  8
FORMAT
100
AcDbMText
 10
258.9997204989
 20
90.8440254059
 30
0.0
 40
6.35
 41
0.0
 71
     1
 72
     1
  1
1
  7
SLDTEXTSTYLE0
 11
0.7071067811491918
 21
-0.7071067812239034
 31
0.0
 73
     1
 44
1.0
  0
ENDBLK
  5
DA
330
D8
100
AcDbEntity
  8
0
100
AcDbBlockEnd
  0
BLOCK
  5
10F
330
10E
100
AcDbEntity
  8
0
100
AcDbBlockBegin
  2
*D7
 70
     1
 10
0.0
 20
0.0
 30
0.0
  3
*D7
  1

  0
ARC
  5
111
330
10E
100
AcDbEntity
  8
FORMAT
100
AcDbCircle
 10
143.3299350368
 20
169.5270481365
 30
0.0
 40
11.26672515830312
100
AcDbArc
 50
153.4349488229
 51
206.5650511771
  0
ARC
  5
112
330
10E
100
AcDbEntity
  8
FORMAT
100
AcDbCircle
 10
131.0422485509
 20
169.5270481365
 30
0.0
 40
11.26672515830315
100
AcDbArc
 50
333.4349488229
 51
26.5650511771
  0
INSERT
  5
113
330
10E
100
AcDbEntity
  8
FORMAT
100
AcDbBlockReference
  2
_CLOSED
 10
104.7319210585
 20
164.4884154689
 30
8.4375
 41
5.9944
 42
5.9944
 50
180.0
  0
INSERT
  5
114
330
10E
100
AcDbEntity
  8
FORMAT
100
AcDbBlockReference
  2
_CLOSED
 10
149.7319210585
 20
164.4884154689
 30
8.4375
 41
5.9944
 42
5.9944
 50
0.0
  0
LINE
  5
115
330
10E
100
AcDbEntity
  8
FORMAT
100
AcDbLine
 10
104.7319210585
 20
157.1793922513
 30
0.0
 11
104.7319210585
 21
165.4790154689
 31
0.0
  0
LINE
  5
116
330
10E
100
AcDbEntity
  8
FORMAT
100
AcDbLine
 10
149.7319210585
 20
157.1793922513
 30
0.0
 11
149.7319210585
 21
165.4790154689
 31
0.0
  0
LINE
  5
117
330
10E
100
AcDbEntity
  8
FORMAT
100
AcDbLine
 10
104.7319210585
 20
164.4884154689
 30
0.0
 11
149.7319210585
 21
164.4884154689
 31
0.0
  0
MTEXT
  5
118
330
10E
100
AcDbEntity
  8
FORMAT
100
AcDbMText
 10
134.8401697017
 20
172.673996315
 30
0.0
 40
6.35
 41
0.0
 71
     1
 72
     1
  1
9
  7
SLDTEXTSTYLE0
 73
     1
 44
1.0
  0
ENDBLK
  5
110
330
10E
100
AcDbEntity
  8
0
100
AcDbBlockEnd
  0
BLOCK
  5
11B
330
11A
100
AcDbEntity
  8
0
100
AcDbBlockBegin
  2
*D8
 70
     1
 10
0.0
 20
0.0
 30
0.0
  3
*D8
  1

  0
ARC
  5
11D
330
11A
100
AcDbEntity
  8
FORMAT
100
AcDbCircle
 10
93.4800270243
 20
136.3056591993
 30
0.0
 40
11.26672515830312
100
AcDbArc
 50
243.4349488229
 51
296.5650511771
  0
ARC
  5
11E
330
11A
100
AcDbEntity
  8
FORMAT
100
AcDbCircle
 10
93.4800270243
 20
128.7098168978
 30
0.0
 40
11.26672515830313
100
AcDbArc
 50
63.4349488229
 51
116.5650511771
  0
INSERT
  5
11F
330
11A
100
AcDbEntity
  8
FORMAT
100
AcDbBlockReference
  2
_CLOSED
 10
98.5186596918
 20
161.1887922513
 30
8.4375
 41
5.9944
 42
5.9944
 50
90.0
  0
INSERT
  5
120
330
11A
100
AcDbEntity
  8
FORMAT
100
AcDbBlockReference
  2
_CLOSED
 10
98.5186596918
 20
101.1887922513
 30
8.4375
 41
5.9944
 42
5.9944
 50
270.0
  0
LINE
  5
121
330
11A
100
AcDbEntity
  8
FORMAT
100
AcDbLine
 10
108.7413210585
 20
161.1887922513
 30
0.0
 11
97.5280596918
 21
161.1887922513
 31
0.0
  0
LINE
  5
122
330
11A
100
AcDbEntity
  8
FORMAT
100
AcDbLine
 10
108.7413210585
 20
101.1887922513
 30
0.0
 11
97.5280596918
 21
101.1887922513
 31
0.0
  0
LINE
  5
123
330
11A
100
AcDbEntity
  8
FORMAT
100
AcDbLine
 10
98.5186596918
 20
161.1887922513
 30
0.0
 11
98.5186596918
 21
101.1887922513
 31
0.0
  0
MTEXT
  5
124
330
11A
100
AcDbEntity
  8
FORMAT
100
AcDbMText
 10
90.3330788458
 20
127.8158938642
 30
0.0
 40
6.35
 41
0.0
 71
     1
 72
     1
  1
12
  7
SLDTEXTSTYLE0
 11
-7.044195017643634E-15
 21
1.0
 31
0.0
 73
     1
 44
1.0
  0
ENDBLK
  5
11C
330
11A
100
AcDbEntity
  8
0
100
AcDbBlockEnd
  0
BLOCK
  5
128
330
127
100
AcDbEntity
  8
0
100
AcDbBlockBegin
  2
*D9
 70
     1
 10
0.0
 20
0.0
 30
0.0
  3
*D9
  1

  0
ARC
  5
12A
330
127
100
AcDbEntity
  8
FORMAT
100
AcDbCircle
 10
114.7319210585
 20
111.1887922513
 30
0.0
 40
5.953125000000012
100
AcDbArc
 50
245.5574644307
 51
293.4235094396
  0
INSERT
  5
12B
330
127
100
AcDbEntity
  8
FORMAT
100
AcDbBlockReference
  2
_CLOSED
 10
113.1916327201
 20
105.4383827789
 30
8.4375
 41
5.9944
 42
5.9944
 50
75.0049200642
  0
LINE
  5
12C
330
127
100
AcDbEntity
  8
FORMAT
100
AcDbLine
 10
113.1916327201
 20
105.4383827789
 30
0.0
 11
101.1552293474
 21
60.502479385
 31
0.0
  0
LINE
  5
12D
330
127
100
AcDbEntity
  8
FORMAT
100
AcDbLine
 10
101.1552293474
 20
60.502479385
 30
0.0
 11
30.0410259713
 21
60.502479385
 31
0.0
  0
MTEXT
  5
12E
330
127
100
AcDbEntity
  8
FORMAT
100
AcDbMText
 10
30.7803468599
 20
68.688060231
 30
0.0
 40
6.35
 41
0.0
 71
     1
 72
     1
  1
2
  7
SLDTEXTSTYLE0
 73
     1
 44
1.0
  0
MTEXT
  5
12F
330
127
100
AcDbEntity
  8
FORMAT
100
AcDbMText
 10
35.847538579
 20
68.7850733097
 30
0.0
 40
6.35
 41
0.0
 71
     1
 72
     1
  1
 x 
  7
SLDTEXTSTYLE0
 73
     1
 44
1.0
  0
MTEXT
  5
130
330
127
100
AcDbEntity
  8
FORMAT
100
AcDbMText
 10
44.6052471732
 20
68.6880594161
 30
0.0
 40
6.35
 41
0.0
 71
     1
 72
     1
  1
%%c
  7
SLDTEXTSTYLE0
 73
     1
 44
1.0
  0
MTEXT
  5
131
330
127
100
AcDbEntity
  8
FORMAT
100
AcDbMText
 10
54.1818397676
 20
68.7850733097
 30
0.0
 40
6.35
 41
0.0
 71
     1
 72
     1
  1
 
  7
SLDTEXTSTYLE0
 73
     1
 44
1.0
  0
MTEXT
  5
132
330
127
100
AcDbEntity
  8
FORMAT
100
AcDbMText
 10
56.5242919063
 20
68.688060231
 30
0.0
 40
6.35
 41
0.0
 71
     1
 72
     1
  1
2.38
  7
SLDTEXTSTYLE0
 73
     1
 44
1.0
  0
MTEXT
  5
133
330
127
100
AcDbEntity
  8
FORMAT
100
AcDbMText
 10
74.2594629232
 20
68.7850733097
 30
0.0
 40
6.35
 41
0.0
 71
     1
 72
     1
  1
 
  7
SLDTEXTSTYLE0
 73
     1
 44
1.0
  0
INSERT
  5
13B
330
127
100
AcDbEntity
  8
FORMAT
100
AcDbBlockReference
  2
SW_SYMBOL_HOLE_DEPTH
 10
76.605435152
 20
61.3830456748
 30
0.0
 41
0.0081111328
 42
0.0081111328
 43
0.0081111328
  0
MTEXT
  5
13C
330
127
100
AcDbEntity
  8
FORMAT
100
AcDbMText
 10
85.677997366
 20
68.7850733097
 30
0.0
 40
6.35
 41
0.0
 71
     1
 72
     1
  1
 
  7
SLDTEXTSTYLE0
 73
     1
 44
1.0
  0
MTEXT
  5
13D
330
127
100
AcDbEntity
  8
FORMAT
100
AcDbMText
 10
88.0208459091
 20
68.688060231
 30
0.0
 40
6.35
 41
0.0
 71
     1
 72
     1
  1
10
  7
SLDTEXTSTYLE0
 73
     1
 44
1.0
  0
ENDBLK
  5
129
330
127
100
AcDbEntity
  8
0
100
AcDbBlockEnd
  0
BLOCK
  5
135
330
134
100
AcDbEntity
  8
0
100
AcDbBlockBegin
  2
SW_SYMBOL_HOLE_DEPTH
 70
     0
 10
0.0
 20
0.0
 30
0.0
  3
SW_SYMBOL_HOLE_DEPTH
  1

  0
LINE
  5
137
330
134
100
AcDbEntity
  8
FORMAT
 62
     0
100
AcDbLine
 10
0.0
 20
875.0
 30
0.0
 11
800.0
 21
875.0
 31
0.0
  0
LINE
  5
138
330
134
100
AcDbEntity
  8
FORMAT
 62
     0
100
AcDbLine
 10
400.0
 20
875.0
 30
0.0
 11
400.0
 21
75.0
 31
0.0
  0
LINE
  5
139
330
134
100
AcDbEntity
  8
FORMAT
 62
     0
100
AcDbLine
 10
100.0
 20
555.0
 30
0.0
 11
400.0
 21
75.0
 31
0.0
  0
LINE
  5
13A
330
134
100
AcDbEntity
  8
FORMAT
 62
     0
100
AcDbLine
 10
700.0
 20
555.0
 30
0.0
 11
400.0
 21
75.0
 31
0.0
  0
ENDBLK
  5
136
330
134
100
AcDbEntity
  8
0
100
AcDbBlockEnd
  0
BLOCK
  5
141
330
140
100
AcDbEntity
  8
0
100
AcDbBlockBegin
  2
*D11
 70
     1
 10
0.0
 20
0.0
 30
0.0
  3
*D11
  1

  0
INSERT
  5
143
330
140
100
AcDbEntity
  8
FORMAT
100
AcDbBlockReference
  2
_CLOSED
 10
128.3822433251
 20
106.8952175538
 30
8.4375
 41
5.9944
 42
5.9944
 50
104.9982867027
  0
LINE
  5
144
330
140
100
AcDbEntity
  8
FORMAT
100
AcDbLine
 10
128.3822433251
 20
106.8952175538
 30
0.0
 11
140.6325990798
 21
61.1707983798
 31
0.0
  0
LINE
  5
145
330
140
100
AcDbEntity
  8
FORMAT
100
AcDbLine
 10
140.6325990798
 20
61.1707983798
 30
0.0
 11
222.4727662478
 21
61.1707983798
 31
0.0
  0
INSERT
  5
14C
330
140
100
AcDbEntity
  8
FORMAT
100
AcDbBlockReference
  2
SW_SYMBOL_HOLE_SPOT
 10
146.8075990798
 20
62.0513646696
 30
0.0
 41
0.0081111328
 42
0.0081111328
 43
0.0081111328
  0
MTEXT
  5
14D
330
140
100
AcDbEntity
  8
FORMAT
100
AcDbMText
 10
163.9446608843
 20
69.356378411
 30
0.0
 40
6.35
 41
0.0
 71
     1
 72
     1
  1
%%c
  7
SLDTEXTSTYLE0
 73
     1
 44
1.0
  0
MTEXT
  5
14E
330
140
100
AcDbEntity
  8
FORMAT
100
AcDbMText
 10
173.5212534787
 20
69.4533923045
 30
0.0
 40
6.35
 41
0.0
 71
     1
 72
     1
  1
 
  7
SLDTEXTSTYLE0
 73
     1
 44
1.0
  0
MTEXT
  5
14F
330
140
100
AcDbEntity
  8
FORMAT
100
AcDbMText
 10
175.8643941068
 20
69.3563792259
 30
0.0
 40
6.35
 41
0.0
 71
     1
 72
     1
  1
3.18
  7
SLDTEXTSTYLE0
 73
     1
 44
1.0
  0
MTEXT
  5
150
330
140
100
AcDbEntity
  8
FORMAT
100
AcDbMText
 10
193.5995651237
 20
69.4533923045
 30
0.0
 40
6.35
 41
0.0
 71
     1
 72
     1
  1
 
  7
SLDTEXTSTYLE0
 73
     1
 44
1.0
  0
INSERT
  5
151
330
140
100
AcDbEntity
  8
FORMAT
100
AcDbBlockReference
  2
SW_SYMBOL_HOLE_DEPTH
 10
195.9455373525
 20
62.0513646696
 30
0.0
 41
0.0081111328
 42
0.0081111328
 43
0.0081111328
  0
MTEXT
  5
152
330
140
100
AcDbEntity
  8
FORMAT
100
AcDbMText
 10
205.0180995664
 20
69.4533923045
 30
0.0
 40
6.35
 41
0.0
 71
     1
 72
     1
  1
 
  7
SLDTEXTSTYLE0
 73
     1
 44
1.0
  0
MTEXT
  5
153
330
140
100
AcDbEntity
  8
FORMAT
100
AcDbMText
 10
207.3609481096
 20
69.3563792259
 30
0.0
 40
6.35
 41
0.0
 71
     1
 72
     1
  1
1.52
  7
SLDTEXTSTYLE0
 73
     1
 44
1.0
  0
MTEXT
  5
154
330
140
100
AcDbEntity
  8
FORMAT
100
AcDbMText
 10
150.2408050634
 20
79.4336437461
 30
0.0
 40
6.35
 41
0.0
 71
     1
 72
     1
  1
%%c
  7
SLDTEXTSTYLE0
 73
     1
 44
1.0
  0
MTEXT
  5
155
330
140
100
AcDbEntity
  8
FORMAT
100
AcDbMText
 10
159.8173985891
 20
79.5306576396
 30
0.0
 40
6.35
 41
0.0
 71
     1
 72
     1
  1
 
  7
SLDTEXTSTYLE0
 73
     1
 44
1.0
  0
MTEXT
  5
156
330
140
100
AcDbEntity
  8
FORMAT
100
AcDbMText
 10
162.1621691562
 20
79.433644561
 30
0.0
 40
6.35
 41
0.0
 71
     1
 72
     1
  1
1.78
  7
SLDTEXTSTYLE0
 73
     1
 44
1.0
  0
MTEXT
  5
157
330
140
100
AcDbEntity
  8
FORMAT
100
AcDbMText
 10
179.8973401731
 20
79.433644561
 30
0.0
 40
6.35
 41
0.0
 71
     1
 72
     1
  1
 
  7
SLDTEXTSTYLE0
 73
     1
 44
1.0
  0
MTEXT
  5
158
330
140
100
AcDbEntity
  8
FORMAT
100
AcDbMText
 10
182.2432622652
 20
79.433644561
 30
0.0
 40
6.35
 41
0.0
 71
     1
 72
     1
  1
THRU ALL
  7
SLDTEXTSTYLE0
 73
     1
 44
1.0
  0
ENDBLK
  5
142
330
140
100
AcDbEntity
  8
0
100
AcDbBlockEnd
  0
BLOCK
  5
147
330
146
100
AcDbEntity
  8
0
100
AcDbBlockBegin
  2
SW_SYMBOL_HOLE_SPOT
 70
     0
 10
0.0
 20
0.0
 30
0.0
  3
SW_SYMBOL_HOLE_SPOT
  1

  0
LINE
  5
149
330
146
100
AcDbEntity
  8
FORMAT
 62
     0
100
AcDbLine
 10
0.0
 20
875.0
 30
0.0
 11
0.0
 21
75.0
 31
0.0
  0
LINE
  5
14A
330
146
100
AcDbEntity
  8
FORMAT
 62
     0
100
AcDbLine
 10
0.0
 20
75.0
 30
0.0
 11
1600.0
 21
75.0
 31
0.0
  0
LINE
  5
14B
330
146
100
AcDbEntity
  8
FORMAT
 62
     0
100
AcDbLine
 10
1600.0
 20
75.0
 30
0.0
 11
1600.0
 21
875.0
 31
0.0
  0
ENDBLK
  5
148
330
146
100
AcDbEntity
  8
0
100
AcDbBlockEnd
  0
BLOCK
  5
17E
330
17D
100
AcDbEntity
  8
0
100
AcDbBlockBegin
  2
*D13
 70
     1
 10
0.0
 20
0.0
 30
0.0
  3
*D13
  1

  0
ARC
  5
180
330
17D
100
AcDbEntity
  8
FORMAT
100
AcDbCircle
 10
28.1543472332
 20
172.0964762606
 30
0.0
 40
11.26672515830318
100
AcDbArc
 50
153.4349488229
 51
206.5650511771
  0
ARC
  5
181
330
17D
100
AcDbEntity
  8
FORMAT
100
AcDbCircle
 10
15.8666607473
 20
172.0964762606
 30
0.0
 40
11.26672515830318
100
AcDbArc
 50
333.4349488229
 51
26.5650511771
  0
INSERT
  5
182
330
17D
100
AcDbEntity
  8
FORMAT
100
AcDbBlockReference
  2
_CLOSED
 10
49.0105039902
 20
167.057843593
 30
11.75
 41
5.9944
 42
5.9944
 50
180.0
  0
INSERT
  5
183
330
17D
100
AcDbEntity
  8
FORMAT
100
AcDbBlockReference
  2
_CLOSED
 10
44.0105039902
 20
167.057843593
 30
11.75
 41
5.9944
 42
5.9944
 50
360.0
  0
LINE
  5
184
330
17D
100
AcDbEntity
  8
FORMAT
100
AcDbLine
 10
49.0105039902
 20
156.9293922513
 30
0.0
 11
49.0105039902
 21
168.048443593
 31
0.0
  0
LINE
  5
185
330
17D
100
AcDbEntity
  8
FORMAT
100
AcDbLine
 10
44.0105039902
 20
156.9293922513
 30
0.0
 11
44.0105039902
 21
168.048443593
 31
0.0
  0
LINE
  5
186
330
17D
100
AcDbEntity
  8
FORMAT
100
AcDbLine
 10
49.0105039902
 20
167.057843593
 30
0.0
 11
60.9993039902
 21
167.057843593
 31
0.0
  0
LINE
  5
187
330
17D
100
AcDbEntity
  8
FORMAT
100
AcDbLine
 10
49.0105039902
 20
167.057843593
 30
0.0
 11
44.0105039902
 21
167.057843593
 31
0.0
  0
LINE
  5
188
330
17D
100
AcDbEntity
  8
FORMAT
100
AcDbLine
 10
44.0105039902
 20
167.057843593
 30
0.0
 11
16.4895818981
 21
167.057843593
 31
0.0
  0
MTEXT
  5
189
330
17D
100
AcDbEntity
  8
FORMAT
100
AcDbMText
 10
19.6645818981
 20
175.2434244391
 30
0.0
 40
6.35
 41
0.0
 71
     1
 72
     1
  1
1
  7
SLDTEXTSTYLE0
 73
     1
 44
1.0
  0
ENDBLK
  5
17F
330
17D
100
AcDbEntity
  8
0
100
AcDbBlockEnd
  0
BLOCK
  5
18C
330
18B
100
AcDbEntity
  8
0
100
AcDbBlockBegin
  2
*D14
 70
     1
 10
0.0
 20
0.0
 30
0.0
  3
*D14
  1

  0
ARC
  5
18E
330
18B
100
AcDbEntity
  8
FORMAT
100
AcDbCircle
 10
52.2270420027
 20
194.0024249189
 30
0.0
 40
11.2667251583031
100
AcDbArc
 50
153.4349488229
 51
206.5650511771
  0
ARC
  5
18F
330
18B
100
AcDbEntity
  8
FORMAT
100
AcDbCircle
 10
51.6689659778
 20
194.0024249189
 30
0.0
 40
11.2667251583031
100
AcDbArc
 50
333.4349488229
 51
26.5650511771
  0
INSERT
  5
190
330
18B
100
AcDbEntity
  8
FORMAT
100
AcDbBlockReference
  2
_CLOSED
 10
44.0105039902
 20
188.9637922513
 30
11.75
 41
5.9944
 42
5.9944
 50
0.0
  0
INSERT
  5
191
330
18B
100
AcDbEntity
  8
FORMAT
100
AcDbBlockReference
  2
_CLOSED
 10
59.8855039902
 20
188.9637922513
 30
11.75
 41
5.9944
 42
5.9944
 50
180.0
  0
LINE
  5
192
330
18B
100
AcDbEntity
  8
FORMAT
100
AcDbLine
 10
44.0105039902
 20
156.9293922513
 30
0.0
 11
44.0105039902
 21
189.9543922513
 31
0.0
  0
LINE
  5
193
330
18B
100
AcDbEntity
  8
FORMAT
100
AcDbLine
 10
59.8855039902
 20
157.1793922513
 30
0.0
 11
59.8855039902
 21
189.9543922513
 31
0.0
  0
LINE
  5
194
330
18B
100
AcDbEntity
  8
FORMAT
100
AcDbLine
 10
44.0105039902
 20
188.9637922513
 30
0.0
 11
32.0217039902
 21
188.9637922513
 31
0.0
  0
LINE
  5
195
330
18B
100
AcDbEntity
  8
FORMAT
100
AcDbLine
 10
44.0105039902
 20
188.9637922513
 30
0.0
 11
59.8855039902
 21
188.9637922513
 31
0.0
  0
LINE
  5
196
330
18B
100
AcDbEntity
  8
FORMAT
100
AcDbLine
 10
59.8855039902
 20
188.9637922513
 30
0.0
 11
71.8743039902
 21
188.9637922513
 31
0.0
  0
MTEXT
  5
197
330
18B
100
AcDbEntity
  8
FORMAT
100
AcDbMText
 10
43.7372766676
 20
197.1493730974
 30
0.0
 40
6.35
 41
0.0
 71
     1
 72
     1
  1
3.18
  7
SLDTEXTSTYLE0
 73
     1
 44
1.0
  0
ENDBLK
  5
18D
330
18B
100
AcDbEntity
  8
0
100
AcDbBlockEnd
  0
BLOCK
  5
19A
330
199
100
AcDbEntity
  8
0
100
AcDbBlockBegin
  2
*D15
 70
     1
 10
0.0
 20
0.0
 30
0.0
  3
*D15
  1

  0
ARC
  5
19C
330
199
100
AcDbEntity
  8
FORMAT
100
AcDbCircle
 10
82.1645420027
 20
182.2274249189
 30
0.0
 40
11.26672515830317
100
AcDbArc
 50
153.4349488229
 51
206.5650511771
  0
ARC
  5
19D
330
199
100
AcDbEntity
  8
FORMAT
100
AcDbCircle
 10
81.6064659778
 20
182.2274249189
 30
0.0
 40
11.26672515830317
100
AcDbArc
 50
333.4349488229
 51
26.5650511771
  0
INSERT
  5
19E
330
199
100
AcDbEntity
  8
FORMAT
100
AcDbBlockReference
  2
_CLOSED
 10
49.0105039902
 20
177.1887922513
 30
11.75
 41
5.9944
 42
5.9944
 50
0.0
  0
INSERT
  5
19F
330
199
100
AcDbEntity
  8
FORMAT
100
AcDbBlockReference
  2
_CLOSED
 10
59.8855039902
 20
177.1887922513
 30
11.75
 41
5.9944
 42
5.9944
 50
180.0
  0
LINE
  5
1A0
330
199
100
AcDbEntity
  8
FORMAT
100
AcDbLine
 10
49.0105039902
 20
162.1793922513
 30
0.0
 11
49.0105039902
 21
178.1793922513
 31
0.0
  0
LINE
  5
1A1
330
199
100
AcDbEntity
  8
FORMAT
100
AcDbLine
 10
59.8855039902
 20
157.1793922513
 30
0.0
 11
59.8855039902
 21
178.1793922513
 31
0.0
  0
LINE
  5
1A2
330
199
100
AcDbEntity
  8
FORMAT
100
AcDbLine
 10
49.0105039902
 20
177.1887922513
 30
0.0
 11
37.0217039902
 21
177.1887922513
 31
0.0
  0
LINE
  5
1A3
330
199
100
AcDbEntity
  8
FORMAT
100
AcDbLine
 10
49.0105039902
 20
177.1887922513
 30
0.0
 11
59.8855039902
 21
177.1887922513
 31
0.0
  0
LINE
  5
1A4
330
199
100
AcDbEntity
  8
FORMAT
100
AcDbLine
 10
59.8855039902
 20
177.1887922513
 30
0.0
 11
93.2712313129
 21
177.1887922513
 31
0.0
  0
MTEXT
  5
1A5
330
199
100
AcDbEntity
  8
FORMAT
100
AcDbMText
 10
73.6747766676
 20
185.3743730974
 30
0.0
 40
6.35
 41
0.0
 71
     1
 72
     1
  1
2.18
  7
SLDTEXTSTYLE0
 73
     1
 44
1.0
  0
ENDBLK
  5
19B
330
199
100
AcDbEntity
  8
0
100
AcDbBlockEnd
  0
BLOCK
  5
1A8
330
1A7
100
AcDbEntity
  8
0
100
AcDbBlockBegin
  2
*D16
 70
     1
 10
0.0
 20
0.0
 30
0.0
  3
*D16
  1

  0
ARC
  5
1AA
330
1A7
100
AcDbEntity
  8
FORMAT
100
AcDbCircle
 10
76.1645420027
 20
100.5978210751
 30
0.0
 40
11.26672515830315
100
AcDbArc
 50
153.4349488229
 51
206.5650511771
  0
ARC
  5
1AB
330
1A7
100
AcDbEntity
  8
FORMAT
100
AcDbCircle
 10
75.6064659778
 20
100.5978210751
 30
0.0
 40
11.26672515830314
100
AcDbArc
 50
333.4349488229
 51
26.5650511771
  0
INSERT
  5
1AC
330
1A7
100
AcDbEntity
  8
FORMAT
100
AcDbBlockReference
  2
_CLOSED
 10
49.0105039902
 20
95.5591884075
 30
11.75
 41
5.9944
 42
5.9944
 50
0.0
  0
INSERT
  5
1AD
330
1A7
100
AcDbEntity
  8
FORMAT
100
AcDbBlockReference
  2
_CLOSED
 10
52.2655039902
 20
95.5591884075
 30
11.75
 41
5.9944
 42
5.9944
 50
180.0
  0
LINE
  5
1AE
330
1A7
100
AcDbEntity
  8
FORMAT
100
AcDbLine
 10
49.0105039902
 20
114.6431922513
 30
0.0
 11
49.0105039902
 21
94.5685884075
 31
0.0
  0
LINE
  5
1AF
330
1A7
100
AcDbEntity
  8
FORMAT
100
AcDbLine
 10
52.2655039902
 20
114.6431922513
 30
0.0
 11
52.2655039902
 21
94.5685884075
 31
0.0
  0
LINE
  5
1B0
330
1A7
100
AcDbEntity
  8
FORMAT
100
AcDbLine
 10
49.0105039902
 20
95.5591884075
 30
0.0
 11
37.0217039902
 21
95.5591884075
 31
0.0
  0
LINE
  5
1B1
330
1A7
100
AcDbEntity
  8
FORMAT
100
AcDbLine
 10
49.0105039902
 20
95.5591884075
 30
0.0
 11
52.2655039902
 21
95.5591884075
 31
0.0
  0
LINE
  5
1B2
330
1A7
100
AcDbEntity
  8
FORMAT
100
AcDbLine
 10
52.2655039902
 20
95.5591884075
 30
0.0
 11
87.2712313129
 21
95.5591884075
 31
0.0
  0
MTEXT
  5
1B3
330
1A7
100
AcDbEntity
  8
FORMAT
100
AcDbMText
 10
67.6747766676
 20
103.7447692536
 30
0.0
 40
6.35
 41
0.0
 71
     1
 72
     1
  1
0.65
  7
SLDTEXTSTYLE0
 73
     1
 44
1.0
  0
ENDBLK
  5
1A9
330
1A7
100
AcDbEntity
  8
0
100
AcDbBlockEnd
  0
ENDSEC
  0
SECTION
  2
ENTITIES
  0
LINE
  5
41
330
1F
100
AcDbEntity
  8
0
  6
Continuous
 62
     8
370
     0
100
AcDbLine
 10
8.3801458
 20
208.0786585366
 30
0.0
 11
270.0001458
 21
208.0786585366
 31
0.0
  0
LINE
  5
42
330
1F
100
AcDbEntity
  8
0
  6
Continuous
 62
     8
370
     0
100
AcDbLine
 10
8.3801458
 20
208.0786585366
 30
0.0
 11
8.3801458
 21
9.9586585366
 31
0.0
  0
LINE
  5
43
330
1F
100
AcDbEntity
  8
0
  6
Continuous
 62
     8
370
     0
100
AcDbLine
 10
270.0001458
 20
9.9586585366
 30
0.0
 11
8.3801458
 21
9.9586585366
 31
0.0
  0
LINE
  5
44
330
1F
100
AcDbEntity
  8
0
  6
Continuous
 62
     8
370
     0
100
AcDbLine
 10
270.0001458
 20
9.9586585366
 30
0.0
 11
270.0001458
 21
208.0786585366
 31
0.0
  0
LINE
  5
45
330
1F
100
AcDbEntity
  8
0
  6
Continuous
 62
     8
370
     0
100
AcDbLine
 10
143.0001458
 20
9.9586585366
 30
0.0
 11
143.0001458
 21
48.0586585366
 31
0.0
  0
LINE
  5
46
330
1F
100
AcDbEntity
  8
0
  6
Continuous
 62
     8
370
     0
100
AcDbLine
 10
143.0001458
 20
48.0586585366
 30
0.0
 11
270.0001458
 21
48.0586585366
 31
0.0
  0
LINE
  5
47
330
1F
100
AcDbEntity
  8
0
  6
Continuous
 62
     8
370
     0
100
AcDbLine
 10
176.4516579819
 20
48.0586585366
 30
0.0
 11
176.4516579819
 21
9.9586585366
 31
0.0
  0
LINE
  5
48
330
1F
100
AcDbEntity
  8
0
  6
Continuous
 62
     8
370
     0
100
AcDbLine
 10
211.1140303648
 20
48.0586585366
 30
0.0
 11
211.1140303648
 21
9.9586585366
 31
0.0
  0
LINE
  5
49
330
1F
100
AcDbEntity
  8
0
  6
Continuous
 62
     8
370
     0
100
AcDbLine
 10
211.1140303648
 20
13.1336585366
 30
0.0
 11
270.0001458
 21
13.1336585366
 31
0.0
  0
LINE
  5
4A
330
1F
100
AcDbEntity
  8
0
  6
Continuous
 62
     8
370
     0
100
AcDbLine
 10
211.1140303648
 20
19.4836585366
 30
0.0
 11
270.0001458
 21
19.4836585366
 31
0.0
  0
LINE
  5
4B
330
1F
100
AcDbEntity
  8
0
  6
Continuous
 62
     8
370
     0
100
AcDbLine
 10
176.4516579819
 20
25.1986585366
 30
0.0
 11
211.1140303648
 21
25.1986585366
 31
0.0
  0
LINE
  5
4C
330
1F
100
AcDbEntity
  8
0
  6
Continuous
 62
     8
370
     0
100
AcDbLine
 10
216.2120359495
 20
19.4836585366
 30
0.0
 11
216.2120359495
 21
13.1336585366
 31
0.0
  0
LINE
  5
4D
330
1F
100
AcDbEntity
  8
0
  6
Continuous
 62
     8
370
     0
100
AcDbLine
 10
252.6938254626
 20
13.1336585366
 30
0.0
 11
252.6938254626
 21
9.9586585366
 31
0.0
  0
LINE
  5
4E
330
1F
100
AcDbEntity
  8
0
  6
Continuous
 62
     8
370
     0
100
AcDbLine
 10
263.5695287515
 20
19.4836585366
 30
0.0
 11
263.5695287515
 21
13.1336585366
 31
0.0
  0
LINE
  5
4F
330
1F
100
AcDbEntity
  8
0
  6
Continuous
 62
     8
370
     0
100
AcDbLine
 10
222.990073301
 20
13.1336585366
 30
0.0
 11
222.990073301
 21
9.9586585366
 31
0.0
  0
LINE
  5
50
330
1F
100
AcDbEntity
  8
0
  6
Continuous
 62
     8
370
     0
100
AcDbLine
 10
199.3765949972
 20
48.0586585366
 30
0.0
 11
199.3765949972
 21
25.1986585366
 31
0.0
  0
LINE
  5
51
330
1F
100
AcDbEntity
  8
0
  6
Continuous
 62
     8
370
     0
100
AcDbLine
 10
143.0001458
 20
15.7358512153
 30
0.0
 11
176.4516579819
 21
15.7358512153
 31
0.0
  0
LINE
  5
52
330
1F
100
AcDbEntity
  8
0
  6
Continuous
 62
     8
370
     0
100
AcDbLine
 10
176.4516579819
 20
44.2486585366
 30
0.0
 11
211.1140303648
 21
44.2486585366
 31
0.0
  0
LINE
  5
53
330
1F
100
AcDbEntity
  8
0
  6
Continuous
 62
     8
370
     0
100
AcDbLine
 10
187.2851272337
 20
48.0586585366
 30
0.0
 11
187.2851272337
 21
25.1986585366
 31
0.0
  0
LINE
  5
54
330
1F
100
AcDbEntity
  8
0
  6
Continuous
 62
     8
370
     0
100
AcDbLine
 10
143.0001458
 20
22.0858512153
 30
0.0
 11
176.4516579819
 21
22.0858512153
 31
0.0
  0
LINE
  5
55
330
1F
100
AcDbEntity
  8
0
  6
Continuous
 62
     8
370
     0
100
AcDbLine
 10
176.4516579819
 20
28.3137757838
 30
0.0
 11
143.0001458
 21
28.3137757838
 31
0.0
  0
LINE
  5
56
330
1F
100
AcDbEntity
  8
0
  6
Continuous
 62
     8
370
     0
100
AcDbLine
 10
116.774944898
 20
9.9586585366
 30
0.0
 11
116.774944898
 21
48.0586585366
 31
0.0
  0
LINE
  5
57
330
1F
100
AcDbEntity
  8
0
  6
Continuous
 62
     8
370
     0
100
AcDbLine
 10
116.774944898
 20
48.0586585366
 30
0.0
 11
143.0001458
 21
48.0586585366
 31
0.0
  0
LINE
  5
58
330
1F
100
AcDbEntity
  8
0
  6
Continuous
 62
     8
370
     0
100
AcDbLine
 10
143.0001458
 20
15.7358512153
 30
0.0
 11
116.774944898
 21
15.7358512153
 31
0.0
  0
LINE
  5
59
330
1F
100
AcDbEntity
  8
0
  6
Continuous
 62
     8
370
     0
100
AcDbLine
 10
116.774944898
 20
32.8186585366
 30
0.0
 11
75.4398329509
 21
32.8186585366
 31
0.0
  0
LINE
  5
5A
330
1F
100
AcDbEntity
  8
0
  6
Continuous
 62
     8
370
     0
100
AcDbLine
 10
75.4398329509
 20
32.8186585366
 30
0.0
 11
75.4398329509
 21
9.9586585366
 31
0.0
  0
LINE
  5
5B
330
1F
100
AcDbEntity
  8
0
  6
Continuous
 62
     8
370
     0
100
AcDbLine
 10
130.026886898
 20
48.0586585366
 30
0.0
 11
130.026886898
 21
15.7358512153
 31
0.0
  0
LINE
  5
5C
330
1F
100
AcDbEntity
  8
0
  6
Continuous
 62
     8
370
     0
100
AcDbLine
 10
176.4516579819
 20
40.4386585366
 30
0.0
 11
270.0001458
 21
40.4386585366
 31
0.0
  0
LINE
  5
5D
330
1F
100
AcDbEntity
  8
0
  6
Continuous
 62
     8
370
     0
100
AcDbLine
 10
176.4516579819
 20
36.6286585366
 30
0.0
 11
211.1140303648
 21
36.6286585366
 31
0.0
  0
LINE
  5
5E
330
1F
100
AcDbEntity
  8
0
  6
Continuous
 62
     8
370
     0
100
AcDbLine
 10
176.4516579819
 20
32.8186585366
 30
0.0
 11
211.1140303648
 21
32.8186585366
 31
0.0
  0
LINE
  5
5F
330
1F
100
AcDbEntity
  8
0
  6
Continuous
 62
     8
370
     0
100
AcDbLine
 10
176.4516579819
 20
29.0086585366
 30
0.0
 11
211.1140303648
 21
29.0086585366
 31
0.0
  0
LINE
  5
60
330
1F
100
AcDbEntity
  8
0
  6
Continuous
 62
     8
370
     0
100
AcDbLine
 10
116.774944898
 20
44.2486585366
 30
0.0
 11
143.0001458
 21
44.2486585366
 31
0.0
  0
LINE
  5
61
330
1F
100
AcDbEntity
  8
0
  6
Continuous
 62
     8
370
     0
100
AcDbLine
 10
116.774944898
 20
40.4386585366
 30
0.0
 11
143.0001458
 21
40.4386585366
 31
0.0
  0
LINE
  5
62
330
1F
100
AcDbEntity
  8
0
  6
Continuous
 62
     8
370
     0
100
AcDbLine
 10
116.774944898
 20
36.6286585366
 30
0.0
 11
143.0001458
 21
36.6286585366
 31
0.0
  0
LINE
  5
63
330
1F
100
AcDbEntity
  8
0
  6
Continuous
 62
     8
370
     0
100
AcDbLine
 10
116.774944898
 20
32.8186585366
 30
0.0
 11
143.0001458
 21
32.8186585366
 31
0.0
  0
LINE
  5
64
330
1F
100
AcDbEntity
  8
0
  6
Continuous
 62
     8
370
     0
100
AcDbLine
 10
116.774944898
 20
29.0086585366
 30
0.0
 11
143.0001458
 21
29.0086585366
 31
0.0
  0
LINE
  5
65
330
1F
100
AcDbEntity
  8
0
  6
Continuous
 62
     8
370
     0
100
AcDbLine
 10
116.774944898
 20
25.1986585366
 30
0.0
 11
143.0001458
 21
25.1986585366
 31
0.0
  0
LINE
  5
66
330
1F
100
AcDbEntity
  8
0
  6
Continuous
 62
     8
370
     0
100
AcDbLine
 10
116.774944898
 20
21.3886585366
 30
0.0
 11
143.0001458
 21
21.3886585366
 31
0.0
  0
MTEXT
  5
68
330
1F
100
AcDbEntity
  8
0
  6
Continuous
 62
     8
370
     0
100
AcDbMText
 10
215.2254706525
 20
46.538780922
 30
0.0
 40
3.96875
 41
0.0
 71
     1
 72
     1
  1
<COMPANY NAME>
  7
SLDTEXTSTYLE0
 73
     1
 44
1.0
  0
MTEXT
  5
69
330
1F
100
AcDbEntity
  8
0
  6
Continuous
 62
     8
370
     0
100
AcDbMText
 10
211.7793376587
 20
12.287779388
 30
0.0
 40
1.3229166667
 41
0.0
 71
     1
 72
     1
  1
SCALE:5:1
  7
SLDTEXTSTYLE0
 73
     1
 44
1.0
  0
MTEXT
  5
6A
330
1F
100
AcDbEntity
  8
0
  6
Continuous
 62
     8
370
     0
100
AcDbMText
 10
211.9023496367
 20
18.9478116115
 30
0.0
 40
1.3229166667
 41
0.0
 71
     1
 72
     1
  1
SIZE
  7
SLDTEXTSTYLE0
 73
     1
 44
1.0
  0
MTEXT
  5
6C
330
1F
100
AcDbEntity
  8
0
  6
Continuous
 62
     8
370
     0
100
AcDbMText
 10
216.8536978539
 20
18.8439059874
 30
0.0
 40
1.3229166667
 41
0.0
 71
     1
 72
     1
  1
DWG.  NO.
  7
SLDTEXTSTYLE1
 73
     1
 44
1.0
  0
MTEXT
  5
6D
330
1F
100
AcDbEntity
  8
0
  6
Continuous
 62
     8
370
     0
100
AcDbMText
 10
212.3905251951
 20
16.9959962471
 30
0.0
 40
2.54
 41
0.0
 71
     1
 72
     1
  1
A
  7
SLDTEXTSTYLE0
 73
     1
 44
1.0
  0
MTEXT
  5
6E
330
1F
100
AcDbEntity
  8
0
  6
Continuous
 62
     8
370
     0
100
AcDbMText
 10
264.6045784572
 20
18.7653242907
 30
0.0
 40
1.3229166667
 41
0.0
 71
     1
 72
     1
  1
REV.
  7
SLDTEXTSTYLE0
 73
     1
 44
1.0
  0
MTEXT
  5
6F
330
1F
100
AcDbEntity
  8
0
  6
Continuous
 62
     8
370
     0
100
AcDbMText
 10
144.1376297307
 20
27.4692452041
 30
0.0
 40
1.3229166667
 41
0.0
 71
     1
 72
     1
  1
MATERIAL
  7
SLDTEXTSTYLE0
 73
     1
 44
1.0
  0
MTEXT
  5
70
330
1F
100
AcDbEntity
  8
0
  6
Continuous
 62
     8
370
     0
100
AcDbMText
 10
144.107962828
 20
20.9903165296
 30
0.0
 40
1.3229166667
 41
0.0
 71
     1
 72
     1
  1
FINISH
  7
SLDTEXTSTYLE0
 73
     1
 44
1.0
  0
MTEXT
  5
71
330
1F
100
AcDbEntity
  8
0
  6
Continuous
 62
     8
370
     0
100
AcDbMText
 10
158.494379388
 20
26.8141189024
 30
0.0
 40
2.38125
 41
0.0
 71
     1
 72
     1
  1
--
  7
SLDTEXTSTYLE0
 73
     1
 44
1.0
  0
MTEXT
  5
72
330
1F
100
AcDbEntity
  8
0
  6
Continuous
 62
     8
370
     0
100
AcDbMText
 10
158.4300936069
 20
20.3772147063
 30
0.0
 40
2.38125
 41
0.0
 71
     1
 72
     1
  1
--
  7
SLDTEXTSTYLE0
 73
     1
 44
1.0
  0
MTEXT
  5
74
330
1F
100
AcDbEntity
  8
0
  6
Continuous
 62
     8
370
     0
100
AcDbMText
 10
146.1341158626
 20
13.6529556097
 30
0.0
 40
1.5875
 41
0.0
 71
     1
 72
     1
  1
DO  NOT  SCALE  DRAWING
  7
SLDTEXTSTYLE2
 73
     1
 44
1.0
  0
MTEXT
  5
75
330
1F
100
AcDbEntity
  8
0
  6
Continuous
 62
     8
370
     0
100
AcDbMText
 10
123.1373075583
 20
13.4423664803
 30
0.0
 40
1.5875
 41
0.0
 71
     1
 72
     1
  1
APPLICATION
  7
SLDTEXTSTYLE0
 73
     1
 44
1.0
  0
MTEXT
  5
76
330
1F
100
AcDbEntity
  8
0
  6
Continuous
 62
     8
370
     0
100
AcDbMText
 10
132.0022088559
 20
19.6077399289
 30
0.0
 40
1.5875
 41
0.0
 71
     1
 72
     1
  1
USED ON
  7
SLDTEXTSTYLE0
 73
     1
 44
1.0
  0
MTEXT
  5
77
330
1F
100
AcDbEntity
  8
0
  6
Continuous
 62
     8
370
     0
100
AcDbMText
 10
118.3327002182
 20
19.5541767099
 30
0.0
 40
1.5875
 41
0.0
 71
     1
 72
     1
  1
NEXT ASSY
  7
SLDTEXTSTYLE0
 73
     1
 44
1.0
  0
INSERT
  5
87
330
1F
100
AcDbEntity
  8
0
  6
Continuous
 62
     8
370
     0
100
AcDbBlockReference
  2
SW_NOTE_0
 10
144.3123020786
 20
44.0388576052
 30
0.0
  0
MTEXT
  5
88
330
1F
100
AcDbEntity
  8
0
  6
Continuous
 62
     8
370
     0
100
AcDbMText
 10
190.7830354534
 20
46.9111260877
 30
0.0
 40
1.3229166667
 41
0.0
 71
     1
 72
     1
  1
NAME
  7
SLDTEXTSTYLE0
 73
     1
 44
1.0
  0
MTEXT
  5
89
330
1F
100
AcDbEntity
  8
0
  6
Continuous
 62
     8
370
     0
100
AcDbMText
 10
203.0113593517
 20
46.8596896379
 30
0.0
 40
1.3229166667
 41
0.0
 71
     1
 72
     1
  1
DATE
  7
SLDTEXTSTYLE0
 73
     1
 44
1.0
  0
MTEXT
  5
8A
330
1F
100
AcDbEntity
  8
0
  6
Continuous
 62
     8
370
     0
100
AcDbMText
 10
177.2844289847
 20
43.1662087989
 30
0.0
 40
1.3229166667
 41
0.0
 71
     1
 72
     1
  1
DRAWN
  7
SLDTEXTSTYLE0
 73
     1
 44
1.0
  0
MTEXT
  5
8B
330
1F
100
AcDbEntity
  8
0
  6
Continuous
 62
     8
370
     0
100
AcDbMText
 10
177.3452511362
 20
39.1082779854
 30
0.0
 40
1.3229166667
 41
0.0
 71
     1
 72
     1
  1
CHECKED
  7
SLDTEXTSTYLE0
 73
     1
 44
1.0
  0
MTEXT
  5
8C
330
1F
100
AcDbEntity
  8
0
  6
Continuous
 62
     8
370
     0
100
AcDbMText
 10
177.3582907907
 20
35.4914942127
 30
0.0
 40
1.3229166667
 41
0.0
 71
     1
 72
     1
  1
ENG APPR.
  7
SLDTEXTSTYLE0
 73
     1
 44
1.0
  0
MTEXT
  5
8D
330
1F
100
AcDbEntity
  8
0
  6
Continuous
 62
     8
370
     0
100
AcDbMText
 10
177.3698846248
 20
31.7087450751
 30
0.0
 40
1.3229166667
 41
0.0
 71
     1
 72
     1
  1
MFG APPR.
  7
SLDTEXTSTYLE0
 73
     1
 44
1.0
  0
MTEXT
  5
8E
330
1F
100
AcDbEntity
  8
0
  6
Continuous
 62
     8
370
     0
100
AcDbMText
 10
177.4683412596
 20
27.9664834015
 30
0.0
 40
1.3229166667
 41
0.0
 71
     1
 72
     1
  1
Q.A.
  7
SLDTEXTSTYLE0
 73
     1
 44
1.0
  0
MTEXT
  5
90
330
1F
100
AcDbEntity
  8
0
  6
Continuous
 62
     8
370
     0
100
AcDbMText
 10
253.207095084
 20
12.2932314478
 30
0.0
 40
1.27
 41
0.0
 71
     1
 72
     1
  1
SHEET 1 OF 1
  7
SLDTEXTSTYLE3
 73
     1
 44
1.0
  0
MTEXT
  5
91
330
1F
100
AcDbEntity
  8
0
  6
Continuous
 62
     8
370
     0
100
AcDbMText
 10
223.7477120367
 20
12.1984788096
 30
0.0
 40
1.3229166667
 41
0.0
 71
     1
 72
     1
  1
WEIGHT:
  7
SLDTEXTSTYLE0
 73
     1
 44
1.0
  0
MTEXT
  5
92
330
1F
100
AcDbEntity
  8
0
  6
Continuous
 62
     8
370
     0
100
AcDbMText
 10
177.5295819392
 20
24.4368224288
 30
0.0
 40
1.3229166667
 41
0.0
 71
     1
 72
     1
  1
COMMENTS:
  7
SLDTEXTSTYLE0
 73
     1
 44
1.0
  0
INSERT
  5
9D
330
1F
100
AcDbEntity
  8
0
  6
Continuous
 62
     8
370
     0
100
AcDbBlockReference
  2
SW_NOTE_1
 10
76.4054461413
 20
26.3388051665
 30
0.0
  0
MTEXT
  5
9E
330
1F
100
AcDbEntity
  8
0
  6
Continuous
 62
     8
370
     0
100
AcDbMText
 10
80.201927896
 20
31.3719365463
 30
0.0
 40
1.524
 41
0.0
 71
     1
 72
     1
  1
PROPRIETARY AND CONFIDENTIAL
  7
SLDTEXTSTYLE0
 73
     1
 44
1.0
  0
ARC
  5
9F
330
1F
100
AcDbEntity
  8
0
  6
Continuous
 62
     7
370
    15
100
AcDbCircle
 10
202.3926728493
 20
135.9387922513
 30
0.0
 40
5.0
100
AcDbArc
 50
90.0
 51
180.0
  0
ARC
  5
A0
330
1F
100
AcDbEntity
  8
0
  6
Continuous
 62
     7
370
    15
100
AcDbCircle
 10
226.8926728493
 20
111.4387922513
 30
0.0
 40
5.000000000000014
100
AcDbArc
 50
270.0
 51
0.0
  0
ARC
  5
A1
330
1F
100
AcDbEntity
  8
0
  6
Continuous
 62
     7
370
    15
100
AcDbCircle
 10
226.8926728493
 20
135.9387922513
 30
0.0
 40
5.0
100
AcDbArc
 50
0.0
 51
90.0
  0
LINE
  5
A2
330
1F
100
AcDbEntity
  8
0
  6
Continuous
 62
     7
370
    15
100
AcDbLine
 10
231.8926728493
 20
111.4387922513
 30
0.0
 11
231.8926728493
 21
135.9387922513
 31
0.0
  0
LINE
  5
A3
330
1F
100
AcDbEntity
  8
0
  6
Continuous
 62
     7
370
    15
100
AcDbLine
 10
202.3926728493
 20
106.4387922513
 30
0.0
 11
226.8926728493
 21
106.4387922513
 31
0.0
  0
LINE
  5
A4
330
1F
100
AcDbEntity
  8
0
  6
Continuous
 62
     7
370
    15
100
AcDbLine
 10
197.3926728493
 20
135.9387922513
 30
0.0
 11
197.3926728493
 21
111.4387922513
 31
0.0
  0
LINE
  5
A5
330
1F
100
AcDbEntity
  8
0
  6
Continuous
 62
     7
370
    15
100
AcDbLine
 10
226.8926728493
 20
140.9387922513
 30
0.0
 11
202.3926728493
 21
140.9387922513
 31
0.0
  0
ARC
  5
A6
330
1F
100
AcDbEntity
  8
0
  6
Continuous
 62
     7
370
    15
100
AcDbCircle
 10
202.3926728493
 20
111.4387922513
 30
0.0
 40
5.000000000000014
100
AcDbArc
 50
180.0
 51
270.0
  0
LINE
  5
A7
330
1F
100
AcDbEntity
  8
0
  6
Continuous
 62
     7
370
    15
100
AcDbLine
 10
192.1426728493
 20
156.1887922513
 30
0.0
 11
192.1426728493
 21
106.1887922513
 31
0.0
  0
ARC
  5
A8
330
1F
100
AcDbEntity
  8
0
  6
Continuous
 62
     7
370
    15
100
AcDbCircle
 10
232.1426728493
 20
156.1887922513
 30
0.0
 40
5.0
100
AcDbArc
 50
0.0
 51
90.0
  0
LINE
  5
A9
330
1F
100
AcDbEntity
  8
0
  6
Continuous
 62
     7
370
    15
100
AcDbLine
 10
237.1426728493
 20
106.1887922513
 30
0.0
 11
237.1426728493
 21
156.1887922513
 31
0.0
  0
LINE
  5
AA
330
1F
100
AcDbEntity
  8
0
  6
Continuous
 62
     7
370
    15
100
AcDbLine
 10
197.1426728493
 20
101.1887922513
 30
0.0
 11
232.1426728493
 21
101.1887922513
 31
0.0
  0
CIRCLE
  5
AB
330
1F
100
AcDbEntity
  8
0
  6
Continuous
 62
     7
370
    15
100
AcDbCircle
 10
214.6426728493
 20
151.1887922513
 30
0.0
 40
4.444999999999993
  0
CIRCLE
  5
AC
330
1F
100
AcDbEntity
  8
0
  6
Continuous
 62
     7
370
    15
100
AcDbCircle
 10
202.1426728493
 20
151.1887922513
 30
0.0
 40
5.953125
  0
ARC
  5
AD
330
1F
100
AcDbEntity
  8
0
  6
Continuous
 62
     7
370
    15
100
AcDbCircle
 10
197.1426728493
 20
106.1887922513
 30
0.0
 40
5.0
100
AcDbArc
 50
180.0
 51
270.0
  0
ARC
  5
AE
330
1F
100
AcDbEntity
  8
0
  6
Continuous
 62
     7
370
    15
100
AcDbCircle
 10
232.1426728493
 20
106.1887922513
 30
0.0
 40
5.0
100
AcDbArc
 50
270.0
 51
0.0
  0
LINE
  5
AF
330
1F
100
AcDbEntity
  8
0
  6
Continuous
 62
     7
370
    15
100
AcDbLine
 10
232.1426728493
 20
161.1887922513
 30
0.0
 11
197.1426728493
 21
161.1887922513
 31
0.0
  0
ARC
  5
B0
330
1F
100
AcDbEntity
  8
0
  6
Continuous
 62
     7
370
    15
100
AcDbCircle
 10
197.1426728493
 20
156.1887922513
 30
0.0
 40
5.0
100
AcDbArc
 50
90.0
 51
180.0
  0
CIRCLE
  5
B1
330
1F
100
AcDbEntity
  8
0
  6
Continuous
 62
     7
370
    15
100
AcDbCircle
 10
227.1426728493
 20
151.1887922513
 30
0.0
 40
5.953125
  0
DIMENSION
  5
B2
330
1F
100
AcDbEntity
  8
FORMAT
100
AcDbDimension
  2
*D4
 10
231.8926728493
 20
165.5053835241
 30
0.0
 11
214.0296843242
 21
165.5053835241
 31
0.0
 70
   160
  1
(<>)
 71
     2
 42
-1.0
  3
SLDDIMSTYLE0
100
AcDbAlignedDimension
 13
197.3926728493
 23
135.9387922513
 33
0.0
 14
231.8926728493
 24
135.9387922513
 34
0.0
100
AcDbRotatedDimension
  0
DIMENSION
  5
C8
330
1F
100
AcDbEntity
  8
FORMAT
100
AcDbDimension
  2
*D5
 10
189.0968357047
 20
106.4387922513
 30
0.0
 11
189.0968357047
 21
124.7318328267
 31
0.0
 70
   160
  1
(<>)
 71
     2
 42
-1.0
  3
SLDDIMSTYLE0
100
AcDbAlignedDimension
 13
202.3926728493
 23
140.9387922513
 33
0.0
 14
202.3926728493
 24
106.4387922513
 34
0.0
 50
90.0
100
AcDbRotatedDimension
  0
DIMENSION
  5
D6
330
1F
100
AcDbEntity
  8
FORMAT
100
AcDbDimension
  2
*D6
 10
226.8926728493
 20
111.4387922513
 30
0.0
 11
253.321845873
 21
85.0096392248
 31
0.0
 70
   164
  1
(<>)
 71
     1
 42
-1.0
  3
SLDDIMSTYLE1
100
AcDbRadialDimension
 15
230.4282067551
 25
107.9032583452
 35
0.0
 40
0.0
  0
ARC
  5
E2
330
1F
100
AcDbEntity
  8
0
  6
Continuous
 62
     7
370
    15
100
AcDbCircle
 10
127.2319210585
 20
111.1887922513
 30
0.0
 40
7.937500000000003
100
AcDbArc
 50
202.1336026359
 51
219.0443134691
  0
LINE
  5
E3
330
1F
100
AcDbEntity
  8
0
  6
Continuous
 62
     7
370
    15
100
AcDbLine
 10
117.9629730954
 20
106.1887922513
 30
0.0
 11
121.0671902249
 21
106.1887922513
 31
0.0
  0
ARC
  5
E4
330
1F
100
AcDbEntity
  8
0
  6
Continuous
 62
     7
370
    15
100
AcDbCircle
 10
114.7319210585
 20
111.1887922513
 30
0.0
 40
5.953125000000013
100
AcDbArc
 50
302.8709650731
 51
329.8439537415
  0
ARC
  5
E5
330
1F
100
AcDbEntity
  8
0
  6
Continuous
 62
     7
370
    15
100
AcDbCircle
 10
139.7319210585
 20
111.1887922513
 30
0.0
 40
5.953125000000017
100
AcDbArc
 50
210.1560462585
 51
237.1290349269
  0
LINE
  5
E6
330
1F
100
AcDbEntity
  8
0
  6
Continuous
 62
     7
370
    15
100
AcDbLine
 10
133.396651892
 20
106.1887922513
 30
0.0
 11
136.5008690215
 21
106.1887922513
 31
0.0
  0
ARC
  5
E7
330
1F
100
AcDbEntity
  8
0
  6
Continuous
 62
     7
370
    15
100
AcDbCircle
 10
127.2319210585
 20
111.1887922513
 30
0.0
 40
7.937500000000014
100
AcDbArc
 50
320.9556865309
 51
337.8663973641
  0
LINE
  5
E8
330
1F
100
AcDbEntity
  8
0
  6
Continuous
 62
     7
370
    15
100
AcDbLine
 10
144.7319210585
 20
106.1887922513
 30
0.0
 11
144.7319210585
 21
107.9577402143
 31
0.0
  0
LINE
  5
E9
330
1F
100
AcDbEntity
  8
0
  6
Continuous
 62
     7
370
    15
100
AcDbLine
 10
142.9629730954
 20
106.1887922513
 30
0.0
 11
144.7319210585
 21
106.1887922513
 31
0.0
  0
ARC
  5
EA
330
1F
100
AcDbEntity
  8
0
  6
Continuous
 62
     7
370
    15
100
AcDbCircle
 10
139.7319210585
 20
111.1887922513
 30
0.0
 40
5.953125000000001
100
AcDbArc
 50
302.8709650731
 51
327.1290349269
  0
ARC
  5
EB
330
1F
100
AcDbEntity
  8
0
  6
Continuous
 62
     7
370
    15
100
AcDbCircle
 10
114.7319210585
 20
111.1887922513
 30
0.0
 40
5.953124999999989
100
AcDbArc
 50
212.8709650731
 51
237.1290349269
  0
LINE
  5
EC
330
1F
100
AcDbEntity
  8
0
  6
Continuous
 62
     7
370
    15
100
AcDbLine
 10
109.7319210585
 20
106.1887922513
 30
0.0
 11
111.5008690215
 21
106.1887922513
 31
0.0
  0
LINE
  5
ED
330
1F
100
AcDbEntity
  8
0
  6
Continuous
 62
     7
370
    15
100
AcDbLine
 10
109.7319210585
 20
107.9577402143
 30
0.0
 11
109.7319210585
 21
106.1887922513
 31
0.0
  0
LINE
  5
EE
330
1F
100
AcDbEntity
  8
0
  6
Continuous
 62
     7
370
    15
100
AcDbLine
 10
144.7319210585
 20
156.1887922513
 30
0.0
 11
109.7319210585
 21
156.1887922513
 31
0.0
  0
LINE
  5
EF
330
1F
100
AcDbEntity
  8
0
  6
Continuous
 62
     7
370
    15
100
AcDbLine
 10
109.7319210585
 20
156.1887922513
 30
0.0
 11
109.7319210585
 21
161.1887922513
 31
0.0
  0
LINE
  5
F0
330
1F
100
AcDbEntity
  8
0
  6
Continuous
 62
     7
370
    15
100
AcDbLine
 10
109.7319210585
 20
161.1887922513
 30
0.0
 11
144.7319210585
 21
161.1887922513
 31
0.0
  0
LINE
  5
F1
330
1F
100
AcDbEntity
  8
0
  6
Continuous
 62
     7
370
    15
100
AcDbLine
 10
144.7319210585
 20
161.1887922513
 30
0.0
 11
144.7319210585
 21
156.1887922513
 31
0.0
  0
LINE
  5
F2
330
1F
100
AcDbEntity
  8
0
  6
Continuous
 62
     7
370
    15
100
AcDbLine
 10
149.7319210585
 20
156.1887922513
 30
0.0
 11
144.7319210585
 21
156.1887922513
 31
0.0
  0
ARC
  5
F3
330
1F
100
AcDbEntity
  8
0
  6
Continuous
 62
     7
370
    15
100
AcDbCircle
 10
144.7319210585
 20
156.1887922513
 30
0.0
 40
5.0
100
AcDbArc
 50
0.0
 51
90.0
  0
LINE
  5
F4
330
1F
100
AcDbEntity
  8
0
  6
Continuous
 62
     7
370
    15
100
AcDbLine
 10
109.7319210585
 20
156.1887922513
 30
0.0
 11
104.7319210585
 21
156.1887922513
 31
0.0
  0
ARC
  5
F5
330
1F
100
AcDbEntity
  8
0
  6
Continuous
 62
     7
370
    15
100
AcDbCircle
 10
109.7319210585
 20
156.1887922513
 30
0.0
 40
5.0
100
AcDbArc
 50
90.0
 51
180.0
  0
LINE
  5
F6
330
1F
100
AcDbEntity
  8
0
  6
Continuous
 62
     7
370
    15
100
AcDbLine
 10
144.7319210585
 20
114.4198442883
 30
0.0
 11
144.7319210585
 21
156.1887922513
 31
0.0
  0
LINE
  5
F7
330
1F
100
AcDbEntity
  8
0
  6
Continuous
 62
     7
370
    15
100
AcDbLine
 10
149.7319210585
 20
156.1887922513
 30
0.0
 11
149.7319210585
 21
106.1887922513
 31
0.0
  0
LINE
  5
F8
330
1F
100
AcDbEntity
  8
0
  6
Continuous
 62
     7
370
    15
100
AcDbLine
 10
149.7319210585
 20
106.1887922513
 30
0.0
 11
144.7319210585
 21
106.1887922513
 31
0.0
  0
SPLINE
  5
F9
330
1F
100
AcDbEntity
  8
0
  6
Continuous
 62
     7
370
    15
100
AcDbSpline
210
0.0
220
0.0
230
1.0
 70
     8
 71
     3
 72
    14
 73
    10
 74
     0
 42
0.00000001
 43
0.00000001
 40
0.0
 40
0.0
 40
0.0
 40
0.0
 40
0.2500000000000004
 40
0.2500000000000004
 40
0.5000000000000009
 40
0.5000000000000009
 40
0.7500000000000004
 40
0.7500000000000004
 40
1.0
 40
1.0
 40
1.0
 40
1.0
 10
144.7319210584508
 20
107.9577402143402
 30
0.0
 10
145.0437814014632
 20
108.4403389769782
 30
0.0
 10
145.2793220578961
 20
108.9548046242185
 30
0.0
 10
145.6023663940127
 20
110.0476392690897
 30
0.0
 10
145.684551472613
 20
110.6161611417944
 30
0.0
 10
145.685536162985
 20
111.7510932581228
 30
0.0
 10
145.6030109524127
 20
112.3247738310078
 30
0.0
 10
145.2836807936956
 20
113.4109791324059
 30
0.0
 10
145.0436611002619
 20
113.9374316897821
 30
0.0
 10
144.7319210584508
 20
114.4198442882854
 30
0.0
  0
ARC
  5
FA
330
1F
100
AcDbEntity
  8
0
  6
Continuous
 62
     7
370
    15
100
AcDbCircle
 10
114.7319210585
 20
111.1887922513
 30
0.0
 40
5.953124999999995
100
AcDbArc
 50
30.1560462585
 51
147.1290349269
  0
LINE
  5
FB
330
1F
100
AcDbEntity
  8
0
  6
Continuous
 62
     7
370
    15
100
AcDbLine
 10
109.7319210585
 20
156.1887922513
 30
0.0
 11
109.7319210585
 21
114.4198442883
 31
0.0
  0
ARC
  5
FC
330
1F
100
AcDbEntity
  8
0
  6
Continuous
 62
     7
370
    15
100
AcDbCircle
 10
139.7319210585
 20
111.1887922513
 30
0.0
 40
5.953124999999989
100
AcDbArc
 50
32.8709650731
 51
149.8439537415
  0
ARC
  5
FD
330
1F
100
AcDbEntity
  8
0
  6
Continuous
 62
     7
370
    15
100
AcDbCircle
 10
127.2319210585
 20
111.1887922513
 30
0.0
 40
7.937500000000002
100
AcDbArc
 50
22.1336026359
 51
157.8663973641
  0
SPLINE
  5
FE
330
1F
100
AcDbEntity
  8
0
  6
Continuous
 62
     7
370
    15
100
AcDbSpline
210
0.0
220
0.0
230
1.0
 70
     8
 71
     3
 72
    14
 73
    10
 74
     0
 42
0.00000001
 43
0.00000001
 40
0.0
 40
0.0
 40
0.0
 40
0.0
 40
0.25
 40
0.25
 40
0.5
 40
0.5
 40
0.75
 40
0.75
 40
1.0
 40
1.0
 40
1.0
 40
1.0
 10
109.7319210584508
 20
114.4198442882854
 30
0.0
 10
109.4200607154384
 20
113.9372455256474
 30
0.0
 10
109.1845200590055
 20
113.4227798784071
 30
0.0
 10
108.8614757228889
 20
112.3299452335359
 30
0.0
 10
108.7792906442886
 20
111.7614233608312
 30
0.0
 10
108.7783059539166
 20
110.6264912445028
 30
0.0
 10
108.8608311644889
 20
110.0528106716179
 30
0.0
 10
109.180161323206
 20
108.9666053702198
 30
0.0
 10
109.4201810166397
 20
108.4401528128436
 30
0.0
 10
109.7319210584508
 20
107.9577402143402
 30
0.0
  0
LINE
  5
FF
330
1F
100
AcDbEntity
  8
0
  6
Continuous
 62
     7
370
    15
100
AcDbLine
 10
109.7319210585
 20
106.1887922513
 30
0.0
 11
104.7319210585
 21
106.1887922513
 31
0.0
  0
LINE
  5
100
330
1F
100
AcDbEntity
  8
0
  6
Continuous
 62
     7
370
    15
100
AcDbLine
 10
104.7319210585
 20
106.1887922513
 30
0.0
 11
104.7319210585
 21
156.1887922513
 31
0.0
  0
LINE
  5
101
330
1F
100
AcDbEntity
  8
0
  6
Continuous
 62
     7
370
    15
100
AcDbLine
 10
144.7319210585
 20
101.1887922513
 30
0.0
 11
144.7319210585
 21
106.1887922513
 31
0.0
  0
ARC
  5
102
330
1F
100
AcDbEntity
  8
0
  6
Continuous
 62
     7
370
    15
100
AcDbCircle
 10
144.7319210585
 20
106.1887922513
 30
0.0
 40
5.0
100
AcDbArc
 50
270.0
 51
0.0
  0
LINE
  5
103
330
1F
100
AcDbEntity
  8
0
  6
Continuous
 62
     7
370
    15
100
AcDbLine
 10
109.7319210585
 20
106.1887922513
 30
0.0
 11
109.7319210585
 21
101.1887922513
 31
0.0
  0
ARC
  5
104
330
1F
100
AcDbEntity
  8
0
  6
Continuous
 62
     7
370
    15
100
AcDbCircle
 10
109.7319210585
 20
106.1887922513
 30
0.0
 40
5.0
100
AcDbArc
 50
180.0
 51
270.0
  0
SPLINE
  5
105
330
1F
100
AcDbEntity
  8
0
  6
Continuous
 62
     7
370
    15
100
AcDbSpline
210
0.0
220
0.0
230
1.0
 70
     8
 71
     3
 72
    14
 73
    10
 74
     0
 42
0.00000001
 43
0.00000001
 40
0.0
 40
0.0
 40
0.0
 40
0.0
 40
0.25
 40
0.25
 40
0.5
 40
0.5
 40
0.75
 40
0.75
 40
1.0
 40
1.0
 40
1.0
 40
1.0
 10
136.5008690214782
 20
106.1887922513128
 30
0.0
 10
136.9834677841162
 20
105.8769319083004
 30
0.0
 10
137.4979334313565
 20
105.6413912518676
 30
0.0
 10
138.5907680762277
 20
105.318346915751
 30
0.0
 10
139.1592899489324
 20
105.2361618371506
 30
0.0
 10
140.2942220652608
 20
105.2351771467786
 30
0.0
 10
140.8679026381458
 20
105.3177023573509
 30
0.0
 10
141.9541079395438
 20
105.637032516068
 30
0.0
 10
142.48056049692
 20
105.8770522095017
 30
0.0
 10
142.9629730954234
 20
106.1887922513128
 30
0.0
  0
LINE
  5
106
330
1F
100
AcDbEntity
  8
0
  6
Continuous
 62
     7
370
    15
100
AcDbLine
 10
144.7319210585
 20
101.1887922513
 30
0.0
 11
109.7319210585
 21
101.1887922513
 31
0.0
  0
SPLINE
  5
107
330
1F
100
AcDbEntity
  8
0
  6
Continuous
 62
     7
370
    15
100
AcDbSpline
210
0.0
220
0.0
230
1.0
 70
     8
 71
     3
 72
    14
 73
    10
 74
     0
 42
0.00000001
 43
0.00000001
 40
0.0
 40
0.0
 40
0.0
 40
0.0
 40
0.25
 40
0.25
 40
0.5
 40
0.5
 40
0.75
 40
0.75
 40
1.0
 40
1.0
 40
1.0
 40
1.0
 10
111.5008690214782
 20
106.1887922513128
 30
0.0
 10
111.9834677841162
 20
105.8769319083004
 30
0.0
 10
112.4979334313565
 20
105.6413912518676
 30
0.0
 10
113.5907680762277
 20
105.318346915751
 30
0.0
 10
114.1592899489324
 20
105.2361618371506
 30
0.0
 10
115.2942220652608
 20
105.2351771467786
 30
0.0
 10
115.8679026381458
 20
105.3177023573509
 30
0.0
 10
116.9541079395438
 20
105.637032516068
 30
0.0
 10
117.4805604969201
 20
105.8770522095017
 30
0.0
 10
117.9629730954234
 20
106.1887922513128
 30
0.0
  0
SPLINE
  5
108
330
1F
100
AcDbEntity
  8
0
  6
Continuous
 62
     7
370
    15
100
AcDbSpline
210
0.0
220
0.0
230
1.0
 70
     8
 71
     3
 72
    22
 73
    18
 74
     0
 42
0.00000001
 43
0.00000001
 40
0.0
 40
0.0
 40
0.0
 40
0.0
 40
0.1249999999999999
 40
0.1249999999999999
 40
0.2499999999999999
 40
0.2499999999999999
 40
0.3749999999999999
 40
0.3749999999999999
 40
0.4999999999999999
 40
0.4999999999999999
 40
0.6249999999999999
 40
0.6249999999999999
 40
0.7499999999999999
 40
0.7499999999999999
 40
0.8749999999999999
 40
0.8749999999999999
 40
1.0
 40
1.0
 40
1.0
 40
1.0
 10
121.0671902249107
 20
106.1887922513128
 30
0.0
 10
121.4464242061086
 20
105.7212171679095
 30
0.0
 10
121.8663782494312
 20
105.310288348346
 30
0.0
 10
122.7857852423055
 20
104.5874488973425
 30
0.0
 10
123.2890321728344
 20
104.2753467563718
 30
0.0
 10
124.3387620620029
 20
103.7744998105529
 30
0.0
 10
124.8968858809773
 20
103.5797242148819
 30
0.0
 10
126.0446600543757
 20
103.3185497536971
 30
0.0
 10
126.6308149095067
 20
103.2513377562918
 30
0.0
 10
127.8318248357936
 20
103.2512467918677
 30
0.0
 10
128.4187528088331
 20
103.318509378131
 30
0.0
 10
129.5659161344647
 20
103.5794303140176
 30
0.0
 10
130.1244701575107
 20
103.7742664655283
 30
0.0
 10
131.1741385771554
 20
104.2749688551192
 30
0.0
 10
131.6773069334677
 20
104.5869073054751
 30
0.0
 10
132.5974091749809
 20
105.3101973777691
 30
0.0
 10
133.017478061797
 20
105.7212913308593
 30
0.0
 10
133.3966518919909
 20
106.1887922513128
 30
0.0
  0
CIRCLE
  5
109
330
1F
100
AcDbEntity
  8
0
  6
Continuous
 62
     7
370
    15
100
AcDbCircle
 10
127.2319210585
 20
111.1887922513
 30
0.0
 40
4.444999999999993
  0
ARC
  5
10A
330
1F
100
AcDbEntity
  8
0
  6
Continuous
 62
     7
370
    15
100
AcDbCircle
 10
114.7319210585
 20
111.1887922513
 30
0.0
 40
5.953125000000002
100
AcDbArc
 50
329.8439537415
 51
30.1560462585
  0
ARC
  5
10B
330
1F
100
AcDbEntity
  8
0
  6
Continuous
 62
     7
370
    15
100
AcDbCircle
 10
139.7319210585
 20
111.1887922513
 30
0.0
 40
5.953124999999995
100
AcDbArc
 50
149.8439537415
 51
210.1560462585
  0
DIMENSION
  5
10C
330
1F
100
AcDbEntity
  8
FORMAT
100
AcDbDimension
  2
*D7
 10
149.7319210585
 20
164.4884154689
 30
0.0
 11
137.1860917939
 21
164.4884154689
 31
0.0
 70
   160
  1
(<>)
 71
     2
 42
-1.0
  3
SLDDIMSTYLE2
100
AcDbAlignedDimension
 13
104.7319210585
 23
156.1887922513
 33
0.0
 14
149.7319210585
 24
156.1887922513
 34
0.0
100
AcDbRotatedDimension
  0
DIMENSION
  5
119
330
1F
100
AcDbEntity
  8
FORMAT
100
AcDbDimension
  2
*D8
 10
98.5186596918
 20
101.1887922513
 30
0.0
 11
98.5186596918
 21
132.5077380485
 31
0.0
 70
   160
  1
(<>)
 71
     2
 42
-1.0
  3
SLDDIMSTYLE2
100
AcDbAlignedDimension
 13
109.7319210585
 23
161.1887922513
 33
0.0
 14
109.7319210585
 24
101.1887922513
 34
0.0
 50
90.0
100
AcDbRotatedDimension
  0
DIMENSION
  5
125
330
1F
100
AcDbEntity
  8
FORMAT
100
AcDbDimension
  2
*D9
 10
114.7319210585
 20
111.1887922513
 30
0.0
 11
64.0981276593
 21
65.5900704267
 31
0.0
 70
   164
  1
<> x %%c 2.38 {\fGDT;x} 10\P
 71
     1
 42
-1.0
  3
SLDDIMSTYLE3
100
AcDbRadialDimension
 15
113.1916327201
 25
105.4383827789
 35
0.0
 40
0.0
  0
DIMENSION
  5
13E
330
1F
100
AcDbEntity
  8
FORMAT
100
AcDbDimension
  2
*D11
 10
126.0790108902
 20
115.4920262845
 30
0.0
 11
183.0526826638
 21
71.3459804631
 31
0.0
 70
   163
  1
<> THRU ALL\P{\fGDT;v}%%c 3.18 {\fGDT;x} 1.52\P
 71
     1
 42
-1.0
  3
SLDDIMSTYLE4
100
AcDbDiametricDimension
 15
128.3822433251
 25
106.8952175538
 35
0.0
 40
0.0
  0
LINE
  5
159
330
1F
100
AcDbEntity
  8
0
  6
HIDDEN
 62
     7
370
     0
100
AcDbLine
 10
127.2319210585
 20
78.303418893
 30
0.0
 11
127.2319210585
 21
184.487332589
 31
0.0
  0
LINE
  5
15A
330
1F
100
AcDbEntity
  8
0
  6
Continuous
 62
     7
370
     0
100
AcDbLine
 10
115.2319210585
 20
80.303418893
 30
0.0
 11
127.2319210585
 21
80.303418893
 31
0.0
  0
INSERT
  5
15B
330
1F
100
AcDbEntity
  8
0
  6
Continuous
 62
     7
370
     0
100
AcDbBlockReference
  2
_CLOSED
 10
127.2319210585
 20
80.303418893
 30
0.0
 41
6.0
 42
6.0
 50
360.0
  0
LINE
  5
15C
330
1F
100
AcDbEntity
  8
0
  6
Continuous
 62
     7
370
     0
100
AcDbLine
 10
115.2319210585
 20
182.487332589
 30
0.0
 11
127.2319210585
 21
182.487332589
 31
0.0
  0
INSERT
  5
15D
330
1F
100
AcDbEntity
  8
0
  6
Continuous
 62
     7
370
     0
100
AcDbBlockReference
  2
_CLOSED
 10
127.2319210585
 20
182.487332589
 30
0.0
 41
6.0
 42
6.0
 50
360.0
  0
MTEXT
  5
15E
330
1F
100
AcDbEntity
  8
0
  6
Continuous
 62
     7
100
AcDbMText
 10
115.2319210585
 20
90.3888439571
 30
0.0
 40
6.35
 41
0.0
 71
     1
 72
     1
  1
A
  7
SLDTEXTSTYLE0
 73
     1
 44
1.0
  0
MTEXT
  5
15F
330
1F
100
AcDbEntity
  8
0
  6
Continuous
 62
     7
100
AcDbMText
 10
115.2319210585
 20
192.5727576531
 30
0.0
 40
6.35
 41
0.0
 71
     1
 72
     1
  1
A
  7
SLDTEXTSTYLE0
 73
     1
 44
1.0
  0
LINE
  5
160
330
1F
100
AcDbEntity
  8
0
  6
Continuous
 62
     7
370
    15
100
AcDbLine
 10
49.0105039902
 20
155.9387922513
 30
0.0
 11
49.0105039902
 21
161.1887922513
 31
0.0
  0
LINE
  5
161
330
1F
100
AcDbEntity
  8
0
  6
Continuous
 62
     7
370
    15
100
AcDbLine
 10
54.8855039902
 20
161.1887922513
 30
0.0
 11
49.0105039902
 21
161.1887922513
 31
0.0
  0
ARC
  5
162
330
1F
100
AcDbEntity
  8
0
  6
Continuous
 62
     7
370
    15
100
AcDbCircle
 10
54.8855039902
 20
156.1887922513
 30
0.0
 40
5.000000000000007
100
AcDbArc
 50
0.0
 51
90.0
  0
LINE
  5
163
330
1F
100
AcDbEntity
  8
0
  6
Continuous
 62
     7
370
    15
100
AcDbLine
 10
59.8855039902
 20
119.1262922513
 30
0.0
 11
59.8855039902
 21
156.1887922513
 31
0.0
  0
LINE
  5
164
330
1F
100
AcDbEntity
  8
0
  6
Continuous
 62
     7
370
    15
100
AcDbLine
 10
52.2655039902
 20
119.1262922513
 30
0.0
 11
59.8855039902
 21
119.1262922513
 31
0.0
  0
LINE
  5
165
330
1F
100
AcDbEntity
  8
0
  6
Continuous
 62
     7
370
    15
100
AcDbLine
 10
52.2655039902
 20
115.6337922513
 30
0.0
 11
52.2655039902
 21
119.1262922513
 31
0.0
  0
LINE
  5
166
330
1F
100
AcDbEntity
  8
0
  6
Continuous
 62
     7
370
    15
100
AcDbLine
 10
49.0105039902
 20
115.6337922513
 30
0.0
 11
52.2655039902
 21
115.6337922513
 31
0.0
  0
LINE
  5
167
330
1F
100
AcDbEntity
  8
0
  6
Continuous
 62
     7
370
    15
100
AcDbLine
 10
49.0105039902
 20
115.6337922513
 30
0.0
 11
49.0105039902
 21
121.4387922513
 31
0.0
  0
LINE
  5
168
330
1F
100
AcDbEntity
  8
0
  6
Continuous
 62
     7
370
    15
100
AcDbLine
 10
49.0105039902
 20
155.9387922513
 30
0.0
 11
44.0105039902
 21
155.9387922513
 31
0.0
  0
LINE
  5
169
330
1F
100
AcDbEntity
  8
0
  6
Continuous
 62
     7
370
    15
100
AcDbLine
 10
44.0105039902
 20
121.4387922513
 30
0.0
 11
49.0105039902
 21
121.4387922513
 31
0.0
  0
LINE
  5
16A
330
1F
100
AcDbEntity
  8
0
  6
Continuous
 62
     7
370
    15
100
AcDbLine
 10
44.0105039902
 20
155.9387922513
 30
0.0
 11
44.0105039902
 21
121.4387922513
 31
0.0
  0
LINE
  5
16B
330
1F
100
AcDbEntity
  8
0
  6
Continuous
 62
     7
370
    15
100
AcDbLine
 10
49.0105039902
 20
115.6337922513
 30
0.0
 11
49.0105039902
 21
106.7437922513
 31
0.0
  0
LINE
  5
16C
330
1F
100
AcDbEntity
  8
0
  6
Continuous
 62
     7
370
    15
100
AcDbLine
 10
52.2655039902
 20
106.7437922513
 30
0.0
 11
52.2655039902
 21
115.6337922513
 31
0.0
  0
LINE
  5
16D
330
1F
100
AcDbEntity
  8
0
  6
Continuous
 62
     7
370
    15
100
AcDbLine
 10
52.2655039902
 20
106.7437922513
 30
0.0
 11
49.0105039902
 21
106.7437922513
 31
0.0
  0
LINE
  5
16E
330
1F
100
AcDbEntity
  8
0
  6
Continuous
 62
     7
370
    15
100
AcDbLine
 10
58.9316248177
 20
103.2512922513
 30
0.0
 11
52.2655039902
 21
103.2512922513
 31
0.0
  0
ARC
  5
16F
330
1F
100
AcDbEntity
  8
0
  6
Continuous
 62
     7
370
    15
100
AcDbCircle
 10
54.8855039902
 20
106.1887922513
 30
0.0
 40
5.000000000000012
100
AcDbArc
 50
270.0
 51
324.0201994025
  0
LINE
  5
170
330
1F
100
AcDbEntity
  8
0
  6
Continuous
 62
     7
370
    15
100
AcDbLine
 10
52.2655039902
 20
103.2512922513
 30
0.0
 11
52.2655039902
 21
106.7437922513
 31
0.0
  0
LINE
  5
171
330
1F
100
AcDbEntity
  8
0
  6
Continuous
 62
     7
370
    15
100
AcDbLine
 10
49.0105039902
 20
101.1887922513
 30
0.0
 11
54.8855039902
 21
101.1887922513
 31
0.0
  0
LINE
  5
172
330
1F
100
AcDbEntity
  8
0
  6
Continuous
 62
     7
370
    15
100
AcDbLine
 10
49.0105039902
 20
101.1887922513
 30
0.0
 11
49.0105039902
 21
106.7437922513
 31
0.0
  0
LINE
  5
173
330
1F
100
AcDbEntity
  8
0
  6
Continuous
 62
     7
370
    15
100
AcDbLine
 10
59.8855039902
 20
108.198199539
 30
0.0
 11
52.2655039902
 21
108.198199539
 31
0.0
  0
LINE
  5
174
330
1F
100
AcDbEntity
  8
0
  6
Continuous
 62
     7
370
    15
100
AcDbLine
 10
59.8855039902
 20
106.1887922513
 30
0.0
 11
59.8855039902
 21
108.198199539
 31
0.0
  0
SPLINE
  5
175
330
1F
100
AcDbEntity
  8
0
  6
Continuous
 62
     7
370
    15
100
AcDbSpline
210
0.0
220
0.0
230
1.0
 70
     8
 71
     3
 72
    14
 73
    10
 74
     0
 42
0.00000001
 43
0.00000001
 40
0.0
 40
0.0
 40
0.0
 40
0.0
 40
0.25
 40
0.25
 40
0.5
 40
0.5
 40
0.75
 40
0.75
 40
1.0
 40
1.0
 40
1.0
 40
1.0
 10
58.93162481765759
 20
103.2512922513128
 30
0.0
 10
58.93162481765759
 20
103.2512922513128
 30
0.0
 10
58.98260629466559
 20
103.3185861122999
 30
0.0
 10
59.153546037388
 20
103.5795495149742
 30
0.0
 10
59.27273543456811
 20
103.7743933704215
 30
0.0
 10
59.51312490380309
 20
104.2750925929265
 30
0.0
 10
59.63667942076009
 20
104.5870195847014
 30
0.0
 10
59.82185238713369
 20
105.310266126733
 30
0.0
 10
59.88550399024763
 20
105.7213303331283
 30
0.0
 10
59.88550399024763
 20
106.1887922513128
 30
0.0
  0
LINE
  5
176
330
1F
100
AcDbEntity
  8
0
  6
Continuous
 62
     7
370
    15
100
AcDbLine
 10
59.8855039902
 20
114.1793849636
 30
0.0
 11
59.8855039902
 21
119.1262922513
 31
0.0
  0
LINE
  5
177
330
1F
100
AcDbEntity
  8
0
  6
Continuous
 62
     7
370
    15
100
AcDbLine
 10
52.2655039902
 20
114.1793849636
 30
0.0
 11
59.8855039902
 21
114.1793849636
 31
0.0
  0
SPLINE
  5
178
330
1F
100
AcDbEntity
  8
0
  6
Continuous
 62
     7
370
    15
100
AcDbSpline
210
0.0
220
0.0
230
1.0
 70
     8
 71
     3
 72
    14
 73
    10
 74
     0
 42
0.00000001
 43
0.00000001
 40
0.0
 40
0.0
 40
0.0
 40
0.0
 40
0.1156117095000219
 40
0.2746579510793977
 40
0.4336737615581372
 40
0.5926774942496351
 40
0.7502462791231284
 40
0.9078265709269454
 40
0.9999999999999999
 40
0.9999999999999999
 40
0.9999999999999999
 40
0.9999999999999999
 10
59.87958018851401
 20
108.198199539037
 30
0.0
 10
59.87547962956593
 20
108.4086705120706
 30
0.0
 10
59.86573795959298
 20
108.9086849696468
 30
0.0
 10
59.81934732422857
 20
109.7800267865806
 30
0.0
 10
59.79296088738348
 20
110.7688324167685
 30
0.0
 10
59.7936089301859
 20
111.770213055796
 30
0.0
 10
59.82773854074307
 20
112.7476694982524
 30
0.0
 10
59.86877057690189
 20
113.5598438403995
 30
0.0
 10
59.87702965971265
 20
114.012375032425
 30
0.0
 10
59.88007773435591
 20
114.1793849635887
 30
0.0
  0
HATCH
  5
179
330
1F
100
AcDbEntity
  8
0
  6
Continuous
 62
     7
370
     0
100
AcDbHatch
 10
0.0
 20
0.0
 30
0.0
210
0.0
220
0.0
230
1.0
  2
ANSI31
 70
     0
 71
     0
 91
        1
 92
        0
 93
       11
 72
     1
 10
44.01050399024763
 20
155.9387922513128
 11
44.01050399024763
 21
121.4387922513128
 72
     1
 10
44.01050399024763
 20
121.4387922513128
 11
49.01050399024763
 21
121.4387922513128
 72
     1
 10
49.01050399024763
 20
121.4387922513128
 11
49.01050399024763
 21
115.6337922513128
 72
     1
 10
49.01050399024763
 20
115.6337922513128
 11
52.26550399024762
 21
115.6337922513128
 72
     1
 10
52.26550399024762
 20
115.6337922513128
 11
52.26550399024762
 21
119.1262922513128
 72
     1
 10
52.26550399024762
 20
119.1262922513128
 11
59.88550399024763
 21
119.1262922513128
 72
     1
 10
59.88550399024763
 20
119.1262922513128
 11
59.88550399024763
 21
156.1887922513128
 72
     2
 10
54.88550399024763
 20
156.1887922513128
 40
5.0
 50
0.0
 51
90.0
 73
     1
 72
     1
 10
54.88550399024763
 20
161.1887922513128
 11
49.01050399024763
 21
161.1887922513128
 72
     1
 10
49.01050399024763
 20
161.1887922513128
 11
49.01050399024763
 21
155.9387922513128
 72
     1
 10
49.01050399024763
 20
155.9387922513128
 11
44.01050399024763
 21
155.9387922513128
 97
        0
 75
     0
 76
     1
 52
0.0
 41
1.0
 77
     0
 78
     1
 53
45.0
 43
0.0
 44
0.0
 45
-2.245064030267288
 46
2.245064030267288
 79
     0
 98
        1
 10
0.0
 20
0.0
  0
HATCH
  5
17A
330
1F
100
AcDbEntity
  8
0
  6
Continuous
 62
     7
370
     0
100
AcDbHatch
 10
0.0
 20
0.0
 30
0.0
210
0.0
220
0.0
230
1.0
  2
ANSI31
 70
     0
 71
     0
 91
        1
 92
        0
 93
        6
 72
     1
 10
52.26550399024762
 20
103.2512922513128
 11
52.26550399024762
 21
106.7437922513128
 72
     1
 10
52.26550399024762
 20
106.7437922513128
 11
49.01050399024763
 21
106.7437922513128
 72
     1
 10
49.01050399024763
 20
106.7437922513128
 11
49.01050399024763
 21
101.1887922513128
 72
     1
 10
49.01050399024763
 20
101.1887922513128
 11
54.88550399024763
 21
101.1887922513128
 72
     2
 10
54.88550399024763
 20
106.1887922513128
 40
5.0
 50
270.0000000000008
 51
324.0201994025268
 73
     1
 72
     1
 10
58.93162481765751
 20
103.2512922513128
 11
52.26550399024762
 21
103.2512922513128
 97
        0
 75
     0
 76
     1
 52
0.0
 41
1.0
 77
     0
 78
     1
 53
45.0
 43
0.0
 44
0.0
 45
-2.245064030267288
 46
2.245064030267288
 79
     0
 98
        1
 10
0.0
 20
0.0
  0
DIMENSION
  5
17B
330
1F
100
AcDbEntity
  8
FORMAT
100
AcDbDimension
  2
*D13
 10
44.0105039902
 20
167.057843593
 30
0.0
 11
22.0105039902
 21
167.057843593
 31
0.0
 70
   160
  1
(<>)
 71
     2
 42
-1.0
  3
SLDDIMSTYLE5
100
AcDbAlignedDimension
 13
49.0105039902
 23
155.9387922513
 33
0.0
 14
44.0105039902
 24
155.9387922513
 34
0.0
100
AcDbRotatedDimension
  0
DIMENSION
  5
18A
330
1F
100
AcDbEntity
  8
FORMAT
100
AcDbDimension
  2
*D14
 10
59.8855039902
 20
188.9637922513
 30
0.0
 11
51.9480039902
 21
188.9637922513
 31
0.0
 70
   160
  1
(<>)
 71
     2
 42
-1.0
  3
SLDDIMSTYLE5
100
AcDbAlignedDimension
 13
44.0105039902
 23
155.9387922513
 33
0.0
 14
59.8855039902
 24
156.1887922513
 34
0.0
100
AcDbRotatedDimension
  0
DIMENSION
  5
198
330
1F
100
AcDbEntity
  8
FORMAT
100
AcDbDimension
  2
*D15
 10
59.8855039902
 20
177.1887922513
 30
0.0
 11
81.8855039902
 21
177.1887922513
 31
0.0
 70
   160
  1
(<>)
 71
     2
 42
-1.0
  3
SLDDIMSTYLE5
100
AcDbAlignedDimension
 13
49.0105039902
 23
161.1887922513
 33
0.0
 14
59.8855039902
 24
156.1887922513
 34
0.0
100
AcDbRotatedDimension
  0
DIMENSION
  5
1A6
330
1F
100
AcDbEntity
  8
FORMAT
100
AcDbDimension
  2
*D16
 10
52.2655039902
 20
95.5591884075
 30
0.0
 11
75.8855039902
 21
95.5591884075
 31
0.0
 70
   160
  1
(<>)
 71
     2
 42
-1.0
  3
SLDDIMSTYLE5
100
AcDbAlignedDimension
 13
49.0105039902
 23
115.6337922513
 33
0.0
 14
52.2655039902
 24
115.6337922513
 34
0.0
 50
0.0
100
AcDbRotatedDimension
  0
MTEXT
  5
1B4
330
1F
100
AcDbEntity
  8
FORMAT
100
AcDbMText
 10
25.7189744689
 20
91.9884697145
 30
0.0
 40
6.35
 41
0.0
 71
     1
 72
     1
  1
SECTION A-A
  7
SLDTEXTSTYLE0
 73
     1
 44
1.0
  0
ENDSEC
  0
SECTION
  2
OBJECTS
  0
DICTIONARY
  5
C
330
0
100
AcDbDictionary
281
     1
  3
ACAD_GROUP
350
D
  3
ACAD_LAYOUT
350
1A
  3
ACAD_MLEADERSTYLE
350
1B6
  3
ACAD_MLINESTYLE
350
17
  3
ACAD_PLOTSETTINGS
350
19
  3
ACAD_PLOTSTYLENAME
350
E
  3
ACAD_TABLESTYLE
350
1B5
  3
ACAD_VISUALSTYLE
350
2A
  3
AcDbVariableDictionary
350
1B7
  0
DICTIONARY
  5
D
102
{ACAD_REACTORS
330
C
102
}
330
C
100
AcDbDictionary
281
     1
  0
DICTIONARY
  5
1A
102
{ACAD_REACTORS
330
C
102
}
330
C
100
AcDbDictionary
281
     1
  3
Layout1
350
1E
  3
Layout2
350
26
  3
Model
350
22
  0
DICTIONARY
  5
1B6
102
{ACAD_REACTORS
330
C
102
}
330
C
100
AcDbDictionary
281
     1
  0
DICTIONARY
  5
17
102
{ACAD_REACTORS
330
C
102
}
330
C
100
AcDbDictionary
281
     1
  3
Standard
350
18
  0
DICTIONARY
  5
19
102
{ACAD_REACTORS
330
C
102
}
330
C
100
AcDbDictionary
281
     1
  0
ACDBDICTIONARYWDFLT
  5
E
102
{ACAD_REACTORS
330
C
102
}
330
C
100
AcDbDictionary
281
     1
  3
Normal
350
F
100
AcDbDictionaryWithDefault
340
F
  0
DICTIONARY
  5
1B5
102
{ACAD_REACTORS
330
C
102
}
330
C
100
AcDbDictionary
281
     1
  0
DICTIONARY
  5
2A
102
{ACAD_REACTORS
330
C
102
}
330
C
100
AcDbDictionary
281
     1
  3
2dWireframe
350
2F
  3
3D Hidden
350
31
  3
3dWireframe
350
30
  3
Basic
350
32
  3
Brighten
350
36
  3
ColorChange
350
3A
  3
Conceptual
350
34
  3
Dim
350
35
  3
Facepattern
350
39
  3
Flat
350
2B
  3
FlatWithEdges
350
2C
  3
Gouraud
350
2D
  3
GouraudWithEdges
350
2E
  3
Linepattern
350
38
  3
Realistic
350
33
  3
Thicken
350
37
  0
DICTIONARY
  5
1B7
102
{ACAD_REACTORS
330
C
102
}
330
C
100
AcDbDictionary
281
     1
  3
PSOLHEIGHT
350
1B9
  3
PSOLWIDTH
350
1B8
  0
LAYOUT
  5
1E
102
{ACAD_REACTORS
330
1A
102
}
330
1A
100
AcDbPlotSettings
  1

  2
none_device
  4

  6

 40
0.0
 41
0.0
 42
0.0
 43
0.0
 44
0.0
 45
0.0
 46
0.0
 47
0.0
 48
0.0
 49
0.0
140
0.0
141
0.0
142
1.0
143
1.0
 70
   688
 72
     0
 73
     0
 74
     5
  7

 75
    16
147
1.0
148
0.0
149
0.0
100
AcDbLayout
  1
Layout1
 70
     1
 71
     1
 10
0.0
 20
0.0
 11
420.0
 21
297.0
 12
0.0
 22
0.0
 32
0.0
 14
1.0000000000E+20
 24
1.0000000000E+20
 34
1.0000000000E+20
 15
-1.0000000000E+20
 25
-1.0000000000E+20
 35
-1.0000000000E+20
146
0.0
 13
0.0
 23
0.0
 33
0.0
 16
1.0
 26
0.0
 36
0.0
 17
0.0
 27
1.0
 37
0.0
 76
     0
330
1B
  0
LAYOUT
  5
26
102
{ACAD_REACTORS
330
1A
102
}
330
1A
100
AcDbPlotSettings
  1

  2
none_device
  4

  6

 40
0.0
 41
0.0
 42
0.0
 43
0.0
 44
0.0
 45
0.0
 46
0.0
 47
0.0
 48
0.0
 49
0.0
140
0.0
141
0.0
142
1.0
143
1.0
 70
   688
 72
     0
 73
     0
 74
     5
  7

 75
    16
147
1.0
148
0.0
149
0.0
100
AcDbLayout
  1
Layout2
 70
     1
 71
     2
 10
0.0
 20
0.0
 11
0.0
 21
0.0
 12
0.0
 22
0.0
 32
0.0
 14
0.0
 24
0.0
 34
0.0
 15
0.0
 25
0.0
 35
0.0
146
0.0
 13
0.0
 23
0.0
 33
0.0
 16
1.0
 26
0.0
 36
0.0
 17
0.0
 27
1.0
 37
0.0
 76
     0
330
23
  0
LAYOUT
  5
22
102
{ACAD_REACTORS
330
1A
102
}
330
1A
100
AcDbPlotSettings
  1

  2
none_device
  4

  6

 40
0.0
 41
0.0
 42
0.0
 43
0.0
 44
0.0
 45
0.0
 46
0.0
 47
0.0
 48
0.0
 49
0.0
140
0.0
141
0.0
142
1.0
143
1.0
 70
  1712
 72
     0
 73
     0
 74
     0
  7

 75
     0
147
1.0
148
0.0
149
0.0
100
AcDbLayout
  1
Model
 70
     1
 71
     0
 10
0.0
 20
0.0
 11
279.4
 21
215.9
 12
0.0
 22
0.0
 32
0.0
 14
0.0
 24
0.0
 34
0.0
 15
279.4
 25
215.9
 35
0.0
146
0.0
 13
0.0
 23
0.0
 33
0.0
 16
1.0
 26
0.0
 36
0.0
 17
0.0
 27
1.0
 37
0.0
 76
     0
330
1F
331
29
  0
MLINESTYLE
  5
18
102
{ACAD_REACTORS
330
17
102
}
330
17
100
AcDbMlineStyle
  2
Standard
 70
     0
  3

 62
   256
 51
90.0
 52
90.0
 71
     2
 49
0.5
 62
   256
  6
BYLAYER
 49
-0.5
 62
   256
  6
BYLAYER
  0
ACDBPLACEHOLDER
  5
F
102
{ACAD_REACTORS
330
E
102
}
330
E
  0
VISUALSTYLE
  5
2F
102
{ACAD_REACTORS
330
2A
102
}
330
2A
100
AcDbVisualStyle
  2
2dWireframe
 70
     4
 71
     0
 72
     2
 73
     0
 90
        0
 40
-0.6
 41
-30.0
 62
     5
 63
     7
 74
     1
 91
        4
 64
     7
 65
   257
 75
     1
175
     1
 42
1.0
 92
        0
 66
   257
 43
1.0
 76
     1
 77
     6
 78
     2
 67
     7
 79
     5
170
     0
171
     0
290
     0
174
     0
 93
        1
 44
0.0
173
     0
291
     0
 45
0.0
1001
ACAD
1000
AcDbSavedByObjectVersion
1070
     0
  0
VISUALSTYLE
  5
31
102
{ACAD_REACTORS
330
2A
102
}
330
2A
100
AcDbVisualStyle
  2
3D Hidden
 70
     6
 71
     1
 72
     2
 73
     2
 90
        0
 40
-0.6
 41
-30.0
 62
     5
 63
     7
 74
     2
 91
        2
 64
     7
 65
   257
 75
     2
175
     1
 42
40.0
 92
        0
 66
   257
 43
1.0
 76
     1
 77
     6
 78
     2
 67
     7
 79
     3
170
     0
171
     0
290
     0
174
     0
 93
        1
 44
0.0
173
     0
291
     0
 45
0.0
1001
ACAD
1000
AcDbSavedByObjectVersion
1070
     0
  0
VISUALSTYLE
  5
30
102
{ACAD_REACTORS
330
2A
102
}
330
2A
100
AcDbVisualStyle
  2
3dWireframe
 70
     5
 71
     0
 72
     2
 73
     0
 90
        0
 40
-0.6
 41
-30.0
 62
     5
 63
     7
 74
     1
 91
        4
 64
     7
 65
   257
 75
     1
175
     1
 42
1.0
 92
        0
 66
   257
 43
1.0
 76
     1
 77
     6
 78
     2
 67
     7
 79
     5
170
     0
171
     0
290
     0
174
     0
 93
        1
 44
0.0
173
     0
291
     0
 45
0.0
1001
ACAD
1000
AcDbSavedByObjectVersion
1070
     0
  0
VISUALSTYLE
  5
32
102
{ACAD_REACTORS
330
2A
102
}
330
2A
100
AcDbVisualStyle
  2
Basic
 70
     7
 71
     1
 72
     0
 73
     1
 90
        0
 40
-0.6
 41
-30.0
 62
     5
 63
     7
 74
     0
 91
        4
 64
     7
 65
   257
 75
     1
175
     1
 42
1.0
 92
        8
 66
     7
 43
1.0
 76
     1
 77
     6
 78
     2
 67
     7
 79
     5
170
     0
171
     0
290
     0
174
     0
 93
        1
 44
0.0
173
     0
291
     1
 45
0.0
1001
ACAD
1000
AcDbSavedByObjectVersion
1070
     0
  0
VISUALSTYLE
  5
36
102
{ACAD_REACTORS
330
2A
102
}
330
2A
100
AcDbVisualStyle
  2
Brighten
 70
    12
 71
     2
 72
     2
 73
     0
 90
        0
 40
-0.6
 41
-30.0
 62
     5
 63
     7
 74
     1
 91
        4
 64
     7
 65
   257
 75
     1
175
     1
 42
1.0
 92
        8
 66
     7
 43
1.0
 76
     1
 77
     6
 78
     2
 67
     7
 79
     5
170
     0
171
     0
290
     0
174
     0
 93
        1
 44
50.0
173
     0
291
     1
 45
0.0
1001
ACAD
1000
AcDbSavedByObjectVersion
1070
     0
  0
VISUALSTYLE
  5
3A
102
{ACAD_REACTORS
330
2A
102
}
330
2A
100
AcDbVisualStyle
  2
ColorChange
 70
    16
 71
     2
 72
     2
 73
     3
 90
        0
 40
-0.6
 41
-30.0
 62
     5
 63
     8
 74
     1
 91
        4
 64
     7
 65
   257
 75
     1
175
     1
 42
1.0
 92
        8
 66
     8
 43
1.0
 76
     1
 77
     6
 78
     2
 67
     7
 79
     5
170
     0
171
     0
290
     0
174
     0
 93
        1
 44
0.0
173
     0
291
     1
 45
0.0
1001
ACAD
1000
AcDbSavedByObjectVersion
1070
     0
  0
VISUALSTYLE
  5
34
102
{ACAD_REACTORS
330
2A
102
}
330
2A
100
AcDbVisualStyle
  2
Conceptual
 70
     9
 71
     3
 72
     2
 73
     0
 90
        0
 40
-0.6
 41
-30.0
 62
     5
 63
     7
 74
     2
 91
        2
 64
     7
 65
   257
 75
     1
175
     1
 42
40.0
 92
        8
 66
     7
 43
1.0
 76
     1
 77
     6
 78
     2
 67
     7
 79
     3
170
     0
171
     0
290
     0
174
     0
 93
        1
 44
0.0
173
     0
291
     0
 45
0.0
1001
ACAD
1000
AcDbSavedByObjectVersion
1070
     0
  0
VISUALSTYLE
  5
35
102
{ACAD_REACTORS
330
2A
102
}
330
2A
100
AcDbVisualStyle
  2
Dim
 70
    11
 71
     2
 72
     2
 73
     0
 90
        0
 40
-0.6
 41
-30.0
 62
     5
 63
     7
 74
     1
 91
        4
 64
     7
 65
   257
 75
     1
175
     1
 42
1.0
 92
        8
 66
     7
 43
1.0
 76
     1
 77
     6
 78
     2
 67
     7
 79
     5
170
     0
171
     0
290
     0
174
     0
 93
        1
 44
-50.0
173
     0
291
     1
 45
0.0
1001
ACAD
1000
AcDbSavedByObjectVersion
1070
     0
  0
VISUALSTYLE
  5
39
102
{ACAD_REACTORS
330
2A
102
}
330
2A
100
AcDbVisualStyle
  2
Facepattern
 70
    15
 71
     2
 72
     2
 73
     0
 90
        0
 40
-0.6
 41
-30.0
 62
     5
 63
     7
 74
     1
 91
        4
 64
     7
 65
   257
 75
     1
175
     1
 42
1.0
 92
        8
 66
     7
 43
1.0
 76
     1
 77
     6
 78
     2
 67
     7
 79
     5
170
     0
171
     0
290
     0
174
     0
 93
        1
 44
0.0
173
     0
291
     1
 45
0.0
1001
ACAD
1000
AcDbSavedByObjectVersion
1070
     0
  0
VISUALSTYLE
  5
2B
102
{ACAD_REACTORS
330
2A
102
}
330
2A
100
AcDbVisualStyle
  2
Flat
 70
     0
 71
     2
 72
     1
 73
     1
 90
        2
 40
-0.6
 41
30.0
 62
     5
 63
     7
 74
     0
 91
        4
 64
     7
 65
   257
 75
     1
175
     1
 42
1.0
 92
        8
 66
     7
 43
1.0
 76
     1
 77
     6
 78
     2
 67
     7
 79
     5
170
     0
171
     0
290
     0
174
     0
 93
       13
 44
0.0
173
     0
291
     1
 45
0.0
1001
ACAD
1000
AcDbSavedByObjectVersion
1070
     0
  0
VISUALSTYLE
  5
2C
102
{ACAD_REACTORS
330
2A
102
}
330
2A
100
AcDbVisualStyle
  2
FlatWithEdges
 70
     1
 71
     2
 72
     1
 73
     1
 90
        2
 40
-0.6
 41
30.0
 62
     5
 63
     7
 74
     1
 91
        4
 64
     7
 65
   257
 75
     1
175
     1
 42
1.0
 92
        0
 66
   257
 43
1.0
 76
     1
 77
     6
 78
     2
 67
     7
 79
     5
170
     0
171
     0
290
     0
174
     0
 93
       13
 44
0.0
173
     0
291
     1
 45
0.0
1001
ACAD
1000
AcDbSavedByObjectVersion
1070
     0
  0
VISUALSTYLE
  5
2D
102
{ACAD_REACTORS
330
2A
102
}
330
2A
100
AcDbVisualStyle
  2
Gouraud
 70
     2
 71
     2
 72
     2
 73
     1
 90
        2
 40
-0.6
 41
30.0
 62
     5
 63
     7
 74
     0
 91
        4
 64
     7
 65
   257
 75
     1
175
     1
 42
1.0
 92
        0
 66
     7
 43
1.0
 76
     1
 77
     6
 78
     2
 67
     7
 79
     5
170
     0
171
     0
290
     0
174
     0
 93
       13
 44
0.0
173
     0
291
     1
 45
0.0
1001
ACAD
1000
AcDbSavedByObjectVersion
1070
     0
  0
VISUALSTYLE
  5
2E
102
{ACAD_REACTORS
330
2A
102
}
330
2A
100
AcDbVisualStyle
  2
GouraudWithEdges
 70
     3
 71
     2
 72
     2
 73
     1
 90
        2
 40
-0.6
 41
30.0
 62
     5
 63
     7
 74
     1
 91
        4
 64
     7
 65
   257
 75
     1
175
     1
 42
1.0
 92
        0
 66
   257
 43
1.0
 76
     1
 77
     6
 78
     2
 67
     7
 79
     5
170
     0
171
     0
290
     0
174
     0
 93
       13
 44
0.0
173
     0
291
     1
 45
0.0
1001
ACAD
1000
AcDbSavedByObjectVersion
1070
     0
  0
VISUALSTYLE
  5
38
102
{ACAD_REACTORS
330
2A
102
}
330
2A
100
AcDbVisualStyle
  2
Linepattern
 70
    14
 71
     2
 72
     2
 73
     0
 90
        0
 40
-0.6
 41
-30.0
 62
     5
 63
     7
 74
     1
 91
        4
 64
     7
 65
   257
 75
     7
175
     7
 42
1.0
 92
        8
 66
     7
 43
1.0
 76
     1
 77
     6
 78
     2
 67
     7
 79
     5
170
     0
171
     0
290
     0
174
     0
 93
        1
 44
0.0
173
     0
291
     1
 45
0.0
1001
ACAD
1000
AcDbSavedByObjectVersion
1070
     0
  0
VISUALSTYLE
  5
33
102
{ACAD_REACTORS
330
2A
102
}
330
2A
100
AcDbVisualStyle
  2
Realistic
 70
     8
 71
     2
 72
     2
 73
     0
 90
        0
 40
-0.6
 41
-30.0
 62
     5
 63
     7
 74
     1
 91
        0
 64
     7
 65
   257
 75
     1
175
     1
 42
1.0
 92
        8
 66
     8
 43
1.0
 76
     1
 77
     6
 78
     2
 67
     7
 79
     5
170
     0
171
     0
290
     0
174
     0
 93
       13
 44
0.0
173
     0
291
     0
 45
0.0
1001
ACAD
1000
AcDbSavedByObjectVersion
1070
     0
  0
VISUALSTYLE
  5
37
102
{ACAD_REACTORS
330
2A
102
}
330
2A
100
AcDbVisualStyle
  2
Thicken
 70
    13
 71
     2
 72
     2
 73
     0
 90
        0
 40
-0.6
 41
-30.0
 62
     5
 63
     7
 74
     1
 91
        4
 64
     7
 65
   257
 75
     1
175
     1
 42
1.0
 92
       12
 66
     7
 43
1.0
 76
     1
 77
     6
 78
     2
 67
     7
 79
     5
170
     0
171
     0
290
     0
174
     0
 93
        1
 44
0.0
173
     0
291
     1
 45
0.0
1001
ACAD
1000
AcDbSavedByObjectVersion
1070
     0
  0
DICTIONARYVAR
  5
1B9
102
{ACAD_REACTORS
330
1B7
102
}
330
1B7
100
DictionaryVariables
280
     0
  1
80.000000
  0
DICTIONARYVAR
  5
1B8
102
{ACAD_REACTORS
330
1B7
102
}
330
1B7
100
DictionaryVariables
280
     0
  1
5.000000
  0
ENDSEC
  0
EOF
