  0
SECTION
  2
HEADER
  9
$ACADVER
  1
AC1015
  9
$ACADMAINTVER
 70
     6
  9
$DWGCODEPAGE
  3
ANSI_1252
  9
$INSBASE
 10
0.0
 20
0.0
 30
0.0
  9
$EXTMIN
 10
0.0
 20
0.0
 30
0.0
  9
$EXTMAX
 10
279.4
 20
215.9
 30
0.0
  9
$LIMMIN
 10
0.0
 20
0.0
  9
$LIMMAX
 10
279.4
 20
215.9
  9
$ORTHOMODE
 70
     0
  9
$REGENMODE
 70
     1
  9
$FILLMODE
 70
     1
  9
$QTEXTMODE
 70
     0
  9
$MIRRTEXT
 70
     1
  9
$LTSCALE
 40
1.0
  9
$ATTMODE
 70
     1
  9
$TEXTSIZE
 40
3.175
  9
$TRACEWID
 40
1.0
  9
$TEXTSTYLE
  7
Standard
  9
$CLAYER
  8
0
  9
$CELTYPE
  6
ByLayer
  9
$CECOLOR
 62
   256
  9
$CELTSCALE
 40
1.0
  9
$DISPSILH
 70
     0
  9
$DIMSCALE
 40
1.0
  9
$DIMASZ
 40
3.302
  9
$DIMEXO
 40
1.27
  9
$DIMDLI
 40
3.75
  9
$DIMRND
 40
0.0
  9
$DIMDLE
 40
0.0
  9
$DIMEXE
 40
3.175
  9
$DIMTP
 40
0.0
  9
$DIMTM
 40
0.0
  9
$DIMTXT
 40
3.175
  9
$DIMCEN
 40
2.5
  9
$DIMTSZ
 40
0.0
  9
$DIMTOL
 70
     0
  9
$DIMLIM
 70
     0
  9
$DIMTIH
 70
     1
  9
$DIMTOH
 70
     1
  9
$DIMSE1
 70
     0
  9
$DIMSE2
 70
     0
  9
$DIMTAD
 70
     1
  9
$DIMZIN
 70
     0
  9
$DIMBLK
  1

  9
$DIMASO
 70
     1
  9
$DIMSHO
 70
     1
  9
$DIMPOST
  1

  9
$DIMAPOST
  1

  9
$DIMALT
 70
     0
  9
$DIMALTD
 70
     3
  9
$DIMALTF
 40
0.0393700787
  9
$DIMLFAC
 40
0.2
  9
$DIMTOFL
 70
     1
  9
$DIMTVP
 40
0.0
  9
$DIMTIX
 70
     0
  9
$DIMSOXD
 70
     0
  9
$DIMSAH
 70
     0
  9
$DIMBLK1
  1

  9
$DIMBLK2
  1

  9
$DIMSTYLE
  2
ISO-25
  9
$DIMCLRD
 70
     0
  9
$DIMCLRE
 70
     0
  9
$DIMCLRT
 70
     0
  9
$DIMTFAC
 40
1.0
  9
$DIMGAP
 40
1.524
  9
$DIMJUST
 70
     0
  9
$DIMSD1
 70
     0
  9
$DIMSD2
 70
     0
  9
$DIMTOLJ
 70
     0
  9
$DIMTZIN
 70
     0
  9
$DIMALTZ
 70
     0
  9
$DIMALTTZ
 70
     0
  9
$DIMUPT
 70
     0
  9
$DIMDEC
 70
     2
  9
$DIMTDEC
 70
     2
  9
$DIMALTU
 70
     2
  9
$DIMALTTD
 70
     3
  9
$DIMTXSTY
  7
Standard
  9
$DIMAUNIT
 70
     0
  9
$DIMADEC
 70
     0
  9
$DIMALTRND
 40
0.0
  9
$DIMAZIN
 70
     0
  9
$DIMDSEP
 70
    44
  9
$DIMATFIT
 70
     3
  9
$DIMFRAC
 70
     0
  9
$DIMLDRBLK
  1

  9
$DIMLUNIT
 70
     2
  9
$DIMLWD
 70
    -2
  9
$DIMLWE
 70
    -2
  9
$DIMTMOVE
 70
     0
  9
$LUNITS
 70
     2
  9
$LUPREC
 70
     2
  9
$SKETCHINC
 40
1.0
  9
$FILLETRAD
 40
10.0
  9
$AUNITS
 70
     0
  9
$AUPREC
 70
     0
  9
$MENU
  1
.
  9
$ELEVATION
 40
0.0
  9
$PELEVATION
 40
0.0
  9
$THICKNESS
 40
0.0
  9
$LIMCHECK
 70
     0
  9
$CHAMFERA
 40
10.0
  9
$CHAMFERB
 40
10.0
  9
$CHAMFERC
 40
20.0
  9
$CHAMFERD
 40
0.0
  9
$SKPOLY
 70
     0
  9
$TDCREATE
 40
2455264.422250058
  9
$TDUCREATE
 40
2455264.630583391
  9
$TDUPDATE
 40
2455264.422250069
  9
$TDUUPDATE
 40
2455264.630583403
  9
$TDINDWG
 40
0.0000000116
  9
$TDUSRTIMER
 40
0.0000000116
  9
$USRTIMER
 70
     1
  9
$ANGBASE
 50
0.0
  9
$ANGDIR
 70
     0
  9
$PDMODE
 70
     0
  9
$PDSIZE
 40
-1.0
  9
$PLINEWID
 40
0.0
  9
$SPLFRAME
 70
     0
  9
$SPLINETYPE
 70
     6
  9
$SPLINESEGS
 70
     8
  9
$HANDSEED
  5
16C
  9
$SURFTAB1
 70
     6
  9
$SURFTAB2
 70
     6
  9
$SURFTYPE
 70
     6
  9
$SURFU
 70
     6
  9
$SURFV
 70
     6
  9
$UCSBASE
  2

  9
$UCSNAME
  2

  9
$UCSORG
 10
0.0
 20
0.0
 30
0.0
  9
$UCSXDIR
 10
1.0
 20
0.0
 30
0.0
  9
$UCSYDIR
 10
0.0
 20
1.0
 30
0.0
  9
$UCSORTHOREF
  2

  9
$UCSORTHOVIEW
 70
     0
  9
$UCSORGTOP
 10
0.0
 20
0.0
 30
0.0
  9
$UCSORGBOTTOM
 10
0.0
 20
0.0
 30
0.0
  9
$UCSORGLEFT
 10
0.0
 20
0.0
 30
0.0
  9
$UCSORGRIGHT
 10
0.0
 20
0.0
 30
0.0
  9
$UCSORGFRONT
 10
0.0
 20
0.0
 30
0.0
  9
$UCSORGBACK
 10
0.0
 20
0.0
 30
0.0
  9
$PUCSBASE
  2

  9
$PUCSNAME
  2

  9
$PUCSORG
 10
0.0
 20
0.0
 30
0.0
  9
$PUCSXDIR
 10
1.0
 20
0.0
 30
0.0
  9
$PUCSYDIR
 10
0.0
 20
1.0
 30
0.0
  9
$PUCSORTHOREF
  2

  9
$PUCSORTHOVIEW
 70
     0
  9
$PUCSORGTOP
 10
0.0
 20
0.0
 30
0.0
  9
$PUCSORGBOTTOM
 10
0.0
 20
0.0
 30
0.0
  9
$PUCSORGLEFT
 10
0.0
 20
0.0
 30
0.0
  9
$PUCSORGRIGHT
 10
0.0
 20
0.0
 30
0.0
  9
$PUCSORGFRONT
 10
0.0
 20
0.0
 30
0.0
  9
$PUCSORGBACK
 10
0.0
 20
0.0
 30
0.0
  9
$USERI1
 70
     0
  9
$USERI2
 70
     0
  9
$USERI3
 70
     0
  9
$USERI4
 70
     0
  9
$USERI5
 70
     0
  9
$USERR1
 40
0.0
  9
$USERR2
 40
0.0
  9
$USERR3
 40
0.0
  9
$USERR4
 40
0.0
  9
$USERR5
 40
0.0
  9
$WORLDVIEW
 70
     1
  9
$SHADEDGE
 70
     3
  9
$SHADEDIF
 70
    70
  9
$TILEMODE
 70
     1
  9
$MAXACTVP
 70
    64
  9
$PINSBASE
 10
0.0
 20
0.0
 30
0.0
  9
$PLIMCHECK
 70
     0
  9
$PEXTMIN
 10
1.0000000000E+20
 20
1.0000000000E+20
 30
1.0000000000E+20
  9
$PEXTMAX
 10
-1.0000000000E+20
 20
-1.0000000000E+20
 30
-1.0000000000E+20
  9
$PLIMMIN
 10
0.0
 20
0.0
  9
$PLIMMAX
 10
420.0
 20
297.0
  9
$UNITMODE
 70
     0
  9
$VISRETAIN
 70
     1
  9
$PLINEGEN
 70
     0
  9
$PSLTSCALE
 70
     1
  9
$TREEDEPTH
 70
  3020
  9
$CMLSTYLE
  2
Standard
  9
$CMLJUST
 70
     0
  9
$CMLSCALE
 40
20.0
  9
$PROXYGRAPHICS
 70
     1
  9
$MEASUREMENT
 70
     1
  9
$CELWEIGHT
370
    -1
  9
$ENDCAPS
280
     0
  9
$JOINSTYLE
280
     0
  9
$LWDISPLAY
290
     1
  9
$INSUNITS
 70
     4
  9
$HYPERLINKBASE
  1

  9
$STYLESHEET
  1

  9
$XEDIT
290
     1
  9
$CEPSNTYPE
380
     0
  9
$PSTYLEMODE
290
     1
  9
$FINGERPRINTGUID
  2
{A7CEF2DF-E01E-442F-BC41-48E437F3AC9C}
  9
$VERSIONGUID
  2
{FAEB1C32-E019-11D5-929B-00C0DF256EC4}
  9
$EXTNAMES
290
     1
  9
$PSVPSCALE
 40
0.0
  9
$OLESTARTUP
290
     0
  0
ENDSEC
  0
SECTION
  2
CLASSES
  0
CLASS
  1
ACDBDICTIONARYWDFLT
  2
AcDbDictionaryWithDefault
  3
ObjectDBX Classes
 90
        0
280
     0
281
     0
  0
CLASS
  1
VISUALSTYLE
  2
AcDbVisualStyle
  3
ObjectDBX Classes
 90
     4095
280
     0
281
     0
  0
CLASS
  1
DICTIONARYVAR
  2
AcDbDictionaryVar
  3
ObjectDBX Classes
 90
        0
280
     0
281
     0
  0
CLASS
  1
ACDBPLACEHOLDER
  2
AcDbPlaceHolder
  3
ObjectDBX Classes
 90
        0
280
     0
281
     0
  0
CLASS
  1
LAYOUT
  2
AcDbLayout
  3
ObjectDBX Classes
 90
        0
280
     0
281
     0
  0
ENDSEC
  0
SECTION
  2
TABLES
  0
TABLE
  2
VPORT
  5
8
330
0
100
AcDbSymbolTable
 70
     1
  0
VPORT
  5
29
330
8
100
AcDbSymbolTableRecord
100
AcDbViewportTableRecord
  2
*Active
 70
     0
 10
0.0
 20
0.0
 11
1.0
 21
1.0
 12
139.7
 22
107.95
 13
0.0
 23
0.0
 14
10.0
 24
10.0
 15
10.0
 25
10.0
 16
0.0
 26
0.0
 36
1.0
 17
0.0
 27
0.0
 37
0.0
 40
215.9
 41
1.2941176471
 42
50.0
 43
0.0
 44
0.0
 50
0.0
 51
0.0
 71
     0
 72
  2000
 73
     1
 74
     3
 75
     0
 76
     0
 77
     0
 78
     0
281
     0
 65
     1
110
0.0
120
0.0
130
0.0
111
1.0
121
0.0
131
0.0
112
0.0
122
1.0
132
0.0
 79
     0
146
0.0
  0
ENDTAB
  0
TABLE
  2
LTYPE
  5
5
330
0
100
AcDbSymbolTable
 70
     6
  0
LTYPE
  5
14
330
5
100
AcDbSymbolTableRecord
100
AcDbLinetypeTableRecord
  2
ByBlock
 70
     0
  3

 72
    65
 73
     0
 40
0.0
  0
LTYPE
  5
15
330
5
100
AcDbSymbolTableRecord
100
AcDbLinetypeTableRecord
  2
ByLayer
 70
     0
  3

 72
    65
 73
     0
 40
0.0
  0
LTYPE
  5
16
330
5
100
AcDbSymbolTableRecord
100
AcDbLinetypeTableRecord
  2
Continuous
 70
     0
  3
Solid line
 72
    65
 73
     0
 40
0.0
  0
LTYPE
  5
3B
330
5
100
AcDbSymbolTableRecord
100
AcDbLinetypeTableRecord
  2
HIDDEN
 70
     0
  3
Hidden __ __ __ __ __ __ __ __ __ __ __ __ __ __
 72
    65
 73
     2
 40
1.905
 49
1.27
 74
     0
 49
-0.635
 74
     0
  0
LTYPE
  5
3C
330
5
100
AcDbSymbolTableRecord
100
AcDbLinetypeTableRecord
  2
PHANTOM
 70
     0
  3
Phantom ______  __  __  ______  __  __  ______
 72
    65
 73
     6
 40
12.7
 49
6.35
 74
     0
 49
-1.27
 74
     0
 49
1.27
 74
     0
 49
-1.27
 74
     0
 49
1.27
 74
     0
 49
-1.27
 74
     0
  0
LTYPE
  5
3D
330
5
100
AcDbSymbolTableRecord
100
AcDbLinetypeTableRecord
  2
CENTER
 70
     0
  3
Center ____ _ ____ _ ____ _ ____ _ ____ _ ____
 72
    65
 73
     4
 40
10.16
 49
6.35
 74
     0
 49
-1.27
 74
     0
 49
1.27
 74
     0
 49
-1.27
 74
     0
  0
LTYPE
  5
3E
330
5
100
AcDbSymbolTableRecord
100
AcDbLinetypeTableRecord
  2
CENTERX2
 70
     0
  3
Center (2x) ________  __  ________  __  _____
 72
    65
 73
     4
 40
20.32
 49
12.7
 74
     0
 49
-2.54
 74
     0
 49
2.54
 74
     0
 49
-2.54
 74
     0
  0
LTYPE
  5
3F
330
5
100
AcDbSymbolTableRecord
100
AcDbLinetypeTableRecord
  2
DOT2
 70
     0
  3
Dot (.5x) ........................................
 72
    65
 73
     2
 40
0.635
 49
0.0
 74
     0
 49
-0.635
 74
     0
  0
ENDTAB
  0
TABLE
  2
LAYER
  5
2
330
0
100
AcDbSymbolTable
 70
     1
  0
LAYER
  5
10
330
2
100
AcDbSymbolTableRecord
100
AcDbLayerTableRecord
  2
0
 70
     0
 62
     7
  6
Continuous
370
    -3
390
F
  0
ENDTAB
  0
TABLE
  2
STYLE
  5
3
330
0
100
AcDbSymbolTable
 70
     3
  0
STYLE
  5
11
330
3
100
AcDbSymbolTableRecord
100
AcDbTextStyleTableRecord
  2
Standard
 70
     0
 40
0.0
 41
1.0
 50
0.0
 71
     0
 42
2.5
  3
txt
  4

  0
STYLE
  5
43
330
3
100
AcDbSymbolTableRecord
100
AcDbTextStyleTableRecord
  2
SLDTEXTSTYLE0
 70
     0
 40
0.0
 41
0.75
 50
0.0
 71
     0
 42
0.2
  3
TXT
  4

  0
STYLE
  5
BD
330
3
100
AcDbSymbolTableRecord
100
AcDbTextStyleTableRecord
  2
SLDTEXTSTYLE1
 70
     0
 40
0.0
 41
0.6875
 50
0.0
 71
     0
 42
0.2
  3
TXT
  4

  0
ENDTAB
  0
TABLE
  2
VIEW
  5
6
330
0
100
AcDbSymbolTable
 70
     0
  0
ENDTAB
  0
TABLE
  2
UCS
  5
7
330
0
100
AcDbSymbolTable
 70
     0
  0
ENDTAB
  0
TABLE
  2
APPID
  5
9
330
0
100
AcDbSymbolTable
 70
     1
  0
APPID
  5
12
330
9
100
AcDbSymbolTableRecord
100
AcDbRegAppTableRecord
  2
ACAD
 70
     0
  0
ENDTAB
  0
TABLE
  2
DIMSTYLE
  5
A
330
0
100
AcDbSymbolTable
 70
     4
100
AcDbDimStyleTable
  0
DIMSTYLE
105
27
330
A
100
AcDbSymbolTableRecord
100
AcDbDimStyleTableRecord
  2
ISO-25
 70
     0
 41
2.5
 42
0.625
 43
3.75
 44
1.25
 73
     0
 74
     0
 77
     1
 78
     8
140
2.5
141
2.5
143
0.0393700787
147
0.625
171
     3
172
     1
271
     2
272
     2
274
     3
278
    44
283
     0
284
     8
340
11
  0
DIMSTYLE
105
5E
102
{ACAD_REACTORS
330
5D
330
72
330
86
330
111
330
123
330
152
102
}
330
A
100
AcDbSymbolTableRecord
100
AcDbDimStyleTableRecord
  2
SLDDIMSTYLE0
 70
     0
 41
3.302
 44
0.0
 45
0.000000001
 78
    12
140
3.175
143
0.0393700787
144
0.2
147
0.79375
148
0.000000001
170
     1
173
     1
271
     2
272
     2
284
    12
340
43
  0
DIMSTYLE
105
9C
102
{ACAD_REACTORS
330
9B
102
}
330
A
100
AcDbSymbolTableRecord
100
AcDbDimStyleTableRecord
  2
SLDDIMSTYLE1
 70
     0
  3
<>
  4
<>
 41
3.302
 44
0.0
 45
0.000000001
 78
    12
140
3.175
143
0.0393700787
144
0.2
147
0.79375
148
0.000000001
170
     1
173
     1
271
     0
272
     2
284
    12
340
43
  0
DIMSTYLE
105
B4
102
{ACAD_REACTORS
330
B3
102
}
330
A
100
AcDbSymbolTableRecord
100
AcDbDimStyleTableRecord
  2
SLDDIMSTYLE2
 70
     0
 41
3.302
 44
0.0
 45
0.000000001
 78
    12
140
3.175
143
0.0393700787
144
0.2
147
0.79375
148
0.000000001
170
     1
173
     1
271
     2
272
     2
284
    12
340
43
  0
ENDTAB
  0
TABLE
  2
BLOCK_RECORD
  5
1
330
0
100
AcDbSymbolTable
 70
    14
  0
BLOCK_RECORD
  5
1F
330
1
100
AcDbSymbolTableRecord
100
AcDbBlockTableRecord
  2
*Model_Space
340
22
  0
BLOCK_RECORD
  5
1B
330
1
100
AcDbSymbolTableRecord
100
AcDbBlockTableRecord
  2
*Paper_Space
340
1E
  0
BLOCK_RECORD
  5
23
330
1
100
AcDbSymbolTableRecord
100
AcDbBlockTableRecord
  2
*Paper_Space0
340
26
  0
BLOCK_RECORD
  5
40
330
1
100
AcDbSymbolTableRecord
100
AcDbBlockTableRecord
  2
SW_NOTE_0
340
0
102
{BLKREFS
331
49
102
}
  0
BLOCK_RECORD
  5
5F
330
1
100
AcDbSymbolTableRecord
100
AcDbBlockTableRecord
  2
*D2
340
0
  0
BLOCK_RECORD
  5
73
330
1
100
AcDbSymbolTableRecord
100
AcDbBlockTableRecord
  2
*D3
340
0
  0
BLOCK_RECORD
  5
87
330
1
100
AcDbSymbolTableRecord
100
AcDbBlockTableRecord
  2
*D4
340
0
  0
BLOCK_RECORD
  5
9D
330
1
100
AcDbSymbolTableRecord
100
AcDbBlockTableRecord
  2
*D5
340
0
  0
BLOCK_RECORD
  5
A9
330
1
100
AcDbSymbolTableRecord
100
AcDbBlockTableRecord
  2
SW_SYMBOL_HOLE_DEPTH
340
0
102
{BLKREFS
331
B0
102
}
  0
BLOCK_RECORD
  5
B5
330
1
100
AcDbSymbolTableRecord
100
AcDbBlockTableRecord
  2
*D7
340
0
  0
BLOCK_RECORD
  5
C6
330
1
100
AcDbSymbolTableRecord
100
AcDbBlockTableRecord
  2
SW_CENTERMARKSYMBOL_0
340
0
102
{BLKREFS
331
D1
102
}
  0
BLOCK_RECORD
  5
D2
330
1
100
AcDbSymbolTableRecord
100
AcDbBlockTableRecord
  2
SW_CENTERMARKSYMBOL_1
340
0
102
{BLKREFS
331
DD
102
}
  0
BLOCK_RECORD
  5
DE
330
1
100
AcDbSymbolTableRecord
100
AcDbBlockTableRecord
  2
SW_CENTERMARKSYMBOL_2
340
0
102
{BLKREFS
331
E9
102
}
  0
BLOCK_RECORD
  5
112
330
1
100
AcDbSymbolTableRecord
100
AcDbBlockTableRecord
  2
*D11
340
0
  0
BLOCK_RECORD
  5
124
330
1
100
AcDbSymbolTableRecord
100
AcDbBlockTableRecord
  2
*D12
340
0
  0
BLOCK_RECORD
  5
153
330
1
100
AcDbSymbolTableRecord
100
AcDbBlockTableRecord
  2
*D13
340
0
  0
ENDTAB
  0
ENDSEC
  0
SECTION
  2
BLOCKS
  0
BLOCK
  5
20
330
1F
100
AcDbEntity
  8
0
100
AcDbBlockBegin
  2
*Model_Space
 70
     0
 10
0.0
 20
0.0
 30
0.0
  3
*Model_Space
  1

  0
ENDBLK
  5
21
330
1F
100
AcDbEntity
  8
0
100
AcDbBlockEnd
  0
BLOCK
  5
1C
330
1B
100
AcDbEntity
 67
     1
  8
0
100
AcDbBlockBegin
  2
*Paper_Space
 70
     0
 10
0.0
 20
0.0
 30
0.0
  3
*Paper_Space
  1

  0
ENDBLK
  5
1D
330
1B
100
AcDbEntity
 67
     1
  8
0
100
AcDbBlockEnd
  0
BLOCK
  5
24
330
23
100
AcDbEntity
  8
0
100
AcDbBlockBegin
  2
*Paper_Space0
 70
     0
 10
0.0
 20
0.0
 30
0.0
  3
*Paper_Space0
  1

  0
ENDBLK
  5
25
330
23
100
AcDbEntity
  8
0
100
AcDbBlockEnd
  0
BLOCK
  5
41
330
40
100
AcDbEntity
  8
0
100
AcDbBlockBegin
  2
SW_NOTE_0
 70
     0
 10
0.0
 20
0.0
 30
0.0
  3
SW_NOTE_0
  1

  0
MTEXT
  5
44
330
40
100
AcDbEntity
  8
0
  6
Continuous
 62
     0
370
     0
100
AcDbMText
 10
0.0
 20
4.0927900738
 30
0.0
 40
3.175
 41
0.0
 71
     1
 72
     1
  1
4x
  7
SLDTEXTSTYLE0
 73
     1
 44
1.0
  0
MTEXT
  5
45
330
40
100
AcDbEntity
  8
0
  6
Continuous
 62
     0
370
     0
100
AcDbMText
 10
0.0
 20
-0.012661443
 30
0.0
 40
3.175
 41
0.0
 71
     1
 72
     1
  1
Brett Graham
  7
SLDTEXTSTYLE0
 73
     1
 44
1.0
  0
MTEXT
  5
46
330
40
100
AcDbEntity
  8
0
  6
Continuous
 62
     0
370
     0
100
AcDbMText
 10
0.0
 20
-4.1181129598
 30
0.0
 40
3.175
 41
0.0
 71
     1
 72
     1
  1
7mm Implant Window
  7
SLDTEXTSTYLE0
 73
     1
 44
1.0
  0
MTEXT
  5
47
330
40
100
AcDbEntity
  8
0
  6
Continuous
 62
     0
370
     0
100
AcDbMText
 10
0.0
 20
-8.2235644766
 30
0.0
 40
3.175
 41
0.0
 71
     1
 72
     1
  1
Ultem
  7
SLDTEXTSTYLE0
 73
     1
 44
1.0
  0
MTEXT
  5
48
330
40
100
AcDbEntity
  8
0
  6
Continuous
 62
     0
370
     0
100
AcDbMText
 10
0.0
 20
-12.3290159935
 30
0.0
 40
3.175
 41
0.0
 71
     1
 72
     1
  1
Scale 5:1
  7
SLDTEXTSTYLE0
 73
     1
 44
1.0
  0
ENDBLK
  5
42
330
40
100
AcDbEntity
  8
0
100
AcDbBlockEnd
  0
BLOCK
  5
60
330
5F
100
AcDbEntity
  8
0
100
AcDbBlockBegin
  2
*D2
 70
     1
 10
0.0
 20
0.0
 30
0.0
  3
*D2
  1

  0
ARC
  5
62
330
5F
100
AcDbEntity
  8
0
  6
Continuous
 62
     7
370
     0
100
AcDbCircle
 10
38.0716732101
 20
63.8263421692
 30
0.0
 40
11.26736302677366
100
AcDbArc
 50
153.4349488229
 51
206.5650511771
  0
ARC
  5
63
330
5F
100
AcDbEntity
  8
0
  6
Continuous
 62
     7
370
     0
100
AcDbCircle
 10
32.1104073051
 20
63.8263421692
 30
0.0
 40
11.26736302677365
100
AcDbArc
 50
333.4349488229
 51
26.5650511771
  0
SOLID
  5
64
330
5F
100
AcDbEntity
  8
0
  6
Continuous
 62
     7
370
     0
100
AcDbTrace
 10
35.0910402576
 20
82.9926952423
 30
0.0
 11
34.5830402576
 21
79.6906952423
 31
0.0
 12
35.5990402576
 22
79.6906952423
 32
0.0
 13
35.5990402576
 23
79.6906952423
 33
0.0
  0
SOLID
  5
65
330
5F
100
AcDbEntity
  8
0
  6
Continuous
 62
     7
370
     0
100
AcDbTrace
 10
35.0910402576
 20
47.9926952423
 30
0.0
 11
35.5990402576
 21
51.2946952423
 31
0.0
 12
34.5830402576
 22
51.2946952423
 32
0.0
 13
34.5830402576
 23
51.2946952423
 33
0.0
  0
LINE
  5
66
330
5F
100
AcDbEntity
  8
0
  6
Continuous
 62
     7
370
     0
100
AcDbLine
 10
30.8706807247
 20
68.4873412554
 30
0.0
 11
30.8706807247
 21
64.2042610141
 31
0.0
  0
LINE
  5
67
330
5F
100
AcDbEntity
  8
0
  6
Continuous
 62
     7
370
     0
100
AcDbLine
 10
30.8706807247
 20
64.2042610141
 30
0.0
 11
31.515352413
 21
64.2042610141
 31
0.0
  0
LINE
  5
68
330
5F
100
AcDbEntity
  8
0
  6
Continuous
 62
     7
370
     0
100
AcDbLine
 10
30.8706807247
 20
68.4873412554
 30
0.0
 11
31.515352413
 21
68.4873412554
 31
0.0
  0
LINE
  5
69
330
5F
100
AcDbEntity
  8
0
  6
Continuous
 62
     7
370
     0
100
AcDbLine
 10
39.3113997906
 20
68.4873412554
 30
0.0
 11
39.3113997906
 21
64.2042610141
 31
0.0
  0
LINE
  5
6A
330
5F
100
AcDbEntity
  8
0
  6
Continuous
 62
     7
370
     0
100
AcDbLine
 10
39.3113997906
 20
64.2042610141
 30
0.0
 11
38.6667281023
 21
64.2042610141
 31
0.0
  0
LINE
  5
6B
330
5F
100
AcDbEntity
  8
0
  6
Continuous
 62
     7
370
     0
100
AcDbLine
 10
39.3113997906
 20
68.4873412554
 30
0.0
 11
38.6667281023
 21
68.4873412554
 31
0.0
  0
LINE
  5
6C
330
5F
100
AcDbEntity
  8
0
  6
Continuous
 62
     7
370
     0
100
AcDbLine
 10
71.8210402576
 20
82.9926952423
 30
0.0
 11
31.9160402576
 21
82.9926952423
 31
0.0
  0
LINE
  5
6D
330
5F
100
AcDbEntity
  8
0
  6
Continuous
 62
     7
370
     0
100
AcDbLine
 10
71.8210402576
 20
47.9926952423
 30
0.0
 11
31.9160402576
 21
47.9926952423
 31
0.0
  0
LINE
  5
6E
330
5F
100
AcDbEntity
  8
0
  6
Continuous
 62
     7
370
     0
100
AcDbLine
 10
35.0910402576
 20
82.9926952423
 30
0.0
 11
35.0910402576
 21
68.8652601002
 31
0.0
  0
LINE
  5
6F
330
5F
100
AcDbEntity
  8
0
  6
Continuous
 62
     7
370
     0
100
AcDbLine
 10
35.0910402576
 20
47.9926952423
 30
0.0
 11
35.0910402576
 21
58.7874242382
 31
0.0
  0
MTEXT
  5
70
330
5F
100
AcDbEntity
  8
0
  6
Continuous
 62
     7
370
     0
100
AcDbMText
 10
33.9186337951
 20
62.8802146612
 30
0.0
 40
3.175
 41
0.0
 71
     1
 72
     1
  1
7
  7
SLDTEXTSTYLE0
 73
     1
 44
1.0
  0
MTEXT
  5
71
330
5F
100
AcDbEntity
  8
0
  6
Continuous
 62
     7
370
     0
100
AcDbMText
 10
32.1600241012
 20
67.9191325922
 30
0.0
 40
3.175
 41
0.0
 71
     1
 72
     1
  1
.28
  7
SLDTEXTSTYLE0
 73
     1
 44
1.0
  0
ENDBLK
  5
61
330
5F
100
AcDbEntity
  8
0
100
AcDbBlockEnd
  0
BLOCK
  5
74
330
73
100
AcDbEntity
  8
0
100
AcDbBlockBegin
  2
*D3
 70
     1
 10
0.0
 20
0.0
 30
0.0
  3
*D3
  1

  0
ARC
  5
76
330
73
100
AcDbEntity
  8
0
  6
Continuous
 62
     7
370
     0
100
AcDbCircle
 10
121.0716732101
 20
20.9926952423
 30
0.0
 40
11.26736302677369
100
AcDbArc
 50
153.4349488229
 51
206.5650511771
  0
ARC
  5
77
330
73
100
AcDbEntity
  8
0
  6
Continuous
 62
     7
370
     0
100
AcDbCircle
 10
115.1104073051
 20
20.9926952423
 30
0.0
 40
11.26736302677364
100
AcDbArc
 50
333.4349488229
 51
26.5650511771
  0
SOLID
  5
78
330
73
100
AcDbEntity
  8
0
  6
Continuous
 62
     7
370
     0
100
AcDbTrace
 10
68.0910402576
 20
20.9926952423
 30
0.0
 11
71.3930402576
 21
20.4846952423
 31
0.0
 12
71.3930402576
 22
21.5006952423
 32
0.0
 13
71.3930402576
 23
21.5006952423
 33
0.0
  0
SOLID
  5
79
330
73
100
AcDbEntity
  8
0
  6
Continuous
 62
     7
370
     0
100
AcDbTrace
 10
103.0910402576
 20
20.9926952423
 30
0.0
 11
99.7890402576
 21
21.5006952423
 31
0.0
 12
99.7890402576
 22
20.4846952423
 32
0.0
 13
99.7890402576
 23
20.4846952423
 33
0.0
  0
LINE
  5
7A
330
73
100
AcDbEntity
  8
0
  6
Continuous
 62
     7
370
     0
100
AcDbLine
 10
113.8706807247
 20
25.6536943285
 30
0.0
 11
113.8706807247
 21
21.3706140871
 31
0.0
  0
LINE
  5
7B
330
73
100
AcDbEntity
  8
0
  6
Continuous
 62
     7
370
     0
100
AcDbLine
 10
113.8706807247
 20
21.3706140871
 30
0.0
 11
114.515352413
 21
21.3706140871
 31
0.0
  0
LINE
  5
7C
330
73
100
AcDbEntity
  8
0
  6
Continuous
 62
     7
370
     0
100
AcDbLine
 10
113.8706807247
 20
25.6536943285
 30
0.0
 11
114.515352413
 21
25.6536943285
 31
0.0
  0
LINE
  5
7D
330
73
100
AcDbEntity
  8
0
  6
Continuous
 62
     7
370
     0
100
AcDbLine
 10
122.3113997906
 20
25.6536943285
 30
0.0
 11
122.3113997906
 21
21.3706140871
 31
0.0
  0
LINE
  5
7E
330
73
100
AcDbEntity
  8
0
  6
Continuous
 62
     7
370
     0
100
AcDbLine
 10
122.3113997906
 20
21.3706140871
 30
0.0
 11
121.6667281023
 21
21.3706140871
 31
0.0
  0
LINE
  5
7F
330
73
100
AcDbEntity
  8
0
  6
Continuous
 62
     7
370
     0
100
AcDbLine
 10
122.3113997906
 20
25.6536943285
 30
0.0
 11
121.6667281023
 21
25.6536943285
 31
0.0
  0
LINE
  5
80
330
73
100
AcDbEntity
  8
0
  6
Continuous
 62
     7
370
     0
100
AcDbLine
 10
68.0910402576
 20
51.7226952423
 30
0.0
 11
68.0910402576
 21
17.8176952423
 31
0.0
  0
LINE
  5
81
330
73
100
AcDbEntity
  8
0
  6
Continuous
 62
     7
370
     0
100
AcDbLine
 10
103.0910402576
 20
51.7226952423
 30
0.0
 11
103.0910402576
 21
17.8176952423
 31
0.0
  0
LINE
  5
82
330
73
100
AcDbEntity
  8
0
  6
Continuous
 62
     7
370
     0
100
AcDbLine
 10
68.0910402576
 20
20.9926952423
 30
0.0
 11
103.0910402576
 21
20.9926952423
 31
0.0
  0
LINE
  5
83
330
73
100
AcDbEntity
  8
0
  6
Continuous
 62
     7
370
     0
100
AcDbLine
 10
103.0910402576
 20
20.9926952423
 30
0.0
 11
105.5428632021
 21
20.9926952423
 31
0.0
  0
MTEXT
  5
84
330
73
100
AcDbEntity
  8
0
  6
Continuous
 62
     7
370
     0
100
AcDbMText
 10
116.9186337951
 20
20.0465677343
 30
0.0
 40
3.175
 41
0.0
 71
     1
 72
     1
  1
7
  7
SLDTEXTSTYLE0
 73
     1
 44
1.0
  0
MTEXT
  5
85
330
73
100
AcDbEntity
  8
0
  6
Continuous
 62
     7
370
     0
100
AcDbMText
 10
115.1600241012
 20
25.0854856653
 30
0.0
 40
3.175
 41
0.0
 71
     1
 72
     1
  1
.28
  7
SLDTEXTSTYLE0
 73
     1
 44
1.0
  0
ENDBLK
  5
75
330
73
100
AcDbEntity
  8
0
100
AcDbBlockEnd
  0
BLOCK
  5
88
330
87
100
AcDbEntity
  8
0
100
AcDbBlockBegin
  2
*D4
 70
     1
 10
0.0
 20
0.0
 30
0.0
  3
*D4
  1

  0
ARC
  5
8A
330
87
100
AcDbEntity
  8
0
  6
Continuous
 62
     7
370
     0
100
AcDbCircle
 10
41.5638572306
 20
106.7905183558
 30
0.0
 40
11.26736302677366
100
AcDbArc
 50
153.4349488229
 51
206.5650511771
  0
ARC
  5
8B
330
87
100
AcDbEntity
  8
0
  6
Continuous
 62
     7
370
     0
100
AcDbCircle
 10
35.6025913255
 20
106.7905183558
 30
0.0
 40
11.2673630267737
100
AcDbArc
 50
333.4349488229
 51
26.5650511771
  0
SOLID
  5
8C
330
87
100
AcDbEntity
  8
0
  6
Continuous
 62
     7
370
     0
100
AcDbTrace
 10
57.4814013335
 20
92.9926952423
 30
0.0
 11
57.9894013335
 21
96.2946952423
 31
0.0
 12
56.9734013335
 22
96.2946952423
 32
0.0
 13
56.9734013335
 23
96.2946952423
 33
0.0
  0
SOLID
  5
8D
330
87
100
AcDbEntity
  8
0
  6
Continuous
 62
     7
370
     0
100
AcDbTrace
 10
57.4814013335
 20
102.9926952423
 30
0.0
 11
56.9734013335
 21
99.6906952423
 31
0.0
 12
57.9894013335
 22
99.6906952423
 32
0.0
 13
57.9894013335
 23
99.6906952423
 33
0.0
  0
LINE
  5
8E
330
87
100
AcDbEntity
  8
0
  6
Continuous
 62
     7
370
     0
100
AcDbLine
 10
34.3628647451
 20
111.451517442
 30
0.0
 11
34.3628647451
 21
107.1684372007
 31
0.0
  0
LINE
  5
8F
330
87
100
AcDbEntity
  8
0
  6
Continuous
 62
     7
370
     0
100
AcDbLine
 10
34.3628647451
 20
107.1684372007
 30
0.0
 11
35.0075364334
 21
107.1684372007
 31
0.0
  0
LINE
  5
90
330
87
100
AcDbEntity
  8
0
  6
Continuous
 62
     7
370
     0
100
AcDbLine
 10
34.3628647451
 20
111.451517442
 30
0.0
 11
35.0075364334
 21
111.451517442
 31
0.0
  0
LINE
  5
91
330
87
100
AcDbEntity
  8
0
  6
Continuous
 62
     7
370
     0
100
AcDbLine
 10
42.803583811
 20
111.451517442
 30
0.0
 11
42.803583811
 21
107.1684372007
 31
0.0
  0
LINE
  5
92
330
87
100
AcDbEntity
  8
0
  6
Continuous
 62
     7
370
     0
100
AcDbLine
 10
42.803583811
 20
107.1684372007
 30
0.0
 11
42.1589121227
 21
107.1684372007
 31
0.0
  0
LINE
  5
93
330
87
100
AcDbEntity
  8
0
  6
Continuous
 62
     7
370
     0
100
AcDbLine
 10
42.803583811
 20
111.451517442
 30
0.0
 11
42.1589121227
 21
111.451517442
 31
0.0
  0
LINE
  5
94
330
87
100
AcDbEntity
  8
0
  6
Continuous
 62
     7
370
     0
100
AcDbLine
 10
68.6428902576
 20
92.9926952423
 30
0.0
 11
54.3064013335
 21
92.9926952423
 31
0.0
  0
LINE
  5
95
330
87
100
AcDbEntity
  8
0
  6
Continuous
 62
     7
370
     0
100
AcDbLine
 10
66.8210402576
 20
102.9926952423
 30
0.0
 11
54.3064013335
 21
102.9926952423
 31
0.0
  0
LINE
  5
96
330
87
100
AcDbEntity
  8
0
  6
Continuous
 62
     7
370
     0
100
AcDbLine
 10
51.1314013335
 20
106.7905183558
 30
0.0
 11
57.4814013335
 21
106.7905183558
 31
0.0
  0
LINE
  5
97
330
87
100
AcDbEntity
  8
0
  6
Continuous
 62
     7
370
     0
100
AcDbLine
 10
57.4814013335
 20
106.7905183558
 30
0.0
 11
57.4814013335
 21
102.9926952423
 31
0.0
  0
LINE
  5
98
330
87
100
AcDbEntity
  8
0
  6
Continuous
 62
     7
370
     0
100
AcDbLine
 10
57.4814013335
 20
92.9926952423
 30
0.0
 11
57.4814013335
 21
102.9926952423
 31
0.0
  0
MTEXT
  5
99
330
87
100
AcDbEntity
  8
0
  6
Continuous
 62
     7
370
     0
100
AcDbMText
 10
37.4108178155
 20
105.8443908478
 30
0.0
 40
3.175
 41
0.0
 71
     1
 72
     1
  1
2
  7
SLDTEXTSTYLE0
 73
     1
 44
1.0
  0
MTEXT
  5
9A
330
87
100
AcDbEntity
  8
0
  6
Continuous
 62
     7
370
     0
100
AcDbMText
 10
35.6522081217
 20
110.8833087789
 30
0.0
 40
3.175
 41
0.0
 71
     1
 72
     1
  1
.08
  7
SLDTEXTSTYLE0
 73
     1
 44
1.0
  0
ENDBLK
  5
89
330
87
100
AcDbEntity
  8
0
100
AcDbBlockEnd
  0
BLOCK
  5
9E
330
9D
100
AcDbEntity
  8
0
100
AcDbBlockBegin
  2
*D5
 70
     1
 10
0.0
 20
0.0
 30
0.0
  3
*D5
  1

  0
SOLID
  5
A0
330
9D
100
AcDbEntity
  8
0
  6
Continuous
 62
     7
370
     0
100
AcDbTrace
 10
71.5505172859
 20
98.7430418614
 30
0.0
 11
71.186736789
 21
102.064025413
 31
0.0
 12
70.2053442994
 22
101.8011094925
 32
0.0
 13
70.2053442994
 23
101.8011094925
 33
0.0
  0
LINE
  5
A1
330
9D
100
AcDbEntity
  8
0
  6
Continuous
 62
     7
370
     0
100
AcDbLine
 10
71.5505172859
 20
98.7430418614
 30
0.0
 11
66.2135090803
 21
118.6646189188
 31
0.0
  0
LINE
  5
A2
330
9D
100
AcDbEntity
  8
0
  6
Continuous
 62
     7
370
     0
100
AcDbLine
 10
66.2135090803
 20
118.6646189188
 30
0.0
 11
59.8635090803
 21
118.6646189188
 31
0.0
  0
MTEXT
  5
A3
330
9D
100
AcDbEntity
  8
0
  6
Continuous
 62
     7
370
     0
100
AcDbMText
 10
2.6555408883
 20
120.2136517968
 30
0.0
 40
3.175
 41
0.0
 71
     1
 72
     1
  1
2
  7
SLDTEXTSTYLE0
 73
     1
 44
1.0
  0
MTEXT
  5
A4
330
9D
100
AcDbEntity
  8
0
  6
Continuous
 62
     7
370
     0
100
AcDbMText
 10
5.1856304823
 20
120.2621583361
 30
0.0
 40
3.175
 41
0.0
 71
     1
 72
     1
  1
X 
  7
SLDTEXTSTYLE0
 73
     1
 44
1.0
  0
MTEXT
  5
A5
330
9D
100
AcDbEntity
  8
0
  6
Continuous
 62
     7
370
     0
100
AcDbMText
 10
8.9383039928
 20
120.2136513893
 30
0.0
 40
3.175
 41
0.0
 71
     1
 72
     1
  1
%%c
  7
SLDTEXTSTYLE0
 73
     1
 44
1.0
  0
MTEXT
  5
A6
330
9D
100
AcDbEntity
  8
0
  6
Continuous
 62
     7
370
     0
100
AcDbMText
 10
13.7266007556
 20
120.2621583361
 30
0.0
 40
3.175
 41
0.0
 71
     1
 72
     1
  1
 
  7
SLDTEXTSTYLE0
 73
     1
 44
1.0
  0
MTEXT
  5
A7
330
9D
100
AcDbEntity
  8
0
  6
Continuous
 62
     7
370
     0
100
AcDbMText
 10
14.8989876513
 20
120.2136517968
 30
0.0
 40
3.175
 41
0.0
 71
     1
 72
     1
  1
2.38[0.09]
  7
SLDTEXTSTYLE0
 73
     1
 44
1.0
  0
MTEXT
  5
A8
330
9D
100
AcDbEntity
  8
0
  6
Continuous
 62
     7
370
     0
100
AcDbMText
 10
35.8413258878
 20
120.2621583361
 30
0.0
 40
3.175
 41
0.0
 71
     1
 72
     1
  1
 
  7
SLDTEXTSTYLE0
 73
     1
 44
1.0
  0
INSERT
  5
B0
330
9D
100
AcDbEntity
  8
0
  6
Continuous
 62
     7
370
     0
100
AcDbBlockReference
  2
SW_SYMBOL_HOLE_DEPTH
 10
37.0143120022
 20
116.5611445187
 30
0.0
 41
0.0040555664
 42
0.0040555664
 43
0.0040555664
  0
MTEXT
  5
B1
330
9D
100
AcDbEntity
  8
0
  6
Continuous
 62
     7
370
     0
100
AcDbMText
 10
41.5505931092
 20
120.2621583361
 30
0.0
 40
3.175
 41
0.0
 71
     1
 72
     1
  1
 
  7
SLDTEXTSTYLE0
 73
     1
 44
1.0
  0
MTEXT
  5
B2
330
9D
100
AcDbEntity
  8
0
  6
Continuous
 62
     7
370
     0
100
AcDbMText
 10
42.7208612185
 20
120.2136517968
 30
0.0
 40
3.175
 41
0.0
 71
     1
 72
     1
  1
10[0.39]
  7
SLDTEXTSTYLE0
 73
     1
 44
1.0
  0
ENDBLK
  5
9F
330
9D
100
AcDbEntity
  8
0
100
AcDbBlockEnd
  0
BLOCK
  5
AA
330
A9
100
AcDbEntity
  8
0
100
AcDbBlockBegin
  2
SW_SYMBOL_HOLE_DEPTH
 70
     0
 10
0.0
 20
0.0
 30
0.0
  3
SW_SYMBOL_HOLE_DEPTH
  1

  0
LINE
  5
AC
330
A9
100
AcDbEntity
  8
0
  6
Continuous
 62
     0
370
     0
100
AcDbLine
 10
0.0
 20
875.0
 30
0.0
 11
800.0
 21
875.0
 31
0.0
  0
LINE
  5
AD
330
A9
100
AcDbEntity
  8
0
  6
Continuous
 62
     0
370
     0
100
AcDbLine
 10
400.0
 20
875.0
 30
0.0
 11
400.0
 21
75.0
 31
0.0
  0
LINE
  5
AE
330
A9
100
AcDbEntity
  8
0
  6
Continuous
 62
     0
370
     0
100
AcDbLine
 10
100.0
 20
555.0
 30
0.0
 11
400.0
 21
75.0
 31
0.0
  0
LINE
  5
AF
330
A9
100
AcDbEntity
  8
0
  6
Continuous
 62
     0
370
     0
100
AcDbLine
 10
700.0
 20
555.0
 30
0.0
 11
400.0
 21
75.0
 31
0.0
  0
ENDBLK
  5
AB
330
A9
100
AcDbEntity
  8
0
100
AcDbBlockEnd
  0
BLOCK
  5
B6
330
B5
100
AcDbEntity
  8
0
100
AcDbBlockBegin
  2
*D7
 70
     1
 10
0.0
 20
0.0
 30
0.0
  3
*D7
  1

  0
SOLID
  5
B8
330
B5
100
AcDbEntity
  8
0
  6
Continuous
 62
     7
370
     0
100
AcDbTrace
 10
86.3610850317
 20
95.8695700169
 30
0.0
 11
87.7055909262
 21
98.9279309994
 31
0.0
 12
86.7241411097
 22
99.1906328413
 32
0.0
 13
86.7241411097
 23
99.1906328413
 33
0.0
  0
LINE
  5
B9
330
B5
100
AcDbEntity
  8
0
  6
Continuous
 62
     7
370
     0
100
AcDbLine
 10
86.3610850317
 20
95.8695700169
 30
0.0
 11
93.5999661398
 21
122.913912314
 31
0.0
  0
LINE
  5
BA
330
B5
100
AcDbEntity
  8
0
  6
Continuous
 62
     7
370
     0
100
AcDbLine
 10
93.5999661398
 20
122.913912314
 30
0.0
 11
99.9499661398
 21
122.913912314
 31
0.0
  0
MTEXT
  5
BB
330
B5
100
AcDbEntity
  8
0
  6
Continuous
 62
     7
370
     0
100
AcDbMText
 10
103.1249661398
 20
121.9434862265
 30
0.0
 40
3.175
 41
0.0
 71
     1
 72
     1
  1
0-80 UNF
  7
SLDTEXTSTYLE0
 73
     1
 44
1.0
  0
MTEXT
  5
BC
330
B5
100
AcDbEntity
  8
0
  6
Continuous
 62
     7
370
     0
100
AcDbMText
 10
122.0991194339
 20
121.9434862265
 30
0.0
 40
3.175
 41
0.0
 71
     1
 72
     1
  1
 
  7
SLDTEXTSTYLE0
 73
     1
 44
1.0
  0
MTEXT
  5
BE
330
B5
100
AcDbEntity
  8
0
  6
Continuous
 62
     7
370
     0
100
AcDbMText
 10
123.2715258965
 20
121.9434862265
 30
0.0
 40
3.175
 41
0.0
 71
     1
 72
     1
  1
- 1B
  7
SLDTEXTSTYLE1
 73
     1
 44
1.0
  0
MTEXT
  5
BF
330
B5
100
AcDbEntity
  8
0
  6
Continuous
 62
     7
370
     0
100
AcDbMText
 10
131.2110867594
 20
121.9434862265
 30
0.0
 40
3.175
 41
0.0
 71
     1
 72
     1
  1
 
  7
SLDTEXTSTYLE0
 73
     1
 44
1.0
  0
MTEXT
  5
C0
330
B5
100
AcDbEntity
  8
0
  6
Continuous
 62
     7
370
     0
100
AcDbMText
 10
132.383493222
 20
121.9434862265
 30
0.0
 40
3.175
 41
0.0
 71
     1
 72
     1
  1
THRU ALL
  7
SLDTEXTSTYLE0
 73
     1
 44
1.0
  0
MTEXT
  5
C1
330
B5
100
AcDbEntity
  8
0
  6
Continuous
 62
     7
370
     0
100
AcDbMText
 10
103.7172440159
 20
126.98240375
 30
0.0
 40
3.175
 41
0.0
 71
     1
 72
     1
  1
%%c
  7
SLDTEXTSTYLE0
 73
     1
 44
1.0
  0
MTEXT
  5
C2
330
B5
100
AcDbEntity
  8
0
  6
Continuous
 62
     7
370
     0
100
AcDbMText
 10
108.5055407788
 20
127.0309106968
 30
0.0
 40
3.175
 41
0.0
 71
     1
 72
     1
  1
 
  7
SLDTEXTSTYLE0
 73
     1
 44
1.0
  0
MTEXT
  5
C3
330
B5
100
AcDbEntity
  8
0
  6
Continuous
 62
     7
370
     0
100
AcDbMText
 10
109.6764706468
 20
126.9824041575
 30
0.0
 40
3.175
 41
0.0
 71
     1
 72
     1
  1
1.19[0.05]
  7
SLDTEXTSTYLE0
 73
     1
 44
1.0
  0
MTEXT
  5
C4
330
B5
100
AcDbEntity
  8
0
  6
Continuous
 62
     7
370
     0
100
AcDbMText
 10
130.6188088833
 20
126.9824041575
 30
0.0
 40
3.175
 41
0.0
 71
     1
 72
     1
  1
 
  7
SLDTEXTSTYLE0
 73
     1
 44
1.0
  0
MTEXT
  5
C5
330
B5
100
AcDbEntity
  8
0
  6
Continuous
 62
     7
370
     0
100
AcDbMText
 10
131.7912153458
 20
126.9824041575
 30
0.0
 40
3.175
 41
0.0
 71
     1
 72
     1
  1
THRU ALL
  7
SLDTEXTSTYLE0
 73
     1
 44
1.0
  0
ENDBLK
  5
B7
330
B5
100
AcDbEntity
  8
0
100
AcDbBlockEnd
  0
BLOCK
  5
C7
330
C6
100
AcDbEntity
  8
0
100
AcDbBlockBegin
  2
SW_CENTERMARKSYMBOL_0
 70
     0
 10
0.0
 20
0.0
 30
0.0
  3
SW_CENTERMARKSYMBOL_0
  1

  0
LINE
  5
C9
330
C6
100
AcDbEntity
  8
0
  6
Continuous
 62
     0
370
     0
100
AcDbLine
 10
0.0
 20
0.0
 30
0.0
 11
0.0
 21
12.7
 31
0.0
  0
LINE
  5
CA
330
C6
100
AcDbEntity
  8
0
  6
Continuous
 62
     0
370
     0
100
AcDbLine
 10
0.0
 20
0.0
 30
0.0
 11
-12.7
 21
0.0
 31
0.0
  0
LINE
  5
CB
330
C6
100
AcDbEntity
  8
0
  6
Continuous
 62
     0
370
     0
100
AcDbLine
 10
0.0
 20
0.0
 30
0.0
 11
0.0
 21
-12.7
 31
0.0
  0
LINE
  5
CC
330
C6
100
AcDbEntity
  8
0
  6
Continuous
 62
     0
370
     0
100
AcDbLine
 10
0.0
 20
0.0
 30
0.0
 11
12.7
 21
0.0
 31
0.0
  0
LINE
  5
CD
330
C6
100
AcDbEntity
  8
0
  6
Continuous
 62
     0
370
     0
100
AcDbLine
 10
0.0
 20
12.7
 30
0.0
 11
0.0
 21
15.67815
 31
0.0
  0
LINE
  5
CE
330
C6
100
AcDbEntity
  8
0
  6
Continuous
 62
     0
370
     0
100
AcDbLine
 10
-12.7
 20
0.0
 30
0.0
 11
-15.67815
 21
0.0
 31
0.0
  0
LINE
  5
CF
330
C6
100
AcDbEntity
  8
0
  6
Continuous
 62
     0
370
     0
100
AcDbLine
 10
0.0
 20
-12.7
 30
0.0
 11
0.0
 21
-15.67815
 31
0.0
  0
LINE
  5
D0
330
C6
100
AcDbEntity
  8
0
  6
Continuous
 62
     0
370
     0
100
AcDbLine
 10
12.7
 20
0.0
 30
0.0
 11
15.67815
 21
0.0
 31
0.0
  0
ENDBLK
  5
C8
330
C6
100
AcDbEntity
  8
0
100
AcDbBlockEnd
  0
BLOCK
  5
D3
330
D2
100
AcDbEntity
  8
0
100
AcDbBlockBegin
  2
SW_CENTERMARKSYMBOL_1
 70
     0
 10
0.0
 20
0.0
 30
0.0
  3
SW_CENTERMARKSYMBOL_1
  1

  0
LINE
  5
D5
330
D2
100
AcDbEntity
  8
0
  6
Continuous
 62
     0
370
     0
100
AcDbLine
 10
0.0
 20
0.0
 30
0.0
 11
0.0
 21
12.7
 31
0.0
  0
LINE
  5
D6
330
D2
100
AcDbEntity
  8
0
  6
Continuous
 62
     0
370
     0
100
AcDbLine
 10
0.0
 20
0.0
 30
0.0
 11
-12.7
 21
0.0
 31
0.0
  0
LINE
  5
D7
330
D2
100
AcDbEntity
  8
0
  6
Continuous
 62
     0
370
     0
100
AcDbLine
 10
0.0
 20
0.0
 30
0.0
 11
0.0
 21
-12.7
 31
0.0
  0
LINE
  5
D8
330
D2
100
AcDbEntity
  8
0
  6
Continuous
 62
     0
370
     0
100
AcDbLine
 10
0.0
 20
0.0
 30
0.0
 11
12.7
 21
0.0
 31
0.0
  0
LINE
  5
D9
330
D2
100
AcDbEntity
  8
0
  6
Continuous
 62
     0
370
     0
100
AcDbLine
 10
0.0
 20
12.7
 30
0.0
 11
0.0
 21
18.653125
 31
0.0
  0
LINE
  5
DA
330
D2
100
AcDbEntity
  8
0
  6
Continuous
 62
     0
370
     0
100
AcDbLine
 10
-12.7
 20
0.0
 30
0.0
 11
-18.653125
 21
0.0
 31
0.0
  0
LINE
  5
DB
330
D2
100
AcDbEntity
  8
0
  6
Continuous
 62
     0
370
     0
100
AcDbLine
 10
0.0
 20
-12.7
 30
0.0
 11
0.0
 21
-18.653125
 31
0.0
  0
LINE
  5
DC
330
D2
100
AcDbEntity
  8
0
  6
Continuous
 62
     0
370
     0
100
AcDbLine
 10
12.7
 20
0.0
 30
0.0
 11
18.653125
 21
0.0
 31
0.0
  0
ENDBLK
  5
D4
330
D2
100
AcDbEntity
  8
0
100
AcDbBlockEnd
  0
BLOCK
  5
DF
330
DE
100
AcDbEntity
  8
0
100
AcDbBlockBegin
  2
SW_CENTERMARKSYMBOL_2
 70
     0
 10
0.0
 20
0.0
 30
0.0
  3
SW_CENTERMARKSYMBOL_2
  1

  0
LINE
  5
E1
330
DE
100
AcDbEntity
  8
0
  6
Continuous
 62
     0
370
     0
100
AcDbLine
 10
0.0
 20
0.0
 30
0.0
 11
0.0
 21
12.7
 31
0.0
  0
LINE
  5
E2
330
DE
100
AcDbEntity
  8
0
  6
Continuous
 62
     0
370
     0
100
AcDbLine
 10
0.0
 20
0.0
 30
0.0
 11
-12.7
 21
0.0
 31
0.0
  0
LINE
  5
E3
330
DE
100
AcDbEntity
  8
0
  6
Continuous
 62
     0
370
     0
100
AcDbLine
 10
0.0
 20
0.0
 30
0.0
 11
0.0
 21
-12.7
 31
0.0
  0
LINE
  5
E4
330
DE
100
AcDbEntity
  8
0
  6
Continuous
 62
     0
370
     0
100
AcDbLine
 10
0.0
 20
0.0
 30
0.0
 11
12.7
 21
0.0
 31
0.0
  0
LINE
  5
E5
330
DE
100
AcDbEntity
  8
0
  6
Continuous
 62
     0
370
     0
100
AcDbLine
 10
0.0
 20
12.7
 30
0.0
 11
0.0
 21
18.653125
 31
0.0
  0
LINE
  5
E6
330
DE
100
AcDbEntity
  8
0
  6
Continuous
 62
     0
370
     0
100
AcDbLine
 10
-12.7
 20
0.0
 30
0.0
 11
-18.653125
 21
0.0
 31
0.0
  0
LINE
  5
E7
330
DE
100
AcDbEntity
  8
0
  6
Continuous
 62
     0
370
     0
100
AcDbLine
 10
0.0
 20
-12.7
 30
0.0
 11
0.0
 21
-18.653125
 31
0.0
  0
LINE
  5
E8
330
DE
100
AcDbEntity
  8
0
  6
Continuous
 62
     0
370
     0
100
AcDbLine
 10
12.7
 20
0.0
 30
0.0
 11
18.653125
 21
0.0
 31
0.0
  0
ENDBLK
  5
E0
330
DE
100
AcDbEntity
  8
0
100
AcDbBlockEnd
  0
BLOCK
  5
113
330
112
100
AcDbEntity
  8
0
100
AcDbBlockBegin
  2
*D11
 70
     1
 10
0.0
 20
0.0
 30
0.0
  3
*D11
  1

  0
ARC
  5
115
330
112
100
AcDbEntity
  8
0
  6
Continuous
 62
     7
370
     0
100
AcDbCircle
 10
192.9295149069
 20
136.9926952423
 30
0.0
 40
11.26736302677368
100
AcDbArc
 50
153.4349488229
 51
206.5650511771
  0
ARC
  5
116
330
112
100
AcDbEntity
  8
0
  6
Continuous
 62
     7
370
     0
100
AcDbCircle
 10
186.9682490019
 20
136.9926952423
 30
0.0
 40
11.26736302677368
100
AcDbArc
 50
333.4349488229
 51
26.5650511771
  0
SOLID
  5
117
330
112
100
AcDbEntity
  8
0
  6
Continuous
 62
     7
370
     0
100
AcDbTrace
 10
201.8551319544
 20
136.9926952423
 30
0.0
 11
198.5531319544
 21
137.5006952423
 31
0.0
 12
198.5531319544
 22
136.4846952423
 32
0.0
 13
198.5531319544
 23
136.4846952423
 33
0.0
  0
SOLID
  5
118
330
112
100
AcDbEntity
  8
0
  6
Continuous
 62
     7
370
     0
100
AcDbTrace
 10
178.0426319544
 20
136.9926952423
 30
0.0
 11
181.3446319544
 21
136.4846952423
 31
0.0
 12
181.3446319544
 22
137.5006952423
 32
0.0
 13
181.3446319544
 23
137.5006952423
 33
0.0
  0
LINE
  5
119
330
112
100
AcDbEntity
  8
0
  6
Continuous
 62
     7
370
     0
100
AcDbLine
 10
185.7285224215
 20
141.6536943285
 30
0.0
 11
185.7285224215
 21
137.3706140871
 31
0.0
  0
LINE
  5
11A
330
112
100
AcDbEntity
  8
0
  6
Continuous
 62
     7
370
     0
100
AcDbLine
 10
185.7285224215
 20
137.3706140871
 30
0.0
 11
186.3731941097
 21
137.3706140871
 31
0.0
  0
LINE
  5
11B
330
112
100
AcDbEntity
  8
0
  6
Continuous
 62
     7
370
     0
100
AcDbLine
 10
185.7285224215
 20
141.6536943285
 30
0.0
 11
186.3731941097
 21
141.6536943285
 31
0.0
  0
LINE
  5
11C
330
112
100
AcDbEntity
  8
0
  6
Continuous
 62
     7
370
     0
100
AcDbLine
 10
194.1692414873
 20
141.6536943285
 30
0.0
 11
194.1692414873
 21
137.3706140871
 31
0.0
  0
LINE
  5
11D
330
112
100
AcDbEntity
  8
0
  6
Continuous
 62
     7
370
     0
100
AcDbLine
 10
194.1692414873
 20
137.3706140871
 30
0.0
 11
193.524569799
 21
137.3706140871
 31
0.0
  0
LINE
  5
11E
330
112
100
AcDbEntity
  8
0
  6
Continuous
 62
     7
370
     0
100
AcDbLine
 10
194.1692414873
 20
141.6536943285
 30
0.0
 11
193.524569799
 21
141.6536943285
 31
0.0
  0
LINE
  5
11F
330
112
100
AcDbEntity
  8
0
  6
Continuous
 62
     7
370
     0
100
AcDbLine
 10
201.8551319544
 20
104.2626952423
 30
0.0
 11
201.8551319544
 21
140.1676952423
 31
0.0
  0
LINE
  5
120
330
112
100
AcDbEntity
  8
0
  6
Continuous
 62
     7
370
     0
100
AcDbLine
 10
178.0426319544
 20
104.2626952423
 30
0.0
 11
178.0426319544
 21
140.1676952423
 31
0.0
  0
MTEXT
  5
121
330
112
100
AcDbEntity
  8
0
  6
Continuous
 62
     7
370
     0
100
AcDbMText
 10
185.8439406742
 20
136.0465677343
 30
0.0
 40
3.175
 41
0.0
 71
     1
 72
     1
  1
4.76
  7
SLDTEXTSTYLE0
 73
     1
 44
1.0
  0
MTEXT
  5
122
330
112
100
AcDbEntity
  8
0
  6
Continuous
 62
     7
370
     0
100
AcDbMText
 10
187.017865798
 20
141.0854856653
 30
0.0
 40
3.175
 41
0.0
 71
     1
 72
     1
  1
.19
  7
SLDTEXTSTYLE0
 73
     1
 44
1.0
  0
ENDBLK
  5
114
330
112
100
AcDbEntity
  8
0
100
AcDbBlockEnd
  0
BLOCK
  5
125
330
124
100
AcDbEntity
  8
0
100
AcDbBlockBegin
  2
*D12
 70
     1
 10
0.0
 20
0.0
 30
0.0
  3
*D12
  1

  0
ARC
  5
127
330
124
100
AcDbEntity
  8
0
  6
Continuous
 62
     7
370
     0
100
AcDbCircle
 10
224.6212025461
 20
69.0229225102
 30
0.0
 40
11.26736302677366
100
AcDbArc
 50
153.4349488229
 51
206.5650511771
  0
ARC
  5
128
330
124
100
AcDbEntity
  8
0
  6
Continuous
 62
     7
370
     0
100
AcDbCircle
 10
218.659936641
 20
69.0229225102
 30
0.0
 40
11.26736302677366
100
AcDbArc
 50
333.4349488229
 51
26.5650511771
  0
SOLID
  5
129
330
124
100
AcDbEntity
  8
0
  6
Continuous
 62
     7
370
     0
100
AcDbTrace
 10
221.6405695936
 20
102.9926952423
 30
0.0
 11
221.1325695936
 21
99.6906952423
 31
0.0
 12
222.1485695936
 22
99.6906952423
 32
0.0
 13
222.1485695936
 23
99.6906952423
 33
0.0
  0
SOLID
  5
12A
330
124
100
AcDbEntity
  8
0
  6
Continuous
 62
     7
370
     0
100
AcDbTrace
 10
221.6405695936
 20
42.9926952423
 30
0.0
 11
222.1485695936
 21
46.2946952423
 31
0.0
 12
221.1325695936
 22
46.2946952423
 32
0.0
 13
221.1325695936
 23
46.2946952423
 33
0.0
  0
LINE
  5
12B
330
124
100
AcDbEntity
  8
0
  6
Continuous
 62
     7
370
     0
100
AcDbLine
 10
217.4202100606
 20
73.6839215964
 30
0.0
 11
217.4202100606
 21
69.4008413551
 31
0.0
  0
LINE
  5
12C
330
124
100
AcDbEntity
  8
0
  6
Continuous
 62
     7
370
     0
100
AcDbLine
 10
217.4202100606
 20
69.4008413551
 30
0.0
 11
218.0648817489
 21
69.4008413551
 31
0.0
  0
LINE
  5
12D
330
124
100
AcDbEntity
  8
0
  6
Continuous
 62
     7
370
     0
100
AcDbLine
 10
217.4202100606
 20
73.6839215964
 30
0.0
 11
218.0648817489
 21
73.6839215964
 31
0.0
  0
LINE
  5
12E
330
124
100
AcDbEntity
  8
0
  6
Continuous
 62
     7
370
     0
100
AcDbLine
 10
225.8609291265
 20
73.6839215964
 30
0.0
 11
225.8609291265
 21
69.4008413551
 31
0.0
  0
LINE
  5
12F
330
124
100
AcDbEntity
  8
0
  6
Continuous
 62
     7
370
     0
100
AcDbLine
 10
225.8609291265
 20
69.4008413551
 30
0.0
 11
225.2162574382
 21
69.4008413551
 31
0.0
  0
LINE
  5
130
330
124
100
AcDbEntity
  8
0
  6
Continuous
 62
     7
370
     0
100
AcDbLine
 10
225.8609291265
 20
73.6839215964
 30
0.0
 11
225.2162574382
 21
73.6839215964
 31
0.0
  0
LINE
  5
131
330
124
100
AcDbEntity
  8
0
  6
Continuous
 62
     7
370
     0
100
AcDbLine
 10
203.1251319544
 20
102.9926952423
 30
0.0
 11
224.8155695936
 21
102.9926952423
 31
0.0
  0
LINE
  5
132
330
124
100
AcDbEntity
  8
0
  6
Continuous
 62
     7
370
     0
100
AcDbLine
 10
203.1251319544
 20
42.9926952423
 30
0.0
 11
224.8155695936
 21
42.9926952423
 31
0.0
  0
LINE
  5
133
330
124
100
AcDbEntity
  8
0
  6
Continuous
 62
     7
370
     0
100
AcDbLine
 10
221.6405695936
 20
102.9926952423
 30
0.0
 11
221.6405695936
 21
74.0618404412
 31
0.0
  0
LINE
  5
134
330
124
100
AcDbEntity
  8
0
  6
Continuous
 62
     7
370
     0
100
AcDbLine
 10
221.6405695936
 20
42.9926952423
 30
0.0
 11
221.6405695936
 21
63.9840045792
 31
0.0
  0
MTEXT
  5
135
330
124
100
AcDbEntity
  8
0
  6
Continuous
 62
     7
370
     0
100
AcDbMText
 10
219.2957566685
 20
68.0767950023
 30
0.0
 40
3.175
 41
0.0
 71
     1
 72
     1
  1
12
  7
SLDTEXTSTYLE0
 73
     1
 44
1.0
  0
MTEXT
  5
136
330
124
100
AcDbEntity
  8
0
  6
Continuous
 62
     7
370
     0
100
AcDbMText
 10
218.7095534372
 20
73.1157129333
 30
0.0
 40
3.175
 41
0.0
 71
     1
 72
     1
  1
.47
  7
SLDTEXTSTYLE0
 73
     1
 44
1.0
  0
ENDBLK
  5
126
330
124
100
AcDbEntity
  8
0
100
AcDbBlockEnd
  0
BLOCK
  5
154
330
153
100
AcDbEntity
  8
0
100
AcDbBlockBegin
  2
*D13
 70
     1
 10
0.0
 20
0.0
 30
0.0
  3
*D13
  1

  0
ARC
  5
156
330
153
100
AcDbEntity
  8
0
  6
Continuous
 62
     7
370
     0
100
AcDbCircle
 10
88.5716732101
 20
201.6037126113
 30
0.0
 40
11.26736302677366
100
AcDbArc
 50
153.4349488229
 51
206.5650511771
  0
ARC
  5
157
330
153
100
AcDbEntity
  8
0
  6
Continuous
 62
     7
370
     0
100
AcDbCircle
 10
82.6104073051
 20
201.6037126113
 30
0.0
 40
11.26736302677365
100
AcDbArc
 50
333.4349488229
 51
26.5650511771
  0
SOLID
  5
158
330
153
100
AcDbEntity
  8
0
  6
Continuous
 62
     7
370
     0
100
AcDbTrace
 10
63.0910402576
 20
201.6037126113
 30
0.0
 11
66.3930402576
 21
201.0957126113
 31
0.0
 12
66.3930402576
 22
202.1117126113
 32
0.0
 13
66.3930402576
 23
202.1117126113
 33
0.0
  0
SOLID
  5
159
330
153
100
AcDbEntity
  8
0
  6
Continuous
 62
     7
370
     0
100
AcDbTrace
 10
108.0910402576
 20
201.6037126113
 30
0.0
 11
104.7890402576
 21
202.1117126113
 31
0.0
 12
104.7890402576
 22
201.0957126113
 32
0.0
 13
104.7890402576
 23
201.0957126113
 33
0.0
  0
LINE
  5
15A
330
153
100
AcDbEntity
  8
0
  6
Continuous
 62
     7
370
     0
100
AcDbLine
 10
81.3706807247
 20
206.2647116975
 30
0.0
 11
81.3706807247
 21
201.9816314561
 31
0.0
  0
LINE
  5
15B
330
153
100
AcDbEntity
  8
0
  6
Continuous
 62
     7
370
     0
100
AcDbLine
 10
81.3706807247
 20
201.9816314561
 30
0.0
 11
82.015352413
 21
201.9816314561
 31
0.0
  0
LINE
  5
15C
330
153
100
AcDbEntity
  8
0
  6
Continuous
 62
     7
370
     0
100
AcDbLine
 10
81.3706807247
 20
206.2647116975
 30
0.0
 11
82.015352413
 21
206.2647116975
 31
0.0
  0
LINE
  5
15D
330
153
100
AcDbEntity
  8
0
  6
Continuous
 62
     7
370
     0
100
AcDbLine
 10
89.8113997906
 20
206.2647116975
 30
0.0
 11
89.8113997906
 21
201.9816314561
 31
0.0
  0
LINE
  5
15E
330
153
100
AcDbEntity
  8
0
  6
Continuous
 62
     7
370
     0
100
AcDbLine
 10
89.8113997906
 20
201.9816314561
 30
0.0
 11
89.1667281023
 21
201.9816314561
 31
0.0
  0
LINE
  5
15F
330
153
100
AcDbEntity
  8
0
  6
Continuous
 62
     7
370
     0
100
AcDbLine
 10
89.8113997906
 20
206.2647116975
 30
0.0
 11
89.1667281023
 21
206.2647116975
 31
0.0
  0
LINE
  5
160
330
153
100
AcDbEntity
  8
0
  6
Continuous
 62
     7
370
     0
100
AcDbLine
 10
63.0910402576
 20
186.8737126113
 30
0.0
 11
63.0910402576
 21
204.7787126113
 31
0.0
  0
LINE
  5
161
330
153
100
AcDbEntity
  8
0
  6
Continuous
 62
     7
370
     0
100
AcDbLine
 10
108.0910402576
 20
186.8737126113
 30
0.0
 11
108.0910402576
 21
204.7787126113
 31
0.0
  0
LINE
  5
162
330
153
100
AcDbEntity
  8
0
  6
Continuous
 62
     7
370
     0
100
AcDbLine
 10
63.0910402576
 20
201.6037126113
 30
0.0
 11
73.0428632021
 21
201.6037126113
 31
0.0
  0
LINE
  5
163
330
153
100
AcDbEntity
  8
0
  6
Continuous
 62
     7
370
     0
100
AcDbLine
 10
108.0910402576
 20
201.6037126113
 30
0.0
 11
98.1392173131
 21
201.6037126113
 31
0.0
  0
MTEXT
  5
164
330
153
100
AcDbEntity
  8
0
  6
Continuous
 62
     7
370
     0
100
AcDbMText
 10
84.4186337951
 20
200.6575851033
 30
0.0
 40
3.175
 41
0.0
 71
     1
 72
     1
  1
9
  7
SLDTEXTSTYLE0
 73
     1
 44
1.0
  0
MTEXT
  5
165
330
153
100
AcDbEntity
  8
0
  6
Continuous
 62
     7
370
     0
100
AcDbMText
 10
82.6600241012
 20
205.6965030343
 30
0.0
 40
3.175
 41
0.0
 71
     1
 72
     1
  1
.35
  7
SLDTEXTSTYLE0
 73
     1
 44
1.0
  0
ENDBLK
  5
155
330
153
100
AcDbEntity
  8
0
100
AcDbBlockEnd
  0
ENDSEC
  0
SECTION
  2
ENTITIES
  0
INSERT
  5
49
330
1F
100
AcDbEntity
  8
0
  6
Continuous
 62
     7
370
     0
100
AcDbBlockReference
  2
SW_NOTE_0
 10
185.6193989037
 20
197.7617345478
 30
0.0
  0
ARC
  5
4A
330
1F
100
AcDbEntity
  8
0
  6
Continuous
 62
     7
370
    15
100
AcDbCircle
 10
68.0910402576
 20
97.9926952423
 30
0.0
 40
5.000000000000014
100
AcDbArc
 50
90.0
 51
180.0
  0
LINE
  5
4B
330
1F
100
AcDbEntity
  8
0
  6
Continuous
 62
     7
370
    15
100
AcDbLine
 10
103.0910402576
 20
102.9926952423
 30
0.0
 11
68.0910402576
 21
102.9926952423
 31
0.0
  0
ARC
  5
4C
330
1F
100
AcDbEntity
  8
0
  6
Continuous
 62
     7
370
    15
100
AcDbCircle
 10
103.0910402576
 20
97.9926952423
 30
0.0
 40
5.0
100
AcDbArc
 50
0.0
 51
90.0
  0
LINE
  5
4D
330
1F
100
AcDbEntity
  8
0
  6
Continuous
 62
     7
370
    15
100
AcDbLine
 10
108.0910402576
 20
47.9926952423
 30
0.0
 11
108.0910402576
 21
97.9926952423
 31
0.0
  0
ARC
  5
4E
330
1F
100
AcDbEntity
  8
0
  6
Continuous
 62
     7
370
    15
100
AcDbCircle
 10
103.0910402576
 20
47.9926952423
 30
0.0
 40
4.999999999999993
100
AcDbArc
 50
270.0
 51
0.0
  0
LINE
  5
4F
330
1F
100
AcDbEntity
  8
0
  6
Continuous
 62
     7
370
    15
100
AcDbLine
 10
68.0910402576
 20
42.9926952423
 30
0.0
 11
103.0910402576
 21
42.9926952423
 31
0.0
  0
ARC
  5
50
330
1F
100
AcDbEntity
  8
0
  6
Continuous
 62
     7
370
    15
100
AcDbCircle
 10
68.0910402576
 20
47.9926952423
 30
0.0
 40
5.0
100
AcDbArc
 50
180.0
 51
270.0
  0
LINE
  5
51
330
1F
100
AcDbEntity
  8
0
  6
Continuous
 62
     7
370
    15
100
AcDbLine
 10
63.0910402576
 20
97.9926952423
 30
0.0
 11
63.0910402576
 21
47.9926952423
 31
0.0
  0
ARC
  5
52
330
1F
100
AcDbEntity
  8
0
  6
Continuous
 62
     7
370
    15
100
AcDbCircle
 10
73.0910402576
 20
52.9926952423
 30
0.0
 40
5.0
100
AcDbArc
 50
180.0
 51
270.0
  0
LINE
  5
53
330
1F
100
AcDbEntity
  8
0
  6
Continuous
 62
     7
370
    15
100
AcDbLine
 10
73.0910402576
 20
47.9926952423
 30
0.0
 11
98.0910402576
 21
47.9926952423
 31
0.0
  0
ARC
  5
54
330
1F
100
AcDbEntity
  8
0
  6
Continuous
 62
     7
370
    15
100
AcDbCircle
 10
98.0910402576
 20
52.9926952423
 30
0.0
 40
5.000000000000014
100
AcDbArc
 50
270.0
 51
0.0
  0
LINE
  5
55
330
1F
100
AcDbEntity
  8
0
  6
Continuous
 62
     7
370
    15
100
AcDbLine
 10
103.0910402576
 20
52.9926952423
 30
0.0
 11
103.0910402576
 21
77.9926952423
 31
0.0
  0
ARC
  5
56
330
1F
100
AcDbEntity
  8
0
  6
Continuous
 62
     7
370
    15
100
AcDbCircle
 10
98.0910402576
 20
77.9926952423
 30
0.0
 40
5.000000000000014
100
AcDbArc
 50
0.0
 51
90.0
  0
LINE
  5
57
330
1F
100
AcDbEntity
  8
0
  6
Continuous
 62
     7
370
    15
100
AcDbLine
 10
98.0910402576
 20
82.9926952423
 30
0.0
 11
73.0910402576
 21
82.9926952423
 31
0.0
  0
ARC
  5
58
330
1F
100
AcDbEntity
  8
0
  6
Continuous
 62
     7
370
    15
100
AcDbCircle
 10
73.0910402576
 20
77.9926952423
 30
0.0
 40
5.0
100
AcDbArc
 50
90.0
 51
180.0
  0
LINE
  5
59
330
1F
100
AcDbEntity
  8
0
  6
Continuous
 62
     7
370
    15
100
AcDbLine
 10
68.0910402576
 20
77.9926952423
 30
0.0
 11
68.0910402576
 21
52.9926952423
 31
0.0
  0
CIRCLE
  5
5A
330
1F
100
AcDbEntity
  8
0
  6
Continuous
 62
     7
370
    15
100
AcDbCircle
 10
98.0910402576
 20
92.9926952423
 30
0.0
 40
5.953124999999986
  0
CIRCLE
  5
5B
330
1F
100
AcDbEntity
  8
0
  6
Continuous
 62
     7
370
    15
100
AcDbCircle
 10
73.0910402576
 20
92.9926952423
 30
0.0
 40
5.953124999999986
  0
CIRCLE
  5
5C
330
1F
100
AcDbEntity
  8
0
  6
Continuous
 62
     7
370
    15
100
AcDbCircle
 10
85.5910402576
 20
92.9926952423
 30
0.0
 40
2.978149999999943
  0
DIMENSION
  5
5D
330
1F
100
AcDbEntity
  8
0
  6
Continuous
 62
     7
370
     0
100
AcDbDimension
  2
*D2
 10
35.0910402576
 20
47.9926952423
 30
0.0
 11
35.0910402576
 21
63.8263421692
 31
0.0
 70
   160
  1
(<>)
 71
     2
 42
-1.0
  3
SLDDIMSTYLE0
100
AcDbAlignedDimension
 13
73.0910402576
 23
82.9926952423
 33
0.0
 14
73.0910402576
 24
47.9926952423
 34
0.0
 50
90.0
100
AcDbRotatedDimension
  0
DIMENSION
  5
72
330
1F
100
AcDbEntity
  8
0
  6
Continuous
 62
     7
370
     0
100
AcDbDimension
  2
*D3
 10
103.0910402576
 20
20.9926952423
 30
0.0
 11
118.0910402576
 21
20.9926952423
 31
0.0
 70
   160
  1
(<>)
 71
     2
 42
-1.0
  3
SLDDIMSTYLE0
100
AcDbAlignedDimension
 13
68.0910402576
 23
52.9926952423
 33
0.0
 14
103.0910402576
 24
52.9926952423
 34
0.0
100
AcDbRotatedDimension
  0
DIMENSION
  5
86
330
1F
100
AcDbEntity
  8
0
  6
Continuous
 62
     7
370
     0
100
AcDbDimension
  2
*D4
 10
57.4814013335
 20
102.9926952423
 30
0.0
 11
57.4814013335
 21
106.7905183558
 31
0.0
 70
   160
  1
(<>)
 71
     2
 42
-1.0
  3
SLDDIMSTYLE0
100
AcDbAlignedDimension
 13
69.9128902576
 23
92.9926952423
 33
0.0
 14
68.0910402576
 24
102.9926952423
 34
0.0
 50
90.0
100
AcDbRotatedDimension
  0
DIMENSION
  5
9B
330
1F
100
AcDbEntity
  8
0
  6
Continuous
 62
     7
370
     0
100
AcDbDimension
  2
*D5
 10
74.138272409
 20
89.0836669632
 30
0.0
 11
31.1709436093
 21
118.6646189188
 31
0.0
 70
   163
  1
<>X %%c 2.38[0.09] {\fGDT;x} 10[0.39]\P
 71
     1
 42
-1.0
  3
SLDDIMSTYLE1
100
AcDbDiametricDimension
 15
71.5505172859
 25
98.7430418614
 35
0.0
 40
0.0
  0
DIMENSION
  5
B3
330
1F
100
AcDbEntity
  8
0
  6
Continuous
 62
     7
370
     0
100
AcDbDimension
  2
*D7
 10
84.8226244418
 20
90.1219062294
 30
0.0
 11
124.2991605189
 21
122.913912314
 31
0.0
 70
   163
  1
<> THRU ALL\P0-80 UNF - 1B THRU ALL\P
 71
     1
 42
-1.0
  3
SLDDIMSTYLE2
100
AcDbDiametricDimension
 15
86.3610850317
 25
95.8695700169
 35
0.0
 40
0.0
  0
INSERT
  5
D1
330
1F
100
AcDbEntity
  8
0
  6
Continuous
 62
     7
370
     0
100
AcDbBlockReference
  2
SW_CENTERMARKSYMBOL_0
 10
85.5910402576
 20
92.9926952423
 30
0.0
  0
INSERT
  5
DD
330
1F
100
AcDbEntity
  8
0
  6
Continuous
 62
     7
370
     0
100
AcDbBlockReference
  2
SW_CENTERMARKSYMBOL_1
 10
98.0910402576
 20
92.9926952423
 30
0.0
  0
INSERT
  5
E9
330
1F
100
AcDbEntity
  8
0
  6
Continuous
 62
     7
370
     0
100
AcDbBlockReference
  2
SW_CENTERMARKSYMBOL_2
 10
73.0910402576
 20
92.9926952423
 30
0.0
  0
LINE
  5
EA
330
1F
100
AcDbEntity
  8
0
  6
HIDDEN
 62
     7
370
     0
100
AcDbLine
 10
85.5910402576
 20
122.4492376117
 30
0.0
 11
85.5910402576
 21
15.8227471824
 31
0.0
  0
LINE
  5
EB
330
1F
100
AcDbEntity
  8
0
  6
Continuous
 62
     7
370
     0
100
AcDbLine
 10
85.5910402576
 20
122.4492376117
 30
0.0
 11
72.8910402576
 21
122.4492376117
 31
0.0
  0
SOLID
  5
EC
330
1F
100
AcDbEntity
  8
0
  6
Continuous
 62
     7
370
     0
100
AcDbTrace
 10
72.8910402576
 20
122.4492376117
 30
0.0
 11
79.2410402576
 21
121.4332376117
 31
0.0
 12
79.2410402576
 22
123.4652376117
 32
0.0
 13
79.2410402576
 23
123.4652376117
 33
0.0
  0
LINE
  5
ED
330
1F
100
AcDbEntity
  8
0
  6
Continuous
 62
     7
370
     0
100
AcDbLine
 10
85.5910402576
 20
15.8227471824
 30
0.0
 11
72.8910402576
 21
15.8227471824
 31
0.0
  0
SOLID
  5
EE
330
1F
100
AcDbEntity
  8
0
  6
Continuous
 62
     7
370
     0
100
AcDbTrace
 10
72.8910402576
 20
15.8227471824
 30
0.0
 11
79.2410402576
 21
14.8067471824
 31
0.0
 12
79.2410402576
 22
16.8387471824
 32
0.0
 13
79.2410402576
 23
16.8387471824
 33
0.0
  0
MTEXT
  5
EF
330
1F
100
AcDbEntity
  8
0
  6
Continuous
 62
     7
100
AcDbMText
 10
68.8058415733
 20
124.9702152384
 30
0.0
 40
3.175
 41
0.0
 71
     1
 72
     1
  1
A
  7
SLDTEXTSTYLE0
 73
     1
 44
1.0
  0
MTEXT
  5
F0
330
1F
100
AcDbEntity
  8
0
  6
Continuous
 62
     7
100
AcDbMText
 10
68.8058415733
 20
18.3437248091
 30
0.0
 40
3.175
 41
0.0
 71
     1
 72
     1
  1
A
  7
SLDTEXTSTYLE0
 73
     1
 44
1.0
  0
LINE
  5
F1
330
1F
100
AcDbEntity
  8
0
  6
HIDDEN
 62
     7
370
     0
100
AcDbLine
 10
44.4835671327
 20
92.9926952423
 30
0.0
 11
128.0414532704
 21
92.9926952423
 31
0.0
  0
LINE
  5
F2
330
1F
100
AcDbEntity
  8
0
  6
Continuous
 62
     7
370
     0
100
AcDbLine
 10
44.4835671327
 20
92.9926952423
 30
0.0
 11
44.4835671327
 21
80.2926952423
 31
0.0
  0
SOLID
  5
F3
330
1F
100
AcDbEntity
  8
0
  6
Continuous
 62
     7
370
     0
100
AcDbTrace
 10
44.4835671327
 20
80.2926952423
 30
0.0
 11
45.4995671327
 21
86.6426952423
 31
0.0
 12
43.4675671327
 22
86.6426952423
 32
0.0
 13
43.4675671327
 23
86.6426952423
 33
0.0
  0
LINE
  5
F4
330
1F
100
AcDbEntity
  8
0
  6
Continuous
 62
     7
370
     0
100
AcDbLine
 10
128.0414532704
 20
92.9926952423
 30
0.0
 11
128.0414532704
 21
80.2926952423
 31
0.0
  0
SOLID
  5
F5
330
1F
100
AcDbEntity
  8
0
  6
Continuous
 62
     7
370
     0
100
AcDbTrace
 10
128.0414532704
 20
80.2926952423
 30
0.0
 11
129.0574532704
 21
86.6426952423
 31
0.0
 12
127.0254532704
 22
86.6426952423
 32
0.0
 13
127.0254532704
 23
86.6426952423
 33
0.0
  0
MTEXT
  5
F6
330
1F
100
AcDbEntity
  8
0
  6
Continuous
 62
     7
100
AcDbMText
 10
43.2686381559
 20
79.2843041916
 30
0.0
 40
3.175
 41
0.0
 71
     1
 72
     1
  1
B
  7
SLDTEXTSTYLE0
 73
     1
 44
1.0
  0
MTEXT
  5
F7
330
1F
100
AcDbEntity
  8
0
  6
Continuous
 62
     7
100
AcDbMText
 10
126.8265242937
 20
79.2843041916
 30
0.0
 40
3.175
 41
0.0
 71
     1
 72
     1
  1
B
  7
SLDTEXTSTYLE0
 73
     1
 44
1.0
  0
LINE
  5
F8
330
1F
100
AcDbEntity
  8
0
  6
Continuous
 62
     7
370
    15
100
AcDbLine
 10
201.8551319544
 20
95.9708452423
 30
0.0
 11
201.8551319544
 21
90.0145452423
 31
0.0
  0
LINE
  5
F9
330
1F
100
AcDbEntity
  8
0
  6
Continuous
 62
     7
370
    15
100
AcDbLine
 10
201.8551319544
 20
90.0145452423
 30
0.0
 11
178.0426319544
 21
90.0145452423
 31
0.0
  0
LINE
  5
FA
330
1F
100
AcDbEntity
  8
0
  6
Continuous
 62
     7
370
    15
100
AcDbLine
 10
178.0426319544
 20
95.9708452423
 30
0.0
 11
178.0426319544
 21
90.0145452423
 31
0.0
  0
LINE
  5
FB
330
1F
100
AcDbEntity
  8
0
  6
Continuous
 62
     7
370
    15
100
AcDbLine
 10
178.0426319544
 20
95.9708452423
 30
0.0
 11
201.8551319544
 21
95.9708452423
 31
0.0
  0
LINE
  5
FC
330
1F
100
AcDbEntity
  8
0
  6
Continuous
 62
     7
370
    15
100
AcDbLine
 10
178.0426319544
 20
82.9926952423
 30
0.0
 11
178.0426319544
 21
90.0145452423
 31
0.0
  0
LINE
  5
FD
330
1F
100
AcDbEntity
  8
0
  6
Continuous
 62
     7
370
    15
100
AcDbLine
 10
178.0426319544
 20
82.9926952423
 30
0.0
 11
201.8551319544
 21
82.9926952423
 31
0.0
  0
LINE
  5
FE
330
1F
100
AcDbEntity
  8
0
  6
Continuous
 62
     7
370
    15
100
AcDbLine
 10
201.8551319544
 20
82.9926952423
 30
0.0
 11
201.8551319544
 21
90.0145452423
 31
0.0
  0
LINE
  5
FF
330
1F
100
AcDbEntity
  8
0
  6
Continuous
 62
     7
370
    15
100
AcDbLine
 10
178.0426319544
 20
95.9708452423
 30
0.0
 11
178.0426319544
 21
102.9926952423
 31
0.0
  0
LINE
  5
100
330
1F
100
AcDbEntity
  8
0
  6
Continuous
 62
     7
370
    15
100
AcDbLine
 10
201.8551319544
 20
95.9708452423
 30
0.0
 11
201.8551319544
 21
102.9926952423
 31
0.0
  0
LINE
  5
101
330
1F
100
AcDbEntity
  8
0
  6
Continuous
 62
     7
370
    15
100
AcDbLine
 10
201.8551319544
 20
102.9926952423
 30
0.0
 11
178.0426319544
 21
102.9926952423
 31
0.0
  0
LINE
  5
102
330
1F
100
AcDbEntity
  8
0
  6
Continuous
 62
     7
370
    15
100
AcDbLine
 10
178.0426319544
 20
42.9926952423
 30
0.0
 11
178.0426319544
 21
47.9926952423
 31
0.0
  0
LINE
  5
103
330
1F
100
AcDbEntity
  8
0
  6
Continuous
 62
     7
370
    15
100
AcDbLine
 10
201.8551319544
 20
47.9926952423
 30
0.0
 11
178.0426319544
 21
47.9926952423
 31
0.0
  0
LINE
  5
104
330
1F
100
AcDbEntity
  8
0
  6
Continuous
 62
     7
370
    15
100
AcDbLine
 10
201.8551319544
 20
42.9926952423
 30
0.0
 11
201.8551319544
 21
47.9926952423
 31
0.0
  0
LINE
  5
105
330
1F
100
AcDbEntity
  8
0
  6
Continuous
 62
     7
370
    15
100
AcDbLine
 10
178.0426319544
 20
42.9926952423
 30
0.0
 11
201.8551319544
 21
42.9926952423
 31
0.0
  0
LINE
  5
106
330
1F
100
AcDbEntity
  8
0
  6
Continuous
 62
     7
370
    15
100
AcDbLine
 10
201.8551319544
 20
77.9926952423
 30
0.0
 11
178.0426319544
 21
77.9926952423
 31
0.0
  0
LINE
  5
107
330
1F
100
AcDbEntity
  8
0
  6
Continuous
 62
     7
370
    15
100
AcDbLine
 10
178.0426319544
 20
77.9926952423
 30
0.0
 11
178.0426319544
 21
82.9926952423
 31
0.0
  0
LINE
  5
108
330
1F
100
AcDbEntity
  8
0
  6
Continuous
 62
     7
370
    15
100
AcDbLine
 10
201.8551319544
 20
82.9926952423
 30
0.0
 11
201.8551319544
 21
77.9926952423
 31
0.0
  0
LINE
  5
109
330
1F
100
AcDbEntity
  8
0
  6
Continuous
 62
     7
370
    15
100
AcDbLine
 10
178.0426319544
 20
52.9926952423
 30
0.0
 11
201.8551319544
 21
52.9926952423
 31
0.0
  0
LINE
  5
10A
330
1F
100
AcDbEntity
  8
0
  6
Continuous
 62
     7
370
    15
100
AcDbLine
 10
178.0426319544
 20
47.9926952423
 30
0.0
 11
178.0426319544
 21
52.9926952423
 31
0.0
  0
LINE
  5
10B
330
1F
100
AcDbEntity
  8
0
  6
Continuous
 62
     7
370
    15
100
AcDbLine
 10
201.8551319544
 20
52.9926952423
 30
0.0
 11
201.8551319544
 21
47.9926952423
 31
0.0
  0
LINE
  5
10C
330
1F
100
AcDbEntity
  8
0
  6
Continuous
 62
     7
370
    15
100
AcDbLine
 10
178.0426319544
 20
77.9926952423
 30
0.0
 11
178.0426319544
 21
52.9926952423
 31
0.0
  0
LINE
  5
10D
330
1F
100
AcDbEntity
  8
0
  6
Continuous
 62
     7
370
    15
100
AcDbLine
 10
201.8551319544
 20
77.9926952423
 30
0.0
 11
201.8551319544
 21
52.9926952423
 31
0.0
  0
HATCH
  5
10E
330
1F
100
AcDbEntity
  8
0
  6
Continuous
 62
     7
370
     0
100
AcDbHatch
 10
0.0
 20
0.0
 30
0.0
210
0.0
220
0.0
230
1.0
  2
ANSI31
 70
     0
 71
     0
 91
        1
 92
        0
 93
        4
 72
     1
 10
178.0426319543828
 20
90.01454524232183
 11
178.0426319543828
 21
82.99269524232179
 72
     1
 10
178.0426319543828
 20
82.99269524232179
 11
201.8551319543828
 21
82.99269524232179
 72
     1
 10
201.8551319543828
 20
82.99269524232179
 11
201.8551319543828
 21
90.0145452423218
 72
     1
 10
201.8551319543828
 20
90.0145452423218
 11
178.0426319543828
 21
90.01454524232183
 97
        0
 75
     0
 76
     1
 52
0.0
 41
1.0
 77
     0
 78
     1
 53
45.0
 43
0.0
 44
0.0
 45
-2.245064030267288
 46
2.245064030267288
 79
     0
 98
        1
 10
0.0
 20
0.0
  0
HATCH
  5
10F
330
1F
100
AcDbEntity
  8
0
  6
Continuous
 62
     7
370
     0
100
AcDbHatch
 10
0.0
 20
0.0
 30
0.0
210
0.0
220
0.0
230
1.0
  2
ANSI31
 70
     0
 71
     0
 91
        1
 92
        0
 93
        4
 72
     1
 10
201.8551319543828
 20
95.97084524232177
 11
201.8551319543828
 21
102.9926952423218
 72
     1
 10
201.8551319543828
 20
102.9926952423218
 11
178.0426319543828
 21
102.9926952423218
 72
     1
 10
178.0426319543828
 20
102.9926952423218
 11
178.0426319543828
 21
95.97084524232174
 72
     1
 10
178.0426319543828
 20
95.97084524232174
 11
201.8551319543828
 21
95.97084524232177
 97
        0
 75
     0
 76
     1
 52
0.0
 41
1.0
 77
     0
 78
     1
 53
45.0
 43
0.0
 44
0.0
 45
-2.245064030267288
 46
2.245064030267288
 79
     0
 98
        1
 10
0.0
 20
0.0
  0
HATCH
  5
110
330
1F
100
AcDbEntity
  8
0
  6
Continuous
 62
     7
370
     0
100
AcDbHatch
 10
0.0
 20
0.0
 30
0.0
210
0.0
220
0.0
230
1.0
  2
ANSI31
 70
     0
 71
     0
 91
        1
 92
        0
 93
        4
 72
     1
 10
178.0426319543828
 20
47.99269524232179
 11
178.0426319543828
 21
42.9926952423218
 72
     1
 10
178.0426319543828
 20
42.9926952423218
 11
201.8551319543828
 21
42.9926952423218
 72
     1
 10
201.8551319543828
 20
42.9926952423218
 11
201.8551319543828
 21
47.99269524232179
 72
     1
 10
201.8551319543828
 20
47.99269524232179
 11
178.0426319543828
 21
47.99269524232179
 97
        0
 75
     0
 76
     1
 52
0.0
 41
1.0
 77
     0
 78
     1
 53
45.0
 43
0.0
 44
0.0
 45
-2.245064030267288
 46
2.245064030267288
 79
     0
 98
        1
 10
0.0
 20
0.0
  0
DIMENSION
  5
111
330
1F
100
AcDbEntity
  8
0
  6
Continuous
 62
     7
370
     0
100
AcDbDimension
  2
*D11
 10
178.0426319544
 20
136.9926952423
 30
0.0
 11
189.9488819544
 21
136.9926952423
 31
0.0
 70
   160
  1
(<>)
 71
     2
 42
-1.0
  3
SLDDIMSTYLE0
100
AcDbAlignedDimension
 13
201.8551319544
 23
102.9926952423
 33
0.0
 14
178.0426319544
 24
102.9926952423
 34
0.0
100
AcDbRotatedDimension
  0
DIMENSION
  5
123
330
1F
100
AcDbEntity
  8
0
  6
Continuous
 62
     7
370
     0
100
AcDbDimension
  2
*D12
 10
221.6405695936
 20
42.9926952423
 30
0.0
 11
221.6405695936
 21
69.0229225102
 31
0.0
 70
   160
  1
(<>)
 71
     2
 42
-1.0
  3
SLDDIMSTYLE0
100
AcDbAlignedDimension
 13
201.8551319544
 23
102.9926952423
 33
0.0
 14
201.8551319544
 24
42.9926952423
 34
0.0
 50
90.0
100
AcDbRotatedDimension
  0
MTEXT
  5
137
330
1F
100
AcDbEntity
  8
0
  6
Continuous
 62
     7
370
     0
100
AcDbMText
 10
176.8343671937
 20
33.8050339739
 30
0.0
 40
3.175
 41
0.0
 71
     1
 72
     1
  1
SECTION A-A
  7
SLDTEXTSTYLE0
 73
     1
 44
1.0
  0
LINE
  5
138
330
1F
100
AcDbEntity
  8
0
  6
Continuous
 62
     7
370
    15
100
AcDbLine
 10
79.0441652576
 20
185.6037126113
 30
0.0
 11
79.0441652576
 21
161.7912126113
 31
0.0
  0
LINE
  5
139
330
1F
100
AcDbEntity
  8
0
  6
Continuous
 62
     7
370
    15
100
AcDbLine
 10
82.6128902576
 20
161.7912126113
 30
0.0
 11
82.6128902576
 21
185.6037126113
 31
0.0
  0
LINE
  5
13A
330
1F
100
AcDbEntity
  8
0
  6
Continuous
 62
     7
370
    15
100
AcDbLine
 10
82.6128902576
 20
161.7912126113
 30
0.0
 11
79.0441652576
 21
161.7912126113
 31
0.0
  0
LINE
  5
13B
330
1F
100
AcDbEntity
  8
0
  6
Continuous
 62
     7
370
    15
100
AcDbLine
 10
82.6128902576
 20
185.6037126113
 30
0.0
 11
79.0441652576
 21
185.6037126113
 31
0.0
  0
LINE
  5
13C
330
1F
100
AcDbEntity
  8
0
  6
Continuous
 62
     7
370
    15
100
AcDbLine
 10
67.1379152576
 20
161.7912126113
 30
0.0
 11
79.0441652576
 21
161.7912126113
 31
0.0
  0
LINE
  5
13D
330
1F
100
AcDbEntity
  8
0
  6
Continuous
 62
     7
370
    15
100
AcDbLine
 10
67.1379152576
 20
161.7912126113
 30
0.0
 11
67.1379152576
 21
185.6037126113
 31
0.0
  0
LINE
  5
13E
330
1F
100
AcDbEntity
  8
0
  6
Continuous
 62
     7
370
    15
100
AcDbLine
 10
67.1379152576
 20
185.6037126113
 30
0.0
 11
79.0441652576
 21
185.6037126113
 31
0.0
  0
LINE
  5
13F
330
1F
100
AcDbEntity
  8
0
  6
Continuous
 62
     7
370
    15
100
AcDbLine
 10
88.5691902576
 20
185.6037126113
 30
0.0
 11
88.5691902576
 21
161.7912126113
 31
0.0
  0
LINE
  5
140
330
1F
100
AcDbEntity
  8
0
  6
Continuous
 62
     7
370
    15
100
AcDbLine
 10
82.6128902576
 20
161.7912126113
 30
0.0
 11
88.5691902576
 21
161.7912126113
 31
0.0
  0
LINE
  5
141
330
1F
100
AcDbEntity
  8
0
  6
Continuous
 62
     7
370
    15
100
AcDbLine
 10
82.6128902576
 20
185.6037126113
 30
0.0
 11
88.5691902576
 21
185.6037126113
 31
0.0
  0
LINE
  5
142
330
1F
100
AcDbEntity
  8
0
  6
Continuous
 62
     7
370
    15
100
AcDbLine
 10
104.0441652576
 20
185.6037126113
 30
0.0
 11
104.0441652576
 21
161.7912126113
 31
0.0
  0
LINE
  5
143
330
1F
100
AcDbEntity
  8
0
  6
Continuous
 62
     7
370
    15
100
AcDbLine
 10
92.1379152576
 20
161.7912126113
 30
0.0
 11
104.0441652576
 21
161.7912126113
 31
0.0
  0
LINE
  5
144
330
1F
100
AcDbEntity
  8
0
  6
Continuous
 62
     7
370
    15
100
AcDbLine
 10
92.1379152576
 20
161.7912126113
 30
0.0
 11
92.1379152576
 21
185.6037126113
 31
0.0
  0
LINE
  5
145
330
1F
100
AcDbEntity
  8
0
  6
Continuous
 62
     7
370
    15
100
AcDbLine
 10
92.1379152576
 20
185.6037126113
 30
0.0
 11
104.0441652576
 21
185.6037126113
 31
0.0
  0
LINE
  5
146
330
1F
100
AcDbEntity
  8
0
  6
Continuous
 62
     7
370
    15
100
AcDbLine
 10
67.1379152576
 20
161.7912126113
 30
0.0
 11
63.0910402576
 21
161.7912126113
 31
0.0
  0
LINE
  5
147
330
1F
100
AcDbEntity
  8
0
  6
Continuous
 62
     7
370
    15
100
AcDbLine
 10
67.1379152576
 20
185.6037126113
 30
0.0
 11
63.0910402576
 21
185.6037126113
 31
0.0
  0
LINE
  5
148
330
1F
100
AcDbEntity
  8
0
  6
Continuous
 62
     7
370
    15
100
AcDbLine
 10
63.0910402576
 20
185.6037126113
 30
0.0
 11
63.0910402576
 21
161.7912126113
 31
0.0
  0
LINE
  5
149
330
1F
100
AcDbEntity
  8
0
  6
Continuous
 62
     7
370
    15
100
AcDbLine
 10
108.0910402576
 20
161.7912126113
 30
0.0
 11
108.0910402576
 21
185.6037126113
 31
0.0
  0
LINE
  5
14A
330
1F
100
AcDbEntity
  8
0
  6
Continuous
 62
     7
370
    15
100
AcDbLine
 10
108.0910402576
 20
161.7912126113
 30
0.0
 11
104.0441652576
 21
161.7912126113
 31
0.0
  0
LINE
  5
14B
330
1F
100
AcDbEntity
  8
0
  6
Continuous
 62
     7
370
    15
100
AcDbLine
 10
108.0910402576
 20
185.6037126113
 30
0.0
 11
104.0441652576
 21
185.6037126113
 31
0.0
  0
LINE
  5
14C
330
1F
100
AcDbEntity
  8
0
  6
Continuous
 62
     7
370
    15
100
AcDbLine
 10
92.1379152576
 20
161.7912126113
 30
0.0
 11
88.5691902576
 21
161.7912126113
 31
0.0
  0
LINE
  5
14D
330
1F
100
AcDbEntity
  8
0
  6
Continuous
 62
     7
370
    15
100
AcDbLine
 10
92.1379152576
 20
185.6037126113
 30
0.0
 11
88.5691902576
 21
185.6037126113
 31
0.0
  0
HATCH
  5
14E
330
1F
100
AcDbEntity
  8
0
  6
Continuous
 62
     7
370
     0
100
AcDbHatch
 10
0.0
 20
0.0
 30
0.0
210
0.0
220
0.0
230
1.0
  2
ANSI31
 70
     0
 71
     0
 91
        1
 92
        0
 93
        4
 72
     1
 10
79.04416525761876
 20
161.7912126113141
 11
82.61289025761883
 21
161.7912126113141
 72
     1
 10
82.61289025761883
 20
161.7912126113141
 11
82.61289025761877
 21
185.603712611314
 72
     1
 10
82.61289025761877
 20
185.603712611314
 11
79.04416525761876
 21
185.603712611314
 72
     1
 10
79.04416525761876
 20
185.603712611314
 11
79.04416525761876
 21
161.7912126113141
 97
        0
 75
     0
 76
     1
 52
0.0
 41
1.0
 77
     0
 78
     1
 53
45.0
 43
0.0
 44
0.0
 45
-2.245064030267288
 46
2.245064030267288
 79
     0
 98
        1
 10
0.0
 20
0.0
  0
HATCH
  5
14F
330
1F
100
AcDbEntity
  8
0
  6
Continuous
 62
     7
370
     0
100
AcDbHatch
 10
0.0
 20
0.0
 30
0.0
210
0.0
220
0.0
230
1.0
  2
ANSI31
 70
     0
 71
     0
 91
        1
 92
        0
 93
        4
 72
     1
 10
67.13791525761879
 20
185.603712611314
 11
63.09104025761876
 21
185.603712611314
 72
     1
 10
63.09104025761876
 20
185.603712611314
 11
63.09104025761876
 21
161.7912126113141
 72
     1
 10
63.09104025761876
 20
161.7912126113141
 11
67.13791525761877
 21
161.7912126113141
 72
     1
 10
67.13791525761877
 20
161.7912126113141
 11
67.13791525761879
 21
185.603712611314
 97
        0
 75
     0
 76
     1
 52
0.0
 41
1.0
 77
     0
 78
     1
 53
45.0
 43
0.0
 44
0.0
 45
-2.245064030267288
 46
2.245064030267288
 79
     0
 98
        1
 10
0.0
 20
0.0
  0
HATCH
  5
150
330
1F
100
AcDbEntity
  8
0
  6
Continuous
 62
     7
370
     0
100
AcDbHatch
 10
0.0
 20
0.0
 30
0.0
210
0.0
220
0.0
230
1.0
  2
ANSI31
 70
     0
 71
     0
 91
        1
 92
        0
 93
        4
 72
     1
 10
104.0441652576188
 20
161.7912126113141
 11
108.0910402576188
 21
161.7912126113141
 72
     1
 10
108.0910402576188
 20
161.7912126113141
 11
108.0910402576188
 21
185.603712611314
 72
     1
 10
108.0910402576188
 20
185.603712611314
 11
104.0441652576188
 21
185.603712611314
 72
     1
 10
104.0441652576188
 20
185.603712611314
 11
104.0441652576188
 21
161.7912126113141
 97
        0
 75
     0
 76
     1
 52
0.0
 41
1.0
 77
     0
 78
     1
 53
45.0
 43
0.0
 44
0.0
 45
-2.245064030267288
 46
2.245064030267288
 79
     0
 98
        1
 10
0.0
 20
0.0
  0
HATCH
  5
151
330
1F
100
AcDbEntity
  8
0
  6
Continuous
 62
     7
370
     0
100
AcDbHatch
 10
0.0
 20
0.0
 30
0.0
210
0.0
220
0.0
230
1.0
  2
ANSI31
 70
     0
 71
     0
 91
        1
 92
        0
 93
        4
 72
     1
 10
92.13791525761877
 20
185.603712611314
 11
88.56919025761876
 21
185.603712611314
 72
     1
 10
88.56919025761876
 20
185.603712611314
 11
88.5691902576187
 21
161.7912126113141
 72
     1
 10
88.5691902576187
 20
161.7912126113141
 11
92.13791525761876
 21
161.7912126113141
 72
     1
 10
92.13791525761876
 20
161.7912126113141
 11
92.13791525761877
 21
185.603712611314
 97
        0
 75
     0
 76
     1
 52
0.0
 41
1.0
 77
     0
 78
     1
 53
45.0
 43
0.0
 44
0.0
 45
-2.245064030267288
 46
2.245064030267288
 79
     0
 98
        1
 10
0.0
 20
0.0
  0
DIMENSION
  5
152
330
1F
100
AcDbEntity
  8
0
  6
Continuous
 62
     7
370
     0
100
AcDbDimension
  2
*D13
 10
108.0910402576
 20
201.6037126113
 30
0.0
 11
85.5910402576
 21
201.6037126113
 31
0.0
 70
   160
  1
(<>)
 71
     2
 42
-1.0
  3
SLDDIMSTYLE0
100
AcDbAlignedDimension
 13
63.0910402576
 23
185.6037126113
 33
0.0
 14
108.0910402576
 24
185.6037126113
 34
0.0
100
AcDbRotatedDimension
  0
MTEXT
  5
166
330
1F
100
AcDbEntity
  8
0
  6
Continuous
 62
     7
370
     0
100
AcDbMText
 10
73.1776716972
 20
156.2223013429
 30
0.0
 40
3.175
 41
0.0
 71
     1
 72
     1
  1
SECTION B-B
  7
SLDTEXTSTYLE0
 73
     1
 44
1.0
  0
ENDSEC
  0
SECTION
  2
OBJECTS
  0
DICTIONARY
  5
C
330
0
100
AcDbDictionary
281
     1
  3
ACAD_GROUP
350
D
  3
ACAD_LAYOUT
350
1A
  3
ACAD_MLEADERSTYLE
350
168
  3
ACAD_MLINESTYLE
350
17
  3
ACAD_PLOTSETTINGS
350
19
  3
ACAD_PLOTSTYLENAME
350
E
  3
ACAD_TABLESTYLE
350
167
  3
ACAD_VISUALSTYLE
350
2A
  3
AcDbVariableDictionary
350
169
  0
DICTIONARY
  5
D
102
{ACAD_REACTORS
330
C
102
}
330
C
100
AcDbDictionary
281
     1
  0
DICTIONARY
  5
1A
102
{ACAD_REACTORS
330
C
102
}
330
C
100
AcDbDictionary
281
     1
  3
Layout1
350
1E
  3
Layout2
350
26
  3
Model
350
22
  0
DICTIONARY
  5
168
102
{ACAD_REACTORS
330
C
102
}
330
C
100
AcDbDictionary
281
     1
  0
DICTIONARY
  5
17
102
{ACAD_REACTORS
330
C
102
}
330
C
100
AcDbDictionary
281
     1
  3
Standard
350
18
  0
DICTIONARY
  5
19
102
{ACAD_REACTORS
330
C
102
}
330
C
100
AcDbDictionary
281
     1
  0
ACDBDICTIONARYWDFLT
  5
E
102
{ACAD_REACTORS
330
C
102
}
330
C
100
AcDbDictionary
281
     1
  3
Normal
350
F
100
AcDbDictionaryWithDefault
340
F
  0
DICTIONARY
  5
167
102
{ACAD_REACTORS
330
C
102
}
330
C
100
AcDbDictionary
281
     1
  0
DICTIONARY
  5
2A
102
{ACAD_REACTORS
330
C
102
}
330
C
100
AcDbDictionary
281
     1
  3
2dWireframe
350
2F
  3
3D Hidden
350
31
  3
3dWireframe
350
30
  3
Basic
350
32
  3
Brighten
350
36
  3
ColorChange
350
3A
  3
Conceptual
350
34
  3
Dim
350
35
  3
Facepattern
350
39
  3
Flat
350
2B
  3
FlatWithEdges
350
2C
  3
Gouraud
350
2D
  3
GouraudWithEdges
350
2E
  3
Linepattern
350
38
  3
Realistic
350
33
  3
Thicken
350
37
  0
DICTIONARY
  5
169
102
{ACAD_REACTORS
330
C
102
}
330
C
100
AcDbDictionary
281
     1
  3
PSOLHEIGHT
350
16B
  3
PSOLWIDTH
350
16A
  0
LAYOUT
  5
1E
102
{ACAD_REACTORS
330
1A
102
}
330
1A
100
AcDbPlotSettings
  1

  2
none_device
  4

  6

 40
0.0
 41
0.0
 42
0.0
 43
0.0
 44
0.0
 45
0.0
 46
0.0
 47
0.0
 48
0.0
 49
0.0
140
0.0
141
0.0
142
1.0
143
1.0
 70
   688
 72
     0
 73
     0
 74
     5
  7

 75
    16
147
1.0
148
0.0
149
0.0
100
AcDbLayout
  1
Layout1
 70
     1
 71
     1
 10
0.0
 20
0.0
 11
420.0
 21
297.0
 12
0.0
 22
0.0
 32
0.0
 14
1.0000000000E+20
 24
1.0000000000E+20
 34
1.0000000000E+20
 15
-1.0000000000E+20
 25
-1.0000000000E+20
 35
-1.0000000000E+20
146
0.0
 13
0.0
 23
0.0
 33
0.0
 16
1.0
 26
0.0
 36
0.0
 17
0.0
 27
1.0
 37
0.0
 76
     0
330
1B
  0
LAYOUT
  5
26
102
{ACAD_REACTORS
330
1A
102
}
330
1A
100
AcDbPlotSettings
  1

  2
none_device
  4

  6

 40
0.0
 41
0.0
 42
0.0
 43
0.0
 44
0.0
 45
0.0
 46
0.0
 47
0.0
 48
0.0
 49
0.0
140
0.0
141
0.0
142
1.0
143
1.0
 70
   688
 72
     0
 73
     0
 74
     5
  7

 75
    16
147
1.0
148
0.0
149
0.0
100
AcDbLayout
  1
Layout2
 70
     1
 71
     2
 10
0.0
 20
0.0
 11
0.0
 21
0.0
 12
0.0
 22
0.0
 32
0.0
 14
0.0
 24
0.0
 34
0.0
 15
0.0
 25
0.0
 35
0.0
146
0.0
 13
0.0
 23
0.0
 33
0.0
 16
1.0
 26
0.0
 36
0.0
 17
0.0
 27
1.0
 37
0.0
 76
     0
330
23
  0
LAYOUT
  5
22
102
{ACAD_REACTORS
330
1A
102
}
330
1A
100
AcDbPlotSettings
  1

  2
none_device
  4

  6

 40
0.0
 41
0.0
 42
0.0
 43
0.0
 44
0.0
 45
0.0
 46
0.0
 47
0.0
 48
0.0
 49
0.0
140
0.0
141
0.0
142
1.0
143
1.0
 70
  1712
 72
     0
 73
     0
 74
     0
  7

 75
     0
147
1.0
148
0.0
149
0.0
100
AcDbLayout
  1
Model
 70
     1
 71
     0
 10
0.0
 20
0.0
 11
279.4
 21
215.9
 12
0.0
 22
0.0
 32
0.0
 14
0.0
 24
0.0
 34
0.0
 15
279.4
 25
215.9
 35
0.0
146
0.0
 13
0.0
 23
0.0
 33
0.0
 16
1.0
 26
0.0
 36
0.0
 17
0.0
 27
1.0
 37
0.0
 76
     0
330
1F
331
29
  0
MLINESTYLE
  5
18
102
{ACAD_REACTORS
330
17
102
}
330
17
100
AcDbMlineStyle
  2
Standard
 70
     0
  3

 62
   256
 51
90.0
 52
90.0
 71
     2
 49
0.5
 62
   256
  6
BYLAYER
 49
-0.5
 62
   256
  6
BYLAYER
  0
ACDBPLACEHOLDER
  5
F
102
{ACAD_REACTORS
330
E
102
}
330
E
  0
VISUALSTYLE
  5
2F
102
{ACAD_REACTORS
330
2A
102
}
330
2A
100
AcDbVisualStyle
  2
2dWireframe
 70
     4
 71
     0
 72
     2
 73
     0
 90
        0
 40
-0.6
 41
-30.0
 62
     5
 63
     7
 74
     1
 91
        4
 64
     7
 65
   257
 75
     1
175
     1
 42
1.0
 92
        0
 66
   257
 43
1.0
 76
     1
 77
     6
 78
     2
 67
     7
 79
     5
170
     0
171
     0
290
     0
174
     0
 93
        1
 44
0.0
173
     0
291
     0
 45
0.0
1001
ACAD
1000
AcDbSavedByObjectVersion
1070
     0
  0
VISUALSTYLE
  5
31
102
{ACAD_REACTORS
330
2A
102
}
330
2A
100
AcDbVisualStyle
  2
3D Hidden
 70
     6
 71
     1
 72
     2
 73
     2
 90
        0
 40
-0.6
 41
-30.0
 62
     5
 63
     7
 74
     2
 91
        2
 64
     7
 65
   257
 75
     2
175
     1
 42
40.0
 92
        0
 66
   257
 43
1.0
 76
     1
 77
     6
 78
     2
 67
     7
 79
     3
170
     0
171
     0
290
     0
174
     0
 93
        1
 44
0.0
173
     0
291
     0
 45
0.0
1001
ACAD
1000
AcDbSavedByObjectVersion
1070
     0
  0
VISUALSTYLE
  5
30
102
{ACAD_REACTORS
330
2A
102
}
330
2A
100
AcDbVisualStyle
  2
3dWireframe
 70
     5
 71
     0
 72
     2
 73
     0
 90
        0
 40
-0.6
 41
-30.0
 62
     5
 63
     7
 74
     1
 91
        4
 64
     7
 65
   257
 75
     1
175
     1
 42
1.0
 92
        0
 66
   257
 43
1.0
 76
     1
 77
     6
 78
     2
 67
     7
 79
     5
170
     0
171
     0
290
     0
174
     0
 93
        1
 44
0.0
173
     0
291
     0
 45
0.0
1001
ACAD
1000
AcDbSavedByObjectVersion
1070
     0
  0
VISUALSTYLE
  5
32
102
{ACAD_REACTORS
330
2A
102
}
330
2A
100
AcDbVisualStyle
  2
Basic
 70
     7
 71
     1
 72
     0
 73
     1
 90
        0
 40
-0.6
 41
-30.0
 62
     5
 63
     7
 74
     0
 91
        4
 64
     7
 65
   257
 75
     1
175
     1
 42
1.0
 92
        8
 66
     7
 43
1.0
 76
     1
 77
     6
 78
     2
 67
     7
 79
     5
170
     0
171
     0
290
     0
174
     0
 93
        1
 44
0.0
173
     0
291
     1
 45
0.0
1001
ACAD
1000
AcDbSavedByObjectVersion
1070
     0
  0
VISUALSTYLE
  5
36
102
{ACAD_REACTORS
330
2A
102
}
330
2A
100
AcDbVisualStyle
  2
Brighten
 70
    12
 71
     2
 72
     2
 73
     0
 90
        0
 40
-0.6
 41
-30.0
 62
     5
 63
     7
 74
     1
 91
        4
 64
     7
 65
   257
 75
     1
175
     1
 42
1.0
 92
        8
 66
     7
 43
1.0
 76
     1
 77
     6
 78
     2
 67
     7
 79
     5
170
     0
171
     0
290
     0
174
     0
 93
        1
 44
50.0
173
     0
291
     1
 45
0.0
1001
ACAD
1000
AcDbSavedByObjectVersion
1070
     0
  0
VISUALSTYLE
  5
3A
102
{ACAD_REACTORS
330
2A
102
}
330
2A
100
AcDbVisualStyle
  2
ColorChange
 70
    16
 71
     2
 72
     2
 73
     3
 90
        0
 40
-0.6
 41
-30.0
 62
     5
 63
     8
 74
     1
 91
        4
 64
     7
 65
   257
 75
     1
175
     1
 42
1.0
 92
        8
 66
     8
 43
1.0
 76
     1
 77
     6
 78
     2
 67
     7
 79
     5
170
     0
171
     0
290
     0
174
     0
 93
        1
 44
0.0
173
     0
291
     1
 45
0.0
1001
ACAD
1000
AcDbSavedByObjectVersion
1070
     0
  0
VISUALSTYLE
  5
34
102
{ACAD_REACTORS
330
2A
102
}
330
2A
100
AcDbVisualStyle
  2
Conceptual
 70
     9
 71
     3
 72
     2
 73
     0
 90
        0
 40
-0.6
 41
-30.0
 62
     5
 63
     7
 74
     2
 91
        2
 64
     7
 65
   257
 75
     1
175
     1
 42
40.0
 92
        8
 66
     7
 43
1.0
 76
     1
 77
     6
 78
     2
 67
     7
 79
     3
170
     0
171
     0
290
     0
174
     0
 93
        1
 44
0.0
173
     0
291
     0
 45
0.0
1001
ACAD
1000
AcDbSavedByObjectVersion
1070
     0
  0
VISUALSTYLE
  5
35
102
{ACAD_REACTORS
330
2A
102
}
330
2A
100
AcDbVisualStyle
  2
Dim
 70
    11
 71
     2
 72
     2
 73
     0
 90
        0
 40
-0.6
 41
-30.0
 62
     5
 63
     7
 74
     1
 91
        4
 64
     7
 65
   257
 75
     1
175
     1
 42
1.0
 92
        8
 66
     7
 43
1.0
 76
     1
 77
     6
 78
     2
 67
     7
 79
     5
170
     0
171
     0
290
     0
174
     0
 93
        1
 44
-50.0
173
     0
291
     1
 45
0.0
1001
ACAD
1000
AcDbSavedByObjectVersion
1070
     0
  0
VISUALSTYLE
  5
39
102
{ACAD_REACTORS
330
2A
102
}
330
2A
100
AcDbVisualStyle
  2
Facepattern
 70
    15
 71
     2
 72
     2
 73
     0
 90
        0
 40
-0.6
 41
-30.0
 62
     5
 63
     7
 74
     1
 91
        4
 64
     7
 65
   257
 75
     1
175
     1
 42
1.0
 92
        8
 66
     7
 43
1.0
 76
     1
 77
     6
 78
     2
 67
     7
 79
     5
170
     0
171
     0
290
     0
174
     0
 93
        1
 44
0.0
173
     0
291
     1
 45
0.0
1001
ACAD
1000
AcDbSavedByObjectVersion
1070
     0
  0
VISUALSTYLE
  5
2B
102
{ACAD_REACTORS
330
2A
102
}
330
2A
100
AcDbVisualStyle
  2
Flat
 70
     0
 71
     2
 72
     1
 73
     1
 90
        2
 40
-0.6
 41
30.0
 62
     5
 63
     7
 74
     0
 91
        4
 64
     7
 65
   257
 75
     1
175
     1
 42
1.0
 92
        8
 66
     7
 43
1.0
 76
     1
 77
     6
 78
     2
 67
     7
 79
     5
170
     0
171
     0
290
     0
174
     0
 93
       13
 44
0.0
173
     0
291
     1
 45
0.0
1001
ACAD
1000
AcDbSavedByObjectVersion
1070
     0
  0
VISUALSTYLE
  5
2C
102
{ACAD_REACTORS
330
2A
102
}
330
2A
100
AcDbVisualStyle
  2
FlatWithEdges
 70
     1
 71
     2
 72
     1
 73
     1
 90
        2
 40
-0.6
 41
30.0
 62
     5
 63
     7
 74
     1
 91
        4
 64
     7
 65
   257
 75
     1
175
     1
 42
1.0
 92
        0
 66
   257
 43
1.0
 76
     1
 77
     6
 78
     2
 67
     7
 79
     5
170
     0
171
     0
290
     0
174
     0
 93
       13
 44
0.0
173
     0
291
     1
 45
0.0
1001
ACAD
1000
AcDbSavedByObjectVersion
1070
     0
  0
VISUALSTYLE
  5
2D
102
{ACAD_REACTORS
330
2A
102
}
330
2A
100
AcDbVisualStyle
  2
Gouraud
 70
     2
 71
     2
 72
     2
 73
     1
 90
        2
 40
-0.6
 41
30.0
 62
     5
 63
     7
 74
     0
 91
        4
 64
     7
 65
   257
 75
     1
175
     1
 42
1.0
 92
        0
 66
     7
 43
1.0
 76
     1
 77
     6
 78
     2
 67
     7
 79
     5
170
     0
171
     0
290
     0
174
     0
 93
       13
 44
0.0
173
     0
291
     1
 45
0.0
1001
ACAD
1000
AcDbSavedByObjectVersion
1070
     0
  0
VISUALSTYLE
  5
2E
102
{ACAD_REACTORS
330
2A
102
}
330
2A
100
AcDbVisualStyle
  2
GouraudWithEdges
 70
     3
 71
     2
 72
     2
 73
     1
 90
        2
 40
-0.6
 41
30.0
 62
     5
 63
     7
 74
     1
 91
        4
 64
     7
 65
   257
 75
     1
175
     1
 42
1.0
 92
        0
 66
   257
 43
1.0
 76
     1
 77
     6
 78
     2
 67
     7
 79
     5
170
     0
171
     0
290
     0
174
     0
 93
       13
 44
0.0
173
     0
291
     1
 45
0.0
1001
ACAD
1000
AcDbSavedByObjectVersion
1070
     0
  0
VISUALSTYLE
  5
38
102
{ACAD_REACTORS
330
2A
102
}
330
2A
100
AcDbVisualStyle
  2
Linepattern
 70
    14
 71
     2
 72
     2
 73
     0
 90
        0
 40
-0.6
 41
-30.0
 62
     5
 63
     7
 74
     1
 91
        4
 64
     7
 65
   257
 75
     7
175
     7
 42
1.0
 92
        8
 66
     7
 43
1.0
 76
     1
 77
     6
 78
     2
 67
     7
 79
     5
170
     0
171
     0
290
     0
174
     0
 93
        1
 44
0.0
173
     0
291
     1
 45
0.0
1001
ACAD
1000
AcDbSavedByObjectVersion
1070
     0
  0
VISUALSTYLE
  5
33
102
{ACAD_REACTORS
330
2A
102
}
330
2A
100
AcDbVisualStyle
  2
Realistic
 70
     8
 71
     2
 72
     2
 73
     0
 90
        0
 40
-0.6
 41
-30.0
 62
     5
 63
     7
 74
     1
 91
        0
 64
     7
 65
   257
 75
     1
175
     1
 42
1.0
 92
        8
 66
     8
 43
1.0
 76
     1
 77
     6
 78
     2
 67
     7
 79
     5
170
     0
171
     0
290
     0
174
     0
 93
       13
 44
0.0
173
     0
291
     0
 45
0.0
1001
ACAD
1000
AcDbSavedByObjectVersion
1070
     0
  0
VISUALSTYLE
  5
37
102
{ACAD_REACTORS
330
2A
102
}
330
2A
100
AcDbVisualStyle
  2
Thicken
 70
    13
 71
     2
 72
     2
 73
     0
 90
        0
 40
-0.6
 41
-30.0
 62
     5
 63
     7
 74
     1
 91
        4
 64
     7
 65
   257
 75
     1
175
     1
 42
1.0
 92
       12
 66
     7
 43
1.0
 76
     1
 77
     6
 78
     2
 67
     7
 79
     5
170
     0
171
     0
290
     0
174
     0
 93
        1
 44
0.0
173
     0
291
     1
 45
0.0
1001
ACAD
1000
AcDbSavedByObjectVersion
1070
     0
  0
DICTIONARYVAR
  5
16B
102
{ACAD_REACTORS
330
169
102
}
330
169
100
DictionaryVariables
280
     0
  1
80.000000
  0
DICTIONARYVAR
  5
16A
102
{ACAD_REACTORS
330
169
102
}
330
169
100
DictionaryVariables
280
     0
  1
5.000000
  0
ENDSEC
  0
EOF
