  0
SECTION
  2
HEADER
  9
$ACADVER
  1
AC1015
  9
$ACADMAINTVER
 70
     6
  9
$DWGCODEPAGE
  3
ANSI_1252
  9
$INSBASE
 10
0.0
 20
0.0
 30
0.0
  9
$EXTMIN
 10
0.0
 20
0.0
 30
0.0
  9
$EXTMAX
 10
279.4
 20
215.9
 30
0.0
  9
$LIMMIN
 10
0.0
 20
0.0
  9
$LIMMAX
 10
279.4
 20
215.9
  9
$ORTHOMODE
 70
     0
  9
$REGENMODE
 70
     1
  9
$FILLMODE
 70
     1
  9
$QTEXTMODE
 70
     0
  9
$MIRRTEXT
 70
     1
  9
$LTSCALE
 40
1.0
  9
$ATTMODE
 70
     1
  9
$TEXTSIZE
 40
6.35
  9
$TRACEWID
 40
1.0
  9
$TEXTSTYLE
  7
Standard
  9
$CLAYER
  8
0
  9
$CELTYPE
  6
ByLayer
  9
$CECOLOR
 62
   256
  9
$CELTSCALE
 40
1.0
  9
$DISPSILH
 70
     0
  9
$DIMSCALE
 40
1.0
  9
$DIMASZ
 40
5.9944
  9
$DIMEXO
 40
0.9906
  9
$DIMDLI
 40
3.75
  9
$DIMRND
 40
0.0
  9
$DIMDLE
 40
0.0
  9
$DIMEXE
 40
0.9906
  9
$DIMTP
 40
0.0
  9
$DIMTM
 40
0.0
  9
$DIMTXT
 40
6.35
  9
$DIMCEN
 40
2.5
  9
$DIMTSZ
 40
0.0
  9
$DIMTOL
 70
     0
  9
$DIMLIM
 70
     0
  9
$DIMTIH
 70
     1
  9
$DIMTOH
 70
     1
  9
$DIMSE1
 70
     0
  9
$DIMSE2
 70
     0
  9
$DIMTAD
 70
     1
  9
$DIMZIN
 70
     0
  9
$DIMBLK
  1

  9
$DIMASO
 70
     1
  9
$DIMSHO
 70
     1
  9
$DIMPOST
  1

  9
$DIMAPOST
  1

  9
$DIMALT
 70
     0
  9
$DIMALTD
 70
     3
  9
$DIMALTF
 40
0.0393700787
  9
$DIMLFAC
 40
0.2
  9
$DIMTOFL
 70
     1
  9
$DIMTVP
 40
0.0
  9
$DIMTIX
 70
     0
  9
$DIMSOXD
 70
     0
  9
$DIMSAH
 70
     0
  9
$DIMBLK1
  1

  9
$DIMBLK2
  1

  9
$DIMSTYLE
  2
ISO-25
  9
$DIMCLRD
 70
     0
  9
$DIMCLRE
 70
     0
  9
$DIMCLRT
 70
     0
  9
$DIMTFAC
 40
1.0
  9
$DIMGAP
 40
1.524
  9
$DIMJUST
 70
     0
  9
$DIMSD1
 70
     0
  9
$DIMSD2
 70
     0
  9
$DIMTOLJ
 70
     0
  9
$DIMTZIN
 70
     0
  9
$DIMALTZ
 70
     0
  9
$DIMALTTZ
 70
     0
  9
$DIMUPT
 70
     0
  9
$DIMDEC
 70
     2
  9
$DIMTDEC
 70
     2
  9
$DIMALTU
 70
     2
  9
$DIMALTTD
 70
     3
  9
$DIMTXSTY
  7
Standard
  9
$DIMAUNIT
 70
     0
  9
$DIMADEC
 70
     0
  9
$DIMALTRND
 40
0.0
  9
$DIMAZIN
 70
     0
  9
$DIMDSEP
 70
    44
  9
$DIMATFIT
 70
     3
  9
$DIMFRAC
 70
     0
  9
$DIMLDRBLK
  1

  9
$DIMLUNIT
 70
     2
  9
$DIMLWD
 70
    -2
  9
$DIMLWE
 70
    -2
  9
$DIMTMOVE
 70
     0
  9
$LUNITS
 70
     2
  9
$LUPREC
 70
     2
  9
$SKETCHINC
 40
1.0
  9
$FILLETRAD
 40
10.0
  9
$AUNITS
 70
     0
  9
$AUPREC
 70
     0
  9
$MENU
  1
.
  9
$ELEVATION
 40
0.0
  9
$PELEVATION
 40
0.0
  9
$THICKNESS
 40
0.0
  9
$LIMCHECK
 70
     0
  9
$CHAMFERA
 40
10.0
  9
$CHAMFERB
 40
10.0
  9
$CHAMFERC
 40
20.0
  9
$CHAMFERD
 40
0.0
  9
$SKPOLY
 70
     0
  9
$TDCREATE
 40
2455182.412580787
  9
$TDUCREATE
 40
2455182.62091412
  9
$TDUPDATE
 40
2455182.412580798
  9
$TDUUPDATE
 40
2455182.620914132
  9
$TDINDWG
 40
0.0000000116
  9
$TDUSRTIMER
 40
0.0000000116
  9
$USRTIMER
 70
     1
  9
$ANGBASE
 50
0.0
  9
$ANGDIR
 70
     0
  9
$PDMODE
 70
     0
  9
$PDSIZE
 40
-1.0
  9
$PLINEWID
 40
0.0
  9
$SPLFRAME
 70
     0
  9
$SPLINETYPE
 70
     6
  9
$SPLINESEGS
 70
     8
  9
$HANDSEED
  5
1AF
  9
$SURFTAB1
 70
     6
  9
$SURFTAB2
 70
     6
  9
$SURFTYPE
 70
     6
  9
$SURFU
 70
     6
  9
$SURFV
 70
     6
  9
$UCSBASE
  2

  9
$UCSNAME
  2

  9
$UCSORG
 10
0.0
 20
0.0
 30
0.0
  9
$UCSXDIR
 10
1.0
 20
0.0
 30
0.0
  9
$UCSYDIR
 10
0.0
 20
1.0
 30
0.0
  9
$UCSORTHOREF
  2

  9
$UCSORTHOVIEW
 70
     0
  9
$UCSORGTOP
 10
0.0
 20
0.0
 30
0.0
  9
$UCSORGBOTTOM
 10
0.0
 20
0.0
 30
0.0
  9
$UCSORGLEFT
 10
0.0
 20
0.0
 30
0.0
  9
$UCSORGRIGHT
 10
0.0
 20
0.0
 30
0.0
  9
$UCSORGFRONT
 10
0.0
 20
0.0
 30
0.0
  9
$UCSORGBACK
 10
0.0
 20
0.0
 30
0.0
  9
$PUCSBASE
  2

  9
$PUCSNAME
  2

  9
$PUCSORG
 10
0.0
 20
0.0
 30
0.0
  9
$PUCSXDIR
 10
1.0
 20
0.0
 30
0.0
  9
$PUCSYDIR
 10
0.0
 20
1.0
 30
0.0
  9
$PUCSORTHOREF
  2

  9
$PUCSORTHOVIEW
 70
     0
  9
$PUCSORGTOP
 10
0.0
 20
0.0
 30
0.0
  9
$PUCSORGBOTTOM
 10
0.0
 20
0.0
 30
0.0
  9
$PUCSORGLEFT
 10
0.0
 20
0.0
 30
0.0
  9
$PUCSORGRIGHT
 10
0.0
 20
0.0
 30
0.0
  9
$PUCSORGFRONT
 10
0.0
 20
0.0
 30
0.0
  9
$PUCSORGBACK
 10
0.0
 20
0.0
 30
0.0
  9
$USERI1
 70
     0
  9
$USERI2
 70
     0
  9
$USERI3
 70
     0
  9
$USERI4
 70
     0
  9
$USERI5
 70
     0
  9
$USERR1
 40
0.0
  9
$USERR2
 40
0.0
  9
$USERR3
 40
0.0
  9
$USERR4
 40
0.0
  9
$USERR5
 40
0.0
  9
$WORLDVIEW
 70
     1
  9
$SHADEDGE
 70
     3
  9
$SHADEDIF
 70
    70
  9
$TILEMODE
 70
     1
  9
$MAXACTVP
 70
    64
  9
$PINSBASE
 10
0.0
 20
0.0
 30
0.0
  9
$PLIMCHECK
 70
     0
  9
$PEXTMIN
 10
1.0000000000E+20
 20
1.0000000000E+20
 30
1.0000000000E+20
  9
$PEXTMAX
 10
-1.0000000000E+20
 20
-1.0000000000E+20
 30
-1.0000000000E+20
  9
$PLIMMIN
 10
0.0
 20
0.0
  9
$PLIMMAX
 10
420.0
 20
297.0
  9
$UNITMODE
 70
     0
  9
$VISRETAIN
 70
     1
  9
$PLINEGEN
 70
     0
  9
$PSLTSCALE
 70
     1
  9
$TREEDEPTH
 70
  3020
  9
$CMLSTYLE
  2
Standard
  9
$CMLJUST
 70
     0
  9
$CMLSCALE
 40
20.0
  9
$PROXYGRAPHICS
 70
     1
  9
$MEASUREMENT
 70
     1
  9
$CELWEIGHT
370
    -1
  9
$ENDCAPS
280
     0
  9
$JOINSTYLE
280
     0
  9
$LWDISPLAY
290
     1
  9
$INSUNITS
 70
     4
  9
$HYPERLINKBASE
  1

  9
$STYLESHEET
  1

  9
$XEDIT
290
     1
  9
$CEPSNTYPE
380
     0
  9
$PSTYLEMODE
290
     1
  9
$FINGERPRINTGUID
  2
{0A87C8C7-764C-4173-A221-01179502A42C}
  9
$VERSIONGUID
  2
{FAEB1C32-E019-11D5-929B-00C0DF256EC4}
  9
$EXTNAMES
290
     1
  9
$PSVPSCALE
 40
0.0
  9
$OLESTARTUP
290
     0
  0
ENDSEC
  0
SECTION
  2
CLASSES
  0
CLASS
  1
ACDBDICTIONARYWDFLT
  2
AcDbDictionaryWithDefault
  3
ObjectDBX Classes
 90
        0
280
     0
281
     0
  0
CLASS
  1
VISUALSTYLE
  2
AcDbVisualStyle
  3
ObjectDBX Classes
 90
     4095
280
     0
281
     0
  0
CLASS
  1
DICTIONARYVAR
  2
AcDbDictionaryVar
  3
ObjectDBX Classes
 90
        0
280
     0
281
     0
  0
CLASS
  1
ACDBPLACEHOLDER
  2
AcDbPlaceHolder
  3
ObjectDBX Classes
 90
        0
280
     0
281
     0
  0
CLASS
  1
LAYOUT
  2
AcDbLayout
  3
ObjectDBX Classes
 90
        0
280
     0
281
     0
  0
ENDSEC
  0
SECTION
  2
TABLES
  0
TABLE
  2
VPORT
  5
8
330
0
100
AcDbSymbolTable
 70
     1
  0
VPORT
  5
29
330
8
100
AcDbSymbolTableRecord
100
AcDbViewportTableRecord
  2
*Active
 70
     0
 10
0.0
 20
0.0
 11
1.0
 21
1.0
 12
139.7
 22
107.95
 13
0.0
 23
0.0
 14
10.0
 24
10.0
 15
10.0
 25
10.0
 16
0.0
 26
0.0
 36
1.0
 17
0.0
 27
0.0
 37
0.0
 40
215.9
 41
1.2941176471
 42
50.0
 43
0.0
 44
0.0
 50
0.0
 51
0.0
 71
     0
 72
  2000
 73
     1
 74
     3
 75
     0
 76
     0
 77
     0
 78
     0
281
     0
 65
     1
110
0.0
120
0.0
130
0.0
111
1.0
121
0.0
131
0.0
112
0.0
122
1.0
132
0.0
 79
     0
146
0.0
  0
ENDTAB
  0
TABLE
  2
LTYPE
  5
5
330
0
100
AcDbSymbolTable
 70
     6
  0
LTYPE
  5
14
330
5
100
AcDbSymbolTableRecord
100
AcDbLinetypeTableRecord
  2
ByBlock
 70
     0
  3

 72
    65
 73
     0
 40
0.0
  0
LTYPE
  5
15
330
5
100
AcDbSymbolTableRecord
100
AcDbLinetypeTableRecord
  2
ByLayer
 70
     0
  3

 72
    65
 73
     0
 40
0.0
  0
LTYPE
  5
16
330
5
100
AcDbSymbolTableRecord
100
AcDbLinetypeTableRecord
  2
Continuous
 70
     0
  3
Solid line
 72
    65
 73
     0
 40
0.0
  0
LTYPE
  5
3B
330
5
100
AcDbSymbolTableRecord
100
AcDbLinetypeTableRecord
  2
HIDDEN
 70
     0
  3
Hidden __ __ __ __ __ __ __ __ __ __ __ __ __ __
 72
    65
 73
     2
 40
1.905
 49
1.27
 74
     0
 49
-0.635
 74
     0
  0
LTYPE
  5
3C
330
5
100
AcDbSymbolTableRecord
100
AcDbLinetypeTableRecord
  2
PHANTOM
 70
     0
  3
Phantom ______  __  __  ______  __  __  ______
 72
    65
 73
     6
 40
12.7
 49
6.35
 74
     0
 49
-1.27
 74
     0
 49
1.27
 74
     0
 49
-1.27
 74
     0
 49
1.27
 74
     0
 49
-1.27
 74
     0
  0
LTYPE
  5
3D
330
5
100
AcDbSymbolTableRecord
100
AcDbLinetypeTableRecord
  2
CENTER
 70
     0
  3
Center ____ _ ____ _ ____ _ ____ _ ____ _ ____
 72
    65
 73
     4
 40
10.16
 49
6.35
 74
     0
 49
-1.27
 74
     0
 49
1.27
 74
     0
 49
-1.27
 74
     0
  0
LTYPE
  5
3E
330
5
100
AcDbSymbolTableRecord
100
AcDbLinetypeTableRecord
  2
CENTERX2
 70
     0
  3
Center (2x) ________  __  ________  __  _____
 72
    65
 73
     4
 40
20.32
 49
12.7
 74
     0
 49
-2.54
 74
     0
 49
2.54
 74
     0
 49
-2.54
 74
     0
  0
LTYPE
  5
3F
330
5
100
AcDbSymbolTableRecord
100
AcDbLinetypeTableRecord
  2
DOT2
 70
     0
  3
Dot (.5x) ........................................
 72
    65
 73
     2
 40
0.635
 49
0.0
 74
     0
 49
-0.635
 74
     0
  0
ENDTAB
  0
TABLE
  2
LAYER
  5
2
330
0
100
AcDbSymbolTable
 70
     2
  0
LAYER
  5
10
330
2
100
AcDbSymbolTableRecord
100
AcDbLayerTableRecord
  2
0
 70
     0
 62
     7
  6
Continuous
370
    -3
390
F
  0
LAYER
  5
40
330
2
100
AcDbSymbolTableRecord
100
AcDbLayerTableRecord
  2
FORMAT
 70
     0
 62
     7
  6
Continuous
370
    -3
390
F
  0
ENDTAB
  0
TABLE
  2
STYLE
  5
3
330
0
100
AcDbSymbolTable
 70
     5
  0
STYLE
  5
11
330
3
100
AcDbSymbolTableRecord
100
AcDbTextStyleTableRecord
  2
Standard
 70
     0
 40
0.0
 41
1.0
 50
0.0
 71
     0
 42
2.5
  3
txt
  4

  0
STYLE
  5
67
330
3
100
AcDbSymbolTableRecord
100
AcDbTextStyleTableRecord
  2
SLDTEXTSTYLE0
 70
     0
 40
0.0
 41
0.75
 50
0.0
 71
     0
 42
0.2
  3
TXT
  4

  0
STYLE
  5
6B
330
3
100
AcDbSymbolTableRecord
100
AcDbTextStyleTableRecord
  2
SLDTEXTSTYLE1
 70
     0
 40
0.0
 41
0.6944444444
 50
0.0
 71
     0
 42
0.2
  3
TXT
  4

  0
STYLE
  5
73
330
3
100
AcDbSymbolTableRecord
100
AcDbTextStyleTableRecord
  2
SLDTEXTSTYLE2
 70
     0
 40
0.0
 41
0.6847826087
 50
0.0
 71
     0
 42
0.2
  3
TXT
  4

  0
STYLE
  5
8F
330
3
100
AcDbSymbolTableRecord
100
AcDbTextStyleTableRecord
  2
SLDTEXTSTYLE3
 70
     0
 40
0.0
 41
0.6875
 50
0.0
 71
     0
 42
0.2
  3
TXT
  4

  0
ENDTAB
  0
TABLE
  2
VIEW
  5
6
330
0
100
AcDbSymbolTable
 70
     0
  0
ENDTAB
  0
TABLE
  2
UCS
  5
7
330
0
100
AcDbSymbolTable
 70
     0
  0
ENDTAB
  0
TABLE
  2
APPID
  5
9
330
0
100
AcDbSymbolTable
 70
     1
  0
APPID
  5
12
330
9
100
AcDbSymbolTableRecord
100
AcDbRegAppTableRecord
  2
ACAD
 70
     0
  0
ENDTAB
  0
TABLE
  2
DIMSTYLE
  5
A
330
0
100
AcDbSymbolTable
 70
     7
100
AcDbDimStyleTable
  0
DIMSTYLE
105
27
330
A
100
AcDbSymbolTableRecord
100
AcDbDimStyleTableRecord
  2
ISO-25
 70
     0
 41
2.5
 42
0.625
 43
3.75
 44
1.25
 73
     0
 74
     0
 77
     1
 78
     8
140
2.5
141
2.5
143
0.0393700787
147
0.625
171
     3
172
     1
271
     2
272
     2
274
     3
278
    44
283
     0
284
     8
340
11
  0
DIMSTYLE
105
B3
102
{ACAD_REACTORS
330
B2
330
C8
102
}
330
A
100
AcDbSymbolTableRecord
100
AcDbDimStyleTableRecord
  2
SLDDIMSTYLE0
 70
     0
 41
5.9944
 44
0.0
 45
0.000000001
 73
     0
 77
     1
 78
     4
140
6.35
144
0.2
147
1.5875
173
     1
271
     2
272
     2
284
    12
340
67
341
B4
343
B4
344
B4
  0
DIMSTYLE
105
D7
102
{ACAD_REACTORS
330
D6
102
}
330
A
100
AcDbSymbolTableRecord
100
AcDbDimStyleTableRecord
  2
SLDDIMSTYLE1
 70
     0
 41
5.9944
 44
0.0
 45
0.000000001
 73
     0
 77
     1
 78
    12
140
6.35
144
0.2
147
1.5875
173
     1
271
     2
272
     2
284
    12
340
67
341
B4
343
B4
344
B4
  0
DIMSTYLE
105
107
102
{ACAD_REACTORS
330
106
330
113
102
}
330
A
100
AcDbSymbolTableRecord
100
AcDbDimStyleTableRecord
  2
SLDDIMSTYLE2
 70
     0
 41
5.9944
 44
0.0
 45
0.000000001
 73
     0
 77
     1
 78
    12
140
6.35
144
0.2
147
1.5875
173
     1
271
     2
272
     2
284
    12
340
67
341
B4
343
B4
344
B4
  0
DIMSTYLE
105
120
102
{ACAD_REACTORS
330
11F
102
}
330
A
100
AcDbSymbolTableRecord
100
AcDbDimStyleTableRecord
  2
SLDDIMSTYLE3
 70
     0
  3
<>
 41
5.9944
 44
0.0
 45
0.000000001
 78
    12
140
6.35
144
0.2
147
1.5875
173
     1
271
     0
272
     2
284
    12
340
67
341
B4
343
B4
344
B4
  0
DIMSTYLE
105
138
102
{ACAD_REACTORS
330
137
102
}
330
A
100
AcDbSymbolTableRecord
100
AcDbDimStyleTableRecord
  2
SLDDIMSTYLE4
 70
     0
 41
5.9944
 44
0.0
 45
0.000000001
 78
    12
140
6.35
144
0.2
147
1.5875
173
     1
271
     2
272
     2
284
    12
340
67
341
B4
343
B4
344
B4
  0
DIMSTYLE
105
171
102
{ACAD_REACTORS
330
170
330
17F
330
18D
330
19B
102
}
330
A
100
AcDbSymbolTableRecord
100
AcDbDimStyleTableRecord
  2
SLDDIMSTYLE5
 70
     0
 41
5.9944
 44
0.0
 45
0.000000001
 73
     0
 77
     1
 78
    12
140
6.35
144
0.2
147
1.5875
173
     1
271
     2
272
     2
284
    12
340
67
341
B4
343
B4
344
B4
  0
ENDTAB
  0
TABLE
  2
BLOCK_RECORD
  5
1
330
0
100
AcDbSymbolTable
 70
    17
  0
BLOCK_RECORD
  5
1F
330
1
100
AcDbSymbolTableRecord
100
AcDbBlockTableRecord
  2
*Model_Space
340
22
  0
BLOCK_RECORD
  5
1B
330
1
100
AcDbSymbolTableRecord
100
AcDbBlockTableRecord
  2
*Paper_Space
340
1E
  0
BLOCK_RECORD
  5
23
330
1
100
AcDbSymbolTableRecord
100
AcDbBlockTableRecord
  2
*Paper_Space0
340
26
  0
BLOCK_RECORD
  5
78
330
1
100
AcDbSymbolTableRecord
100
AcDbBlockTableRecord
  2
SW_NOTE_0
340
0
102
{BLKREFS
331
87
102
}
  0
BLOCK_RECORD
  5
93
330
1
100
AcDbSymbolTableRecord
100
AcDbBlockTableRecord
  2
SW_NOTE_1
340
0
102
{BLKREFS
331
9D
102
}
  0
BLOCK_RECORD
  5
B4
330
1
100
AcDbSymbolTableRecord
100
AcDbBlockTableRecord
  2
_CLOSED
340
0
102
{BLKREFS
331
C0
331
C1
331
CE
331
CF
331
DD
331
10D
331
10E
331
119
331
11A
331
124
331
13C
331
154
331
156
331
177
331
178
331
185
331
186
331
193
331
194
331
1A1
331
1A2
102
}
  0
BLOCK_RECORD
  5
BB
330
1
100
AcDbSymbolTableRecord
100
AcDbBlockTableRecord
  2
*D4
340
0
  0
BLOCK_RECORD
  5
C9
330
1
100
AcDbSymbolTableRecord
100
AcDbBlockTableRecord
  2
*D5
340
0
  0
BLOCK_RECORD
  5
D8
330
1
100
AcDbSymbolTableRecord
100
AcDbBlockTableRecord
  2
*D6
340
0
  0
BLOCK_RECORD
  5
108
330
1
100
AcDbSymbolTableRecord
100
AcDbBlockTableRecord
  2
*D7
340
0
  0
BLOCK_RECORD
  5
114
330
1
100
AcDbSymbolTableRecord
100
AcDbBlockTableRecord
  2
*D8
340
0
  0
BLOCK_RECORD
  5
121
330
1
100
AcDbSymbolTableRecord
100
AcDbBlockTableRecord
  2
*D9
340
0
  0
BLOCK_RECORD
  5
12D
330
1
100
AcDbSymbolTableRecord
100
AcDbBlockTableRecord
  2
SW_SYMBOL_HOLE_DEPTH
340
0
102
{BLKREFS
331
134
331
14A
102
}
  0
BLOCK_RECORD
  5
139
330
1
100
AcDbSymbolTableRecord
100
AcDbBlockTableRecord
  2
*D11
340
0
  0
BLOCK_RECORD
  5
13F
330
1
100
AcDbSymbolTableRecord
100
AcDbBlockTableRecord
  2
SW_SYMBOL_HOLE_SPOT
340
0
102
{BLKREFS
331
145
102
}
  0
BLOCK_RECORD
  5
172
330
1
100
AcDbSymbolTableRecord
100
AcDbBlockTableRecord
  2
*D13
340
0
  0
BLOCK_RECORD
  5
180
330
1
100
AcDbSymbolTableRecord
100
AcDbBlockTableRecord
  2
*D14
340
0
  0
BLOCK_RECORD
  5
18E
330
1
100
AcDbSymbolTableRecord
100
AcDbBlockTableRecord
  2
*D15
340
0
  0
BLOCK_RECORD
  5
19C
330
1
100
AcDbSymbolTableRecord
100
AcDbBlockTableRecord
  2
*D16
340
0
  0
ENDTAB
  0
ENDSEC
  0
SECTION
  2
BLOCKS
  0
BLOCK
  5
20
330
1F
100
AcDbEntity
  8
0
100
AcDbBlockBegin
  2
*Model_Space
 70
     0
 10
0.0
 20
0.0
 30
0.0
  3
*Model_Space
  1

  0
ENDBLK
  5
21
330
1F
100
AcDbEntity
  8
0
100
AcDbBlockEnd
  0
BLOCK
  5
1C
330
1B
100
AcDbEntity
 67
     1
  8
0
100
AcDbBlockBegin
  2
*Paper_Space
 70
     0
 10
0.0
 20
0.0
 30
0.0
  3
*Paper_Space
  1

  0
ENDBLK
  5
1D
330
1B
100
AcDbEntity
 67
     1
  8
0
100
AcDbBlockEnd
  0
BLOCK
  5
24
330
23
100
AcDbEntity
  8
0
100
AcDbBlockBegin
  2
*Paper_Space0
 70
     0
 10
0.0
 20
0.0
 30
0.0
  3
*Paper_Space0
  1

  0
ENDBLK
  5
25
330
23
100
AcDbEntity
  8
0
100
AcDbBlockEnd
  0
BLOCK
  5
79
330
78
100
AcDbEntity
  8
0
100
AcDbBlockBegin
  2
SW_NOTE_0
 70
     0
 10
0.0
 20
0.0
 30
0.0
  3
SW_NOTE_0
  1

  0
MTEXT
  5
7B
330
78
100
AcDbEntity
  8
0
  6
Continuous
 62
     0
370
     0
100
AcDbMText
 10
0.0
 20
2.0463950369
 30
0.0
 40
1.5875
 41
0.0
 71
     1
 72
     1
  1
DIMENSIONS ARE IN MM
  7
SLDTEXTSTYLE0
 73
     1
 44
1.0
  0
MTEXT
  5
7C
330
78
100
AcDbEntity
  8
0
  6
Continuous
 62
     0
370
     0
100
AcDbMText
 10
0.0
 20
-0.5411049914
 30
0.0
 40
1.5875
 41
0.0
 71
     1
 72
     1
  1
TOLERANCES:
  7
SLDTEXTSTYLE0
 73
     1
 44
1.0
  0
MTEXT
  5
7D
330
78
100
AcDbEntity
  8
0
  6
Continuous
 62
     0
370
     0
100
AcDbMText
 10
0.0
 20
-3.1286050197
 30
0.0
 40
1.5875
 41
0.0
 71
     1
 72
     1
  1
FRACTIONAL
  7
SLDTEXTSTYLE0
 73
     1
 44
1.0
  0
MTEXT
  5
7E
330
78
100
AcDbEntity
  8
0
  6
Continuous
 62
     0
370
     0
100
AcDbMText
 10
12.6410201192
 20
-3.1286050197
 30
0.0
 40
1.5875
 41
0.0
 71
     1
 72
     1
  1
%%p
  7
SLDTEXTSTYLE0
 73
     1
 44
1.0
  0
MTEXT
  5
7F
330
78
100
AcDbEntity
  8
0
  6
Continuous
 62
     0
370
     0
100
AcDbMText
 10
0.0
 20
-5.716105048
 30
0.0
 40
1.5875
 41
0.0
 71
     1
 72
     1
  1
ANGULAR: MACH
  7
SLDTEXTSTYLE0
 73
     1
 44
1.0
  0
MTEXT
  5
80
330
78
100
AcDbEntity
  8
0
  6
Continuous
 62
     0
370
     0
100
AcDbMText
 10
17.6670011133
 20
-5.716105048
 30
0.0
 40
1.5875
 41
0.0
 71
     1
 72
     1
  1
%%p
  7
SLDTEXTSTYLE0
 73
     1
 44
1.0
  0
MTEXT
  5
81
330
78
100
AcDbEntity
  8
0
  6
Continuous
 62
     0
370
     0
100
AcDbMText
 10
19.1790945828
 20
-5.716105048
 30
0.0
 40
1.5875
 41
0.0
 71
     1
 72
     1
  1
     BEND 
  7
SLDTEXTSTYLE0
 73
     1
 44
1.0
  0
MTEXT
  5
82
330
78
100
AcDbEntity
  8
0
  6
Continuous
 62
     0
370
     0
100
AcDbMText
 10
28.033817187
 20
-5.716105048
 30
0.0
 40
1.5875
 41
0.0
 71
     1
 72
     1
  1
%%p
  7
SLDTEXTSTYLE0
 73
     1
 44
1.0
  0
MTEXT
  5
83
330
78
100
AcDbEntity
  8
0
  6
Continuous
 62
     0
370
     0
100
AcDbMText
 10
0.0
 20
-8.3036050764
 30
0.0
 40
1.5875
 41
0.0
 71
     1
 72
     1
  1
TWO PLACE DECIMAL    
  7
SLDTEXTSTYLE0
 73
     1
 44
1.0
  0
MTEXT
  5
84
330
78
100
AcDbEntity
  8
0
  6
Continuous
 62
     0
370
     0
100
AcDbMText
 10
23.9208135754
 20
-8.3036050764
 30
0.0
 40
1.5875
 41
0.0
 71
     1
 72
     1
  1
%%p
  7
SLDTEXTSTYLE0
 73
     1
 44
1.0
  0
MTEXT
  5
85
330
78
100
AcDbEntity
  8
0
  6
Continuous
 62
     0
370
     0
100
AcDbMText
 10
0.0
 20
-10.8911051047
 30
0.0
 40
1.5875
 41
0.0
 71
     1
 72
     1
  1
THREE PLACE DECIMAL  
  7
SLDTEXTSTYLE0
 73
     1
 44
1.0
  0
MTEXT
  5
86
330
78
100
AcDbEntity
  8
0
  6
Continuous
 62
     0
370
     0
100
AcDbMText
 10
23.7832851708
 20
-10.8911051047
 30
0.0
 40
1.5875
 41
0.0
 71
     1
 72
     1
  1
%%p
  7
SLDTEXTSTYLE0
 73
     1
 44
1.0
  0
ENDBLK
  5
7A
330
78
100
AcDbEntity
  8
0
100
AcDbBlockEnd
  0
BLOCK
  5
94
330
93
100
AcDbEntity
  8
0
100
AcDbBlockBegin
  2
SW_NOTE_1
 70
     0
 10
0.0
 20
0.0
 30
0.0
  3
SW_NOTE_1
  1

  0
MTEXT
  5
96
330
93
100
AcDbEntity
  8
0
  6
Continuous
 62
     0
370
     0
100
AcDbMText
 10
0.0
 20
1.9645392354
 30
0.0
 40
1.524
 41
0.0
 71
     1
 72
     1
  1
THE INFORMATION CONTAINED IN THIS
  7
SLDTEXTSTYLE0
 73
     1
 44
1.0
  0
MTEXT
  5
97
330
93
100
AcDbEntity
  8
0
  6
Continuous
 62
     0
370
     0
100
AcDbMText
 10
0.0
 20
-0.5594606586
 30
0.0
 40
1.524
 41
0.0
 71
     1
 72
     1
  1
DRAWING IS THE SOLE PROPERTY OF
  7
SLDTEXTSTYLE0
 73
     1
 44
1.0
  0
MTEXT
  5
98
330
93
100
AcDbEntity
  8
0
  6
Continuous
 62
     0
370
     0
100
AcDbMText
 10
0.0
 20
-3.0834605527
 30
0.0
 40
1.524
 41
0.0
 71
     1
 72
     1
  1
<INSERT COMPANY NAME HERE>.  ANY 
  7
SLDTEXTSTYLE0
 73
     1
 44
1.0
  0
MTEXT
  5
99
330
93
100
AcDbEntity
  8
0
  6
Continuous
 62
     0
370
     0
100
AcDbMText
 10
0.0
 20
-5.6074604467
 30
0.0
 40
1.524
 41
0.0
 71
     1
 72
     1
  1
REPRODUCTION IN PART OR AS A WHOLE
  7
SLDTEXTSTYLE0
 73
     1
 44
1.0
  0
MTEXT
  5
9A
330
93
100
AcDbEntity
  8
0
  6
Continuous
 62
     0
370
     0
100
AcDbMText
 10
0.0
 20
-8.1314603407
 30
0.0
 40
1.524
 41
0.0
 71
     1
 72
     1
  1
WITHOUT THE WRITTEN PERMISSION OF
  7
SLDTEXTSTYLE0
 73
     1
 44
1.0
  0
MTEXT
  5
9B
330
93
100
AcDbEntity
  8
0
  6
Continuous
 62
     0
370
     0
100
AcDbMText
 10
0.0
 20
-10.6554602348
 30
0.0
 40
1.524
 41
0.0
 71
     1
 72
     1
  1
<INSERT COMPANY NAME HERE> IS 
  7
SLDTEXTSTYLE0
 73
     1
 44
1.0
  0
MTEXT
  5
9C
330
93
100
AcDbEntity
  8
0
  6
Continuous
 62
     0
370
     0
100
AcDbMText
 10
0.0
 20
-13.1794601288
 30
0.0
 40
1.524
 41
0.0
 71
     1
 72
     1
  1
PROHIBITED.
  7
SLDTEXTSTYLE0
 73
     1
 44
1.0
  0
ENDBLK
  5
95
330
93
100
AcDbEntity
  8
0
100
AcDbBlockEnd
  0
BLOCK
  5
B5
330
B4
100
AcDbEntity
  8
0
100
AcDbBlockBegin
  2
_CLOSED
 70
     0
 10
0.0
 20
0.0
 30
0.0
  3
_CLOSED
  1

  0
LINE
  5
B7
330
B4
100
AcDbEntity
  8
0
  6
ByBlock
 62
     0
370
    -2
100
AcDbLine
 10
-1.0
 20
0.166667
 30
0.0
 11
0.0
 21
0.0
 31
0.0
  0
LINE
  5
B8
330
B4
100
AcDbEntity
  8
0
  6
ByBlock
 62
     0
370
    -2
100
AcDbLine
 10
0.0
 20
0.0
 30
0.0
 11
-1.0
 21
-0.166667
 31
0.0
  0
LINE
  5
B9
330
B4
100
AcDbEntity
  8
0
  6
ByBlock
 62
     0
370
    -2
100
AcDbLine
 10
-1.0
 20
0.166667
 30
0.0
 11
-1.0
 21
-0.166667
 31
0.0
  0
LINE
  5
BA
330
B4
100
AcDbEntity
  8
0
  6
ByBlock
 62
     0
370
    -2
100
AcDbLine
 10
0.0
 20
0.0
 30
0.0
 11
-1.0
 21
0.0
 31
0.0
  0
ENDBLK
  5
B6
330
B4
100
AcDbEntity
  8
0
100
AcDbBlockEnd
  0
BLOCK
  5
BC
330
BB
100
AcDbEntity
  8
0
100
AcDbBlockBegin
  2
*D4
 70
     1
 10
0.0
 20
0.0
 30
0.0
  3
*D4
  1

  0
ARC
  5
BE
330
BB
100
AcDbEntity
  8
FORMAT
100
AcDbCircle
 10
180.3593362073
 20
120.8279889468
 30
0.0
 40
11.26761702522377
100
AcDbArc
 50
243.4349488229
 51
296.5650511771
  0
ARC
  5
BF
330
BB
100
AcDbEntity
  8
FORMAT
100
AcDbCircle
 10
180.3593362073
 20
120.2632927605
 30
0.0
 40
11.26761702522379
100
AcDbArc
 50
63.4349488229
 51
116.5650511771
  0
INSERT
  5
C0
330
BB
100
AcDbEntity
  8
FORMAT
100
AcDbBlockReference
  2
_CLOSED
 10
185.3983677298
 20
139.8254315197
 30
-7.4375
 41
5.9944
 42
5.9944
 50
270.0
  0
INSERT
  5
C1
330
BB
100
AcDbEntity
  8
FORMAT
100
AcDbBlockReference
  2
_CLOSED
 10
185.3983677298
 20
100.3254315197
 30
-7.4375
 41
5.9944
 42
5.9944
 50
90.0
  0
LINE
  5
C2
330
BB
100
AcDbEntity
  8
FORMAT
100
AcDbLine
 10
199.5689572233
 20
139.8254315197
 30
0.0
 11
184.4077677298
 21
139.8254315197
 31
0.0
  0
LINE
  5
C3
330
BB
100
AcDbEntity
  8
FORMAT
100
AcDbLine
 10
199.5689572233
 20
100.3254315197
 30
0.0
 11
184.4077677298
 21
100.3254315197
 31
0.0
  0
LINE
  5
C4
330
BB
100
AcDbEntity
  8
FORMAT
100
AcDbLine
 10
185.3983677298
 20
139.8254315197
 30
0.0
 11
185.3983677298
 21
151.8142315197
 31
0.0
  0
LINE
  5
C5
330
BB
100
AcDbEntity
  8
FORMAT
100
AcDbLine
 10
185.3983677298
 20
139.8254315197
 30
0.0
 11
185.3983677298
 21
100.3254315197
 31
0.0
  0
LINE
  5
C6
330
BB
100
AcDbEntity
  8
FORMAT
100
AcDbLine
 10
185.3983677298
 20
100.3254315197
 30
0.0
 11
185.3983677298
 21
88.3366315197
 31
0.0
  0
MTEXT
  5
C7
330
BB
100
AcDbEntity
  8
FORMAT
100
AcDbMText
 10
177.2127868838
 20
112.3374259017
 30
0.0
 40
6.35
 41
0.0
 71
     1
 72
     1
  1
7.90
  7
SLDTEXTSTYLE0
 11
-7.044195017643634E-15
 21
1.0
 31
0.0
 73
     1
 44
1.0
  0
ENDBLK
  5
BD
330
BB
100
AcDbEntity
  8
0
100
AcDbBlockEnd
  0
BLOCK
  5
CA
330
C9
100
AcDbEntity
  8
0
100
AcDbBlockBegin
  2
*D5
 70
     1
 10
0.0
 20
0.0
 30
0.0
  3
*D5
  1

  0
ARC
  5
CC
330
C9
100
AcDbEntity
  8
FORMAT
100
AcDbCircle
 10
215.1839029243
 20
174.8644630423
 30
0.0
 40
11.26761702522381
100
AcDbArc
 50
153.4349488229
 51
206.5650511771
  0
ARC
  5
CD
330
C9
100
AcDbEntity
  8
FORMAT
100
AcDbCircle
 10
214.619206738
 20
174.8644630423
 30
0.0
 40
11.26761702522376
100
AcDbArc
 50
333.4349488229
 51
26.5650511771
  0
INSERT
  5
CE
330
C9
100
AcDbEntity
  8
FORMAT
100
AcDbBlockReference
  2
_CLOSED
 10
195.5595572233
 20
169.8254315197
 30
-7.4375
 41
5.9944
 42
5.9944
 50
0.0
  0
INSERT
  5
CF
330
C9
100
AcDbEntity
  8
FORMAT
100
AcDbBlockReference
  2
_CLOSED
 10
235.0595572233
 20
169.8254315197
 30
-7.4375
 41
5.9944
 42
5.9944
 50
180.0
  0
LINE
  5
D0
330
C9
100
AcDbEntity
  8
FORMAT
100
AcDbLine
 10
195.5595572233
 20
135.8160315197
 30
0.0
 11
195.5595572233
 21
170.8160315197
 31
0.0
  0
LINE
  5
D1
330
C9
100
AcDbEntity
  8
FORMAT
100
AcDbLine
 10
235.0595572233
 20
135.8160315197
 30
0.0
 11
235.0595572233
 21
170.8160315197
 31
0.0
  0
LINE
  5
D2
330
C9
100
AcDbEntity
  8
FORMAT
100
AcDbLine
 10
195.5595572233
 20
169.8254315197
 30
0.0
 11
183.5707572233
 21
169.8254315197
 31
0.0
  0
LINE
  5
D3
330
C9
100
AcDbEntity
  8
FORMAT
100
AcDbLine
 10
195.5595572233
 20
169.8254315197
 30
0.0
 11
235.0595572233
 21
169.8254315197
 31
0.0
  0
LINE
  5
D4
330
C9
100
AcDbEntity
  8
FORMAT
100
AcDbLine
 10
235.0595572233
 20
169.8254315197
 30
0.0
 11
247.0483572233
 21
169.8254315197
 31
0.0
  0
MTEXT
  5
D5
330
C9
100
AcDbEntity
  8
FORMAT
100
AcDbMText
 10
206.6933398792
 20
178.0110123657
 30
0.0
 40
6.35
 41
0.0
 71
     1
 72
     1
  1
7.90
  7
SLDTEXTSTYLE0
 73
     1
 44
1.0
  0
ENDBLK
  5
CB
330
C9
100
AcDbEntity
  8
0
100
AcDbBlockEnd
  0
BLOCK
  5
D9
330
D8
100
AcDbEntity
  8
0
100
AcDbBlockBegin
  2
*D6
 70
     1
 10
0.0
 20
0.0
 30
0.0
  3
*D6
  1

  0
ARC
  5
DB
330
D8
100
AcDbEntity
  8
FORMAT
100
AcDbCircle
 10
260.8725701441
 20
81.5264583732
 30
0.0
 40
11.26761702522372
100
AcDbArc
 50
108.4349488189
 51
161.565051173
  0
ARC
  5
DC
330
D8
100
AcDbEntity
  8
FORMAT
100
AcDbCircle
 10
255.8139500256
 20
86.5850784925
 30
0.0
 40
11.26761702522371
100
AcDbArc
 50
288.4349488189
 51
341.565051173
  0
INSERT
  5
DD
330
D8
100
AcDbEntity
  8
FORMAT
100
AcDbBlockReference
  2
_CLOSED
 10
238.8450911289
 20
96.5398976135
 30
-7.4375
 41
5.9944
 42
5.9944
 50
134.999999996
  0
LINE
  5
DE
330
D8
100
AcDbEntity
  8
FORMAT
100
AcDbLine
 10
238.8450911289
 20
96.5398976135
 30
0.0
 11
260.5557288716
 21
74.8292598678
 31
0.0
  0
LINE
  5
DF
330
D8
100
AcDbEntity
  8
FORMAT
100
AcDbLine
 10
238.8450911289
 20
96.5398976135
 30
0.0
 11
235.3095572233
 21
100.0754315197
 31
0.0
  0
MTEXT
  5
E0
330
D8
100
AcDbEntity
  8
FORMAT
100
AcDbMText
 10
257.0937818034
 20
89.7551394428
 30
0.0
 40
6.35
 41
0.0
 71
     1
 72
     1
  1
R
  7
SLDTEXTSTYLE0
 11
0.7071067811367786
 21
-0.7071067812363164
 31
0.0
 73
     1
 44
1.0
  0
MTEXT
  5
E1
330
D8
100
AcDbEntity
  8
FORMAT
100
AcDbMText
 10
260.7266148675
 20
86.1223063782
 30
0.0
 40
6.35
 41
0.0
 71
     1
 72
     1
  1
1
  7
SLDTEXTSTYLE0
 11
0.7071067811367786
 21
-0.7071067812363164
 31
0.0
 73
     1
 44
1.0
  0
ENDBLK
  5
DA
330
D8
100
AcDbEntity
  8
0
100
AcDbBlockEnd
  0
BLOCK
  5
109
330
108
100
AcDbEntity
  8
0
100
AcDbBlockBegin
  2
*D7
 70
     1
 10
0.0
 20
0.0
 30
0.0
  3
*D7
  1

  0
ARC
  5
10B
330
108
100
AcDbEntity
  8
FORMAT
100
AcDbCircle
 10
135.2376683361
 20
175.1144630423
 30
0.0
 40
11.26761702522379
100
AcDbArc
 50
153.4349488229
 51
206.5650511771
  0
ARC
  5
10C
330
108
100
AcDbEntity
  8
FORMAT
100
AcDbCircle
 10
127.6356524894
 20
175.1144630423
 30
0.0
 40
11.26761702522381
100
AcDbArc
 50
333.4349488229
 51
26.5650511771
  0
INSERT
  5
10D
330
108
100
AcDbEntity
  8
FORMAT
100
AcDbBlockReference
  2
_CLOSED
 10
92.3889831144
 20
170.0754315197
 30
8.4375
 41
5.9944
 42
5.9944
 50
180.0
  0
INSERT
  5
10E
330
108
100
AcDbEntity
  8
FORMAT
100
AcDbBlockReference
  2
_CLOSED
 10
142.3889831144
 20
170.0754315197
 30
8.4375
 41
5.9944
 42
5.9944
 50
0.0
  0
LINE
  5
10F
330
108
100
AcDbEntity
  8
FORMAT
100
AcDbLine
 10
92.3889831144
 20
156.0660315197
 30
0.0
 11
92.3889831144
 21
171.0660315197
 31
0.0
  0
LINE
  5
110
330
108
100
AcDbEntity
  8
FORMAT
100
AcDbLine
 10
142.3889831144
 20
156.0660315197
 30
0.0
 11
142.3889831144
 21
171.0660315197
 31
0.0
  0
LINE
  5
111
330
108
100
AcDbEntity
  8
FORMAT
100
AcDbLine
 10
92.3889831144
 20
170.0754315197
 30
0.0
 11
142.3889831144
 21
170.0754315197
 31
0.0
  0
MTEXT
  5
112
330
108
100
AcDbEntity
  8
FORMAT
100
AcDbMText
 10
126.747105291
 20
178.2610123657
 30
0.0
 40
6.35
 41
0.0
 71
     1
 72
     1
  1
10
  7
SLDTEXTSTYLE0
 73
     1
 44
1.0
  0
ENDBLK
  5
10A
330
108
100
AcDbEntity
  8
0
100
AcDbBlockEnd
  0
BLOCK
  5
115
330
114
100
AcDbEntity
  8
0
100
AcDbBlockBegin
  2
*D8
 70
     1
 10
0.0
 20
0.0
 30
0.0
  3
*D8
  1

  0
ARC
  5
117
330
114
100
AcDbEntity
  8
FORMAT
100
AcDbCircle
 10
82.1887620984
 20
131.7896064224
 30
0.0
 40
11.26761702522387
100
AcDbArc
 50
243.4349488229
 51
296.5650511771
  0
ARC
  5
118
330
114
100
AcDbEntity
  8
FORMAT
100
AcDbCircle
 10
82.1887620984
 20
124.1875905757
 30
0.0
 40
11.26761702522386
100
AcDbArc
 50
63.4349488229
 51
116.5650511771
  0
INSERT
  5
119
330
114
100
AcDbEntity
  8
FORMAT
100
AcDbBlockReference
  2
_CLOSED
 10
87.227793621
 20
160.0754315197
 30
8.4375
 41
5.9944
 42
5.9944
 50
90.0
  0
INSERT
  5
11A
330
114
100
AcDbEntity
  8
FORMAT
100
AcDbBlockReference
  2
_CLOSED
 10
87.227793621
 20
95.0754315197
 30
8.4375
 41
5.9944
 42
5.9944
 50
270.0
  0
LINE
  5
11B
330
114
100
AcDbEntity
  8
FORMAT
100
AcDbLine
 10
96.3983831144
 20
160.0754315197
 30
0.0
 11
86.237193621
 21
160.0754315197
 31
0.0
  0
LINE
  5
11C
330
114
100
AcDbEntity
  8
FORMAT
100
AcDbLine
 10
96.3983831144
 20
95.0754315197
 30
0.0
 11
86.237193621
 21
95.0754315197
 31
0.0
  0
LINE
  5
11D
330
114
100
AcDbEntity
  8
FORMAT
100
AcDbLine
 10
87.227793621
 20
160.0754315197
 30
0.0
 11
87.227793621
 21
95.0754315197
 31
0.0
  0
MTEXT
  5
11E
330
114
100
AcDbEntity
  8
FORMAT
100
AcDbMText
 10
79.042212775
 20
123.2990433773
 30
0.0
 40
6.35
 41
0.0
 71
     1
 72
     1
  1
13
  7
SLDTEXTSTYLE0
 11
-7.044195017643634E-15
 21
1.0
 31
0.0
 73
     1
 44
1.0
  0
ENDBLK
  5
116
330
114
100
AcDbEntity
  8
0
100
AcDbBlockEnd
  0
BLOCK
  5
122
330
121
100
AcDbEntity
  8
0
100
AcDbBlockBegin
  2
*D9
 70
     1
 10
0.0
 20
0.0
 30
0.0
  3
*D9
  1

  0
INSERT
  5
124
330
121
100
AcDbEntity
  8
FORMAT
100
AcDbBlockReference
  2
_CLOSED
 10
100.8485637865
 20
99.3250571354
 30
8.4375
 41
5.9944
 42
5.9944
 50
75.003614909
  0
LINE
  5
125
330
121
100
AcDbEntity
  8
FORMAT
100
AcDbLine
 10
100.8485637865
 20
99.3250571354
 30
0.0
 11
89.2922916885
 21
56.1855756679
 31
0.0
  0
LINE
  5
126
330
121
100
AcDbEntity
  8
FORMAT
100
AcDbLine
 10
89.2922916885
 20
56.1855756679
 30
0.0
 11
18.180394652
 21
56.1855756679
 31
0.0
  0
MTEXT
  5
127
330
121
100
AcDbEntity
  8
FORMAT
100
AcDbMText
 10
18.941916602
 20
64.371156514
 30
0.0
 40
6.35
 41
0.0
 71
     1
 72
     1
  1
2
  7
SLDTEXTSTYLE0
 73
     1
 44
1.0
  0
MTEXT
  5
128
330
121
100
AcDbEntity
  8
FORMAT
100
AcDbMText
 10
24.0018569691
 20
64.4681695926
 30
0.0
 40
6.35
 41
0.0
 71
     1
 72
     1
  1
 x 
  7
SLDTEXTSTYLE0
 73
     1
 44
1.0
  0
MTEXT
  5
129
330
121
100
AcDbEntity
  8
FORMAT
100
AcDbMText
 10
32.7595655633
 20
64.3711556991
 30
0.0
 40
6.35
 41
0.0
 71
     1
 72
     1
  1
%%c
  7
SLDTEXTSTYLE0
 73
     1
 44
1.0
  0
MTEXT
  5
12A
330
121
100
AcDbEntity
  8
FORMAT
100
AcDbMText
 10
42.3361581577
 20
64.4681695926
 30
0.0
 40
6.35
 41
0.0
 71
     1
 72
     1
  1
 
  7
SLDTEXTSTYLE0
 73
     1
 44
1.0
  0
MTEXT
  5
12B
330
121
100
AcDbEntity
  8
FORMAT
100
AcDbMText
 10
44.6777171939
 20
64.371156514
 30
0.0
 40
6.35
 41
0.0
 71
     1
 72
     1
  1
2.38
  7
SLDTEXTSTYLE0
 73
     1
 44
1.0
  0
MTEXT
  5
12C
330
121
100
AcDbEntity
  8
FORMAT
100
AcDbMText
 10
62.4024433675
 20
64.4681695926
 30
0.0
 40
6.35
 41
0.0
 71
     1
 72
     1
  1
 
  7
SLDTEXTSTYLE0
 73
     1
 44
1.0
  0
INSERT
  5
134
330
121
100
AcDbEntity
  8
FORMAT
100
AcDbBlockReference
  2
SW_SYMBOL_HOLE_DEPTH
 10
64.7484155963
 20
57.0661419578
 30
0.0
 41
0.0081111328
 42
0.0081111328
 43
0.0081111328
  0
MTEXT
  5
135
330
121
100
AcDbEntity
  8
FORMAT
100
AcDbMText
 10
73.8209778103
 20
64.4681695926
 30
0.0
 40
6.35
 41
0.0
 71
     1
 72
     1
  1
 
  7
SLDTEXTSTYLE0
 73
     1
 44
1.0
  0
MTEXT
  5
136
330
121
100
AcDbEntity
  8
FORMAT
100
AcDbMText
 10
76.1664369988
 20
64.371156514
 30
0.0
 40
6.35
 41
0.0
 71
     1
 72
     1
  1
10
  7
SLDTEXTSTYLE0
 73
     1
 44
1.0
  0
ENDBLK
  5
123
330
121
100
AcDbEntity
  8
0
100
AcDbBlockEnd
  0
BLOCK
  5
12E
330
12D
100
AcDbEntity
  8
0
100
AcDbBlockBegin
  2
SW_SYMBOL_HOLE_DEPTH
 70
     0
 10
0.0
 20
0.0
 30
0.0
  3
SW_SYMBOL_HOLE_DEPTH
  1

  0
LINE
  5
130
330
12D
100
AcDbEntity
  8
FORMAT
 62
     0
100
AcDbLine
 10
0.0
 20
875.0
 30
0.0
 11
800.0
 21
875.0
 31
0.0
  0
LINE
  5
131
330
12D
100
AcDbEntity
  8
FORMAT
 62
     0
100
AcDbLine
 10
400.0
 20
875.0
 30
0.0
 11
400.0
 21
75.0
 31
0.0
  0
LINE
  5
132
330
12D
100
AcDbEntity
  8
FORMAT
 62
     0
100
AcDbLine
 10
100.0
 20
555.0
 30
0.0
 11
400.0
 21
75.0
 31
0.0
  0
LINE
  5
133
330
12D
100
AcDbEntity
  8
FORMAT
 62
     0
100
AcDbLine
 10
700.0
 20
555.0
 30
0.0
 11
400.0
 21
75.0
 31
0.0
  0
ENDBLK
  5
12F
330
12D
100
AcDbEntity
  8
0
100
AcDbBlockEnd
  0
BLOCK
  5
13A
330
139
100
AcDbEntity
  8
0
100
AcDbBlockBegin
  2
*D11
 70
     1
 10
0.0
 20
0.0
 30
0.0
  3
*D11
  1

  0
INSERT
  5
13C
330
139
100
AcDbEntity
  8
FORMAT
100
AcDbBlockReference
  2
_CLOSED
 10
118.5392807898
 20
100.7818502339
 30
8.4375
 41
5.9944
 42
5.9944
 50
104.9979585439
  0
LINE
  5
13D
330
139
100
AcDbEntity
  8
FORMAT
100
AcDbLine
 10
118.5392807898
 20
100.7818502339
 30
0.0
 11
129.0950465761
 21
61.381580713
 31
0.0
  0
LINE
  5
13E
330
139
100
AcDbEntity
  8
FORMAT
100
AcDbLine
 10
129.0950465761
 20
61.381580713
 30
0.0
 11
210.9361678148
 21
61.381580713
 31
0.0
  0
INSERT
  5
145
330
139
100
AcDbEntity
  8
FORMAT
100
AcDbBlockReference
  2
SW_SYMBOL_HOLE_SPOT
 10
135.2700465761
 20
62.2621470028
 30
0.0
 41
0.0081111328
 42
0.0081111328
 43
0.0081111328
  0
MTEXT
  5
146
330
139
100
AcDbEntity
  8
FORMAT
100
AcDbMText
 10
152.4071083807
 20
69.5671607441
 30
0.0
 40
6.35
 41
0.0
 71
     1
 72
     1
  1
%%c
  7
SLDTEXTSTYLE0
 73
     1
 44
1.0
  0
MTEXT
  5
147
330
139
100
AcDbEntity
  8
FORMAT
100
AcDbMText
 10
161.983700975
 20
69.6641746377
 30
0.0
 40
6.35
 41
0.0
 71
     1
 72
     1
  1
 
  7
SLDTEXTSTYLE0
 73
     1
 44
1.0
  0
MTEXT
  5
148
330
139
100
AcDbEntity
  8
FORMAT
100
AcDbMText
 10
164.3273664644
 20
69.567161559
 30
0.0
 40
6.35
 41
0.0
 71
     1
 72
     1
  1
3.18
  7
SLDTEXTSTYLE0
 73
     1
 44
1.0
  0
MTEXT
  5
149
330
139
100
AcDbEntity
  8
FORMAT
100
AcDbMText
 10
182.052092638
 20
69.6641746377
 30
0.0
 40
6.35
 41
0.0
 71
     1
 72
     1
  1
 
  7
SLDTEXTSTYLE0
 73
     1
 44
1.0
  0
INSERT
  5
14A
330
139
100
AcDbEntity
  8
FORMAT
100
AcDbBlockReference
  2
SW_SYMBOL_HOLE_DEPTH
 10
184.3980648668
 20
62.2621470028
 30
0.0
 41
0.0081111328
 42
0.0081111328
 43
0.0081111328
  0
MTEXT
  5
14B
330
139
100
AcDbEntity
  8
FORMAT
100
AcDbMText
 10
193.4706270808
 20
69.6641746377
 30
0.0
 40
6.35
 41
0.0
 71
     1
 72
     1
  1
 
  7
SLDTEXTSTYLE0
 73
     1
 44
1.0
  0
MTEXT
  5
14C
330
139
100
AcDbEntity
  8
FORMAT
100
AcDbMText
 10
195.8160862693
 20
69.567161559
 30
0.0
 40
6.35
 41
0.0
 71
     1
 72
     1
  1
1.52
  7
SLDTEXTSTYLE0
 73
     1
 44
1.0
  0
MTEXT
  5
14D
330
139
100
AcDbEntity
  8
FORMAT
100
AcDbMText
 10
138.7050710284
 20
79.6452237893
 30
0.0
 40
6.35
 41
0.0
 71
     1
 72
     1
  1
%%c
  7
SLDTEXTSTYLE0
 73
     1
 44
1.0
  0
MTEXT
  5
14E
330
139
100
AcDbEntity
  8
FORMAT
100
AcDbMText
 10
148.2816645541
 20
79.7422376828
 30
0.0
 40
6.35
 41
0.0
 71
     1
 72
     1
  1
 
  7
SLDTEXTSTYLE0
 73
     1
 44
1.0
  0
MTEXT
  5
14F
330
139
100
AcDbEntity
  8
FORMAT
100
AcDbMText
 10
150.6231123888
 20
79.6452246042
 30
0.0
 40
6.35
 41
0.0
 71
     1
 72
     1
  1
1.78
  7
SLDTEXTSTYLE0
 73
     1
 44
1.0
  0
MTEXT
  5
150
330
139
100
AcDbEntity
  8
FORMAT
100
AcDbMText
 10
168.3478385624
 20
79.6452246042
 30
0.0
 40
6.35
 41
0.0
 71
     1
 72
     1
  1
 
  7
SLDTEXTSTYLE0
 73
     1
 44
1.0
  0
MTEXT
  5
151
330
139
100
AcDbEntity
  8
FORMAT
100
AcDbMText
 10
170.6896291455
 20
79.6452246042
 30
0.0
 40
6.35
 41
0.0
 71
     1
 72
     1
  1
THRU ALL
  7
SLDTEXTSTYLE0
 73
     1
 44
1.0
  0
ENDBLK
  5
13B
330
139
100
AcDbEntity
  8
0
100
AcDbBlockEnd
  0
BLOCK
  5
140
330
13F
100
AcDbEntity
  8
0
100
AcDbBlockBegin
  2
SW_SYMBOL_HOLE_SPOT
 70
     0
 10
0.0
 20
0.0
 30
0.0
  3
SW_SYMBOL_HOLE_SPOT
  1

  0
LINE
  5
142
330
13F
100
AcDbEntity
  8
FORMAT
 62
     0
100
AcDbLine
 10
0.0
 20
875.0
 30
0.0
 11
0.0
 21
75.0
 31
0.0
  0
LINE
  5
143
330
13F
100
AcDbEntity
  8
FORMAT
 62
     0
100
AcDbLine
 10
0.0
 20
75.0
 30
0.0
 11
1600.0
 21
75.0
 31
0.0
  0
LINE
  5
144
330
13F
100
AcDbEntity
  8
FORMAT
 62
     0
100
AcDbLine
 10
1600.0
 20
75.0
 30
0.0
 11
1600.0
 21
875.0
 31
0.0
  0
ENDBLK
  5
141
330
13F
100
AcDbEntity
  8
0
100
AcDbBlockEnd
  0
BLOCK
  5
173
330
172
100
AcDbEntity
  8
0
100
AcDbBlockBegin
  2
*D13
 70
     1
 10
0.0
 20
0.0
 30
0.0
  3
*D13
  1

  0
ARC
  5
175
330
172
100
AcDbEntity
  8
FORMAT
100
AcDbCircle
 10
45.3671098192
 20
198.8644630423
 30
0.0
 40
11.26761702522382
100
AcDbArc
 50
153.4349488229
 51
206.5650511771
  0
ARC
  5
176
330
172
100
AcDbEntity
  8
FORMAT
100
AcDbCircle
 10
44.8024136329
 20
198.8644630423
 30
0.0
 40
11.26761702522382
100
AcDbArc
 50
333.4349488229
 51
26.5650511771
  0
INSERT
  5
177
330
172
100
AcDbEntity
  8
FORMAT
100
AcDbBlockReference
  2
_CLOSED
 10
37.1472617261
 20
193.8254315197
 30
13.0
 41
5.9944
 42
5.9944
 50
0.0
  0
INSERT
  5
178
330
172
100
AcDbEntity
  8
FORMAT
100
AcDbBlockReference
  2
_CLOSED
 10
53.0222617261
 20
193.8254315197
 30
13.0
 41
5.9944
 42
5.9944
 50
180.0
  0
LINE
  5
179
330
172
100
AcDbEntity
  8
FORMAT
100
AcDbLine
 10
37.1472617261
 20
155.8160315197
 30
0.0
 11
37.1472617261
 21
194.8160315197
 31
0.0
  0
LINE
  5
17A
330
172
100
AcDbEntity
  8
FORMAT
100
AcDbLine
 10
53.0222617261
 20
156.0660315197
 30
0.0
 11
53.0222617261
 21
194.8160315197
 31
0.0
  0
LINE
  5
17B
330
172
100
AcDbEntity
  8
FORMAT
100
AcDbLine
 10
37.1472617261
 20
193.8254315197
 30
0.0
 11
25.1584617261
 21
193.8254315197
 31
0.0
  0
LINE
  5
17C
330
172
100
AcDbEntity
  8
FORMAT
100
AcDbLine
 10
37.1472617261
 20
193.8254315197
 30
0.0
 11
53.0222617261
 21
193.8254315197
 31
0.0
  0
LINE
  5
17D
330
172
100
AcDbEntity
  8
FORMAT
100
AcDbLine
 10
53.0222617261
 20
193.8254315197
 30
0.0
 11
65.0110617261
 21
193.8254315197
 31
0.0
  0
MTEXT
  5
17E
330
172
100
AcDbEntity
  8
FORMAT
100
AcDbMText
 10
36.8765467741
 20
202.0110123657
 30
0.0
 40
6.35
 41
0.0
 71
     1
 72
     1
  1
3.18
  7
SLDTEXTSTYLE0
 73
     1
 44
1.0
  0
ENDBLK
  5
174
330
172
100
AcDbEntity
  8
0
100
AcDbBlockEnd
  0
BLOCK
  5
181
330
180
100
AcDbEntity
  8
0
100
AcDbBlockBegin
  2
*D14
 70
     1
 10
0.0
 20
0.0
 30
0.0
  3
*D14
  1

  0
ARC
  5
183
330
180
100
AcDbEntity
  8
FORMAT
100
AcDbCircle
 10
27.2930472103
 20
174.8644630423
 30
0.0
 40
11.2676170252238
100
AcDbArc
 50
153.4349488229
 51
206.5650511771
  0
ARC
  5
184
330
180
100
AcDbEntity
  8
FORMAT
100
AcDbCircle
 10
15.0014762418
 20
174.8644630423
 30
0.0
 40
11.2676170252238
100
AcDbArc
 50
333.4349488229
 51
26.5650511771
  0
INSERT
  5
185
330
180
100
AcDbEntity
  8
FORMAT
100
AcDbBlockReference
  2
_CLOSED
 10
42.1472617261
 20
169.8254315197
 30
13.0
 41
5.9944
 42
5.9944
 50
180.0
  0
INSERT
  5
186
330
180
100
AcDbEntity
  8
FORMAT
100
AcDbBlockReference
  2
_CLOSED
 10
37.1472617261
 20
169.8254315197
 30
13.0
 41
5.9944
 42
5.9944
 50
360.0
  0
LINE
  5
187
330
180
100
AcDbEntity
  8
FORMAT
100
AcDbLine
 10
42.1472617261
 20
155.8160315197
 30
0.0
 11
42.1472617261
 21
170.8160315197
 31
0.0
  0
LINE
  5
188
330
180
100
AcDbEntity
  8
FORMAT
100
AcDbLine
 10
37.1472617261
 20
155.8160315197
 30
0.0
 11
37.1472617261
 21
170.8160315197
 31
0.0
  0
LINE
  5
189
330
180
100
AcDbEntity
  8
FORMAT
100
AcDbLine
 10
42.1472617261
 20
169.8254315197
 30
0.0
 11
54.1360617261
 21
169.8254315197
 31
0.0
  0
LINE
  5
18A
330
180
100
AcDbEntity
  8
FORMAT
100
AcDbLine
 10
42.1472617261
 20
169.8254315197
 30
0.0
 11
37.1472617261
 21
169.8254315197
 31
0.0
  0
LINE
  5
18B
330
180
100
AcDbEntity
  8
FORMAT
100
AcDbLine
 10
37.1472617261
 20
169.8254315197
 30
0.0
 11
15.6274841652
 21
169.8254315197
 31
0.0
  0
MTEXT
  5
18C
330
180
100
AcDbEntity
  8
FORMAT
100
AcDbMText
 10
18.8024841652
 20
178.0110123657
 30
0.0
 40
6.35
 41
0.0
 71
     1
 72
     1
  1
1
  7
SLDTEXTSTYLE0
 73
     1
 44
1.0
  0
ENDBLK
  5
182
330
180
100
AcDbEntity
  8
0
100
AcDbBlockEnd
  0
BLOCK
  5
18F
330
18E
100
AcDbEntity
  8
0
100
AcDbBlockBegin
  2
*D15
 70
     1
 10
0.0
 20
0.0
 30
0.0
  3
*D15
  1

  0
ARC
  5
191
330
18E
100
AcDbEntity
  8
FORMAT
100
AcDbCircle
 10
69.3046098192
 20
181.1144630423
 30
0.0
 40
11.26761702522379
100
AcDbArc
 50
153.4349488229
 51
206.5650511771
  0
ARC
  5
192
330
18E
100
AcDbEntity
  8
FORMAT
100
AcDbCircle
 10
68.7399136329
 20
181.1144630423
 30
0.0
 40
11.2676170252238
100
AcDbArc
 50
333.4349488229
 51
26.5650511771
  0
INSERT
  5
193
330
18E
100
AcDbEntity
  8
FORMAT
100
AcDbBlockReference
  2
_CLOSED
 10
42.1472617261
 20
176.0754315197
 30
13.0
 41
5.9944
 42
5.9944
 50
0.0
  0
INSERT
  5
194
330
18E
100
AcDbEntity
  8
FORMAT
100
AcDbBlockReference
  2
_CLOSED
 10
53.0222617261
 20
176.0754315197
 30
13.0
 41
5.9944
 42
5.9944
 50
180.0
  0
LINE
  5
195
330
18E
100
AcDbEntity
  8
FORMAT
100
AcDbLine
 10
42.1472617261
 20
161.0660315197
 30
0.0
 11
42.1472617261
 21
177.0660315197
 31
0.0
  0
LINE
  5
196
330
18E
100
AcDbEntity
  8
FORMAT
100
AcDbLine
 10
53.0222617261
 20
156.0660315197
 30
0.0
 11
53.0222617261
 21
177.0660315197
 31
0.0
  0
LINE
  5
197
330
18E
100
AcDbEntity
  8
FORMAT
100
AcDbLine
 10
42.1472617261
 20
176.0754315197
 30
0.0
 11
30.1584617261
 21
176.0754315197
 31
0.0
  0
LINE
  5
198
330
18E
100
AcDbEntity
  8
FORMAT
100
AcDbLine
 10
42.1472617261
 20
176.0754315197
 30
0.0
 11
53.0222617261
 21
176.0754315197
 31
0.0
  0
LINE
  5
199
330
18E
100
AcDbEntity
  8
FORMAT
100
AcDbLine
 10
53.0222617261
 20
176.0754315197
 30
0.0
 11
80.4054766781
 21
176.0754315197
 31
0.0
  0
MTEXT
  5
19A
330
18E
100
AcDbEntity
  8
FORMAT
100
AcDbMText
 10
60.8140467741
 20
184.2610123657
 30
0.0
 40
6.35
 41
0.0
 71
     1
 72
     1
  1
2.18
  7
SLDTEXTSTYLE0
 73
     1
 44
1.0
  0
ENDBLK
  5
190
330
18E
100
AcDbEntity
  8
0
100
AcDbBlockEnd
  0
BLOCK
  5
19D
330
19C
100
AcDbEntity
  8
0
100
AcDbBlockBegin
  2
*D16
 70
     1
 10
0.0
 20
0.0
 30
0.0
  3
*D16
  1

  0
ARC
  5
19F
330
19C
100
AcDbEntity
  8
FORMAT
100
AcDbCircle
 10
69.3046098192
 20
95.0162679203
 30
0.0
 40
11.26761702522378
100
AcDbArc
 50
153.4349488229
 51
206.5650511771
  0
ARC
  5
1A0
330
19C
100
AcDbEntity
  8
FORMAT
100
AcDbCircle
 10
68.7399136329
 20
95.0162679203
 30
0.0
 40
11.26761702522379
100
AcDbArc
 50
333.4349488229
 51
26.5650511771
  0
INSERT
  5
1A1
330
19C
100
AcDbEntity
  8
FORMAT
100
AcDbBlockReference
  2
_CLOSED
 10
45.4022617261
 20
89.9772363977
 30
13.0
 41
5.9944
 42
5.9944
 50
180.0
  0
INSERT
  5
1A2
330
19C
100
AcDbEntity
  8
FORMAT
100
AcDbBlockReference
  2
_CLOSED
 10
42.1472617261
 20
89.9772363977
 30
13.0
 41
5.9944
 42
5.9944
 50
360.0
  0
LINE
  5
1A3
330
19C
100
AcDbEntity
  8
FORMAT
100
AcDbLine
 10
45.4022617261
 20
99.6398315197
 30
0.0
 11
45.4022617261
 21
88.9866363977
 31
0.0
  0
LINE
  5
1A4
330
19C
100
AcDbEntity
  8
FORMAT
100
AcDbLine
 10
42.1472617261
 20
99.6398315197
 30
0.0
 11
42.1472617261
 21
88.9866363977
 31
0.0
  0
LINE
  5
1A5
330
19C
100
AcDbEntity
  8
FORMAT
100
AcDbLine
 10
45.4022617261
 20
89.9772363977
 30
0.0
 11
80.4054766781
 21
89.9772363977
 31
0.0
  0
LINE
  5
1A6
330
19C
100
AcDbEntity
  8
FORMAT
100
AcDbLine
 10
45.4022617261
 20
89.9772363977
 30
0.0
 11
42.1472617261
 21
89.9772363977
 31
0.0
  0
LINE
  5
1A7
330
19C
100
AcDbEntity
  8
FORMAT
100
AcDbLine
 10
42.1472617261
 20
89.9772363977
 30
0.0
 11
30.1584617261
 21
89.9772363977
 31
0.0
  0
MTEXT
  5
1A8
330
19C
100
AcDbEntity
  8
FORMAT
100
AcDbMText
 10
60.8140467741
 20
98.1628172438
 30
0.0
 40
6.35
 41
0.0
 71
     1
 72
     1
  1
0.65
  7
SLDTEXTSTYLE0
 73
     1
 44
1.0
  0
ENDBLK
  5
19E
330
19C
100
AcDbEntity
  8
0
100
AcDbBlockEnd
  0
ENDSEC
  0
SECTION
  2
ENTITIES
  0
LINE
  5
41
330
1F
100
AcDbEntity
  8
0
  6
Continuous
 62
     8
370
     0
100
AcDbLine
 10
8.3801458
 20
208.0786585366
 30
0.0
 11
270.0001458
 21
208.0786585366
 31
0.0
  0
LINE
  5
42
330
1F
100
AcDbEntity
  8
0
  6
Continuous
 62
     8
370
     0
100
AcDbLine
 10
8.3801458
 20
208.0786585366
 30
0.0
 11
8.3801458
 21
9.9586585366
 31
0.0
  0
LINE
  5
43
330
1F
100
AcDbEntity
  8
0
  6
Continuous
 62
     8
370
     0
100
AcDbLine
 10
270.0001458
 20
9.9586585366
 30
0.0
 11
8.3801458
 21
9.9586585366
 31
0.0
  0
LINE
  5
44
330
1F
100
AcDbEntity
  8
0
  6
Continuous
 62
     8
370
     0
100
AcDbLine
 10
270.0001458
 20
9.9586585366
 30
0.0
 11
270.0001458
 21
208.0786585366
 31
0.0
  0
LINE
  5
45
330
1F
100
AcDbEntity
  8
0
  6
Continuous
 62
     8
370
     0
100
AcDbLine
 10
143.0001458
 20
9.9586585366
 30
0.0
 11
143.0001458
 21
48.0586585366
 31
0.0
  0
LINE
  5
46
330
1F
100
AcDbEntity
  8
0
  6
Continuous
 62
     8
370
     0
100
AcDbLine
 10
143.0001458
 20
48.0586585366
 30
0.0
 11
270.0001458
 21
48.0586585366
 31
0.0
  0
LINE
  5
47
330
1F
100
AcDbEntity
  8
0
  6
Continuous
 62
     8
370
     0
100
AcDbLine
 10
176.4516579819
 20
48.0586585366
 30
0.0
 11
176.4516579819
 21
9.9586585366
 31
0.0
  0
LINE
  5
48
330
1F
100
AcDbEntity
  8
0
  6
Continuous
 62
     8
370
     0
100
AcDbLine
 10
211.1140303648
 20
48.0586585366
 30
0.0
 11
211.1140303648
 21
9.9586585366
 31
0.0
  0
LINE
  5
49
330
1F
100
AcDbEntity
  8
0
  6
Continuous
 62
     8
370
     0
100
AcDbLine
 10
211.1140303648
 20
13.1336585366
 30
0.0
 11
270.0001458
 21
13.1336585366
 31
0.0
  0
LINE
  5
4A
330
1F
100
AcDbEntity
  8
0
  6
Continuous
 62
     8
370
     0
100
AcDbLine
 10
211.1140303648
 20
19.4836585366
 30
0.0
 11
270.0001458
 21
19.4836585366
 31
0.0
  0
LINE
  5
4B
330
1F
100
AcDbEntity
  8
0
  6
Continuous
 62
     8
370
     0
100
AcDbLine
 10
176.4516579819
 20
25.1986585366
 30
0.0
 11
211.1140303648
 21
25.1986585366
 31
0.0
  0
LINE
  5
4C
330
1F
100
AcDbEntity
  8
0
  6
Continuous
 62
     8
370
     0
100
AcDbLine
 10
216.2120359495
 20
19.4836585366
 30
0.0
 11
216.2120359495
 21
13.1336585366
 31
0.0
  0
LINE
  5
4D
330
1F
100
AcDbEntity
  8
0
  6
Continuous
 62
     8
370
     0
100
AcDbLine
 10
252.6938254626
 20
13.1336585366
 30
0.0
 11
252.6938254626
 21
9.9586585366
 31
0.0
  0
LINE
  5
4E
330
1F
100
AcDbEntity
  8
0
  6
Continuous
 62
     8
370
     0
100
AcDbLine
 10
263.5695287515
 20
19.4836585366
 30
0.0
 11
263.5695287515
 21
13.1336585366
 31
0.0
  0
LINE
  5
4F
330
1F
100
AcDbEntity
  8
0
  6
Continuous
 62
     8
370
     0
100
AcDbLine
 10
222.990073301
 20
13.1336585366
 30
0.0
 11
222.990073301
 21
9.9586585366
 31
0.0
  0
LINE
  5
50
330
1F
100
AcDbEntity
  8
0
  6
Continuous
 62
     8
370
     0
100
AcDbLine
 10
199.3765949972
 20
48.0586585366
 30
0.0
 11
199.3765949972
 21
25.1986585366
 31
0.0
  0
LINE
  5
51
330
1F
100
AcDbEntity
  8
0
  6
Continuous
 62
     8
370
     0
100
AcDbLine
 10
143.0001458
 20
15.7358512153
 30
0.0
 11
176.4516579819
 21
15.7358512153
 31
0.0
  0
LINE
  5
52
330
1F
100
AcDbEntity
  8
0
  6
Continuous
 62
     8
370
     0
100
AcDbLine
 10
176.4516579819
 20
44.2486585366
 30
0.0
 11
211.1140303648
 21
44.2486585366
 31
0.0
  0
LINE
  5
53
330
1F
100
AcDbEntity
  8
0
  6
Continuous
 62
     8
370
     0
100
AcDbLine
 10
187.2851272337
 20
48.0586585366
 30
0.0
 11
187.2851272337
 21
25.1986585366
 31
0.0
  0
LINE
  5
54
330
1F
100
AcDbEntity
  8
0
  6
Continuous
 62
     8
370
     0
100
AcDbLine
 10
143.0001458
 20
22.0858512153
 30
0.0
 11
176.4516579819
 21
22.0858512153
 31
0.0
  0
LINE
  5
55
330
1F
100
AcDbEntity
  8
0
  6
Continuous
 62
     8
370
     0
100
AcDbLine
 10
176.4516579819
 20
28.3137757838
 30
0.0
 11
143.0001458
 21
28.3137757838
 31
0.0
  0
LINE
  5
56
330
1F
100
AcDbEntity
  8
0
  6
Continuous
 62
     8
370
     0
100
AcDbLine
 10
116.774944898
 20
9.9586585366
 30
0.0
 11
116.774944898
 21
48.0586585366
 31
0.0
  0
LINE
  5
57
330
1F
100
AcDbEntity
  8
0
  6
Continuous
 62
     8
370
     0
100
AcDbLine
 10
116.774944898
 20
48.0586585366
 30
0.0
 11
143.0001458
 21
48.0586585366
 31
0.0
  0
LINE
  5
58
330
1F
100
AcDbEntity
  8
0
  6
Continuous
 62
     8
370
     0
100
AcDbLine
 10
143.0001458
 20
15.7358512153
 30
0.0
 11
116.774944898
 21
15.7358512153
 31
0.0
  0
LINE
  5
59
330
1F
100
AcDbEntity
  8
0
  6
Continuous
 62
     8
370
     0
100
AcDbLine
 10
116.774944898
 20
32.8186585366
 30
0.0
 11
75.4398329509
 21
32.8186585366
 31
0.0
  0
LINE
  5
5A
330
1F
100
AcDbEntity
  8
0
  6
Continuous
 62
     8
370
     0
100
AcDbLine
 10
75.4398329509
 20
32.8186585366
 30
0.0
 11
75.4398329509
 21
9.9586585366
 31
0.0
  0
LINE
  5
5B
330
1F
100
AcDbEntity
  8
0
  6
Continuous
 62
     8
370
     0
100
AcDbLine
 10
130.026886898
 20
48.0586585366
 30
0.0
 11
130.026886898
 21
15.7358512153
 31
0.0
  0
LINE
  5
5C
330
1F
100
AcDbEntity
  8
0
  6
Continuous
 62
     8
370
     0
100
AcDbLine
 10
176.4516579819
 20
40.4386585366
 30
0.0
 11
270.0001458
 21
40.4386585366
 31
0.0
  0
LINE
  5
5D
330
1F
100
AcDbEntity
  8
0
  6
Continuous
 62
     8
370
     0
100
AcDbLine
 10
176.4516579819
 20
36.6286585366
 30
0.0
 11
211.1140303648
 21
36.6286585366
 31
0.0
  0
LINE
  5
5E
330
1F
100
AcDbEntity
  8
0
  6
Continuous
 62
     8
370
     0
100
AcDbLine
 10
176.4516579819
 20
32.8186585366
 30
0.0
 11
211.1140303648
 21
32.8186585366
 31
0.0
  0
LINE
  5
5F
330
1F
100
AcDbEntity
  8
0
  6
Continuous
 62
     8
370
     0
100
AcDbLine
 10
176.4516579819
 20
29.0086585366
 30
0.0
 11
211.1140303648
 21
29.0086585366
 31
0.0
  0
LINE
  5
60
330
1F
100
AcDbEntity
  8
0
  6
Continuous
 62
     8
370
     0
100
AcDbLine
 10
116.774944898
 20
44.2486585366
 30
0.0
 11
143.0001458
 21
44.2486585366
 31
0.0
  0
LINE
  5
61
330
1F
100
AcDbEntity
  8
0
  6
Continuous
 62
     8
370
     0
100
AcDbLine
 10
116.774944898
 20
40.4386585366
 30
0.0
 11
143.0001458
 21
40.4386585366
 31
0.0
  0
LINE
  5
62
330
1F
100
AcDbEntity
  8
0
  6
Continuous
 62
     8
370
     0
100
AcDbLine
 10
116.774944898
 20
36.6286585366
 30
0.0
 11
143.0001458
 21
36.6286585366
 31
0.0
  0
LINE
  5
63
330
1F
100
AcDbEntity
  8
0
  6
Continuous
 62
     8
370
     0
100
AcDbLine
 10
116.774944898
 20
32.8186585366
 30
0.0
 11
143.0001458
 21
32.8186585366
 31
0.0
  0
LINE
  5
64
330
1F
100
AcDbEntity
  8
0
  6
Continuous
 62
     8
370
     0
100
AcDbLine
 10
116.774944898
 20
29.0086585366
 30
0.0
 11
143.0001458
 21
29.0086585366
 31
0.0
  0
LINE
  5
65
330
1F
100
AcDbEntity
  8
0
  6
Continuous
 62
     8
370
     0
100
AcDbLine
 10
116.774944898
 20
25.1986585366
 30
0.0
 11
143.0001458
 21
25.1986585366
 31
0.0
  0
LINE
  5
66
330
1F
100
AcDbEntity
  8
0
  6
Continuous
 62
     8
370
     0
100
AcDbLine
 10
116.774944898
 20
21.3886585366
 30
0.0
 11
143.0001458
 21
21.3886585366
 31
0.0
  0
MTEXT
  5
68
330
1F
100
AcDbEntity
  8
0
  6
Continuous
 62
     8
370
     0
100
AcDbMText
 10
215.2254706525
 20
46.538780922
 30
0.0
 40
3.96875
 41
0.0
 71
     1
 72
     1
  1
<COMPANY NAME>
  7
SLDTEXTSTYLE0
 73
     1
 44
1.0
  0
MTEXT
  5
69
330
1F
100
AcDbEntity
  8
0
  6
Continuous
 62
     8
370
     0
100
AcDbMText
 10
211.7793376587
 20
12.287779388
 30
0.0
 40
1.3229166667
 41
0.0
 71
     1
 72
     1
  1
SCALE:5:1
  7
SLDTEXTSTYLE0
 73
     1
 44
1.0
  0
MTEXT
  5
6A
330
1F
100
AcDbEntity
  8
0
  6
Continuous
 62
     8
370
     0
100
AcDbMText
 10
211.9023496367
 20
18.9478116115
 30
0.0
 40
1.3229166667
 41
0.0
 71
     1
 72
     1
  1
SIZE
  7
SLDTEXTSTYLE0
 73
     1
 44
1.0
  0
MTEXT
  5
6C
330
1F
100
AcDbEntity
  8
0
  6
Continuous
 62
     8
370
     0
100
AcDbMText
 10
216.8536978539
 20
18.8439059874
 30
0.0
 40
1.3229166667
 41
0.0
 71
     1
 72
     1
  1
DWG.  NO.
  7
SLDTEXTSTYLE1
 73
     1
 44
1.0
  0
MTEXT
  5
6D
330
1F
100
AcDbEntity
  8
0
  6
Continuous
 62
     8
370
     0
100
AcDbMText
 10
212.3905251951
 20
16.9959962471
 30
0.0
 40
2.54
 41
0.0
 71
     1
 72
     1
  1
A
  7
SLDTEXTSTYLE0
 73
     1
 44
1.0
  0
MTEXT
  5
6E
330
1F
100
AcDbEntity
  8
0
  6
Continuous
 62
     8
370
     0
100
AcDbMText
 10
264.6045784572
 20
18.7653242907
 30
0.0
 40
1.3229166667
 41
0.0
 71
     1
 72
     1
  1
REV.
  7
SLDTEXTSTYLE0
 73
     1
 44
1.0
  0
MTEXT
  5
6F
330
1F
100
AcDbEntity
  8
0
  6
Continuous
 62
     8
370
     0
100
AcDbMText
 10
144.1376297307
 20
27.4692452041
 30
0.0
 40
1.3229166667
 41
0.0
 71
     1
 72
     1
  1
MATERIAL
  7
SLDTEXTSTYLE0
 73
     1
 44
1.0
  0
MTEXT
  5
70
330
1F
100
AcDbEntity
  8
0
  6
Continuous
 62
     8
370
     0
100
AcDbMText
 10
144.107962828
 20
20.9903165296
 30
0.0
 40
1.3229166667
 41
0.0
 71
     1
 72
     1
  1
FINISH
  7
SLDTEXTSTYLE0
 73
     1
 44
1.0
  0
MTEXT
  5
71
330
1F
100
AcDbEntity
  8
0
  6
Continuous
 62
     8
370
     0
100
AcDbMText
 10
158.494379388
 20
26.8141189024
 30
0.0
 40
2.38125
 41
0.0
 71
     1
 72
     1
  1
--
  7
SLDTEXTSTYLE0
 73
     1
 44
1.0
  0
MTEXT
  5
72
330
1F
100
AcDbEntity
  8
0
  6
Continuous
 62
     8
370
     0
100
AcDbMText
 10
158.4300936069
 20
20.3772147063
 30
0.0
 40
2.38125
 41
0.0
 71
     1
 72
     1
  1
--
  7
SLDTEXTSTYLE0
 73
     1
 44
1.0
  0
MTEXT
  5
74
330
1F
100
AcDbEntity
  8
0
  6
Continuous
 62
     8
370
     0
100
AcDbMText
 10
146.1341158626
 20
13.6529556097
 30
0.0
 40
1.5875
 41
0.0
 71
     1
 72
     1
  1
DO  NOT  SCALE  DRAWING
  7
SLDTEXTSTYLE2
 73
     1
 44
1.0
  0
MTEXT
  5
75
330
1F
100
AcDbEntity
  8
0
  6
Continuous
 62
     8
370
     0
100
AcDbMText
 10
123.1373075583
 20
13.4423664803
 30
0.0
 40
1.5875
 41
0.0
 71
     1
 72
     1
  1
APPLICATION
  7
SLDTEXTSTYLE0
 73
     1
 44
1.0
  0
MTEXT
  5
76
330
1F
100
AcDbEntity
  8
0
  6
Continuous
 62
     8
370
     0
100
AcDbMText
 10
132.0022088559
 20
19.6077399289
 30
0.0
 40
1.5875
 41
0.0
 71
     1
 72
     1
  1
USED ON
  7
SLDTEXTSTYLE0
 73
     1
 44
1.0
  0
MTEXT
  5
77
330
1F
100
AcDbEntity
  8
0
  6
Continuous
 62
     8
370
     0
100
AcDbMText
 10
118.3327002182
 20
19.5541767099
 30
0.0
 40
1.5875
 41
0.0
 71
     1
 72
     1
  1
NEXT ASSY
  7
SLDTEXTSTYLE0
 73
     1
 44
1.0
  0
INSERT
  5
87
330
1F
100
AcDbEntity
  8
0
  6
Continuous
 62
     8
370
     0
100
AcDbBlockReference
  2
SW_NOTE_0
 10
144.3123020786
 20
44.0388576052
 30
0.0
  0
MTEXT
  5
88
330
1F
100
AcDbEntity
  8
0
  6
Continuous
 62
     8
370
     0
100
AcDbMText
 10
190.7830354534
 20
46.9111260877
 30
0.0
 40
1.3229166667
 41
0.0
 71
     1
 72
     1
  1
NAME
  7
SLDTEXTSTYLE0
 73
     1
 44
1.0
  0
MTEXT
  5
89
330
1F
100
AcDbEntity
  8
0
  6
Continuous
 62
     8
370
     0
100
AcDbMText
 10
203.0113593517
 20
46.8596896379
 30
0.0
 40
1.3229166667
 41
0.0
 71
     1
 72
     1
  1
DATE
  7
SLDTEXTSTYLE0
 73
     1
 44
1.0
  0
MTEXT
  5
8A
330
1F
100
AcDbEntity
  8
0
  6
Continuous
 62
     8
370
     0
100
AcDbMText
 10
177.2844289847
 20
43.1662087989
 30
0.0
 40
1.3229166667
 41
0.0
 71
     1
 72
     1
  1
DRAWN
  7
SLDTEXTSTYLE0
 73
     1
 44
1.0
  0
MTEXT
  5
8B
330
1F
100
AcDbEntity
  8
0
  6
Continuous
 62
     8
370
     0
100
AcDbMText
 10
177.3452511362
 20
39.1082779854
 30
0.0
 40
1.3229166667
 41
0.0
 71
     1
 72
     1
  1
CHECKED
  7
SLDTEXTSTYLE0
 73
     1
 44
1.0
  0
MTEXT
  5
8C
330
1F
100
AcDbEntity
  8
0
  6
Continuous
 62
     8
370
     0
100
AcDbMText
 10
177.3582907907
 20
35.4914942127
 30
0.0
 40
1.3229166667
 41
0.0
 71
     1
 72
     1
  1
ENG APPR.
  7
SLDTEXTSTYLE0
 73
     1
 44
1.0
  0
MTEXT
  5
8D
330
1F
100
AcDbEntity
  8
0
  6
Continuous
 62
     8
370
     0
100
AcDbMText
 10
177.3698846248
 20
31.7087450751
 30
0.0
 40
1.3229166667
 41
0.0
 71
     1
 72
     1
  1
MFG APPR.
  7
SLDTEXTSTYLE0
 73
     1
 44
1.0
  0
MTEXT
  5
8E
330
1F
100
AcDbEntity
  8
0
  6
Continuous
 62
     8
370
     0
100
AcDbMText
 10
177.4683412596
 20
27.9664834015
 30
0.0
 40
1.3229166667
 41
0.0
 71
     1
 72
     1
  1
Q.A.
  7
SLDTEXTSTYLE0
 73
     1
 44
1.0
  0
MTEXT
  5
90
330
1F
100
AcDbEntity
  8
0
  6
Continuous
 62
     8
370
     0
100
AcDbMText
 10
253.207095084
 20
12.2932314478
 30
0.0
 40
1.27
 41
0.0
 71
     1
 72
     1
  1
SHEET 1 OF 1
  7
SLDTEXTSTYLE3
 73
     1
 44
1.0
  0
MTEXT
  5
91
330
1F
100
AcDbEntity
  8
0
  6
Continuous
 62
     8
370
     0
100
AcDbMText
 10
223.7477120367
 20
12.1984788096
 30
0.0
 40
1.3229166667
 41
0.0
 71
     1
 72
     1
  1
WEIGHT:
  7
SLDTEXTSTYLE0
 73
     1
 44
1.0
  0
MTEXT
  5
92
330
1F
100
AcDbEntity
  8
0
  6
Continuous
 62
     8
370
     0
100
AcDbMText
 10
177.5295819392
 20
24.4368224288
 30
0.0
 40
1.3229166667
 41
0.0
 71
     1
 72
     1
  1
COMMENTS:
  7
SLDTEXTSTYLE0
 73
     1
 44
1.0
  0
INSERT
  5
9D
330
1F
100
AcDbEntity
  8
0
  6
Continuous
 62
     8
370
     0
100
AcDbBlockReference
  2
SW_NOTE_1
 10
76.4054461413
 20
26.3388051665
 30
0.0
  0
MTEXT
  5
9E
330
1F
100
AcDbEntity
  8
0
  6
Continuous
 62
     8
370
     0
100
AcDbMText
 10
80.201927896
 20
31.3719365463
 30
0.0
 40
1.524
 41
0.0
 71
     1
 72
     1
  1
PROPRIETARY AND CONFIDENTIAL
  7
SLDTEXTSTYLE0
 73
     1
 44
1.0
  0
ARC
  5
9F
330
1F
100
AcDbEntity
  8
0
  6
Continuous
 62
     7
370
    15
100
AcDbCircle
 10
200.5595572233
 20
105.3254315197
 30
0.0
 40
5.0
100
AcDbArc
 50
180.0
 51
270.0
  0
ARC
  5
A0
330
1F
100
AcDbEntity
  8
0
  6
Continuous
 62
     7
370
    15
100
AcDbCircle
 10
200.5595572233
 20
134.8254315197
 30
0.0
 40
5.0
100
AcDbArc
 50
90.0
 51
180.0
  0
ARC
  5
A1
330
1F
100
AcDbEntity
  8
0
  6
Continuous
 62
     7
370
    15
100
AcDbCircle
 10
230.0595572233
 20
134.8254315197
 30
0.0
 40
5.000000000000028
100
AcDbArc
 50
0.0
 51
90.0
  0
ARC
  5
A2
330
1F
100
AcDbEntity
  8
0
  6
Continuous
 62
     7
370
    15
100
AcDbCircle
 10
230.0595572233
 20
105.3254315197
 30
0.0
 40
5.000000000000028
100
AcDbArc
 50
270.0
 51
0.0
  0
LINE
  5
A3
330
1F
100
AcDbEntity
  8
0
  6
Continuous
 62
     7
370
    15
100
AcDbLine
 10
230.0595572233
 20
139.8254315197
 30
0.0
 11
200.5595572233
 21
139.8254315197
 31
0.0
  0
LINE
  5
A4
330
1F
100
AcDbEntity
  8
0
  6
Continuous
 62
     7
370
    15
100
AcDbLine
 10
235.0595572233
 20
105.3254315197
 30
0.0
 11
235.0595572233
 21
134.8254315197
 31
0.0
  0
LINE
  5
A5
330
1F
100
AcDbEntity
  8
0
  6
Continuous
 62
     7
370
    15
100
AcDbLine
 10
200.5595572233
 20
100.3254315197
 30
0.0
 11
230.0595572233
 21
100.3254315197
 31
0.0
  0
LINE
  5
A6
330
1F
100
AcDbEntity
  8
0
  6
Continuous
 62
     7
370
    15
100
AcDbLine
 10
195.5595572233
 20
134.8254315197
 30
0.0
 11
195.5595572233
 21
105.3254315197
 31
0.0
  0
ARC
  5
A7
330
1F
100
AcDbEntity
  8
0
  6
Continuous
 62
     7
370
    15
100
AcDbCircle
 10
195.3095572233
 20
100.0754315197
 30
0.0
 40
5.0
100
AcDbArc
 50
180.0
 51
270.0
  0
LINE
  5
A8
330
1F
100
AcDbEntity
  8
0
  6
Continuous
 62
     7
370
    15
100
AcDbLine
 10
190.3095572233
 20
155.0754315197
 30
0.0
 11
190.3095572233
 21
100.0754315197
 31
0.0
  0
ARC
  5
A9
330
1F
100
AcDbEntity
  8
0
  6
Continuous
 62
     7
370
    15
100
AcDbCircle
 10
195.3095572233
 20
155.0754315197
 30
0.0
 40
5.0
100
AcDbArc
 50
90.0
 51
180.0
  0
LINE
  5
AA
330
1F
100
AcDbEntity
  8
0
  6
Continuous
 62
     7
370
    15
100
AcDbLine
 10
235.3095572233
 20
160.0754315197
 30
0.0
 11
195.3095572233
 21
160.0754315197
 31
0.0
  0
ARC
  5
AB
330
1F
100
AcDbEntity
  8
0
  6
Continuous
 62
     7
370
    15
100
AcDbCircle
 10
235.3095572233
 20
155.0754315197
 30
0.0
 40
5.0
100
AcDbArc
 50
0.0
 51
90.0
  0
LINE
  5
AC
330
1F
100
AcDbEntity
  8
0
  6
Continuous
 62
     7
370
    15
100
AcDbLine
 10
240.3095572233
 20
100.0754315197
 30
0.0
 11
240.3095572233
 21
155.0754315197
 31
0.0
  0
LINE
  5
AD
330
1F
100
AcDbEntity
  8
0
  6
Continuous
 62
     7
370
    15
100
AcDbLine
 10
195.3095572233
 20
95.0754315197
 30
0.0
 11
235.3095572233
 21
95.0754315197
 31
0.0
  0
CIRCLE
  5
AE
330
1F
100
AcDbEntity
  8
0
  6
Continuous
 62
     7
370
    15
100
AcDbCircle
 10
215.3095572233
 20
150.0754315197
 30
0.0
 40
4.445000000000022
  0
CIRCLE
  5
AF
330
1F
100
AcDbEntity
  8
0
  6
Continuous
 62
     7
370
    15
100
AcDbCircle
 10
230.3095572233
 20
150.0754315197
 30
0.0
 40
5.953125
  0
CIRCLE
  5
B0
330
1F
100
AcDbEntity
  8
0
  6
Continuous
 62
     7
370
    15
100
AcDbCircle
 10
200.3095572233
 20
150.0754315197
 30
0.0
 40
5.953125
  0
ARC
  5
B1
330
1F
100
AcDbEntity
  8
0
  6
Continuous
 62
     7
370
    15
100
AcDbCircle
 10
235.3095572233
 20
100.0754315197
 30
0.0
 40
5.0
100
AcDbArc
 50
270.0
 51
0.0
  0
DIMENSION
  5
B2
330
1F
100
AcDbEntity
  8
FORMAT
100
AcDbDimension
  2
*D4
 10
185.3983677298
 20
100.3254315197
 30
0.0
 11
185.3983677298
 21
120.5456408537
 31
0.0
 70
   160
  1
(<>)
 71
     2
 42
-1.0
  3
SLDDIMSTYLE0
100
AcDbAlignedDimension
 13
200.5595572233
 23
139.8254315197
 33
0.0
 14
200.5595572233
 24
100.3254315197
 34
0.0
 50
90.0
100
AcDbRotatedDimension
  0
DIMENSION
  5
C8
330
1F
100
AcDbEntity
  8
FORMAT
100
AcDbDimension
  2
*D5
 10
235.0595572233
 20
169.8254315197
 30
0.0
 11
214.9015548311
 21
169.8254315197
 31
0.0
 70
   160
  1
(<>)
 71
     2
 42
-1.0
  3
SLDDIMSTYLE0
100
AcDbAlignedDimension
 13
195.5595572233
 23
134.8254315197
 33
0.0
 14
235.0595572233
 24
134.8254315197
 34
0.0
100
AcDbRotatedDimension
  0
DIMENSION
  5
D6
330
1F
100
AcDbEntity
  8
FORMAT
100
AcDbDimension
  2
*D6
 10
235.3095572233
 20
100.0754315197
 30
0.0
 11
255.1486835446
 21
80.2363251956
 31
0.0
 70
   164
  1
(<>)
 71
     1
 42
-1.0
  3
SLDDIMSTYLE1
100
AcDbRadialDimension
 15
238.8450911289
 25
96.5398976135
 35
0.0
 40
0.0
  0
LINE
  5
E2
330
1F
100
AcDbEntity
  8
0
  6
Continuous
 62
     7
370
    15
100
AcDbLine
 10
97.3889831144
 20
155.0754315197
 30
0.0
 11
97.3889831144
 21
108.3064835567
 31
0.0
  0
LINE
  5
E3
330
1F
100
AcDbEntity
  8
0
  6
Continuous
 62
     7
370
    15
100
AcDbLine
 10
137.3889831144
 20
155.0754315197
 30
0.0
 11
97.3889831144
 21
155.0754315197
 31
0.0
  0
LINE
  5
E4
330
1F
100
AcDbEntity
  8
0
  6
Continuous
 62
     7
370
    15
100
AcDbLine
 10
137.3889831144
 20
108.3064835567
 30
0.0
 11
137.3889831144
 21
155.0754315197
 31
0.0
  0
ARC
  5
E5
330
1F
100
AcDbEntity
  8
0
  6
Continuous
 62
     7
370
    15
100
AcDbCircle
 10
132.3889831144
 20
105.0754315197
 30
0.0
 40
5.953124999999989
100
AcDbArc
 50
32.8709650731
 51
237.1290349269
  0
LINE
  5
E6
330
1F
100
AcDbEntity
  8
0
  6
Continuous
 62
     7
370
    15
100
AcDbLine
 10
123.553713948
 20
100.0754315197
 30
0.0
 11
129.1579310775
 21
100.0754315197
 31
0.0
  0
ARC
  5
E7
330
1F
100
AcDbEntity
  8
0
  6
Continuous
 62
     7
370
    15
100
AcDbCircle
 10
117.3889831144
 20
105.0754315197
 30
0.0
 40
7.937500000000005
100
AcDbArc
 50
320.9556865309
 51
219.0443134691
  0
LINE
  5
E8
330
1F
100
AcDbEntity
  8
0
  6
Continuous
 62
     7
370
    15
100
AcDbLine
 10
105.6200351514
 20
100.0754315197
 30
0.0
 11
111.2242522809
 21
100.0754315197
 31
0.0
  0
ARC
  5
E9
330
1F
100
AcDbEntity
  8
0
  6
Continuous
 62
     7
370
    15
100
AcDbCircle
 10
102.3889831144
 20
105.0754315197
 30
0.0
 40
5.953125000000004
100
AcDbArc
 50
302.8709650731
 51
147.1290349269
  0
LINE
  5
EA
330
1F
100
AcDbEntity
  8
0
  6
Continuous
 62
     7
370
    15
100
AcDbLine
 10
137.3889831144
 20
100.0754315197
 30
0.0
 11
137.3889831144
 21
101.8443794827
 31
0.0
  0
LINE
  5
EB
330
1F
100
AcDbEntity
  8
0
  6
Continuous
 62
     7
370
    15
100
AcDbLine
 10
135.6200351514
 20
100.0754315197
 30
0.0
 11
137.3889831144
 21
100.0754315197
 31
0.0
  0
ARC
  5
EC
330
1F
100
AcDbEntity
  8
0
  6
Continuous
 62
     7
370
    15
100
AcDbCircle
 10
132.3889831144
 20
105.0754315197
 30
0.0
 40
5.953124999999989
100
AcDbArc
 50
302.8709650731
 51
327.1290349269
  0
LINE
  5
ED
330
1F
100
AcDbEntity
  8
0
  6
Continuous
 62
     7
370
    15
100
AcDbLine
 10
137.3889831144
 20
95.0754315197
 30
0.0
 11
137.3889831144
 21
100.0754315197
 31
0.0
  0
LINE
  5
EE
330
1F
100
AcDbEntity
  8
0
  6
Continuous
 62
     7
370
    15
100
AcDbLine
 10
142.3889831144
 20
100.0754315197
 30
0.0
 11
137.3889831144
 21
100.0754315197
 31
0.0
  0
ARC
  5
EF
330
1F
100
AcDbEntity
  8
0
  6
Continuous
 62
     7
370
    15
100
AcDbCircle
 10
137.3889831144
 20
100.0754315197
 30
0.0
 40
5.000000000000028
100
AcDbArc
 50
270.0
 51
0.0
  0
LINE
  5
F0
330
1F
100
AcDbEntity
  8
0
  6
Continuous
 62
     7
370
    15
100
AcDbLine
 10
97.3889831144
 20
155.0754315197
 30
0.0
 11
97.3889831144
 21
160.0754315197
 31
0.0
  0
LINE
  5
F1
330
1F
100
AcDbEntity
  8
0
  6
Continuous
 62
     7
370
    15
100
AcDbLine
 10
97.3889831144
 20
160.0754315197
 30
0.0
 11
137.3889831144
 21
160.0754315197
 31
0.0
  0
LINE
  5
F2
330
1F
100
AcDbEntity
  8
0
  6
Continuous
 62
     7
370
    15
100
AcDbLine
 10
137.3889831144
 20
160.0754315197
 30
0.0
 11
137.3889831144
 21
155.0754315197
 31
0.0
  0
LINE
  5
F3
330
1F
100
AcDbEntity
  8
0
  6
Continuous
 62
     7
370
    15
100
AcDbLine
 10
142.3889831144
 20
155.0754315197
 30
0.0
 11
137.3889831144
 21
155.0754315197
 31
0.0
  0
ARC
  5
F4
330
1F
100
AcDbEntity
  8
0
  6
Continuous
 62
     7
370
    15
100
AcDbCircle
 10
137.3889831144
 20
155.0754315197
 30
0.0
 40
5.000000000000028
100
AcDbArc
 50
0.0
 51
90.0
  0
LINE
  5
F5
330
1F
100
AcDbEntity
  8
0
  6
Continuous
 62
     7
370
    15
100
AcDbLine
 10
97.3889831144
 20
155.0754315197
 30
0.0
 11
92.3889831144
 21
155.0754315197
 31
0.0
  0
ARC
  5
F6
330
1F
100
AcDbEntity
  8
0
  6
Continuous
 62
     7
370
    15
100
AcDbCircle
 10
97.3889831144
 20
155.0754315197
 30
0.0
 40
5.0
100
AcDbArc
 50
90.0
 51
180.0
  0
LINE
  5
F7
330
1F
100
AcDbEntity
  8
0
  6
Continuous
 62
     7
370
    15
100
AcDbLine
 10
142.3889831144
 20
155.0754315197
 30
0.0
 11
142.3889831144
 21
100.0754315197
 31
0.0
  0
SPLINE
  5
F8
330
1F
100
AcDbEntity
  8
0
  6
Continuous
 62
     7
370
    15
100
AcDbSpline
210
0.0
220
0.0
230
1.0
 70
     8
 71
     3
 72
    14
 73
    10
 74
     0
 42
0.00000001
 43
0.00000001
 40
0.0
 40
0.0
 40
0.0
 40
0.0
 40
0.25
 40
0.25
 40
0.5
 40
0.5
 40
0.75
 40
0.75
 40
1.0
 40
1.0
 40
1.0
 40
1.0
 10
137.3889831144465
 20
101.8443794827272
 30
0.0
 10
137.7008434574589
 20
102.3269782453652
 30
0.0
 10
137.9363841138918
 20
102.8414438926055
 30
0.0
 10
138.2594284500084
 20
103.9342785374767
 30
0.0
 10
138.3416135286087
 20
104.5028004101814
 30
0.0
 10
138.3425982189807
 20
105.6377325265098
 30
0.0
 10
138.2600730084085
 20
106.2114130993947
 30
0.0
 10
137.9407428496914
 20
107.2976184007928
 30
0.0
 10
137.7007231562577
 20
107.824070958169
 30
0.0
 10
137.3889831144465
 20
108.3064835566724
 30
0.0
  0
ARC
  5
F9
330
1F
100
AcDbEntity
  8
0
  6
Continuous
 62
     7
370
    15
100
AcDbCircle
 10
102.3889831144
 20
105.0754315197
 30
0.0
 40
5.953124999999989
100
AcDbArc
 50
212.8709650731
 51
237.1290349269
  0
LINE
  5
FA
330
1F
100
AcDbEntity
  8
0
  6
Continuous
 62
     7
370
    15
100
AcDbLine
 10
97.3889831144
 20
100.0754315197
 30
0.0
 11
99.1579310775
 21
100.0754315197
 31
0.0
  0
LINE
  5
FB
330
1F
100
AcDbEntity
  8
0
  6
Continuous
 62
     7
370
    15
100
AcDbLine
 10
97.3889831144
 20
101.8443794827
 30
0.0
 11
97.3889831144
 21
100.0754315197
 31
0.0
  0
SPLINE
  5
FC
330
1F
100
AcDbEntity
  8
0
  6
Continuous
 62
     7
370
    15
100
AcDbSpline
210
0.0
220
0.0
230
1.0
 70
     8
 71
     3
 72
    22
 73
    18
 74
     0
 42
0.00000001
 43
0.00000001
 40
0.0
 40
0.0
 40
0.0
 40
0.0
 40
0.1250000000000001
 40
0.1250000000000001
 40
0.2500000000000001
 40
0.2500000000000001
 40
0.3750000000000001
 40
0.3750000000000001
 40
0.5
 40
0.5
 40
0.625
 40
0.625
 40
0.75
 40
0.75
 40
0.8749999999999999
 40
0.8749999999999999
 40
1.0
 40
1.0
 40
1.0
 40
1.0
 10
111.2242522809064
 20
100.0754315196998
 30
0.0
 10
111.6034862621043
 20
99.60785643629649
 30
0.0
 10
112.0234403054269
 20
99.19692761673299
 30
0.0
 10
112.9428472983012
 20
98.47408816572947
 30
0.0
 10
113.4460942288301
 20
98.16198602475882
 30
0.0
 10
114.4958241179987
 20
97.66113907893987
 30
0.0
 10
115.053947936973
 20
97.46636348326886
 30
0.0
 10
116.2017221103714
 20
97.20518902208408
 30
0.0
 10
116.7878769655025
 20
97.13797702467873
 30
0.0
 10
117.9888868917894
 20
97.13788606025466
 30
0.0
 10
118.5758148648288
 20
97.20514864651798
 30
0.0
 10
119.7229781904605
 20
97.46606958240459
 30
0.0
 10
120.2815322135064
 20
97.66090573391531
 30
0.0
 10
121.3312006331511
 20
98.16160812350617
 30
0.0
 10
121.8343689894634
 20
98.47354657386202
 30
0.0
 10
122.7544712309766
 20
99.19683664615614
 30
0.0
 10
123.1745401177928
 20
99.60793059924626
 30
0.0
 10
123.5537139479866
 20
100.0754315196998
 30
0.0
  0
SPLINE
  5
FD
330
1F
100
AcDbEntity
  8
0
  6
Continuous
 62
     7
370
    15
100
AcDbSpline
210
0.0
220
0.0
230
1.0
 70
     8
 71
     3
 72
    14
 73
    10
 74
     0
 42
0.00000001
 43
0.00000001
 40
0.0
 40
0.0
 40
0.0
 40
0.0
 40
0.25
 40
0.25
 40
0.5
 40
0.5
 40
0.75
 40
0.75
 40
1.0
 40
1.0
 40
1.0
 40
1.0
 10
129.1579310774739
 20
100.0754315196998
 30
0.0
 10
129.640529840112
 20
99.76357117668738
 30
0.0
 10
130.1549954873523
 20
99.52803052025452
 30
0.0
 10
131.2478301322235
 20
99.20498618413792
 30
0.0
 10
131.8163520049282
 20
99.12280110553762
 30
0.0
 10
132.9512841212565
 20
99.12181641516563
 30
0.0
 10
133.5249646941415
 20
99.2043416257379
 30
0.0
 10
134.6111699955396
 20
99.52367178445496
 30
0.0
 10
135.1376225529158
 20
99.76369147788868
 30
0.0
 10
135.6200351514192
 20
100.0754315196998
 30
0.0
  0
LINE
  5
FE
330
1F
100
AcDbEntity
  8
0
  6
Continuous
 62
     7
370
    15
100
AcDbLine
 10
137.3889831144
 20
95.0754315197
 30
0.0
 11
97.3889831144
 21
95.0754315197
 31
0.0
  0
LINE
  5
FF
330
1F
100
AcDbEntity
  8
0
  6
Continuous
 62
     7
370
    15
100
AcDbLine
 10
97.3889831144
 20
100.0754315197
 30
0.0
 11
97.3889831144
 21
95.0754315197
 31
0.0
  0
SPLINE
  5
100
330
1F
100
AcDbEntity
  8
0
  6
Continuous
 62
     7
370
    15
100
AcDbSpline
210
0.0
220
0.0
230
1.0
 70
     8
 71
     3
 72
    14
 73
    10
 74
     0
 42
0.00000001
 43
0.00000001
 40
0.0
 40
0.0
 40
0.0
 40
0.0
 40
0.25
 40
0.25
 40
0.5
 40
0.5
 40
0.75
 40
0.75
 40
1.0
 40
1.0
 40
1.0
 40
1.0
 10
99.15793107747392
 20
100.0754315196998
 30
0.0
 10
99.64052984011194
 20
99.76357117668738
 30
0.0
 10
100.1549954873522
 20
99.52803052025452
 30
0.0
 10
101.2478301322234
 20
99.20498618413792
 30
0.0
 10
101.8163520049281
 20
99.12280110553762
 30
0.0
 10
102.9512841212565
 20
99.12181641516563
 30
0.0
 10
103.5249646941415
 20
99.2043416257379
 30
0.0
 10
104.6111699955396
 20
99.52367178445496
 30
0.0
 10
105.1376225529158
 20
99.76369147788868
 30
0.0
 10
105.6200351514192
 20
100.0754315196998
 30
0.0
  0
SPLINE
  5
101
330
1F
100
AcDbEntity
  8
0
  6
Continuous
 62
     7
370
    15
100
AcDbSpline
210
0.0
220
0.0
230
1.0
 70
     8
 71
     3
 72
    14
 73
    10
 74
     0
 42
0.00000001
 43
0.00000001
 40
0.0
 40
0.0
 40
0.0
 40
0.0
 40
0.25
 40
0.25
 40
0.5
 40
0.5
 40
0.75
 40
0.75
 40
1.0
 40
1.0
 40
1.0
 40
1.0
 10
97.38898311444655
 20
108.3064835566724
 30
0.0
 10
97.07712277143413
 20
107.8238847940344
 30
0.0
 10
96.84158211500127
 20
107.3094191467941
 30
0.0
 10
96.51853777888466
 20
106.2165845019229
 30
0.0
 10
96.43635270028435
 20
105.6480626292182
 30
0.0
 10
96.43536800991235
 20
104.5131305128898
 30
0.0
 10
96.51789322048464
 20
103.9394499400049
 30
0.0
 10
96.8372233792017
 20
102.8532446386068
 30
0.0
 10
97.07724307263544
 20
102.3267920812306
 30
0.0
 10
97.38898311444655
 20
101.8443794827272
 30
0.0
  0
LINE
  5
102
330
1F
100
AcDbEntity
  8
0
  6
Continuous
 62
     7
370
    15
100
AcDbLine
 10
97.3889831144
 20
100.0754315197
 30
0.0
 11
92.3889831144
 21
100.0754315197
 31
0.0
  0
LINE
  5
103
330
1F
100
AcDbEntity
  8
0
  6
Continuous
 62
     7
370
    15
100
AcDbLine
 10
92.3889831144
 20
100.0754315197
 30
0.0
 11
92.3889831144
 21
155.0754315197
 31
0.0
  0
ARC
  5
104
330
1F
100
AcDbEntity
  8
0
  6
Continuous
 62
     7
370
    15
100
AcDbCircle
 10
97.3889831144
 20
100.0754315197
 30
0.0
 40
5.0
100
AcDbArc
 50
180.0
 51
270.0
  0
CIRCLE
  5
105
330
1F
100
AcDbEntity
  8
0
  6
Continuous
 62
     7
370
    15
100
AcDbCircle
 10
117.3889831144
 20
105.0754315197
 30
0.0
 40
4.445000000000007
  0
DIMENSION
  5
106
330
1F
100
AcDbEntity
  8
FORMAT
100
AcDbDimension
  2
*D7
 10
142.3889831144
 20
170.0754315197
 30
0.0
 11
131.4366604128
 21
170.0754315197
 31
0.0
 70
   160
  1
(<>)
 71
     2
 42
-1.0
  3
SLDDIMSTYLE2
100
AcDbAlignedDimension
 13
92.3889831144
 23
155.0754315197
 33
0.0
 14
142.3889831144
 24
155.0754315197
 34
0.0
100
AcDbRotatedDimension
  0
DIMENSION
  5
113
330
1F
100
AcDbEntity
  8
FORMAT
100
AcDbDimension
  2
*D8
 10
87.227793621
 20
95.0754315197
 30
0.0
 11
87.227793621
 21
127.9885984991
 31
0.0
 70
   160
  1
(<>)
 71
     2
 42
-1.0
  3
SLDDIMSTYLE2
100
AcDbAlignedDimension
 13
97.3889831144
 23
160.0754315197
 33
0.0
 14
97.3889831144
 24
95.0754315197
 34
0.0
 50
90.0
100
AcDbRotatedDimension
  0
DIMENSION
  5
11F
330
1F
100
AcDbEntity
  8
FORMAT
100
AcDbDimension
  2
*D9
 10
102.3889831144
 20
105.0754315197
 30
0.0
 11
52.2363431702
 21
61.272398835
 31
0.0
 70
   164
  1
<> x %%c 2.38 {\fGDT;x} 10\P
 71
     1
 42
-1.0
  3
SLDDIMSTYLE3
100
AcDbRadialDimension
 15
100.8485637865
 25
99.3250571354
 35
0.0
 40
0.0
  0
DIMENSION
  5
137
330
1F
100
AcDbEntity
  8
FORMAT
100
AcDbDimension
  2
*D11
 10
116.2360975928
 20
109.378672156
 30
0.0
 11
171.5156071955
 21
71.5552270472
 31
0.0
 70
   163
  1
<> THRU ALL\P{\fGDT;v}%%c 3.18 {\fGDT;x} 1.52\P
 71
     1
 42
-1.0
  3
SLDDIMSTYLE4
100
AcDbDiametricDimension
 15
118.5392807898
 25
100.7818502339
 35
0.0
 40
0.0
  0
LINE
  5
152
330
1F
100
AcDbEntity
  8
0
  6
HIDDEN
 62
     7
370
     0
100
AcDbLine
 10
117.3889831144
 20
74.6900581614
 30
0.0
 11
117.3889831144
 21
182.5266397749
 31
0.0
  0
LINE
  5
153
330
1F
100
AcDbEntity
  8
0
  6
Continuous
 62
     7
370
     0
100
AcDbLine
 10
105.3889831144
 20
76.6900581614
 30
0.0
 11
117.3889831144
 21
76.6900581614
 31
0.0
  0
INSERT
  5
154
330
1F
100
AcDbEntity
  8
0
  6
Continuous
 62
     7
370
     0
100
AcDbBlockReference
  2
_CLOSED
 10
117.3889831144
 20
76.6900581614
 30
0.0
 41
6.0
 42
6.0
 50
360.0
  0
LINE
  5
155
330
1F
100
AcDbEntity
  8
0
  6
Continuous
 62
     7
370
     0
100
AcDbLine
 10
105.3889831144
 20
180.5266397749
 30
0.0
 11
117.3889831144
 21
180.5266397749
 31
0.0
  0
INSERT
  5
156
330
1F
100
AcDbEntity
  8
0
  6
Continuous
 62
     7
370
     0
100
AcDbBlockReference
  2
_CLOSED
 10
117.3889831144
 20
180.5266397749
 30
0.0
 41
6.0
 42
6.0
 50
360.0
  0
MTEXT
  5
157
330
1F
100
AcDbEntity
  8
0
  6
Continuous
 62
     7
100
AcDbMText
 10
105.3889831144
 20
86.7681212065
 30
0.0
 40
6.35
 41
0.0
 71
     1
 72
     1
  1
A
  7
SLDTEXTSTYLE0
 73
     1
 44
1.0
  0
MTEXT
  5
158
330
1F
100
AcDbEntity
  8
0
  6
Continuous
 62
     7
100
AcDbMText
 10
105.3889831144
 20
190.60470282
 30
0.0
 40
6.35
 41
0.0
 71
     1
 72
     1
  1
A
  7
SLDTEXTSTYLE0
 73
     1
 44
1.0
  0
LINE
  5
159
330
1F
100
AcDbEntity
  8
0
  6
Continuous
 62
     7
370
    15
100
AcDbLine
 10
42.1472617261
 20
154.8254315197
 30
0.0
 11
37.1472617261
 21
154.8254315197
 31
0.0
  0
LINE
  5
15A
330
1F
100
AcDbEntity
  8
0
  6
Continuous
 62
     7
370
    15
100
AcDbLine
 10
42.1472617261
 20
154.8254315197
 30
0.0
 11
42.1472617261
 21
160.0754315197
 31
0.0
  0
LINE
  5
15B
330
1F
100
AcDbEntity
  8
0
  6
Continuous
 62
     7
370
    15
100
AcDbLine
 10
48.0222617261
 20
160.0754315197
 30
0.0
 11
42.1472617261
 21
160.0754315197
 31
0.0
  0
ARC
  5
15C
330
1F
100
AcDbEntity
  8
0
  6
Continuous
 62
     7
370
    15
100
AcDbCircle
 10
48.0222617261
 20
155.0754315197
 30
0.0
 40
5.0
100
AcDbArc
 50
0.0
 51
90.0
  0
LINE
  5
15D
330
1F
100
AcDbEntity
  8
0
  6
Continuous
 62
     7
370
    15
100
AcDbLine
 10
53.0222617261
 20
113.0129315197
 30
0.0
 11
53.0222617261
 21
155.0754315197
 31
0.0
  0
LINE
  5
15E
330
1F
100
AcDbEntity
  8
0
  6
Continuous
 62
     7
370
    15
100
AcDbLine
 10
45.4022617261
 20
113.0129315197
 30
0.0
 11
53.0222617261
 21
113.0129315197
 31
0.0
  0
LINE
  5
15F
330
1F
100
AcDbEntity
  8
0
  6
Continuous
 62
     7
370
    15
100
AcDbLine
 10
45.4022617261
 20
109.5204315197
 30
0.0
 11
45.4022617261
 21
113.0129315197
 31
0.0
  0
LINE
  5
160
330
1F
100
AcDbEntity
  8
0
  6
Continuous
 62
     7
370
    15
100
AcDbLine
 10
42.1472617261
 20
109.5204315197
 30
0.0
 11
45.4022617261
 21
109.5204315197
 31
0.0
  0
LINE
  5
161
330
1F
100
AcDbEntity
  8
0
  6
Continuous
 62
     7
370
    15
100
AcDbLine
 10
42.1472617261
 20
109.5204315197
 30
0.0
 11
42.1472617261
 21
115.3254315197
 31
0.0
  0
LINE
  5
162
330
1F
100
AcDbEntity
  8
0
  6
Continuous
 62
     7
370
    15
100
AcDbLine
 10
37.1472617261
 20
115.3254315197
 30
0.0
 11
42.1472617261
 21
115.3254315197
 31
0.0
  0
LINE
  5
163
330
1F
100
AcDbEntity
  8
0
  6
Continuous
 62
     7
370
    15
100
AcDbLine
 10
37.1472617261
 20
154.8254315197
 30
0.0
 11
37.1472617261
 21
115.3254315197
 31
0.0
  0
LINE
  5
164
330
1F
100
AcDbEntity
  8
0
  6
Continuous
 62
     7
370
    15
100
AcDbLine
 10
45.4022617261
 20
100.6304315197
 30
0.0
 11
45.4022617261
 21
109.5204315197
 31
0.0
  0
LINE
  5
165
330
1F
100
AcDbEntity
  8
0
  6
Continuous
 62
     7
370
    15
100
AcDbLine
 10
45.4022617261
 20
100.6304315197
 30
0.0
 11
42.1472617261
 21
100.6304315197
 31
0.0
  0
LINE
  5
166
330
1F
100
AcDbEntity
  8
0
  6
Continuous
 62
     7
370
    15
100
AcDbLine
 10
42.1472617261
 20
109.5204315197
 30
0.0
 11
42.1472617261
 21
100.6304315197
 31
0.0
  0
LINE
  5
167
330
1F
100
AcDbEntity
  8
0
  6
Continuous
 62
     7
370
    15
100
AcDbLine
 10
45.4022617261
 20
97.1379315197
 30
0.0
 11
45.4022617261
 21
100.6304315197
 31
0.0
  0
LINE
  5
168
330
1F
100
AcDbEntity
  8
0
  6
Continuous
 62
     7
370
    15
100
AcDbLine
 10
52.0683825535
 20
97.1379315197
 30
0.0
 11
45.4022617261
 21
97.1379315197
 31
0.0
  0
ARC
  5
169
330
1F
100
AcDbEntity
  8
0
  6
Continuous
 62
     7
370
    15
100
AcDbCircle
 10
48.0222617261
 20
100.0754315197
 30
0.0
 40
5.000000000000006
100
AcDbArc
 50
270.0
 51
324.0201994025
  0
LINE
  5
16A
330
1F
100
AcDbEntity
  8
0
  6
Continuous
 62
     7
370
    15
100
AcDbLine
 10
42.1472617261
 20
95.0754315197
 30
0.0
 11
48.0222617261
 21
95.0754315197
 31
0.0
  0
LINE
  5
16B
330
1F
100
AcDbEntity
  8
0
  6
Continuous
 62
     7
370
    15
100
AcDbLine
 10
42.1472617261
 20
95.0754315197
 30
0.0
 11
42.1472617261
 21
100.6304315197
 31
0.0
  0
LINE
  5
16C
330
1F
100
AcDbEntity
  8
0
  6
Continuous
 62
     7
370
    15
100
AcDbLine
 10
53.0222617261
 20
100.0754315197
 30
0.0
 11
53.0222617261
 21
113.0129315197
 31
0.0
  0
SPLINE
  5
16D
330
1F
100
AcDbEntity
  8
0
  6
Continuous
 62
     7
370
    15
100
AcDbSpline
210
0.0
220
0.0
230
1.0
 70
     8
 71
     3
 72
    14
 73
    10
 74
     0
 42
0.00000001
 43
0.00000001
 40
0.0
 40
0.0
 40
0.0
 40
0.0
 40
0.25
 40
0.25
 40
0.5
 40
0.5
 40
0.75
 40
0.75
 40
1.0
 40
1.0
 40
1.0
 40
1.0
 10
52.06838255348881
 20
97.1379315196998
 30
0.0
 10
52.06838255348881
 20
97.1379315196998
 30
0.0
 10
52.11936403049681
 20
97.2052253806869
 30
0.0
 10
52.29030377321923
 20
97.46618878336113
 30
0.0
 10
52.40949317039934
 20
97.66103263880842
 30
0.0
 10
52.64988263963431
 20
98.16173186131344
 30
0.0
 10
52.77343715659131
 20
98.47365885308831
 30
0.0
 10
52.95861012296492
 20
99.19690539511994
 30
0.0
 10
53.02226172607886
 20
99.60796960151525
 30
0.0
 10
53.02226172607886
 20
100.0754315196998
 30
0.0
  0
HATCH
  5
16E
330
1F
100
AcDbEntity
  8
0
  6
Continuous
 62
     7
370
     0
100
AcDbHatch
 10
0.0
 20
0.0
 30
0.0
210
0.0
220
0.0
230
1.0
  2
ANSI31
 70
     0
 71
     0
 91
        1
 92
        0
 93
        6
 72
     1
 10
42.14726172607885
 20
100.6304315196998
 11
42.14726172607885
 21
95.0754315196998
 72
     1
 10
42.14726172607885
 20
95.0754315196998
 11
48.02226172607885
 21
95.0754315196998
 72
     2
 10
48.02226172607885
 20
100.0754315196998
 40
5.0
 50
270.0000000000008
 51
324.0201994025266
 73
     1
 72
     1
 10
52.06838255348873
 20
97.1379315196998
 11
45.40226172607885
 21
97.1379315196998
 72
     1
 10
45.40226172607885
 20
97.1379315196998
 11
45.40226172607885
 21
100.6304315196998
 72
     1
 10
45.40226172607885
 20
100.6304315196998
 11
42.14726172607885
 21
100.6304315196998
 97
        0
 75
     0
 76
     1
 52
0.0
 41
1.0
 77
     0
 78
     1
 53
45.0
 43
0.0
 44
0.0
 45
-2.245064030267288
 46
2.245064030267288
 79
     0
 98
        1
 10
0.0
 20
0.0
  0
HATCH
  5
16F
330
1F
100
AcDbEntity
  8
0
  6
Continuous
 62
     7
370
     0
100
AcDbHatch
 10
0.0
 20
0.0
 30
0.0
210
0.0
220
0.0
230
1.0
  2
ANSI31
 70
     0
 71
     0
 91
        1
 92
        0
 93
       11
 72
     1
 10
37.14726172607885
 20
154.8254315196998
 11
37.14726172607885
 21
115.3254315196998
 72
     1
 10
37.14726172607885
 20
115.3254315196998
 11
42.14726172607885
 21
115.3254315196998
 72
     1
 10
42.14726172607885
 20
115.3254315196998
 11
42.14726172607885
 21
109.5204315196998
 72
     1
 10
42.14726172607885
 20
109.5204315196998
 11
45.40226172607885
 21
109.5204315196998
 72
     1
 10
45.40226172607885
 20
109.5204315196998
 11
45.40226172607885
 21
113.0129315196998
 72
     1
 10
45.40226172607885
 20
113.0129315196998
 11
53.02226172607885
 21
113.0129315196998
 72
     1
 10
53.02226172607885
 20
113.0129315196998
 11
53.02226172607885
 21
155.0754315196998
 72
     2
 10
48.02226172607885
 20
155.0754315196998
 40
5.0
 50
0.0
 51
90.0
 73
     1
 72
     1
 10
48.02226172607885
 20
160.0754315196998
 11
42.14726172607885
 21
160.0754315196998
 72
     1
 10
42.14726172607885
 20
160.0754315196998
 11
42.14726172607885
 21
154.8254315196998
 72
     1
 10
42.14726172607885
 20
154.8254315196998
 11
37.14726172607885
 21
154.8254315196998
 97
        0
 75
     0
 76
     1
 52
0.0
 41
1.0
 77
     0
 78
     1
 53
45.0
 43
0.0
 44
0.0
 45
-2.245064030267288
 46
2.245064030267288
 79
     0
 98
        1
 10
0.0
 20
0.0
  0
DIMENSION
  5
170
330
1F
100
AcDbEntity
  8
FORMAT
100
AcDbDimension
  2
*D13
 10
53.0222617261
 20
193.8254315197
 30
0.0
 11
45.0847617261
 21
193.8254315197
 31
0.0
 70
   160
  1
(<>)
 71
     2
 42
-1.0
  3
SLDDIMSTYLE5
100
AcDbAlignedDimension
 13
37.1472617261
 23
154.8254315197
 33
0.0
 14
53.0222617261
 24
155.0754315197
 34
0.0
100
AcDbRotatedDimension
  0
DIMENSION
  5
17F
330
1F
100
AcDbEntity
  8
FORMAT
100
AcDbDimension
  2
*D14
 10
37.1472617261
 20
169.8254315197
 30
0.0
 11
21.1472617261
 21
169.8254315197
 31
0.0
 70
   160
  1
(<>)
 71
     2
 42
-1.0
  3
SLDDIMSTYLE5
100
AcDbAlignedDimension
 13
42.1472617261
 23
154.8254315197
 33
0.0
 14
37.1472617261
 24
154.8254315197
 34
0.0
100
AcDbRotatedDimension
  0
DIMENSION
  5
18D
330
1F
100
AcDbEntity
  8
FORMAT
100
AcDbDimension
  2
*D15
 10
53.0222617261
 20
176.0754315197
 30
0.0
 11
69.0222617261
 21
176.0754315197
 31
0.0
 70
   160
  1
(<>)
 71
     2
 42
-1.0
  3
SLDDIMSTYLE5
100
AcDbAlignedDimension
 13
42.1472617261
 23
160.0754315197
 33
0.0
 14
53.0222617261
 24
155.0754315197
 34
0.0
100
AcDbRotatedDimension
  0
DIMENSION
  5
19B
330
1F
100
AcDbEntity
  8
FORMAT
100
AcDbDimension
  2
*D16
 10
42.1472617261
 20
89.9772363977
 30
0.0
 11
69.0222617261
 21
89.9772363977
 31
0.0
 70
   160
  1
(<>)
 71
     2
 42
-1.0
  3
SLDDIMSTYLE5
100
AcDbAlignedDimension
 13
45.4022617261
 23
100.6304315197
 33
0.0
 14
42.1472617261
 24
100.6304315197
 34
0.0
 50
0.0
100
AcDbRotatedDimension
  0
MTEXT
  5
1A9
330
1F
100
AcDbEntity
  8
FORMAT
100
AcDbMText
 10
18.8557322047
 20
85.3751089829
 30
0.0
 40
6.35
 41
0.0
 71
     1
 72
     1
  1
SECTION A-A
  7
SLDTEXTSTYLE0
 73
     1
 44
1.0
  0
ENDSEC
  0
SECTION
  2
OBJECTS
  0
DICTIONARY
  5
C
330
0
100
AcDbDictionary
281
     1
  3
ACAD_GROUP
350
D
  3
ACAD_LAYOUT
350
1A
  3
ACAD_MLEADERSTYLE
350
1AB
  3
ACAD_MLINESTYLE
350
17
  3
ACAD_PLOTSETTINGS
350
19
  3
ACAD_PLOTSTYLENAME
350
E
  3
ACAD_TABLESTYLE
350
1AA
  3
ACAD_VISUALSTYLE
350
2A
  3
AcDbVariableDictionary
350
1AC
  0
DICTIONARY
  5
D
102
{ACAD_REACTORS
330
C
102
}
330
C
100
AcDbDictionary
281
     1
  0
DICTIONARY
  5
1A
102
{ACAD_REACTORS
330
C
102
}
330
C
100
AcDbDictionary
281
     1
  3
Layout1
350
1E
  3
Layout2
350
26
  3
Model
350
22
  0
DICTIONARY
  5
1AB
102
{ACAD_REACTORS
330
C
102
}
330
C
100
AcDbDictionary
281
     1
  0
DICTIONARY
  5
17
102
{ACAD_REACTORS
330
C
102
}
330
C
100
AcDbDictionary
281
     1
  3
Standard
350
18
  0
DICTIONARY
  5
19
102
{ACAD_REACTORS
330
C
102
}
330
C
100
AcDbDictionary
281
     1
  0
ACDBDICTIONARYWDFLT
  5
E
102
{ACAD_REACTORS
330
C
102
}
330
C
100
AcDbDictionary
281
     1
  3
Normal
350
F
100
AcDbDictionaryWithDefault
340
F
  0
DICTIONARY
  5
1AA
102
{ACAD_REACTORS
330
C
102
}
330
C
100
AcDbDictionary
281
     1
  0
DICTIONARY
  5
2A
102
{ACAD_REACTORS
330
C
102
}
330
C
100
AcDbDictionary
281
     1
  3
2dWireframe
350
2F
  3
3D Hidden
350
31
  3
3dWireframe
350
30
  3
Basic
350
32
  3
Brighten
350
36
  3
ColorChange
350
3A
  3
Conceptual
350
34
  3
Dim
350
35
  3
Facepattern
350
39
  3
Flat
350
2B
  3
FlatWithEdges
350
2C
  3
Gouraud
350
2D
  3
GouraudWithEdges
350
2E
  3
Linepattern
350
38
  3
Realistic
350
33
  3
Thicken
350
37
  0
DICTIONARY
  5
1AC
102
{ACAD_REACTORS
330
C
102
}
330
C
100
AcDbDictionary
281
     1
  3
PSOLHEIGHT
350
1AE
  3
PSOLWIDTH
350
1AD
  0
LAYOUT
  5
1E
102
{ACAD_REACTORS
330
1A
102
}
330
1A
100
AcDbPlotSettings
  1

  2
none_device
  4

  6

 40
0.0
 41
0.0
 42
0.0
 43
0.0
 44
0.0
 45
0.0
 46
0.0
 47
0.0
 48
0.0
 49
0.0
140
0.0
141
0.0
142
1.0
143
1.0
 70
   688
 72
     0
 73
     0
 74
     5
  7

 75
    16
147
1.0
148
0.0
149
0.0
100
AcDbLayout
  1
Layout1
 70
     1
 71
     1
 10
0.0
 20
0.0
 11
420.0
 21
297.0
 12
0.0
 22
0.0
 32
0.0
 14
1.0000000000E+20
 24
1.0000000000E+20
 34
1.0000000000E+20
 15
-1.0000000000E+20
 25
-1.0000000000E+20
 35
-1.0000000000E+20
146
0.0
 13
0.0
 23
0.0
 33
0.0
 16
1.0
 26
0.0
 36
0.0
 17
0.0
 27
1.0
 37
0.0
 76
     0
330
1B
  0
LAYOUT
  5
26
102
{ACAD_REACTORS
330
1A
102
}
330
1A
100
AcDbPlotSettings
  1

  2
none_device
  4

  6

 40
0.0
 41
0.0
 42
0.0
 43
0.0
 44
0.0
 45
0.0
 46
0.0
 47
0.0
 48
0.0
 49
0.0
140
0.0
141
0.0
142
1.0
143
1.0
 70
   688
 72
     0
 73
     0
 74
     5
  7

 75
    16
147
1.0
148
0.0
149
0.0
100
AcDbLayout
  1
Layout2
 70
     1
 71
     2
 10
0.0
 20
0.0
 11
0.0
 21
0.0
 12
0.0
 22
0.0
 32
0.0
 14
0.0
 24
0.0
 34
0.0
 15
0.0
 25
0.0
 35
0.0
146
0.0
 13
0.0
 23
0.0
 33
0.0
 16
1.0
 26
0.0
 36
0.0
 17
0.0
 27
1.0
 37
0.0
 76
     0
330
23
  0
LAYOUT
  5
22
102
{ACAD_REACTORS
330
1A
102
}
330
1A
100
AcDbPlotSettings
  1

  2
none_device
  4

  6

 40
0.0
 41
0.0
 42
0.0
 43
0.0
 44
0.0
 45
0.0
 46
0.0
 47
0.0
 48
0.0
 49
0.0
140
0.0
141
0.0
142
1.0
143
1.0
 70
  1712
 72
     0
 73
     0
 74
     0
  7

 75
     0
147
1.0
148
0.0
149
0.0
100
AcDbLayout
  1
Model
 70
     1
 71
     0
 10
0.0
 20
0.0
 11
279.4
 21
215.9
 12
0.0
 22
0.0
 32
0.0
 14
0.0
 24
0.0
 34
0.0
 15
279.4
 25
215.9
 35
0.0
146
0.0
 13
0.0
 23
0.0
 33
0.0
 16
1.0
 26
0.0
 36
0.0
 17
0.0
 27
1.0
 37
0.0
 76
     0
330
1F
331
29
  0
MLINESTYLE
  5
18
102
{ACAD_REACTORS
330
17
102
}
330
17
100
AcDbMlineStyle
  2
Standard
 70
     0
  3

 62
   256
 51
90.0
 52
90.0
 71
     2
 49
0.5
 62
   256
  6
BYLAYER
 49
-0.5
 62
   256
  6
BYLAYER
  0
ACDBPLACEHOLDER
  5
F
102
{ACAD_REACTORS
330
E
102
}
330
E
  0
VISUALSTYLE
  5
2F
102
{ACAD_REACTORS
330
2A
102
}
330
2A
100
AcDbVisualStyle
  2
2dWireframe
 70
     4
 71
     0
 72
     2
 73
     0
 90
        0
 40
-0.6
 41
-30.0
 62
     5
 63
     7
 74
     1
 91
        4
 64
     7
 65
   257
 75
     1
175
     1
 42
1.0
 92
        0
 66
   257
 43
1.0
 76
     1
 77
     6
 78
     2
 67
     7
 79
     5
170
     0
171
     0
290
     0
174
     0
 93
        1
 44
0.0
173
     0
291
     0
 45
0.0
1001
ACAD
1000
AcDbSavedByObjectVersion
1070
     0
  0
VISUALSTYLE
  5
31
102
{ACAD_REACTORS
330
2A
102
}
330
2A
100
AcDbVisualStyle
  2
3D Hidden
 70
     6
 71
     1
 72
     2
 73
     2
 90
        0
 40
-0.6
 41
-30.0
 62
     5
 63
     7
 74
     2
 91
        2
 64
     7
 65
   257
 75
     2
175
     1
 42
40.0
 92
        0
 66
   257
 43
1.0
 76
     1
 77
     6
 78
     2
 67
     7
 79
     3
170
     0
171
     0
290
     0
174
     0
 93
        1
 44
0.0
173
     0
291
     0
 45
0.0
1001
ACAD
1000
AcDbSavedByObjectVersion
1070
     0
  0
VISUALSTYLE
  5
30
102
{ACAD_REACTORS
330
2A
102
}
330
2A
100
AcDbVisualStyle
  2
3dWireframe
 70
     5
 71
     0
 72
     2
 73
     0
 90
        0
 40
-0.6
 41
-30.0
 62
     5
 63
     7
 74
     1
 91
        4
 64
     7
 65
   257
 75
     1
175
     1
 42
1.0
 92
        0
 66
   257
 43
1.0
 76
     1
 77
     6
 78
     2
 67
     7
 79
     5
170
     0
171
     0
290
     0
174
     0
 93
        1
 44
0.0
173
     0
291
     0
 45
0.0
1001
ACAD
1000
AcDbSavedByObjectVersion
1070
     0
  0
VISUALSTYLE
  5
32
102
{ACAD_REACTORS
330
2A
102
}
330
2A
100
AcDbVisualStyle
  2
Basic
 70
     7
 71
     1
 72
     0
 73
     1
 90
        0
 40
-0.6
 41
-30.0
 62
     5
 63
     7
 74
     0
 91
        4
 64
     7
 65
   257
 75
     1
175
     1
 42
1.0
 92
        8
 66
     7
 43
1.0
 76
     1
 77
     6
 78
     2
 67
     7
 79
     5
170
     0
171
     0
290
     0
174
     0
 93
        1
 44
0.0
173
     0
291
     1
 45
0.0
1001
ACAD
1000
AcDbSavedByObjectVersion
1070
     0
  0
VISUALSTYLE
  5
36
102
{ACAD_REACTORS
330
2A
102
}
330
2A
100
AcDbVisualStyle
  2
Brighten
 70
    12
 71
     2
 72
     2
 73
     0
 90
        0
 40
-0.6
 41
-30.0
 62
     5
 63
     7
 74
     1
 91
        4
 64
     7
 65
   257
 75
     1
175
     1
 42
1.0
 92
        8
 66
     7
 43
1.0
 76
     1
 77
     6
 78
     2
 67
     7
 79
     5
170
     0
171
     0
290
     0
174
     0
 93
        1
 44
50.0
173
     0
291
     1
 45
0.0
1001
ACAD
1000
AcDbSavedByObjectVersion
1070
     0
  0
VISUALSTYLE
  5
3A
102
{ACAD_REACTORS
330
2A
102
}
330
2A
100
AcDbVisualStyle
  2
ColorChange
 70
    16
 71
     2
 72
     2
 73
     3
 90
        0
 40
-0.6
 41
-30.0
 62
     5
 63
     8
 74
     1
 91
        4
 64
     7
 65
   257
 75
     1
175
     1
 42
1.0
 92
        8
 66
     8
 43
1.0
 76
     1
 77
     6
 78
     2
 67
     7
 79
     5
170
     0
171
     0
290
     0
174
     0
 93
        1
 44
0.0
173
     0
291
     1
 45
0.0
1001
ACAD
1000
AcDbSavedByObjectVersion
1070
     0
  0
VISUALSTYLE
  5
34
102
{ACAD_REACTORS
330
2A
102
}
330
2A
100
AcDbVisualStyle
  2
Conceptual
 70
     9
 71
     3
 72
     2
 73
     0
 90
        0
 40
-0.6
 41
-30.0
 62
     5
 63
     7
 74
     2
 91
        2
 64
     7
 65
   257
 75
     1
175
     1
 42
40.0
 92
        8
 66
     7
 43
1.0
 76
     1
 77
     6
 78
     2
 67
     7
 79
     3
170
     0
171
     0
290
     0
174
     0
 93
        1
 44
0.0
173
     0
291
     0
 45
0.0
1001
ACAD
1000
AcDbSavedByObjectVersion
1070
     0
  0
VISUALSTYLE
  5
35
102
{ACAD_REACTORS
330
2A
102
}
330
2A
100
AcDbVisualStyle
  2
Dim
 70
    11
 71
     2
 72
     2
 73
     0
 90
        0
 40
-0.6
 41
-30.0
 62
     5
 63
     7
 74
     1
 91
        4
 64
     7
 65
   257
 75
     1
175
     1
 42
1.0
 92
        8
 66
     7
 43
1.0
 76
     1
 77
     6
 78
     2
 67
     7
 79
     5
170
     0
171
     0
290
     0
174
     0
 93
        1
 44
-50.0
173
     0
291
     1
 45
0.0
1001
ACAD
1000
AcDbSavedByObjectVersion
1070
     0
  0
VISUALSTYLE
  5
39
102
{ACAD_REACTORS
330
2A
102
}
330
2A
100
AcDbVisualStyle
  2
Facepattern
 70
    15
 71
     2
 72
     2
 73
     0
 90
        0
 40
-0.6
 41
-30.0
 62
     5
 63
     7
 74
     1
 91
        4
 64
     7
 65
   257
 75
     1
175
     1
 42
1.0
 92
        8
 66
     7
 43
1.0
 76
     1
 77
     6
 78
     2
 67
     7
 79
     5
170
     0
171
     0
290
     0
174
     0
 93
        1
 44
0.0
173
     0
291
     1
 45
0.0
1001
ACAD
1000
AcDbSavedByObjectVersion
1070
     0
  0
VISUALSTYLE
  5
2B
102
{ACAD_REACTORS
330
2A
102
}
330
2A
100
AcDbVisualStyle
  2
Flat
 70
     0
 71
     2
 72
     1
 73
     1
 90
        2
 40
-0.6
 41
30.0
 62
     5
 63
     7
 74
     0
 91
        4
 64
     7
 65
   257
 75
     1
175
     1
 42
1.0
 92
        8
 66
     7
 43
1.0
 76
     1
 77
     6
 78
     2
 67
     7
 79
     5
170
     0
171
     0
290
     0
174
     0
 93
       13
 44
0.0
173
     0
291
     1
 45
0.0
1001
ACAD
1000
AcDbSavedByObjectVersion
1070
     0
  0
VISUALSTYLE
  5
2C
102
{ACAD_REACTORS
330
2A
102
}
330
2A
100
AcDbVisualStyle
  2
FlatWithEdges
 70
     1
 71
     2
 72
     1
 73
     1
 90
        2
 40
-0.6
 41
30.0
 62
     5
 63
     7
 74
     1
 91
        4
 64
     7
 65
   257
 75
     1
175
     1
 42
1.0
 92
        0
 66
   257
 43
1.0
 76
     1
 77
     6
 78
     2
 67
     7
 79
     5
170
     0
171
     0
290
     0
174
     0
 93
       13
 44
0.0
173
     0
291
     1
 45
0.0
1001
ACAD
1000
AcDbSavedByObjectVersion
1070
     0
  0
VISUALSTYLE
  5
2D
102
{ACAD_REACTORS
330
2A
102
}
330
2A
100
AcDbVisualStyle
  2
Gouraud
 70
     2
 71
     2
 72
     2
 73
     1
 90
        2
 40
-0.6
 41
30.0
 62
     5
 63
     7
 74
     0
 91
        4
 64
     7
 65
   257
 75
     1
175
     1
 42
1.0
 92
        0
 66
     7
 43
1.0
 76
     1
 77
     6
 78
     2
 67
     7
 79
     5
170
     0
171
     0
290
     0
174
     0
 93
       13
 44
0.0
173
     0
291
     1
 45
0.0
1001
ACAD
1000
AcDbSavedByObjectVersion
1070
     0
  0
VISUALSTYLE
  5
2E
102
{ACAD_REACTORS
330
2A
102
}
330
2A
100
AcDbVisualStyle
  2
GouraudWithEdges
 70
     3
 71
     2
 72
     2
 73
     1
 90
        2
 40
-0.6
 41
30.0
 62
     5
 63
     7
 74
     1
 91
        4
 64
     7
 65
   257
 75
     1
175
     1
 42
1.0
 92
        0
 66
   257
 43
1.0
 76
     1
 77
     6
 78
     2
 67
     7
 79
     5
170
     0
171
     0
290
     0
174
     0
 93
       13
 44
0.0
173
     0
291
     1
 45
0.0
1001
ACAD
1000
AcDbSavedByObjectVersion
1070
     0
  0
VISUALSTYLE
  5
38
102
{ACAD_REACTORS
330
2A
102
}
330
2A
100
AcDbVisualStyle
  2
Linepattern
 70
    14
 71
     2
 72
     2
 73
     0
 90
        0
 40
-0.6
 41
-30.0
 62
     5
 63
     7
 74
     1
 91
        4
 64
     7
 65
   257
 75
     7
175
     7
 42
1.0
 92
        8
 66
     7
 43
1.0
 76
     1
 77
     6
 78
     2
 67
     7
 79
     5
170
     0
171
     0
290
     0
174
     0
 93
        1
 44
0.0
173
     0
291
     1
 45
0.0
1001
ACAD
1000
AcDbSavedByObjectVersion
1070
     0
  0
VISUALSTYLE
  5
33
102
{ACAD_REACTORS
330
2A
102
}
330
2A
100
AcDbVisualStyle
  2
Realistic
 70
     8
 71
     2
 72
     2
 73
     0
 90
        0
 40
-0.6
 41
-30.0
 62
     5
 63
     7
 74
     1
 91
        0
 64
     7
 65
   257
 75
     1
175
     1
 42
1.0
 92
        8
 66
     8
 43
1.0
 76
     1
 77
     6
 78
     2
 67
     7
 79
     5
170
     0
171
     0
290
     0
174
     0
 93
       13
 44
0.0
173
     0
291
     0
 45
0.0
1001
ACAD
1000
AcDbSavedByObjectVersion
1070
     0
  0
VISUALSTYLE
  5
37
102
{ACAD_REACTORS
330
2A
102
}
330
2A
100
AcDbVisualStyle
  2
Thicken
 70
    13
 71
     2
 72
     2
 73
     0
 90
        0
 40
-0.6
 41
-30.0
 62
     5
 63
     7
 74
     1
 91
        4
 64
     7
 65
   257
 75
     1
175
     1
 42
1.0
 92
       12
 66
     7
 43
1.0
 76
     1
 77
     6
 78
     2
 67
     7
 79
     5
170
     0
171
     0
290
     0
174
     0
 93
        1
 44
0.0
173
     0
291
     1
 45
0.0
1001
ACAD
1000
AcDbSavedByObjectVersion
1070
     0
  0
DICTIONARYVAR
  5
1AE
102
{ACAD_REACTORS
330
1AC
102
}
330
1AC
100
DictionaryVariables
280
     0
  1
80.000000
  0
DICTIONARYVAR
  5
1AD
102
{ACAD_REACTORS
330
1AC
102
}
330
1AC
100
DictionaryVariables
280
     0
  1
5.000000
  0
ENDSEC
  0
EOF
