  0
SECTION
  2
HEADER
  9
$ACADVER
  1
AC1015
  9
$ACADMAINTVER
 70
     6
  9
$DWGCODEPAGE
  3
ANSI_1252
  9
$INSBASE
 10
0.0
 20
0.0
 30
0.0
  9
$EXTMIN
 10
0.0
 20
0.0
 30
0.0
  9
$EXTMAX
 10
279.4
 20
215.9
 30
0.0
  9
$LIMMIN
 10
0.0
 20
0.0
  9
$LIMMAX
 10
279.4
 20
215.9
  9
$ORTHOMODE
 70
     0
  9
$REGENMODE
 70
     1
  9
$FILLMODE
 70
     1
  9
$QTEXTMODE
 70
     0
  9
$MIRRTEXT
 70
     1
  9
$LTSCALE
 40
1.0
  9
$ATTMODE
 70
     1
  9
$TEXTSIZE
 40
3.175
  9
$TRACEWID
 40
1.0
  9
$TEXTSTYLE
  7
Standard
  9
$CLAYER
  8
0
  9
$CELTYPE
  6
ByLayer
  9
$CECOLOR
 62
   256
  9
$CELTSCALE
 40
1.0
  9
$DISPSILH
 70
     0
  9
$DIMSCALE
 40
1.0
  9
$DIMASZ
 40
3.302
  9
$DIMEXO
 40
1.27
  9
$DIMDLI
 40
3.75
  9
$DIMRND
 40
0.0
  9
$DIMDLE
 40
0.0
  9
$DIMEXE
 40
3.175
  9
$DIMTP
 40
0.0
  9
$DIMTM
 40
0.0
  9
$DIMTXT
 40
3.175
  9
$DIMCEN
 40
2.5
  9
$DIMTSZ
 40
0.0
  9
$DIMTOL
 70
     0
  9
$DIMLIM
 70
     0
  9
$DIMTIH
 70
     1
  9
$DIMTOH
 70
     1
  9
$DIMSE1
 70
     0
  9
$DIMSE2
 70
     0
  9
$DIMTAD
 70
     1
  9
$DIMZIN
 70
     0
  9
$DIMBLK
  1

  9
$DIMASO
 70
     1
  9
$DIMSHO
 70
     1
  9
$DIMPOST
  1

  9
$DIMAPOST
  1

  9
$DIMALT
 70
     0
  9
$DIMALTD
 70
     3
  9
$DIMALTF
 40
0.0393700787
  9
$DIMLFAC
 40
0.2
  9
$DIMTOFL
 70
     1
  9
$DIMTVP
 40
0.0
  9
$DIMTIX
 70
     0
  9
$DIMSOXD
 70
     0
  9
$DIMSAH
 70
     0
  9
$DIMBLK1
  1

  9
$DIMBLK2
  1

  9
$DIMSTYLE
  2
ISO-25
  9
$DIMCLRD
 70
     0
  9
$DIMCLRE
 70
     0
  9
$DIMCLRT
 70
     0
  9
$DIMTFAC
 40
1.0
  9
$DIMGAP
 40
1.524
  9
$DIMJUST
 70
     0
  9
$DIMSD1
 70
     0
  9
$DIMSD2
 70
     0
  9
$DIMTOLJ
 70
     0
  9
$DIMTZIN
 70
     0
  9
$DIMALTZ
 70
     0
  9
$DIMALTTZ
 70
     0
  9
$DIMUPT
 70
     0
  9
$DIMDEC
 70
     2
  9
$DIMTDEC
 70
     2
  9
$DIMALTU
 70
     2
  9
$DIMALTTD
 70
     3
  9
$DIMTXSTY
  7
Standard
  9
$DIMAUNIT
 70
     0
  9
$DIMADEC
 70
     0
  9
$DIMALTRND
 40
0.0
  9
$DIMAZIN
 70
     0
  9
$DIMDSEP
 70
    44
  9
$DIMATFIT
 70
     3
  9
$DIMFRAC
 70
     0
  9
$DIMLDRBLK
  1

  9
$DIMLUNIT
 70
     2
  9
$DIMLWD
 70
    -2
  9
$DIMLWE
 70
    -2
  9
$DIMTMOVE
 70
     0
  9
$LUNITS
 70
     2
  9
$LUPREC
 70
     2
  9
$SKETCHINC
 40
1.0
  9
$FILLETRAD
 40
10.0
  9
$AUNITS
 70
     0
  9
$AUPREC
 70
     0
  9
$MENU
  1
.
  9
$ELEVATION
 40
0.0
  9
$PELEVATION
 40
0.0
  9
$THICKNESS
 40
0.0
  9
$LIMCHECK
 70
     0
  9
$CHAMFERA
 40
10.0
  9
$CHAMFERB
 40
10.0
  9
$CHAMFERC
 40
20.0
  9
$CHAMFERD
 40
0.0
  9
$SKPOLY
 70
     0
  9
$TDCREATE
 40
2455279.412230035
  9
$TDUCREATE
 40
2455279.578896701
  9
$TDUPDATE
 40
2455279.412230046
  9
$TDUUPDATE
 40
2455279.578896713
  9
$TDINDWG
 40
0.0000000116
  9
$TDUSRTIMER
 40
0.0000000116
  9
$USRTIMER
 70
     1
  9
$ANGBASE
 50
0.0
  9
$ANGDIR
 70
     0
  9
$PDMODE
 70
     0
  9
$PDSIZE
 40
-1.0
  9
$PLINEWID
 40
0.0
  9
$SPLFRAME
 70
     0
  9
$SPLINETYPE
 70
     6
  9
$SPLINESEGS
 70
     8
  9
$HANDSEED
  5
1CF
  9
$SURFTAB1
 70
     6
  9
$SURFTAB2
 70
     6
  9
$SURFTYPE
 70
     6
  9
$SURFU
 70
     6
  9
$SURFV
 70
     6
  9
$UCSBASE
  2

  9
$UCSNAME
  2

  9
$UCSORG
 10
0.0
 20
0.0
 30
0.0
  9
$UCSXDIR
 10
1.0
 20
0.0
 30
0.0
  9
$UCSYDIR
 10
0.0
 20
1.0
 30
0.0
  9
$UCSORTHOREF
  2

  9
$UCSORTHOVIEW
 70
     0
  9
$UCSORGTOP
 10
0.0
 20
0.0
 30
0.0
  9
$UCSORGBOTTOM
 10
0.0
 20
0.0
 30
0.0
  9
$UCSORGLEFT
 10
0.0
 20
0.0
 30
0.0
  9
$UCSORGRIGHT
 10
0.0
 20
0.0
 30
0.0
  9
$UCSORGFRONT
 10
0.0
 20
0.0
 30
0.0
  9
$UCSORGBACK
 10
0.0
 20
0.0
 30
0.0
  9
$PUCSBASE
  2

  9
$PUCSNAME
  2

  9
$PUCSORG
 10
0.0
 20
0.0
 30
0.0
  9
$PUCSXDIR
 10
1.0
 20
0.0
 30
0.0
  9
$PUCSYDIR
 10
0.0
 20
1.0
 30
0.0
  9
$PUCSORTHOREF
  2

  9
$PUCSORTHOVIEW
 70
     0
  9
$PUCSORGTOP
 10
0.0
 20
0.0
 30
0.0
  9
$PUCSORGBOTTOM
 10
0.0
 20
0.0
 30
0.0
  9
$PUCSORGLEFT
 10
0.0
 20
0.0
 30
0.0
  9
$PUCSORGRIGHT
 10
0.0
 20
0.0
 30
0.0
  9
$PUCSORGFRONT
 10
0.0
 20
0.0
 30
0.0
  9
$PUCSORGBACK
 10
0.0
 20
0.0
 30
0.0
  9
$USERI1
 70
     0
  9
$USERI2
 70
     0
  9
$USERI3
 70
     0
  9
$USERI4
 70
     0
  9
$USERI5
 70
     0
  9
$USERR1
 40
0.0
  9
$USERR2
 40
0.0
  9
$USERR3
 40
0.0
  9
$USERR4
 40
0.0
  9
$USERR5
 40
0.0
  9
$WORLDVIEW
 70
     1
  9
$SHADEDGE
 70
     3
  9
$SHADEDIF
 70
    70
  9
$TILEMODE
 70
     1
  9
$MAXACTVP
 70
    64
  9
$PINSBASE
 10
0.0
 20
0.0
 30
0.0
  9
$PLIMCHECK
 70
     0
  9
$PEXTMIN
 10
1.0000000000E+20
 20
1.0000000000E+20
 30
1.0000000000E+20
  9
$PEXTMAX
 10
-1.0000000000E+20
 20
-1.0000000000E+20
 30
-1.0000000000E+20
  9
$PLIMMIN
 10
0.0
 20
0.0
  9
$PLIMMAX
 10
420.0
 20
297.0
  9
$UNITMODE
 70
     0
  9
$VISRETAIN
 70
     1
  9
$PLINEGEN
 70
     0
  9
$PSLTSCALE
 70
     1
  9
$TREEDEPTH
 70
  3020
  9
$CMLSTYLE
  2
Standard
  9
$CMLJUST
 70
     0
  9
$CMLSCALE
 40
20.0
  9
$PROXYGRAPHICS
 70
     1
  9
$MEASUREMENT
 70
     1
  9
$CELWEIGHT
370
    -1
  9
$ENDCAPS
280
     0
  9
$JOINSTYLE
280
     0
  9
$LWDISPLAY
290
     1
  9
$INSUNITS
 70
     4
  9
$HYPERLINKBASE
  1

  9
$STYLESHEET
  1

  9
$XEDIT
290
     1
  9
$CEPSNTYPE
380
     0
  9
$PSTYLEMODE
290
     1
  9
$FINGERPRINTGUID
  2
{2D9547DD-869A-4420-91EA-D8B48F340B09}
  9
$VERSIONGUID
  2
{FAEB1C32-E019-11D5-929B-00C0DF256EC4}
  9
$EXTNAMES
290
     1
  9
$PSVPSCALE
 40
0.0
  9
$OLESTARTUP
290
     0
  0
ENDSEC
  0
SECTION
  2
CLASSES
  0
CLASS
  1
ACDBDICTIONARYWDFLT
  2
AcDbDictionaryWithDefault
  3
ObjectDBX Classes
 90
        0
280
     0
281
     0
  0
CLASS
  1
VISUALSTYLE
  2
AcDbVisualStyle
  3
ObjectDBX Classes
 90
     4095
280
     0
281
     0
  0
CLASS
  1
DICTIONARYVAR
  2
AcDbDictionaryVar
  3
ObjectDBX Classes
 90
        0
280
     0
281
     0
  0
CLASS
  1
ACDBPLACEHOLDER
  2
AcDbPlaceHolder
  3
ObjectDBX Classes
 90
        0
280
     0
281
     0
  0
CLASS
  1
LAYOUT
  2
AcDbLayout
  3
ObjectDBX Classes
 90
        0
280
     0
281
     0
  0
ENDSEC
  0
SECTION
  2
TABLES
  0
TABLE
  2
VPORT
  5
8
330
0
100
AcDbSymbolTable
 70
     1
  0
VPORT
  5
29
330
8
100
AcDbSymbolTableRecord
100
AcDbViewportTableRecord
  2
*Active
 70
     0
 10
0.0
 20
0.0
 11
1.0
 21
1.0
 12
139.7
 22
107.95
 13
0.0
 23
0.0
 14
10.0
 24
10.0
 15
10.0
 25
10.0
 16
0.0
 26
0.0
 36
1.0
 17
0.0
 27
0.0
 37
0.0
 40
215.9
 41
1.2941176471
 42
50.0
 43
0.0
 44
0.0
 50
0.0
 51
0.0
 71
     0
 72
  2000
 73
     1
 74
     3
 75
     0
 76
     0
 77
     0
 78
     0
281
     0
 65
     1
110
0.0
120
0.0
130
0.0
111
1.0
121
0.0
131
0.0
112
0.0
122
1.0
132
0.0
 79
     0
146
0.0
  0
ENDTAB
  0
TABLE
  2
LTYPE
  5
5
330
0
100
AcDbSymbolTable
 70
     6
  0
LTYPE
  5
14
330
5
100
AcDbSymbolTableRecord
100
AcDbLinetypeTableRecord
  2
ByBlock
 70
     0
  3

 72
    65
 73
     0
 40
0.0
  0
LTYPE
  5
15
330
5
100
AcDbSymbolTableRecord
100
AcDbLinetypeTableRecord
  2
ByLayer
 70
     0
  3

 72
    65
 73
     0
 40
0.0
  0
LTYPE
  5
16
330
5
100
AcDbSymbolTableRecord
100
AcDbLinetypeTableRecord
  2
Continuous
 70
     0
  3
Solid line
 72
    65
 73
     0
 40
0.0
  0
LTYPE
  5
3B
330
5
100
AcDbSymbolTableRecord
100
AcDbLinetypeTableRecord
  2
HIDDEN
 70
     0
  3
Hidden __ __ __ __ __ __ __ __ __ __ __ __ __ __
 72
    65
 73
     2
 40
1.905
 49
1.27
 74
     0
 49
-0.635
 74
     0
  0
LTYPE
  5
3C
330
5
100
AcDbSymbolTableRecord
100
AcDbLinetypeTableRecord
  2
PHANTOM
 70
     0
  3
Phantom ______  __  __  ______  __  __  ______
 72
    65
 73
     6
 40
12.7
 49
6.35
 74
     0
 49
-1.27
 74
     0
 49
1.27
 74
     0
 49
-1.27
 74
     0
 49
1.27
 74
     0
 49
-1.27
 74
     0
  0
LTYPE
  5
3D
330
5
100
AcDbSymbolTableRecord
100
AcDbLinetypeTableRecord
  2
CENTER
 70
     0
  3
Center ____ _ ____ _ ____ _ ____ _ ____ _ ____
 72
    65
 73
     4
 40
10.16
 49
6.35
 74
     0
 49
-1.27
 74
     0
 49
1.27
 74
     0
 49
-1.27
 74
     0
  0
LTYPE
  5
3E
330
5
100
AcDbSymbolTableRecord
100
AcDbLinetypeTableRecord
  2
CENTERX2
 70
     0
  3
Center (2x) ________  __  ________  __  _____
 72
    65
 73
     4
 40
20.32
 49
12.7
 74
     0
 49
-2.54
 74
     0
 49
2.54
 74
     0
 49
-2.54
 74
     0
  0
LTYPE
  5
3F
330
5
100
AcDbSymbolTableRecord
100
AcDbLinetypeTableRecord
  2
DOT2
 70
     0
  3
Dot (.5x) ........................................
 72
    65
 73
     2
 40
0.635
 49
0.0
 74
     0
 49
-0.635
 74
     0
  0
ENDTAB
  0
TABLE
  2
LAYER
  5
2
330
0
100
AcDbSymbolTable
 70
     2
  0
LAYER
  5
10
330
2
100
AcDbSymbolTableRecord
100
AcDbLayerTableRecord
  2
0
 70
     0
 62
     7
  6
Continuous
370
    -3
390
F
  0
LAYER
  5
40
330
2
100
AcDbSymbolTableRecord
100
AcDbLayerTableRecord
  2
FORMAT
 70
     0
 62
     7
  6
Continuous
370
    -3
390
F
  0
ENDTAB
  0
TABLE
  2
STYLE
  5
3
330
0
100
AcDbSymbolTable
 70
     4
  0
STYLE
  5
11
330
3
100
AcDbSymbolTableRecord
100
AcDbTextStyleTableRecord
  2
Standard
 70
     0
 40
0.0
 41
1.0
 50
0.0
 71
     0
 42
2.5
  3
txt
  4

  0
STYLE
  5
44
330
3
100
AcDbSymbolTableRecord
100
AcDbTextStyleTableRecord
  2
SLDTEXTSTYLE0
 70
     0
 40
0.0
 41
0.75
 50
0.0
 71
     0
 42
0.2
  3
TXT
  4

  0
STYLE
  5
47
330
3
100
AcDbSymbolTableRecord
100
AcDbTextStyleTableRecord
  2
SLDTEXTSTYLE1
 70
     0
 40
0.0
 41
0.65
 50
0.0
 71
     0
 42
0.2
  3
TXT
  4

  0
STYLE
  5
EE
330
3
100
AcDbSymbolTableRecord
100
AcDbTextStyleTableRecord
  2
SLDTEXTSTYLE2
 70
     0
 40
0.0
 41
0.6875
 50
0.0
 71
     0
 42
0.2
  3
TXT
  4

  0
ENDTAB
  0
TABLE
  2
VIEW
  5
6
330
0
100
AcDbSymbolTable
 70
     0
  0
ENDTAB
  0
TABLE
  2
UCS
  5
7
330
0
100
AcDbSymbolTable
 70
     0
  0
ENDTAB
  0
TABLE
  2
APPID
  5
9
330
0
100
AcDbSymbolTable
 70
     1
  0
APPID
  5
12
330
9
100
AcDbSymbolTableRecord
100
AcDbRegAppTableRecord
  2
ACAD
 70
     0
  0
ENDTAB
  0
TABLE
  2
DIMSTYLE
  5
A
330
0
100
AcDbSymbolTable
 70
     3
100
AcDbDimStyleTable
  0
DIMSTYLE
105
27
330
A
100
AcDbSymbolTableRecord
100
AcDbDimStyleTableRecord
  2
ISO-25
 70
     0
 41
2.5
 42
0.625
 43
3.75
 44
1.25
 73
     0
 74
     0
 77
     1
 78
     8
140
2.5
141
2.5
143
0.0393700787
147
0.625
171
     3
172
     1
271
     2
272
     2
274
     3
278
    44
283
     0
284
     8
340
11
  0
DIMSTYLE
105
6E
102
{ACAD_REACTORS
330
6D
330
82
330
97
330
AB
330
BE
330
D2
330
F7
330
10B
330
152
330
166
330
17A
330
18E
330
1A1
330
1B5
102
}
330
A
100
AcDbSymbolTableRecord
100
AcDbDimStyleTableRecord
  2
SLDDIMSTYLE0
 70
     0
 41
3.302
 44
0.0
 45
0.000000001
 78
    12
140
3.175
143
0.0393700787
144
0.2
147
0.79375
148
0.000000001
170
     1
173
     1
271
     2
272
     2
284
    12
340
44
  0
DIMSTYLE
105
E5
102
{ACAD_REACTORS
330
E4
102
}
330
A
100
AcDbSymbolTableRecord
100
AcDbDimStyleTableRecord
  2
SLDDIMSTYLE1
 70
     0
 41
3.302
 44
0.0
 45
0.000000001
 78
    12
140
3.175
143
0.0393700787
144
0.2
147
0.79375
148
0.000000001
170
     1
173
     1
271
     2
272
     2
284
    12
340
44
  0
ENDTAB
  0
TABLE
  2
BLOCK_RECORD
  5
1
330
0
100
AcDbSymbolTable
 70
    18
  0
BLOCK_RECORD
  5
1F
330
1
100
AcDbSymbolTableRecord
100
AcDbBlockTableRecord
  2
*Model_Space
340
22
  0
BLOCK_RECORD
  5
1B
330
1
100
AcDbSymbolTableRecord
100
AcDbBlockTableRecord
  2
*Paper_Space
340
1E
  0
BLOCK_RECORD
  5
23
330
1
100
AcDbSymbolTableRecord
100
AcDbBlockTableRecord
  2
*Paper_Space0
340
26
  0
BLOCK_RECORD
  5
41
330
1
100
AcDbSymbolTableRecord
100
AcDbBlockTableRecord
  2
SW_NOTE_0
340
0
102
{BLKREFS
331
4C
102
}
  0
BLOCK_RECORD
  5
6F
330
1
100
AcDbSymbolTableRecord
100
AcDbBlockTableRecord
  2
*D2
340
0
  0
BLOCK_RECORD
  5
83
330
1
100
AcDbSymbolTableRecord
100
AcDbBlockTableRecord
  2
*D3
340
0
  0
BLOCK_RECORD
  5
98
330
1
100
AcDbSymbolTableRecord
100
AcDbBlockTableRecord
  2
*D4
340
0
  0
BLOCK_RECORD
  5
AC
330
1
100
AcDbSymbolTableRecord
100
AcDbBlockTableRecord
  2
*D5
340
0
  0
BLOCK_RECORD
  5
BF
330
1
100
AcDbSymbolTableRecord
100
AcDbBlockTableRecord
  2
*D6
340
0
  0
BLOCK_RECORD
  5
D3
330
1
100
AcDbSymbolTableRecord
100
AcDbBlockTableRecord
  2
*D7
340
0
  0
BLOCK_RECORD
  5
E6
330
1
100
AcDbSymbolTableRecord
100
AcDbBlockTableRecord
  2
*D8
340
0
  0
BLOCK_RECORD
  5
F8
330
1
100
AcDbSymbolTableRecord
100
AcDbBlockTableRecord
  2
*D9
340
0
  0
BLOCK_RECORD
  5
10C
330
1
100
AcDbSymbolTableRecord
100
AcDbBlockTableRecord
  2
*D10
340
0
  0
BLOCK_RECORD
  5
11F
330
1
100
AcDbSymbolTableRecord
100
AcDbBlockTableRecord
  2
SW_CENTERMARKSYMBOL_0
340
0
102
{BLKREFS
331
12A
102
}
  0
BLOCK_RECORD
  5
153
330
1
100
AcDbSymbolTableRecord
100
AcDbBlockTableRecord
  2
*D12
340
0
  0
BLOCK_RECORD
  5
167
330
1
100
AcDbSymbolTableRecord
100
AcDbBlockTableRecord
  2
*D13
340
0
  0
BLOCK_RECORD
  5
17B
330
1
100
AcDbSymbolTableRecord
100
AcDbBlockTableRecord
  2
*D14
340
0
  0
BLOCK_RECORD
  5
18F
330
1
100
AcDbSymbolTableRecord
100
AcDbBlockTableRecord
  2
*D15
340
0
  0
BLOCK_RECORD
  5
1A2
330
1
100
AcDbSymbolTableRecord
100
AcDbBlockTableRecord
  2
*D16
340
0
  0
BLOCK_RECORD
  5
1B6
330
1
100
AcDbSymbolTableRecord
100
AcDbBlockTableRecord
  2
*D17
340
0
  0
ENDTAB
  0
ENDSEC
  0
SECTION
  2
BLOCKS
  0
BLOCK
  5
20
330
1F
100
AcDbEntity
  8
0
100
AcDbBlockBegin
  2
*Model_Space
 70
     0
 10
0.0
 20
0.0
 30
0.0
  3
*Model_Space
  1

  0
ENDBLK
  5
21
330
1F
100
AcDbEntity
  8
0
100
AcDbBlockEnd
  0
BLOCK
  5
1C
330
1B
100
AcDbEntity
 67
     1
  8
0
100
AcDbBlockBegin
  2
*Paper_Space
 70
     0
 10
0.0
 20
0.0
 30
0.0
  3
*Paper_Space
  1

  0
ENDBLK
  5
1D
330
1B
100
AcDbEntity
 67
     1
  8
0
100
AcDbBlockEnd
  0
BLOCK
  5
24
330
23
100
AcDbEntity
  8
0
100
AcDbBlockBegin
  2
*Paper_Space0
 70
     0
 10
0.0
 20
0.0
 30
0.0
  3
*Paper_Space0
  1

  0
ENDBLK
  5
25
330
23
100
AcDbEntity
  8
0
100
AcDbBlockEnd
  0
BLOCK
  5
42
330
41
100
AcDbEntity
  8
0
100
AcDbBlockBegin
  2
SW_NOTE_0
 70
     0
 10
0.0
 20
0.0
 30
0.0
  3
SW_NOTE_0
  1

  0
MTEXT
  5
45
330
41
100
AcDbEntity
  8
0
  6
Continuous
 62
     0
370
     0
100
AcDbMText
 10
0.0
 20
6.1391851107
 30
0.0
 40
4.7625
 41
0.0
 71
     1
 72
     1
  1
Number: 4
  7
SLDTEXTSTYLE0
 73
     1
 44
1.0
  0
MTEXT
  5
46
330
41
100
AcDbEntity
  8
0
  6
Continuous
 62
     0
370
     0
100
AcDbMText
 10
0.0
 20
-0.2108148126
 30
0.0
 40
4.7625
 41
0.0
 71
     1
 72
     1
  1
Material: Ultem
  7
SLDTEXTSTYLE0
 73
     1
 44
1.0
  0
MTEXT
  5
48
330
41
100
AcDbEntity
  8
0
  6
Continuous
 62
     0
370
     0
100
AcDbMText
 10
0.0
 20
-6.5608147359
 30
0.0
 40
4.7625
 41
0.0
 71
     1
 72
     1
  1
Scale:      5:1
  7
SLDTEXTSTYLE1
 73
     1
 44
1.0
  0
MTEXT
  5
49
330
41
100
AcDbEntity
  8
0
  6
Continuous
 62
     0
370
     0
100
AcDbMText
 10
0.0
 20
-19.2608145824
 30
0.0
 40
4.7625
 41
0.0
 71
     1
 72
     1
  1
Brett Graham
  7
SLDTEXTSTYLE0
 73
     1
 44
1.0
  0
MTEXT
  5
4A
330
41
100
AcDbEntity
  8
0
  6
Continuous
 62
     0
370
     0
100
AcDbMText
 10
0.0
 20
-25.6108145056
 30
0.0
 40
4.7625
 41
0.0
 71
     1
 72
     1
  1
7mm Window rev.D
  7
SLDTEXTSTYLE0
 73
     1
 44
1.0
  0
MTEXT
  5
4B
330
41
100
AcDbEntity
  8
0
  6
Continuous
 62
     0
370
     0
100
AcDbMText
 10
0.0
 20
-31.9608144289
 30
0.0
 40
4.7625
 41
0.0
 71
     1
 72
     1
  1
Date:
  7
SLDTEXTSTYLE0
 73
     1
 44
1.0
  0
ENDBLK
  5
43
330
41
100
AcDbEntity
  8
0
100
AcDbBlockEnd
  0
BLOCK
  5
70
330
6F
100
AcDbEntity
  8
0
100
AcDbBlockBegin
  2
*D2
 70
     1
 10
0.0
 20
0.0
 30
0.0
  3
*D2
  1

  0
ARC
  5
72
330
6F
100
AcDbEntity
  8
0
  6
Continuous
 62
     7
370
     0
100
AcDbCircle
 10
76.2342552953
 20
139.514575431
 30
0.0
 40
11.26716755074102
100
AcDbArc
 50
153.4349488229
 51
206.5650511771
  0
ARC
  5
73
330
6F
100
AcDbEntity
  8
0
  6
Continuous
 62
     7
370
     0
100
AcDbCircle
 10
70.2755722909
 20
139.514575431
 30
0.0
 40
11.26716755074103
100
AcDbArc
 50
333.4349488229
 51
26.5650511771
  0
SOLID
  5
74
330
6F
100
AcDbEntity
  8
0
  6
Continuous
 62
     7
370
     0
100
AcDbTrace
 10
87.0142001467
 20
139.514575431
 30
0.0
 11
90.3162001467
 21
139.006575431
 31
0.0
 12
90.3162001467
 22
140.022575431
 32
0.0
 13
90.3162001467
 23
140.022575431
 33
0.0
  0
SOLID
  5
75
330
6F
100
AcDbEntity
  8
0
  6
Continuous
 62
     7
370
     0
100
AcDbTrace
 10
97.0142001467
 20
139.514575431
 30
0.0
 11
93.7122001467
 21
140.022575431
 31
0.0
 12
93.7122001467
 22
139.006575431
 32
0.0
 13
93.7122001467
 23
139.006575431
 33
0.0
  0
LINE
  5
76
330
6F
100
AcDbEntity
  8
0
  6
Continuous
 62
     7
370
     0
100
AcDbLine
 10
69.0337694564
 20
144.1754936541
 30
0.0
 11
69.0337694564
 21
139.8924877194
 31
0.0
  0
LINE
  5
77
330
6F
100
AcDbEntity
  8
0
  6
Continuous
 62
     7
370
     0
100
AcDbLine
 10
69.0337694564
 20
139.8924877194
 30
0.0
 11
69.6786070484
 21
139.8924877194
 31
0.0
  0
LINE
  5
78
330
6F
100
AcDbEntity
  8
0
  6
Continuous
 62
     7
370
     0
100
AcDbLine
 10
69.0337694564
 20
144.1754936541
 30
0.0
 11
69.6786070484
 21
144.1754936541
 31
0.0
  0
LINE
  5
79
330
6F
100
AcDbEntity
  8
0
  6
Continuous
 62
     7
370
     0
100
AcDbLine
 10
77.4760581298
 20
144.1754936541
 30
0.0
 11
77.4760581298
 21
139.8924877194
 31
0.0
  0
LINE
  5
7A
330
6F
100
AcDbEntity
  8
0
  6
Continuous
 62
     7
370
     0
100
AcDbLine
 10
77.4760581298
 20
139.8924877194
 30
0.0
 11
76.8312205378
 21
139.8924877194
 31
0.0
  0
LINE
  5
7B
330
6F
100
AcDbEntity
  8
0
  6
Continuous
 62
     7
370
     0
100
AcDbLine
 10
77.4760581298
 20
144.1754936541
 30
0.0
 11
76.8312205378
 21
144.1754936541
 31
0.0
  0
LINE
  5
7C
330
6F
100
AcDbEntity
  8
0
  6
Continuous
 62
     7
370
     0
100
AcDbLine
 10
87.0142001467
 20
124.784450431
 30
0.0
 11
87.0142001467
 21
142.689575431
 31
0.0
  0
LINE
  5
7D
330
6F
100
AcDbEntity
  8
0
  6
Continuous
 62
     7
370
     0
100
AcDbLine
 10
97.0142001467
 20
124.784450431
 30
0.0
 11
97.0142001467
 21
142.689575431
 31
0.0
  0
LINE
  5
7E
330
6F
100
AcDbEntity
  8
0
  6
Continuous
 62
     7
370
     0
100
AcDbLine
 10
87.0142001467
 20
139.514575431
 30
0.0
 11
85.8065480563
 21
139.514575431
 31
0.0
  0
LINE
  5
7F
330
6F
100
AcDbEntity
  8
0
  6
Continuous
 62
     7
370
     0
100
AcDbLine
 10
97.0142001467
 20
139.514575431
 30
0.0
 11
87.0142001467
 21
139.514575431
 31
0.0
  0
MTEXT
  5
80
330
6F
100
AcDbEntity
  8
0
  6
Continuous
 62
     7
370
     0
100
AcDbMText
 10
72.0829682939
 20
138.5685353426
 30
0.0
 40
3.175
 41
0.0
 71
     1
 72
     1
  1
2
  7
SLDTEXTSTYLE0
 73
     1
 44
1.0
  0
MTEXT
  5
81
330
6F
100
AcDbEntity
  8
0
  6
Continuous
 62
     7
370
     0
100
AcDbMText
 10
70.3234446404
 20
143.6073658541
 30
0.0
 40
3.175
 41
0.0
 71
     1
 72
     1
  1
.08
  7
SLDTEXTSTYLE0
 73
     1
 44
1.0
  0
ENDBLK
  5
71
330
6F
100
AcDbEntity
  8
0
100
AcDbBlockEnd
  0
BLOCK
  5
84
330
83
100
AcDbEntity
  8
0
100
AcDbBlockBegin
  2
*D3
 70
     1
 10
0.0
 20
0.0
 30
0.0
  3
*D3
  1

  0
ARC
  5
86
330
83
100
AcDbEntity
  8
0
  6
Continuous
 62
     7
370
     0
100
AcDbCircle
 10
132.3925986102
 20
135.7145538793
 30
0.0
 40
11.26716755074106
100
AcDbArc
 50
153.4349488229
 51
206.5650511771
  0
ARC
  5
87
330
83
100
AcDbEntity
  8
0
  6
Continuous
 62
     7
370
     0
100
AcDbCircle
 10
126.4339156058
 20
135.7145538793
 30
0.0
 40
11.26716755074107
100
AcDbArc
 50
333.4349488229
 51
26.5650511771
  0
SOLID
  5
88
330
83
100
AcDbEntity
  8
0
  6
Continuous
 62
     7
370
     0
100
AcDbTrace
 10
110.5116228448
 20
123.514450431
 30
0.0
 11
110.0036228448
 21
120.212450431
 31
0.0
 12
111.0196228448
 22
120.212450431
 32
0.0
 13
111.0196228448
 23
120.212450431
 33
0.0
  0
SOLID
  5
89
330
83
100
AcDbEntity
  8
0
  6
Continuous
 62
     7
370
     0
100
AcDbTrace
 10
110.5116228448
 20
116.014450431
 30
0.0
 11
111.0196228448
 21
119.316450431
 31
0.0
 12
110.0036228448
 22
119.316450431
 32
0.0
 13
110.0036228448
 23
119.316450431
 33
0.0
  0
LINE
  5
8A
330
83
100
AcDbEntity
  8
0
  6
Continuous
 62
     7
370
     0
100
AcDbLine
 10
125.1921127713
 20
140.3754721024
 30
0.0
 11
125.1921127713
 21
136.0924661677
 31
0.0
  0
LINE
  5
8B
330
83
100
AcDbEntity
  8
0
  6
Continuous
 62
     7
370
     0
100
AcDbLine
 10
125.1921127713
 20
136.0924661677
 30
0.0
 11
125.8369503633
 21
136.0924661677
 31
0.0
  0
LINE
  5
8C
330
83
100
AcDbEntity
  8
0
  6
Continuous
 62
     7
370
     0
100
AcDbLine
 10
125.1921127713
 20
140.3754721024
 30
0.0
 11
125.8369503633
 21
140.3754721024
 31
0.0
  0
LINE
  5
8D
330
83
100
AcDbEntity
  8
0
  6
Continuous
 62
     7
370
     0
100
AcDbLine
 10
133.6344014447
 20
140.3754721024
 30
0.0
 11
133.6344014447
 21
136.0924661677
 31
0.0
  0
LINE
  5
8E
330
83
100
AcDbEntity
  8
0
  6
Continuous
 62
     7
370
     0
100
AcDbLine
 10
133.6344014447
 20
136.0924661677
 30
0.0
 11
132.9895638527
 21
136.0924661677
 31
0.0
  0
LINE
  5
8F
330
83
100
AcDbEntity
  8
0
  6
Continuous
 62
     7
370
     0
100
AcDbLine
 10
133.6344014447
 20
140.3754721024
 30
0.0
 11
132.9895638527
 21
140.3754721024
 31
0.0
  0
LINE
  5
90
330
83
100
AcDbEntity
  8
0
  6
Continuous
 62
     7
370
     0
100
AcDbLine
 10
98.2842001467
 20
123.514450431
 30
0.0
 11
113.6866228448
 21
123.514450431
 31
0.0
  0
LINE
  5
91
330
83
100
AcDbEntity
  8
0
  6
Continuous
 62
     7
370
     0
100
AcDbLine
 10
98.2842001467
 20
116.014450431
 30
0.0
 11
113.6866228448
 21
116.014450431
 31
0.0
  0
LINE
  5
92
330
83
100
AcDbEntity
  8
0
  6
Continuous
 62
     7
370
     0
100
AcDbLine
 10
116.8616228448
 20
135.7145538793
 30
0.0
 11
110.5116228448
 21
135.7145538793
 31
0.0
  0
LINE
  5
93
330
83
100
AcDbEntity
  8
0
  6
Continuous
 62
     7
370
     0
100
AcDbLine
 10
110.5116228448
 20
135.7145538793
 30
0.0
 11
110.5116228448
 21
123.514450431
 31
0.0
  0
LINE
  5
94
330
83
100
AcDbEntity
  8
0
  6
Continuous
 62
     7
370
     0
100
AcDbLine
 10
110.5116228448
 20
123.514450431
 30
0.0
 11
110.5116228448
 21
116.014450431
 31
0.0
  0
MTEXT
  5
95
330
83
100
AcDbEntity
  8
0
  6
Continuous
 62
     7
370
     0
100
AcDbMText
 10
126.4817879553
 20
134.7685137909
 30
0.0
 40
3.175
 41
0.0
 71
     1
 72
     1
  1
1.5
  7
SLDTEXTSTYLE0
 73
     1
 44
1.0
  0
MTEXT
  5
96
330
83
100
AcDbEntity
  8
0
  6
Continuous
 62
     7
370
     0
100
AcDbMText
 10
126.4817879553
 20
139.8073443023
 30
0.0
 40
3.175
 41
0.0
 71
     1
 72
     1
  1
.06
  7
SLDTEXTSTYLE0
 73
     1
 44
1.0
  0
ENDBLK
  5
85
330
83
100
AcDbEntity
  8
0
100
AcDbBlockEnd
  0
BLOCK
  5
99
330
98
100
AcDbEntity
  8
0
100
AcDbBlockBegin
  2
*D4
 70
     1
 10
0.0
 20
0.0
 30
0.0
  3
*D4
  1

  0
ARC
  5
9B
330
98
100
AcDbEntity
  8
0
  6
Continuous
 62
     7
370
     0
100
AcDbCircle
 10
49.595526847
 20
67.8456443966
 30
0.0
 40
11.26716755074103
100
AcDbArc
 50
153.4349488229
 51
206.5650511771
  0
ARC
  5
9C
330
98
100
AcDbEntity
  8
0
  6
Continuous
 62
     7
370
     0
100
AcDbCircle
 10
43.6368438426
 20
67.8456443966
 30
0.0
 40
11.26716755074104
100
AcDbArc
 50
333.4349488229
 51
26.5650511771
  0
SOLID
  5
9D
330
98
100
AcDbEntity
  8
0
  6
Continuous
 62
     7
370
     0
100
AcDbTrace
 10
46.6161853448
 20
57.264450431
 30
0.0
 11
47.1241853448
 21
60.566450431
 31
0.0
 12
46.1081853448
 22
60.566450431
 32
0.0
 13
46.1081853448
 23
60.566450431
 33
0.0
  0
SOLID
  5
9E
330
98
100
AcDbEntity
  8
0
  6
Continuous
 62
     7
370
     0
100
AcDbTrace
 10
46.6161853448
 20
77.264450431
 30
0.0
 11
46.1081853448
 21
73.962450431
 31
0.0
 12
47.1241853448
 22
73.962450431
 32
0.0
 13
47.1241853448
 23
73.962450431
 33
0.0
  0
LINE
  5
9F
330
98
100
AcDbEntity
  8
0
  6
Continuous
 62
     7
370
     0
100
AcDbLine
 10
42.3950410081
 20
72.5065626197
 30
0.0
 11
42.3950410081
 21
68.2235566849
 31
0.0
  0
LINE
  5
A0
330
98
100
AcDbEntity
  8
0
  6
Continuous
 62
     7
370
     0
100
AcDbLine
 10
42.3950410081
 20
68.2235566849
 30
0.0
 11
43.0398786001
 21
68.2235566849
 31
0.0
  0
LINE
  5
A1
330
98
100
AcDbEntity
  8
0
  6
Continuous
 62
     7
370
     0
100
AcDbLine
 10
42.3950410081
 20
72.5065626197
 30
0.0
 11
43.0398786001
 21
72.5065626197
 31
0.0
  0
LINE
  5
A2
330
98
100
AcDbEntity
  8
0
  6
Continuous
 62
     7
370
     0
100
AcDbLine
 10
50.8373296815
 20
72.5065626197
 30
0.0
 11
50.8373296815
 21
68.2235566849
 31
0.0
  0
LINE
  5
A3
330
98
100
AcDbEntity
  8
0
  6
Continuous
 62
     7
370
     0
100
AcDbLine
 10
50.8373296815
 20
68.2235566849
 30
0.0
 11
50.1924920895
 21
68.2235566849
 31
0.0
  0
LINE
  5
A4
330
98
100
AcDbEntity
  8
0
  6
Continuous
 62
     7
370
     0
100
AcDbLine
 10
50.8373296815
 20
72.5065626197
 30
0.0
 11
50.1924920895
 21
72.5065626197
 31
0.0
  0
LINE
  5
A5
330
98
100
AcDbEntity
  8
0
  6
Continuous
 62
     7
370
     0
100
AcDbLine
 10
72.3461853448
 20
57.264450431
 30
0.0
 11
43.4411853448
 21
57.264450431
 31
0.0
  0
LINE
  5
A6
330
98
100
AcDbEntity
  8
0
  6
Continuous
 62
     7
370
     0
100
AcDbLine
 10
76.0961853448
 20
77.264450431
 30
0.0
 11
43.4411853448
 21
77.264450431
 31
0.0
  0
LINE
  5
A7
330
98
100
AcDbEntity
  8
0
  6
Continuous
 62
     7
370
     0
100
AcDbLine
 10
46.6161853448
 20
57.264450431
 30
0.0
 11
46.6161853448
 21
62.8068138851
 31
0.0
  0
LINE
  5
A8
330
98
100
AcDbEntity
  8
0
  6
Continuous
 62
     7
370
     0
100
AcDbLine
 10
46.6161853448
 20
77.264450431
 30
0.0
 11
46.6161853448
 21
72.884474908
 31
0.0
  0
MTEXT
  5
A9
330
98
100
AcDbEntity
  8
0
  6
Continuous
 62
     7
370
     0
100
AcDbMText
 10
45.4442398457
 20
66.8996043081
 30
0.0
 40
3.175
 41
0.0
 71
     1
 72
     1
  1
4
  7
SLDTEXTSTYLE0
 73
     1
 44
1.0
  0
MTEXT
  5
AA
330
98
100
AcDbEntity
  8
0
  6
Continuous
 62
     7
370
     0
100
AcDbMText
 10
43.6847161921
 20
71.9384348196
 30
0.0
 40
3.175
 41
0.0
 71
     1
 72
     1
  1
.16
  7
SLDTEXTSTYLE0
 73
     1
 44
1.0
  0
ENDBLK
  5
9A
330
98
100
AcDbEntity
  8
0
100
AcDbBlockEnd
  0
BLOCK
  5
AD
330
AC
100
AcDbEntity
  8
0
100
AcDbBlockBegin
  2
*D5
 70
     1
 10
0.0
 20
0.0
 30
0.0
  3
*D5
  1

  0
ARC
  5
AF
330
AC
100
AcDbEntity
  8
0
  6
Continuous
 62
     7
370
     0
100
AcDbCircle
 10
61.595526847
 20
41.264450431
 30
0.0
 40
11.26716755074103
100
AcDbArc
 50
153.4349488229
 51
206.5650511771
  0
ARC
  5
B0
330
AC
100
AcDbEntity
  8
0
  6
Continuous
 62
     7
370
     0
100
AcDbCircle
 10
55.6368438426
 20
41.264450431
 30
0.0
 40
11.26716755074104
100
AcDbArc
 50
333.4349488229
 51
26.5650511771
  0
SOLID
  5
B1
330
AC
100
AcDbEntity
  8
0
  6
Continuous
 62
     7
370
     0
100
AcDbTrace
 10
68.6161853448
 20
41.264450431
 30
0.0
 11
71.9181853448
 21
40.756450431
 31
0.0
 12
71.9181853448
 22
41.772450431
 32
0.0
 13
71.9181853448
 23
41.772450431
 33
0.0
  0
SOLID
  5
B2
330
AC
100
AcDbEntity
  8
0
  6
Continuous
 62
     7
370
     0
100
AcDbTrace
 10
88.6161853448
 20
41.264450431
 30
0.0
 11
85.3141853448
 21
41.772450431
 31
0.0
 12
85.3141853448
 22
40.756450431
 32
0.0
 13
85.3141853448
 23
40.756450431
 33
0.0
  0
LINE
  5
B3
330
AC
100
AcDbEntity
  8
0
  6
Continuous
 62
     7
370
     0
100
AcDbLine
 10
54.3950410081
 20
45.9253686541
 30
0.0
 11
54.3950410081
 21
41.6423627194
 31
0.0
  0
LINE
  5
B4
330
AC
100
AcDbEntity
  8
0
  6
Continuous
 62
     7
370
     0
100
AcDbLine
 10
54.3950410081
 20
41.6423627194
 30
0.0
 11
55.0398786001
 21
41.6423627194
 31
0.0
  0
LINE
  5
B5
330
AC
100
AcDbEntity
  8
0
  6
Continuous
 62
     7
370
     0
100
AcDbLine
 10
54.3950410081
 20
45.9253686541
 30
0.0
 11
55.0398786001
 21
45.9253686541
 31
0.0
  0
LINE
  5
B6
330
AC
100
AcDbEntity
  8
0
  6
Continuous
 62
     7
370
     0
100
AcDbLine
 10
62.8373296815
 20
45.9253686541
 30
0.0
 11
62.8373296815
 21
41.6423627194
 31
0.0
  0
LINE
  5
B7
330
AC
100
AcDbEntity
  8
0
  6
Continuous
 62
     7
370
     0
100
AcDbLine
 10
62.8373296815
 20
41.6423627194
 30
0.0
 11
62.1924920895
 21
41.6423627194
 31
0.0
  0
LINE
  5
B8
330
AC
100
AcDbEntity
  8
0
  6
Continuous
 62
     7
370
     0
100
AcDbLine
 10
62.8373296815
 20
45.9253686541
 30
0.0
 11
62.1924920895
 21
45.9253686541
 31
0.0
  0
LINE
  5
B9
330
AC
100
AcDbEntity
  8
0
  6
Continuous
 62
     7
370
     0
100
AcDbLine
 10
68.6161853448
 20
60.994450431
 30
0.0
 11
68.6161853448
 21
38.089450431
 31
0.0
  0
LINE
  5
BA
330
AC
100
AcDbEntity
  8
0
  6
Continuous
 62
     7
370
     0
100
AcDbLine
 10
88.6161853448
 20
60.994450431
 30
0.0
 11
88.6161853448
 21
38.089450431
 31
0.0
  0
LINE
  5
BB
330
AC
100
AcDbEntity
  8
0
  6
Continuous
 62
     7
370
     0
100
AcDbLine
 10
88.6161853448
 20
41.264450431
 30
0.0
 11
68.6161853448
 21
41.264450431
 31
0.0
  0
MTEXT
  5
BC
330
AC
100
AcDbEntity
  8
0
  6
Continuous
 62
     7
370
     0
100
AcDbMText
 10
57.4442398457
 20
40.3184103426
 30
0.0
 40
3.175
 41
0.0
 71
     1
 72
     1
  1
4
  7
SLDTEXTSTYLE0
 73
     1
 44
1.0
  0
MTEXT
  5
BD
330
AC
100
AcDbEntity
  8
0
  6
Continuous
 62
     7
370
     0
100
AcDbMText
 10
55.6847161921
 20
45.3572408541
 30
0.0
 40
3.175
 41
0.0
 71
     1
 72
     1
  1
.16
  7
SLDTEXTSTYLE0
 73
     1
 44
1.0
  0
ENDBLK
  5
AE
330
AC
100
AcDbEntity
  8
0
100
AcDbBlockEnd
  0
BLOCK
  5
C0
330
BF
100
AcDbEntity
  8
0
100
AcDbBlockBegin
  2
*D6
 70
     1
 10
0.0
 20
0.0
 30
0.0
  3
*D6
  1

  0
ARC
  5
C2
330
BF
100
AcDbEntity
  8
0
  6
Continuous
 62
     7
370
     0
100
AcDbCircle
 10
92.3709190884
 20
23.264450431
 30
0.0
 40
11.26716755074102
100
AcDbArc
 50
153.4349488229
 51
206.5650511771
  0
ARC
  5
C3
330
BF
100
AcDbEntity
  8
0
  6
Continuous
 62
     7
370
     0
100
AcDbCircle
 10
86.412236084
 20
23.264450431
 30
0.0
 40
11.26716755074103
100
AcDbArc
 50
333.4349488229
 51
26.5650511771
  0
SOLID
  5
C4
330
BF
100
AcDbEntity
  8
0
  6
Continuous
 62
     7
370
     0
100
AcDbTrace
 10
68.6161853448
 20
23.264450431
 30
0.0
 11
71.9181853448
 21
22.756450431
 31
0.0
 12
71.9181853448
 22
23.772450431
 32
0.0
 13
71.9181853448
 23
23.772450431
 33
0.0
  0
SOLID
  5
C5
330
BF
100
AcDbEntity
  8
0
  6
Continuous
 62
     7
370
     0
100
AcDbTrace
 10
111.1161853448
 20
23.264450431
 30
0.0
 11
107.8141853448
 21
23.772450431
 31
0.0
 12
107.8141853448
 22
22.756450431
 32
0.0
 13
107.8141853448
 23
22.756450431
 33
0.0
  0
LINE
  5
C6
330
BF
100
AcDbEntity
  8
0
  6
Continuous
 62
     7
370
     0
100
AcDbLine
 10
85.1704332495
 20
27.9253686541
 30
0.0
 11
85.1704332495
 21
23.6423627194
 31
0.0
  0
LINE
  5
C7
330
BF
100
AcDbEntity
  8
0
  6
Continuous
 62
     7
370
     0
100
AcDbLine
 10
85.1704332495
 20
23.6423627194
 30
0.0
 11
85.8152708415
 21
23.6423627194
 31
0.0
  0
LINE
  5
C8
330
BF
100
AcDbEntity
  8
0
  6
Continuous
 62
     7
370
     0
100
AcDbLine
 10
85.1704332495
 20
27.9253686541
 30
0.0
 11
85.8152708415
 21
27.9253686541
 31
0.0
  0
LINE
  5
C9
330
BF
100
AcDbEntity
  8
0
  6
Continuous
 62
     7
370
     0
100
AcDbLine
 10
93.6127219229
 20
27.9253686541
 30
0.0
 11
93.6127219229
 21
23.6423627194
 31
0.0
  0
LINE
  5
CA
330
BF
100
AcDbEntity
  8
0
  6
Continuous
 62
     7
370
     0
100
AcDbLine
 10
93.6127219229
 20
23.6423627194
 30
0.0
 11
92.9678843309
 21
23.6423627194
 31
0.0
  0
LINE
  5
CB
330
BF
100
AcDbEntity
  8
0
  6
Continuous
 62
     7
370
     0
100
AcDbLine
 10
93.6127219229
 20
27.9253686541
 30
0.0
 11
92.9678843309
 21
27.9253686541
 31
0.0
  0
LINE
  5
CC
330
BF
100
AcDbEntity
  8
0
  6
Continuous
 62
     7
370
     0
100
AcDbLine
 10
68.6161853448
 20
60.994450431
 30
0.0
 11
68.6161853448
 21
20.089450431
 31
0.0
  0
LINE
  5
CD
330
BF
100
AcDbEntity
  8
0
  6
Continuous
 62
     7
370
     0
100
AcDbLine
 10
111.1161853448
 20
77.244450431
 30
0.0
 11
111.1161853448
 21
20.089450431
 31
0.0
  0
LINE
  5
CE
330
BF
100
AcDbEntity
  8
0
  6
Continuous
 62
     7
370
     0
100
AcDbLine
 10
68.6161853448
 20
23.264450431
 30
0.0
 11
76.839943323
 21
23.264450431
 31
0.0
  0
LINE
  5
CF
330
BF
100
AcDbEntity
  8
0
  6
Continuous
 62
     7
370
     0
100
AcDbLine
 10
111.1161853448
 20
23.264450431
 30
0.0
 11
101.9432118494
 21
23.264450431
 31
0.0
  0
MTEXT
  5
D0
330
BF
100
AcDbEntity
  8
0
  6
Continuous
 62
     7
370
     0
100
AcDbMText
 10
86.4601084335
 20
22.3184103426
 30
0.0
 40
3.175
 41
0.0
 71
     1
 72
     1
  1
8.5
  7
SLDTEXTSTYLE0
 73
     1
 44
1.0
  0
MTEXT
  5
D1
330
BF
100
AcDbEntity
  8
0
  6
Continuous
 62
     7
370
     0
100
AcDbMText
 10
86.4601084335
 20
27.3572408541
 30
0.0
 40
3.175
 41
0.0
 71
     1
 72
     1
  1
.33
  7
SLDTEXTSTYLE0
 73
     1
 44
1.0
  0
ENDBLK
  5
C1
330
BF
100
AcDbEntity
  8
0
100
AcDbBlockEnd
  0
BLOCK
  5
D4
330
D3
100
AcDbEntity
  8
0
100
AcDbBlockBegin
  2
*D7
 70
     1
 10
0.0
 20
0.0
 30
0.0
  3
*D7
  1

  0
ARC
  5
D6
330
D3
100
AcDbEntity
  8
0
  6
Continuous
 62
     7
370
     0
100
AcDbCircle
 10
92.3709190884
 20
94.6609827586
 30
0.0
 40
11.267167550741
100
AcDbArc
 50
153.4349488229
 51
206.5650511771
  0
ARC
  5
D7
330
D3
100
AcDbEntity
  8
0
  6
Continuous
 62
     7
370
     0
100
AcDbCircle
 10
86.412236084
 20
94.6609827586
 30
0.0
 40
11.26716755074101
100
AcDbArc
 50
333.4349488229
 51
26.5650511771
  0
SOLID
  5
D8
330
D3
100
AcDbEntity
  8
0
  6
Continuous
 62
     7
370
     0
100
AcDbTrace
 10
72.3661853448
 20
94.6609827586
 30
0.0
 11
75.6681853448
 21
94.1529827586
 31
0.0
 12
75.6681853448
 22
95.1689827586
 32
0.0
 13
75.6681853448
 23
95.1689827586
 33
0.0
  0
SOLID
  5
D9
330
D3
100
AcDbEntity
  8
0
  6
Continuous
 62
     7
370
     0
100
AcDbTrace
 10
107.3661853448
 20
94.6609827586
 30
0.0
 11
104.0641853448
 21
95.1689827586
 31
0.0
 12
104.0641853448
 22
94.1529827586
 32
0.0
 13
104.0641853448
 23
94.1529827586
 33
0.0
  0
LINE
  5
DA
330
D3
100
AcDbEntity
  8
0
  6
Continuous
 62
     7
370
     0
100
AcDbLine
 10
85.1704332495
 20
99.3219009817
 30
0.0
 11
85.1704332495
 21
95.038895047
 31
0.0
  0
LINE
  5
DB
330
D3
100
AcDbEntity
  8
0
  6
Continuous
 62
     7
370
     0
100
AcDbLine
 10
85.1704332495
 20
95.038895047
 30
0.0
 11
85.8152708415
 21
95.038895047
 31
0.0
  0
LINE
  5
DC
330
D3
100
AcDbEntity
  8
0
  6
Continuous
 62
     7
370
     0
100
AcDbLine
 10
85.1704332495
 20
99.3219009817
 30
0.0
 11
85.8152708415
 21
99.3219009817
 31
0.0
  0
LINE
  5
DD
330
D3
100
AcDbEntity
  8
0
  6
Continuous
 62
     7
370
     0
100
AcDbLine
 10
93.6127219229
 20
99.3219009817
 30
0.0
 11
93.6127219229
 21
95.038895047
 31
0.0
  0
LINE
  5
DE
330
D3
100
AcDbEntity
  8
0
  6
Continuous
 62
     7
370
     0
100
AcDbLine
 10
93.6127219229
 20
95.038895047
 30
0.0
 11
92.9678843309
 21
95.038895047
 31
0.0
  0
LINE
  5
DF
330
D3
100
AcDbEntity
  8
0
  6
Continuous
 62
     7
370
     0
100
AcDbLine
 10
93.6127219229
 20
99.3219009817
 30
0.0
 11
92.9678843309
 21
99.3219009817
 31
0.0
  0
LINE
  5
E0
330
D3
100
AcDbEntity
  8
0
  6
Continuous
 62
     7
370
     0
100
AcDbLine
 10
72.3661853448
 20
94.6609827586
 30
0.0
 11
76.839943323
 21
94.6609827586
 31
0.0
  0
LINE
  5
E1
330
D3
100
AcDbEntity
  8
0
  6
Continuous
 62
     7
370
     0
100
AcDbLine
 10
107.3661853448
 20
94.6609827586
 30
0.0
 11
101.9432118494
 21
94.6609827586
 31
0.0
  0
MTEXT
  5
E2
330
D3
100
AcDbEntity
  8
0
  6
Continuous
 62
     7
370
     0
100
AcDbMText
 10
88.219632087
 20
93.7149426702
 30
0.0
 40
3.175
 41
0.0
 71
     1
 72
     1
  1
7
  7
SLDTEXTSTYLE0
 73
     1
 44
1.0
  0
MTEXT
  5
E3
330
D3
100
AcDbEntity
  8
0
  6
Continuous
 62
     7
370
     0
100
AcDbMText
 10
86.4601084335
 20
98.7537731816
 30
0.0
 40
3.175
 41
0.0
 71
     1
 72
     1
  1
.28
  7
SLDTEXTSTYLE0
 73
     1
 44
1.0
  0
ENDBLK
  5
D5
330
D3
100
AcDbEntity
  8
0
100
AcDbBlockEnd
  0
BLOCK
  5
E7
330
E6
100
AcDbEntity
  8
0
100
AcDbBlockBegin
  2
*D8
 70
     1
 10
0.0
 20
0.0
 30
0.0
  3
*D8
  1

  0
SOLID
  5
E9
330
E6
100
AcDbEntity
  8
0
  6
Continuous
 62
     7
370
     0
100
AcDbTrace
 10
81.053499076
 20
65.5530535751
 30
0.0
 11
83.4639284826
 21
63.2398095163
 31
0.0
 12
84.0477738919
 22
64.0713024736
 32
0.0
 13
84.0477738919
 23
64.0713024736
 33
0.0
  0
LINE
  5
EA
330
E6
100
AcDbEntity
  8
0
  6
Continuous
 62
     7
370
     0
100
AcDbLine
 10
81.053499076
 20
65.5530535751
 30
0.0
 11
115.6445091904
 21
41.264450431
 31
0.0
  0
LINE
  5
EB
330
E6
100
AcDbEntity
  8
0
  6
Continuous
 62
     7
370
     0
100
AcDbLine
 10
115.6445091904
 20
41.264450431
 30
0.0
 11
121.9945091904
 21
41.264450431
 31
0.0
  0
MTEXT
  5
EC
330
E6
100
AcDbEntity
  8
0
  6
Continuous
 62
     7
370
     0
100
AcDbMText
 10
125.1695091904
 20
40.2937941358
 30
0.0
 40
3.175
 41
0.0
 71
     1
 72
     1
  1
0-80 UNF
  7
SLDTEXTSTYLE0
 73
     1
 44
1.0
  0
MTEXT
  5
ED
330
E6
100
AcDbEntity
  8
0
  6
Continuous
 62
     7
370
     0
100
AcDbMText
 10
144.1453938481
 20
40.2937941358
 30
0.0
 40
3.175
 41
0.0
 71
     1
 72
     1
  1
 
  7
SLDTEXTSTYLE0
 73
     1
 44
1.0
  0
MTEXT
  5
EF
330
E6
100
AcDbEntity
  8
0
  6
Continuous
 62
     7
370
     0
100
AcDbMText
 10
145.3162690774
 20
40.2937941358
 30
0.0
 40
3.175
 41
0.0
 71
     1
 72
     1
  1
- 1B
  7
SLDTEXTSTYLE2
 73
     1
 44
1.0
  0
MTEXT
  5
F0
330
E6
100
AcDbEntity
  8
0
  6
Continuous
 62
     7
370
     0
100
AcDbMText
 10
153.2576714552
 20
40.2937941358
 30
0.0
 40
3.175
 41
0.0
 71
     1
 72
     1
  1
 
  7
SLDTEXTSTYLE0
 73
     1
 44
1.0
  0
MTEXT
  5
F1
330
E6
100
AcDbEntity
  8
0
  6
Continuous
 62
     7
370
     0
100
AcDbMText
 10
154.4285466845
 20
40.2937941358
 30
0.0
 40
3.175
 41
0.0
 71
     1
 72
     1
  1
THRU ALL
  7
SLDTEXTSTYLE0
 73
     1
 44
1.0
  0
MTEXT
  5
F2
330
E6
100
AcDbEntity
  8
0
  6
Continuous
 62
     7
370
     0
100
AcDbMText
 10
125.7624386941
 20
45.3326242398
 30
0.0
 40
3.175
 41
0.0
 71
     1
 72
     1
  1
%%c
  7
SLDTEXTSTYLE0
 73
     1
 44
1.0
  0
MTEXT
  5
F3
330
E6
100
AcDbEntity
  8
0
  6
Continuous
 62
     7
370
     0
100
AcDbMText
 10
130.5507354569
 20
45.3811311865
 30
0.0
 40
3.175
 41
0.0
 71
     1
 72
     1
  1
 
  7
SLDTEXTSTYLE0
 73
     1
 44
1.0
  0
MTEXT
  5
F4
330
E6
100
AcDbEntity
  8
0
  6
Continuous
 62
     7
370
     0
100
AcDbMText
 10
131.7217012871
 20
45.3326246472
 30
0.0
 40
3.175
 41
0.0
 71
     1
 72
     1
  1
1.19[0.05]
  7
SLDTEXTSTYLE0
 73
     1
 44
1.0
  0
MTEXT
  5
F5
330
E6
100
AcDbEntity
  8
0
  6
Continuous
 62
     7
370
     0
100
AcDbMText
 10
152.6647419516
 20
45.3326246472
 30
0.0
 40
3.175
 41
0.0
 71
     1
 72
     1
  1
 
  7
SLDTEXTSTYLE0
 73
     1
 44
1.0
  0
MTEXT
  5
F6
330
E6
100
AcDbEntity
  8
0
  6
Continuous
 62
     7
370
     0
100
AcDbMText
 10
153.8356171809
 20
45.3326246472
 30
0.0
 40
3.175
 41
0.0
 71
     1
 72
     1
  1
THRU ALL
  7
SLDTEXTSTYLE0
 73
     1
 44
1.0
  0
ENDBLK
  5
E8
330
E6
100
AcDbEntity
  8
0
100
AcDbBlockEnd
  0
BLOCK
  5
F9
330
F8
100
AcDbEntity
  8
0
100
AcDbBlockBegin
  2
*D9
 70
     1
 10
0.0
 20
0.0
 30
0.0
  3
*D9
  1

  0
ARC
  5
FB
330
F8
100
AcDbEntity
  8
0
  6
Continuous
 62
     7
370
     0
100
AcDbCircle
 10
133.0575255315
 20
70.6399483578
 30
0.0
 40
11.26716755074104
100
AcDbArc
 50
153.4349488229
 51
206.5650511771
  0
ARC
  5
FC
330
F8
100
AcDbEntity
  8
0
  6
Continuous
 62
     7
370
     0
100
AcDbCircle
 10
127.098842527
 20
70.6399483578
 30
0.0
 40
11.267167550741
100
AcDbArc
 50
333.4349488229
 51
26.5650511771
  0
SOLID
  5
FD
330
F8
100
AcDbEntity
  8
0
  6
Continuous
 62
     7
370
     0
100
AcDbTrace
 10
109.1161853448
 20
70.6399483578
 30
0.0
 11
112.4181853448
 21
70.1319483578
 31
0.0
 12
112.4181853448
 22
71.1479483578
 32
0.0
 13
112.4181853448
 23
71.1479483578
 33
0.0
  0
SOLID
  5
FE
330
F8
100
AcDbEntity
  8
0
  6
Continuous
 62
     7
370
     0
100
AcDbTrace
 10
111.1161853448
 20
70.6399483578
 30
0.0
 11
107.8141853448
 21
71.1479483578
 31
0.0
 12
107.8141853448
 22
70.1319483578
 32
0.0
 13
107.8141853448
 23
70.1319483578
 33
0.0
  0
LINE
  5
FF
330
F8
100
AcDbEntity
  8
0
  6
Continuous
 62
     7
370
     0
100
AcDbLine
 10
125.8570396925
 20
75.3008665809
 30
0.0
 11
125.8570396925
 21
71.0178606462
 31
0.0
  0
LINE
  5
100
330
F8
100
AcDbEntity
  8
0
  6
Continuous
 62
     7
370
     0
100
AcDbLine
 10
125.8570396925
 20
71.0178606462
 30
0.0
 11
126.5018772845
 21
71.0178606462
 31
0.0
  0
LINE
  5
101
330
F8
100
AcDbEntity
  8
0
  6
Continuous
 62
     7
370
     0
100
AcDbLine
 10
125.8570396925
 20
75.3008665809
 30
0.0
 11
126.5018772845
 21
75.3008665809
 31
0.0
  0
LINE
  5
102
330
F8
100
AcDbEntity
  8
0
  6
Continuous
 62
     7
370
     0
100
AcDbLine
 10
134.299328366
 20
75.3008665809
 30
0.0
 11
134.299328366
 21
71.0178606462
 31
0.0
  0
LINE
  5
103
330
F8
100
AcDbEntity
  8
0
  6
Continuous
 62
     7
370
     0
100
AcDbLine
 10
134.299328366
 20
71.0178606462
 30
0.0
 11
133.654490774
 21
71.0178606462
 31
0.0
  0
LINE
  5
104
330
F8
100
AcDbEntity
  8
0
  6
Continuous
 62
     7
370
     0
100
AcDbLine
 10
134.299328366
 20
75.3008665809
 30
0.0
 11
133.654490774
 21
75.3008665809
 31
0.0
  0
LINE
  5
105
330
F8
100
AcDbEntity
  8
0
  6
Continuous
 62
     7
370
     0
100
AcDbLine
 10
109.1161853448
 20
79.244450431
 30
0.0
 11
109.1161853448
 21
67.4649483578
 31
0.0
  0
LINE
  5
106
330
F8
100
AcDbEntity
  8
0
  6
Continuous
 62
     7
370
     0
100
AcDbLine
 10
111.1161853448
 20
77.244450431
 30
0.0
 11
111.1161853448
 21
67.4649483578
 31
0.0
  0
LINE
  5
107
330
F8
100
AcDbEntity
  8
0
  6
Continuous
 62
     7
370
     0
100
AcDbLine
 10
109.1161853448
 20
70.6399483578
 30
0.0
 11
111.1161853448
 21
70.6399483578
 31
0.0
  0
LINE
  5
108
330
F8
100
AcDbEntity
  8
0
  6
Continuous
 62
     7
370
     0
100
AcDbLine
 10
111.1161853448
 20
70.6399483578
 30
0.0
 11
117.5265497661
 21
70.6399483578
 31
0.0
  0
MTEXT
  5
109
330
F8
100
AcDbEntity
  8
0
  6
Continuous
 62
     7
370
     0
100
AcDbMText
 10
127.1467148765
 20
69.6939082694
 30
0.0
 40
3.175
 41
0.0
 71
     1
 72
     1
  1
0.4
  7
SLDTEXTSTYLE0
 73
     1
 44
1.0
  0
MTEXT
  5
10A
330
F8
100
AcDbEntity
  8
0
  6
Continuous
 62
     7
370
     0
100
AcDbMText
 10
127.1467148765
 20
74.7327387808
 30
0.0
 40
3.175
 41
0.0
 71
     1
 72
     1
  1
.02
  7
SLDTEXTSTYLE0
 73
     1
 44
1.0
  0
ENDBLK
  5
FA
330
F8
100
AcDbEntity
  8
0
100
AcDbBlockEnd
  0
BLOCK
  5
10D
330
10C
100
AcDbEntity
  8
0
100
AcDbBlockBegin
  2
*D10
 70
     1
 10
0.0
 20
0.0
 30
0.0
  3
*D10
  1

  0
ARC
  5
10F
330
10C
100
AcDbEntity
  8
0
  6
Continuous
 62
     7
370
     0
100
AcDbCircle
 10
55.595526847
 20
119.2566147752
 30
0.0
 40
11.26716755074102
100
AcDbArc
 50
153.4349488229
 51
206.5650511771
  0
ARC
  5
110
330
10C
100
AcDbEntity
  8
0
  6
Continuous
 62
     7
370
     0
100
AcDbCircle
 10
49.6368438426
 20
119.2566147752
 30
0.0
 40
11.26716755074103
100
AcDbArc
 50
333.4349488229
 51
26.5650511771
  0
SOLID
  5
111
330
10C
100
AcDbEntity
  8
0
  6
Continuous
 62
     7
370
     0
100
AcDbTrace
 10
70.6161853448
 20
119.2566147752
 30
0.0
 11
73.9181853448
 21
118.7486147752
 31
0.0
 12
73.9181853448
 22
119.7646147752
 32
0.0
 13
73.9181853448
 23
119.7646147752
 33
0.0
  0
SOLID
  5
112
330
10C
100
AcDbEntity
  8
0
  6
Continuous
 62
     7
370
     0
100
AcDbTrace
 10
72.3661853448
 20
119.2566147752
 30
0.0
 11
69.0641853448
 21
119.7646147752
 31
0.0
 12
69.0641853448
 22
118.7486147752
 32
0.0
 13
69.0641853448
 23
118.7486147752
 33
0.0
  0
LINE
  5
113
330
10C
100
AcDbEntity
  8
0
  6
Continuous
 62
     7
370
     0
100
AcDbLine
 10
48.3950410081
 20
123.9175329983
 30
0.0
 11
48.3950410081
 21
119.6345270635
 31
0.0
  0
LINE
  5
114
330
10C
100
AcDbEntity
  8
0
  6
Continuous
 62
     7
370
     0
100
AcDbLine
 10
48.3950410081
 20
119.6345270635
 30
0.0
 11
49.0398786001
 21
119.6345270635
 31
0.0
  0
LINE
  5
115
330
10C
100
AcDbEntity
  8
0
  6
Continuous
 62
     7
370
     0
100
AcDbLine
 10
48.3950410081
 20
123.9175329983
 30
0.0
 11
49.0398786001
 21
123.9175329983
 31
0.0
  0
LINE
  5
116
330
10C
100
AcDbEntity
  8
0
  6
Continuous
 62
     7
370
     0
100
AcDbLine
 10
56.8373296815
 20
123.9175329983
 30
0.0
 11
56.8373296815
 21
119.6345270635
 31
0.0
  0
LINE
  5
117
330
10C
100
AcDbEntity
  8
0
  6
Continuous
 62
     7
370
     0
100
AcDbLine
 10
56.8373296815
 20
119.6345270635
 30
0.0
 11
56.1924920895
 21
119.6345270635
 31
0.0
  0
LINE
  5
118
330
10C
100
AcDbEntity
  8
0
  6
Continuous
 62
     7
370
     0
100
AcDbLine
 10
56.8373296815
 20
123.9175329983
 30
0.0
 11
56.1924920895
 21
123.9175329983
 31
0.0
  0
LINE
  5
119
330
10C
100
AcDbEntity
  8
0
  6
Continuous
 62
     7
370
     0
100
AcDbLine
 10
70.6161853448
 20
110.284450431
 30
0.0
 11
70.6161853448
 21
122.4316147752
 31
0.0
  0
LINE
  5
11A
330
10C
100
AcDbEntity
  8
0
  6
Continuous
 62
     7
370
     0
100
AcDbLine
 10
72.3661853448
 20
108.534450431
 30
0.0
 11
72.3661853448
 21
122.4316147752
 31
0.0
  0
LINE
  5
11B
330
10C
100
AcDbEntity
  8
0
  6
Continuous
 62
     7
370
     0
100
AcDbLine
 10
70.6161853448
 20
119.2566147752
 30
0.0
 11
65.167819608
 21
119.2566147752
 31
0.0
  0
LINE
  5
11C
330
10C
100
AcDbEntity
  8
0
  6
Continuous
 62
     7
370
     0
100
AcDbLine
 10
72.3661853448
 20
119.2566147752
 30
0.0
 11
70.6161853448
 21
119.2566147752
 31
0.0
  0
MTEXT
  5
11D
330
10C
100
AcDbEntity
  8
0
  6
Continuous
 62
     7
370
     0
100
AcDbMText
 10
48.5117004231
 20
118.3105746867
 30
0.0
 40
3.175
 41
0.0
 71
     1
 72
     1
  1
0.35
  7
SLDTEXTSTYLE0
 73
     1
 44
1.0
  0
MTEXT
  5
11E
330
10C
100
AcDbEntity
  8
0
  6
Continuous
 62
     7
370
     0
100
AcDbMText
 10
49.6847161921
 20
123.3494051982
 30
0.0
 40
3.175
 41
0.0
 71
     1
 72
     1
  1
.01
  7
SLDTEXTSTYLE0
 73
     1
 44
1.0
  0
ENDBLK
  5
10E
330
10C
100
AcDbEntity
  8
0
100
AcDbBlockEnd
  0
BLOCK
  5
120
330
11F
100
AcDbEntity
  8
0
100
AcDbBlockBegin
  2
SW_CENTERMARKSYMBOL_0
 70
     0
 10
0.0
 20
0.0
 30
0.0
  3
SW_CENTERMARKSYMBOL_0
  1

  0
LINE
  5
122
330
11F
100
AcDbEntity
  8
0
  6
Continuous
 62
     0
370
     0
100
AcDbLine
 10
0.0
 20
0.0
 30
0.0
 11
0.0
 21
12.7
 31
0.0
  0
LINE
  5
123
330
11F
100
AcDbEntity
  8
0
  6
Continuous
 62
     0
370
     0
100
AcDbLine
 10
0.0
 20
0.0
 30
0.0
 11
-12.7
 21
0.0
 31
0.0
  0
LINE
  5
124
330
11F
100
AcDbEntity
  8
0
  6
Continuous
 62
     0
370
     0
100
AcDbLine
 10
0.0
 20
0.0
 30
0.0
 11
0.0
 21
-12.7
 31
0.0
  0
LINE
  5
125
330
11F
100
AcDbEntity
  8
0
  6
Continuous
 62
     0
370
     0
100
AcDbLine
 10
0.0
 20
0.0
 30
0.0
 11
12.7
 21
0.0
 31
0.0
  0
LINE
  5
126
330
11F
100
AcDbEntity
  8
0
  6
Continuous
 62
     0
370
     0
100
AcDbLine
 10
0.0
 20
12.7
 30
0.0
 11
0.0
 21
15.67815
 31
0.0
  0
LINE
  5
127
330
11F
100
AcDbEntity
  8
0
  6
Continuous
 62
     0
370
     0
100
AcDbLine
 10
-12.7
 20
0.0
 30
0.0
 11
-15.67815
 21
0.0
 31
0.0
  0
LINE
  5
128
330
11F
100
AcDbEntity
  8
0
  6
Continuous
 62
     0
370
     0
100
AcDbLine
 10
0.0
 20
-12.7
 30
0.0
 11
0.0
 21
-15.67815
 31
0.0
  0
LINE
  5
129
330
11F
100
AcDbEntity
  8
0
  6
Continuous
 62
     0
370
     0
100
AcDbLine
 10
12.7
 20
0.0
 30
0.0
 11
15.67815
 21
0.0
 31
0.0
  0
ENDBLK
  5
121
330
11F
100
AcDbEntity
  8
0
100
AcDbBlockEnd
  0
BLOCK
  5
154
330
153
100
AcDbEntity
  8
0
100
AcDbBlockBegin
  2
*D12
 70
     1
 10
0.0
 20
0.0
 30
0.0
  3
*D12
  1

  0
ARC
  5
156
330
153
100
AcDbEntity
  8
0
  6
Continuous
 62
     7
370
     0
100
AcDbCircle
 10
172.8098932264
 20
93.9490711207
 30
0.0
 40
11.26716755074106
100
AcDbArc
 50
153.4349488229
 51
206.5650511771
  0
ARC
  5
157
330
153
100
AcDbEntity
  8
0
  6
Continuous
 62
     7
370
     0
100
AcDbCircle
 10
166.8512102219
 20
93.9490711207
 30
0.0
 40
11.26716755074106
100
AcDbArc
 50
333.4349488229
 51
26.5650511771
  0
SOLID
  5
158
330
153
100
AcDbEntity
  8
0
  6
Continuous
 62
     7
370
     0
100
AcDbTrace
 10
169.8305517241
 20
112.264450431
 30
0.0
 11
169.3225517241
 21
108.962450431
 31
0.0
 12
170.3385517241
 22
108.962450431
 32
0.0
 13
170.3385517241
 23
108.962450431
 33
0.0
  0
SOLID
  5
159
330
153
100
AcDbEntity
  8
0
  6
Continuous
 62
     7
370
     0
100
AcDbTrace
 10
169.8305517241
 20
77.264450431
 30
0.0
 11
170.3385517241
 21
80.566450431
 31
0.0
 12
169.3225517241
 22
80.566450431
 32
0.0
 13
169.3225517241
 23
80.566450431
 33
0.0
  0
LINE
  5
15A
330
153
100
AcDbEntity
  8
0
  6
Continuous
 62
     7
370
     0
100
AcDbLine
 10
165.6094073874
 20
98.6099893438
 30
0.0
 11
165.6094073874
 21
94.326983409
 31
0.0
  0
LINE
  5
15B
330
153
100
AcDbEntity
  8
0
  6
Continuous
 62
     7
370
     0
100
AcDbLine
 10
165.6094073874
 20
94.326983409
 30
0.0
 11
166.2542449794
 21
94.326983409
 31
0.0
  0
LINE
  5
15C
330
153
100
AcDbEntity
  8
0
  6
Continuous
 62
     7
370
     0
100
AcDbLine
 10
165.6094073874
 20
98.6099893438
 30
0.0
 11
166.2542449794
 21
98.6099893438
 31
0.0
  0
LINE
  5
15D
330
153
100
AcDbEntity
  8
0
  6
Continuous
 62
     7
370
     0
100
AcDbLine
 10
174.0516960608
 20
98.6099893438
 30
0.0
 11
174.0516960608
 21
94.326983409
 31
0.0
  0
LINE
  5
15E
330
153
100
AcDbEntity
  8
0
  6
Continuous
 62
     7
370
     0
100
AcDbLine
 10
174.0516960608
 20
94.326983409
 30
0.0
 11
173.4068584688
 21
94.326983409
 31
0.0
  0
LINE
  5
15F
330
153
100
AcDbEntity
  8
0
  6
Continuous
 62
     7
370
     0
100
AcDbLine
 10
174.0516960608
 20
98.6099893438
 30
0.0
 11
173.4068584688
 21
98.6099893438
 31
0.0
  0
LINE
  5
160
330
153
100
AcDbEntity
  8
0
  6
Continuous
 62
     7
370
     0
100
AcDbLine
 10
184.5608017241
 20
112.264450431
 30
0.0
 11
166.6555517241
 21
112.264450431
 31
0.0
  0
LINE
  5
161
330
153
100
AcDbEntity
  8
0
  6
Continuous
 62
     7
370
     0
100
AcDbLine
 10
184.5608017241
 20
77.264450431
 30
0.0
 11
166.6555517241
 21
77.264450431
 31
0.0
  0
LINE
  5
162
330
153
100
AcDbEntity
  8
0
  6
Continuous
 62
     7
370
     0
100
AcDbLine
 10
169.8305517241
 20
112.264450431
 30
0.0
 11
169.8305517241
 21
98.9879016322
 31
0.0
  0
LINE
  5
163
330
153
100
AcDbEntity
  8
0
  6
Continuous
 62
     7
370
     0
100
AcDbLine
 10
169.8305517241
 20
77.264450431
 30
0.0
 11
169.8305517241
 21
88.9102406092
 31
0.0
  0
MTEXT
  5
164
330
153
100
AcDbEntity
  8
0
  6
Continuous
 62
     7
370
     0
100
AcDbMText
 10
168.658606225
 20
93.0030310322
 30
0.0
 40
3.175
 41
0.0
 71
     1
 72
     1
  1
7
  7
SLDTEXTSTYLE0
 73
     1
 44
1.0
  0
MTEXT
  5
165
330
153
100
AcDbEntity
  8
0
  6
Continuous
 62
     7
370
     0
100
AcDbMText
 10
166.8990825714
 20
98.0418615437
 30
0.0
 40
3.175
 41
0.0
 71
     1
 72
     1
  1
.28
  7
SLDTEXTSTYLE0
 73
     1
 44
1.0
  0
ENDBLK
  5
155
330
153
100
AcDbEntity
  8
0
100
AcDbBlockEnd
  0
BLOCK
  5
168
330
167
100
AcDbEntity
  8
0
100
AcDbBlockBegin
  2
*D13
 70
     1
 10
0.0
 20
0.0
 30
0.0
  3
*D13
  1

  0
ARC
  5
16A
330
167
100
AcDbEntity
  8
0
  6
Continuous
 62
     7
370
     0
100
AcDbCircle
 10
154.8098932264
 20
93.9490711207
 30
0.0
 40
11.26716755074101
100
AcDbArc
 50
153.4349488229
 51
206.5650511771
  0
ARC
  5
16B
330
167
100
AcDbEntity
  8
0
  6
Continuous
 62
     7
370
     0
100
AcDbCircle
 10
148.8512102219
 20
93.9490711207
 30
0.0
 40
11.26716755074106
100
AcDbArc
 50
333.4349488229
 51
26.5650511771
  0
SOLID
  5
16C
330
167
100
AcDbEntity
  8
0
  6
Continuous
 62
     7
370
     0
100
AcDbTrace
 10
151.8305517241
 20
116.014450431
 30
0.0
 11
151.3225517241
 21
112.712450431
 31
0.0
 12
152.3385517241
 22
112.712450431
 32
0.0
 13
152.3385517241
 23
112.712450431
 33
0.0
  0
SOLID
  5
16D
330
167
100
AcDbEntity
  8
0
  6
Continuous
 62
     7
370
     0
100
AcDbTrace
 10
151.8305517241
 20
57.264450431
 30
0.0
 11
152.3385517241
 21
60.566450431
 31
0.0
 12
151.3225517241
 22
60.566450431
 32
0.0
 13
151.3225517241
 23
60.566450431
 33
0.0
  0
LINE
  5
16E
330
167
100
AcDbEntity
  8
0
  6
Continuous
 62
     7
370
     0
100
AcDbLine
 10
147.6094073874
 20
98.6099893438
 30
0.0
 11
147.6094073874
 21
94.326983409
 31
0.0
  0
LINE
  5
16F
330
167
100
AcDbEntity
  8
0
  6
Continuous
 62
     7
370
     0
100
AcDbLine
 10
147.6094073874
 20
94.326983409
 30
0.0
 11
148.2542449794
 21
94.326983409
 31
0.0
  0
LINE
  5
170
330
167
100
AcDbEntity
  8
0
  6
Continuous
 62
     7
370
     0
100
AcDbLine
 10
147.6094073874
 20
98.6099893438
 30
0.0
 11
148.2542449794
 21
98.6099893438
 31
0.0
  0
LINE
  5
171
330
167
100
AcDbEntity
  8
0
  6
Continuous
 62
     7
370
     0
100
AcDbLine
 10
156.0516960608
 20
98.6099893438
 30
0.0
 11
156.0516960608
 21
94.326983409
 31
0.0
  0
LINE
  5
172
330
167
100
AcDbEntity
  8
0
  6
Continuous
 62
     7
370
     0
100
AcDbLine
 10
156.0516960608
 20
94.326983409
 30
0.0
 11
155.4068584688
 21
94.326983409
 31
0.0
  0
LINE
  5
173
330
167
100
AcDbEntity
  8
0
  6
Continuous
 62
     7
370
     0
100
AcDbLine
 10
156.0516960608
 20
98.6099893438
 30
0.0
 11
155.4068584688
 21
98.6099893438
 31
0.0
  0
LINE
  5
174
330
167
100
AcDbEntity
  8
0
  6
Continuous
 62
     7
370
     0
100
AcDbLine
 10
184.5608017241
 20
116.014450431
 30
0.0
 11
148.6555517241
 21
116.014450431
 31
0.0
  0
LINE
  5
175
330
167
100
AcDbEntity
  8
0
  6
Continuous
 62
     7
370
     0
100
AcDbLine
 10
184.5608017241
 20
57.264450431
 30
0.0
 11
148.6555517241
 21
57.264450431
 31
0.0
  0
LINE
  5
176
330
167
100
AcDbEntity
  8
0
  6
Continuous
 62
     7
370
     0
100
AcDbLine
 10
151.8305517241
 20
116.014450431
 30
0.0
 11
151.8305517241
 21
98.9879016322
 31
0.0
  0
LINE
  5
177
330
167
100
AcDbEntity
  8
0
  6
Continuous
 62
     7
370
     0
100
AcDbLine
 10
151.8305517241
 20
57.264450431
 30
0.0
 11
151.8305517241
 21
88.9102406092
 31
0.0
  0
MTEXT
  5
178
330
167
100
AcDbEntity
  8
0
  6
Continuous
 62
     7
370
     0
100
AcDbMText
 10
146.5530510334
 20
93.0030310322
 30
0.0
 40
3.175
 41
0.0
 71
     1
 72
     1
  1
11.75
  7
SLDTEXTSTYLE0
 73
     1
 44
1.0
  0
MTEXT
  5
179
330
167
100
AcDbEntity
  8
0
  6
Continuous
 62
     7
370
     0
100
AcDbMText
 10
148.8990825714
 20
98.0418615437
 30
0.0
 40
3.175
 41
0.0
 71
     1
 72
     1
  1
.46
  7
SLDTEXTSTYLE0
 73
     1
 44
1.0
  0
ENDBLK
  5
169
330
167
100
AcDbEntity
  8
0
100
AcDbBlockEnd
  0
BLOCK
  5
17C
330
17B
100
AcDbEntity
  8
0
100
AcDbBlockBegin
  2
*D14
 70
     1
 10
0.0
 20
0.0
 30
0.0
  3
*D14
  1

  0
ARC
  5
17E
330
17B
100
AcDbEntity
  8
0
  6
Continuous
 62
     7
370
     0
100
AcDbCircle
 10
172.8098932264
 20
145.514575431
 30
0.0
 40
11.26716755074107
100
AcDbArc
 50
153.4349488229
 51
206.5650511771
  0
ARC
  5
17F
330
17B
100
AcDbEntity
  8
0
  6
Continuous
 62
     7
370
     0
100
AcDbCircle
 10
166.8512102219
 20
145.514575431
 30
0.0
 40
11.26716755074107
100
AcDbArc
 50
333.4349488229
 51
26.5650511771
  0
SOLID
  5
180
330
17B
100
AcDbEntity
  8
0
  6
Continuous
 62
     7
370
     0
100
AcDbTrace
 10
185.8308017241
 20
145.514575431
 30
0.0
 11
189.1328017241
 21
145.006575431
 31
0.0
 12
189.1328017241
 22
146.022575431
 32
0.0
 13
189.1328017241
 23
146.022575431
 33
0.0
  0
SOLID
  5
181
330
17B
100
AcDbEntity
  8
0
  6
Continuous
 62
     7
370
     0
100
AcDbTrace
 10
190.8308017241
 20
145.514575431
 30
0.0
 11
187.5288017241
 21
146.022575431
 31
0.0
 12
187.5288017241
 22
145.006575431
 32
0.0
 13
187.5288017241
 23
145.006575431
 33
0.0
  0
LINE
  5
182
330
17B
100
AcDbEntity
  8
0
  6
Continuous
 62
     7
370
     0
100
AcDbLine
 10
165.6094073874
 20
150.1754936541
 30
0.0
 11
165.6094073874
 21
145.8924877194
 31
0.0
  0
LINE
  5
183
330
17B
100
AcDbEntity
  8
0
  6
Continuous
 62
     7
370
     0
100
AcDbLine
 10
165.6094073874
 20
145.8924877194
 30
0.0
 11
166.2542449794
 21
145.8924877194
 31
0.0
  0
LINE
  5
184
330
17B
100
AcDbEntity
  8
0
  6
Continuous
 62
     7
370
     0
100
AcDbLine
 10
165.6094073874
 20
150.1754936541
 30
0.0
 11
166.2542449794
 21
150.1754936541
 31
0.0
  0
LINE
  5
185
330
17B
100
AcDbEntity
  8
0
  6
Continuous
 62
     7
370
     0
100
AcDbLine
 10
174.0516960608
 20
150.1754936541
 30
0.0
 11
174.0516960608
 21
145.8924877194
 31
0.0
  0
LINE
  5
186
330
17B
100
AcDbEntity
  8
0
  6
Continuous
 62
     7
370
     0
100
AcDbLine
 10
174.0516960608
 20
145.8924877194
 30
0.0
 11
173.4068584688
 21
145.8924877194
 31
0.0
  0
LINE
  5
187
330
17B
100
AcDbEntity
  8
0
  6
Continuous
 62
     7
370
     0
100
AcDbLine
 10
174.0516960608
 20
150.1754936541
 30
0.0
 11
173.4068584688
 21
150.1754936541
 31
0.0
  0
LINE
  5
188
330
17B
100
AcDbEntity
  8
0
  6
Continuous
 62
     7
370
     0
100
AcDbLine
 10
185.8308017241
 20
124.784450431
 30
0.0
 11
185.8308017241
 21
148.689575431
 31
0.0
  0
LINE
  5
189
330
17B
100
AcDbEntity
  8
0
  6
Continuous
 62
     7
370
     0
100
AcDbLine
 10
190.8308017241
 20
124.784450431
 30
0.0
 11
190.8308017241
 21
148.689575431
 31
0.0
  0
LINE
  5
18A
330
17B
100
AcDbEntity
  8
0
  6
Continuous
 62
     7
370
     0
100
AcDbLine
 10
185.8308017241
 20
145.514575431
 30
0.0
 11
182.3821859873
 21
145.514575431
 31
0.0
  0
LINE
  5
18B
330
17B
100
AcDbEntity
  8
0
  6
Continuous
 62
     7
370
     0
100
AcDbLine
 10
190.8308017241
 20
145.514575431
 30
0.0
 11
185.8308017241
 21
145.514575431
 31
0.0
  0
MTEXT
  5
18C
330
17B
100
AcDbEntity
  8
0
  6
Continuous
 62
     7
370
     0
100
AcDbMText
 10
168.658606225
 20
144.5685353426
 30
0.0
 40
3.175
 41
0.0
 71
     1
 72
     1
  1
1
  7
SLDTEXTSTYLE0
 73
     1
 44
1.0
  0
MTEXT
  5
18D
330
17B
100
AcDbEntity
  8
0
  6
Continuous
 62
     7
370
     0
100
AcDbMText
 10
166.8990825714
 20
149.6073658541
 30
0.0
 40
3.175
 41
0.0
 71
     1
 72
     1
  1
.04
  7
SLDTEXTSTYLE0
 73
     1
 44
1.0
  0
ENDBLK
  5
17D
330
17B
100
AcDbEntity
  8
0
100
AcDbBlockEnd
  0
BLOCK
  5
190
330
18F
100
AcDbEntity
  8
0
100
AcDbBlockBegin
  2
*D15
 70
     1
 10
0.0
 20
0.0
 30
0.0
  3
*D15
  1

  0
ARC
  5
192
330
18F
100
AcDbEntity
  8
0
  6
Continuous
 62
     7
370
     0
100
AcDbCircle
 10
212.6600767752
 20
157.514575431
 30
0.0
 40
11.267167550741
100
AcDbArc
 50
153.4349488229
 51
206.5650511771
  0
ARC
  5
193
330
18F
100
AcDbEntity
  8
0
  6
Continuous
 62
     7
370
     0
100
AcDbCircle
 10
206.7013937708
 20
157.514575431
 30
0.0
 40
11.26716755074105
100
AcDbArc
 50
333.4349488229
 51
26.5650511771
  0
SOLID
  5
194
330
18F
100
AcDbEntity
  8
0
  6
Continuous
 62
     7
370
     0
100
AcDbTrace
 10
198.3308017241
 20
157.514575431
 30
0.0
 11
195.0288017241
 21
158.022575431
 31
0.0
 12
195.0288017241
 22
157.006575431
 32
0.0
 13
195.0288017241
 23
157.006575431
 33
0.0
  0
SOLID
  5
195
330
18F
100
AcDbEntity
  8
0
  6
Continuous
 62
     7
370
     0
100
AcDbTrace
 10
185.8308017241
 20
157.514575431
 30
0.0
 11
189.1328017241
 21
157.006575431
 31
0.0
 12
189.1328017241
 22
158.022575431
 32
0.0
 13
189.1328017241
 23
158.022575431
 33
0.0
  0
LINE
  5
196
330
18F
100
AcDbEntity
  8
0
  6
Continuous
 62
     7
370
     0
100
AcDbLine
 10
205.4595909363
 20
162.1754936541
 30
0.0
 11
205.4595909363
 21
157.8924877194
 31
0.0
  0
LINE
  5
197
330
18F
100
AcDbEntity
  8
0
  6
Continuous
 62
     7
370
     0
100
AcDbLine
 10
205.4595909363
 20
157.8924877194
 30
0.0
 11
206.1044285283
 21
157.8924877194
 31
0.0
  0
LINE
  5
198
330
18F
100
AcDbEntity
  8
0
  6
Continuous
 62
     7
370
     0
100
AcDbLine
 10
205.4595909363
 20
162.1754936541
 30
0.0
 11
206.1044285283
 21
162.1754936541
 31
0.0
  0
LINE
  5
199
330
18F
100
AcDbEntity
  8
0
  6
Continuous
 62
     7
370
     0
100
AcDbLine
 10
213.9018796097
 20
162.1754936541
 30
0.0
 11
213.9018796097
 21
157.8924877194
 31
0.0
  0
LINE
  5
19A
330
18F
100
AcDbEntity
  8
0
  6
Continuous
 62
     7
370
     0
100
AcDbLine
 10
213.9018796097
 20
157.8924877194
 30
0.0
 11
213.2570420177
 21
157.8924877194
 31
0.0
  0
LINE
  5
19B
330
18F
100
AcDbEntity
  8
0
  6
Continuous
 62
     7
370
     0
100
AcDbLine
 10
213.9018796097
 20
162.1754936541
 30
0.0
 11
213.2570420177
 21
162.1754936541
 31
0.0
  0
LINE
  5
19C
330
18F
100
AcDbEntity
  8
0
  6
Continuous
 62
     7
370
     0
100
AcDbLine
 10
198.3308017241
 20
117.284450431
 30
0.0
 11
198.3308017241
 21
160.689575431
 31
0.0
  0
LINE
  5
19D
330
18F
100
AcDbEntity
  8
0
  6
Continuous
 62
     7
370
     0
100
AcDbLine
 10
185.8308017241
 20
117.284450431
 30
0.0
 11
185.8308017241
 21
160.689575431
 31
0.0
  0
LINE
  5
19E
330
18F
100
AcDbEntity
  8
0
  6
Continuous
 62
     7
370
     0
100
AcDbLine
 10
185.8308017241
 20
157.514575431
 30
0.0
 11
198.3308017241
 21
157.514575431
 31
0.0
  0
MTEXT
  5
19F
330
18F
100
AcDbEntity
  8
0
  6
Continuous
 62
     7
370
     0
100
AcDbMText
 10
206.7492661203
 20
156.5685353426
 30
0.0
 40
3.175
 41
0.0
 71
     1
 72
     1
  1
2.5
  7
SLDTEXTSTYLE0
 73
     1
 44
1.0
  0
MTEXT
  5
1A0
330
18F
100
AcDbEntity
  8
0
  6
Continuous
 62
     7
370
     0
100
AcDbMText
 10
206.7492661203
 20
161.6073658541
 30
0.0
 40
3.175
 41
0.0
 71
     1
 72
     1
  1
.10
  7
SLDTEXTSTYLE0
 73
     1
 44
1.0
  0
ENDBLK
  5
191
330
18F
100
AcDbEntity
  8
0
100
AcDbBlockEnd
  0
BLOCK
  5
1A3
330
1A2
100
AcDbEntity
  8
0
100
AcDbBlockBegin
  2
*D16
 70
     1
 10
0.0
 20
0.0
 30
0.0
  3
*D16
  1

  0
ARC
  5
1A5
330
1A2
100
AcDbEntity
  8
0
  6
Continuous
 62
     7
370
     0
100
AcDbCircle
 10
221.4670774283
 20
128.2275405638
 30
0.0
 40
11.26716755074104
100
AcDbArc
 50
153.4349488229
 51
206.5650511771
  0
ARC
  5
1A6
330
1A2
100
AcDbEntity
  8
0
  6
Continuous
 62
     7
370
     0
100
AcDbCircle
 10
215.5083944238
 20
128.2275405638
 30
0.0
 40
11.26716755074104
100
AcDbArc
 50
333.4349488229
 51
26.5650511771
  0
SOLID
  5
1A7
330
1A2
100
AcDbEntity
  8
0
  6
Continuous
 62
     7
370
     0
100
AcDbTrace
 10
200.8308017241
 20
128.2275405638
 30
0.0
 11
197.5288017241
 21
128.7355405638
 31
0.0
 12
197.5288017241
 22
127.7195405638
 32
0.0
 13
197.5288017241
 23
127.7195405638
 33
0.0
  0
SOLID
  5
1A8
330
1A2
100
AcDbEntity
  8
0
  6
Continuous
 62
     7
370
     0
100
AcDbTrace
 10
198.3308017241
 20
128.2275405638
 30
0.0
 11
201.6328017241
 21
127.7195405638
 31
0.0
 12
201.6328017241
 22
128.7355405638
 32
0.0
 13
201.6328017241
 23
128.7355405638
 33
0.0
  0
LINE
  5
1A9
330
1A2
100
AcDbEntity
  8
0
  6
Continuous
 62
     7
370
     0
100
AcDbLine
 10
214.2665915893
 20
132.888458787
 30
0.0
 11
214.2665915893
 21
128.6054528522
 31
0.0
  0
LINE
  5
1AA
330
1A2
100
AcDbEntity
  8
0
  6
Continuous
 62
     7
370
     0
100
AcDbLine
 10
214.2665915893
 20
128.6054528522
 30
0.0
 11
214.9114291813
 21
128.6054528522
 31
0.0
  0
LINE
  5
1AB
330
1A2
100
AcDbEntity
  8
0
  6
Continuous
 62
     7
370
     0
100
AcDbLine
 10
214.2665915893
 20
132.888458787
 30
0.0
 11
214.9114291813
 21
132.888458787
 31
0.0
  0
LINE
  5
1AC
330
1A2
100
AcDbEntity
  8
0
  6
Continuous
 62
     7
370
     0
100
AcDbLine
 10
222.7088802628
 20
132.888458787
 30
0.0
 11
222.7088802628
 21
128.6054528522
 31
0.0
  0
LINE
  5
1AD
330
1A2
100
AcDbEntity
  8
0
  6
Continuous
 62
     7
370
     0
100
AcDbLine
 10
222.7088802628
 20
128.6054528522
 30
0.0
 11
222.0640426708
 21
128.6054528522
 31
0.0
  0
LINE
  5
1AE
330
1A2
100
AcDbEntity
  8
0
  6
Continuous
 62
     7
370
     0
100
AcDbLine
 10
222.7088802628
 20
132.888458787
 30
0.0
 11
222.0640426708
 21
132.888458787
 31
0.0
  0
LINE
  5
1AF
330
1A2
100
AcDbEntity
  8
0
  6
Continuous
 62
     7
370
     0
100
AcDbLine
 10
200.8308017241
 20
115.284450431
 30
0.0
 11
200.8308017241
 21
131.4025405638
 31
0.0
  0
LINE
  5
1B0
330
1A2
100
AcDbEntity
  8
0
  6
Continuous
 62
     7
370
     0
100
AcDbLine
 10
198.3308017241
 20
115.284450431
 30
0.0
 11
198.3308017241
 21
131.4025405638
 31
0.0
  0
LINE
  5
1B1
330
1A2
100
AcDbEntity
  8
0
  6
Continuous
 62
     7
370
     0
100
AcDbLine
 10
200.8308017241
 20
128.2275405638
 30
0.0
 11
205.9361016629
 21
128.2275405638
 31
0.0
  0
LINE
  5
1B2
330
1A2
100
AcDbEntity
  8
0
  6
Continuous
 62
     7
370
     0
100
AcDbLine
 10
198.3308017241
 20
128.2275405638
 30
0.0
 11
200.8308017241
 21
128.2275405638
 31
0.0
  0
MTEXT
  5
1B3
330
1A2
100
AcDbEntity
  8
0
  6
Continuous
 62
     7
370
     0
100
AcDbMText
 10
215.5562667734
 20
127.2815004754
 30
0.0
 40
3.175
 41
0.0
 71
     1
 72
     1
  1
0.5
  7
SLDTEXTSTYLE0
 73
     1
 44
1.0
  0
MTEXT
  5
1B4
330
1A2
100
AcDbEntity
  8
0
  6
Continuous
 62
     7
370
     0
100
AcDbMText
 10
215.5562667734
 20
132.3203309869
 30
0.0
 40
3.175
 41
0.0
 71
     1
 72
     1
  1
.02
  7
SLDTEXTSTYLE0
 73
     1
 44
1.0
  0
ENDBLK
  5
1A4
330
1A2
100
AcDbEntity
  8
0
100
AcDbBlockEnd
  0
BLOCK
  5
1B7
330
1B6
100
AcDbEntity
  8
0
100
AcDbBlockBegin
  2
*D17
 70
     1
 10
0.0
 20
0.0
 30
0.0
  3
*D17
  1

  0
ARC
  5
1B9
330
1B6
100
AcDbEntity
  8
0
  6
Continuous
 62
     7
370
     0
100
AcDbCircle
 10
221.4670774283
 20
93.9490711207
 30
0.0
 40
11.26716755074103
100
AcDbArc
 50
153.4349488229
 51
206.5650511771
  0
ARC
  5
1BA
330
1B6
100
AcDbEntity
  8
0
  6
Continuous
 62
     7
370
     0
100
AcDbCircle
 10
215.5083944238
 20
93.9490711207
 30
0.0
 40
11.26716755074098
100
AcDbArc
 50
333.4349488229
 51
26.5650511771
  0
SOLID
  5
1BB
330
1B6
100
AcDbEntity
  8
0
  6
Continuous
 62
     7
370
     0
100
AcDbTrace
 10
218.4877359261
 20
114.014450431
 30
0.0
 11
217.9797359261
 21
110.712450431
 31
0.0
 12
218.9957359261
 22
110.712450431
 32
0.0
 13
218.9957359261
 23
110.712450431
 33
0.0
  0
SOLID
  5
1BC
330
1B6
100
AcDbEntity
  8
0
  6
Continuous
 62
     7
370
     0
100
AcDbTrace
 10
218.4877359261
 20
75.514450431
 30
0.0
 11
218.9957359261
 21
78.816450431
 31
0.0
 12
217.9797359261
 22
78.816450431
 32
0.0
 13
217.9797359261
 23
78.816450431
 33
0.0
  0
LINE
  5
1BD
330
1B6
100
AcDbEntity
  8
0
  6
Continuous
 62
     7
370
     0
100
AcDbLine
 10
214.2665915893
 20
98.6099893438
 30
0.0
 11
214.2665915893
 21
94.326983409
 31
0.0
  0
LINE
  5
1BE
330
1B6
100
AcDbEntity
  8
0
  6
Continuous
 62
     7
370
     0
100
AcDbLine
 10
214.2665915893
 20
94.326983409
 30
0.0
 11
214.9114291813
 21
94.326983409
 31
0.0
  0
LINE
  5
1BF
330
1B6
100
AcDbEntity
  8
0
  6
Continuous
 62
     7
370
     0
100
AcDbLine
 10
214.2665915893
 20
98.6099893438
 30
0.0
 11
214.9114291813
 21
98.6099893438
 31
0.0
  0
LINE
  5
1C0
330
1B6
100
AcDbEntity
  8
0
  6
Continuous
 62
     7
370
     0
100
AcDbLine
 10
222.7088802628
 20
98.6099893438
 30
0.0
 11
222.7088802628
 21
94.326983409
 31
0.0
  0
LINE
  5
1C1
330
1B6
100
AcDbEntity
  8
0
  6
Continuous
 62
     7
370
     0
100
AcDbLine
 10
222.7088802628
 20
94.326983409
 30
0.0
 11
222.0640426708
 21
94.326983409
 31
0.0
  0
LINE
  5
1C2
330
1B6
100
AcDbEntity
  8
0
  6
Continuous
 62
     7
370
     0
100
AcDbLine
 10
222.7088802628
 20
98.6099893438
 30
0.0
 11
222.0640426708
 21
98.6099893438
 31
0.0
  0
LINE
  5
1C3
330
1B6
100
AcDbEntity
  8
0
  6
Continuous
 62
     7
370
     0
100
AcDbLine
 10
202.1008017241
 20
114.014450431
 30
0.0
 11
221.6627359261
 21
114.014450431
 31
0.0
  0
LINE
  5
1C4
330
1B6
100
AcDbEntity
  8
0
  6
Continuous
 62
     7
370
     0
100
AcDbLine
 10
202.1008017241
 20
75.514450431
 30
0.0
 11
221.6627359261
 21
75.514450431
 31
0.0
  0
LINE
  5
1C5
330
1B6
100
AcDbEntity
  8
0
  6
Continuous
 62
     7
370
     0
100
AcDbLine
 10
218.4877359261
 20
114.014450431
 30
0.0
 11
218.4877359261
 21
98.9879016322
 31
0.0
  0
LINE
  5
1C6
330
1B6
100
AcDbEntity
  8
0
  6
Continuous
 62
     7
370
     0
100
AcDbLine
 10
218.4877359261
 20
75.514450431
 30
0.0
 11
218.4877359261
 21
88.9102406092
 31
0.0
  0
MTEXT
  5
1C7
330
1B6
100
AcDbEntity
  8
0
  6
Continuous
 62
     7
370
     0
100
AcDbMText
 10
215.5562667734
 20
93.0030310322
 30
0.0
 40
3.175
 41
0.0
 71
     1
 72
     1
  1
7.7
  7
SLDTEXTSTYLE0
 73
     1
 44
1.0
  0
MTEXT
  5
1C8
330
1B6
100
AcDbEntity
  8
0
  6
Continuous
 62
     7
370
     0
100
AcDbMText
 10
215.5562667734
 20
98.0418615437
 30
0.0
 40
3.175
 41
0.0
 71
     1
 72
     1
  1
.30
  7
SLDTEXTSTYLE0
 73
     1
 44
1.0
  0
ENDBLK
  5
1B8
330
1B6
100
AcDbEntity
  8
0
100
AcDbBlockEnd
  0
ENDSEC
  0
SECTION
  2
ENTITIES
  0
INSERT
  5
4C
330
1F
100
AcDbEntity
  8
0
  6
Continuous
 62
     7
370
     0
100
AcDbBlockReference
  2
SW_NOTE_0
 10
23.4210991379
 20
195.5723360508
 30
0.0
  0
ARC
  5
4D
330
1F
100
AcDbEntity
  8
0
  6
Continuous
 62
     7
370
    15
100
AcDbCircle
 10
75.6161853448
 20
109.014450431
 30
0.0
 40
5.0
100
AcDbArc
 50
90.0
 51
180.0
  0
ARC
  5
4E
330
1F
100
AcDbEntity
  8
0
  6
Continuous
 62
     7
370
    15
100
AcDbCircle
 10
104.1161853448
 20
109.014450431
 30
0.0
 40
5.0
100
AcDbArc
 50
0.0
 51
90.0
  0
LINE
  5
4F
330
1F
100
AcDbEntity
  8
0
  6
Continuous
 62
     7
370
    15
100
AcDbLine
 10
109.1161853448
 20
80.514450431
 30
0.0
 11
109.1161853448
 21
109.014450431
 31
0.0
  0
ARC
  5
50
330
1F
100
AcDbEntity
  8
0
  6
Continuous
 62
     7
370
    15
100
AcDbCircle
 10
104.1161853448
 20
80.514450431
 30
0.0
 40
5.0
100
AcDbArc
 50
270.0
 51
0.0
  0
LINE
  5
51
330
1F
100
AcDbEntity
  8
0
  6
Continuous
 62
     7
370
    15
100
AcDbLine
 10
75.6161853448
 20
75.514450431
 30
0.0
 11
104.1161853448
 21
75.514450431
 31
0.0
  0
ARC
  5
52
330
1F
100
AcDbEntity
  8
0
  6
Continuous
 62
     7
370
    15
100
AcDbCircle
 10
75.6161853448
 20
80.514450431
 30
0.0
 40
5.0
100
AcDbArc
 50
180.0
 51
270.0
  0
LINE
  5
53
330
1F
100
AcDbEntity
  8
0
  6
Continuous
 62
     7
370
    15
100
AcDbLine
 10
70.6161853448
 20
109.014450431
 30
0.0
 11
70.6161853448
 21
80.514450431
 31
0.0
  0
ARC
  5
54
330
1F
100
AcDbEntity
  8
0
  6
Continuous
 62
     7
370
    15
100
AcDbCircle
 10
102.3661853448
 20
107.264450431
 30
0.0
 40
5.0
100
AcDbArc
 50
0.0
 51
90.0
  0
LINE
  5
55
330
1F
100
AcDbEntity
  8
0
  6
Continuous
 62
     7
370
    15
100
AcDbLine
 10
102.3661853448
 20
112.264450431
 30
0.0
 11
77.3661853448
 21
112.264450431
 31
0.0
  0
ARC
  5
56
330
1F
100
AcDbEntity
  8
0
  6
Continuous
 62
     7
370
    15
100
AcDbCircle
 10
77.3661853448
 20
107.264450431
 30
0.0
 40
5.0
100
AcDbArc
 50
90.0
 51
180.0
  0
LINE
  5
57
330
1F
100
AcDbEntity
  8
0
  6
Continuous
 62
     7
370
    15
100
AcDbLine
 10
72.3661853448
 20
107.264450431
 30
0.0
 11
72.3661853448
 21
82.264450431
 31
0.0
  0
ARC
  5
58
330
1F
100
AcDbEntity
  8
0
  6
Continuous
 62
     7
370
    15
100
AcDbCircle
 10
77.3661853448
 20
82.264450431
 30
0.0
 40
5.0
100
AcDbArc
 50
180.0
 51
270.0
  0
LINE
  5
59
330
1F
100
AcDbEntity
  8
0
  6
Continuous
 62
     7
370
    15
100
AcDbLine
 10
77.3661853448
 20
77.264450431
 30
0.0
 11
102.3661853448
 21
77.264450431
 31
0.0
  0
ARC
  5
5A
330
1F
100
AcDbEntity
  8
0
  6
Continuous
 62
     7
370
    15
100
AcDbCircle
 10
102.3661853448
 20
82.264450431
 30
0.0
 40
5.0
100
AcDbArc
 50
270.0
 51
0.0
  0
LINE
  5
5B
330
1F
100
AcDbEntity
  8
0
  6
Continuous
 62
     7
370
    15
100
AcDbLine
 10
107.3661853448
 20
82.264450431
 30
0.0
 11
107.3661853448
 21
107.264450431
 31
0.0
  0
LINE
  5
5C
330
1F
100
AcDbEntity
  8
0
  6
Continuous
 62
     7
370
    15
100
AcDbLine
 10
104.1161853448
 20
114.014450431
 30
0.0
 11
75.6161853448
 21
114.014450431
 31
0.0
  0
ARC
  5
5D
330
1F
100
AcDbEntity
  8
0
  6
Continuous
 62
     7
370
    15
100
AcDbCircle
 10
73.6161853448
 20
111.014450431
 30
0.0
 40
5.0
100
AcDbArc
 50
90.0
 51
180.0
  0
LINE
  5
5E
330
1F
100
AcDbEntity
  8
0
  6
Continuous
 62
     7
370
    15
100
AcDbLine
 10
106.1161853448
 20
116.014450431
 30
0.0
 11
73.6161853448
 21
116.014450431
 31
0.0
  0
ARC
  5
5F
330
1F
100
AcDbEntity
  8
0
  6
Continuous
 62
     7
370
    15
100
AcDbCircle
 10
106.1161853448
 20
111.014450431
 30
0.0
 40
5.0
100
AcDbArc
 50
0.0
 51
90.0
  0
LINE
  5
60
330
1F
100
AcDbEntity
  8
0
  6
Continuous
 62
     7
370
    15
100
AcDbLine
 10
111.1161853448
 20
78.514450431
 30
0.0
 11
111.1161853448
 21
111.014450431
 31
0.0
  0
ARC
  5
61
330
1F
100
AcDbEntity
  8
0
  6
Continuous
 62
     7
370
    15
100
AcDbCircle
 10
106.1161853448
 20
78.514450431
 30
0.0
 40
5.0
100
AcDbArc
 50
270.0
 51
0.0
  0
LINE
  5
62
330
1F
100
AcDbEntity
  8
0
  6
Continuous
 62
     7
370
    15
100
AcDbLine
 10
93.6161853448
 20
73.514450431
 30
0.0
 11
106.1161853448
 21
73.514450431
 31
0.0
  0
ARC
  5
63
330
1F
100
AcDbEntity
  8
0
  6
Continuous
 62
     7
370
    15
100
AcDbCircle
 10
93.6161853448
 20
68.514450431
 30
0.0
 40
5.0
100
AcDbArc
 50
90.0
 51
180.0
  0
LINE
  5
64
330
1F
100
AcDbEntity
  8
0
  6
Continuous
 62
     7
370
    15
100
AcDbLine
 10
88.6161853448
 20
62.264450431
 30
0.0
 11
88.6161853448
 21
68.514450431
 31
0.0
  0
ARC
  5
65
330
1F
100
AcDbEntity
  8
0
  6
Continuous
 62
     7
370
    15
100
AcDbCircle
 10
83.6161853448
 20
62.264450431
 30
0.0
 40
5.0
100
AcDbArc
 50
270.0
 51
0.0
  0
LINE
  5
66
330
1F
100
AcDbEntity
  8
0
  6
Continuous
 62
     7
370
    15
100
AcDbLine
 10
83.6161853448
 20
57.264450431
 30
0.0
 11
73.6161853448
 21
57.264450431
 31
0.0
  0
ARC
  5
67
330
1F
100
AcDbEntity
  8
0
  6
Continuous
 62
     7
370
    15
100
AcDbCircle
 10
73.6161853448
 20
62.264450431
 30
0.0
 40
5.0
100
AcDbArc
 50
180.0
 51
270.0
  0
LINE
  5
68
330
1F
100
AcDbEntity
  8
0
  6
Continuous
 62
     7
370
    15
100
AcDbLine
 10
68.6161853448
 20
111.014450431
 30
0.0
 11
68.6161853448
 21
62.264450431
 31
0.0
  0
CIRCLE
  5
69
330
1F
100
AcDbEntity
  8
0
  6
Continuous
 62
     7
370
    15
100
AcDbCircle
 10
78.6161853448
 20
67.264450431
 30
0.0
 40
2.978149999999943
  0
LINE
  5
6A
330
1F
100
AcDbEntity
  8
0
  6
Continuous
 62
     7
370
    15
100
AcDbLine
 10
87.0142001467
 20
123.514450431
 30
0.0
 11
97.0142001467
 21
123.514450431
 31
0.0
  0
LINE
  5
6B
330
1F
100
AcDbEntity
  8
0
  6
Continuous
 62
     7
370
    15
100
AcDbLine
 10
87.0142001467
 20
123.514450431
 30
0.0
 11
87.0142001467
 21
116.014450431
 31
0.0
  0
LINE
  5
6C
330
1F
100
AcDbEntity
  8
0
  6
Continuous
 62
     7
370
    15
100
AcDbLine
 10
97.0142001467
 20
123.514450431
 30
0.0
 11
97.0142001467
 21
116.014450431
 31
0.0
  0
DIMENSION
  5
6D
330
1F
100
AcDbEntity
  8
0
  6
Continuous
 62
     7
370
     0
100
AcDbDimension
  2
*D2
 10
97.0142001467
 20
139.514575431
 30
0.0
 11
73.2549137931
 21
139.514575431
 31
0.0
 70
   160
  1
(<>)
 71
     2
 42
-1.0
  3
SLDDIMSTYLE0
100
AcDbAlignedDimension
 13
87.0142001467
 23
123.514450431
 33
0.0
 14
97.0142001467
 24
123.514450431
 34
0.0
100
AcDbRotatedDimension
  0
DIMENSION
  5
82
330
1F
100
AcDbEntity
  8
0
  6
Continuous
 62
     7
370
     0
100
AcDbDimension
  2
*D3
 10
110.5116228448
 20
116.014450431
 30
0.0
 11
110.5116228448
 21
135.7145538793
 31
0.0
 70
   160
  1
(<>)
 71
     2
 42
-1.0
  3
SLDDIMSTYLE0
100
AcDbAlignedDimension
 13
97.0142001467
 23
123.514450431
 33
0.0
 14
97.0142001467
 24
116.014450431
 34
0.0
 50
90.0
100
AcDbRotatedDimension
  0
DIMENSION
  5
97
330
1F
100
AcDbEntity
  8
0
  6
Continuous
 62
     7
370
     0
100
AcDbDimension
  2
*D4
 10
46.6161853448
 20
77.264450431
 30
0.0
 11
46.6161853448
 21
67.8456443966
 31
0.0
 70
   160
  1
(<>)
 71
     2
 42
-1.0
  3
SLDDIMSTYLE0
100
AcDbAlignedDimension
 13
73.6161853448
 23
57.264450431
 33
0.0
 14
77.3661853448
 24
77.264450431
 34
0.0
 50
90.0
100
AcDbRotatedDimension
  0
DIMENSION
  5
AB
330
1F
100
AcDbEntity
  8
0
  6
Continuous
 62
     7
370
     0
100
AcDbDimension
  2
*D5
 10
88.6161853448
 20
41.264450431
 30
0.0
 11
58.6161853448
 21
41.264450431
 31
0.0
 70
   160
  1
(<>)
 71
     2
 42
-1.0
  3
SLDDIMSTYLE0
100
AcDbAlignedDimension
 13
68.6161853448
 23
62.264450431
 33
0.0
 14
88.6161853448
 24
62.264450431
 34
0.0
 50
0.0
100
AcDbRotatedDimension
  0
DIMENSION
  5
BE
330
1F
100
AcDbEntity
  8
0
  6
Continuous
 62
     7
370
     0
100
AcDbDimension
  2
*D6
 10
111.1161853448
 20
23.264450431
 30
0.0
 11
89.3915775862
 21
23.264450431
 31
0.0
 70
   160
  1
(<>)
 71
     2
 42
-1.0
  3
SLDDIMSTYLE0
100
AcDbAlignedDimension
 13
68.6161853448
 23
62.264450431
 33
0.0
 14
111.1161853448
 24
78.514450431
 34
0.0
 50
0.0
100
AcDbRotatedDimension
  0
DIMENSION
  5
D2
330
1F
100
AcDbEntity
  8
0
  6
Continuous
 62
     7
370
     0
100
AcDbDimension
  2
*D7
 10
107.3661853448
 20
94.6609827586
 30
0.0
 11
89.3915775862
 21
94.6609827586
 31
0.0
 70
   160
  1
(<>)
 71
     2
 42
-1.0
  3
SLDDIMSTYLE0
100
AcDbAlignedDimension
 13
72.3661853448
 23
82.264450431
 33
0.0
 14
107.3661853448
 24
82.264450431
 34
0.0
100
AcDbRotatedDimension
  0
DIMENSION
  5
E4
330
1F
100
AcDbEntity
  8
0
  6
Continuous
 62
     7
370
     0
100
AcDbDimension
  2
*D8
 10
76.1840275247
 20
68.9722269857
 30
0.0
 11
146.3445086207
 21
41.264450431
 31
0.0
 70
   163
  1
<> THRU ALL\P0-80 UNF - 1B THRU ALL\P
 71
     1
 42
-1.0
  3
SLDDIMSTYLE1
100
AcDbDiametricDimension
 15
81.053499076
 25
65.5530535751
 35
0.0
 40
0.0
  0
DIMENSION
  5
F7
330
1F
100
AcDbEntity
  8
0
  6
Continuous
 62
     7
370
     0
100
AcDbDimension
  2
*D9
 10
111.1161853448
 20
70.6399483578
 30
0.0
 11
130.0781840292
 21
70.6399483578
 31
0.0
 70
   160
  1
(<>)
 71
     2
 42
-1.0
  3
SLDDIMSTYLE0
100
AcDbAlignedDimension
 13
109.1161853448
 23
80.514450431
 33
0.0
 14
111.1161853448
 24
78.514450431
 34
0.0
100
AcDbRotatedDimension
  0
DIMENSION
  5
10B
330
1F
100
AcDbEntity
  8
0
  6
Continuous
 62
     7
370
     0
100
AcDbDimension
  2
*D10
 10
72.3661853448
 20
119.2566147752
 30
0.0
 11
52.6161853448
 21
119.2566147752
 31
0.0
 70
   160
  1
(<>)
 71
     2
 42
-1.0
  3
SLDDIMSTYLE0
100
AcDbAlignedDimension
 13
70.6161853448
 23
109.014450431
 33
0.0
 14
72.3661853448
 24
107.264450431
 34
0.0
100
AcDbRotatedDimension
  0
INSERT
  5
12A
330
1F
100
AcDbEntity
  8
0
  6
Continuous
 62
     7
370
     0
100
AcDbBlockReference
  2
SW_CENTERMARKSYMBOL_0
 10
78.6161853448
 20
67.264450431
 30
0.0
  0
LINE
  5
12B
330
1F
100
AcDbEntity
  8
0
  6
HIDDEN
 62
     7
370
     0
100
AcDbLine
 10
78.6161853448
 20
49.810549569
 30
0.0
 11
78.6161853448
 21
127.6462219828
 31
0.0
  0
LINE
  5
12C
330
1F
100
AcDbEntity
  8
0
  6
Continuous
 62
     7
370
     0
100
AcDbLine
 10
78.6161853448
 20
49.810549569
 30
0.0
 11
91.3161853448
 21
49.810549569
 31
0.0
  0
SOLID
  5
12D
330
1F
100
AcDbEntity
  8
0
  6
Continuous
 62
     7
370
     0
100
AcDbTrace
 10
91.3161853448
 20
49.810549569
 30
0.0
 11
84.9661853448
 21
50.826549569
 31
0.0
 12
84.9661853448
 22
48.794549569
 32
0.0
 13
84.9661853448
 23
48.794549569
 33
0.0
  0
LINE
  5
12E
330
1F
100
AcDbEntity
  8
0
  6
Continuous
 62
     7
370
     0
100
AcDbLine
 10
78.6161853448
 20
127.6462219828
 30
0.0
 11
91.3161853448
 21
127.6462219828
 31
0.0
  0
SOLID
  5
12F
330
1F
100
AcDbEntity
  8
0
  6
Continuous
 62
     7
370
     0
100
AcDbTrace
 10
91.3161853448
 20
127.6462219828
 30
0.0
 11
84.9661853448
 21
128.6622219828
 31
0.0
 12
84.9661853448
 22
126.6302219828
 32
0.0
 13
84.9661853448
 23
126.6302219828
 33
0.0
  0
MTEXT
  5
130
330
1F
100
AcDbEntity
  8
0
  6
Continuous
 62
     7
100
AcDbMText
 10
92.6219145768
 20
52.3310350946
 30
0.0
 40
3.175
 41
0.0
 71
     1
 72
     1
  1
B
  7
SLDTEXTSTYLE0
 73
     1
 44
1.0
  0
MTEXT
  5
131
330
1F
100
AcDbEntity
  8
0
  6
Continuous
 62
     7
100
AcDbMText
 10
92.6219145768
 20
130.1667075084
 30
0.0
 40
3.175
 41
0.0
 71
     1
 72
     1
  1
B
  7
SLDTEXTSTYLE0
 73
     1
 44
1.0
  0
LINE
  5
132
330
1F
100
AcDbEntity
  8
0
  6
Continuous
 62
     7
370
    15
100
AcDbLine
 10
185.8308017241
 20
70.242600431
 30
0.0
 11
198.3308017241
 21
70.242600431
 31
0.0
  0
LINE
  5
133
330
1F
100
AcDbEntity
  8
0
  6
Continuous
 62
     7
370
    15
100
AcDbLine
 10
198.3308017241
 20
64.286300431
 30
0.0
 11
198.3308017241
 21
70.242600431
 31
0.0
  0
LINE
  5
134
330
1F
100
AcDbEntity
  8
0
  6
Continuous
 62
     7
370
    15
100
AcDbLine
 10
198.3308017241
 20
64.286300431
 30
0.0
 11
185.8308017241
 21
64.286300431
 31
0.0
  0
LINE
  5
135
330
1F
100
AcDbEntity
  8
0
  6
Continuous
 62
     7
370
    15
100
AcDbLine
 10
185.8308017241
 20
70.242600431
 30
0.0
 11
185.8308017241
 21
64.286300431
 31
0.0
  0
LINE
  5
136
330
1F
100
AcDbEntity
  8
0
  6
Continuous
 62
     7
370
    15
100
AcDbLine
 10
200.8308017241
 20
77.264450431
 30
0.0
 11
200.8308017241
 21
75.514450431
 31
0.0
  0
LINE
  5
137
330
1F
100
AcDbEntity
  8
0
  6
Continuous
 62
     7
370
    15
100
AcDbLine
 10
198.3308017241
 20
75.514450431
 30
0.0
 11
200.8308017241
 21
75.514450431
 31
0.0
  0
LINE
  5
138
330
1F
100
AcDbEntity
  8
0
  6
Continuous
 62
     7
370
    15
100
AcDbLine
 10
198.3308017241
 20
70.242600431
 30
0.0
 11
198.3308017241
 21
75.514450431
 31
0.0
  0
LINE
  5
139
330
1F
100
AcDbEntity
  8
0
  6
Continuous
 62
     7
370
    15
100
AcDbLine
 10
200.8308017241
 20
77.264450431
 30
0.0
 11
185.8308017241
 21
77.264450431
 31
0.0
  0
LINE
  5
13A
330
1F
100
AcDbEntity
  8
0
  6
Continuous
 62
     7
370
    15
100
AcDbLine
 10
185.8308017241
 20
70.242600431
 30
0.0
 11
185.8308017241
 21
77.264450431
 31
0.0
  0
LINE
  5
13B
330
1F
100
AcDbEntity
  8
0
  6
Continuous
 62
     7
370
    15
100
AcDbLine
 10
198.3308017241
 20
57.264450431
 30
0.0
 11
198.3308017241
 21
64.286300431
 31
0.0
  0
LINE
  5
13C
330
1F
100
AcDbEntity
  8
0
  6
Continuous
 62
     7
370
    15
100
AcDbLine
 10
198.3308017241
 20
57.264450431
 30
0.0
 11
185.8308017241
 21
57.264450431
 31
0.0
  0
LINE
  5
13D
330
1F
100
AcDbEntity
  8
0
  6
Continuous
 62
     7
370
    15
100
AcDbLine
 10
185.8308017241
 20
57.264450431
 30
0.0
 11
185.8308017241
 21
64.286300431
 31
0.0
  0
LINE
  5
13E
330
1F
100
AcDbEntity
  8
0
  6
Continuous
 62
     7
370
    15
100
AcDbLine
 10
200.8308017241
 20
114.014450431
 30
0.0
 11
198.3308017241
 21
114.014450431
 31
0.0
  0
LINE
  5
13F
330
1F
100
AcDbEntity
  8
0
  6
Continuous
 62
     7
370
    15
100
AcDbLine
 10
200.8308017241
 20
114.014450431
 30
0.0
 11
200.8308017241
 21
112.264450431
 31
0.0
  0
LINE
  5
140
330
1F
100
AcDbEntity
  8
0
  6
Continuous
 62
     7
370
    15
100
AcDbLine
 10
198.3308017241
 20
114.014450431
 30
0.0
 11
198.3308017241
 21
116.014450431
 31
0.0
  0
LINE
  5
141
330
1F
100
AcDbEntity
  8
0
  6
Continuous
 62
     7
370
    15
100
AcDbLine
 10
185.8308017241
 20
112.264450431
 30
0.0
 11
200.8308017241
 21
112.264450431
 31
0.0
  0
LINE
  5
142
330
1F
100
AcDbEntity
  8
0
  6
Continuous
 62
     7
370
    15
100
AcDbLine
 10
185.8308017241
 20
112.264450431
 30
0.0
 11
185.8308017241
 21
116.014450431
 31
0.0
  0
LINE
  5
143
330
1F
100
AcDbEntity
  8
0
  6
Continuous
 62
     7
370
    15
100
AcDbLine
 10
198.3308017241
 20
116.014450431
 30
0.0
 11
185.8308017241
 21
116.014450431
 31
0.0
  0
LINE
  5
144
330
1F
100
AcDbEntity
  8
0
  6
Continuous
 62
     7
370
    15
100
AcDbLine
 10
185.8308017241
 20
123.514450431
 30
0.0
 11
190.8308017241
 21
123.514450431
 31
0.0
  0
LINE
  5
145
330
1F
100
AcDbEntity
  8
0
  6
Continuous
 62
     7
370
    15
100
AcDbLine
 10
190.8308017241
 20
123.514450431
 30
0.0
 11
190.8308017241
 21
116.014450431
 31
0.0
  0
LINE
  5
146
330
1F
100
AcDbEntity
  8
0
  6
Continuous
 62
     7
370
    15
100
AcDbLine
 10
185.8308017241
 20
123.514450431
 30
0.0
 11
185.8308017241
 21
116.014450431
 31
0.0
  0
LINE
  5
147
330
1F
100
AcDbEntity
  8
0
  6
Continuous
 62
     7
370
    15
100
AcDbLine
 10
185.8308017241
 20
82.264450431
 30
0.0
 11
200.8308017241
 21
82.264450431
 31
0.0
  0
LINE
  5
148
330
1F
100
AcDbEntity
  8
0
  6
Continuous
 62
     7
370
    15
100
AcDbLine
 10
200.8308017241
 20
82.264450431
 30
0.0
 11
200.8308017241
 21
77.264450431
 31
0.0
  0
LINE
  5
149
330
1F
100
AcDbEntity
  8
0
  6
Continuous
 62
     7
370
    15
100
AcDbLine
 10
185.8308017241
 20
77.264450431
 30
0.0
 11
185.8308017241
 21
82.264450431
 31
0.0
  0
LINE
  5
14A
330
1F
100
AcDbEntity
  8
0
  6
Continuous
 62
     7
370
    15
100
AcDbLine
 10
200.8308017241
 20
107.264450431
 30
0.0
 11
185.8308017241
 21
107.264450431
 31
0.0
  0
LINE
  5
14B
330
1F
100
AcDbEntity
  8
0
  6
Continuous
 62
     7
370
    15
100
AcDbLine
 10
200.8308017241
 20
112.264450431
 30
0.0
 11
200.8308017241
 21
107.264450431
 31
0.0
  0
LINE
  5
14C
330
1F
100
AcDbEntity
  8
0
  6
Continuous
 62
     7
370
    15
100
AcDbLine
 10
185.8308017241
 20
107.264450431
 30
0.0
 11
185.8308017241
 21
112.264450431
 31
0.0
  0
LINE
  5
14D
330
1F
100
AcDbEntity
  8
0
  6
Continuous
 62
     7
370
    15
100
AcDbLine
 10
200.8308017241
 20
82.264450431
 30
0.0
 11
200.8308017241
 21
107.264450431
 31
0.0
  0
LINE
  5
14E
330
1F
100
AcDbEntity
  8
0
  6
Continuous
 62
     7
370
    15
100
AcDbLine
 10
185.8308017241
 20
107.264450431
 30
0.0
 11
185.8308017241
 21
82.264450431
 31
0.0
  0
HATCH
  5
14F
330
1F
100
AcDbEntity
  8
0
  6
Continuous
 62
     7
370
     0
100
AcDbHatch
 10
0.0
 20
0.0
 30
0.0
210
0.0
220
0.0
230
1.0
  2
ANSI31
 70
     0
 71
     0
 91
        1
 92
        0
 93
        6
 72
     1
 10
198.330801724138
 20
70.24260043103443
 11
198.330801724138
 21
75.51445043103446
 72
     1
 10
198.330801724138
 20
75.51445043103446
 11
200.830801724138
 21
75.51445043103446
 72
     1
 10
200.830801724138
 20
75.51445043103446
 11
200.830801724138
 21
77.26445043103446
 72
     1
 10
200.830801724138
 20
77.26445043103446
 11
185.830801724138
 21
77.26445043103446
 72
     1
 10
185.830801724138
 20
77.26445043103446
 11
185.830801724138
 21
70.24260043103443
 72
     1
 10
185.830801724138
 20
70.24260043103443
 11
198.330801724138
 21
70.24260043103443
 97
        0
 75
     0
 76
     1
 52
0.0
 41
1.0
 77
     0
 78
     1
 53
45.0
 43
0.0
 44
0.0
 45
-2.245064030267288
 46
2.245064030267288
 79
     0
 98
        1
 10
0.0
 20
0.0
  0
HATCH
  5
150
330
1F
100
AcDbEntity
  8
0
  6
Continuous
 62
     7
370
     0
100
AcDbHatch
 10
0.0
 20
0.0
 30
0.0
210
0.0
220
0.0
230
1.0
  2
ANSI31
 70
     0
 71
     0
 91
        1
 92
        0
 93
        4
 72
     1
 10
185.830801724138
 20
57.26445043103446
 11
198.330801724138
 21
57.26445043103446
 72
     1
 10
198.330801724138
 20
57.26445043103446
 11
198.330801724138
 21
64.28630043103452
 72
     1
 10
198.330801724138
 20
64.28630043103452
 11
185.830801724138
 21
64.28630043103449
 72
     1
 10
185.830801724138
 20
64.28630043103449
 11
185.830801724138
 21
57.26445043103446
 97
        0
 75
     0
 76
     1
 52
0.0
 41
1.0
 77
     0
 78
     1
 53
45.0
 43
0.0
 44
0.0
 45
-2.245064030267288
 46
2.245064030267288
 79
     0
 98
        1
 10
0.0
 20
0.0
  0
HATCH
  5
151
330
1F
100
AcDbEntity
  8
0
  6
Continuous
 62
     7
370
     0
100
AcDbHatch
 10
0.0
 20
0.0
 30
0.0
210
0.0
220
0.0
230
1.0
  2
ANSI31
 70
     0
 71
     0
 91
        1
 92
        0
 93
        6
 72
     1
 10
198.330801724138
 20
114.0144504310345
 11
198.330801724138
 21
116.0144504310345
 72
     1
 10
198.330801724138
 20
116.0144504310345
 11
185.830801724138
 21
116.0144504310345
 72
     1
 10
185.830801724138
 20
116.0144504310345
 11
185.830801724138
 21
112.2644504310345
 72
     1
 10
185.830801724138
 20
112.2644504310345
 11
200.830801724138
 21
112.2644504310345
 72
     1
 10
200.830801724138
 20
112.2644504310345
 11
200.830801724138
 21
114.0144504310345
 72
     1
 10
200.830801724138
 20
114.0144504310345
 11
198.330801724138
 21
114.0144504310345
 97
        0
 75
     0
 76
     1
 52
0.0
 41
1.0
 77
     0
 78
     1
 53
45.0
 43
0.0
 44
0.0
 45
-2.245064030267288
 46
2.245064030267288
 79
     0
 98
        1
 10
0.0
 20
0.0
  0
DIMENSION
  5
152
330
1F
100
AcDbEntity
  8
0
  6
Continuous
 62
     7
370
     0
100
AcDbDimension
  2
*D12
 10
169.8305517241
 20
77.264450431
 30
0.0
 11
169.8305517241
 21
93.9490711207
 31
0.0
 70
   160
  1
(<>)
 71
     2
 42
-1.0
  3
SLDDIMSTYLE0
100
AcDbAlignedDimension
 13
185.8308017241
 23
112.264450431
 33
0.0
 14
185.8308017241
 24
77.264450431
 34
0.0
 50
90.0
100
AcDbRotatedDimension
  0
DIMENSION
  5
166
330
1F
100
AcDbEntity
  8
0
  6
Continuous
 62
     7
370
     0
100
AcDbDimension
  2
*D13
 10
151.8305517241
 20
57.264450431
 30
0.0
 11
151.8305517241
 21
93.9490711207
 31
0.0
 70
   160
  1
(<>)
 71
     2
 42
-1.0
  3
SLDDIMSTYLE0
100
AcDbAlignedDimension
 13
185.8308017241
 23
116.014450431
 33
0.0
 14
185.8308017241
 24
57.264450431
 34
0.0
 50
90.0
100
AcDbRotatedDimension
  0
DIMENSION
  5
17A
330
1F
100
AcDbEntity
  8
0
  6
Continuous
 62
     7
370
     0
100
AcDbDimension
  2
*D14
 10
190.8308017241
 20
145.514575431
 30
0.0
 11
169.8305517241
 21
145.514575431
 31
0.0
 70
   160
  1
(<>)
 71
     2
 42
-1.0
  3
SLDDIMSTYLE0
100
AcDbAlignedDimension
 13
185.8308017241
 23
123.514450431
 33
0.0
 14
190.8308017241
 24
123.514450431
 34
0.0
100
AcDbRotatedDimension
  0
DIMENSION
  5
18E
330
1F
100
AcDbEntity
  8
0
  6
Continuous
 62
     7
370
     0
100
AcDbDimension
  2
*D15
 10
185.8308017241
 20
157.514575431
 30
0.0
 11
209.680735273
 21
157.514575431
 31
0.0
 70
   160
  1
(<>)
 71
     2
 42
-1.0
  3
SLDDIMSTYLE0
100
AcDbAlignedDimension
 13
198.3308017241
 23
116.014450431
 33
0.0
 14
185.8308017241
 24
116.014450431
 34
0.0
100
AcDbRotatedDimension
  0
DIMENSION
  5
1A1
330
1F
100
AcDbEntity
  8
0
  6
Continuous
 62
     7
370
     0
100
AcDbDimension
  2
*D16
 10
198.3308017241
 20
128.2275405638
 30
0.0
 11
218.4877359261
 21
128.2275405638
 31
0.0
 70
   160
  1
(<>)
 71
     2
 42
-1.0
  3
SLDDIMSTYLE0
100
AcDbAlignedDimension
 13
200.8308017241
 23
114.014450431
 33
0.0
 14
198.3308017241
 24
114.014450431
 34
0.0
100
AcDbRotatedDimension
  0
DIMENSION
  5
1B5
330
1F
100
AcDbEntity
  8
0
  6
Continuous
 62
     7
370
     0
100
AcDbDimension
  2
*D17
 10
218.4877359261
 20
75.514450431
 30
0.0
 11
218.4877359261
 21
93.9490711207
 31
0.0
 70
   160
  1
(<>)
 71
     2
 42
-1.0
  3
SLDDIMSTYLE0
100
AcDbAlignedDimension
 13
200.8308017241
 23
114.014450431
 33
0.0
 14
200.8308017241
 24
75.514450431
 34
0.0
 50
90.0
100
AcDbRotatedDimension
  0
MTEXT
  5
1C9
330
1F
100
AcDbEntity
  8
0
  6
Continuous
 62
     7
370
     0
100
AcDbMText
 10
180.9173081638
 20
49.0392766626
 30
0.0
 40
3.175
 41
0.0
 71
     1
 72
     1
  1
SECTION B-B
  7
SLDTEXTSTYLE0
 73
     1
 44
1.0
  0
ENDSEC
  0
SECTION
  2
OBJECTS
  0
DICTIONARY
  5
C
330
0
100
AcDbDictionary
281
     1
  3
ACAD_GROUP
350
D
  3
ACAD_LAYOUT
350
1A
  3
ACAD_MLEADERSTYLE
350
1CB
  3
ACAD_MLINESTYLE
350
17
  3
ACAD_PLOTSETTINGS
350
19
  3
ACAD_PLOTSTYLENAME
350
E
  3
ACAD_TABLESTYLE
350
1CA
  3
ACAD_VISUALSTYLE
350
2A
  3
AcDbVariableDictionary
350
1CC
  0
DICTIONARY
  5
D
102
{ACAD_REACTORS
330
C
102
}
330
C
100
AcDbDictionary
281
     1
  0
DICTIONARY
  5
1A
102
{ACAD_REACTORS
330
C
102
}
330
C
100
AcDbDictionary
281
     1
  3
Layout1
350
1E
  3
Layout2
350
26
  3
Model
350
22
  0
DICTIONARY
  5
1CB
102
{ACAD_REACTORS
330
C
102
}
330
C
100
AcDbDictionary
281
     1
  0
DICTIONARY
  5
17
102
{ACAD_REACTORS
330
C
102
}
330
C
100
AcDbDictionary
281
     1
  3
Standard
350
18
  0
DICTIONARY
  5
19
102
{ACAD_REACTORS
330
C
102
}
330
C
100
AcDbDictionary
281
     1
  0
ACDBDICTIONARYWDFLT
  5
E
102
{ACAD_REACTORS
330
C
102
}
330
C
100
AcDbDictionary
281
     1
  3
Normal
350
F
100
AcDbDictionaryWithDefault
340
F
  0
DICTIONARY
  5
1CA
102
{ACAD_REACTORS
330
C
102
}
330
C
100
AcDbDictionary
281
     1
  0
DICTIONARY
  5
2A
102
{ACAD_REACTORS
330
C
102
}
330
C
100
AcDbDictionary
281
     1
  3
2dWireframe
350
2F
  3
3D Hidden
350
31
  3
3dWireframe
350
30
  3
Basic
350
32
  3
Brighten
350
36
  3
ColorChange
350
3A
  3
Conceptual
350
34
  3
Dim
350
35
  3
Facepattern
350
39
  3
Flat
350
2B
  3
FlatWithEdges
350
2C
  3
Gouraud
350
2D
  3
GouraudWithEdges
350
2E
  3
Linepattern
350
38
  3
Realistic
350
33
  3
Thicken
350
37
  0
DICTIONARY
  5
1CC
102
{ACAD_REACTORS
330
C
102
}
330
C
100
AcDbDictionary
281
     1
  3
PSOLHEIGHT
350
1CE
  3
PSOLWIDTH
350
1CD
  0
LAYOUT
  5
1E
102
{ACAD_REACTORS
330
1A
102
}
330
1A
100
AcDbPlotSettings
  1

  2
none_device
  4

  6

 40
0.0
 41
0.0
 42
0.0
 43
0.0
 44
0.0
 45
0.0
 46
0.0
 47
0.0
 48
0.0
 49
0.0
140
0.0
141
0.0
142
1.0
143
1.0
 70
   688
 72
     0
 73
     0
 74
     5
  7

 75
    16
147
1.0
148
0.0
149
0.0
100
AcDbLayout
  1
Layout1
 70
     1
 71
     1
 10
0.0
 20
0.0
 11
420.0
 21
297.0
 12
0.0
 22
0.0
 32
0.0
 14
1.0000000000E+20
 24
1.0000000000E+20
 34
1.0000000000E+20
 15
-1.0000000000E+20
 25
-1.0000000000E+20
 35
-1.0000000000E+20
146
0.0
 13
0.0
 23
0.0
 33
0.0
 16
1.0
 26
0.0
 36
0.0
 17
0.0
 27
1.0
 37
0.0
 76
     0
330
1B
  0
LAYOUT
  5
26
102
{ACAD_REACTORS
330
1A
102
}
330
1A
100
AcDbPlotSettings
  1

  2
none_device
  4

  6

 40
0.0
 41
0.0
 42
0.0
 43
0.0
 44
0.0
 45
0.0
 46
0.0
 47
0.0
 48
0.0
 49
0.0
140
0.0
141
0.0
142
1.0
143
1.0
 70
   688
 72
     0
 73
     0
 74
     5
  7

 75
    16
147
1.0
148
0.0
149
0.0
100
AcDbLayout
  1
Layout2
 70
     1
 71
     2
 10
0.0
 20
0.0
 11
0.0
 21
0.0
 12
0.0
 22
0.0
 32
0.0
 14
0.0
 24
0.0
 34
0.0
 15
0.0
 25
0.0
 35
0.0
146
0.0
 13
0.0
 23
0.0
 33
0.0
 16
1.0
 26
0.0
 36
0.0
 17
0.0
 27
1.0
 37
0.0
 76
     0
330
23
  0
LAYOUT
  5
22
102
{ACAD_REACTORS
330
1A
102
}
330
1A
100
AcDbPlotSettings
  1

  2
none_device
  4

  6

 40
0.0
 41
0.0
 42
0.0
 43
0.0
 44
0.0
 45
0.0
 46
0.0
 47
0.0
 48
0.0
 49
0.0
140
0.0
141
0.0
142
1.0
143
1.0
 70
  1712
 72
     0
 73
     0
 74
     0
  7

 75
     0
147
1.0
148
0.0
149
0.0
100
AcDbLayout
  1
Model
 70
     1
 71
     0
 10
0.0
 20
0.0
 11
279.4
 21
215.9
 12
0.0
 22
0.0
 32
0.0
 14
0.0
 24
0.0
 34
0.0
 15
279.4
 25
215.9
 35
0.0
146
0.0
 13
0.0
 23
0.0
 33
0.0
 16
1.0
 26
0.0
 36
0.0
 17
0.0
 27
1.0
 37
0.0
 76
     0
330
1F
331
29
  0
MLINESTYLE
  5
18
102
{ACAD_REACTORS
330
17
102
}
330
17
100
AcDbMlineStyle
  2
Standard
 70
     0
  3

 62
   256
 51
90.0
 52
90.0
 71
     2
 49
0.5
 62
   256
  6
BYLAYER
 49
-0.5
 62
   256
  6
BYLAYER
  0
ACDBPLACEHOLDER
  5
F
102
{ACAD_REACTORS
330
E
102
}
330
E
  0
VISUALSTYLE
  5
2F
102
{ACAD_REACTORS
330
2A
102
}
330
2A
100
AcDbVisualStyle
  2
2dWireframe
 70
     4
 71
     0
 72
     2
 73
     0
 90
        0
 40
-0.6
 41
-30.0
 62
     5
 63
     7
 74
     1
 91
        4
 64
     7
 65
   257
 75
     1
175
     1
 42
1.0
 92
        0
 66
   257
 43
1.0
 76
     1
 77
     6
 78
     2
 67
     7
 79
     5
170
     0
171
     0
290
     0
174
     0
 93
        1
 44
0.0
173
     0
291
     0
 45
0.0
1001
ACAD
1000
AcDbSavedByObjectVersion
1070
     0
  0
VISUALSTYLE
  5
31
102
{ACAD_REACTORS
330
2A
102
}
330
2A
100
AcDbVisualStyle
  2
3D Hidden
 70
     6
 71
     1
 72
     2
 73
     2
 90
        0
 40
-0.6
 41
-30.0
 62
     5
 63
     7
 74
     2
 91
        2
 64
     7
 65
   257
 75
     2
175
     1
 42
40.0
 92
        0
 66
   257
 43
1.0
 76
     1
 77
     6
 78
     2
 67
     7
 79
     3
170
     0
171
     0
290
     0
174
     0
 93
        1
 44
0.0
173
     0
291
     0
 45
0.0
1001
ACAD
1000
AcDbSavedByObjectVersion
1070
     0
  0
VISUALSTYLE
  5
30
102
{ACAD_REACTORS
330
2A
102
}
330
2A
100
AcDbVisualStyle
  2
3dWireframe
 70
     5
 71
     0
 72
     2
 73
     0
 90
        0
 40
-0.6
 41
-30.0
 62
     5
 63
     7
 74
     1
 91
        4
 64
     7
 65
   257
 75
     1
175
     1
 42
1.0
 92
        0
 66
   257
 43
1.0
 76
     1
 77
     6
 78
     2
 67
     7
 79
     5
170
     0
171
     0
290
     0
174
     0
 93
        1
 44
0.0
173
     0
291
     0
 45
0.0
1001
ACAD
1000
AcDbSavedByObjectVersion
1070
     0
  0
VISUALSTYLE
  5
32
102
{ACAD_REACTORS
330
2A
102
}
330
2A
100
AcDbVisualStyle
  2
Basic
 70
     7
 71
     1
 72
     0
 73
     1
 90
        0
 40
-0.6
 41
-30.0
 62
     5
 63
     7
 74
     0
 91
        4
 64
     7
 65
   257
 75
     1
175
     1
 42
1.0
 92
        8
 66
     7
 43
1.0
 76
     1
 77
     6
 78
     2
 67
     7
 79
     5
170
     0
171
     0
290
     0
174
     0
 93
        1
 44
0.0
173
     0
291
     1
 45
0.0
1001
ACAD
1000
AcDbSavedByObjectVersion
1070
     0
  0
VISUALSTYLE
  5
36
102
{ACAD_REACTORS
330
2A
102
}
330
2A
100
AcDbVisualStyle
  2
Brighten
 70
    12
 71
     2
 72
     2
 73
     0
 90
        0
 40
-0.6
 41
-30.0
 62
     5
 63
     7
 74
     1
 91
        4
 64
     7
 65
   257
 75
     1
175
     1
 42
1.0
 92
        8
 66
     7
 43
1.0
 76
     1
 77
     6
 78
     2
 67
     7
 79
     5
170
     0
171
     0
290
     0
174
     0
 93
        1
 44
50.0
173
     0
291
     1
 45
0.0
1001
ACAD
1000
AcDbSavedByObjectVersion
1070
     0
  0
VISUALSTYLE
  5
3A
102
{ACAD_REACTORS
330
2A
102
}
330
2A
100
AcDbVisualStyle
  2
ColorChange
 70
    16
 71
     2
 72
     2
 73
     3
 90
        0
 40
-0.6
 41
-30.0
 62
     5
 63
     8
 74
     1
 91
        4
 64
     7
 65
   257
 75
     1
175
     1
 42
1.0
 92
        8
 66
     8
 43
1.0
 76
     1
 77
     6
 78
     2
 67
     7
 79
     5
170
     0
171
     0
290
     0
174
     0
 93
        1
 44
0.0
173
     0
291
     1
 45
0.0
1001
ACAD
1000
AcDbSavedByObjectVersion
1070
     0
  0
VISUALSTYLE
  5
34
102
{ACAD_REACTORS
330
2A
102
}
330
2A
100
AcDbVisualStyle
  2
Conceptual
 70
     9
 71
     3
 72
     2
 73
     0
 90
        0
 40
-0.6
 41
-30.0
 62
     5
 63
     7
 74
     2
 91
        2
 64
     7
 65
   257
 75
     1
175
     1
 42
40.0
 92
        8
 66
     7
 43
1.0
 76
     1
 77
     6
 78
     2
 67
     7
 79
     3
170
     0
171
     0
290
     0
174
     0
 93
        1
 44
0.0
173
     0
291
     0
 45
0.0
1001
ACAD
1000
AcDbSavedByObjectVersion
1070
     0
  0
VISUALSTYLE
  5
35
102
{ACAD_REACTORS
330
2A
102
}
330
2A
100
AcDbVisualStyle
  2
Dim
 70
    11
 71
     2
 72
     2
 73
     0
 90
        0
 40
-0.6
 41
-30.0
 62
     5
 63
     7
 74
     1
 91
        4
 64
     7
 65
   257
 75
     1
175
     1
 42
1.0
 92
        8
 66
     7
 43
1.0
 76
     1
 77
     6
 78
     2
 67
     7
 79
     5
170
     0
171
     0
290
     0
174
     0
 93
        1
 44
-50.0
173
     0
291
     1
 45
0.0
1001
ACAD
1000
AcDbSavedByObjectVersion
1070
     0
  0
VISUALSTYLE
  5
39
102
{ACAD_REACTORS
330
2A
102
}
330
2A
100
AcDbVisualStyle
  2
Facepattern
 70
    15
 71
     2
 72
     2
 73
     0
 90
        0
 40
-0.6
 41
-30.0
 62
     5
 63
     7
 74
     1
 91
        4
 64
     7
 65
   257
 75
     1
175
     1
 42
1.0
 92
        8
 66
     7
 43
1.0
 76
     1
 77
     6
 78
     2
 67
     7
 79
     5
170
     0
171
     0
290
     0
174
     0
 93
        1
 44
0.0
173
     0
291
     1
 45
0.0
1001
ACAD
1000
AcDbSavedByObjectVersion
1070
     0
  0
VISUALSTYLE
  5
2B
102
{ACAD_REACTORS
330
2A
102
}
330
2A
100
AcDbVisualStyle
  2
Flat
 70
     0
 71
     2
 72
     1
 73
     1
 90
        2
 40
-0.6
 41
30.0
 62
     5
 63
     7
 74
     0
 91
        4
 64
     7
 65
   257
 75
     1
175
     1
 42
1.0
 92
        8
 66
     7
 43
1.0
 76
     1
 77
     6
 78
     2
 67
     7
 79
     5
170
     0
171
     0
290
     0
174
     0
 93
       13
 44
0.0
173
     0
291
     1
 45
0.0
1001
ACAD
1000
AcDbSavedByObjectVersion
1070
     0
  0
VISUALSTYLE
  5
2C
102
{ACAD_REACTORS
330
2A
102
}
330
2A
100
AcDbVisualStyle
  2
FlatWithEdges
 70
     1
 71
     2
 72
     1
 73
     1
 90
        2
 40
-0.6
 41
30.0
 62
     5
 63
     7
 74
     1
 91
        4
 64
     7
 65
   257
 75
     1
175
     1
 42
1.0
 92
        0
 66
   257
 43
1.0
 76
     1
 77
     6
 78
     2
 67
     7
 79
     5
170
     0
171
     0
290
     0
174
     0
 93
       13
 44
0.0
173
     0
291
     1
 45
0.0
1001
ACAD
1000
AcDbSavedByObjectVersion
1070
     0
  0
VISUALSTYLE
  5
2D
102
{ACAD_REACTORS
330
2A
102
}
330
2A
100
AcDbVisualStyle
  2
Gouraud
 70
     2
 71
     2
 72
     2
 73
     1
 90
        2
 40
-0.6
 41
30.0
 62
     5
 63
     7
 74
     0
 91
        4
 64
     7
 65
   257
 75
     1
175
     1
 42
1.0
 92
        0
 66
     7
 43
1.0
 76
     1
 77
     6
 78
     2
 67
     7
 79
     5
170
     0
171
     0
290
     0
174
     0
 93
       13
 44
0.0
173
     0
291
     1
 45
0.0
1001
ACAD
1000
AcDbSavedByObjectVersion
1070
     0
  0
VISUALSTYLE
  5
2E
102
{ACAD_REACTORS
330
2A
102
}
330
2A
100
AcDbVisualStyle
  2
GouraudWithEdges
 70
     3
 71
     2
 72
     2
 73
     1
 90
        2
 40
-0.6
 41
30.0
 62
     5
 63
     7
 74
     1
 91
        4
 64
     7
 65
   257
 75
     1
175
     1
 42
1.0
 92
        0
 66
   257
 43
1.0
 76
     1
 77
     6
 78
     2
 67
     7
 79
     5
170
     0
171
     0
290
     0
174
     0
 93
       13
 44
0.0
173
     0
291
     1
 45
0.0
1001
ACAD
1000
AcDbSavedByObjectVersion
1070
     0
  0
VISUALSTYLE
  5
38
102
{ACAD_REACTORS
330
2A
102
}
330
2A
100
AcDbVisualStyle
  2
Linepattern
 70
    14
 71
     2
 72
     2
 73
     0
 90
        0
 40
-0.6
 41
-30.0
 62
     5
 63
     7
 74
     1
 91
        4
 64
     7
 65
   257
 75
     7
175
     7
 42
1.0
 92
        8
 66
     7
 43
1.0
 76
     1
 77
     6
 78
     2
 67
     7
 79
     5
170
     0
171
     0
290
     0
174
     0
 93
        1
 44
0.0
173
     0
291
     1
 45
0.0
1001
ACAD
1000
AcDbSavedByObjectVersion
1070
     0
  0
VISUALSTYLE
  5
33
102
{ACAD_REACTORS
330
2A
102
}
330
2A
100
AcDbVisualStyle
  2
Realistic
 70
     8
 71
     2
 72
     2
 73
     0
 90
        0
 40
-0.6
 41
-30.0
 62
     5
 63
     7
 74
     1
 91
        0
 64
     7
 65
   257
 75
     1
175
     1
 42
1.0
 92
        8
 66
     8
 43
1.0
 76
     1
 77
     6
 78
     2
 67
     7
 79
     5
170
     0
171
     0
290
     0
174
     0
 93
       13
 44
0.0
173
     0
291
     0
 45
0.0
1001
ACAD
1000
AcDbSavedByObjectVersion
1070
     0
  0
VISUALSTYLE
  5
37
102
{ACAD_REACTORS
330
2A
102
}
330
2A
100
AcDbVisualStyle
  2
Thicken
 70
    13
 71
     2
 72
     2
 73
     0
 90
        0
 40
-0.6
 41
-30.0
 62
     5
 63
     7
 74
     1
 91
        4
 64
     7
 65
   257
 75
     1
175
     1
 42
1.0
 92
       12
 66
     7
 43
1.0
 76
     1
 77
     6
 78
     2
 67
     7
 79
     5
170
     0
171
     0
290
     0
174
     0
 93
        1
 44
0.0
173
     0
291
     1
 45
0.0
1001
ACAD
1000
AcDbSavedByObjectVersion
1070
     0
  0
DICTIONARYVAR
  5
1CE
102
{ACAD_REACTORS
330
1CC
102
}
330
1CC
100
DictionaryVariables
280
     0
  1
80.000000
  0
DICTIONARYVAR
  5
1CD
102
{ACAD_REACTORS
330
1CC
102
}
330
1CC
100
DictionaryVariables
280
     0
  1
5.000000
  0
ENDSEC
  0
EOF
